<svg width="15" height="16" viewBox="0 0 15 16" fill="none" xmlns="http://www.w3.org/2000/svg">
<path d="M5.0325 4.68932L6.75 2.9553V10.1854C6.75 10.3854 6.82902 10.5771 6.96967 10.7185C7.11032 10.8599 7.30109 10.9393 7.5 10.9393C7.69891 10.9393 7.88968 10.8599 8.03033 10.7185C8.17098 10.5771 8.25 10.3854 8.25 10.1854V2.9553L9.9675 4.68932C10.0372 4.75998 10.1202 4.81607 10.2116 4.85434C10.303 4.89262 10.401 4.91232 10.5 4.91232C10.599 4.91232 10.697 4.89262 10.7884 4.85434C10.8798 4.81607 10.9628 4.75998 11.0325 4.68932C11.1028 4.61923 11.1586 4.53584 11.1967 4.44397C11.2347 4.3521 11.2543 4.25356 11.2543 4.15403C11.2543 4.05451 11.2347 3.95596 11.1967 3.86409C11.1586 3.77222 11.1028 3.68883 11.0325 3.61875L8.0325 0.603061C7.96117 0.534424 7.87706 0.48062 7.785 0.444738C7.6024 0.369332 7.39759 0.369332 7.215 0.444738C7.12294 0.48062 7.03883 0.534424 6.9675 0.603061L3.9675 3.61875C3.89757 3.68904 3.8421 3.77249 3.80425 3.86434C3.76641 3.95618 3.74693 4.05462 3.74693 4.15403C3.74693 4.25344 3.76641 4.35188 3.80425 4.44373C3.8421 4.53557 3.89757 4.61902 3.9675 4.68932C4.03743 4.75961 4.12045 4.81537 4.21181 4.85341C4.30318 4.89146 4.4011 4.91104 4.5 4.91104C4.59889 4.91104 4.69682 4.89146 4.78819 4.85341C4.87955 4.81537 4.96257 4.75961 5.0325 4.68932ZM14.25 7.92364C14.0511 7.92364 13.8603 8.00307 13.7197 8.14446C13.579 8.28585 13.5 8.47761 13.5 8.67756V13.2011C13.5 13.401 13.421 13.5928 13.2803 13.7342C13.1397 13.8756 12.9489 13.955 12.75 13.955H2.25C2.05109 13.955 1.86032 13.8756 1.71967 13.7342C1.57902 13.5928 1.5 13.401 1.5 13.2011V8.67756C1.5 8.47761 1.42098 8.28585 1.28033 8.14446C1.13968 8.00307 0.948912 7.92364 0.75 7.92364C0.551088 7.92364 0.360322 8.00307 0.21967 8.14446C0.0790176 8.28585 0 8.47761 0 8.67756V13.2011C0 13.8009 0.237053 14.3762 0.65901 14.8004C1.08097 15.2246 1.65326 15.4629 2.25 15.4629H12.75C13.3467 15.4629 13.919 15.2246 14.341 14.8004C14.7629 14.3762 15 13.8009 15 13.2011V8.67756C15 8.47761 14.921 8.28585 14.7803 8.14446C14.6397 8.00307 14.4489 7.92364 14.25 7.92364Z" fill="#575757"/>
</svg>
