<svg width="20" height="20" viewBox="0 0 20 20" fill="none" xmlns="http://www.w3.org/2000/svg">
<rect width="20" height="20" rx="10" fill="#F8F8F8"/>
<path d="M8.05853 4.32501L8.00038 4.26686C7.40242 4.86481 7.06653 5.67573 7.06653 6.52136L8.05853 4.32501ZM8.05853 4.32501C7.47625 4.90736 7.14826 5.69669 7.14641 6.52024L7.14641 6.52122L8.05853 4.32501ZM7.56653 6.5209C7.56665 5.80805 7.84985 5.12449 8.35392 4.62042C8.35392 4.62042 8.35393 4.62041 8.35393 4.62041L7.56653 6.5209ZM7.14641 6.52136L7.14639 6.53031L7.14677 6.54037C7.15121 6.6569 7.16308 6.77285 7.1822 6.88759L7.1872 6.91757L7.10761 6.92108L7.33112 7.55677C7.4852 7.99495 7.7349 8.39072 8.05955 8.7167C8.18349 8.84115 8.31836 8.95543 8.463 9.05801L7.14641 6.52136ZM7.72258 7.41913C7.70918 7.3815 7.69662 7.34356 7.6849 7.30534L7.80281 7.39091L7.81395 7.64335C7.78015 7.57002 7.74966 7.4952 7.72258 7.41913Z" stroke="black"/>
<path d="M15.7608 14.7371C15.7638 14.8665 15.7321 14.9944 15.669 15.1075M15.7608 14.7371L12.1676 14.0003C11.8987 14.2019 11.7306 14.5104 11.7068 14.8456C11.6829 15.1809 11.8058 15.51 12.0434 15.7477C12.2811 15.9852 12.6101 16.1082 12.9454 16.0842M15.7608 14.7371C15.7577 14.6075 15.7201 14.4812 15.6516 14.3713M15.7608 14.7371L15.6313 14.3373L15.6516 14.3713M15.669 15.1075L15.6631 15.1192C15.4915 15.3743 15.1994 15.5214 14.8922 15.5075M15.669 15.1075L15.7319 15.1392L15.669 15.1075ZM14.8922 15.5075H14.0226C13.9312 15.5066 13.8449 15.5497 13.7908 15.6234C13.5892 15.8923 13.2807 16.0604 12.9454 16.0842M14.8922 15.5075L14.8891 15.5754L15.7303 15.1418C15.7285 15.1446 15.7267 15.1474 15.7248 15.1502C15.7233 15.1526 15.7217 15.1551 15.7201 15.1575C15.6353 15.2851 15.5203 15.3902 15.3854 15.4631L15.385 15.4633C15.2391 15.5423 15.0746 15.5811 14.9086 15.5756L14.9004 15.5754H14.8922V15.5075ZM12.9454 16.0842L12.9502 16.1513L11.6198 15.1059C11.6586 15.3744 11.7845 15.6228 11.9782 15.8128C11.9782 15.8128 11.9782 15.8129 11.9782 15.8129C11.9783 15.813 11.9784 15.8131 11.9785 15.8132L11.9786 15.8133C12.1669 15.998 12.4091 16.1176 12.6698 16.1551H12.8517H12.8523C12.8851 16.1551 12.9177 16.1539 12.9502 16.1513L12.9454 16.0842ZM15.6516 14.3713L15.7395 14.3166C15.7392 14.3161 15.7389 14.3156 15.7386 14.3151L15.6516 14.3713Z" stroke="black"/>
</svg>
