<svg width="20" height="20" viewBox="0 0 20 20" fill="none" xmlns="http://www.w3.org/2000/svg">
<rect width="20" height="20" rx="10" fill="#F8F8F8"/>
<mask id="path-2-inside-1_572_6400" fill="white">
<path d="M10.2548 9.70972C11.1004 9.70972 11.9113 9.37379 12.5093 8.77587C13.1072 8.17792 13.4431 7.367 13.4431 6.52136C13.4431 5.67573 13.1072 4.86481 12.5093 4.26686C11.9113 3.6689 11.1004 3.33301 10.2548 3.33301C9.40913 3.33301 8.59821 3.66894 8.00026 4.26686C7.4023 4.86481 7.06641 5.67573 7.06641 6.52136C7.06796 7.36647 7.40439 8.17662 8.00194 8.77418C8.5995 9.37174 9.40966 9.70816 10.2548 9.70972ZM10.2548 9.13002C9.71634 9.12937 9.19136 8.9618 8.75221 8.65022C8.31303 8.33876 7.98127 7.8988 7.80269 7.39091C10.1678 7.28662 11.1012 6.36478 11.4664 5.65181C11.8068 6.15698 12.2802 6.55823 12.8344 6.81121C12.7645 7.44719 12.4629 8.03518 11.9871 8.46296C11.5113 8.89062 10.8947 9.12806 10.2548 9.13002ZM10.2548 3.91271C10.4243 3.91219 10.5933 3.92979 10.7592 3.96486L10.9157 4.00549C11.022 4.03214 11.1264 4.06514 11.2286 4.10396C11.2866 4.10396 11.3446 4.16193 11.4025 4.19092C11.4907 4.23155 11.5758 4.27813 11.6577 4.33015C11.7141 4.36547 11.7682 4.40416 11.82 4.44609L12.0345 4.62582C12.0867 4.67214 12.1331 4.72442 12.1794 4.77075L12.3533 4.98529C12.394 5.03743 12.4287 5.0954 12.4693 5.15337C12.5163 5.23205 12.5588 5.31331 12.5967 5.39677C12.6305 5.45824 12.6596 5.52216 12.6837 5.58802C12.7185 5.67498 12.7417 5.76775 12.7707 5.86053C12.7996 5.95331 12.8055 5.99381 12.817 6.06343C12.8198 6.08646 12.82 6.10988 12.8171 6.13292C12.2629 5.83284 11.8548 5.32004 11.6867 4.71265C11.6524 4.57174 11.5174 4.47934 11.3735 4.49824C11.2291 4.51325 11.1206 4.63708 11.1243 4.78226C11.1243 4.85757 11.049 6.69528 7.67527 6.80539C7.65962 6.71144 7.64991 6.6166 7.64629 6.52136C7.64784 5.82999 7.9232 5.16734 8.41206 4.67847C8.90093 4.1896 9.56339 3.91427 10.2548 3.91271Z"/>
</mask>
<path d="M10.2548 9.70972L10.2529 10.7097H10.2548V9.70972ZM12.5093 8.77587L13.2164 9.483L13.2164 9.48298L12.5093 8.77587ZM12.5093 4.26686L13.2164 3.55977L13.2164 3.55975L12.5093 4.26686ZM8.00026 4.26686L7.29317 3.55973L7.29315 3.55975L8.00026 4.26686ZM7.06641 6.52136L6.0664 6.52136L6.06641 6.5232L7.06641 6.52136ZM10.2548 9.13002L10.2536 10.13L10.2578 10.13L10.2548 9.13002ZM8.75221 8.65022L9.33086 7.83465L9.33069 7.83452L8.75221 8.65022ZM7.80269 7.39091L7.75864 6.39188L6.41228 6.45125L6.85931 7.72262L7.80269 7.39091ZM11.4664 5.65181L12.2957 5.09296L11.3489 3.68799L10.5764 5.19587L11.4664 5.65181ZM12.8344 6.81121L13.8284 6.92043L13.9074 6.20173L13.2496 5.9015L12.8344 6.81121ZM11.9871 8.46296L12.6556 9.20669L12.6557 9.20658L11.9871 8.46296ZM10.2548 3.91271L10.257 4.91271L10.2578 4.9127L10.2548 3.91271ZM10.7592 3.96486L11.0104 2.99692L10.9883 2.99119L10.966 2.98647L10.7592 3.96486ZM10.9157 4.00549L10.6645 4.97346L10.6724 4.97542L10.9157 4.00549ZM11.2286 4.10396L10.8736 5.03882L11.0451 5.10396H11.2286V4.10396ZM11.4025 4.19092L10.9553 5.08534L10.9695 5.09241L10.9838 5.09903L11.4025 4.19092ZM11.6577 4.33015L11.1216 5.17432L11.127 5.17771L11.6577 4.33015ZM11.82 4.44609L12.4621 3.67954L12.4558 3.67422L12.4494 3.66902L11.82 4.44609ZM12.0345 4.62582L12.6986 3.8782L12.6878 3.86858L12.6767 3.85927L12.0345 4.62582ZM12.1794 4.77075L12.9563 4.14104L12.9234 4.10052L12.8865 4.06364L12.1794 4.77075ZM12.3533 4.98529L13.1422 4.37065L13.1362 4.36306L13.1302 4.35558L12.3533 4.98529ZM12.4693 5.15337L13.3279 4.64074L13.3091 4.60935L13.2882 4.57941L12.4693 5.15337ZM12.5967 5.39677L11.6863 5.81037L11.702 5.84499L11.7203 5.87832L12.5967 5.39677ZM12.6837 5.58802L11.7445 5.93127L11.7497 5.94555L11.7553 5.95966L12.6837 5.58802ZM12.817 6.06343L13.8094 5.94077L13.8069 5.92045L13.8036 5.90025L12.817 6.06343ZM12.8171 6.13292L12.341 7.01229L13.6298 7.71014L13.8096 6.25556L12.8171 6.13292ZM11.6867 4.71265L10.715 4.9491L10.7187 4.96429L10.7229 4.97935L11.6867 4.71265ZM11.3735 4.49824L11.4769 5.49288L11.4903 5.49148L11.5037 5.48973L11.3735 4.49824ZM11.1243 4.78226H12.1243V4.76934L12.124 4.75642L11.1243 4.78226ZM7.67527 6.80539L6.68888 6.96979L6.83282 7.83341L7.70789 7.80485L7.67527 6.80539ZM7.64629 6.52136L6.64629 6.51911L6.64625 6.53925L6.64701 6.55938L7.64629 6.52136ZM8.41206 4.67847L7.70495 3.97137L7.70494 3.97138L8.41206 4.67847ZM10.2548 10.7097C11.3656 10.7097 12.4309 10.2684 13.2164 9.483L11.8022 8.06874C11.3917 8.47916 10.8351 8.70972 10.2548 8.70972V10.7097ZM13.2164 9.48298C14.0019 8.69749 14.4431 7.63222 14.4431 6.52136H12.4431C12.4431 7.10178 12.2126 7.65834 11.8022 8.06876L13.2164 9.48298ZM14.4431 6.52136C14.4431 5.41049 14.0018 4.34523 13.2164 3.55977L11.8021 4.97394C12.2126 5.38439 12.4431 5.94097 12.4431 6.52136H14.4431ZM13.2164 3.55975C12.4309 2.77426 11.3656 2.33301 10.2548 2.33301V4.33301C10.8352 4.33301 11.3917 4.56355 11.8022 4.97396L13.2164 3.55975ZM10.2548 2.33301C9.14389 2.33301 8.07863 2.77431 7.29317 3.55973L8.70734 4.97398C9.11779 4.56356 9.67437 4.33301 10.2548 4.33301V2.33301ZM7.29315 3.55975C6.50766 4.34524 6.06641 5.41051 6.06641 6.52136H8.06641C8.06641 5.94095 8.29694 5.38438 8.70736 4.97396L7.29315 3.55975ZM6.06641 6.5232C6.06845 7.63286 6.51018 8.69663 7.29484 9.48129L8.70905 8.06707C8.2986 7.65662 8.06747 7.10007 8.0664 6.51953L6.06641 6.5232ZM7.29484 9.48129C8.0795 10.2659 9.14326 10.7077 10.2529 10.7097L10.2566 8.70972C9.67605 8.70865 9.1195 8.47752 8.70905 8.06707L7.29484 9.48129ZM10.256 8.13002C9.92435 8.12962 9.60115 8.02642 9.33086 7.83465L8.17356 9.4658C8.78157 9.89718 9.50832 10.1291 10.2536 10.13L10.256 8.13002ZM9.33069 7.83452C9.06024 7.64273 8.856 7.37184 8.74607 7.0592L6.85931 7.72262C7.10654 8.42575 7.56582 9.0348 8.17373 9.46592L9.33069 7.83452ZM7.84675 8.38994C10.4973 8.27306 11.7962 7.20126 12.3564 6.10775L10.5764 5.19587C10.4061 5.5283 9.83832 6.30018 7.75864 6.39188L7.84675 8.38994ZM10.6371 6.21066C11.0805 6.86862 11.6971 7.39135 12.4192 7.72092L13.2496 5.9015C12.8632 5.72512 12.5331 5.44533 12.2957 5.09296L10.6371 6.21066ZM11.8404 6.702C11.7973 7.09368 11.6116 7.45584 11.3185 7.71934L12.6557 9.20658C13.3142 8.61452 13.7317 7.80071 13.8284 6.92043L11.8404 6.702ZM11.3186 7.71924C11.0257 7.98255 10.6459 8.12882 10.2517 8.13002L10.2578 10.13C11.1434 10.1273 11.997 9.79869 12.6556 9.20669L11.3186 7.71924ZM10.2578 4.9127C10.356 4.9124 10.4547 4.9226 10.5524 4.94324L10.966 2.98647C10.7318 2.93698 10.4925 2.91198 10.2517 2.91271L10.2578 4.9127ZM10.508 4.93279L10.6646 4.97343L11.1669 3.03755L11.0104 2.99692L10.508 4.93279ZM10.6724 4.97542C10.7397 4.99231 10.8069 5.01347 10.8736 5.03882L11.5836 3.1691C11.4459 3.11681 11.3043 3.07197 11.1591 3.03555L10.6724 4.97542ZM11.2286 5.10396C11.0766 5.10396 10.9603 5.06618 10.8957 5.03994C10.8329 5.01441 10.7916 4.98831 10.7856 4.98457C10.781 4.98168 10.7791 4.98037 10.7841 4.98372C10.785 4.98427 10.8005 4.99465 10.8104 5.00115C10.8323 5.01555 10.8866 5.05098 10.9553 5.08534L11.8497 3.29649C11.8895 3.31636 11.9148 3.33367 11.9077 3.32905C11.9031 3.32604 11.9042 3.32668 11.8905 3.31761C11.8811 3.31133 11.8647 3.30052 11.8456 3.28857C11.8106 3.26671 11.7403 3.22431 11.6485 3.187C11.5549 3.14899 11.4096 3.10396 11.2286 3.10396V5.10396ZM10.9838 5.09903C11.0304 5.12051 11.0764 5.14559 11.1216 5.1743L12.1938 3.48599C12.0752 3.41067 11.9509 3.34258 11.8213 3.2828L10.9838 5.09903ZM11.127 5.17771C11.1486 5.19125 11.1698 5.20635 11.1906 5.22316L12.4494 3.66902C12.3666 3.60198 12.2796 3.53969 12.1884 3.48259L11.127 5.17771ZM11.1778 5.21264L11.3923 5.39237L12.6767 3.85927L12.4621 3.67954L11.1778 5.21264ZM11.3704 5.37344C11.3687 5.37195 11.3732 5.37578 11.3915 5.39472C11.4017 5.4052 11.409 5.41289 11.4241 5.42855C11.437 5.44191 11.4538 5.45937 11.4723 5.47785L12.8865 4.06364C12.8694 4.04648 12.8663 4.04261 12.8268 4.00185C12.7973 3.97148 12.7525 3.92601 12.6986 3.8782L11.3704 5.37344ZM11.4026 5.40045L11.5765 5.615L13.1302 4.35558L12.9563 4.14104L11.4026 5.40045ZM11.5645 5.59992C11.561 5.59539 11.563 5.5974 11.5791 5.62162C11.5829 5.62726 11.5868 5.63312 11.5917 5.64053C11.5963 5.64752 11.6019 5.65595 11.6077 5.66463C11.6193 5.68205 11.6339 5.70377 11.6504 5.72734L13.2882 4.57941C13.2769 4.56331 13.2708 4.55358 13.2435 4.51267C13.222 4.48038 13.1863 4.42733 13.1422 4.37065L11.5645 5.59992ZM11.6107 5.66601C11.6386 5.71279 11.6639 5.761 11.6863 5.81037L13.5072 4.98317C13.4538 4.86562 13.3939 4.7513 13.3279 4.64074L11.6107 5.66601ZM11.7203 5.87832C11.73 5.89593 11.738 5.91366 11.7445 5.93127L13.6229 5.24477C13.5812 5.13066 13.531 5.02055 13.4732 4.91523L11.7203 5.87832ZM11.7553 5.95966C11.7714 5.99993 11.7632 5.98918 11.8161 6.15873L13.7252 5.56234C13.7202 5.54633 13.6656 5.35003 13.6121 5.21639L11.7553 5.95966ZM11.8161 6.15873C11.8201 6.17131 11.8219 6.17787 11.8225 6.18026C11.823 6.18212 11.8229 6.18166 11.8226 6.18015C11.8223 6.17901 11.8226 6.18015 11.8238 6.18693C11.8254 6.19642 11.8267 6.20449 11.8304 6.22661L13.8036 5.90025C13.7901 5.81907 13.7754 5.72322 13.7252 5.56234L11.8161 6.15873ZM11.8245 6.18609C11.8178 6.13142 11.817 6.07236 11.8247 6.01027L13.8096 6.25556C13.8229 6.1474 13.8219 6.0415 13.8094 5.94077L11.8245 6.18609ZM13.2932 5.25355C12.9781 5.08292 12.746 4.79133 12.6505 4.44595L10.7229 4.97935C10.9635 5.84875 11.5477 6.58276 12.341 7.01229L13.2932 5.25355ZM12.6583 4.4762C12.5032 3.83856 11.8927 3.42149 11.2434 3.50675L11.5037 5.48973C11.1422 5.5372 10.8016 5.30491 10.715 4.9491L12.6583 4.4762ZM11.2702 3.50359C10.6053 3.5727 10.1074 4.14203 10.1247 4.80811L12.124 4.75642C12.1337 5.13213 11.853 5.45379 11.4769 5.49288L11.2702 3.50359ZM10.1243 4.78226C10.1243 4.65753 10.148 4.86377 9.9264 5.10658C9.72019 5.33247 9.1493 5.75675 7.64265 5.80592L7.70789 7.80485C9.575 7.74392 10.7286 7.19428 11.4035 6.45497C12.063 5.73257 12.1243 4.9823 12.1243 4.78226H10.1243ZM8.66167 6.64098C8.65294 6.58863 8.64757 6.53599 8.64557 6.48334L6.64701 6.55938C6.65226 6.6972 6.66629 6.83426 6.68888 6.96979L8.66167 6.64098ZM8.64629 6.52361C8.64725 6.09668 8.81729 5.68746 9.11917 5.38557L7.70494 3.97138C7.02911 4.64722 6.64844 5.5633 6.64629 6.51911L8.64629 6.52361ZM9.11916 5.38558C9.42109 5.08365 9.83014 4.91367 10.257 4.91271L10.2525 2.91271C9.29665 2.91486 8.38076 3.29555 7.70495 3.97137L9.11916 5.38558Z" fill="black" mask="url(#path-2-inside-1_572_6400)"/>
<mask id="path-4-inside-2_572_6400" fill="white">
<path d="M14.3125 10.9915C14.1063 10.6613 13.7764 10.4273 13.3966 10.3422C13.3249 10.0857 13.1388 9.87658 12.8925 9.77555C12.6461 9.67452 12.3669 9.69274 12.1357 9.82498C11.9045 9.95723 11.7473 10.1887 11.7096 10.4523C11.3192 10.8324 10.7935 11.041 10.2487 11.032C9.70344 11.0443 9.17641 10.8352 8.78794 10.4523C8.75016 10.1887 8.59294 9.95725 8.36185 9.82498C8.13061 9.69274 7.85138 9.67449 7.60499 9.77555C7.3586 9.87661 7.17266 10.0857 7.10098 10.3422C6.72533 10.4302 6.40004 10.6637 6.19661 10.9915L4.3474 14.0581C4.229 14.2571 4.1665 14.4844 4.1665 14.7161C4.1665 14.9477 4.229 15.1749 4.3474 15.374C4.47641 15.595 4.66197 15.7778 4.88516 15.9032C5.10838 16.0284 5.36095 16.0919 5.61691 16.087H6.34737C6.67785 16.4564 7.15014 16.6674 7.64587 16.6667C8.15259 16.6718 8.63626 16.4554 8.97037 16.0745C9.30447 15.6937 9.45586 15.1859 9.38497 14.6841C9.32092 14.2788 9.11556 13.9092 8.80527 13.6406V11.1944C9.24329 11.4564 9.74418 11.5947 10.2545 11.5947C10.7649 11.5947 11.2658 11.4564 11.7038 11.1944V13.6523C11.2712 14.0315 11.0542 14.6001 11.1241 15.1711C11.1775 15.5507 11.3548 15.9019 11.6285 16.1702C11.902 16.4386 12.2566 16.609 12.6371 16.6551H12.8517C13.3474 16.6557 13.8197 16.4449 14.1502 16.0754H14.8921C15.1468 16.0838 15.3991 16.0243 15.6231 15.903C15.8472 15.7819 16.0351 15.6032 16.1675 15.3856C16.2869 15.1847 16.3499 14.9554 16.3499 14.7219C16.3499 14.4882 16.2869 14.2589 16.1675 14.0581L14.3125 10.9915ZM8.51545 15.6871C8.27969 15.9382 7.94675 16.0754 7.60244 16.0631C7.2581 16.051 6.93578 15.8906 6.71838 15.6233C6.66429 15.5495 6.57798 15.5065 6.4865 15.5074H5.61695C5.30549 15.5208 5.01008 15.3688 4.84018 15.1074C4.77315 14.9963 4.73783 14.8691 4.73783 14.7393C4.73783 14.6095 4.77315 14.4823 4.84018 14.3712L6.6779 11.2929C6.76951 11.1477 6.89994 11.0313 7.05457 10.9567V13.2756C6.77883 13.3739 6.53195 13.5393 6.33578 13.7566H5.61698C5.45692 13.7566 5.32713 13.8864 5.32713 14.0465C5.32713 14.2067 5.45692 14.3363 5.61698 14.3363H6.48653C6.57815 14.3383 6.66497 14.2949 6.71841 14.2204C6.88715 13.9946 7.13235 13.838 7.40823 13.7799C7.53503 13.7595 7.66417 13.7595 7.79086 13.7799C8.04293 13.8116 8.27751 13.9252 8.45868 14.1033C8.63996 14.2813 8.75758 14.5139 8.79368 14.7654C8.83897 15.0984 8.73737 15.4346 8.51545 15.6871ZM7.84879 13.2002H7.6459V10.5799C7.6459 10.4198 7.77569 10.29 7.93575 10.29C8.09581 10.29 8.2256 10.4198 8.2256 10.5799V13.2928C8.10513 13.2504 7.98091 13.2194 7.85462 13.2002L7.84879 13.2002ZM12.5676 10.3017C12.6455 10.3016 12.7201 10.333 12.7746 10.3885C12.8292 10.4442 12.859 10.5195 12.8574 10.5972V13.2059C12.6592 13.2083 12.463 13.2456 12.2777 13.3161V10.5799C12.2777 10.502 12.309 10.4273 12.3647 10.3728C12.4203 10.3184 12.4955 10.2885 12.5734 10.29L12.5676 10.3017ZM15.6631 15.1192C15.4915 15.3743 15.1994 15.5214 14.8922 15.5075H14.0226C13.9312 15.5066 13.8449 15.5497 13.7908 15.6234C13.5892 15.8923 13.2807 16.0604 12.9454 16.0842C12.6101 16.1082 12.2811 15.9852 12.0434 15.7477C11.8058 15.51 11.6829 15.1809 11.7068 14.8456C11.7306 14.5104 11.8987 14.2019 12.1676 14.0003C12.4352 13.8066 12.7705 13.7311 13.0951 13.7916C13.3744 13.8453 13.6229 14.0026 13.7908 14.2322C13.8442 14.3067 13.931 14.35 14.0226 14.3481H14.8922C15.0523 14.3481 15.182 14.2183 15.182 14.0583C15.182 13.8982 15.0523 13.7684 14.8922 13.7684H14.1617C13.9657 13.551 13.7187 13.3856 13.4429 13.2873V10.9685C13.5989 11.0411 13.7299 11.1581 13.8197 11.3047L15.6516 14.3713C15.7201 14.4812 15.7577 14.6075 15.7608 14.7371C15.7638 14.8665 15.7321 14.9944 15.669 15.1075L15.6631 15.1192Z"/>
</mask>
<path d="M14.3125 10.9915L15.1682 10.4739L15.1608 10.462L14.3125 10.9915ZM13.3966 10.3422L12.4335 10.6114L12.5944 11.1871L13.1778 11.3179L13.3966 10.3422ZM12.1357 9.82498L12.6322 10.693L12.6324 10.6929L12.1357 9.82498ZM11.7096 10.4523L12.4072 11.1688L12.6514 10.9311L12.6996 10.5936L11.7096 10.4523ZM10.2487 11.032L10.2651 10.0322L10.2457 10.0318L10.2262 10.0323L10.2487 11.032ZM8.78794 10.4523L7.79806 10.5942L7.84589 10.9279L8.08597 11.1645L8.78794 10.4523ZM8.36185 9.82498L8.8586 8.95709L8.8583 8.95692L8.36185 9.82498ZM7.10098 10.3422L7.32904 11.3158L7.90485 11.1809L8.06406 10.6114L7.10098 10.3422ZM6.19661 10.9915L5.34688 10.4641L5.34026 10.4751L6.19661 10.9915ZM4.3474 14.0581L3.49104 13.5417L3.48799 13.5468L4.3474 14.0581ZM4.3474 15.374L5.21106 14.8699L5.20693 14.863L4.3474 15.374ZM4.88516 15.9032L4.3954 16.775L4.3958 16.7752L4.88516 15.9032ZM5.61691 16.087V15.087H5.60731L5.59771 15.0872L5.61691 16.087ZM6.34737 16.087L7.09266 15.4203L6.79452 15.087H6.34737V16.087ZM7.64587 16.6667L7.65582 15.6667L7.64453 15.6667L7.64587 16.6667ZM8.97037 16.0745L8.21867 15.415L8.21855 15.4151L8.97037 16.0745ZM9.38497 14.6841L10.3751 14.5442L10.374 14.5361L10.3727 14.528L9.38497 14.6841ZM8.80527 13.6406H7.80527V14.0976L8.15076 14.3967L8.80527 13.6406ZM8.80527 11.1944L9.31864 10.3362L7.80527 9.43086V11.1944H8.80527ZM11.7038 11.1944H12.7038V9.43086L11.1904 10.3362L11.7038 11.1944ZM11.7038 13.6523L12.363 14.4042L12.7038 14.1054V13.6523H11.7038ZM11.1241 15.1711L10.1315 15.2926L10.1326 15.3016L10.1338 15.3106L11.1241 15.1711ZM11.6285 16.1702L12.3288 15.4564L12.3286 15.4562L11.6285 16.1702ZM12.6371 16.6551L12.5169 17.6478L12.5768 17.6551H12.6371V16.6551ZM12.8517 16.6551L12.853 15.6551H12.8517V16.6551ZM14.1502 16.0754V15.0754H13.7029L13.4047 15.4088L14.1502 16.0754ZM14.8921 16.0754L14.9251 15.0759L14.9086 15.0754H14.8921V16.0754ZM15.6231 15.903L15.1476 15.0233L15.147 15.0236L15.6231 15.903ZM16.1675 15.3856L17.0219 15.9052L17.0269 15.8967L16.1675 15.3856ZM16.1675 14.0581L17.027 13.5469L17.0231 13.5405L16.1675 14.0581ZM8.51545 15.6871L9.24455 16.3715L9.25573 16.3596L9.26652 16.3473L8.51545 15.6871ZM7.60244 16.0631L7.63811 15.0638L7.63774 15.0637L7.60244 16.0631ZM6.71838 15.6233L5.91197 16.2147L5.92676 16.2348L5.94255 16.2543L6.71838 15.6233ZM6.4865 15.5074L6.4865 16.5074L6.49638 16.5073L6.4865 15.5074ZM5.61695 15.5074V14.5074H5.59535L5.57378 14.5083L5.61695 15.5074ZM4.84018 15.1074L3.98383 15.6238L3.99255 15.6383L4.00175 15.6524L4.84018 15.1074ZM4.84018 14.3712L5.69652 14.8876L5.69881 14.8838L4.84018 14.3712ZM6.6779 11.2929L5.83219 10.7593L5.8256 10.7697L5.81927 10.7803L6.6779 11.2929ZM7.05457 10.9567H8.05457V9.36476L6.62044 10.0559L7.05457 10.9567ZM7.05457 13.2756L7.3905 14.2174L8.05457 13.9806V13.2756H7.05457ZM6.33578 13.7566V14.7566H6.78033L7.07816 14.4266L6.33578 13.7566ZM6.48653 14.3363L6.50772 13.3366L6.49713 13.3363H6.48653V14.3363ZM6.71841 14.2204L5.91737 13.6218L5.91147 13.6297L5.90573 13.6377L6.71841 14.2204ZM7.40823 13.7799L7.24905 12.7927L7.22549 12.7965L7.20213 12.8014L7.40823 13.7799ZM7.79086 13.7799L7.63154 14.7672L7.64876 14.7699L7.66607 14.7721L7.79086 13.7799ZM8.45868 14.1033L7.75773 14.8165L7.75797 14.8167L8.45868 14.1033ZM8.79368 14.7654L9.78458 14.6306L9.78354 14.6234L8.79368 14.7654ZM7.84879 13.2002L7.84879 14.2002L7.85382 14.2002L7.84879 13.2002ZM7.6459 13.2002H6.6459V14.2002H7.6459V13.2002ZM8.2256 13.2928L7.89332 14.236L9.2256 14.7054V13.2928H8.2256ZM7.85462 13.2002L8.00557 12.2116L7.92803 12.1998L7.84959 12.2002L7.85462 13.2002ZM12.5676 10.3017L11.6729 9.85489L10.949 11.3044L12.5692 11.3017L12.5676 10.3017ZM12.7746 10.3885L12.0609 11.0889L12.0609 11.0889L12.7746 10.3885ZM12.8574 10.5972L11.8576 10.5773L11.8574 10.5872V10.5972H12.8574ZM12.8574 13.2059L12.8698 14.2058L13.8574 14.1936V13.2059H12.8574ZM12.2777 13.3161H11.2777V14.7667L12.6334 14.2507L12.2777 13.3161ZM12.3647 10.3728L11.6651 9.65829L11.6651 9.65829L12.3647 10.3728ZM12.5734 10.29L13.468 10.7368L14.1747 9.32176L12.5933 9.29023L12.5734 10.29ZM15.6631 15.1192L16.493 15.6772L16.5281 15.6249L16.5564 15.5687L15.6631 15.1192ZM14.8922 15.5075L14.9375 14.5085L14.9149 14.5075H14.8922V15.5075ZM14.0226 15.5075L14.0127 16.5075H14.0226V15.5075ZM13.7908 15.6234L14.5909 16.2234L14.5972 16.2148L13.7908 15.6234ZM12.9454 16.0842L12.8745 15.0867L12.8742 15.0868L12.9454 16.0842ZM12.0434 15.7477L11.3361 16.4546L11.3364 16.4549L12.0434 15.7477ZM11.7068 14.8456L12.7043 14.9169L12.7043 14.9165L11.7068 14.8456ZM12.1676 14.0003L11.5812 13.1902L11.5744 13.1952L11.5677 13.2002L12.1676 14.0003ZM13.0951 13.7916L13.284 12.8095L13.2781 12.8084L13.0951 13.7916ZM13.7908 14.2322L14.6035 13.6494L14.5981 13.642L13.7908 14.2322ZM14.0226 14.3481V13.3481H14.0121L14.0015 13.3483L14.0226 14.3481ZM14.1617 13.7684L13.4191 14.4381L13.717 14.7684H14.1617V13.7684ZM13.4429 13.2873H12.4429V13.9924L13.1071 14.2292L13.4429 13.2873ZM13.4429 10.9685L13.865 10.062L12.4429 9.39989V10.9685H13.4429ZM13.8197 11.3047L14.6783 10.7918L14.6725 10.7823L13.8197 11.3047ZM15.6516 14.3713L14.7931 14.8841L14.7978 14.8919L14.8026 14.8996L15.6516 14.3713ZM15.7608 14.7371L16.7606 14.7141L16.7606 14.7131L15.7608 14.7371ZM15.669 15.1075L14.7958 14.6201L14.7854 14.6388L14.7757 14.658L15.669 15.1075ZM15.1608 10.462C14.813 9.90483 14.2563 9.51013 13.6154 9.3664L13.1778 11.3179C13.2964 11.3445 13.3997 11.4177 13.4642 11.521L15.1608 10.462ZM14.3597 10.073C14.205 9.5195 13.8035 9.06833 13.2719 8.85032L12.5131 10.7008C12.4742 10.6848 12.4448 10.6519 12.4335 10.6114L14.3597 10.073ZM13.2719 8.85032C12.7403 8.63236 12.1379 8.67162 11.6391 8.95702L12.6324 10.6929C12.5958 10.7139 12.5518 10.7167 12.5131 10.7008L13.2719 8.85032ZM11.6393 8.95692C11.1404 9.24224 10.8009 9.74182 10.7197 10.311L12.6996 10.5936C12.6936 10.6356 12.6686 10.6722 12.6322 10.693L11.6393 8.95692ZM11.0121 9.73579C10.8125 9.93007 10.5438 10.0367 10.2651 10.0322L10.2323 12.0319C11.0433 12.0452 11.826 11.7347 12.4072 11.1688L11.0121 9.73579ZM10.2262 10.0323C9.95129 10.0385 9.68566 9.93305 9.48992 9.74011L8.08597 11.1645C8.66715 11.7374 9.45559 12.0502 10.2713 12.0318L10.2262 10.0323ZM9.77783 10.3104C9.69632 9.74182 9.35719 9.24246 8.8586 8.95709L7.86509 10.6929C7.8287 10.672 7.804 10.6356 7.79806 10.5942L9.77783 10.3104ZM8.8583 8.95692C8.35961 8.67172 7.7572 8.63227 7.22551 8.85035L7.98447 10.7007C7.94556 10.7167 7.90161 10.7138 7.86539 10.693L8.8583 8.95692ZM7.22551 8.85035C6.69369 9.06848 6.29253 9.51975 6.1379 10.073L8.06406 10.6114C8.05279 10.6517 8.02351 10.6847 7.98447 10.7007L7.22551 8.85035ZM6.87292 9.36852C6.23911 9.51698 5.69021 9.91107 5.34695 10.4642L7.04628 11.5188C7.10986 11.4164 7.21155 11.3433 7.32904 11.3158L6.87292 9.36852ZM5.34026 10.4751L3.49105 13.5417L5.20375 14.5745L7.05296 11.5079L5.34026 10.4751ZM3.48799 13.5468C3.27754 13.9005 3.1665 14.3045 3.1665 14.7161H5.1665C5.1665 14.6644 5.18046 14.6137 5.20681 14.5694L3.48799 13.5468ZM3.1665 14.7161C3.1665 15.1277 3.2776 15.5315 3.48787 15.8851L5.20693 14.863C5.1804 14.8183 5.1665 14.7676 5.1665 14.7161H3.1665ZM3.48377 15.8782C3.70228 16.2525 4.01676 16.5623 4.3954 16.775L5.37493 15.0313C5.30718 14.9932 5.25054 14.9376 5.21104 14.8699L3.48377 15.8782ZM4.3958 16.7752C4.77395 16.9874 5.20205 17.0952 5.63611 17.0868L5.59771 15.0872C5.51985 15.0887 5.4428 15.0694 5.37453 15.0311L4.3958 16.7752ZM5.61691 17.087H6.34737V15.087H5.61691V17.087ZM5.60208 16.7538C6.12246 17.3355 6.86631 17.6678 7.6472 17.6667L7.64453 15.6667C7.43397 15.667 7.23324 15.5774 7.09266 15.4203L5.60208 16.7538ZM7.63591 17.6667C8.43419 17.6746 9.196 17.3338 9.72218 16.7338L8.21855 15.4151C8.07652 15.577 7.87099 15.6689 7.65582 15.6668L7.63591 17.6667ZM9.72207 16.734C10.2484 16.134 10.4868 15.3343 10.3751 14.5442L8.3948 14.824C8.42496 15.0375 8.36051 15.2533 8.21867 15.415L9.72207 16.734ZM10.3727 14.528C10.2718 13.8895 9.94833 13.3075 9.45977 12.8846L8.15076 14.3967C8.2828 14.511 8.37003 14.6681 8.39723 14.8402L10.3727 14.528ZM9.80527 13.6406V11.1944H7.80527V13.6406H9.80527ZM8.2919 12.0525C8.88513 12.4074 9.56345 12.5947 10.2545 12.5947V10.5947C9.92492 10.5947 9.60145 10.5054 9.31864 10.3362L8.2919 12.0525ZM10.2545 12.5947C10.9456 12.5947 11.6239 12.4074 12.2171 12.0525L11.1904 10.3362C10.9076 10.5054 10.5841 10.5947 10.2545 10.5947V12.5947ZM10.7038 11.1944V13.6523H12.7038V11.1944H10.7038ZM11.0445 12.9003C10.3632 13.4977 10.0214 14.3932 10.1315 15.2926L12.1167 15.0497C12.087 14.8069 12.1792 14.5653 12.363 14.4042L11.0445 12.9003ZM10.1338 15.3106C10.218 15.9083 10.4972 16.4615 10.9284 16.8842L12.3286 15.4562C12.2123 15.3422 12.137 15.193 12.1143 15.0317L10.1338 15.3106ZM10.9282 16.884C11.3591 17.3069 11.9177 17.5753 12.5169 17.6478L12.7573 15.6623C12.5955 15.6427 12.4449 15.5703 12.3288 15.4564L10.9282 16.884ZM12.6371 17.6551H12.8517V15.6551H12.6371V17.6551ZM12.8504 17.6551C13.631 17.6561 14.375 17.3241 14.8956 16.7419L13.4047 15.4088C13.2644 15.5658 13.0638 15.6553 12.853 15.6551L12.8504 17.6551ZM14.1502 17.0754H14.8921V15.0754H14.1502V17.0754ZM14.8591 17.0748C15.2911 17.0891 15.7192 16.9881 16.0991 16.7824L15.147 15.0236C15.0791 15.0604 15.0024 15.0785 14.9251 15.0759L14.8591 17.0748ZM16.0985 16.7828C16.4789 16.5772 16.7975 16.2741 17.0218 15.9052L15.3131 14.8659C15.2727 14.9323 15.2155 14.9866 15.1476 15.0233L16.0985 16.7828ZM17.0269 15.8967C17.2384 15.5412 17.3499 15.1354 17.3499 14.7219H15.3499C15.3499 14.7755 15.3354 14.8282 15.308 14.8744L17.0269 15.8967ZM17.3499 14.7219C17.3499 14.3083 17.2384 13.9024 17.0269 13.5469L15.308 14.5693C15.3354 14.6153 15.3499 14.668 15.3499 14.7219H17.3499ZM17.0231 13.5405L15.1681 10.4739L13.4568 11.5091L15.3118 14.5757L17.0231 13.5405ZM7.78635 15.0027C7.74805 15.0435 7.69389 15.0657 7.63811 15.0638L7.56677 17.0625C8.1996 17.0851 8.81133 16.833 9.24455 16.3715L7.78635 15.0027ZM7.63774 15.0637C7.58178 15.0618 7.52946 15.0357 7.4942 14.9924L5.94255 16.2543C6.3421 16.7456 6.93442 17.0401 7.56714 17.0625L7.63774 15.0637ZM7.52479 15.032C7.27973 14.6978 6.8892 14.5033 6.47661 14.5074L6.49638 16.5073C6.26676 16.5096 6.04885 16.4013 5.91197 16.2147L7.52479 15.032ZM6.4865 14.5074H5.61695V16.5074H6.4865V14.5074ZM5.57378 14.5083C5.61558 14.5065 5.65554 14.5269 5.67861 14.5624L4.00175 15.6524C4.36462 16.2107 4.99539 16.5352 5.66011 16.5064L5.57378 14.5083ZM5.69653 14.591C5.72363 14.636 5.73783 14.6873 5.73783 14.7393H3.73783C3.73783 15.0508 3.82267 15.3565 3.98383 15.6238L5.69653 14.591ZM5.73783 14.7393C5.73783 14.7912 5.72364 14.8426 5.69651 14.8876L3.98385 13.8547C3.82266 14.122 3.73783 14.4278 3.73783 14.7393H5.73783ZM5.69881 14.8838L7.53652 11.8055L5.81927 10.7803L3.98155 13.8586L5.69881 14.8838ZM7.5236 11.8266C7.51531 11.8397 7.50323 11.8506 7.48871 11.8576L6.62044 10.0559C6.29666 10.2119 6.02371 10.4557 5.83219 10.7593L7.5236 11.8266ZM6.05457 10.9567V13.2756H8.05457V10.9567H6.05457ZM6.71865 12.3337C6.2866 12.4878 5.90017 12.7467 5.59339 13.0867L7.07816 14.4266C7.16372 14.3318 7.27105 14.26 7.3905 14.2174L6.71865 12.3337ZM6.33578 12.7566H5.61698V14.7566H6.33578V12.7566ZM5.61698 12.7566C4.90463 12.7566 4.32713 13.3341 4.32713 14.0465H6.32713C6.32713 14.4387 6.0092 14.7566 5.61698 14.7566V12.7566ZM4.32713 14.0465C4.32713 14.7593 4.90492 15.3363 5.61698 15.3363V13.3363C6.00891 13.3363 6.32713 13.6541 6.32713 14.0465H4.32713ZM5.61698 15.3363H6.48653V13.3363H5.61698V15.3363ZM6.46535 15.3361C6.88625 15.345 7.28522 15.146 7.53109 14.8031L5.90573 13.6377C6.04472 13.4438 6.27004 13.3315 6.50772 13.3366L6.46535 15.3361ZM7.51946 14.819C7.54263 14.788 7.57631 14.7665 7.61432 14.7585L7.20213 12.8014C6.6884 12.9096 6.23167 13.2012 5.91737 13.6218L7.51946 14.819ZM7.5674 14.7672C7.58882 14.7637 7.61044 14.7637 7.63154 14.7672L7.95018 12.7927C7.71791 12.7552 7.48125 12.7552 7.24905 12.7927L7.5674 14.7672ZM7.66607 14.7721C7.70066 14.7765 7.73282 14.792 7.75773 14.8165L9.15963 13.3901C8.8222 13.0585 8.3852 12.8468 7.91565 12.7877L7.66607 14.7721ZM7.75797 14.8167C7.78274 14.8411 7.79885 14.8728 7.80382 14.9075L9.78354 14.6234C9.71632 14.155 9.49719 13.7216 9.15939 13.3898L7.75797 14.8167ZM7.8028 14.9002C7.80897 14.9455 7.79518 14.9918 7.76438 15.0269L9.26652 16.3473C9.67955 15.8774 9.86897 15.2512 9.78455 14.6306L7.8028 14.9002ZM7.84879 12.2002H7.6459V14.2002H7.84879V12.2002ZM8.6459 13.2002V10.5799H6.6459V13.2002H8.6459ZM8.6459 10.5799C8.6459 10.9721 8.32797 11.29 7.93575 11.29V9.29003C7.2234 9.29003 6.6459 9.86753 6.6459 10.5799H8.6459ZM7.93575 11.29C7.54353 11.29 7.2256 10.9721 7.2256 10.5799H9.2256C9.2256 9.86753 8.6481 9.29003 7.93575 9.29003V11.29ZM7.2256 10.5799V13.2928H9.2256V10.5799H7.2256ZM8.55788 12.3496C8.3778 12.2862 8.19283 12.2402 8.00557 12.2116L7.70368 14.1887C7.76899 14.1987 7.83246 14.2146 7.89332 14.236L8.55788 12.3496ZM7.84959 12.2002L7.84376 12.2002L7.85382 14.2002L7.85965 14.2001L7.84959 12.2002ZM12.5692 11.3017C12.3767 11.302 12.1939 11.2245 12.0609 11.0889L13.4883 9.6881C13.2463 9.4415 12.9142 9.30111 12.5659 9.30169L12.5692 11.3017ZM12.0609 11.0889C11.9265 10.952 11.8538 10.7674 11.8576 10.5773L13.8572 10.6172C13.8641 10.2715 13.7319 9.9363 13.4883 9.68809L12.0609 11.0889ZM11.8574 10.5972V13.2059H13.8574V10.5972H11.8574ZM12.845 12.206C12.5296 12.2099 12.2172 12.2692 11.922 12.3815L12.6334 14.2507C12.7088 14.222 12.7888 14.2068 12.8698 14.2058L12.845 12.206ZM13.2777 13.3161V10.5799H11.2777V13.3161H13.2777ZM13.2777 10.5799C13.2777 10.7701 13.2013 10.9533 13.0642 11.0874L11.6651 9.65829C11.4168 9.90137 11.2777 10.2338 11.2777 10.5799H13.2777ZM13.0642 11.0874C12.9286 11.2202 12.7446 11.2936 12.5534 11.2898L12.5933 9.29023C12.2463 9.2833 11.9121 9.41649 11.6651 9.65829L13.0642 11.0874ZM11.6787 9.84323L11.6729 9.85489L13.4622 10.7485L13.468 10.7368L11.6787 9.84323ZM14.8333 14.5612C14.8566 14.5265 14.8963 14.5067 14.9375 14.5085L14.8468 16.5065C15.5025 16.5362 16.1265 16.2222 16.493 15.6772L14.8333 14.5612ZM14.8922 14.5075H14.0226V16.5075H14.8922V14.5075ZM14.0325 14.5076C13.6199 14.5035 13.2294 14.6979 12.9844 15.0321L14.5972 16.2148C14.4603 16.4015 14.2424 16.5097 14.0127 16.5075L14.0325 14.5076ZM12.9907 15.0236C12.9632 15.0603 12.9209 15.0834 12.8745 15.0867L13.0162 17.0817C13.6405 17.0374 14.2152 16.7244 14.5909 16.2233L12.9907 15.0236ZM12.8742 15.0868C12.8285 15.09 12.7832 15.0733 12.7503 15.0404L11.3364 16.4549C11.7789 16.8972 12.3917 17.1263 13.0166 17.0817L12.8742 15.0868ZM12.7507 15.0407C12.7177 15.0078 12.701 14.9625 12.7043 14.9169L10.7094 14.7744C10.6647 15.3993 10.8939 16.0122 11.3361 16.4546L12.7507 15.0407ZM12.7043 14.9165C12.7076 14.8702 12.7308 14.8279 12.7675 14.8004L11.5677 13.2002C11.0666 13.5759 10.7537 14.1506 10.7093 14.7748L12.7043 14.9165ZM12.754 14.8103C12.7997 14.7772 12.8569 14.7644 12.9121 14.7747L13.2781 12.8084C12.684 12.6979 12.0707 12.8359 11.5812 13.1902L12.754 14.8103ZM12.9063 14.7736C12.9376 14.7796 12.9651 14.7971 12.9835 14.8223L14.5981 13.642C14.2808 13.2081 13.8111 12.9109 13.284 12.8096L12.9063 14.7736ZM12.9781 14.8149C13.224 15.1578 13.6229 15.3568 14.0438 15.3479L14.0015 13.3483C14.2391 13.3433 14.4645 13.4556 14.6034 13.6495L12.9781 14.8149ZM14.0226 15.3481H14.8922V13.3481H14.0226V15.3481ZM14.8922 15.3481C15.6045 15.3481 16.182 14.7706 16.182 14.0583H14.182C14.182 13.666 14.5 13.3481 14.8922 13.3481V15.3481ZM16.182 14.0583C16.182 13.3459 15.6045 12.7684 14.8922 12.7684V14.7684C14.5 14.7684 14.182 14.4505 14.182 14.0583H16.182ZM14.8922 12.7684H14.1617V14.7684H14.8922V12.7684ZM14.9044 13.0987C14.5975 12.7584 14.2107 12.4994 13.7788 12.3454L13.1071 14.2292C13.2266 14.2719 13.3339 14.3436 13.4191 14.4381L14.9044 13.0987ZM14.4429 13.2873V10.9685H12.4429V13.2873H14.4429ZM13.0209 11.8751C12.9986 11.8647 12.9799 11.848 12.967 11.827L14.6725 10.7823C14.48 10.4682 14.1992 10.2175 13.865 10.062L13.0209 11.8751ZM12.9613 11.8175L14.7931 14.8841L16.5101 13.8584L14.6782 10.7918L12.9613 11.8175ZM14.8026 14.8996C14.7765 14.8576 14.7623 14.8097 14.7611 14.7611L16.7606 14.7131C16.7532 14.4054 16.6637 14.1049 16.5006 13.8429L14.8026 14.8996ZM14.7611 14.7601C14.76 14.7112 14.7719 14.6629 14.7958 14.6201L16.5421 15.595C16.6923 15.326 16.7677 15.0218 16.7606 14.7141L14.7611 14.7601ZM14.7757 14.658L14.7699 14.6696L16.5564 15.5687L16.5622 15.5571L14.7757 14.658Z" fill="black" mask="url(#path-4-inside-2_572_6400)"/>
</svg>
