<svg width="20" height="20" viewBox="0 0 20 20" fill="none" xmlns="http://www.w3.org/2000/svg">
<rect width="20" height="20" rx="10" fill="#F8F8F8"/>
<path d="M11.1112 7.77767H11.6668C11.8141 7.77767 11.9555 7.71914 12.0596 7.61495C12.1638 7.51076 12.2224 7.36946 12.2224 7.22211C12.2224 7.07477 12.1638 6.93346 12.0596 6.82928C11.9555 6.72509 11.8141 6.66656 11.6668 6.66656H11.1112C10.9639 6.66656 10.8226 6.72509 10.7184 6.82928C10.6142 6.93346 10.5557 7.07477 10.5557 7.22211C10.5557 7.36946 10.6142 7.51076 10.7184 7.61495C10.8226 7.71914 10.9639 7.77767 11.1112 7.77767ZM11.1112 9.99989H11.6668C11.8141 9.99989 11.9555 9.94136 12.0596 9.83717C12.1638 9.73299 12.2224 9.59168 12.2224 9.44434C12.2224 9.29699 12.1638 9.15569 12.0596 9.0515C11.9555 8.94731 11.8141 8.88878 11.6668 8.88878H11.1112C10.9639 8.88878 10.8226 8.94731 10.7184 9.0515C10.6142 9.15569 10.5557 9.29699 10.5557 9.44434C10.5557 9.59168 10.6142 9.73299 10.7184 9.83717C10.8226 9.94136 10.9639 9.99989 11.1112 9.99989ZM8.33347 7.77767H8.88902C9.03637 7.77767 9.17767 7.71914 9.28186 7.61495C9.38605 7.51076 9.44458 7.36946 9.44458 7.22211C9.44458 7.07477 9.38605 6.93346 9.28186 6.82928C9.17767 6.72509 9.03637 6.66656 8.88902 6.66656H8.33347C8.18613 6.66656 8.04482 6.72509 7.94063 6.82928C7.83644 6.93346 7.77791 7.07477 7.77791 7.22211C7.77791 7.36946 7.83644 7.51076 7.94063 7.61495C8.04482 7.71914 8.18613 7.77767 8.33347 7.77767ZM8.33347 9.99989H8.88902C9.03637 9.99989 9.17767 9.94136 9.28186 9.83717C9.38605 9.73299 9.44458 9.59168 9.44458 9.44434C9.44458 9.29699 9.38605 9.15569 9.28186 9.0515C9.17767 8.94731 9.03637 8.88878 8.88902 8.88878H8.33347C8.18613 8.88878 8.04482 8.94731 7.94063 9.0515C7.83644 9.15569 7.77791 9.29699 7.77791 9.44434C7.77791 9.59168 7.83644 9.73299 7.94063 9.83717C8.04482 9.94136 8.18613 9.99989 8.33347 9.99989ZM15.0001 14.4443H14.4446V4.99989C14.4446 4.85255 14.386 4.71124 14.2819 4.60705C14.1777 4.50287 14.0364 4.44434 13.889 4.44434H6.11125C5.9639 4.44434 5.8226 4.50287 5.71841 4.60705C5.61422 4.71124 5.55569 4.85255 5.55569 4.99989V14.4443H5.00014C4.85279 14.4443 4.71149 14.5029 4.6073 14.6071C4.50311 14.7112 4.44458 14.8525 4.44458 14.9999C4.44458 15.1472 4.50311 15.2885 4.6073 15.3927C4.71149 15.4969 4.85279 15.5554 5.00014 15.5554H15.0001C15.1475 15.5554 15.2888 15.4969 15.393 15.3927C15.4972 15.2885 15.5557 15.1472 15.5557 14.9999C15.5557 14.8525 15.4972 14.7112 15.393 14.6071C15.2888 14.5029 15.1475 14.4443 15.0001 14.4443ZM10.5557 14.4443H9.44458V12.2221H10.5557V14.4443ZM13.3335 14.4443H11.6668V11.6666C11.6668 11.5192 11.6083 11.3779 11.5041 11.2737C11.3999 11.1695 11.2586 11.111 11.1112 11.111H8.88902C8.74168 11.111 8.60037 11.1695 8.49619 11.2737C8.392 11.3779 8.33347 11.5192 8.33347 11.6666V14.4443H6.6668V5.55545H13.3335V14.4443Z" fill="#1B2124"/>
</svg>
