<svg id="attach" xmlns="http://www.w3.org/2000/svg" width="14.995" height="14.192" viewBox="0 0 14.995 14.192">
  <g id="Group_3120" data-name="Group 3120" transform="translate(0 0)">
    <path id="Path_23186" data-name="Path 23186" d="M13.592,15.108a4.8,4.8,0,0,0-6.779,0L1,20.919a3.424,3.424,0,0,0,4.842,4.842l5.326-5.327a2.054,2.054,0,1,0-2.905-2.905L4.782,21.013a.685.685,0,1,0,.968.968L9.234,18.5a.685.685,0,1,1,.968.968L4.876,24.793A2.054,2.054,0,0,1,1.97,21.887l5.811-5.811a3.424,3.424,0,1,1,4.842,4.842L6.813,26.73a.685.685,0,0,0,.969.968l5.811-5.811a4.793,4.793,0,0,0,0-6.779Z" transform="translate(-0.001 -13.707)" fill="#2f3478"/>
  </g>
</svg>
