<svg id="Layer_2" data-name="Layer 2" xmlns="http://www.w3.org/2000/svg" xmlns:xlink="http://www.w3.org/1999/xlink" width="30.01" height="30.01" viewBox="0 0 30.01 30.01">
  <defs>
    <linearGradient id="linear-gradient" x1="0.5" x2="0.5" y2="1" gradientUnits="objectBoundingBox">
      <stop offset="0" stop-color="#5025dc"/>
      <stop offset="1" stop-color="#9c74ee"/>
    </linearGradient>
  </defs>
  <g id="_01.calendar" data-name="01.calendar">
    <path id="Path_83587" data-name="Path 83587" d="M15,0a15,15,0,1,0,15,15A15.048,15.048,0,0,0,15,0Zm1.722,11.427h.48V7.566h.987v3.862h.446v.987H16.726Zm2.227,3.838a.691.691,0,1,1,.691-.691A.691.691,0,0,1,18.954,15.265Zm.691,1.8a.694.694,0,1,1,.006,0Zm-3.321.7a.691.691,0,1,1,.691-.691A.691.691,0,0,1,16.324,17.769Zm.691,1.8a.687.687,0,1,1,0-.008Zm-.691-4.3a.687.687,0,1,0,0-.008Zm-2.91-5.81h3.2v.987h-3.2Zm.272,8.292a.287.287,0,1,1,0,.014Zm.691,1.8a.7.7,0,1,0,0,.006Zm-.691-4.3a.287.287,0,1,1,0,.006Zm-2.332-3.832h.48V7.566h.987v3.862h.444v.987H11.354Zm-.3,6.342a.691.691,0,1,1,.691-.691A.691.691,0,0,1,11.056,17.769Zm.691,1.8a3.583,3.583,0,1,1-.006-.008Zm-.691-4.308a.691.691,0,1,1,.691-.691A.691.691,0,0,1,11.056,15.265Zm11.4,5.38a1.852,1.852,0,0,1-1.777,1.925H9.333a1.86,1.86,0,0,1-1.777-1.925V11.388A1.853,1.853,0,0,1,9.333,9.463h1.909v.987H9.333a.876.876,0,0,0-.79.938v9.258a.872.872,0,0,0,.79.938H20.677a.876.876,0,0,0,.79-.938V11.388a.872.872,0,0,0-.79-.938H18.786V9.463h1.891a1.861,1.861,0,0,1,1.777,1.925Z" fill="url(#linear-gradient)"/>
  </g>
</svg>
