<svg xmlns="http://www.w3.org/2000/svg" width="14.17" height="14.17" viewBox="0 0 14.17 14.17">
  <path id="calendar" d="M14.045,3.417h-.709V2.709a.709.709,0,1,0-1.417,0v.709H6.251V2.709A.669.669,0,0,0,5.543,2a.669.669,0,0,0-.709.709v.709H4.126A2.088,2.088,0,0,0,2,5.543v.709H16.17V5.543A2.088,2.088,0,0,0,14.045,3.417ZM2,14.045A2.088,2.088,0,0,0,4.126,16.17h9.919a2.088,2.088,0,0,0,2.126-2.126V7.668H2Zm10.628-4.96a.709.709,0,1,1-.709.709A.669.669,0,0,1,12.628,9.085Zm0,2.834a.709.709,0,1,1-.709.709A.669.669,0,0,1,12.628,11.919ZM9.085,9.085a.709.709,0,1,1-.709.709A.669.669,0,0,1,9.085,9.085Zm0,2.834a.709.709,0,1,1-.709.709A.669.669,0,0,1,9.085,11.919ZM5.543,9.085a.709.709,0,1,1,0,1.417.709.709,0,1,1,0-1.417Zm0,2.834a.709.709,0,1,1,0,1.417.709.709,0,1,1,0-1.417Z" transform="translate(-2 -2)" fill="#fff"/>
</svg>
