<svg xmlns="http://www.w3.org/2000/svg" width="24" height="24" viewBox="0 0 24 24">
  <g id="cart" transform="translate(-5235 5707)">
    <rect id="Rectangle_159" data-name="Rectangle 159" width="24" height="24" transform="translate(5235 -5707)" fill="none"/>
    <g id="bags" transform="translate(5236.983 -5704.921)">
      <path id="Path_77525" data-name="Path 77525" d="M5.628,6A3.169,3.169,0,0,0,2.491,9.617L3.3,15.274a3.961,3.961,0,0,0,3.921,3.4h5.594a3.961,3.961,0,0,0,3.921-3.4l.808-5.657A3.169,3.169,0,0,0,14.406,6Z" transform="translate(0 -0.831)" fill="none" stroke="currentColor" stroke-width="2" fill-rule="evenodd"/>
      <path id="Path_77526" data-name="Path 77526" d="M6.792,4.189A3.96,3.96,0,0,1,10.335,2h.836a3.961,3.961,0,0,1,3.542,2.189l.708,1.417A.792.792,0,1,1,14,6.315L13.3,4.9a2.376,2.376,0,0,0-2.126-1.314h-.836A2.376,2.376,0,0,0,8.209,4.9L7.5,6.315a.792.792,0,1,1-1.417-.708Z" transform="translate(-0.736 -1.584)" fill="currentColor" fill-rule="evenodd"/>
    </g>
  </g>
</svg>
