<svg xmlns="http://www.w3.org/2000/svg" width="13.029" height="13.029" viewBox="0 0 13.029 13.029">
  <path id="Icon_ionic-ios-checkmark-circle" data-name="Icon ionic-ios-checkmark-circle" d="M9.89,3.375A6.515,6.515,0,1,0,16.4,9.89,6.514,6.514,0,0,0,9.89,3.375Zm3.336,4.714L9.038,12.3h0a.566.566,0,0,1-.363.172.548.548,0,0,1-.366-.179L6.551,10.535a.125.125,0,0,1,0-.179L7.108,9.8a.121.121,0,0,1,.175,0l1.391,1.391L12.5,7.34a.124.124,0,0,1,.088-.038h0a.114.114,0,0,1,.088.038l.548.567A.123.123,0,0,1,13.225,8.089Z" transform="translate(-3.375 -3.375)" fill="#5a4bda"/>
</svg>
