<svg xmlns="http://www.w3.org/2000/svg" width="37.954" height="37.954" viewBox="0 0 37.954 37.954">
  <g id="Group_39781" data-name="Group 39781" transform="translate(-5007 -3983)">
    <rect id="Rectangle_16657" data-name="Rectangle 16657" width="37.954" height="37.954" transform="translate(5007 3983)" fill="none"/>
    <g id="files-copy-interface-symbol" transform="translate(5014.129 3988.437)">
      <g id="_x33__31_">
        <g id="Group_39664" data-name="Group 39664" transform="translate(0)">
          <path id="Path_84654" data-name="Path 84654" d="M61.486.026,51.331,0a3.526,3.526,0,0,0-3.385,3.385l-.978.023A3.389,3.389,0,0,0,43.714,6.77V23.7A3.526,3.526,0,0,0,47.1,27.081H59.793A3.526,3.526,0,0,0,63.179,23.7h.846a3.526,3.526,0,0,0,3.385-3.385V6.791ZM59.793,25.389H47.1A1.775,1.775,0,0,1,45.407,23.7V6.77c0-1.259,1.036-1.693,2.539-1.693V20.311A3.526,3.526,0,0,0,51.331,23.7l10.163-.009A1.6,1.6,0,0,1,59.793,25.389Zm1.693-7.607H53.869a.845.845,0,1,1,0-1.691h7.617a.845.845,0,1,1,0,1.691Zm0-4.227H53.869a.845.845,0,1,1,0-1.691h7.617a.845.845,0,1,1,0,1.691ZM63.179,6.77a1.753,1.753,0,0,1-1.693-1.693V1.717L65.717,6.77Z" transform="translate(-43.714)" fill="#5a4bda"/>
        </g>
      </g>
    </g>
  </g>
</svg>
