<svg id="Group_18651" data-name="Group 18651" xmlns="http://www.w3.org/2000/svg" width="20.071" height="20.071" viewBox="0 0 20.071 20.071">
  <g id="Group_1079" data-name="Group 1079" transform="translate(0 0)">
    <circle id="Ellipse_109" data-name="Ellipse 109" cx="10.035" cy="10.035" r="10.035" transform="translate(0 0)" fill="#ffb54a"/>
    <path id="Path_22403" data-name="Path 22403" d="M333.767,105.462a8.083,8.083,0,1,1,8.083-8.083A8.092,8.092,0,0,1,333.767,105.462Zm0-15.642a7.559,7.559,0,1,0,7.559,7.559A7.568,7.568,0,0,0,333.767,89.82Z" transform="translate(-323.733 -87.325)" fill="#fcf0e3"/>
  </g>
  <path id="Path_23949" data-name="Path 23949" d="M78.107,1.9a.186.186,0,0,0-.137-.054h-1.02A2.064,2.064,0,0,0,76.569.99h1.389A.183.183,0,0,0,78.149.8V.191A.183.183,0,0,0,77.958,0H73a.184.184,0,0,0-.191.191V.984A.193.193,0,0,0,73,1.175h.865q1.258,0,1.6.674H73a.184.184,0,0,0-.191.191v.608A.184.184,0,0,0,73,2.838h2.546a1.165,1.165,0,0,1-.611.745,2.691,2.691,0,0,1-1.267.256H73a.193.193,0,0,0-.191.191v.757a.178.178,0,0,0,.054.131Q74,6.136,75.829,8.325a.176.176,0,0,0,.149.072h1.163a.173.173,0,0,0,.173-.107.163.163,0,0,0-.024-.2q-1.741-2.135-2.737-3.2A3.024,3.024,0,0,0,76.2,4.234a2.229,2.229,0,0,0,.769-1.4h1a.184.184,0,0,0,.191-.191V2.04A.186.186,0,0,0,78.107,1.9Z" transform="translate(-65.449 5.836)" fill="#fff"/>
</svg>
