<svg xmlns="http://www.w3.org/2000/svg" width="32" height="32" viewBox="0 0 32 32">
  <g id="Group_39890" data-name="Group 39890" transform="translate(-416.1 -217.5)">
    <g id="Group_39825" data-name="Group 39825" transform="translate(336.1 -44.5)">
      <circle id="Ellipse_1723" data-name="Ellipse 1723" cx="16" cy="16" r="16" transform="translate(80 262)" fill="#ffe57c" opacity="0.4"/>
    </g>
    <g id="rupee_1_" data-name="rupee (1)" transform="translate(423.1 224.5)">
      <g id="Group_39461" data-name="Group 39461">
        <path id="Path_84249" data-name="Path 84249" d="M18,9a9.016,9.016,0,1,1-2.907-6.623A9,9,0,0,1,18,9Z" transform="translate(0)" fill="#f0cd00"/>
        <path id="Path_84250" data-name="Path 84250" d="M35.57,9.164A9,9,0,0,1,26.9,18.158,9,9,0,0,1,26.9.17,9,9,0,0,1,35.57,9.164Z" transform="translate(-17.57 -0.164)" fill="#ffde50"/>
        <path id="Path_84251" data-name="Path 84251" d="M47.516,34.81,34.8,47.526a9.038,9.038,0,0,1-1.14-1.537L45.979,33.67A9,9,0,0,1,47.516,34.81Z" transform="translate(-32.424 -32.433)" fill="#ffea94"/>
        <path id="Path_84252" data-name="Path 84252" d="M107.339,95.669l-11.67,11.67a8.987,8.987,0,0,1-2.279-1.309l12.64-12.64A8.972,8.972,0,0,1,107.339,95.669Z" transform="translate(-89.959 -89.959)" fill="#ffea94"/>
        <path id="Path_84253" data-name="Path 84253" d="M68.607,61.614a6.993,6.993,0,0,1-13.986.086c0-.029,0-.057,0-.086a6.993,6.993,0,0,1,6.994-6.994H61.7A6.961,6.961,0,0,1,65.642,55.9a7.039,7.039,0,0,1,1.927,2.049A6.96,6.96,0,0,1,68.607,61.614Z" transform="translate(-52.614 -52.614)" fill="#faa300"/>
        <path id="Path_84254" data-name="Path 84254" d="M66.558,56.668l-9.89,9.89A6.968,6.968,0,0,1,54.621,61.7c0-.029,0-.057,0-.086a6.994,6.994,0,0,1,6.994-6.994H61.7A6.961,6.961,0,0,1,65.642,55.9,7.059,7.059,0,0,1,66.558,56.668Z" transform="translate(-52.614 -52.614)" fill="#ffbd00"/>
        <path id="Path_84255" data-name="Path 84255" d="M241.633,61.614a6.994,6.994,0,0,1-6.994,6.994q-.2,0-.395-.011a6.994,6.994,0,0,0,0-13.965q.2-.011.395-.011A6.994,6.994,0,0,1,241.633,61.614Z" transform="translate(-225.64 -52.614)" fill="#f68e00"/>
      </g>
      <path id="Path_84256" data-name="Path 84256" d="M119.356,128.007h-1.225a2.955,2.955,0,0,0-.318-.769h1.542a.735.735,0,1,0,0-1.469h-6.941a.735.735,0,0,0,0,1.469h2.836a1.5,1.5,0,0,1,1.311.769h-4.147a.735.735,0,1,0,0,1.469h4.147a1.5,1.5,0,0,1-1.311.769h-2.836a.735.735,0,0,0-.535,1.239l4,4.241a.735.735,0,1,0,1.069-1.008l-2.829-3h1.134a2.978,2.978,0,0,0,2.881-2.238h1.225a.735.735,0,1,0,0-1.469Z" transform="translate(-107.577 -121.149)" fill="#f68e00"/>
      <path id="Path_84257" data-name="Path 84257" d="M144.358,128.007h-1.225a2.956,2.956,0,0,0-.318-.769h1.542a.735.735,0,0,0,0-1.469h-6.941a.735.735,0,1,0,0,1.469h2.836a1.5,1.5,0,0,1,1.311.769h-4.147a.735.735,0,1,0,0,1.469h4.147a1.5,1.5,0,0,1-1.311.769h-2.836a.735.735,0,0,0-.535,1.239l4,4.241a.735.735,0,1,0,1.069-1.008l-2.829-3h1.134a2.978,2.978,0,0,0,2.881-2.238h1.225a.735.735,0,1,0,0-1.469Z" transform="translate(-131.661 -121.149)" fill="#ffea94"/>
    </g>
  </g>
</svg>
