<svg width="40" height="30" viewBox="0 0 40 30" fill="none" xmlns="http://www.w3.org/2000/svg">
<path id="&#226;&#128;&#156;" d="M10.6112 29.5504C9.69923 29.9001 8.65488 30.0458 7.47815 29.9875C6.30142 29.9292 5.21295 29.6378 4.21273 29.1133C3.24192 28.5887 2.44763 27.9184 1.82985 27.1025C-1.14139 23.1683 -0.49419 17.777 3.77145 10.9287C5.68364 7.89793 7.50757 5.58115 9.24324 3.97834C12.1851 1.29729 14.0384 -0.0286719 14.8033 0.000470031C16.5095 0.029612 17.5686 0.554167 17.9805 1.57413C17.598 1.92384 17.142 2.41925 16.6125 3.06037L14.9798 5.24602C11.7438 9.64645 9.96399 13.2018 9.64039 15.912C12.494 16.3782 14.3473 17.9228 15.2004 20.5455C15.8182 22.3523 15.6711 24.1591 14.7592 25.9659C13.906 27.6853 12.5234 28.8801 10.6112 29.5504ZM32.6307 29.5504C31.7188 29.9001 30.6744 30.0458 29.4977 29.9875C28.321 29.9292 27.2325 29.6378 26.2323 29.1133C25.2615 28.5887 24.4672 27.9184 23.8494 27.1025C20.8782 23.1683 21.5254 17.777 25.791 10.9287C27.7032 7.89793 29.5271 5.58115 31.2628 3.97834C34.2046 1.29729 36.058 -0.0286719 36.8228 0.000470031C38.5291 0.029612 39.5881 0.554167 40 1.57413C39.6176 1.92384 39.1616 2.41925 38.6321 3.06037L36.9993 5.24602C33.7633 9.64645 31.9835 13.2018 31.6599 15.912C34.5135 16.3782 36.3669 17.9228 37.22 20.5455C37.8378 22.3523 37.6907 24.1591 36.7787 25.9659C35.9256 27.6853 34.5429 28.8801 32.6307 29.5504Z" fill="#EAECEF"/>
</svg>
