<svg xmlns="http://www.w3.org/2000/svg" xmlns:xlink="http://www.w3.org/1999/xlink" width="18" height="18" viewBox="0 0 18 18">
  <defs>
    <clipPath id="clip-path">
      <rect id="Rectangle_17001" data-name="Rectangle 17001" width="18" height="18" transform="translate(0 18) rotate(-90)" fill="#fff"/>
    </clipPath>
  </defs>
  <g id="Group_39872" data-name="Group 39872" clip-path="url(#clip-path)">
    <path id="Path_83014" data-name="Path 83014" d="M170,398.227v.456a2.376,2.376,0,0,1-.788,1.21c-.486.467-.955.95-1.432,1.426q-2.082,2.082-4.164,4.162a1.563,1.563,0,0,1-2.291.038q-4.269-4.256-8.525-8.524a1.475,1.475,0,0,1-.413-1.454c.39-1.6.795-3.2,1.2-4.8.025-.1.069-.187.111-.3.679.678,1.331,1.335,1.99,1.983a.229.229,0,0,1,.063.285,1.572,1.572,0,0,0,1.56,2.1,1.512,1.512,0,0,0,1.4-1.012,1.478,1.478,0,0,0-.334-1.657,1.506,1.506,0,0,0-1.677-.384.208.208,0,0,1-.254-.063c-.619-.625-1.242-1.244-1.863-1.866-.039-.039-.074-.081-.13-.142.15-.049.275-.1.4-.129,1.5-.376,3-.743,4.493-1.128a1.733,1.733,0,0,1,1.792.495q4.048,4.065,8.115,8.113a2.306,2.306,0,0,1,.753,1.193Zm-7.027,3.137c0-.038-.008-.1-.015-.166-.077-.68-.155-1.361-.23-2.041q-.249-2.234-.5-4.467a.528.528,0,1,0-1.049.113c.046.448.1.895.15,1.343q.2,1.824.406,3.647c.061.559.118,1.118.185,1.676a.527.527,0,1,0,1.049-.1Zm.135-3.668a1.582,1.582,0,1,0,1.578-1.577,1.58,1.58,0,0,0-1.578,1.577Zm-2.06.753a1.582,1.582,0,1,0-1.573,1.577A1.586,1.586,0,0,0,161.047,398.449Z" transform="translate(-152 -388)" fill="#fff"/>
    <path id="Path_83015" data-name="Path 83015" d="M152.667,388c.143.117.3.223.428.351.406.4.8.8,1.207,1.2.04.041.078.084.132.141a1.583,1.583,0,0,0-.735.735c-.044-.039-.084-.069-.119-.1-.456-.454-.913-.908-1.365-1.367a2.4,2.4,0,0,1-.215-.291v-.281l.387-.386h.28Z" transform="translate(-152 -388)" fill="#fff"/>
    <path id="Path_83016" data-name="Path 83016" d="M152.387,388l-.387.387V388Z" transform="translate(-152 -388)" fill="#fff"/>
    <path id="Path_83017" data-name="Path 83017" d="M157.224,392.7a.529.529,0,0,1,.535.514.541.541,0,0,1-.532.541.531.531,0,0,1-.522-.528.521.521,0,0,1,.519-.527Z" transform="translate(-152 -388)" fill="#fff"/>
    <path id="Path_83018" data-name="Path 83018" d="M164.685,397.174a.527.527,0,1,1,0,1.054.527.527,0,0,1,0-1.054Z" transform="translate(-152 -388)" fill="#fff"/>
    <path id="Path_83019" data-name="Path 83019" d="M158.938,398.448a.542.542,0,0,1,.522-.532.532.532,0,0,1,.532.536.527.527,0,0,1-1.054,0Z" transform="translate(-152 -388)" fill="#fff"/>
  </g>
</svg>
