<svg xmlns="http://www.w3.org/2000/svg" xmlns:xlink="http://www.w3.org/1999/xlink" width="32" height="32" viewBox="0 0 32 32">
  <defs>
    <filter id="Ellipse_967" x="0" y="0" width="32" height="32" filterUnits="userSpaceOnUse">
      <feOffset dy="2" input="SourceAlpha"/>
      <feGaussianBlur stdDeviation="2" result="blur"/>
      <feFlood flood-opacity="0.18"/>
      <feComposite operator="in" in2="blur"/>
      <feComposite in="SourceGraphic"/>
    </filter>
  </defs>
  <g id="Group_18447" data-name="Group 18447" transform="translate(6 4)">
    <g transform="matrix(1, 0, 0, 1, -6, -4)" filter="url(#Ellipse_967)">
      <g id="Ellipse_967-2" data-name="Ellipse 967" transform="translate(6 4)" fill="#fff" stroke="#594cda" stroke-width="1" opacity="0.2">
        <circle cx="10" cy="10" r="10" stroke="none"/>
        <circle cx="10" cy="10" r="9.5" fill="none"/>
      </g>
    </g>
    <path id="download" d="M3.354,10.66H10.6a.6.6,0,0,1,.082,1.2l-.082.006H3.354a.6.6,0,0,1-.082-1.2l.082-.006h0ZM6.894,1.006,6.976,1a.6.6,0,0,1,.6.522L7.58,1.6V7.793L9.4,5.978a.6.6,0,0,1,.786-.058l.068.058a.6.6,0,0,1,.058.786l-.058.068L7.4,9.678a.6.6,0,0,1-.786.058l-.068-.058L3.7,6.832a.6.6,0,0,1,.786-.912l.068.058L6.372,7.794V1.6a.6.6,0,0,1,.522-.6L6.976,1Z" transform="translate(2.729 3)" fill="#594cda"/>
  </g>
</svg>
