<svg xmlns="http://www.w3.org/2000/svg" width="15.354" height="15.354" viewBox="0 0 15.354 15.354">
  <g id="E-Book_4_" transform="translate(0 0)">
    <g id="Group_39855" data-name="Group 39855" transform="translate(1.498 0)">
      <g id="Group_39853" data-name="Group 39853">
        <path id="Path_82987" data-name="Path 82987" d="M91.373,0H83.61L80.869.927v13.5l3.557.927h6.947a.927.927,0,0,0,.927-.927V12.265l-.618-4.588L92.3,2.505V.927A.927.927,0,0,0,91.373,0Z" transform="translate(-79.942)" fill="#7252f7"/>
        <g id="Group_39852" data-name="Group 39852">
          <path id="Path_82988" data-name="Path 82988" d="M53.632,0H50.891a.927.927,0,0,0-.927.927v13.5a.927.927,0,0,0,.927.927h3.557a18.921,18.921,0,0,1-2.012-8.6A19.292,19.292,0,0,1,53.632,0Z" transform="translate(-49.964)" fill="#7252f7"/>
          <path id="Path_82989" data-name="Path 82989" d="M402.079,82.448a1.156,1.156,0,0,0-.278-.034h-.958l-.618,5.206.618,4.588h1.236Z" transform="translate(-389.721 -79.943)" fill="#7252f7"/>
        </g>
      </g>
      <g id="Group_39854" data-name="Group 39854" transform="translate(1.236 1.236)">
        <path id="Path_82990" data-name="Path 82990" d="M114.226,53.472h7.145a.309.309,0,0,0,.309-.309V41.516a.309.309,0,0,0-.309-.309h-7.557l-1.382.819V52.838Z" transform="translate(-111.793 -41.207)" fill="#c2eafb"/>
        <path id="Path_82991" data-name="Path 82991" d="M97.35,42.443a1.846,1.846,0,0,0-1.236.473,1.846,1.846,0,0,0-1.236-.473h-1.7a.247.247,0,0,1-.241-.3q.113-.472.249-.931H91.48a.309.309,0,0,0-.309.309V53.163a.309.309,0,0,0,.309.309H93.6q-.168-.45-.315-.915a.247.247,0,0,1,.236-.321H94.7a1.545,1.545,0,0,0,2.831,0h3.527V42.443Z" transform="translate(-91.171 -41.207)" fill="#a8e1f6"/>
      </g>
      <path id="Path_82992" data-name="Path 82992" d="M221.875,473.832h-1.7a.232.232,0,1,1,0-.463h1.7a.232.232,0,1,1,0,.463Z" transform="translate(-214.847 -459.174)" fill="#5c85da"/>
    </g>
    <g id="Group_39861" data-name="Group 39861" transform="translate(0 3.089)">
      <path id="Path_82993" data-name="Path 82993" d="M226.949,368.393a.927.927,0,1,1-1.854,0l.927-.618Z" transform="translate(-218.345 -359.835)" fill="#fb695b"/>
      <g id="Group_39858" data-name="Group 39858" transform="translate(0 1.236)">
        <g id="Group_39856" data-name="Group 39856" transform="translate(7.059)">
          <path id="Path_82994" data-name="Path 82994" d="M243.073,144.741l-7.677,3.645.618,3.661h6.9a.772.772,0,0,0,.772-.772V145.5A.773.773,0,0,0,243.073,144.741Z" transform="translate(-235.396 -144.726)" fill="#ff938a"/>
          <path id="Path_82995" data-name="Path 82995" d="M242.919,144.225h-6.9l-.618,3.661.618,3.043h6.441a.618.618,0,0,0,.618-.618v-6.07A.776.776,0,0,0,242.919,144.225Z" transform="translate(-235.396 -144.225)" fill="#fd7a6e"/>
        </g>
        <g id="Group_39857" data-name="Group 39857">
          <path id="Path_82996" data-name="Path 82996" d="M25.45,151.547h3.712v-7.322l-7.013,3.661Z" transform="translate(-21.485 -144.225)" fill="#fd7a6e"/>
          <path id="Path_82997" data-name="Path 82997" d="M7.677,144.225H.772A.772.772,0,0,0,0,145v5.777a.772.772,0,0,0,.772.772H3.965q-.05-.194-.1-.39a.186.186,0,0,1,.181-.228H7.677Z" transform="translate(0 -144.225)" fill="#fb695b"/>
        </g>
      </g>
      <g id="Group_39860" data-name="Group 39860" transform="translate(1.236)">
        <path id="Path_82998" data-name="Path 82998" d="M236.014,104.254l-.618,2.425.618,3.661h5.9a.541.541,0,0,0,.541-.541v-6.24a.541.541,0,0,0-.541-.541H237.25A1.236,1.236,0,0,0,236.014,104.254Z" transform="translate(-229.573 -103.018)" fill="#f5f5fd"/>
        <g id="Group_39859" data-name="Group 39859">
          <path id="Path_82999" data-name="Path 82999" d="M55.714,110.34H59.7v-6.086a1.236,1.236,0,0,0-1.236-1.236H55.714l-2.082,3.661Z" transform="translate(-53.259 -103.018)" fill="#ececf6"/>
          <path id="Path_83000" data-name="Path 83000" d="M43.661,103.018H41.748a.541.541,0,0,0-.541.541v6.24a.541.541,0,0,0,.541.541h1.914a19.977,19.977,0,0,1,0-7.322Z" transform="translate(-41.207 -103.018)" fill="#e2e2f1"/>
        </g>
      </g>
    </g>
    <g id="Group_39868" data-name="Group 39868" transform="translate(2.549 4.402)">
      <g id="Group_39866" data-name="Group 39866">
        <g id="Group_39862" data-name="Group 39862">
          <path id="Path_83001" data-name="Path 83001" d="M105.524,147.265h2.692a.232.232,0,1,0,0-.463h-2.643l-.334.232Z" transform="translate(-104.633 -146.802)" fill="#a5b1bd"/>
          <path id="Path_83002" data-name="Path 83002" d="M85.222,146.8a.232.232,0,0,0,0,.463h.66q.022-.233.049-.463Z" transform="translate(-84.99 -146.8)" fill="#97a4b2"/>
        </g>
        <g id="Group_39863" data-name="Group 39863" transform="translate(0 1.411)">
          <path id="Path_83003" data-name="Path 83003" d="M102.218,194.309h2.775a.232.232,0,1,0,0-.463h-2.759l-.317.24Z" transform="translate(-101.409 -193.846)" fill="#a5b1bd"/>
          <path id="Path_83004" data-name="Path 83004" d="M85.222,193.845a.232.232,0,1,0,0,.463H85.8q.005-.232.016-.463h-.593Z" transform="translate(-84.99 -193.845)" fill="#97a4b2"/>
        </g>
        <g id="Group_39864" data-name="Group 39864" transform="translate(0 2.822)">
          <path id="Path_83005" data-name="Path 83005" d="M102.244,241.355H105a.232.232,0,1,0,0-.463h-2.775l-.3.232Z" transform="translate(-101.419 -240.892)" fill="#a5b1bd"/>
          <path id="Path_83006" data-name="Path 83006" d="M85.222,240.89a.232.232,0,0,0,0,.463h.593q-.011-.231-.016-.463h-.577Z" transform="translate(-84.99 -240.89)" fill="#97a4b2"/>
        </g>
        <g id="Group_39865" data-name="Group 39865" transform="translate(0 4.232)">
          <path id="Path_83007" data-name="Path 83007" d="M105.573,288.4h2.643a.232.232,0,1,0,0-.463h-2.692l-.284.232Z" transform="translate(-104.632 -287.936)" fill="#a5b1bd"/>
          <path id="Path_83008" data-name="Path 83008" d="M85.222,287.935a.232.232,0,1,0,0,.463h.709q-.027-.231-.049-.463h-.66Z" transform="translate(-84.99 -287.935)" fill="#97a4b2"/>
        </g>
      </g>
      <g id="Group_39867" data-name="Group 39867" transform="translate(6.441 0)">
        <path id="Path_83009" data-name="Path 83009" d="M303.367,147.265h-3.352a.232.232,0,0,1,0-.463h3.352a.232.232,0,0,1,0,.463Z" transform="translate(-299.783 -146.802)" fill="#a5b1bd"/>
        <path id="Path_83010" data-name="Path 83010" d="M303.367,194.309h-3.352a.232.232,0,1,1,0-.463h3.352a.232.232,0,1,1,0,.463Z" transform="translate(-299.783 -192.435)" fill="#a5b1bd"/>
        <path id="Path_83011" data-name="Path 83011" d="M303.367,241.355h-3.352a.232.232,0,1,1,0-.463h3.352a.232.232,0,1,1,0,.463Z" transform="translate(-299.783 -238.07)" fill="#a5b1bd"/>
        <path id="Path_83012" data-name="Path 83012" d="M303.367,288.4h-3.352a.232.232,0,1,1,0-.463h3.352a.232.232,0,1,1,0,.463Z" transform="translate(-299.783 -283.704)" fill="#a5b1bd"/>
      </g>
    </g>
  </g>
</svg>
