<svg width="24" height="24" viewBox="0 0 24 24" fill="none" xmlns="http://www.w3.org/2000/svg">
<g id="fb">
<path id="Ellipse 1032" d="M12 24C18.6274 24 24 18.6274 24 12C24 5.37258 18.6274 0 12 0C5.37258 0 0 5.37258 0 12C0 18.6274 5.37258 24 12 24Z" fill="#1876D2"/>
<path id="Path 35055" d="M15.5181 13.1885L15.9381 10.4515H13.3121V8.67554C13.2937 8.47109 13.3214 8.26509 13.3934 8.07284C13.4654 7.8806 13.5797 7.70702 13.7279 7.56497C13.8761 7.42292 14.0544 7.31604 14.2495 7.25226C14.4446 7.18848 14.6516 7.16944 14.8551 7.19653H16.0491V4.86652C15.3479 4.75319 14.6393 4.69136 13.9291 4.68152C13.4406 4.64432 12.9499 4.71502 12.4918 4.88858C12.0337 5.06214 11.6193 5.33433 11.2781 5.68585C10.9369 6.03738 10.6772 6.45961 10.5173 6.9227C10.3575 7.38578 10.3013 7.87838 10.353 8.36554V10.4505H7.95312V13.1875H10.353V19.8035C11.3334 19.957 12.3318 19.957 13.3121 19.8035V13.1875L15.5181 13.1885Z" fill="white"/>
</g>
</svg>
