<svg xmlns="http://www.w3.org/2000/svg" xmlns:xlink="http://www.w3.org/1999/xlink" width="99.298" height="65.027" viewBox="0 0 99.298 65.027">
  <defs>
    <clipPath id="clip-path">
      <path id="Path_42" data-name="Path 42" d="M400.822,196.59l-1.616,10.77s-8.922,3.92-10.786,7.068l-.44.062-2.1.29s-.43-.129-1.134-.332a62.962,62.962,0,0,0-8.44-1.849,13.142,13.142,0,0,0-2.983-.114l-6.038-9.409s9.337-1.289,15.794.922l3.086-.217.114-.1C387.2,202.933,393.707,197.765,400.822,196.59Z" transform="translate(-367.288 -196.59)" fill="#92e3a9" stroke="#263238" stroke-linecap="round" stroke-linejoin="round" stroke-width="1"/>
    </clipPath>
  </defs>
  <g id="Screen" transform="translate(0.5)">
    <g id="Group_14" data-name="Group 14" transform="translate(0 0)">
      <g id="Group_12" data-name="Group 12" transform="translate(0 0)">
        <g id="Group_4" data-name="Group 4" transform="translate(0 18.441)">
          <path id="Path_15" data-name="Path 15" d="M297.031,176.693l-3.37-4.682a27.672,27.672,0,0,0-.149-2.928c-.125-.435-2.168-3.654-2.212-4.416a5.162,5.162,0,0,0-.141-1.075s-1.048.263-1.031.9.121,2.8.121,2.8a23.876,23.876,0,0,1-3.032-2.016c-.3-.421-3.635-2.858-3.95-3.224s-1.582-.388-1.73-.02l.179.449-1.046.5.7,2.081s-.471,1.214-.361,1.472.484,1.8.484,1.8-.231.232-.2,1.05,4.5,4.978,5.376,5.424a29.026,29.026,0,0,0,3.247,1.143l2.808,3.637Z" transform="translate(-280.67 -161.775)" fill="#fff" stroke="#263238" stroke-linecap="round" stroke-linejoin="round" stroke-width="1"/>
          <path id="Path_16" data-name="Path 16" d="M296.311,171a6.183,6.183,0,0,0-.378,3.781" transform="translate(-286.732 -165.477)" fill="none" stroke="#263238" stroke-linecap="round" stroke-linejoin="round" stroke-width="1"/>
          <path id="Path_17" data-name="Path 17" d="M282.417,162.968c.908.35,2.039,2.035,2.561,2.558a11.643,11.643,0,0,0,1.5,1.158" transform="translate(-281.371 -162.254)" fill="none" stroke="#263238" stroke-linecap="round" stroke-linejoin="round" stroke-width="1"/>
          <path id="Path_18" data-name="Path 18" d="M281.845,167.243c.742-.155,1.241.13,1.225.857s1.585,1.826,1.585,1.826" transform="translate(-281.141 -163.952)" fill="none" stroke="#263238" stroke-linecap="round" stroke-linejoin="round" stroke-width="1"/>
          <path id="Path_19" data-name="Path 19" d="M282.051,172.317s.522-.926.932-.5.549,1.517,1.307,1.744" transform="translate(-281.224 -165.758)" fill="none" stroke="#263238" stroke-linecap="round" stroke-linejoin="round" stroke-width="1"/>
        </g>
        <path id="Path_20" data-name="Path 20" d="M348.088,176.382s-11.811.728-14.418,1.8c-2.141.88-17.175,10.779-17.175,10.779s-8.844-6.668-11.41-8.959a4.927,4.927,0,0,0-1.58-.452l-1.343-.9-3.316,4.663.929,1.287a7.848,7.848,0,0,0,.565,2.6c5.494,6.9,16.026,16.573,17.605,17.521s15.605-7.344,15.605-7.344l2.606,15.266h41.851s-.11-26.8-1.871-28.849-21.94-10.107-21.94-10.107Z" transform="translate(-287.962 -148.11)" fill="#fff" stroke="#263238" stroke-linecap="round" stroke-linejoin="round" stroke-width="1"/>
        <path id="Path_21" data-name="Path 21" d="M395.966,162.038s-3.749,2.518-1.766,10.553c0,0-5.643,4.037-11.228-.039,0,0,1.288-6.406,0-7.69" transform="translate(-321.71 -143.439)" fill="#fff" stroke="#263238" stroke-linecap="round" stroke-linejoin="round" stroke-width="1"/>
        <path id="Path_22" data-name="Path 22" d="M422.817,192.67a28.256,28.256,0,0,0-5.685,15.9" transform="translate(-335.416 -155.728)" fill="none" stroke="#263238" stroke-linecap="round" stroke-linejoin="round" stroke-width="1"/>
        <g id="Group_5" data-name="Group 5" transform="translate(57.359)">
          <path id="Path_23" data-name="Path 23" d="M385.908,135.1s-3.344-.5-4.512,3.61a10.5,10.5,0,0,0,.774,7.5l6.143-5.8Z" transform="translate(-378.288 -132.623)" fill="#263238"/>
          <path id="Path_24" data-name="Path 24" d="M393.281,153.41c4.307-5.138,7.352-13.7.883-17.12-12.479-6.6-16.6,6.282-14.5,18.3.647,3.694,5.661,2.046,9.337.708" transform="translate(-377.533 -132.391)" fill="#fff" stroke="#263238" stroke-linecap="round" stroke-linejoin="round" stroke-width="1"/>
          <path id="Path_25" data-name="Path 25" d="M388.2,147.43s2.055.556,2.58,1.659" transform="translate(-381.17 -137.579)" fill="none" stroke="#263238" stroke-linecap="round" stroke-linejoin="round" stroke-width="1"/>
          <path id="Path_26" data-name="Path 26" d="M382.182,146.411a1.586,1.586,0,0,0-1.547.08" transform="translate(-378.133 -137.103)" fill="none" stroke="#263238" stroke-linecap="round" stroke-linejoin="round" stroke-width="1"/>
          <path id="Path_27" data-name="Path 27" d="M388.136,151.746c-.035.369.126.687.362.71s.455-.258.49-.627-.126-.687-.361-.71S388.172,151.377,388.136,151.746Z" transform="translate(-381.14 -139.058)" fill="#263238"/>
          <path id="Path_28" data-name="Path 28" d="M380.682,149.9c-.036.369.126.687.361.71s.455-.258.491-.627-.126-.687-.361-.71S380.718,149.535,380.682,149.9Z" transform="translate(-378.149 -138.319)" fill="#263238"/>
          <path id="Path_29" data-name="Path 29" d="M390.335,155.071a19.614,19.614,0,0,1-3.238,3.7,3.941,3.941,0,0,1-2.829.562,5.948,5.948,0,0,0-4.079-2.076,4.656,4.656,0,0,0-2.077-.711l.136-3.129s-1.837,6.7-1.661,9.1,6.073,4.067,9.03,3.395,4.451-5.262,5.348-9.594C391.037,155.978,390.335,155.071,390.335,155.071Z" transform="translate(-376.504 -139.981)" fill="#263238"/>
          <path id="Path_30" data-name="Path 30" d="M379.745,162.408a9.284,9.284,0,0,0,4.409.857" transform="translate(-377.776 -143.588)" fill="none" stroke="#fff" stroke-linecap="round" stroke-linejoin="round" stroke-width="1"/>
          <path id="Path_31" data-name="Path 31" d="M396.85,137.534c.763-.625-1.213-3.179-2.3-3.123s-6.508.257-6.508.257-1.139-5.95,7.964-2.736c1.492.527,1.97,1.925,3.306,2.635s3.14,4.462,2.629,7.658-2.222,8.812-5.317,10.494c0,0-1.069-.113-.42-.845,3.044-3.431-.147-9.89-.657-4.555l-1.071-.636a7.723,7.723,0,0,1,.18-1.743C394.886,143.473,393.26,140.473,396.85,137.534Z" transform="translate(-381.085 -130.979)" fill="#263238"/>
          <path id="Path_32" data-name="Path 32" d="M401.3,154.4s1.958-2.327,3.143-1.535.393,3.587-.246,4.3a20.583,20.583,0,0,0-2.028,1.976c-.88,1.121-1.988.741-1.827-.158" transform="translate(-386.031 -139.692)" fill="#fff" stroke="#263238" stroke-linecap="round" stroke-linejoin="round" stroke-width="1"/>
          <path id="Path_33" data-name="Path 33" d="M389.443,151.16a1.94,1.94,0,1,1-2.014-2.255A2.163,2.163,0,0,1,389.443,151.16Z" transform="translate(-380.146 -138.17)" fill="none" stroke="#263238" stroke-width="0.5"/>
          <path id="Path_34" data-name="Path 34" d="M380.246,149.192a1.94,1.94,0,1,1-2.014-2.255A2.163,2.163,0,0,1,380.246,149.192Z" transform="translate(-376.456 -137.38)" fill="none" stroke="#263238" stroke-width="0.5"/>
          <path id="Path_35" data-name="Path 35" d="M381.628,148.84c.03.583-3.1,4.135-3.137,4.916s2.887.825,2.887.825" transform="translate(-377.273 -138.145)" fill="#fff" stroke="#263238" stroke-linecap="round" stroke-linejoin="round" stroke-width="1"/>
          <path id="Path_36" data-name="Path 36" d="M382.785,150.692s.927-.237,1.7,1.017" transform="translate(-378.995 -138.88)" fill="none" stroke="#263238" stroke-width="0.5"/>
          <path id="Path_37" data-name="Path 37" d="M392.021,153.43l1,.152,5.646.395" transform="translate(-382.701 -139.986)" fill="none" stroke="#263238" stroke-width="0.5"/>
        </g>
        <g id="Group_8" data-name="Group 8" transform="translate(51.868 38.726)">
          <path id="Path_38" data-name="Path 38" d="M400.743,197.045l-1.123-1.4s-9.464,1.1-13.7,6.75c0,0-7.8-3.68-14.787-1.889l-.207,2.51,15.327,9.168,6-2.492Z" transform="translate(-368.748 -195.649)" fill="#fff" stroke="#263238" stroke-linecap="round" stroke-linejoin="round" stroke-width="1"/>
          <g id="Group_7" data-name="Group 7" transform="translate(0 0.563)">
            <path id="Path_39" data-name="Path 39" d="M400.822,196.59l-1.616,10.77s-8.922,3.92-10.786,7.068l-.44.062-2.1.29s-.43-.129-1.134-.332a62.962,62.962,0,0,0-8.44-1.849,13.142,13.142,0,0,0-2.983-.114l-6.038-9.409s9.337-1.289,15.794.922l3.086-.217.114-.1C387.2,202.933,393.707,197.765,400.822,196.59Z" transform="translate(-367.288 -196.59)" fill="#594bd9"/>
            <g id="Group_6" data-name="Group 6" clip-path="url(#clip-path)">
              <path id="Path_40" data-name="Path 40" d="M400.591,211.98l-1.584-8.3c.922-.751,7.425-5.919,14.54-7.094l-1.616,10.77s-8.922,3.92-10.786,7.068l-.44.062Z" transform="translate(-380.013 -196.59)" fill="rgba(0,0,0,0.7)" opacity="0.3"/>
              <path id="Path_41" data-name="Path 41" d="M390.839,217.939l-.047,1.884a62.96,62.96,0,0,0-8.44-1.849,8.742,8.742,0,0,1,6.918-7.989Z" transform="translate(-373.331 -201.964)" fill="rgba(0,0,0,0.7)" opacity="0.3"/>
            </g>
            <path id="Path_43" data-name="Path 43" d="M400.822,196.59l-1.616,10.77s-8.922,3.92-10.786,7.068l-.44.062-2.1.29s-.43-.129-1.134-.332a62.962,62.962,0,0,0-8.44-1.849,13.142,13.142,0,0,0-2.983-.114l-6.038-9.409s9.337-1.289,15.794.922l3.086-.217.114-.1C387.2,202.933,393.707,197.765,400.822,196.59Z" transform="translate(-367.288 -196.59)" fill="none" stroke="#263238" stroke-linecap="round" stroke-linejoin="round" stroke-width="1"/>
          </g>
        </g>
        <g id="Group_9" data-name="Group 9" transform="translate(60.126 47.312)">
          <path id="Path_44" data-name="Path 44" d="M393.359,222.437c-3.194-.2-9.28-5.1-9.28-5.1a8.943,8.943,0,0,0-1.519-2.51c-.868-.868.289-1.592.289-1.592s-1.013-.651-1.592-1.013.434-1.3.434-1.3a41.565,41.565,0,0,0,4.787.434c.446-.145,4.618,2.532,5.27,2.6a4.772,4.772,0,0,0,2.5-.651c.434-.362,1.77-2.6,2.637-3.039s2.389-.434,1.665.507-.579,3.038-.961,3.328-.953,3.444-.953,4.531l4.73,4.319-2.692,3.672Z" transform="translate(-381.078 -209.987)" fill="#fff" stroke="#263238" stroke-linecap="round" stroke-linejoin="round" stroke-width="1"/>
          <path id="Path_45" data-name="Path 45" d="M384.034,215.408a7.915,7.915,0,0,1,2.453.688" transform="translate(-382.264 -212.162)" fill="none" stroke="#263238" stroke-linecap="round" stroke-linejoin="round" stroke-width="1"/>
          <path id="Path_46" data-name="Path 46" d="M389.153,218.267s-.273,1.1-.341,1.266.888,1.241.751,1.729.979,1.817.979,1.817" transform="translate(-384.179 -213.309)" fill="none" stroke="#263238" stroke-linecap="round" stroke-linejoin="round" stroke-width="1"/>
          <path id="Path_47" data-name="Path 47" d="M385.952,219.453a17.978,17.978,0,0,1-2.4-1.387" transform="translate(-382.07 -213.228)" fill="none" stroke="#263238" stroke-linecap="round" stroke-linejoin="round" stroke-width="1"/>
        </g>
        <path id="Path_48" data-name="Path 48" d="M382.072,174.473l2.069,4.174,8.515-4.72,1.875,4.184-8.691,5.514-1.664-4.32-3.381,3.251-1.142-5.253Z" transform="translate(-320.38 -148.208)" fill="#757575" stroke="#263238" stroke-linecap="round" stroke-linejoin="round" stroke-width="1"/>
        <path id="Path_49" data-name="Path 49" d="M418.066,190.56c2.069,2.211,9.412,18.411,10.123,28.849H405.8v-.934l-2.443-1.428s1.517-5.328,5.83-4.5l1.26,1.817,2.783,2.1s4.889.128,6.31,1.536" transform="translate(-329.891 -154.881)" fill="#efefef" stroke="#263238" stroke-linecap="round" stroke-linejoin="round" stroke-width="1"/>
        <path id="Path_50" data-name="Path 50" d="M419.847,232.035s2.717-3.913,6.7-2.255" transform="translate(-336.505 -170.452)" fill="none" stroke="#263238" stroke-linecap="round" stroke-linejoin="round" stroke-width="1"/>
        <path id="Path_51" data-name="Path 51" d="M418.121,223.269a47.571,47.571,0,0,1,2.32,4.986" transform="translate(-335.813 -168.004)" fill="none" stroke="#263238" stroke-linecap="round" stroke-linejoin="round" stroke-width="1"/>
        <path id="Path_52" data-name="Path 52" d="M355.951,204.528s-1.658-9.667-1.184-13.007" transform="translate(-310.362 -155.267)" fill="#757575" stroke="#263238" stroke-linecap="round" stroke-linejoin="round" stroke-width="1"/>
        <path id="Path_53" data-name="Path 53" d="M351.264,197.813s.918,4.749,3.005,7.29" transform="translate(-308.991 -157.791)" fill="#757575" stroke="#263238" stroke-linecap="round" stroke-linejoin="round" stroke-width="1"/>
        <path id="Path_54" data-name="Path 54" d="M328.319,199.2s2.605,2.157.947,7.534" transform="translate(-299.786 -158.347)" fill="#757575" stroke="#263238" stroke-linecap="round" stroke-linejoin="round" stroke-width="1"/>
        <path id="Path_55" data-name="Path 55" d="M385.741,188.239a.561.561,0,1,1-.562-.561A.562.562,0,0,1,385.741,188.239Z" transform="translate(-322.372 -153.725)" fill="#263238"/>
        <circle id="Ellipse_1" data-name="Ellipse 1" cx="0.561" cy="0.561" r="0.561" transform="translate(61.335 41.635)" fill="#263238"/>
        <circle id="Ellipse_2" data-name="Ellipse 2" cx="0.561" cy="0.561" r="0.561" transform="translate(60.484 58.919)" fill="#263238"/>
      </g>
    </g>
  </g>
</svg>
