<svg width="24" height="24" viewBox="0 0 24 24" fill="none" xmlns="http://www.w3.org/2000/svg">
<g id="inta">
<path id="Ellipse 1026" d="M12 24C18.6274 24 24 18.6274 24 12C24 5.37258 18.6274 0 12 0C5.37258 0 0 5.37258 0 12C0 18.6274 5.37258 24 12 24Z" fill="url(#paint0_linear_506_798)"/>
<g id="Group 18932">
<g id="Group 18931">
<path id="Path 35046" d="M12.0002 5.80634C14.0172 5.80634 14.2573 5.81431 15.0533 5.85031C15.5314 5.85633 16.0049 5.94428 16.4532 6.11032C16.7792 6.2359 17.0753 6.42839 17.3223 6.67538C17.5693 6.92237 17.7617 7.21837 17.8873 7.54431C18.0535 7.99266 18.1414 8.46623 18.1473 8.94434C18.1833 9.74434 18.1913 9.98031 18.1913 11.9973C18.1913 14.0143 18.1833 14.2533 18.1473 15.0503C18.1414 15.5284 18.0535 16.002 17.8873 16.4503C17.7617 16.7763 17.5693 17.0723 17.3223 17.3192C17.0753 17.5662 16.7792 17.7588 16.4532 17.8843C16.0049 18.0504 15.5314 18.1384 15.0533 18.1443C14.2533 18.1803 14.0172 18.1883 12.0002 18.1883C9.98324 18.1883 9.74427 18.1803 8.94727 18.1443C8.46916 18.1384 7.9956 18.0504 7.54724 17.8843C7.2213 17.7588 6.92533 17.5662 6.67834 17.3192C6.43135 17.0723 6.23886 16.7763 6.11328 16.4503C5.94714 16.002 5.85919 15.5284 5.85327 15.0503C5.81727 14.2503 5.80933 14.0143 5.80933 11.9973C5.80933 9.98031 5.81727 9.74134 5.85327 8.94434C5.85921 8.46623 5.94716 7.99267 6.11328 7.54431C6.23886 7.21837 6.43135 6.92237 6.67834 6.67538C6.92533 6.42839 7.2213 6.2359 7.54724 6.11032C7.99561 5.94426 8.46917 5.85631 8.94727 5.85031C9.74727 5.81431 9.98324 5.80634 12.0002 5.80634ZM12.0002 4.44531C9.94824 4.44531 9.69125 4.45433 8.88525 4.49133C8.25848 4.5039 7.63839 4.62256 7.05127 4.84232C6.54927 5.03641 6.09335 5.33326 5.71277 5.71384C5.33219 6.09441 5.0354 6.55034 4.84131 7.05234C4.62151 7.63944 4.50288 8.25955 4.49036 8.88632C4.45336 9.69232 4.44531 9.94931 4.44531 12.0013C4.44531 14.0533 4.45436 14.3103 4.49036 15.1163C4.50286 15.7431 4.62149 16.3632 4.84131 16.9503C5.0354 17.4523 5.33219 17.9082 5.71277 18.2888C6.09335 18.6694 6.54927 18.9662 7.05127 19.1603C7.63836 19.3802 8.25847 19.4989 8.88525 19.5114C9.69125 19.5484 9.94824 19.5563 12.0002 19.5563C14.0522 19.5563 14.3094 19.5474 15.1154 19.5114C15.7421 19.4989 16.3622 19.3802 16.9493 19.1603C17.4512 18.9661 17.9068 18.6692 18.2872 18.2886C18.6676 17.9081 18.9643 17.4522 19.1583 16.9503C19.3782 16.3632 19.4969 15.7431 19.5093 15.1163C19.5463 14.3103 19.5543 14.0533 19.5543 12.0013C19.5543 9.94931 19.5453 9.69232 19.5093 8.88632C19.4968 8.25954 19.3782 7.63942 19.1583 7.05234C18.9643 6.55043 18.6676 6.09456 18.2872 5.71399C17.9068 5.33342 17.4512 5.03652 16.9493 4.84232C16.3622 4.62256 15.7421 4.5039 15.1154 4.49133C14.3094 4.45433 14.0522 4.44531 12.0002 4.44531Z" fill="white"/>
<path id="Path 35047" d="M12.0011 8.125C11.2337 8.125 10.4836 8.35253 9.84554 8.77887C9.20748 9.20521 8.71013 9.81123 8.41647 10.5202C8.1228 11.2292 8.04593 12.0093 8.19564 12.762C8.34535 13.5146 8.7149 14.2059 9.25753 14.7485C9.80016 15.2912 10.4916 15.6607 11.2442 15.8104C11.9969 15.9601 12.7769 15.8833 13.4859 15.5897C14.1949 15.296 14.8009 14.7986 15.2273 14.1606C15.6536 13.5225 15.8811 12.7724 15.8811 12.005C15.8811 10.976 15.4724 9.98905 14.7447 9.26141C14.0171 8.53377 13.0301 8.125 12.0011 8.125ZM12.0011 14.525C11.5028 14.525 11.0159 14.3773 10.6016 14.1005C10.1874 13.8237 9.86457 13.4303 9.67391 12.97C9.48325 12.5097 9.43328 12.0032 9.53048 11.5145C9.62768 11.0259 9.86764 10.5771 10.2199 10.2248C10.5722 9.8725 11.0211 9.6326 11.5097 9.5354C11.9984 9.4382 12.5048 9.48805 12.965 9.67871C13.4253 9.86937 13.8188 10.1923 14.0955 10.6065C14.3723 11.0208 14.5201 11.5078 14.5201 12.006C14.5196 12.6737 14.2539 13.3139 13.7816 13.7859C13.3092 14.2579 12.6688 14.523 12.0011 14.523V14.525Z" fill="white"/>
<path id="Ellipse 1027" d="M16.034 8.8765C16.5349 8.8765 16.941 8.47042 16.941 7.9695C16.941 7.46858 16.5349 7.0625 16.034 7.0625C15.533 7.0625 15.127 7.46858 15.127 7.9695C15.127 8.47042 15.533 8.8765 16.034 8.8765Z" fill="white"/>
</g>
</g>
</g>
<defs>
<linearGradient id="paint0_linear_506_798" x1="12" y1="0" x2="12" y2="24" gradientUnits="userSpaceOnUse">
<stop stop-color="#E09B3D"/>
<stop offset="0.3" stop-color="#C74C4D"/>
<stop offset="0.6" stop-color="#C21975"/>
<stop offset="1" stop-color="#7024C4"/>
</linearGradient>
</defs>
</svg>
