<svg width="24" height="24" viewBox="0 0 24 24" fill="none" xmlns="http://www.w3.org/2000/svg">
<g id="Layer 2">
<g id="Color">
<g id="10.Linkedin">
<path id="Background" d="M12 24C18.6274 24 24 18.6274 24 12C24 5.37258 18.6274 0 12 0C5.37258 0 0 5.37258 0 12C0 18.6274 5.37258 24 12 24Z" fill="#4875B4"/>
<g id="Icon">
<path id="Path 81765" d="M18.3153 18.3188V13.6858C18.3153 11.4188 17.8273 9.67383 15.1783 9.67383C14.6809 9.65507 14.1877 9.77177 13.7515 10.0115C13.3152 10.2512 12.9522 10.6049 12.7013 11.0348H12.6653V9.88583H10.1523V18.3188H12.7673V14.1418C12.7673 13.0368 12.9753 11.9788 14.3463 11.9788C15.7173 11.9788 15.7073 13.2418 15.7073 14.2128V18.3178L18.3153 18.3188Z" fill="white"/>
<path id="Path 81766" d="M5.89258 9.89062H8.51058V18.3236H5.89258V9.89062Z" fill="white"/>
<path id="Path 81767" d="M7.1995 5.6875C6.84879 5.68797 6.50909 5.81003 6.23828 6.03287C5.96747 6.25571 5.7823 6.56555 5.71431 6.90961C5.64632 7.25366 5.69972 7.61065 5.86542 7.91975C6.03112 8.22884 6.29885 8.47093 6.62302 8.60477C6.94719 8.73861 7.30773 8.75591 7.64323 8.65373C7.97872 8.55156 8.26841 8.33622 8.46295 8.04441C8.65748 7.7526 8.74483 7.40237 8.7101 7.05339C8.67537 6.7044 8.52072 6.37825 8.2725 6.1305C7.98728 5.84706 7.6016 5.68783 7.1995 5.6875Z" fill="white"/>
</g>
</g>
</g>
</g>
</svg>
