<svg xmlns="http://www.w3.org/2000/svg" width="21.203" height="14.265" viewBox="0 0 21.203 14.265">
  <g id="_025---Live-Recording" data-name="025---Live-Recording" transform="translate(0 -0.998)">
    <path id="Shape" d="M14.9,19.166a.368.368,0,0,1,.45.354v4.426a1.483,1.483,0,0,1-.925,1.356c-.348.152.25.106-12.967.106A1.472,1.472,0,0,1,0,23.946V18.462A1.462,1.462,0,0,1,1.462,17H12.834a.368.368,0,0,1,.354.45A1.458,1.458,0,0,0,14.9,19.166Z" transform="translate(0 -10.152)" fill="#e64c3c"/>
    <g id="Group_41068" data-name="Group 41068" transform="translate(1.462 8.31)">
      <path id="Shape-2" data-name="Shape" d="M13.366,26.484A.366.366,0,0,1,13,26.118V21.366a.366.366,0,0,1,.731,0v4.752A.366.366,0,0,1,13.366,26.484Z" transform="translate(-9.71 -21)" fill="#fff"/>
      <path id="Shape-3" data-name="Shape" d="M18.827,26.483h-.366a.366.366,0,0,1-.356-.283l-1.1-4.752a.366.366,0,1,1,.713-.165l.923,4,.923-4a.366.366,0,1,1,.713.165l-1.1,4.752A.366.366,0,0,1,18.827,26.483Z" transform="translate(-12.247 -20.999)" fill="#fff"/>
      <path id="Shape-4" data-name="Shape" d="M30.193,26.484H28.366A.366.366,0,0,1,28,26.118V21.366a.366.366,0,0,1,.731,0v4.387h1.462a.366.366,0,0,1,0,.731Z" transform="translate(-19.226 -21)" fill="#fff"/>
      <path id="Shape-5" data-name="Shape" d="M6.193,26.484H4.366A.366.366,0,0,1,4,26.118V21.366a.366.366,0,0,1,.731,0v4.387H6.193a.366.366,0,1,1,0,.731Z" transform="translate(-4 -21)" fill="#fff"/>
      <path id="Shape-6" data-name="Shape" d="M30.193,28.731H28.366a.366.366,0,1,1,0-.731h1.828a.366.366,0,0,1,0,.731Z" transform="translate(-19.226 -25.441)" fill="#fff"/>
      <path id="Shape-7" data-name="Shape" d="M30.193,21.731H28.366a.366.366,0,1,1,0-.731h1.828a.366.366,0,0,1,0,.731Z" transform="translate(-19.226 -21)" fill="#fff"/>
    </g>
    <path id="Shape-8" data-name="Shape" d="M27.066,4.267a5.116,5.116,0,1,1,7.322,7.112.731.731,0,1,0,.971,1.09,6.576,6.576,0,1,0-9.41-9.144.731.731,0,1,0,1.117.942Z" transform="translate(-16.341 0)" fill="#84b5cb"/>
    <path id="Shape-9" data-name="Shape" d="M34.521,10.873a2.193,2.193,0,0,1,3.047,3.08.715.715,0,0,0-.033.784.731.731,0,0,0,1.214.078,3.654,3.654,0,0,0-5.076-5.131.727.727,0,0,0,.118,1.233A.709.709,0,0,0,34.521,10.873Z" transform="translate(-21.179 -5.075)" fill="#3b97d3"/>
    <circle id="Oval" cx="0.5" cy="0.5" r="0.5" transform="translate(14 7.242)" fill="#2980ba"/>
  </g>
</svg>
