<svg xmlns="http://www.w3.org/2000/svg" width="12.147" height="15.184" viewBox="0 0 12.147 15.184">
  <path id="df12b5039313fc3798dfa93cfb504acd" d="M13.87,7.314V5.8a3.8,3.8,0,0,0-7.592,0V7.314A2.237,2.237,0,0,0,4,9.592v5.314a2.237,2.237,0,0,0,2.278,2.278H13.87a2.237,2.237,0,0,0,2.278-2.278V9.592A2.237,2.237,0,0,0,13.87,7.314ZM7.8,5.8a2.278,2.278,0,1,1,4.555,0V7.314H7.8Zm3.113,6.453-.076.076v1.063a.759.759,0,1,1-1.518,0V12.325a1.129,1.129,0,1,1,1.594-.076Z" transform="translate(-4 -2)" fill="#fff"/>
</svg>
