<svg id="Icon_ionic-ios-mail" data-name="Icon ionic-ios-mail" xmlns="http://www.w3.org/2000/svg" width="20.789" height="14.392" viewBox="0 0 20.789 14.392">
  <path id="Path_86310" data-name="Path 86310" d="M23.994,10.345l-5.377,5.477a.1.1,0,0,0,0,.14l3.763,4.008a.648.648,0,0,1,0,.92.652.652,0,0,1-.92,0L17.713,16.9a.1.1,0,0,0-.145,0l-.915.93a4.024,4.024,0,0,1-2.869,1.209,4.1,4.1,0,0,1-2.928-1.244l-.88-.895a.1.1,0,0,0-.145,0L6.084,20.889a.652.652,0,0,1-.92,0,.648.648,0,0,1,0-.92l3.763-4.008a.106.106,0,0,0,0-.14L3.545,10.345a.1.1,0,0,0-.17.07V21.374a1.6,1.6,0,0,0,1.6,1.6H22.565a1.6,1.6,0,0,0,1.6-1.6V10.414A.1.1,0,0,0,23.994,10.345Z" transform="translate(-3.375 -8.58)" fill="#fff"/>
  <path id="Path_86311" data-name="Path 86311" d="M14.016,17.025a2.717,2.717,0,0,0,1.954-.82l7.841-7.981a1.571,1.571,0,0,0-.989-.35H5.215a1.56,1.56,0,0,0-.989.35l7.841,7.981A2.717,2.717,0,0,0,14.016,17.025Z" transform="translate(-3.621 -7.875)" fill="#fff"/>
</svg>
