<svg xmlns="http://www.w3.org/2000/svg" width="13.664" height="13.125" viewBox="0 0 13.664 13.125">
  <path id="Path_83243" data-name="Path 83243" d="M44.037,338.141a1.31,1.31,0,0,1,2.492,0l.715,2.2a1.31,1.31,0,0,0,1.246.905H50.8a1.31,1.31,0,0,1,.77,2.37l-1.871,1.36a1.309,1.309,0,0,0-.476,1.465l.715,2.2a1.31,1.31,0,0,1-2.016,1.465l-1.871-1.36a1.308,1.308,0,0,0-1.54,0l-1.871,1.36a1.31,1.31,0,0,1-2.016-1.465l.715-2.2a1.31,1.31,0,0,0-.476-1.465l-1.871-1.36a1.31,1.31,0,0,1,.77-2.37h2.313a1.31,1.31,0,0,0,1.246-.905Z" transform="translate(-38.451 -337.236)" fill="#fff"/>
</svg>
