<svg xmlns="http://www.w3.org/2000/svg" width="32" height="32" viewBox="0 0 32 32">
  <g id="Group_39824" data-name="Group 39824" transform="translate(-80 -262)">
    <circle id="Ellipse_1723" data-name="Ellipse 1723" cx="16" cy="16" r="16" transform="translate(80 262)" fill="#d4efdb"/>
    <g id="money_1_" data-name="money (1)" transform="translate(85.248 203.392)">
      <path id="Path_86329" data-name="Path 86329" d="M75.605,77.776H57.823a.662.662,0,0,1-.66-.66V67.432a.662.662,0,0,1,.66-.66H75.605a.662.662,0,0,1,.66.66v9.683A.662.662,0,0,1,75.605,77.776Z" transform="translate(-54.762 0)" fill="#317f46"/>
      <path id="Path_86330" data-name="Path 86330" d="M106.5,102.059a1.921,1.921,0,0,1-1.188-1.3.786.786,0,0,0-.738-.594H93.231a.786.786,0,0,0-.738.594,1.921,1.921,0,0,1-1.188,1.3.843.843,0,0,0-.542.809v2.788a.843.843,0,0,0,.542.809,1.921,1.921,0,0,1,1.188,1.3.786.786,0,0,0,.738.594h11.345a.786.786,0,0,0,.738-.594,1.921,1.921,0,0,1,1.188-1.3.843.843,0,0,0,.542-.809v-2.788A.843.843,0,0,0,106.5,102.059Z" transform="translate(-86.951 -31.988)" fill="#4cba68"/>
      <path id="Path_86331" data-name="Path 86331" d="M48.363,135.2H30.581a.656.656,0,0,1-.66-.647v-9.488a.656.656,0,0,1,.66-.647H48.363a.656.656,0,0,1,.66.647v9.488A.656.656,0,0,1,48.363,135.2Z" transform="translate(-28.664 -55.228)" fill="#368b4c"/>
      <path id="SVGCleanerId_0" d="M79.259,159.656a1.89,1.89,0,0,1-1.188-1.267.782.782,0,0,0-.738-.578H65.989a.782.782,0,0,0-.738.578,1.89,1.89,0,0,1-1.188,1.267.821.821,0,0,0-.542.787v2.713a.821.821,0,0,0,.542.787,1.89,1.89,0,0,1,1.188,1.267.782.782,0,0,0,.738.578H77.334a.782.782,0,0,0,.738-.578,1.89,1.89,0,0,1,1.188-1.267.821.821,0,0,0,.542-.787v-2.713A.821.821,0,0,0,79.259,159.656Z" transform="translate(-60.853 -87.215)" fill="#64c37d"/>
      <g id="Group_39805" data-name="Group 39805" transform="translate(2.668 70.485)">
        <path id="SVGCleanerId_0_1_" d="M79.259,159.707a1.921,1.921,0,0,1-1.188-1.3.786.786,0,0,0-.738-.594H65.989a.786.786,0,0,0-.738.594,1.921,1.921,0,0,1-1.188,1.3.843.843,0,0,0-.542.809V163.3a.843.843,0,0,0,.542.809,1.921,1.921,0,0,1,1.188,1.3.786.786,0,0,0,.738.594H77.334a.786.786,0,0,0,.738-.594,1.921,1.921,0,0,1,1.188-1.3.843.843,0,0,0,.542-.809v-2.788A.843.843,0,0,0,79.259,159.707Z" transform="translate(-63.521 -157.81)" fill="#64c37d"/>
      </g>
      <path id="Path_86332" data-name="Path 86332" d="M19.1,183.885v9.683a.662.662,0,0,1-.66.66H.66a.662.662,0,0,1-.66-.66v-9.683a.662.662,0,0,1,.66-.66H18.442A.662.662,0,0,1,19.1,183.885Z" transform="translate(0 -111.784)" fill="#368b4c"/>
      <path id="Path_86333" data-name="Path 86333" d="M40.186,183.885V193.3H22.668a.662.662,0,0,1-.66-.66v-9.419H39.526A.662.662,0,0,1,40.186,183.885Z" transform="translate(-21.084 -111.784)" fill="#3fa45a"/>
      <path id="Path_86334" data-name="Path 86334" d="M49.336,218.512a1.921,1.921,0,0,1-1.188-1.3.786.786,0,0,0-.738-.594H36.066a.786.786,0,0,0-.738.594,1.921,1.921,0,0,1-1.188,1.3.843.843,0,0,0-.542.809v2.788a.843.843,0,0,0,.542.809,1.921,1.921,0,0,1,1.188,1.3.786.786,0,0,0,.738.594H47.411a.786.786,0,0,0,.738-.594,1.921,1.921,0,0,1,1.188-1.3.843.843,0,0,0,.542-.809v-2.788A.843.843,0,0,0,49.336,218.512Z" transform="translate(-32.187 -143.772)" fill="#95d6a6"/>
      <circle id="Ellipse_1719" data-name="Ellipse 1719" cx="2.545" cy="2.545" r="2.545" transform="translate(7.007 74.459)" fill="#368b4c"/>
      <path id="Path_86335" data-name="Path 86335" d="M205.649,269.067a.33.33,0,0,0,.33-.33v-.215a.951.951,0,0,0-.319-1.843h-.013a.3.3,0,0,1-.285-.3.291.291,0,0,1,.284-.29h0a.291.291,0,0,1,.288.29.33.33,0,0,0,.66,0,.952.952,0,0,0-.617-.888v-.23a.33.33,0,0,0-.66,0v.229a.958.958,0,0,0,.311,1.853h.023a.29.29,0,1,1,0,.581h-.006a.291.291,0,0,1-.29-.29.33.33,0,1,0-.66,0,.952.952,0,0,0,.624.893v.215A.33.33,0,0,0,205.649,269.067Z" transform="translate(-196.098 -189.989)" fill="#2c733f"/>
    </g>
  </g>
</svg>
