<svg xmlns="http://www.w3.org/2000/svg" width="83.681" height="75.387" viewBox="0 0 83.681 75.387">
  <g id="no-results" transform="translate(-1.252 -4.4)">
    <g id="Group_41074" data-name="Group 41074" transform="translate(2.238 5.388)">
      <path id="Path_83521" data-name="Path 83521" d="M68.81,42.841H33.726L24.21,31.52H59.294Z" transform="translate(5.062 3.235)" fill="#e5e4fa"/>
      <path id="Path_83522" data-name="Path 83522" d="M2,42.841H21.756L31.272,31.52H11.516Z" transform="translate(-2 3.235)" fill="#e5e4fa"/>
      <path id="Path_83523" data-name="Path 83523" d="M33.726,42.841,24.21,31.52V70.176H59.294V42.841Z" transform="translate(5.062 3.235)" fill="#cdc8fd"/>
      <path id="Path_83524" data-name="Path 83524" d="M19.461,42.841H9.22V70.176H28.976V31.52Z" transform="translate(0.296 3.235)" fill="#ccc8f9"/>
      <path id="Path_83525" data-name="Path 83525" d="M52.63,30.483,50.007,27.86a17.225,17.225,0,0,1-3.1,3.1l2.623,2.623a4.08,4.08,0,0,0,1.094,3.8L62.436,49.185A4.091,4.091,0,1,0,68.221,43.4L56.412,31.59a3.981,3.981,0,0,0-3.783-1.107Z" transform="translate(12.28 2.071)" fill="#ccc8f9"/>
      <circle id="Ellipse_1762" data-name="Ellipse 1762" cx="18.491" cy="18.491" r="18.491" transform="translate(29.272)" fill="#cdc8fd"/>
      <path id="Path_83526" data-name="Path 83526" d="M41.427,35.591a13.086,13.086,0,0,1-9.344-3.875,13.244,13.244,0,0,1,0-18.7,13.2,13.2,0,0,1,18.689,0,13.244,13.244,0,0,1,0,18.7,13.086,13.086,0,0,1-9.344,3.875Z" transform="translate(6.336 -3.881)" fill="#fff"/>
    </g>
    <g id="Group_41075" data-name="Group 41075" transform="translate(1.252 4.4)">
      <path id="Path_83527" data-name="Path 83527" d="M51.72,12.555a14.212,14.212,0,0,0-20.1,20.1,14.207,14.207,0,0,0,20.1,0,14.239,14.239,0,0,0,0-20.1Zm-1.4,18.7a12.237,12.237,0,1,1,0-17.3A12.153,12.153,0,0,1,50.323,31.257Z" transform="translate(7.084 -3.131)" fill="#584cd2"/>
      <path id="Path_83528" data-name="Path 83528" d="M76.386,50.133,64.577,38.324a5.069,5.069,0,0,0-4.152-1.45l-1.661-1.661a19.557,19.557,0,1,0-4.494,4.481l1.661,1.661a5.027,5.027,0,0,0,1.45,4.152L69.19,57.316a5.084,5.084,0,1,0,7.2-7.183ZM30.561,36.255a17.5,17.5,0,1,1,12.376,5.127A17.375,17.375,0,0,1,30.561,36.255ZM74.989,55.932a3.1,3.1,0,0,1-4.389,0L58.791,44.123a3.121,3.121,0,0,1-.83-2.873.969.969,0,0,0-.264-.909l-1.872-1.872c.3-.264.606-.514.883-.8s.54-.593.8-.883l1.872,1.872a.969.969,0,0,0,.909.264,3.079,3.079,0,0,1,2.886.83L74.989,51.557a3.079,3.079,0,0,1,.909,2.2,3.019,3.019,0,0,1-.909,2.175Z" transform="translate(5.812 -4.4)" fill="#584cd2"/>
      <path id="Path_83529" data-name="Path 83529" d="M22.745,43.722,31.51,33.3l8.764,10.425a.977.977,0,0,0,.751.356H66.212a.988.988,0,1,0,0-1.977H41.487l-7.855-9.344h.936a.988.988,0,0,0,0-1.977H11.754a.977.977,0,0,0-.751.356L1.487,42.457a.982.982,0,0,0,.751,1.621H21.994A1.071,1.071,0,0,0,22.745,43.722ZM4.36,42.088l7.855-9.344H29.388l-7.855,9.344Z" transform="translate(-1.252 3.988)" fill="#584cd2"/>
      <path id="Path_83530" data-name="Path 83530" d="M38.311,53.66H27.978a.988.988,0,1,0,0,1.977H38.311a.988.988,0,0,0,0-1.977Z" transform="translate(6.932 11.263)" fill="#584cd2"/>
      <path id="Path_83531" data-name="Path 83531" d="M38.311,56.57H27.978a.988.988,0,0,0,0,1.977H38.311a.988.988,0,0,0,0-1.977Z" transform="translate(6.932 12.188)" fill="#584cd2"/>
      <path id="Path_83532" data-name="Path 83532" d="M44.084,15.719a.994.994,0,0,0-1.4,0l-3.255,3.255-3.255-3.255a.988.988,0,1,0-1.4,1.4l3.255,3.255-3.255,3.255a.994.994,0,0,0,0,1.4.986.986,0,0,0,1.4,0l3.255-3.255,3.255,3.255a.986.986,0,0,0,1.4,0,.994.994,0,0,0,0-1.4l-3.255-3.255,3.255-3.255a.971.971,0,0,0,0-1.4Z" transform="translate(9.317 -0.892)" fill="#584cd2"/>
      <path id="Path_83533" data-name="Path 83533" d="M64.3,44.563a1,1,0,0,0-.988.988V67.944H30.2V36.418a.988.988,0,1,0-1.977,0V67.944H10.447V45.552a.988.988,0,1,0-1.977,0V68.933a1,1,0,0,0,.988.988H64.3a1,1,0,0,0,.988-.988V45.552A1,1,0,0,0,64.3,44.563Z" transform="translate(1.043 5.466)" fill="#584cd2"/>
    </g>
  </g>
</svg>
