<svg xmlns="http://www.w3.org/2000/svg" xmlns:xlink="http://www.w3.org/1999/xlink" width="267" height="239.677" viewBox="0 0 267 239.677">
  <defs>
    <clipPath id="clip-path">
      <rect id="Rectangle_1427" data-name="Rectangle 1427" width="190.592" height="184.758" fill="#fff"/>
    </clipPath>
  </defs>
  <g id="Group_18675" data-name="Group 18675" transform="translate(-125.61 -18855)">
    <g id="Background_Complete" data-name="Background Complete" transform="translate(127.29 18855)">
      <g id="Group_23" data-name="Group 23" transform="translate(182.652 0)">
        <g id="Group_2" data-name="Group 2" transform="translate(0 0)">
          <g id="Group_1" data-name="Group 1">
            <rect id="Rectangle_1" data-name="Rectangle 1" width="61.396" height="58.23" rx="6.79" transform="translate(0 13.276) rotate(-12.488)" fill="#ebebeb"/>
          </g>
        </g>
        <g id="Group_22" data-name="Group 22" transform="translate(15.552 16.686)">
          <g id="Group_21" data-name="Group 21">
            <g id="Group_17" data-name="Group 17">
              <g id="Group_5" data-name="Group 5" transform="translate(0 10.07)">
                <g id="Group_4" data-name="Group 4">
                  <g id="Group_3" data-name="Group 3">
                    <path id="Path_1" data-name="Path 1" d="M391.56,103.719a2.447,2.447,0,0,1-.4.116l-1.155.284-4.286,1L371.316,108.4l-.117.027-.043-.113-.87-2.314-6.247-16.782.1.055-3.848.821-1.027.206a2.044,2.044,0,0,1-.357.055,2.022,2.022,0,0,1,.347-.1L360.272,90l3.831-.9.075-.018.027.072,6.344,16.747.868,2.314-.16-.086,14.426-3.186,4.3-.921,1.166-.235A2.425,2.425,0,0,1,391.56,103.719Z" transform="translate(-358.909 -89.079)" fill="#fafafa"/>
                  </g>
                </g>
              </g>
              <g id="Group_8" data-name="Group 8" transform="translate(6.379 7.561)">
                <g id="Group_7" data-name="Group 7">
                  <g id="Group_6" data-name="Group 6">
                    <path id="Path_2" data-name="Path 2" d="M374.325,102.4a.37.37,0,0,1,.1-.034l.3-.078,1.155-.281,4.331-1.011,14.951-3.4-.1.136c-.121-2.618-.252-5.448-.387-8.378-.068-1.507-.135-2.987-.2-4.4l.168.129L376.99,88.985l-5.23,1.129-1.412.292-.367.069a.505.505,0,0,1-.127.015.469.469,0,0,1,.121-.041l.362-.094,1.4-.339,5.211-1.21,17.624-4,.161-.037.008.165c.065,1.412.132,2.892.2,4.4.131,2.93.258,5.76.375,8.378l.005.112-.11.024-14.972,3.3-4.348.934-1.164.238-.3.056A.329.329,0,0,1,374.325,102.4Z" transform="translate(-369.854 -84.774)" fill="#fafafa"/>
                  </g>
                </g>
              </g>
              <g id="Group_11" data-name="Group 11" transform="translate(14.434 31.883)">
                <g id="Group_10" data-name="Group 10">
                  <g id="Group_9" data-name="Group 9">
                    <path id="Path_3" data-name="Path 3" d="M387.921,128.244c-.025.006-.066-.175-.223-.456a2.074,2.074,0,0,0-.98-.886,1.958,1.958,0,1,0,.688,3.07,2.072,2.072,0,0,0,.508-1.22c.022-.322-.018-.5.007-.508a1.051,1.051,0,0,1,.1.511,2.069,2.069,0,0,1-.466,1.344,2.169,2.169,0,0,1-1.944.786,2.2,2.2,0,0,1-.906-4.044,2.167,2.167,0,0,1,2.093-.118,2.067,2.067,0,0,1,.995,1.016A1.055,1.055,0,0,1,387.921,128.244Z" transform="translate(-383.676 -126.508)" fill="#fafafa"/>
                  </g>
                </g>
              </g>
              <g id="Group_14" data-name="Group 14" transform="translate(27.481 28.96)">
                <g id="Group_13" data-name="Group 13">
                  <g id="Group_12" data-name="Group 12">
                    <path id="Path_4" data-name="Path 4" d="M410.31,123.228c-.025.006-.066-.175-.223-.456a2.072,2.072,0,0,0-.98-.886,1.958,1.958,0,1,0,.688,3.07,2.078,2.078,0,0,0,.508-1.22c.022-.322-.019-.5.007-.508a1.056,1.056,0,0,1,.1.511,2.066,2.066,0,0,1-.466,1.343,2.168,2.168,0,0,1-1.944.787,2.2,2.2,0,0,1-.906-4.045,2.167,2.167,0,0,1,2.093-.118,2.068,2.068,0,0,1,.995,1.016A1.053,1.053,0,0,1,410.31,123.228Z" transform="translate(-406.064 -121.492)" fill="#fafafa"/>
                  </g>
                </g>
              </g>
              <g id="Group_16" data-name="Group 16" transform="translate(23.631)">
                <g id="Group_15" data-name="Group 15">
                  <path id="Path_5" data-name="Path 5" d="M411.172,76.434a5.929,5.929,0,1,1-7.081-4.489A5.929,5.929,0,0,1,411.172,76.434Z" transform="translate(-399.457 -71.799)" fill="#fafafa"/>
                </g>
              </g>
            </g>
            <g id="Group_20" data-name="Group 20" transform="translate(26.86 3.066)">
              <g id="Group_19" data-name="Group 19">
                <g id="Group_18" data-name="Group 18">
                  <path id="Path_6" data-name="Path 6" d="M410.356,77.06a5.376,5.376,0,0,1-.541,1.1c-.364.662-.885,1.567-1.474,2.557l-.635,1.054-.066.111-.111-.062A19.11,19.11,0,0,1,405,80.305a19.3,19.3,0,0,1,2.655,1.282l-.178.049.624-1.06c.59-.991,1.137-1.879,1.546-2.515A5.353,5.353,0,0,1,410.356,77.06Z" transform="translate(-404.999 -77.06)" fill="#e0e0e0"/>
                </g>
              </g>
            </g>
          </g>
        </g>
      </g>
      <g id="Group_42" data-name="Group 42" transform="translate(0 2.912)">
        <g id="Group_25" data-name="Group 25" transform="translate(25.14 81.762)">
          <g id="Group_24" data-name="Group 24">
            <path id="Path_7" data-name="Path 7" d="M67.972,191.908c-1.075-3.808-6.024-3.438-6.024-3.438l.136,2.648c2.86-.494,4.638,2.859,4.638,2.859Z" transform="translate(-61.948 -188.46)" fill="#e0e0e0"/>
          </g>
        </g>
        <g id="Group_27" data-name="Group 27" transform="translate(102.21 34.377)">
          <g id="Group_26" data-name="Group 26">
            <path id="Path_8" data-name="Path 8" d="M195.814,114.025c5.74,1.739,9.312-4.881,9.312-4.881l-3.493-1.99c-1.708,4.056-7.441,3.586-7.441,3.586Z" transform="translate(-194.193 -107.153)" fill="#e0e0e0"/>
          </g>
        </g>
        <g id="Group_29" data-name="Group 29" transform="translate(146.205 74.156)">
          <g id="Group_28" data-name="Group 28">
            <path id="Path_9" data-name="Path 9" d="M274.962,178.042c-1.11-3.166-5.279-2.592-5.279-2.592l.255,2.234c2.4-.569,4.077,2.175,4.077,2.175Z" transform="translate(-269.683 -175.409)" fill="#e0e0e0"/>
          </g>
        </g>
        <g id="Group_31" data-name="Group 31" transform="translate(80.362)">
          <g id="Group_30" data-name="Group 30">
            <path id="Path_10" data-name="Path 10" d="M161.983,50.8c-1.111-3.166-5.279-2.592-5.279-2.592l.255,2.234c2.395-.569,4.076,2.174,4.076,2.174Z" transform="translate(-156.704 -48.165)" fill="#e0e0e0"/>
          </g>
        </g>
        <g id="Group_33" data-name="Group 33" transform="translate(30.627 40.509)">
          <g id="Group_32" data-name="Group 32">
            <path id="Path_11" data-name="Path 11" d="M76.642,120.307c-1.111-3.166-5.279-2.592-5.279-2.592l.255,2.234c2.395-.568,4.077,2.175,4.077,2.175Z" transform="translate(-71.363 -117.674)" fill="#ebebeb"/>
          </g>
        </g>
        <g id="Group_35" data-name="Group 35" transform="translate(21.986 13.546)">
          <g id="Group_34" data-name="Group 34">
            <path id="Path_12" data-name="Path 12" d="M60.005,71.409c-3.311.543-3.47,4.748-3.47,4.748l2.244.138c-.143-2.457,2.85-3.636,2.85-3.636Z" transform="translate(-56.535 -71.409)" fill="#ebebeb"/>
          </g>
        </g>
        <g id="Group_37" data-name="Group 37" transform="translate(0 105.156)">
          <g id="Group_36" data-name="Group 36">
            <path id="Path_13" data-name="Path 13" d="M20.431,235.475c5.74,1.739,9.312-4.882,9.312-4.882L26.25,228.6c-1.707,4.056-7.44,3.586-7.44,3.586Z" transform="translate(-18.81 -228.603)" fill="#ebebeb"/>
          </g>
        </g>
        <g id="Group_39" data-name="Group 39" transform="translate(161.724 37.815)">
          <g id="Group_38" data-name="Group 38">
            <path id="Path_14" data-name="Path 14" d="M299.744,116.852c.388-2.658-2.782-3.8-2.782-3.8l-.649,1.68c1.91.486,2.083,3.057,2.083,3.057Z" transform="translate(-296.313 -113.052)" fill="#e0e0e0"/>
          </g>
        </g>
        <g id="Group_41" data-name="Group 41" transform="translate(144.742 12.419)">
          <g id="Group_40" data-name="Group 40">
            <path id="Path_15" data-name="Path 15" d="M268.5,69.475c-2.238,1.486-.971,4.608-.971,4.608l1.684-.638c-.913-1.747.885-3.592.885-3.592Z" transform="translate(-267.173 -69.475)" fill="#ebebeb"/>
          </g>
        </g>
      </g>
      <g id="Group_50" data-name="Group 50" transform="translate(235.431 74.827)">
        <g id="Group_45" data-name="Group 45">
          <g id="Group_44" data-name="Group 44">
            <g id="Group_43" data-name="Group 43">
              <path id="Path_16" data-name="Path 16" d="M430.536,171.565l-7.75,22.825,22.919,4.555,1.319-24.1Z" transform="translate(-422.786 -171.565)" fill="#f5f5f5"/>
            </g>
          </g>
        </g>
        <g id="Group_49" data-name="Group 49" transform="translate(9.124 3.821)">
          <g id="Group_48" data-name="Group 48">
            <g id="Group_47" data-name="Group 47">
              <g id="Group_46" data-name="Group 46">
                <path id="Path_17" data-name="Path 17" d="M451.019,180.609c.027.011-.043.255-.258.654a6.673,6.673,0,0,1-1.154,1.534,6.266,6.266,0,0,1-2.429,1.514,6.836,6.836,0,0,1-3.5.178,6.962,6.962,0,0,1-3.2-1.438,5.6,5.6,0,0,1-1.641-2.348,6.238,6.238,0,0,1-.394-1.88,1.554,1.554,0,0,1,.053-.7,10.9,10.9,0,0,0,.624,2.467,5.534,5.534,0,0,0,1.611,2.156,6.82,6.82,0,0,0,3.023,1.319,6.679,6.679,0,0,0,3.3-.132,6.306,6.306,0,0,0,2.34-1.356A12.218,12.218,0,0,0,451.019,180.609Z" transform="translate(-438.442 -178.121)" fill="#fff"/>
              </g>
            </g>
          </g>
        </g>
      </g>
    </g>
    <g id="Desk" transform="translate(125.61 19094.373)">
      <g id="Group_53" data-name="Group 53" transform="translate(0 0)">
        <g id="Group_52" data-name="Group 52">
          <path id="Path_21" data-name="Path 21" d="M282.927,454.058c0,.084-59.775.152-133.494.152-73.744,0-133.506-.068-133.506-.152s59.762-.152,133.506-.152C223.152,453.906,282.927,453.974,282.927,454.058Z" transform="translate(-15.927 -453.906)" fill="#263238"/>
        </g>
      </g>
    </g>
    <g id="Screen" transform="translate(135.267 18914.682)">
      <g id="Group_72" data-name="Group 72" transform="translate(0 0)">
        <g id="Group_57" data-name="Group 57">
          <g id="Group_54" data-name="Group 54" transform="translate(0.152 0.152)">
            <rect id="Rectangle_2" data-name="Rectangle 2" width="142.114" height="110.669" fill="#fafafa"/>
          </g>
          <g id="Group_56" data-name="Group 56">
            <g id="Group_55" data-name="Group 55">
              <path id="Path_22" data-name="Path 22" d="M174.763,256.978c0-1.045-.05-44.137-.126-111.251l.126.125-142.1.026h-.012l.152-.152c-.005,40.118-.01,78.055-.015,111.251l-.136-.136,142.114.136-142.114.136h-.136v-.136c0-33.2-.01-71.134-.015-111.251v-.152h.164l142.1.026h.126v.126C174.813,212.842,174.764,255.935,174.763,256.978Z" transform="translate(-32.497 -145.575)" fill="#263238"/>
            </g>
          </g>
        </g>
        <g id="Group_65" data-name="Group 65" transform="translate(58.894 28.595)">
          <g id="Group_63" data-name="Group 63">
            <path id="Subtraction_4" data-name="Subtraction 4" d="M-5071.317,12990.9a13.6,13.6,0,0,1-13.589-13.589,13.6,13.6,0,0,1,13.589-13.589,13.6,13.6,0,0,1,13.589,13.589A13.6,13.6,0,0,1-5071.317,12990.9Zm.183-11.942h0l3.69,3.491a.85.85,0,0,0,.424.117.822.822,0,0,0,.538-.208.954.954,0,0,0,0-1.262l-3.453-3.277,3.45-3.263a.826.826,0,0,0,.258-.581.822.822,0,0,0-.229-.593.817.817,0,0,0-.6-.26.824.824,0,0,0-.573.23l-3.5,3.325-3.5-3.325a.817.817,0,0,0-.57-.229.824.824,0,0,0-.6.261.833.833,0,0,0,.03,1.174l3.446,3.26-3.449,3.273a.965.965,0,0,0,0,1.266.82.82,0,0,0,.535.207.873.873,0,0,0,.428-.119l3.69-3.488Z" transform="translate(5084.905 -12963.723)" fill="#e8505b" stroke="rgba(0,0,0,0)" stroke-width="1"/>
          </g>
        </g>
        <g id="Group_67" data-name="Group 67" transform="translate(0.508 10.868)">
          <g id="Group_66" data-name="Group 66">
            <path id="Path_68" data-name="Path 68" d="M175.126,164.376c0,.083-31.736.152-70.875.152s-70.882-.068-70.882-.152,31.729-.152,70.882-.152S175.126,164.292,175.126,164.376Z" transform="translate(-33.369 -164.224)" fill="#263238"/>
          </g>
        </g>
        <g id="Group_71" data-name="Group 71" transform="translate(4.356 4.608)">
          <g id="Group_68" data-name="Group 68" transform="translate(0 0)">
            <ellipse id="Ellipse_1" data-name="Ellipse 1" cx="0.825" cy="0.825" rx="0.825" ry="0.825" fill="#263238"/>
          </g>
          <g id="Group_69" data-name="Group 69" transform="translate(3.077 0)">
            <ellipse id="Ellipse_2" data-name="Ellipse 2" cx="0.825" cy="0.825" rx="0.825" ry="0.825" fill="#263238"/>
          </g>
          <g id="Group_70" data-name="Group 70" transform="translate(6.108)">
            <path id="Path_69" data-name="Path 69" d="M52.1,154.307a.825.825,0,1,1-.825-.825A.825.825,0,0,1,52.1,154.307Z" transform="translate(-50.452 -153.482)" fill="#263238"/>
          </g>
        </g>
        <path id="Path_35025" data-name="Path 35025" d="M2.436-1.584V-3.468h3.18v-1.56H2.436V-6.816h3.48V-8.4H.78V0h5.2V-1.584Zm6.18-3.384V-6H7.068V0H8.616V-2.868A1.5,1.5,0,0,1,10.44-4.392V-6.12A1.847,1.847,0,0,0,8.616-4.968Zm4.272,0V-6H11.34V0h1.548V-2.868a1.5,1.5,0,0,1,1.824-1.524V-6.12A1.847,1.847,0,0,0,12.888-4.968ZM18.24.168A3.145,3.145,0,0,0,21.42-3a3.145,3.145,0,0,0-3.18-3.168A3.135,3.135,0,0,0,15.072-3,3.135,3.135,0,0,0,18.24.168Zm0-1.512A1.593,1.593,0,0,1,16.62-3a1.593,1.593,0,0,1,1.62-1.656A1.6,1.6,0,0,1,19.872-3,1.6,1.6,0,0,1,18.24-1.344Zm5.82-3.624V-6H22.512V0H24.06V-2.868a1.5,1.5,0,0,1,1.824-1.524V-6.12A1.847,1.847,0,0,0,24.06-4.968ZM27.072-2.82H28.3L28.608-6V-8.4h-1.86V-6ZM27.684.156A1.019,1.019,0,0,0,28.7-.864a1.019,1.019,0,0,0-1.02-1.02,1.019,1.019,0,0,0-1.02,1.02A1.019,1.019,0,0,0,27.684.156Zm2.6-2.976h1.224L31.824-6V-8.4h-1.86V-6ZM30.9.156a1.019,1.019,0,0,0,1.02-1.02,1.019,1.019,0,0,0-1.02-1.02,1.019,1.019,0,0,0-1.02,1.02A1.019,1.019,0,0,0,30.9.156Z" transform="translate(55.981 74.787)"/>
      </g>
    </g>
    <g id="Plant" transform="translate(142.938 19045.096)">
      <g id="Group_282" data-name="Group 282" transform="translate(0 0)">
        <g id="Group_266" data-name="Group 266" transform="translate(18.315)">
          <g id="Group_265" data-name="Group 265">
            <path id="Path_133" data-name="Path 133" d="M78.752,389.712c1.473,1.846,4.061,1.041,5.2-.214a9.844,9.844,0,0,0,1.918-4.654c.837-3.789,1.671-7.762.636-11.5a6.357,6.357,0,0,0-1.653-3.012,3.319,3.319,0,0,0-3.206-.847c-1.3.433-2.044,1.783-2.562,3.054a27.263,27.263,0,0,0-1.954,11.848,9.454,9.454,0,0,0,1.617,5.327" transform="translate(-77.088 -369.349)" fill="#4032af"/>
          </g>
        </g>
        <g id="Group_270" data-name="Group 270" transform="translate(23.293 28.402)">
          <g id="Group_269" data-name="Group 269">
            <path id="Path_135" data-name="Path 135" d="M88,419.5a11.737,11.737,0,0,1,7.213-1.34,6.049,6.049,0,0,1,3.692,1.377,2.589,2.589,0,0,1,.263,3.582,3.451,3.451,0,0,1-2.228.717c-1.923.1-4.077-.105-5.539,1.147-.834.715-1.348,1.848-2.375,2.238a2.481,2.481,0,0,1-2.8-1.041,4.238,4.238,0,0,1-.5-3.1A4.779,4.779,0,0,1,88,419.5Z" transform="translate(-85.63 -418.083)" fill="#5a4bda"/>
          </g>
        </g>
        <g id="Group_272" data-name="Group 272" transform="translate(0 7.516)">
          <g id="Group_271" data-name="Group 271">
            <path id="Path_136" data-name="Path 136" d="M62.1,398.1a7.038,7.038,0,0,0,.687-6.534,12.484,12.484,0,0,0-4.179-5.314,20.655,20.655,0,0,0-7.112-3.614,7.331,7.331,0,0,0-3.117-.33,3.243,3.243,0,0,0-2.49,1.729c-.635,1.422.162,3.048,1,4.363a52.328,52.328,0,0,0,4.936,6.576,12.215,12.215,0,0,0,5.221,3.931c2.107.657,4.239.43,5.239-1.065" transform="translate(-45.661 -382.246)" fill="#5a4bda"/>
          </g>
        </g>
        <g id="Group_275" data-name="Group 275" transform="translate(21.61 31.116)">
          <g id="Group_274" data-name="Group 274">
            <g id="Group_273" data-name="Group 273">
              <path id="Path_137" data-name="Path 137" d="M82.852,441.121a4.256,4.256,0,0,0,.067-.885c.022-.642.05-1.449.082-2.409a34.784,34.784,0,0,1,.318-3.547,27.143,27.143,0,0,1,1.016-4.225,15.319,15.319,0,0,1,1.881-3.884,7.922,7.922,0,0,1,2.536-2.393,7.5,7.5,0,0,1,2.209-.844,4.215,4.215,0,0,0,.866-.181,4.126,4.126,0,0,0-.89.042,6.851,6.851,0,0,0-2.312.759,7.909,7.909,0,0,0-2.681,2.422,14.957,14.957,0,0,0-1.953,3.965,25.388,25.388,0,0,0-1,4.293,29.824,29.824,0,0,0-.243,3.586c-.012,1.022.011,1.847.033,2.417A4.073,4.073,0,0,0,82.852,441.121Z" transform="translate(-82.741 -422.741)" fill="#263238"/>
            </g>
          </g>
        </g>
        <g id="Group_278" data-name="Group 278" transform="translate(21.049 7.781)">
          <g id="Group_277" data-name="Group 277">
            <g id="Group_276" data-name="Group 276">
              <path id="Path_138" data-name="Path 138" d="M82.5,422.562a1.731,1.731,0,0,0,0-.409c-.02-.305-.045-.691-.076-1.164-.066-1.01-.158-2.472-.218-4.281-.138-3.617-.14-8.621.115-14.137s.751-10.5,1.259-14.082c.117-.9.241-1.706.361-2.415s.207-1.322.305-1.818c.082-.467.148-.847.2-1.149a1.742,1.742,0,0,0,.046-.406,1.687,1.687,0,0,0-.118.391l-.268,1.136c-.119.494-.235,1.1-.367,1.811s-.281,1.515-.414,2.413a132.361,132.361,0,0,0-1.368,14.1c-.256,5.528-.213,10.544-.009,14.166.092,1.811.223,3.274.333,4.282l.145,1.159A1.738,1.738,0,0,0,82.5,422.562Z" transform="translate(-81.779 -382.7)" fill="#263238"/>
            </g>
          </g>
        </g>
        <g id="Group_281" data-name="Group 281" transform="translate(6.591 11.821)">
          <g id="Group_280" data-name="Group 280">
            <g id="Group_279" data-name="Group 279">
              <path id="Path_139" data-name="Path 139" d="M71.566,415.811a7.742,7.742,0,0,0-.085-1.216c-.094-.779-.272-1.9-.579-3.272a43.547,43.547,0,0,0-1.374-4.733,42.621,42.621,0,0,0-2.364-5.554,30.314,30.314,0,0,0-6.474-8.808,15.033,15.033,0,0,0-1.467-1.2c-.224-.167-.424-.334-.624-.464l-.562-.337a7.791,7.791,0,0,0-1.065-.591,36.473,36.473,0,0,1,3.544,2.783,31.961,31.961,0,0,1,6.324,8.785,45.556,45.556,0,0,1,2.373,5.5,48.908,48.908,0,0,1,1.439,4.682c.337,1.354.553,2.463.69,3.232A7.893,7.893,0,0,0,71.566,415.811Z" transform="translate(-56.97 -389.632)" fill="#263238"/>
            </g>
          </g>
        </g>
      </g>
    </g>
    <g id="Confetti" transform="translate(132.384 18867.459)">
      <g id="Group_284" data-name="Group 284" transform="translate(114.633 78.849)">
        <g id="Group_283" data-name="Group 283">
          <path id="Path_140" data-name="Path 140" d="M230.275,203.29c-1.075-3.808-6.024-3.438-6.024-3.438l.136,2.648c2.861-.493,4.639,2.86,4.639,2.86Z" transform="translate(-224.251 -199.842)" fill="#e8505b"/>
        </g>
      </g>
      <g id="Group_286" data-name="Group 286" transform="translate(68.974 37.997)">
        <g id="Group_285" data-name="Group 285">
          <path id="Path_141" data-name="Path 141" d="M148.895,129.745c-2.671.283-2.991,3.638-2.991,3.638l1.788.212c0-1.971,2.444-2.777,2.444-2.777Z" transform="translate(-145.904 -129.745)" fill="#e8505b"/>
        </g>
      </g>
      <g id="Group_288" data-name="Group 288" transform="translate(96.84 0)">
        <g id="Group_287" data-name="Group 287">
          <path id="Path_142" data-name="Path 142" d="M193.72,67.007c1.629,4.152,7.14,3.187,7.14,3.187l-.447-2.956c-3.155.872-5.522-2.691-5.522-2.691Z" transform="translate(-193.72 -64.546)" fill="#e8505b"/>
        </g>
      </g>
      <g id="Group_290" data-name="Group 290" transform="translate(31.704 72.606)">
        <g id="Group_289" data-name="Group 289">
          <path id="Path_143" data-name="Path 143" d="M84.944,189.131c-2.671.284-2.991,3.638-2.991,3.638l1.788.212c0-1.971,2.445-2.777,2.445-2.777Z" transform="translate(-81.953 -189.131)" fill="#e8505b"/>
        </g>
      </g>
      <g id="Group_292" data-name="Group 292" transform="translate(42.271 11.929)">
        <g id="Group_291" data-name="Group 291">
          <path id="Path_144" data-name="Path 144" d="M103.516,88.815c.388-2.659-2.782-3.8-2.782-3.8l-.649,1.679c1.91.487,2.083,3.057,2.083,3.057Z" transform="translate(-100.085 -85.015)" fill="#e8505b"/>
        </g>
      </g>
      <g id="Group_294" data-name="Group 294" transform="translate(0 54.778)">
        <g id="Group_293" data-name="Group 293">
          <path id="Path_145" data-name="Path 145" d="M27.581,160.291c-.48,4.169,5.042,5.177,5.042,5.177l1-2.727c-3.313-.3-3.791-4.2-3.791-4.2Z" transform="translate(-27.551 -158.54)" fill="#e8505b"/>
        </g>
      </g>
      <g id="Group_296" data-name="Group 296" transform="translate(130.208 32.811)">
        <g id="Group_295" data-name="Group 295">
          <path id="Path_146" data-name="Path 146" d="M252.026,124.452c2.683.153,3.54-3.105,3.54-3.105l-1.73-.5c-.316,1.946-2.862,2.345-2.862,2.345Z" transform="translate(-250.975 -120.847)" fill="#e8505b"/>
        </g>
      </g>
    </g>
    <g id="Mask_Group_236" data-name="Mask Group 236" transform="translate(196.003 18909.455)" clip-path="url(#clip-path)">
      <g id="Group_5980" data-name="Group 5980" transform="translate(24.433 -0.258)">
        <g id="Group_47-2" data-name="Group 47" transform="translate(101.039 82.712)">
          <path id="Path_49" data-name="Path 49" d="M421.159,246.055s2.352,7.842,4.7,14.506-.783,10.979-5.1,16.86-17.252,23.916-17.252,23.916l-5.488-9.018s5.488-10.978,7.449-15.291,5.881-12.154,5.1-12.154-7.841-11.371-7.841-11.371Z" transform="translate(-398.027 -246.055)" fill="#fb7c5c"/>
          <path id="Path_50" data-name="Path 50" d="M417.63,261.923c-2.352-4.313-6.149-12.374-6.149-12.374l-.212-.1-8.537,3.451s7.057,11.371,7.841,11.371-3.136,7.842-5.1,12.154-7.449,15.291-7.449,15.291,7.841-8.234,11.762-14.115S419.982,266.236,417.63,261.923Z" transform="translate(-398.027 -245.456)" fill="#fba181"/>
        </g>
        <g id="Group_48-2" data-name="Group 48" transform="translate(101.947 54.728)">
          <path id="Path_51" data-name="Path 51" d="M412.595,222.263s4.507,2.892,7.251,11.909,5.489,16.86,5.881,19.212c0,2.352-18.035,9.8-24.308,7.057S400.637,223.291,412.595,222.263Z" transform="translate(-398.8 -222.263)" fill="#ffd64b"/>
          <path id="Path_52" data-name="Path 52" d="M419.063,246.287c-1.462-3.216-2.27-9.921-2.587-13.123-.108-1.092-.159-1.776-.159-1.776l-10.193,1.569c-.955.318-3.2,2.255-5.534,4.438-2.516,9.58-2.505,19.98.829,21.439,4.646,2.033,15.739-1.527,21.184-4.465C421.594,251.548,420.148,248.677,419.063,246.287Z" transform="translate(-398.8 -220.655)" fill="#ffb46d"/>
        </g>
        <g id="Group_61" data-name="Group 61" transform="translate(0 10.493)">
          <g id="Group_53-2" data-name="Group 53" transform="translate(73.626 138.991)">
            <g id="Group_51" data-name="Group 51" transform="translate(10.185 128.227)">
              <g id="Group_49-2" data-name="Group 49" transform="translate(16.529)">
                <path id="Path_53" data-name="Path 53" d="M399.407,415.983s1.727,5.526,1.036,8.289-4.834,4.49-2.071,5.525,10.7-.69,13.814-3.108c2.417-2.417-1.382-3.8-2.073-5.526s-1.381-9.324-1.381-9.324Z" transform="translate(-397.432 -411.839)" fill="#fb7c5c"/>
              </g>
              <path id="Path_54" data-name="Path 54" d="M400.578,420.575c1.947-1.146,4.51-2.09,4.66.774a9.581,9.581,0,0,1-2.8,7.3,9.742,9.742,0,0,1-4.063-.194c-2.763-1.035,1.381-2.763,2.071-5.525A7.989,7.989,0,0,0,400.578,420.575Z" transform="translate(-380.904 -410.496)" fill="#fba181"/>
              <g id="Group_50-2" data-name="Group 50" transform="translate(0 12.001)">
                <path id="Path_55" data-name="Path 55" d="M383.872,435.716s-.734.919.367,2.387,18.17,1.651,22.208.734,11.747-3.671,12.848-5.873c.184-2.387-2.02-4.772-2.02-4.772Z" transform="translate(-383.336 -420.958)" fill="#e1eafb"/>
                <path id="Path_56" data-name="Path 56" d="M418.029,431.712c-.943,2.2-7.036,4.97-11.509,6.23H384.027c-.735-.881-1.04-1.887.158-2.087,2.072,0,9.324-3.109,11.4-4.49s2.073-4.834,4.835-5.87c10.7,2.071,14.5-3.453,14.5-3.453,1.727,2.762,1.382,4.144,1.382,4.144S419.064,429.293,418.029,431.712Z" transform="translate(-383.38 -422.042)" fill="#025da6"/>
                <path id="Path_57" data-name="Path 57" d="M403.817,436.715h-5.1a11.219,11.219,0,0,0,2.021-1.655c4.4-4.921,10.36-6.475,13.728-5.958a.82.82,0,0,1,.863,1.381C414.383,432.685,408.289,435.454,403.817,436.715Z" transform="translate(-380.678 -420.814)" fill="#023c5d"/>
              </g>
            </g>
            <g id="Group_52-2" data-name="Group 52">
              <path id="Path_58" data-name="Path 58" d="M407.513,306.218s-.489,17.129-2.937,26.428a104.351,104.351,0,0,0-2.937,33.281c.98,11.257,4.9,20.066,5.385,28.387s7.708,37.686,7.218,40.623c-.489,2.447-7.831,3.425-12.235,1.957-2.448-1.957-16.519-47.475-21.413-57.752s-2.936-19.088-3.426-24.961-2.446-48.453-2.446-48.453S396.745,298.876,407.513,306.218Z" transform="translate(-374.721 -302.823)" fill="#721930"/>
              <path id="Path_59" data-name="Path 59" d="M384.02,350.6c1.468,14.683,8.076,13.215,6.607,23.493s-1.468,12.48,3.671,23.493c4.51,9.664,12.774,29.12,12.16,39.592a15.4,15.4,0,0,1-4.451-.682c-2.448-1.957-16.519-47.475-21.413-57.752s-2.936-19.088-3.426-24.961-2.446-48.454-2.446-48.454.258-.079.708-.206l10.793,6.569S382.552,335.913,384.02,350.6Z" transform="translate(-374.721 -302.418)" fill="#c05275"/>
            </g>
          </g>
          <g id="Group_58" data-name="Group 58" transform="translate(0 132.107)">
            <g id="Group_56-2" data-name="Group 56" transform="translate(0 137.718)">
              <path id="Path_60" data-name="Path 60" d="M326.609,427.713a18.293,18.293,0,0,0,4.118-4.249c1.176-2.058,2.058-9.41,2.941-9.41s10,3.529,10,3.529l-3.235,5,1.176,5s-4.117,3.235-7.057,3.235S326.609,427.713,326.609,427.713Z" transform="translate(-309.574 -414.055)" fill="#fb7c5c"/>
              <path id="Path_61" data-name="Path 61" d="M338.356,415.584a35.927,35.927,0,0,0-4.688-1.529c-.882,0-1.764,7.351-2.941,9.41a18.293,18.293,0,0,1-4.118,4.249,27.194,27.194,0,0,0,6.479,2.9,4.907,4.907,0,0,0,.874-1.27c1.373-3.137-.392-6.861.588-8.822A29.905,29.905,0,0,1,338.356,415.584Z" transform="translate(-309.574 -414.055)" fill="#fba181"/>
              <g id="Group_55-2" data-name="Group 55" transform="translate(0 10.205)">
                <g id="Group_54-2" data-name="Group 54">
                  <path id="Path_62" data-name="Path 62" d="M312.618,436.406s-.734.917.367,2.387,18.17,1.651,22.208.734,11.746-3.671,12.847-5.874c.184-2.385-2.018-4.772-2.018-4.772Z" transform="translate(-312.081 -421.647)" fill="#e1eafb"/>
                  <path id="Path_63" data-name="Path 63" d="M346.774,432.4c-.943,2.2-7.036,4.971-11.508,6.232H312.772c-.734-.881-1.039-1.888.159-2.087,2.071,0,9.324-3.109,11.4-4.49s2.071-4.835,4.834-5.872c10.706,2.072,14.505-3.453,14.505-3.453,1.727,2.763,1.381,4.144,1.381,4.144S347.81,429.984,346.774,432.4Z" transform="translate(-312.126 -422.731)" fill="#025da6"/>
                  <path id="Path_64" data-name="Path 64" d="M332.562,437.4h-5.1a11.208,11.208,0,0,0,2.02-1.655c4.4-4.921,10.361-6.476,13.728-5.957a.819.819,0,0,1,.863,1.381C343.128,433.375,337.035,436.144,332.562,437.4Z" transform="translate(-309.424 -421.503)" fill="#023c5d"/>
                </g>
              </g>
            </g>
            <g id="Group_57-2" data-name="Group 57" transform="translate(22.214)">
              <path id="Path_65" data-name="Path 65" d="M359.42,296.97s-6.239,22.448-10.355,37.739-4.7,34.11-8.822,47.049-7.351,44.108-8.528,48.225-1.176,7.057,2.352,7.645,4.7,2.941,8.822.588,10.88-23.524,16.173-41.756,7.645-23.524,11.762-34.7,10.586-18.231,16.467-28.229,10.586-25.289,10.586-25.289Z" transform="translate(-331.012 -296.97)" fill="#721930"/>
              <path id="Path_66" data-name="Path 66" d="M359.42,296.97s-6.239,22.448-10.355,37.739-4.7,34.11-8.822,47.049-7.351,44.108-8.528,48.225-1.176,7.057,2.352,7.645a9.185,9.185,0,0,1,1.025.236c2.083-7.1,1.14-9.143,3.974-16.7,3.529-9.41,5.293-22.348,5.881-31.758s6.469-15.291,9.41-25.877,1.176-14.115.588-27.641c-.5-11.4,9.453-30.738,12.591-36.535Z" transform="translate(-331.012 -296.97)" fill="#c05275"/>
            </g>
          </g>
          <path id="Path_67" data-name="Path 67" d="M377.943,197.529s-3.129,5.14-2.682,7.375,4.023,1.564,4.023,1.564Z" transform="translate(-301.008 -182.386)" fill="#fba181"/>
          <g id="Group_60" data-name="Group 60" transform="translate(75.669)">
            <g id="Group_59" data-name="Group 59">
              <path id="Path_68-2" data-name="Path 68" d="M379.663,184.655s-2.757,4.011-2.757,7.77-1.5,22.307,1,24.563,12.533-.251,12.533-.251,4.763-1.253,6.768-8.271-4.011-19.3-4.011-19.3Z" transform="translate(-376.458 -184.655)" fill="#fb7c5c"/>
              <path id="Path_69-2" data-name="Path 69" d="M384.611,211.712a17.812,17.812,0,0,1-2.263,11.547s11.093-.906,17.432-.227c0,0-1.357-10.64-1.132-13.81S388.687,208.317,384.611,211.712Z" transform="translate(-375.42 -180.593)" fill="#fb7c5c"/>
            </g>
            <path id="Path_70" data-name="Path 70" d="M385.438,200.981s.291-4.648,2.469-3.486,1.6,8.424-.87,9.005S385.148,202,385.438,200.981Z" transform="translate(-374.924 -182.425)" fill="#fba181"/>
          </g>
          <path id="Path_71" data-name="Path 71" d="M402.963,215.557c-5.219-.618-15.294-1.35-20.881,1.256l-4.145,3.626,29.4,1.281-.446-2.456A4.54,4.54,0,0,0,402.963,215.557Z" transform="translate(-300.529 -179.313)" fill="#2d2286"/>
          <path id="Path_72" data-name="Path 72" d="M362.271,245.677c0-7.77,2.071-17.613,7.77-22.275s19.219-4.663,19.219-4.663L412,219.775l8.289,3.109a13.518,13.518,0,0,1,4.663,12.433s-.774,4.229-5.913,19.645,0,35.238-2.2,39.643-3.671,4.4-2.2,11.012S413.166,324.7,409.5,329.11s-24.227,9.544-37.44.735-16.152-14.684-16.886-19.089,10.228-30.2,10.228-40.48S362.271,245.677,362.271,245.677Z" transform="translate(-304.547 -178.649)" fill="#5a4bda"/>
          <path id="Path_73" data-name="Path 73" d="M404.576,331.362c-7.82,3.056-22.345,4.546-32.521-2.238-13.215-8.81-16.152-14.684-16.886-19.089s10.228-30.2,10.228-40.48-3.126-24.6-3.126-24.6c0-6.209,1.329-13.734,4.767-18.888,4.488-.088,9.437.639,16.028-1.193,13.215-3.671,28.632-2.937,33.77,6.607s-2.937,25.7-6.607,40.378,0,16.151.734,38.174C411.3,320.07,408.127,326.9,404.576,331.362Z" transform="translate(-304.547 -177.928)" fill="#3f2fcb"/>
          <path id="Path_74" data-name="Path 74" d="M378.229,186.866a5.935,5.935,0,0,1,2.548,1.767c1.1,1.468-.734,7.158-2.2,9.727s-1.836,3.488-.917,7.342,3.853,7.891,2.752,9.36a11.879,11.879,0,0,1-2.052,1.835,2.441,2.441,0,0,1-.449-.3c-2.507-2.256-1-20.8-1-24.563A12.923,12.923,0,0,1,378.229,186.866Z" transform="translate(-300.789 -184.265)" fill="#fba181"/>
        </g>
        <path id="Path_75" data-name="Path 75" d="M378.27,182.875s-4.117,4.117,3.823,11.174c7.217,7.248-.588,18.231,5.587,28.817s8.528,8.234,7.939,23.524.294,24.113,11.174,29.406,25.289-.588,27.641-15-9.116-23.818-11.174-36.463,3.235-19.408-2.941-27.053-8.528-5.881-11.174-13.527-14.115-9.116-21.466-7.351S378.564,181.11,378.27,182.875Z" transform="translate(-300.658 -175.734)" fill="#022347"/>
        <g id="Group_64" data-name="Group 64" transform="translate(29.759 13.019)">
          <g id="Group_63-2" data-name="Group 63">
            <path id="Path_76" data-name="Path 76" d="M370.388,244.221a140.736,140.736,0,0,1-17.221-14.035c-7.387-7.347-14.2-15.959-15.64-22.418s12.918-11.125,19.02-11.842,25.837-1.436,29.784-2.154,8.971-4.306,8.971-4.306,6.369-3.139,8.254-2.6-4.845,3.23-5.384,4.306c0,0,7-2.691,9.42-1.614,1.346,1.346-7.267,3.229-8.343,4.306,0,0,8.074-2.423,9.15-1.077.808,1.346-8.612,3.769-8.612,3.769s8.075-1.346,8.343-.269-7,2.691-7.535,3.5a10.174,10.174,0,0,1-2.154,1.884l3.23,1.346s3.23.269,3.767,1.076c.539,1.077-1.346,2.154-3.5,1.347s-5.921-.539-7.805-1.347a33.429,33.429,0,0,1-4.306-2.422S371.8,206.513,368.3,207.32s-12.38,1.884-12.38,1.884,7.267,6.459,11.842,9.15,13.725,8.612,14.8,12.112S383.781,248.019,370.388,244.221Z" transform="translate(-337.427 -186.803)" fill="#fb7c5c"/>
            <g id="Group_62" data-name="Group 62" transform="translate(14.455 28.859)">
              <path id="Path_77" data-name="Path 77" d="M368.376,242.2s-9.33-6.1-13.277-9.331a23.808,23.808,0,0,1-5.382-5.741s8.254-13.636,13.995-15.79a40.385,40.385,0,0,1,11.842,7.177c5.024,4.665,7.894,4.665,7.894,11.483S380.218,247.583,368.376,242.2Z" transform="translate(-349.716 -211.339)" fill="#4436bf"/>
              <path id="Path_78" data-name="Path 78" d="M381.8,230c0-6.819-2.87-6.819-7.894-11.483a40.386,40.386,0,0,0-11.842-7.177,10.961,10.961,0,0,0-3.037,1.928c4.837,2.669,15.507,9.1,17.929,12.955a53.481,53.481,0,0,1,4.354,8.461A22.892,22.892,0,0,0,381.8,230Z" transform="translate(-348.074 -211.339)" fill="#5a4bda"/>
            </g>
          </g>
          <path id="Path_79" data-name="Path 79" d="M402.093,186.891a35.828,35.828,0,0,0-6.791,2.561s-5.024,3.589-8.971,4.306-23.684,1.436-29.784,2.154-20.454,5.382-19.02,11.842c1.222,5.5,6.343,12.548,12.393,19.055.637-1.533.893-3.757-.192-6.855-2.511-7.176-6.817-9.33-6.1-14.353s5.024-5.024,16.147-6.1,22.967-3.23,28.349-3.589,7.895-4.665,11.125-6.819A33.08,33.08,0,0,0,402.093,186.891Z" transform="translate(-337.427 -186.788)" fill="#fba181"/>
        </g>
        <path id="Path_80" data-name="Path 80" d="M390.132,175.767c4.077.274,11.272,1.595,13.207,7.4,2.744,8.234-1.961,10.978,5.49,16.467s8.625,4.313,7.057,15.683-1.176,13.723,3.529,21.172,7.449,23.133,1.176,33.719a39.18,39.18,0,0,1-5.971,7.418c8.2-.736,15.874-6.651,17.536-16.828,2.353-14.409-9.116-23.818-11.174-36.463s3.235-19.408-2.941-27.053-8.528-5.881-11.174-13.527C404.742,177.617,396.933,175.466,390.132,175.767Z" transform="translate(-298.38 -175.734)" fill="#023c6f"/>
      </g>
    </g>
  </g>
</svg>
