<svg xmlns="http://www.w3.org/2000/svg" width="267.451" height="234.887" viewBox="0 0 267.451 234.887">
  <g id="Group_18674" data-name="Group 18674" transform="translate(316.39 -18855)">
    <g id="Background_Complete" data-name="Background Complete" transform="translate(-314.744 18855)">
      <g id="Group_23" data-name="Group 23" transform="translate(178.951 0)">
        <g id="Group_2" data-name="Group 2" transform="translate(0)">
          <g id="Group_1" data-name="Group 1">
            <rect id="Rectangle_1" data-name="Rectangle 1" width="60.152" height="57.05" rx="6.79" transform="translate(0 13.007) rotate(-12.488)" fill="#ebebeb"/>
          </g>
        </g>
        <g id="Group_22" data-name="Group 22" transform="translate(15.237 16.347)">
          <g id="Group_21" data-name="Group 21">
            <g id="Group_17" data-name="Group 17">
              <g id="Group_5" data-name="Group 5" transform="translate(0 9.866)">
                <g id="Group_4" data-name="Group 4">
                  <g id="Group_3" data-name="Group 3">
                    <path id="Path_1" data-name="Path 1" d="M390.9,103.422a2.4,2.4,0,0,1-.389.114l-1.131.278-4.2.983L371.065,108l-.115.026-.042-.111-.852-2.267-6.121-16.442.1.054-3.77.8-1.006.2a2,2,0,0,1-.35.054,1.98,1.98,0,0,1,.34-.1l1-.246L364,89.1l.073-.017.027.071,6.215,16.408.85,2.267-.157-.085,14.134-3.122,4.217-.9,1.142-.231A2.372,2.372,0,0,1,390.9,103.422Z" transform="translate(-358.909 -89.079)" fill="#fafafa"/>
                  </g>
                </g>
              </g>
              <g id="Group_8" data-name="Group 8" transform="translate(6.249 7.408)">
                <g id="Group_7" data-name="Group 7">
                  <g id="Group_6" data-name="Group 6">
                    <path id="Path_2" data-name="Path 2" d="M374.234,102.039a.365.365,0,0,1,.1-.033l.291-.077,1.131-.276,4.243-.99,14.648-3.331-.1.134c-.119-2.565-.247-5.338-.379-8.208-.067-1.476-.132-2.927-.195-4.31l.164.126L376.846,88.9l-5.124,1.106-1.383.286-.36.068a.5.5,0,0,1-.124.015.46.46,0,0,1,.119-.04l.354-.092,1.373-.332,5.106-1.186,17.267-3.915.158-.036.007.162c.063,1.383.13,2.834.2,4.31.128,2.87.253,5.644.368,8.208l.005.11-.107.024-14.669,3.236-4.259.915-1.141.234-.3.055A.322.322,0,0,1,374.234,102.039Z" transform="translate(-369.854 -84.774)" fill="#fafafa"/>
                  </g>
                </g>
              </g>
              <g id="Group_11" data-name="Group 11" transform="translate(14.141 31.237)">
                <g id="Group_10" data-name="Group 10">
                  <g id="Group_9" data-name="Group 9">
                    <path id="Path_3" data-name="Path 3" d="M387.835,128.209c-.025.006-.065-.171-.218-.447a2.032,2.032,0,0,0-.96-.868,1.918,1.918,0,1,0,.674,3.008,2.03,2.03,0,0,0,.5-1.2c.021-.315-.018-.493.007-.5a1.03,1.03,0,0,1,.1.5,2.028,2.028,0,0,1-.457,1.317,2.125,2.125,0,0,1-1.9.77,2.153,2.153,0,0,1-.888-3.962,2.123,2.123,0,0,1,2.051-.116,2.026,2.026,0,0,1,.975,1A1.035,1.035,0,0,1,387.835,128.209Z" transform="translate(-383.676 -126.508)" fill="#fafafa"/>
                  </g>
                </g>
              </g>
              <g id="Group_14" data-name="Group 14" transform="translate(26.924 28.373)">
                <g id="Group_13" data-name="Group 13">
                  <g id="Group_12" data-name="Group 12">
                    <path id="Path_4" data-name="Path 4" d="M410.224,123.193c-.025.006-.065-.171-.219-.447a2.03,2.03,0,0,0-.96-.868,1.918,1.918,0,1,0,.674,3.008,2.036,2.036,0,0,0,.5-1.2c.021-.315-.018-.493.007-.5a1.034,1.034,0,0,1,.1.5,2.024,2.024,0,0,1-.456,1.316,2.124,2.124,0,0,1-1.9.771,2.153,2.153,0,0,1-.888-3.963,2.123,2.123,0,0,1,2.051-.115,2.026,2.026,0,0,1,.975,1A1.033,1.033,0,0,1,410.224,123.193Z" transform="translate(-406.064 -121.492)" fill="#fafafa"/>
                  </g>
                </g>
              </g>
              <g id="Group_16" data-name="Group 16" transform="translate(23.152)">
                <g id="Group_15" data-name="Group 15">
                  <path id="Path_5" data-name="Path 5" d="M410.935,76.34a5.809,5.809,0,1,1-6.938-4.4A5.809,5.809,0,0,1,410.935,76.34Z" transform="translate(-399.457 -71.799)" fill="#fafafa"/>
                </g>
              </g>
            </g>
            <g id="Group_20" data-name="Group 20" transform="translate(26.316 3.003)">
              <g id="Group_19" data-name="Group 19">
                <g id="Group_18" data-name="Group 18">
                  <path id="Path_6" data-name="Path 6" d="M410.248,77.06a5.269,5.269,0,0,1-.53,1.079c-.357.649-.867,1.535-1.445,2.5l-.622,1.032-.065.108-.109-.061A18.72,18.72,0,0,1,405,80.24a18.909,18.909,0,0,1,2.6,1.256l-.174.048.611-1.038c.578-.971,1.114-1.841,1.514-2.464A5.239,5.239,0,0,1,410.248,77.06Z" transform="translate(-404.999 -77.06)" fill="#e0e0e0"/>
                </g>
              </g>
            </g>
          </g>
        </g>
      </g>
      <g id="Group_42" data-name="Group 42" transform="translate(0 2.853)">
        <g id="Group_25" data-name="Group 25" transform="translate(24.631 80.105)">
          <g id="Group_24" data-name="Group 24">
            <path id="Path_7" data-name="Path 7" d="M67.85,191.839c-1.053-3.731-5.9-3.369-5.9-3.369l.134,2.594c2.8-.484,4.544,2.8,4.544,2.8Z" transform="translate(-61.948 -188.46)" fill="#e0e0e0"/>
          </g>
        </g>
        <g id="Group_27" data-name="Group 27" transform="translate(100.139 33.68)">
          <g id="Group_26" data-name="Group 26">
            <path id="Path_8" data-name="Path 8" d="M195.781,113.885c5.624,1.7,9.124-4.782,9.124-4.782l-3.422-1.95c-1.673,3.973-7.29,3.514-7.29,3.514Z" transform="translate(-194.193 -107.153)" fill="#e0e0e0"/>
          </g>
        </g>
        <g id="Group_29" data-name="Group 29" transform="translate(143.242 72.653)">
          <g id="Group_28" data-name="Group 28">
            <path id="Path_9" data-name="Path 9" d="M274.855,177.988c-1.088-3.1-5.172-2.539-5.172-2.539l.25,2.189c2.347-.557,3.994,2.131,3.994,2.131Z" transform="translate(-269.683 -175.409)" fill="#e0e0e0"/>
          </g>
        </g>
        <g id="Group_31" data-name="Group 31" transform="translate(78.734)">
          <g id="Group_30" data-name="Group 30">
            <path id="Path_10" data-name="Path 10" d="M161.876,50.745c-1.088-3.1-5.172-2.54-5.172-2.54l.25,2.189c2.346-.557,3.993,2.13,3.993,2.13Z" transform="translate(-156.704 -48.165)" fill="#e0e0e0"/>
          </g>
        </g>
        <g id="Group_33" data-name="Group 33" transform="translate(30.006 39.688)">
          <g id="Group_32" data-name="Group 32">
            <path id="Path_11" data-name="Path 11" d="M76.535,120.254c-1.088-3.1-5.172-2.54-5.172-2.54l.25,2.189c2.346-.557,3.994,2.131,3.994,2.131Z" transform="translate(-71.363 -117.674)" fill="#ebebeb"/>
          </g>
        </g>
        <g id="Group_35" data-name="Group 35" transform="translate(21.54 13.272)">
          <g id="Group_34" data-name="Group 34">
            <path id="Path_12" data-name="Path 12" d="M59.935,71.409c-3.244.532-3.4,4.652-3.4,4.652l2.2.135c-.14-2.407,2.793-3.562,2.793-3.562Z" transform="translate(-56.535 -71.409)" fill="#ebebeb"/>
          </g>
        </g>
        <g id="Group_37" data-name="Group 37" transform="translate(0 103.025)">
          <g id="Group_36" data-name="Group 36">
            <path id="Path_13" data-name="Path 13" d="M20.4,235.335c5.624,1.7,9.123-4.783,9.123-4.783L26.1,228.6c-1.672,3.973-7.29,3.514-7.29,3.514Z" transform="translate(-18.81 -228.603)" fill="#ebebeb"/>
          </g>
        </g>
        <g id="Group_39" data-name="Group 39" transform="translate(158.447 37.049)">
          <g id="Group_38" data-name="Group 38">
            <path id="Path_14" data-name="Path 14" d="M299.674,116.775c.38-2.6-2.726-3.723-2.726-3.723l-.636,1.646c1.871.476,2.041,2.995,2.041,2.995Z" transform="translate(-296.313 -113.052)" fill="#e0e0e0"/>
          </g>
        </g>
        <g id="Group_41" data-name="Group 41" transform="translate(141.809 12.167)">
          <g id="Group_40" data-name="Group 40">
            <path id="Path_15" data-name="Path 15" d="M268.475,69.475c-2.193,1.455-.952,4.515-.952,4.515l1.649-.625c-.895-1.711.867-3.52.867-3.52Z" transform="translate(-267.173 -69.475)" fill="#ebebeb"/>
          </g>
        </g>
      </g>
      <g id="Group_50" data-name="Group 50" transform="translate(230.66 73.311)">
        <g id="Group_45" data-name="Group 45">
          <g id="Group_44" data-name="Group 44">
            <g id="Group_43" data-name="Group 43">
              <path id="Path_16" data-name="Path 16" d="M430.379,171.565l-7.593,22.363,22.454,4.462,1.292-23.615Z" transform="translate(-422.786 -171.565)" fill="#f5f5f5"/>
            </g>
          </g>
        </g>
        <g id="Group_49" data-name="Group 49" transform="translate(8.939 3.743)">
          <g id="Group_48" data-name="Group 48">
            <g id="Group_47" data-name="Group 47">
              <g id="Group_46" data-name="Group 46">
                <path id="Path_17" data-name="Path 17" d="M450.764,180.558c.026.011-.042.25-.252.641a6.535,6.535,0,0,1-1.13,1.5,6.139,6.139,0,0,1-2.38,1.483,6.7,6.7,0,0,1-3.428.174,6.821,6.821,0,0,1-3.132-1.409,5.483,5.483,0,0,1-1.607-2.3,6.112,6.112,0,0,1-.386-1.842,1.523,1.523,0,0,1,.052-.687,10.685,10.685,0,0,0,.611,2.417,5.422,5.422,0,0,0,1.579,2.113,6.682,6.682,0,0,0,2.962,1.293,6.544,6.544,0,0,0,3.232-.129,6.179,6.179,0,0,0,2.293-1.329A11.977,11.977,0,0,0,450.764,180.558Z" transform="translate(-438.442 -178.121)" fill="#fff"/>
              </g>
            </g>
          </g>
        </g>
      </g>
    </g>
    <g id="Desk" transform="translate(-316.39 19089.521)">
      <g id="Group_53" data-name="Group 53" transform="translate(0 0)">
        <g id="Group_52" data-name="Group 52">
          <path id="Path_21" data-name="Path 21" d="M277.517,454.054c0,.082-58.564.149-130.789.149-72.25,0-130.8-.067-130.8-.149s58.551-.148,130.8-.148C218.953,453.906,277.517,453.973,277.517,454.054Z" transform="translate(-15.927 -453.906)" fill="#263238"/>
        </g>
      </g>
    </g>
    <g id="Screen" transform="translate(-306.929 18913.473)">
      <g id="Group_72" data-name="Group 72" transform="translate(0 0)">
        <g id="Group_57" data-name="Group 57">
          <g id="Group_54" data-name="Group 54" transform="translate(0.149 0.149)">
            <rect id="Rectangle_2" data-name="Rectangle 2" width="139.234" height="108.426" fill="#fafafa"/>
          </g>
          <g id="Group_56" data-name="Group 56">
            <g id="Group_55" data-name="Group 55">
              <path id="Path_22" data-name="Path 22" d="M171.88,254.721c0-1.024-.049-43.242-.123-109l.123.123-139.222.026h-.012l.148-.148c-.005,39.3-.01,76.473-.015,109l-.134-.134,139.234.134-139.234.134h-.134v-.134c0-32.524-.01-69.692-.015-109v-.149h.16l139.222.026H172v.123C171.929,211.479,171.881,253.7,171.88,254.721Z" transform="translate(-32.497 -145.575)" fill="#263238"/>
            </g>
          </g>
        </g>
        <g id="Group_67" data-name="Group 67" transform="translate(0.498 10.648)">
          <g id="Group_66" data-name="Group 66">
            <path id="Path_68" data-name="Path 68" d="M172.254,164.373c0,.082-31.093.148-69.439.148s-69.446-.067-69.446-.148,31.086-.149,69.446-.149S172.254,164.291,172.254,164.373Z" transform="translate(-33.369 -164.224)" fill="#263238"/>
          </g>
        </g>
        <g id="Group_71" data-name="Group 71" transform="translate(4.268 4.515)">
          <g id="Group_68" data-name="Group 68" transform="translate(0 0)">
            <ellipse id="Ellipse_1" data-name="Ellipse 1" cx="0.808" cy="0.808" rx="0.808" ry="0.808" fill="#263238"/>
          </g>
          <g id="Group_69" data-name="Group 69" transform="translate(3.015 0)">
            <ellipse id="Ellipse_2" data-name="Ellipse 2" cx="0.808" cy="0.808" rx="0.808" ry="0.808" fill="#263238"/>
          </g>
          <g id="Group_70" data-name="Group 70" transform="translate(5.984)">
            <path id="Path_69" data-name="Path 69" d="M52.068,154.29a.808.808,0,1,1-.808-.808A.808.808,0,0,1,52.068,154.29Z" transform="translate(-50.452 -153.482)" fill="#263238"/>
          </g>
        </g>
        <path id="Path_35026" data-name="Path 35026" d="M3.648.168C5.436.168,6.7-.792,6.7-2.364c0-1.716-1.416-2.16-2.748-2.58-1.272-.384-1.6-.66-1.6-1.176,0-.48.408-.84,1.1-.84A1.651,1.651,0,0,1,5.064-5.88l1.392-.8a3.193,3.193,0,0,0-3-1.884A2.558,2.558,0,0,0,.7-6.072c0,1.6,1.248,2.136,2.532,2.508,1.248.36,1.812.6,1.812,1.224,0,.468-.348.888-1.344.888A1.884,1.884,0,0,1,1.764-2.736L.348-1.908A3.243,3.243,0,0,0,3.648.168ZM11.664-6v3.24c0,1.044-.564,1.488-1.32,1.488A1.117,1.117,0,0,1,9.156-2.508V-6H7.608v3.684A2.243,2.243,0,0,0,9.876.168a2.04,2.04,0,0,0,1.788-.84V0h1.548V-6ZM17.484.168A3.073,3.073,0,0,0,20.2-1.392L18.852-2.16a1.48,1.48,0,0,1-1.38.792A1.57,1.57,0,0,1,15.864-3a1.573,1.573,0,0,1,1.608-1.644,1.483,1.483,0,0,1,1.368.8l1.332-.78a3.02,3.02,0,0,0-2.688-1.548A3.1,3.1,0,0,0,14.316-3,3.1,3.1,0,0,0,17.484.168Zm6.288,0a3.073,3.073,0,0,0,2.712-1.56L25.14-2.16a1.48,1.48,0,0,1-1.38.792A1.57,1.57,0,0,1,22.152-3,1.573,1.573,0,0,1,23.76-4.644a1.483,1.483,0,0,1,1.368.8l1.332-.78a3.02,3.02,0,0,0-2.688-1.548A3.1,3.1,0,0,0,20.6-3,3.1,3.1,0,0,0,23.772.168Zm4.74-2.532h4.524A3.576,3.576,0,0,0,33.1-3,3.033,3.033,0,0,0,30.06-6.168,3.063,3.063,0,0,0,26.892-3,3.088,3.088,0,0,0,30.18.168,3.036,3.036,0,0,0,32.8-1.116l-1.248-.72a1.663,1.663,0,0,1-1.344.6A1.575,1.575,0,0,1,28.512-2.364Zm-.024-1.2A1.5,1.5,0,0,1,30.06-4.776a1.456,1.456,0,0,1,1.488,1.212ZM35.364-4.3c0-.324.312-.492.7-.492a1.015,1.015,0,0,1,.96.612l1.32-.72a2.527,2.527,0,0,0-2.28-1.272A2.024,2.024,0,0,0,33.78-4.26c0,2.112,3.1,1.632,3.1,2.508,0,.348-.336.516-.828.516a1.143,1.143,0,0,1-1.176-.78l-1.344.756A2.581,2.581,0,0,0,36.048.168c1.284,0,2.412-.624,2.412-1.92C38.46-3.96,35.364-3.408,35.364-4.3Zm5.208,0c0-.324.312-.492.7-.492a1.015,1.015,0,0,1,.96.612l1.32-.72a2.527,2.527,0,0,0-2.28-1.272,2.024,2.024,0,0,0-2.28,1.908c0,2.112,3.1,1.632,3.1,2.508,0,.348-.336.516-.828.516a1.143,1.143,0,0,1-1.176-.78l-1.344.756A2.581,2.581,0,0,0,41.256.168c1.284,0,2.412-.624,2.412-1.92C43.668-3.96,40.572-3.408,40.572-4.3ZM47.82-7.08V-8.568C45.912-8.688,45-7.716,45-6.06V-6h-.864v1.488H45V0h1.548V-4.512H47.82V-6H46.548v-.06C46.548-6.876,47.016-7.14,47.82-7.08ZM52.488-6v3.24c0,1.044-.564,1.488-1.32,1.488A1.117,1.117,0,0,1,49.98-2.508V-6H48.432v3.684A2.243,2.243,0,0,0,50.7.168a2.04,2.04,0,0,0,1.788-.84V0h1.548V-6Zm2.964,6H57V-8.76H55.452ZM61.7-2.82h1.224L63.24-6V-8.4H61.38V-6ZM62.316.156a1.019,1.019,0,0,0,1.02-1.02,1.019,1.019,0,0,0-1.02-1.02A1.019,1.019,0,0,0,61.3-.864,1.019,1.019,0,0,0,62.316.156Zm2.6-2.976h1.224L66.456-6V-8.4H64.6V-6ZM65.532.156a1.019,1.019,0,0,0,1.02-1.02,1.019,1.019,0,0,0-1.02-1.02,1.019,1.019,0,0,0-1.02,1.02A1.019,1.019,0,0,0,65.532.156Z" transform="translate(36.253 70.608)"/>
        <g id="Layer_2" data-name="Layer 2" transform="translate(52.198 24.499)">
          <g id="checkmark-circle-2" transform="translate(0 0)">
            <rect id="Rectangle_4535" data-name="Rectangle 4535" width="35.109" height="35.109" fill="#00c0a6" opacity="0"/>
            <path id="Path_28094" data-name="Path 28094" d="M16.629,2A14.629,14.629,0,1,0,31.258,16.629,14.629,14.629,0,0,0,16.629,2Zm6.29,11.133L16.234,21.91a1.467,1.467,0,0,1-2.311.015l-3.569-4.55a1.465,1.465,0,1,1,2.311-1.8l2.385,3.043,5.53-7.314a1.472,1.472,0,0,1,2.341,1.785Z" transform="translate(0.32 0.32)" fill="#46b284"/>
          </g>
        </g>
      </g>
    </g>
    <g id="Character" transform="translate(-266.641 18895.668)">
      <g id="Group_264" data-name="Group 264" transform="translate(0 0)">
        <g id="Group_73" data-name="Group 73" transform="translate(186.689 79.563)">
          <path id="Path_70" data-name="Path 70" d="M433.959,265.357s6.929-4.216,8.491-2.977a9.921,9.921,0,0,1,3.006,4.806s3.66-13.96,7.153-13.43c2,.3,1.02,1.864.122,3.824a73.971,73.971,0,0,0-2.256,8.5s6.623-7.857,8.569-7.716c1.506.11,1.722,1.434-.444,3.558s-5.763,8.815-5.763,8.815,4.639-4.325,6.555-4.349c1.528-.019,2.516,1.043.538,2.76s-4.971,3.006-6.568,6.112c-1.968,3.83-6.165,13.375-6.165,13.375l-14.688-5.2s-2.391-9.744-2.486-12.111c0,0,.2-5,.173-5.894s2.334-1.119,3.051.591.391,3.5.682,4.641a4.352,4.352,0,0,0,1.64,2.7c.832.509,2.948.544,3.489-.086a9,9,0,0,0,1.338-3.584,16.266,16.266,0,0,0-.041-2.9S434.256,269.267,433.959,265.357Z" transform="translate(-430.022 -253.741)" fill="#ffbe9d"/>
        </g>
        <g id="Group_86" data-name="Group 86" transform="translate(0 124.077)">
          <g id="Group_81" data-name="Group 81">
            <g id="Group_74" data-name="Group 74">
              <path id="Path_71" data-name="Path 71" d="M128.647,344.268l-10.207-3.823s-10.391-6.084-12.315-3.923a2.134,2.134,0,0,0-2.968,1.212c-.529,1.27,1.217,3.114,1.217,3.114s-.544.551.317,2.416,10.724,7.746,10.724,7.746,12.824,6.993,18.009,10.338l8.948-12.169-1.244-.465s-.739-6.064-3.221-7.681c-2.7-1.759-5.96-6.52-6.677-8.385s-4.16-1-3.586,2.869,3.586,4.877,3.3,7.46S128.647,344.268,128.647,344.268Z" transform="translate(-103.057 -331.703)" fill="#ffbe9d"/>
            </g>
            <g id="Group_76" data-name="Group 76" transform="translate(1.207 9.081)">
              <g id="Group_75" data-name="Group 75">
                <path id="Path_72" data-name="Path 72" d="M113.907,352.507a42.422,42.422,0,0,1-4.44-2.319,42.179,42.179,0,0,1-4.3-2.578,42.384,42.384,0,0,1,4.441,2.319A42.19,42.19,0,0,1,113.907,352.507Z" transform="translate(-105.171 -347.607)" fill="#eb996e"/>
              </g>
            </g>
            <g id="Group_78" data-name="Group 78" transform="translate(3.068 4.817)">
              <g id="Group_77" data-name="Group 77">
                <path id="Path_73" data-name="Path 73" d="M120.287,346.433a13.3,13.3,0,0,1-1.832-.729c-1.116-.485-2.647-1.183-4.3-2.029a46.869,46.869,0,0,1-4.134-2.362c-.508-.337-.915-.616-1.184-.827s-.415-.329-.4-.345a18.6,18.6,0,0,1,1.7.993c1.043.62,2.509,1.432,4.159,2.276s3.163,1.568,4.255,2.1A12.637,12.637,0,0,1,120.287,346.433Z" transform="translate(-108.43 -340.139)" fill="#eb996e"/>
              </g>
            </g>
            <g id="Group_80" data-name="Group 80" transform="translate(8.066 9)">
              <g id="Group_79" data-name="Group 79">
                <path id="Path_74" data-name="Path 74" d="M126.19,355.2a6.5,6.5,0,0,1-.9-.491l-2.406-1.436-.027-.016-.015-.033a33.941,33.941,0,0,0-1.732-3.317,8.078,8.078,0,0,0-1.3-1.716,1.639,1.639,0,0,0-2.011-.151,1,1,0,0,0-.32.293.176.176,0,0,1,.023.068l.041.127c.026.084.058.17.089.255.124.341.259.676.39,1.006l.781,1.906,1.381,3.292-.019-.03,2.052,2.405.548.668a1.062,1.062,0,0,1,.175.248c-.009.007-.086-.063-.224-.205l-.594-.627-2.127-2.339-.011-.012-.008-.018c-.425-.952-.91-2.058-1.43-3.275l-.8-1.9c-.134-.331-.269-.666-.4-1.013-.032-.087-.065-.173-.094-.266l-.044-.136a.918.918,0,0,1-.03-.2.646.646,0,0,1,.208-.3,1.908,1.908,0,0,1,.244-.184,1.99,1.99,0,0,1,1.23-.316,1.968,1.968,0,0,1,1.131.5,8.119,8.119,0,0,1,1.345,1.8,30.583,30.583,0,0,1,1.7,3.374l-.042-.049,2.354,1.518A6.611,6.611,0,0,1,126.19,355.2Z" transform="translate(-117.184 -347.466)" fill="#eb996e"/>
              </g>
            </g>
          </g>
          <g id="Group_83" data-name="Group 83" transform="translate(19.116 15.693)">
            <g id="Group_82" data-name="Group 82">
              <path id="Path_75" data-name="Path 75" d="M144.726,360.326a6.245,6.245,0,0,1-1.254-.307,12.442,12.442,0,0,0-3.018-.533,5.522,5.522,0,0,0-2.909.713,11.523,11.523,0,0,0-1.007.772,2.308,2.308,0,0,1,.893-.95,5.21,5.21,0,0,1,3.029-.833,10.12,10.12,0,0,1,3.074.63A5.073,5.073,0,0,1,144.726,360.326Z" transform="translate(-136.537 -359.187)" fill="#eb996e"/>
            </g>
          </g>
          <g id="Group_85" data-name="Group 85" transform="translate(25.58 14.132)">
            <g id="Group_84" data-name="Group 84">
              <path id="Path_76" data-name="Path 76" d="M148.815,356.458c.068.051-.186.492-.432,1.059s-.4,1.052-.488,1.036-.051-.553.215-1.155S148.753,356.407,148.815,356.458Z" transform="translate(-147.857 -356.453)" fill="#eb996e"/>
            </g>
          </g>
        </g>
        <g id="Group_91" data-name="Group 91" transform="translate(85.215 17.716)">
          <g id="Group_87" data-name="Group 87">
            <path id="Path_77" data-name="Path 77" d="M252.452,217.4c.7-4.81,6.305-11.708,11.262-11.715a12.8,12.8,0,0,1-.106-14.072c1.913-2.863,5-4.967,6.305-8.14,1.48-3.59.344-7.645.485-11.515.207-5.664,3.154-10.837,6.023-15.757,2.628-4.5,5.834-9.443,11-10.55,3.272-.7,6.666.333,9.738,1.641a52.714,52.714,0,0,1,30.055,34.692c.939,3.647,1.568,7.593,4.11,10.411,2.692,2.985,7.406,4.6,8.213,8.509.58,2.8-1.218,5.615-.948,8.46.226,2.383,4.689,9.33,5.718,11.5,1.773,3.739,1.132,7.778-.673,11.5a17.607,17.607,0,0,1-10.475,8.366L287.6,225.548c-4.287,2.44-8.557,11.881-13.478,12.462s-10.926,2.722-15.661-2.46C253.5,230.118,251.747,222.208,252.452,217.4Z" transform="translate(-252.302 -145.423)" fill="#263238"/>
          </g>
          <g id="Group_88" data-name="Group 88" transform="translate(63.904 26.654)">
            <path id="Path_78" data-name="Path 78" d="M376.022,192.1c-.51,3.813.536,10.117,2.62,13.375,1.4,2.186,3.733,3.609,6.036,4.86s4.714,2.451,6.46,4.382,2.682,4.828,1.515,7.142c4.1,1.53,5.946,6.759,4.44,10.8s-5.635,6.765-9.949,7.573l-18.793-5.653L364.223,210.6l10.848-18.5" transform="translate(-364.223 -192.105)" fill="#263238"/>
          </g>
          <g id="Group_90" data-name="Group 90" transform="translate(78.009 51.103)">
            <g id="Group_89" data-name="Group 89">
              <path id="Path_79" data-name="Path 79" d="M388.927,234.925a2.186,2.186,0,0,1,.367.16,10.512,10.512,0,0,1,1.027.533,13.624,13.624,0,0,1,3.294,2.746,15.146,15.146,0,0,1,1.755,2.438,15.367,15.367,0,0,1,1.368,3.2,13.827,13.827,0,0,1,.051,8l-.069-.172a13.915,13.915,0,0,1,3.058,2.323,14.242,14.242,0,0,1,4.1,8.368,13.729,13.729,0,0,1-1.345,7.52,14.182,14.182,0,0,1-3.086,4.153,11.524,11.524,0,0,1-1.094.89,3.051,3.051,0,0,1-.409.273,3.049,3.049,0,0,1,.372-.32c.255-.2.609-.51,1.051-.927a14.637,14.637,0,0,0,2.976-4.16,13.648,13.648,0,0,0,1.263-7.4,14.069,14.069,0,0,0-4.037-8.189,13.724,13.724,0,0,0-2.99-2.277l-.1-.058.034-.115a13.658,13.658,0,0,0-.019-7.842,14.792,14.792,0,0,0-3.021-5.581,14.239,14.239,0,0,0-3.2-2.784c-.413-.282-.772-.436-1-.574A2.283,2.283,0,0,1,388.927,234.925Z" transform="translate(-388.927 -234.924)" fill="#455a64"/>
            </g>
          </g>
        </g>
        <g id="Group_117" data-name="Group 117" transform="translate(28.95 85.401)">
          <g id="Group_92" data-name="Group 92" transform="translate(0 8.254)">
            <path id="Path_80" data-name="Path 80" d="M232.44,278.422s-8.4,2.554-11.341,6.836c-2.082,3.028-23.4,49.2-23.4,49.2l-32.365-9.731L153.76,340.01l36.01,19.96a21.938,21.938,0,0,0,21.44-.095h0a21.936,21.936,0,0,0,8.645-8.943l9.156-17.543Z" transform="translate(-153.76 -278.422)" fill="#5a4bda"/>
          </g>
          <g id="Group_98" data-name="Group 98" transform="translate(68.167)">
            <g id="Group_93" data-name="Group 93">
              <path id="Path_81" data-name="Path 81" d="M275.067,372.784,280.12,351l-3.829-15.816c-2.463-8.144-4.577-21.41-1.9-32.1l8.951-30.726,9.841-4.526,22.52-3.873c.866.288,23.549,6.695,23.549,6.695a35.187,35.187,0,0,1,4.4,1.23l2.6,16.82-7.82,27.723-3.406,27.622,7.482,28.729Z" transform="translate(-273.147 -263.966)" fill="#5a4bda"/>
            </g>
            <g id="Group_95" data-name="Group 95" transform="translate(0.247 41.051)">
              <g id="Group_94" data-name="Group 94">
                <path id="Path_82" data-name="Path 82" d="M273.579,335.863" transform="translate(-273.579 -335.863)" fill="none" stroke="#fff" stroke-width="0.02"/>
              </g>
            </g>
            <g id="Group_97" data-name="Group 97" transform="translate(53.013 43.083)">
              <g id="Group_96" data-name="Group 96">
                <path id="Path_83" data-name="Path 83" d="M365.993,339.421" transform="translate(-365.993 -339.421)" fill="none" stroke="#fff" stroke-width="0.02"/>
              </g>
            </g>
          </g>
          <g id="Group_99" data-name="Group 99" transform="translate(82.894 3.298)">
            <path id="Path_84" data-name="Path 84" d="M299.147,272.665l6.531-2.923,29.433.41,6.961,4.041s-24.316,26.838-30.419,27.725C296.3,304.151,299.147,272.665,299.147,272.665Z" transform="translate(-298.939 -269.742)" fill="#ffbe9d"/>
          </g>
          <g id="Group_100" data-name="Group 100" transform="translate(127.168 7.692)">
            <path id="Path_85" data-name="Path 85" d="M387.348,277.438s4.408.992,8.188,9.055,9.889,30.5,9.889,30.5l2.612-23.779,21.28,2.341-4.118,56.83s-7.531,10.921-20.128,9.913-28.59-40.828-28.59-40.828Z" transform="translate(-376.481 -277.438)" fill="#5a4bda"/>
          </g>
          <g id="Group_102" data-name="Group 102" transform="translate(152.786 23.468)">
            <g id="Group_101" data-name="Group 101">
              <path id="Path_86" data-name="Path 86" d="M421.353,357.883a.519.519,0,0,1,0-.138c0-.109.01-.24.017-.4q.034-.568.093-1.546c.081-1.344.242-3.284.464-5.679.444-4.792,1.256-11.39,2.25-18.661s1.839-13.862,2.335-18.645c.25-2.391.441-4.327.558-5.666q.094-.975.148-1.542c.019-.161.034-.292.046-.4a.478.478,0,0,1,.026-.136.485.485,0,0,1,0,.138l-.017.4q-.034.567-.093,1.546c-.081,1.343-.241,3.283-.464,5.678-.444,4.792-1.256,11.39-2.25,18.663s-1.839,13.859-2.335,18.642c-.25,2.391-.441,4.327-.558,5.667q-.094.975-.148,1.542c-.019.161-.034.292-.046.4A.473.473,0,0,1,421.353,357.883Z" transform="translate(-421.348 -305.068)" fill="#263238"/>
            </g>
          </g>
          <g id="Group_104" data-name="Group 104" transform="translate(42.558 64.528)">
            <g id="Group_103" data-name="Group 103">
              <path id="Path_87" data-name="Path 87" d="M230.041,389a1.542,1.542,0,0,1-.235-.425,12.463,12.463,0,0,1-.494-1.225,18.363,18.363,0,0,1-.834-8.615,12.178,12.178,0,0,1,.25-1.3,1.551,1.551,0,0,1,.149-.462c.048.01-.081.686-.191,1.785a21.765,21.765,0,0,0,.826,8.525C229.83,388.347,230.086,388.986,230.041,389Z" transform="translate(-228.295 -376.98)" fill="#263238"/>
            </g>
          </g>
          <g id="Group_106" data-name="Group 106" transform="translate(43.214 63.75)">
            <g id="Group_105" data-name="Group 105">
              <path id="Path_88" data-name="Path 88" d="M234.114,388.947a2.088,2.088,0,0,1-.375-.424,15.273,15.273,0,0,1-.888-1.26,21.913,21.913,0,0,1-3.32-9.541,15.131,15.131,0,0,1-.086-1.539,2.1,2.1,0,0,1,.03-.565c.05,0,.087.8.264,2.079a25.417,25.417,0,0,0,3.291,9.457C233.685,388.266,234.154,388.917,234.114,388.947Z" transform="translate(-229.444 -375.617)" fill="#263238"/>
            </g>
          </g>
          <g id="Group_108" data-name="Group 108" transform="translate(67.252 26.306)">
            <g id="Group_107" data-name="Group 107">
              <path id="Path_89" data-name="Path 89" d="M277.369,310.038a2.807,2.807,0,0,1-.108.461l-.363,1.3c-.328,1.16-.79,2.79-1.357,4.791a105.73,105.73,0,0,0-3.382,16.039,37.373,37.373,0,0,0,1.374,16.193c.6,2.011,1.172,3.614,1.562,4.723q.283.8.449,1.277a2.775,2.775,0,0,1,.139.453,2.955,2.955,0,0,1-.195-.431l-.5-1.258c-.424-1.1-1.024-2.692-1.654-4.7a38.553,38.553,0,0,1-1.57-7.23,39.137,39.137,0,0,1,.1-9.058,98.468,98.468,0,0,1,3.476-16.063c.59-2.02,1.094-3.645,1.449-4.767q.262-.809.417-1.289A2.765,2.765,0,0,1,277.369,310.038Z" transform="translate(-271.544 -310.038)" fill="#263238"/>
            </g>
          </g>
          <g id="Group_110" data-name="Group 110" transform="translate(123.906 9.18)">
            <g id="Group_109" data-name="Group 109">
              <path id="Path_90" data-name="Path 90" d="M379.447,334.614a.625.625,0,0,1-.077-.14l-.2-.422-.741-1.635c-.315-.713-.717-1.579-1.146-2.6l-1.4-3.5c-.5-1.3-.986-2.751-1.54-4.295q-.364-1.176-.752-2.429-.192-.627-.389-1.272c-.123-.433-.23-.876-.348-1.322a58.3,58.3,0,0,1-2.013-11.824,34.078,34.078,0,0,1,1.23-11.913,21.126,21.126,0,0,1,4.713-8.541,16.485,16.485,0,0,1,5.312-3.9,12.381,12.381,0,0,1,1.686-.625l.451-.126a.65.65,0,0,1,.156-.033.637.637,0,0,1-.148.062l-.44.154a14.675,14.675,0,0,0-1.656.673,16.835,16.835,0,0,0-5.206,3.933,21.134,21.134,0,0,0-4.606,8.478,34.186,34.186,0,0,0-1.2,11.819,59.145,59.145,0,0,0,1.981,11.771q.173.668.341,1.318l.382,1.27q.379,1.25.735,2.427c.543,1.544,1.013,2.995,1.5,4.3l1.354,3.506c.414,1.026.8,1.9,1.1,2.617l.69,1.656.172.434A.638.638,0,0,1,379.447,334.614Z" transform="translate(-370.768 -280.044)" fill="#263238"/>
            </g>
          </g>
          <g id="Group_112" data-name="Group 112" transform="translate(122.574 38.009)" opacity="0.3">
            <g id="Group_111" data-name="Group 111">
              <path id="Path_91" data-name="Path 91" d="M370.335,330.535c-2.781,13.16-2.819,26.7,1.971,39.268.278.729,1.377,3.321,2.157,3.36.988.049,1.457-1.181,1.628-2.155.351-2,.566-5.3.918-7.3.441-2.508,1.037-8.315,1.037-8.315s-2.3-5.266-3.312-8.09a80.406,80.406,0,0,1-4.341-16.349" transform="translate(-368.434 -330.535)"/>
            </g>
          </g>
          <g id="Group_114" data-name="Group 114" transform="translate(86.814 88.994)">
            <g id="Group_113" data-name="Group 113">
              <path id="Path_92" data-name="Path 92" d="M341.194,419.829a2.079,2.079,0,0,1-.221.344l-.683.953-.5.685c-.191.244-.42.492-.654.768a22.881,22.881,0,0,1-1.665,1.81l-1.023,1c-.359.345-.772.661-1.178,1.011a33.473,33.473,0,0,1-2.728,2.07,35.062,35.062,0,0,1-14.515,5.657,33.61,33.61,0,0,1-3.41.322c-.536.017-1.053.063-1.551.053l-1.431-.046a22.727,22.727,0,0,1-2.451-.206c-.36-.044-.7-.073-1-.122l-.832-.166-1.148-.239a2.139,2.139,0,0,1-.4-.1,2.114,2.114,0,0,1,.408.044l1.155.184.832.139c.305.042.641.062,1,.1a24.387,24.387,0,0,0,2.44.161l1.422.026c.494.005,1.008-.047,1.54-.07,1.067-.023,2.193-.2,3.381-.347a35.732,35.732,0,0,0,14.4-5.614c.975-.694,1.922-1.328,2.724-2.033.407-.343.82-.652,1.18-.991l1.029-.981a24.365,24.365,0,0,0,1.687-1.77c.24-.269.473-.511.67-.748l.518-.666.726-.918A2.162,2.162,0,0,1,341.194,419.829Z" transform="translate(-305.806 -419.829)" fill="#263238"/>
            </g>
          </g>
          <g id="Group_116" data-name="Group 116" transform="translate(109.113 80.285)">
            <g id="Group_115" data-name="Group 115">
              <path id="Path_93" data-name="Path 93" d="M353.3,404.576a2.5,2.5,0,0,1-.076.624,14.362,14.362,0,0,1-.4,1.665,19.843,19.843,0,0,1-6.075,9.376,14.415,14.415,0,0,1-1.357,1.044,2.555,2.555,0,0,1-.538.324c-.031-.044.7-.558,1.755-1.526a21.939,21.939,0,0,0,6.014-9.282C353.081,405.442,353.252,404.566,353.3,404.576Z" transform="translate(-344.859 -404.576)" fill="#263238"/>
            </g>
          </g>
        </g>
        <g id="Group_263" data-name="Group 263" transform="translate(99.863)">
          <g id="Group_159" data-name="Group 159" transform="translate(36.151)">
            <g id="Group_118" data-name="Group 118" transform="translate(0 14.303)">
              <path id="Path_94" data-name="Path 94" d="M341.4,139.445a23.131,23.131,0,0,1,20.113,34.275c-1.309,2.38-3.191,4.634-5.777,5.464a47.683,47.683,0,0,0-14.465-37.032" transform="translate(-341.27 -139.445)" fill="#eb427e"/>
            </g>
            <g id="Group_119" data-name="Group 119" transform="translate(9 3.064)">
              <path id="Path_95" data-name="Path 95" d="M357.487,133.062c-1.183-2.46.083-5.537,2.193-7.27s4.858-2.432,7.513-3.066,5.405-1.292,7.562-2.966c-.311,4.277-1.374,8.677-4.142,11.952s-7.563,5.1-11.515,3.436" transform="translate(-357.032 -119.761)" fill="#eb427e"/>
            </g>
            <g id="Group_120" data-name="Group 120" transform="translate(0.327 0)">
              <path id="Path_96" data-name="Path 96" d="M353.712,133.578a6.034,6.034,0,0,1-5.609-.827,12.791,12.791,0,0,1-3.744-4.508,19.378,19.378,0,0,1-2.406-6.809,11.4,11.4,0,0,1,1.2-7.038c3.125,3.33,6.568,6.128,8.354,10.331a12.444,12.444,0,0,1-.2,8.862" transform="translate(-341.842 -114.396)" fill="#eb427e"/>
            </g>
            <g id="Group_122" data-name="Group 122" transform="translate(16.407 33.028)">
              <g id="Group_121" data-name="Group 121">
                <path id="Path_97" data-name="Path 97" d="M374.647,172.241a4.172,4.172,0,0,1,.156.794c.043.257.089.573.117.942s.083.788.092,1.254a25.48,25.48,0,0,1-.058,3.275,26.394,26.394,0,0,1-1.852,7.786,25.533,25.533,0,0,1-1.423,2.95c-.218.413-.453.764-.647,1.079s-.375.578-.529.788a4.206,4.206,0,0,1-.5.639,4.245,4.245,0,0,1,.4-.7c.139-.219.307-.488.484-.81s.4-.677.605-1.093a29.162,29.162,0,0,0,1.353-2.951,28.3,28.3,0,0,0,1.834-7.708,29.073,29.073,0,0,0,.12-3.244c0-.463-.032-.88-.048-1.248s-.041-.683-.067-.942A4.284,4.284,0,0,1,374.647,172.241Z" transform="translate(-370.005 -172.241)" fill="#263238"/>
              </g>
            </g>
            <g id="Group_124" data-name="Group 124" transform="translate(8.77 8.45)">
              <g id="Group_123" data-name="Group 123">
                <path id="Path_98" data-name="Path 98" d="M367.126,138.46a4.215,4.215,0,0,1-.633.5,6.9,6.9,0,0,1-2.062.8,16.07,16.07,0,0,1-7.291-.416l-.083-.022-.019-.085c-.038-.171-.079-.355-.12-.54a12.763,12.763,0,0,1-.188-4.247,7.234,7.234,0,0,1,1.2-3.257,6.019,6.019,0,0,1,1.694-1.618,4.667,4.667,0,0,1,.769-.381,4.667,4.667,0,0,1-.7.477,6.435,6.435,0,0,0-1.584,1.639,7.23,7.23,0,0,0-1.1,3.175,12.956,12.956,0,0,0,.208,4.152c.041.181.081.361.118.528l-.1-.107a16.775,16.775,0,0,0,7.165.5,7.572,7.572,0,0,0,2.047-.695A4.316,4.316,0,0,1,367.126,138.46Z" transform="translate(-356.629 -129.194)" fill="#263238"/>
              </g>
            </g>
            <g id="Group_126" data-name="Group 126" transform="translate(9.311 10.307)">
              <g id="Group_125" data-name="Group 125">
                <path id="Path_99" data-name="Path 99" d="M369.871,132.456c.009.054-.835.172-2.144.56a18.555,18.555,0,0,0-2.243.831,18.218,18.218,0,0,0-4.878,3.2,18.611,18.611,0,0,0-1.657,1.726c-.878,1.045-1.323,1.771-1.369,1.742a2.3,2.3,0,0,1,.277-.532,12.107,12.107,0,0,1,.929-1.344,16.135,16.135,0,0,1,1.634-1.794,16.863,16.863,0,0,1,4.955-3.247,16.069,16.069,0,0,1,2.3-.782,12.038,12.038,0,0,1,1.6-.316A2.291,2.291,0,0,1,369.871,132.456Z" transform="translate(-357.578 -132.448)" fill="#263238"/>
              </g>
            </g>
            <g id="Group_128" data-name="Group 128" transform="translate(4.678 14.48)">
              <g id="Group_127" data-name="Group 127">
                <path id="Path_100" data-name="Path 100" d="M356.859,144.39c.01,0,0,.061-.022.171a2.458,2.458,0,0,1-.153.472,3.7,3.7,0,0,1-1.129,1.427,3.924,3.924,0,0,1-2.567.828,3.869,3.869,0,0,1-3.358-4.9,3.926,3.926,0,0,1,1.7-2.094,3.7,3.7,0,0,1,1.739-.538,2.449,2.449,0,0,1,.5.028c.112.017.17.031.168.041,0,.031-.239,0-.654.046a3.884,3.884,0,0,0-1.636.6,3.79,3.79,0,0,0-1.55,2,3.637,3.637,0,0,0,3.113,4.544,3.788,3.788,0,0,0,2.424-.723,3.893,3.893,0,0,0,1.151-1.309C356.775,144.613,356.829,144.381,356.859,144.39Z" transform="translate(-349.463 -139.756)" fill="#263238"/>
              </g>
            </g>
            <g id="Group_130" data-name="Group 130" transform="translate(5.074 17.855)">
              <g id="Group_129" data-name="Group 129">
                <path id="Path_101" data-name="Path 101" d="M350.234,147.069c-.027.029-.2-.311.073-.756a1.291,1.291,0,0,1,.678-.529,2.51,2.51,0,0,1,1.02-.107,4.671,4.671,0,0,1,2.423.722c-.031.082-1.083-.331-2.443-.426a1.644,1.644,0,0,0-1.505.46A1.505,1.505,0,0,0,350.234,147.069Z" transform="translate(-350.156 -145.667)" fill="#263238"/>
              </g>
            </g>
            <g id="Group_132" data-name="Group 132" transform="translate(0.362)">
              <g id="Group_131" data-name="Group 131">
                <path id="Path_102" data-name="Path 102" d="M343.185,114.4a7.062,7.062,0,0,0-.872,2.443,16.9,16.9,0,0,0-.135,2.834,18.513,18.513,0,0,0,.3,3.457,17.142,17.142,0,0,0,2.439,5.781c.464.664.872,1.18,1.162,1.529s.47.522.456.54a8.14,8.14,0,0,1-1.789-1.945,16.054,16.054,0,0,1-2.559-5.844,17.5,17.5,0,0,1-.287-3.515,15.365,15.365,0,0,1,.2-2.871,5.75,5.75,0,0,1,.652-1.834A2.068,2.068,0,0,1,343.185,114.4Z" transform="translate(-341.904 -114.395)" fill="#263238"/>
              </g>
            </g>
            <g id="Group_134" data-name="Group 134" transform="translate(4.598 6.773)">
              <g id="Group_133" data-name="Group 133">
                <path id="Path_103" data-name="Path 103" d="M349.326,126.259a4.45,4.45,0,0,1,.8.976,16.909,16.909,0,0,1,1.517,2.646,15.952,15.952,0,0,1,1,2.882,4.344,4.344,0,0,1,.2,1.249c-.093.022-.481-1.868-1.469-4.007S349.245,126.315,349.326,126.259Z" transform="translate(-349.322 -126.258)" fill="#263238"/>
              </g>
            </g>
            <g id="Group_136" data-name="Group 136" transform="translate(3.632 10.33)">
              <g id="Group_135" data-name="Group 135">
                <path id="Path_104" data-name="Path 104" d="M347.634,132.489c.06-.051,1.021.922,2.281,2.052a17.533,17.533,0,0,1,2.2,2.143,14.765,14.765,0,0,1-2.4-1.924A10.436,10.436,0,0,1,347.634,132.489Z" transform="translate(-347.631 -132.487)" fill="#263238"/>
              </g>
            </g>
            <g id="Group_138" data-name="Group 138" transform="translate(8.083 23.727)">
              <g id="Group_137" data-name="Group 137">
                <path id="Path_105" data-name="Path 105" d="M365.922,155.951s-.026.031-.082.081l-.251.214a11.513,11.513,0,0,1-.975.725,14.672,14.672,0,0,1-7.53,2.472,11.152,11.152,0,0,1-1.214-.005l-.329-.023a.411.411,0,0,1-.114-.016.424.424,0,0,1,.115-.008h.329c.286.007.7,0,1.208-.033a15.549,15.549,0,0,0,7.488-2.459c.428-.277.766-.515.992-.69l.265-.2A.465.465,0,0,1,365.922,155.951Z" transform="translate(-355.427 -155.951)" fill="#fafafa"/>
              </g>
            </g>
            <g id="Group_140" data-name="Group 140" transform="translate(11.485 30.637)">
              <g id="Group_139" data-name="Group 139">
                <path id="Path_106" data-name="Path 106" d="M371.842,168.054a.464.464,0,0,1-.083.08l-.254.211c-.22.184-.554.433-.979.721a16.39,16.39,0,0,1-7.481,2.7c-.511.05-.927.072-1.214.07h-.33a.435.435,0,0,1-.115-.009.444.444,0,0,1,.115-.015l.329-.022c.286-.013.7-.047,1.206-.107A17.533,17.533,0,0,0,370.479,169c.429-.277.769-.514,1-.687l.267-.194A.4.4,0,0,1,371.842,168.054Z" transform="translate(-361.385 -168.053)" fill="#fafafa"/>
              </g>
            </g>
            <g id="Group_142" data-name="Group 142" transform="translate(13.759 40.716)">
              <g id="Group_141" data-name="Group 141">
                <path id="Path_107" data-name="Path 107" d="M372.616,185.706a1.451,1.451,0,0,1-.242.178c-.159.11-.4.255-.7.421a11.309,11.309,0,0,1-5.188,1.357c-.346,0-.626-.005-.818-.023a1.459,1.459,0,0,1-.3-.037,1.5,1.5,0,0,1,.3-.009c.192,0,.471,0,.814-.014a12.547,12.547,0,0,0,5.151-1.348c.306-.155.551-.288.717-.386A1.453,1.453,0,0,1,372.616,185.706Z" transform="translate(-365.367 -185.705)" fill="#fafafa"/>
              </g>
            </g>
            <g id="Group_144" data-name="Group 144" transform="translate(21.38 39.164)">
              <g id="Group_143" data-name="Group 143">
                <path id="Path_108" data-name="Path 108" d="M380.28,183a2.7,2.7,0,0,1-.771.209,2.731,2.731,0,0,1-.794.092,5.385,5.385,0,0,1,1.565-.3Z" transform="translate(-378.715 -182.986)" fill="#fafafa"/>
              </g>
            </g>
            <g id="Group_146" data-name="Group 146" transform="translate(14.697 50.83)">
              <g id="Group_145" data-name="Group 145">
                <path id="Path_109" data-name="Path 109" d="M369.592,203.613a5.3,5.3,0,0,1-2.583-.189c.009-.034.577.086,1.288.136S369.589,203.579,369.592,203.613Z" transform="translate(-367.01 -203.418)" fill="#fafafa"/>
              </g>
            </g>
            <g id="Group_148" data-name="Group 148" transform="translate(4.863 21.164)">
              <g id="Group_147" data-name="Group 147">
                <path id="Path_110" data-name="Path 110" d="M351.367,151.466a6.877,6.877,0,0,1-1.58.871,6.882,6.882,0,0,1,1.58-.871Z" transform="translate(-349.787 -151.462)" fill="#fafafa"/>
              </g>
            </g>
            <g id="Group_150" data-name="Group 150" transform="translate(0.515 15.172)">
              <g id="Group_149" data-name="Group 149">
                <path id="Path_111" data-name="Path 111" d="M345.265,140.969a7.706,7.706,0,0,0-3.091,2.2,1.942,1.942,0,0,1,.328-.464,5.616,5.616,0,0,1,2.218-1.576A1.953,1.953,0,0,1,345.265,140.969Z" transform="translate(-342.173 -140.967)" fill="#fafafa"/>
              </g>
            </g>
            <g id="Group_152" data-name="Group 152" transform="translate(8.31 18.415)">
              <g id="Group_151" data-name="Group 151">
                <path id="Path_112" data-name="Path 112" d="M356.265,150.044a5.95,5.95,0,0,0-.439-3.4,1.578,1.578,0,0,1,.255.449,4.435,4.435,0,0,1,.317,2.449A1.566,1.566,0,0,1,356.265,150.044Z" transform="translate(-355.824 -146.647)" fill="#fafafa"/>
              </g>
            </g>
            <g id="Group_154" data-name="Group 154" transform="translate(9.647 3.19)">
              <g id="Group_153" data-name="Group 153">
                <path id="Path_113" data-name="Path 113" d="M374.936,119.982a6.935,6.935,0,0,1-.626.667,12.678,12.678,0,0,1-1.975,1.519,25.069,25.069,0,0,1-3.283,1.7c-1.272.564-2.7,1.12-4.14,1.813a16.168,16.168,0,0,0-3.787,2.415,9.536,9.536,0,0,0-2.224,2.895,6.943,6.943,0,0,0-.678,2.369c-.051.584-.009.91-.029.91,0,0-.011-.081-.019-.235a5.019,5.019,0,0,1,0-.678,6.752,6.752,0,0,1,.649-2.4,9.5,9.5,0,0,1,2.226-2.94,16.025,16.025,0,0,1,3.808-2.441c1.449-.7,2.876-1.249,4.147-1.806a25.959,25.959,0,0,0,3.283-1.668,13.52,13.52,0,0,0,1.988-1.482c.215-.2.38-.357.486-.469S374.936,119.982,374.936,119.982Z" transform="translate(-358.166 -119.982)" fill="#fafafa"/>
              </g>
            </g>
            <g id="Group_156" data-name="Group 156" transform="translate(13.424 9.967)">
              <g id="Group_155" data-name="Group 155">
                <path id="Path_114" data-name="Path 114" d="M376.23,131.851a.7.7,0,0,1-.076.129l-.238.359c-.2.312-.526.747-.944,1.269a22.577,22.577,0,0,1-8.179,6.349c-.609.276-1.11.479-1.463.6l-.406.142a.692.692,0,0,1-.144.041.724.724,0,0,1,.136-.064l.4-.162c.347-.134.843-.348,1.445-.633a23.832,23.832,0,0,0,8.149-6.326c.425-.513.755-.939.971-1.242l.256-.345A.7.7,0,0,1,376.23,131.851Z" transform="translate(-364.78 -131.851)" fill="#fafafa"/>
              </g>
            </g>
            <g id="Group_158" data-name="Group 158" transform="translate(1.041 1.943)">
              <g id="Group_157" data-name="Group 157">
                <path id="Path_115" data-name="Path 115" d="M343.093,117.8a10.9,10.9,0,0,1,1.731.916,14.327,14.327,0,0,1,5.782,7.3,10.964,10.964,0,0,1,.5,1.894.569.569,0,0,1-.043-.13c-.031-.117-.065-.24-.1-.376a13.648,13.648,0,0,0-.432-1.36,14.872,14.872,0,0,0-5.749-7.255,13.457,13.457,0,0,0-1.226-.731l-.343-.184A.625.625,0,0,1,343.093,117.8Z" transform="translate(-343.093 -117.799)" fill="#fafafa"/>
              </g>
            </g>
          </g>
          <g id="Group_256" data-name="Group 256" transform="translate(0 9.046)">
            <g id="Group_252" data-name="Group 252">
              <g id="Group_161" data-name="Group 161" transform="translate(0 14.368)">
                <g id="Group_160" data-name="Group 160">
                  <path id="Path_116" data-name="Path 116" d="M286.513,155.4c.223,3.027-1.775,5.73-3.789,8s-4.254,4.636-4.689,7.64c-.771,5.322,4.439,10.264,3.365,15.533-.576,2.824-2.889,5.093-3.3,7.946-.4,2.759,1.08,5.46,2.913,7.56s3.956,1.793,5.577,4.061a22.8,22.8,0,0,0,7.033,6.251c5.84,3.2,12.849-1.429,15.666-2.259" transform="translate(-277.956 -155.403)" fill="#263238"/>
                </g>
              </g>
              <g id="Group_163" data-name="Group 163" transform="translate(8.46)">
                <g id="Group_162" data-name="Group 162">
                  <path id="Path_117" data-name="Path 117" d="M337.033,157.01c2.692-1.172,2.9-10.818-3.85-11.933a18.308,18.308,0,0,1-7.243-3.3c-2.017-1.357-2.615-4.8-4.322-6.533A16.9,16.9,0,0,0,293.192,143c-.981,3.909-.311,8.53,2.77,11.128,3.576,3.014,8.878,2.345,13.46,1.407s9.768-1.863,13.594.828c2.307,1.623,3.63,4.262,5.04,6.7s3.18,4.937,5.847,5.855c0,0,2.031,4.772.373,8.094s1.949-2.343,1.949-2.343,6.576-11.693.808-17.661" transform="translate(-292.773 -130.239)" fill="#263238"/>
                </g>
              </g>
              <g id="Group_249" data-name="Group 249" transform="translate(5.814 13.293)">
                <g id="Group_248" data-name="Group 248">
                  <g id="Group_247" data-name="Group 247">
                    <g id="Group_246" data-name="Group 246">
                      <g id="Group_229" data-name="Group 229">
                        <g id="Group_228" data-name="Group 228">
                          <g id="Group_227" data-name="Group 227">
                            <g id="Group_171" data-name="Group 171">
                              <g id="Group_170" data-name="Group 170">
                                <g id="Group_169" data-name="Group 169">
                                  <g id="Group_168" data-name="Group 168">
                                    <g id="Group_167" data-name="Group 167">
                                      <g id="Group_166" data-name="Group 166">
                                        <g id="Group_165" data-name="Group 165">
                                          <g id="Group_164" data-name="Group 164">
                                            <path id="Path_118" data-name="Path 118" d="M300.834,234.705c-.037-6.3,0-23.984,0-23.952,0,0-10-1.684-12.049-14.746-1.017-6.5-.667-17.143-.1-25.845.511-7.833,5.722-17.432,13.526-16.59l24.36,6.215a4.592,4.592,0,0,1,4.1,4.667h0l-1.483,60.5Z" transform="translate(-288.138 -153.521)" fill="#ffbe9d"/>
                                          </g>
                                        </g>
                                      </g>
                                    </g>
                                  </g>
                                </g>
                              </g>
                            </g>
                            <g id="Group_189" data-name="Group 189" transform="translate(2.819 20.432)">
                              <g id="Group_179" data-name="Group 179" transform="translate(1.874 2.162)">
                                <g id="Group_178" data-name="Group 178">
                                  <g id="Group_177" data-name="Group 177">
                                    <g id="Group_176" data-name="Group 176">
                                      <g id="Group_175" data-name="Group 175">
                                        <g id="Group_174" data-name="Group 174">
                                          <g id="Group_173" data-name="Group 173">
                                            <g id="Group_172" data-name="Group 172">
                                              <path id="Path_119" data-name="Path 119" d="M296.358,194.6a1.675,1.675,0,0,0,1.611,1.694,1.6,1.6,0,0,0,1.73-1.506,1.675,1.675,0,0,0-1.609-1.694A1.6,1.6,0,0,0,296.358,194.6Z" transform="translate(-296.357 -193.092)" fill="#263238"/>
                                            </g>
                                          </g>
                                        </g>
                                      </g>
                                    </g>
                                  </g>
                                </g>
                              </g>
                              <g id="Group_188" data-name="Group 188">
                                <g id="Group_187" data-name="Group 187">
                                  <g id="Group_186" data-name="Group 186">
                                    <g id="Group_185" data-name="Group 185">
                                      <g id="Group_184" data-name="Group 184">
                                        <g id="Group_183" data-name="Group 183">
                                          <g id="Group_182" data-name="Group 182">
                                            <g id="Group_181" data-name="Group 181">
                                              <g id="Group_180" data-name="Group 180">
                                                <path id="Path_120" data-name="Path 120" d="M293.1,191.059c.207.219,1.478-.717,3.28-.709,1.8-.017,3.12.913,3.317.693.1-.1-.115-.492-.69-.913a4.6,4.6,0,0,0-2.654-.824,4.414,4.414,0,0,0-2.611.836C293.188,190.567,293,190.961,293.1,191.059Z" transform="translate(-293.075 -189.306)" fill="#263238"/>
                                              </g>
                                            </g>
                                          </g>
                                        </g>
                                      </g>
                                    </g>
                                  </g>
                                </g>
                              </g>
                            </g>
                            <g id="Group_199" data-name="Group 199" transform="translate(20.532 23.304)">
                              <g id="Group_198" data-name="Group 198">
                                <g id="Group_197" data-name="Group 197">
                                  <g id="Group_196" data-name="Group 196">
                                    <g id="Group_195" data-name="Group 195">
                                      <g id="Group_194" data-name="Group 194">
                                        <g id="Group_193" data-name="Group 193">
                                          <g id="Group_192" data-name="Group 192">
                                            <g id="Group_191" data-name="Group 191">
                                              <g id="Group_190" data-name="Group 190">
                                                <path id="Path_121" data-name="Path 121" d="M324.124,196.088c.207.219,1.48-.717,3.28-.709,1.8-.017,3.121.913,3.317.693.1-.1-.112-.492-.69-.912a4.59,4.59,0,0,0-2.654-.825,4.42,4.42,0,0,0-2.612.837C324.212,195.6,324.022,195.99,324.124,196.088Z" transform="translate(-324.098 -194.335)" fill="#263238"/>
                                              </g>
                                            </g>
                                          </g>
                                        </g>
                                      </g>
                                    </g>
                                  </g>
                                </g>
                              </g>
                            </g>
                            <g id="Group_208" data-name="Group 208" transform="translate(9.4 20.897)">
                              <g id="Group_207" data-name="Group 207">
                                <g id="Group_206" data-name="Group 206">
                                  <g id="Group_205" data-name="Group 205">
                                    <g id="Group_204" data-name="Group 204">
                                      <g id="Group_203" data-name="Group 203">
                                        <g id="Group_202" data-name="Group 202">
                                          <g id="Group_201" data-name="Group 201">
                                            <g id="Group_200" data-name="Group 200">
                                              <path id="Path_122" data-name="Path 122" d="M309.189,205.134a11.9,11.9,0,0,0-2.926-.535c-.46-.049-.9-.141-.972-.455a2.345,2.345,0,0,1,.311-1.363q.653-1.668,1.369-3.5c1.9-4.985,3.277-9.084,3.076-9.158s-1.906,3.9-3.807,8.89q-.686,1.844-1.312,3.522a2.669,2.669,0,0,0-.243,1.805,1.157,1.157,0,0,0,.755.675,3.148,3.148,0,0,0,.782.11A11.748,11.748,0,0,0,309.189,205.134Z" transform="translate(-304.601 -190.12)" fill="#263238"/>
                                            </g>
                                          </g>
                                        </g>
                                      </g>
                                    </g>
                                  </g>
                                </g>
                              </g>
                            </g>
                            <g id="Group_216" data-name="Group 216" transform="translate(12.696 52.606)">
                              <g id="Group_215" data-name="Group 215">
                                <g id="Group_214" data-name="Group 214">
                                  <g id="Group_213" data-name="Group 213">
                                    <g id="Group_212" data-name="Group 212">
                                      <g id="Group_211" data-name="Group 211">
                                        <g id="Group_210" data-name="Group 210">
                                          <g id="Group_209" data-name="Group 209">
                                            <path id="Path_123" data-name="Path 123" d="M310.374,250.281a33.22,33.22,0,0,0,17.5-4.626c-.147.031-4.815,9.077-17.328,7.71Z" transform="translate(-310.374 -245.655)" fill="#eb996e"/>
                                          </g>
                                        </g>
                                      </g>
                                    </g>
                                  </g>
                                </g>
                              </g>
                            </g>
                            <g id="Group_217" data-name="Group 217" transform="translate(14.485 38.079)">
                              <path id="Path_124" data-name="Path 124" d="M313.53,223.246c-.215-1.109,1.089-1.469,2.049-2.065s1.511-1.389,2.409-.7a3.505,3.505,0,0,1,1.11,1.554,2.456,2.456,0,0,1,.18,1.276,2.485,2.485,0,0,1-.8,1.334,3.8,3.8,0,0,1-1.956,1.023,2.724,2.724,0,0,1-2.118-.5,2.136,2.136,0,0,1-.807-1.976" transform="translate(-313.507 -220.212)" fill="#eb996e"/>
                            </g>
                            <g id="Group_226" data-name="Group 226" transform="translate(13.535 37.168)">
                              <g id="Group_225" data-name="Group 225">
                                <g id="Group_224" data-name="Group 224">
                                  <g id="Group_223" data-name="Group 223">
                                    <g id="Group_222" data-name="Group 222">
                                      <g id="Group_221" data-name="Group 221">
                                        <g id="Group_220" data-name="Group 220">
                                          <g id="Group_219" data-name="Group 219">
                                            <g id="Group_218" data-name="Group 218">
                                              <path id="Path_125" data-name="Path 125" d="M317.6,218.618c-.293-.018-.3,1.938-1.979,3.323s-3.759,1.165-3.774,1.438c-.028.123.463.381,1.343.407a4.867,4.867,0,0,0,3.151-1.09,4.241,4.241,0,0,0,1.533-2.786C317.948,219.092,317.731,218.607,317.6,218.618Z" transform="translate(-311.843 -218.618)" fill="#263238"/>
                                            </g>
                                          </g>
                                        </g>
                                      </g>
                                    </g>
                                  </g>
                                </g>
                              </g>
                            </g>
                          </g>
                        </g>
                      </g>
                      <g id="Group_237" data-name="Group 237" transform="translate(20.281 19.688)">
                        <g id="Group_236" data-name="Group 236">
                          <g id="Group_235" data-name="Group 235">
                            <g id="Group_234" data-name="Group 234">
                              <g id="Group_233" data-name="Group 233">
                                <g id="Group_232" data-name="Group 232">
                                  <g id="Group_231" data-name="Group 231">
                                    <g id="Group_230" data-name="Group 230">
                                      <path id="Path_126" data-name="Path 126" d="M323.667,189.346c.177.49,1.977.262,4.09.521,2.119.218,3.823.84,4.1.4.126-.21-.171-.671-.859-1.147a7.163,7.163,0,0,0-6.242-.7C323.983,188.728,323.592,189.113,323.667,189.346Z" transform="translate(-323.658 -188.002)" fill="#263238"/>
                                    </g>
                                  </g>
                                </g>
                              </g>
                            </g>
                          </g>
                        </g>
                      </g>
                      <g id="Group_245" data-name="Group 245" transform="translate(3.05 14.093)">
                        <g id="Group_244" data-name="Group 244">
                          <g id="Group_243" data-name="Group 243">
                            <g id="Group_242" data-name="Group 242">
                              <g id="Group_241" data-name="Group 241">
                                <g id="Group_240" data-name="Group 240">
                                  <g id="Group_239" data-name="Group 239">
                                    <g id="Group_238" data-name="Group 238">
                                      <path id="Path_127" data-name="Path 127" d="M293.526,180.063c.316.41,1.558-.012,3.051-.029,1.492-.069,2.757.281,3.048-.146.128-.208-.07-.618-.622-1.007a4.419,4.419,0,0,0-4.914.141C293.561,179.441,293.387,179.862,293.526,180.063Z" transform="translate(-293.48 -178.203)" fill="#263238"/>
                                    </g>
                                  </g>
                                </g>
                              </g>
                            </g>
                          </g>
                        </g>
                      </g>
                    </g>
                  </g>
                </g>
              </g>
              <g id="Group_251" data-name="Group 251" transform="translate(16.87 10.509)">
                <g id="Group_250" data-name="Group 250">
                  <path id="Path_128" data-name="Path 128" d="M340.406,201.379c-3.591.724-3.911-1.1-6.594-3.6a11.794,11.794,0,0,1-3.609-9.949c.406-3.207,2.135-6.47,1.023-9.505-1.47-4.013-7.1-5.248-8.588-9.253-.868-2.328-.089-5.05-1.072-7.331-.925-2.145-3.181-3.381-5.378-4.174s-4.552-1.343-6.4-2.776-2.995-4.139-1.8-6.149a123.764,123.764,0,0,1,28.533,6.933c2.131.8,4.37,1.753,5.63,3.647,1.333,2,1.269,4.593,1.157,7L341.665,201.4" transform="translate(-307.501 -148.644)" fill="#263238"/>
                </g>
              </g>
            </g>
            <g id="Group_255" data-name="Group 255" transform="translate(17.065 6.1)">
              <g id="Group_254" data-name="Group 254">
                <g id="Group_253" data-name="Group 253">
                  <path id="Path_129" data-name="Path 129" d="M348.874,193.685c.008.006.056-.049.143-.163a4.591,4.591,0,0,0,.36-.522,6.944,6.944,0,0,0,.861-2.283,8.03,8.03,0,0,0-.21-3.856,7.374,7.374,0,0,0-3.039-4.087c-1.549-1.092-3.566-1.853-4.848-3.591a3.919,3.919,0,0,1-.709-3.066,17.5,17.5,0,0,1,1.136-3.388,9.745,9.745,0,0,0-.168-7.8,8.541,8.541,0,0,0-2.65-3.292,10.347,10.347,0,0,0-4-1.66c-1.414-.323-2.825-.51-4.134-.905a8.065,8.065,0,0,1-3.462-1.893,5.752,5.752,0,0,1-1.5-3.426,29.346,29.346,0,0,0-.615-3.8,13.086,13.086,0,0,0-3.524-6.177,10.317,10.317,0,0,0-5.548-2.752,8.243,8.243,0,0,0-5.047.764,7.977,7.977,0,0,0-2.92,2.528,6.753,6.753,0,0,0-1.021,2.216,3.466,3.466,0,0,0-.127.84,8.3,8.3,0,0,1,1.329-2.925,7.869,7.869,0,0,1,7.723-3.022,9.951,9.951,0,0,1,5.281,2.694,12.67,12.67,0,0,1,3.342,5.968,29.393,29.393,0,0,1,.585,3.745,6.291,6.291,0,0,0,1.643,3.739,8.586,8.586,0,0,0,3.7,2.046c1.372.414,2.787.6,4.172.918a9.818,9.818,0,0,1,3.794,1.561,7.992,7.992,0,0,1,2.478,3.069,9.222,9.222,0,0,1,.183,7.371,17.653,17.653,0,0,0-1.14,3.5,4.413,4.413,0,0,0,.823,3.422c1.425,1.873,3.5,2.6,5,3.646a7.066,7.066,0,0,1,2.961,3.848,7.95,7.95,0,0,1,.3,3.721A8.756,8.756,0,0,1,348.874,193.685Z" transform="translate(-307.844 -140.923)" fill="#455a64"/>
                </g>
              </g>
            </g>
          </g>
          <g id="Group_262" data-name="Group 262" transform="translate(33.659 54.933)">
            <g id="Group_259" data-name="Group 259">
              <g id="Group_257" data-name="Group 257" transform="translate(0.033)">
                <path id="Path_130" data-name="Path 130" d="M344.377,210.6a33.034,33.034,0,0,0-1.526,21.778c.591,2.136,1.407,4.351.9,6.509-.547,2.336-2.5,4.027-3.925,5.957a14.7,14.7,0,0,0,4.506,21.484c.377-2.147,2.375-3.611,4.346-4.545s4.147-1.626,5.65-3.206,1.928-4.476.181-5.781c5.026-1.313,7.875-7.284,6.817-12.371s-5.195-9.105-9.9-11.309" transform="translate(-336.963 -210.604)" fill="#263238"/>
              </g>
              <g id="Group_258" data-name="Group 258" transform="translate(0 38.677)">
                <path id="Path_131" data-name="Path 131" d="M349.712,290.371c-.9.493-1.771.934-1.882,1.953-.13,1.2,1.017,3.3,1.429,4.426a6.148,6.148,0,0,1-8.035,7.823c1.608.123,2.973-1.446,3.116-3.054a6.751,6.751,0,0,0-1.595-4.455,44.855,44.855,0,0,1-2.933-3.844c-1.655-2.837-4.113-10.554-2.221-14.876" transform="translate(-336.906 -278.343)" fill="#263238"/>
              </g>
            </g>
            <g id="Group_261" data-name="Group 261" transform="translate(14.719 8.781)">
              <g id="Group_260" data-name="Group 260">
                <path id="Path_132" data-name="Path 132" d="M365.342,259.6a2.086,2.086,0,0,1,.309-.261c.21-.16.513-.4.9-.725a19.959,19.959,0,0,0,2.935-3.036,15.253,15.253,0,0,0,2.782-5.548,12.5,12.5,0,0,0-.368-7.5,11.088,11.088,0,0,0-2.066-3.337c-.84-.967-1.756-1.809-2.615-2.627a26.98,26.98,0,0,1-2.343-2.439,10.475,10.475,0,0,1-1.536-2.526,6.672,6.672,0,0,1-.5-4.2,4.446,4.446,0,0,1,.427-1.082,2.1,2.1,0,0,1,.221-.339,7.489,7.489,0,0,0-.535,1.447,6.7,6.7,0,0,0,.583,4.086,10.427,10.427,0,0,0,1.534,2.453,27.4,27.4,0,0,0,2.341,2.4c.862.811,1.788,1.654,2.646,2.635a11.3,11.3,0,0,1,2.123,3.42,12.663,12.663,0,0,1,.357,7.674,15.2,15.2,0,0,1-2.882,5.61,18.538,18.538,0,0,1-3.027,3c-.4.309-.713.539-.934.684A2.072,2.072,0,0,1,365.342,259.6Z" transform="translate(-362.685 -225.983)" fill="#455a64"/>
              </g>
            </g>
          </g>
        </g>
      </g>
    </g>
    <g id="Plant" transform="translate(-299.413 19041.244)">
      <g id="Group_282" data-name="Group 282" transform="translate(0 0)">
        <g id="Group_266" data-name="Group 266" transform="translate(17.944)">
          <g id="Group_265" data-name="Group 265">
            <path id="Path_133" data-name="Path 133" d="M78.718,389.3c1.443,1.808,3.979,1.02,5.1-.21a9.644,9.644,0,0,0,1.879-4.56c.82-3.713,1.637-7.6.623-11.269a6.228,6.228,0,0,0-1.62-2.951,3.252,3.252,0,0,0-3.141-.83c-1.276.424-2,1.747-2.51,2.992a26.711,26.711,0,0,0-1.914,11.608,9.262,9.262,0,0,0,1.584,5.219" transform="translate(-77.088 -369.349)" fill="#3a2dac"/>
          </g>
        </g>
        <g id="Group_270" data-name="Group 270" transform="translate(22.821 27.826)">
          <g id="Group_269" data-name="Group 269">
            <path id="Path_135" data-name="Path 135" d="M87.948,419.475a11.5,11.5,0,0,1,7.067-1.313,5.926,5.926,0,0,1,3.617,1.349,2.536,2.536,0,0,1,.257,3.51,3.382,3.382,0,0,1-2.183.7c-1.884.1-3.994-.1-5.427,1.124-.817.7-1.321,1.811-2.327,2.193a2.431,2.431,0,0,1-2.744-1.02,4.153,4.153,0,0,1-.494-3.04A4.682,4.682,0,0,1,87.948,419.475Z" transform="translate(-85.63 -418.083)" fill="#5a4bda"/>
          </g>
        </g>
        <g id="Group_272" data-name="Group 272" transform="translate(0 7.364)">
          <g id="Group_271" data-name="Group 271">
            <path id="Path_136" data-name="Path 136" d="M61.768,397.775a6.9,6.9,0,0,0,.673-6.4,12.231,12.231,0,0,0-4.094-5.206,20.236,20.236,0,0,0-6.968-3.541,7.181,7.181,0,0,0-3.054-.323A3.177,3.177,0,0,0,45.886,384c-.622,1.393.159,2.986.976,4.274a51.276,51.276,0,0,0,4.836,6.442,11.968,11.968,0,0,0,5.115,3.852c2.065.644,4.153.421,5.133-1.044" transform="translate(-45.661 -382.245)" fill="#5a4bda"/>
          </g>
        </g>
        <g id="Group_275" data-name="Group 275" transform="translate(21.172 30.485)">
          <g id="Group_274" data-name="Group 274">
            <g id="Group_273" data-name="Group 273">
              <path id="Path_137" data-name="Path 137" d="M82.85,440.748a4.169,4.169,0,0,0,.066-.867c.022-.629.049-1.419.081-2.36a34.079,34.079,0,0,1,.311-3.475,26.594,26.594,0,0,1,1-4.139,15.009,15.009,0,0,1,1.843-3.806,7.762,7.762,0,0,1,2.485-2.344,7.348,7.348,0,0,1,2.165-.827,4.129,4.129,0,0,0,.848-.178,4.044,4.044,0,0,0-.872.041,6.71,6.71,0,0,0-2.265.744,7.748,7.748,0,0,0-2.627,2.373,14.654,14.654,0,0,0-1.914,3.884A24.873,24.873,0,0,0,82.983,434a29.219,29.219,0,0,0-.238,3.513c-.012,1,.011,1.809.033,2.368A3.991,3.991,0,0,0,82.85,440.748Z" transform="translate(-82.741 -422.741)" fill="#263238"/>
            </g>
          </g>
        </g>
        <g id="Group_278" data-name="Group 278" transform="translate(20.622 7.623)">
          <g id="Group_277" data-name="Group 277">
            <g id="Group_276" data-name="Group 276">
              <path id="Path_138" data-name="Path 138" d="M82.485,421.755a1.7,1.7,0,0,0,0-.4c-.019-.3-.044-.677-.074-1.14-.065-.99-.155-2.422-.214-4.194-.135-3.543-.138-8.446.113-13.851s.736-10.287,1.234-13.8c.115-.879.236-1.672.353-2.366s.2-1.3.3-1.781c.08-.457.145-.83.2-1.126a1.707,1.707,0,0,0,.045-.4,1.653,1.653,0,0,0-.115.383l-.263,1.113c-.116.484-.23,1.081-.359,1.775s-.275,1.484-.406,2.364a129.678,129.678,0,0,0-1.341,13.816c-.251,5.416-.208,10.331-.009,13.879.09,1.775.219,3.208.326,4.2l.142,1.136A1.7,1.7,0,0,0,82.485,421.755Z" transform="translate(-81.779 -382.7)" fill="#263238"/>
            </g>
          </g>
        </g>
        <g id="Group_281" data-name="Group 281" transform="translate(6.457 11.581)">
          <g id="Group_280" data-name="Group 280">
            <g id="Group_279" data-name="Group 279">
              <path id="Path_139" data-name="Path 139" d="M71.27,415.281a7.586,7.586,0,0,0-.083-1.191c-.092-.763-.267-1.863-.568-3.205a42.657,42.657,0,0,0-1.346-4.637,41.751,41.751,0,0,0-2.316-5.441,29.7,29.7,0,0,0-6.342-8.63A14.724,14.724,0,0,0,59.176,391c-.22-.163-.415-.327-.612-.454l-.55-.331a7.638,7.638,0,0,0-1.043-.579,35.73,35.73,0,0,1,3.473,2.726,31.313,31.313,0,0,1,6.2,8.607,44.634,44.634,0,0,1,2.325,5.389,47.92,47.92,0,0,1,1.41,4.587c.331,1.326.542,2.413.676,3.166A7.734,7.734,0,0,0,71.27,415.281Z" transform="translate(-56.97 -389.632)" fill="#263238"/>
            </g>
          </g>
        </g>
      </g>
    </g>
    <g id="Confetti" transform="translate(-309.753 18867.205)">
      <g id="Group_284" data-name="Group 284" transform="translate(112.311 77.251)">
        <g id="Group_283" data-name="Group 283">
          <path id="Path_140" data-name="Path 140" d="M230.153,203.221c-1.053-3.731-5.9-3.369-5.9-3.369l.133,2.594c2.8-.483,4.545,2.8,4.545,2.8Z" transform="translate(-224.251 -199.842)" fill="#5a4bda"/>
        </g>
      </g>
      <g id="Group_286" data-name="Group 286" transform="translate(67.576 37.227)">
        <g id="Group_285" data-name="Group 285">
          <path id="Path_141" data-name="Path 141" d="M148.834,129.745c-2.617.277-2.93,3.564-2.93,3.564l1.752.208c0-1.931,2.395-2.721,2.395-2.721Z" transform="translate(-145.904 -129.745)" fill="#5a4bda"/>
        </g>
      </g>
      <g id="Group_288" data-name="Group 288" transform="translate(94.878 0)">
        <g id="Group_287" data-name="Group 287">
          <path id="Path_142" data-name="Path 142" d="M193.72,66.957c1.6,4.068,7,3.122,7,3.122l-.438-2.9c-3.091.855-5.411-2.637-5.411-2.637Z" transform="translate(-193.72 -64.546)" fill="#5a4bda"/>
        </g>
      </g>
      <g id="Group_290" data-name="Group 290" transform="translate(31.062 71.135)">
        <g id="Group_289" data-name="Group 289">
          <path id="Path_143" data-name="Path 143" d="M84.883,189.131c-2.617.278-2.93,3.564-2.93,3.564l1.752.208c0-1.931,2.4-2.721,2.4-2.721Z" transform="translate(-81.953 -189.131)" fill="#5a4bda"/>
        </g>
      </g>
      <g id="Group_292" data-name="Group 292" transform="translate(41.415 11.687)">
        <g id="Group_291" data-name="Group 291">
          <path id="Path_144" data-name="Path 144" d="M103.446,88.738c.38-2.6-2.725-3.723-2.725-3.723l-.636,1.645c1.871.477,2.041,3,2.041,3Z" transform="translate(-100.085 -85.015)" fill="#5a4bda"/>
        </g>
      </g>
      <g id="Group_294" data-name="Group 294" transform="translate(0 53.668)">
        <g id="Group_293" data-name="Group 293">
          <path id="Path_145" data-name="Path 145" d="M27.58,160.256c-.47,4.084,4.939,5.073,4.939,5.073l.976-2.672c-3.246-.293-3.714-4.116-3.714-4.116Z" transform="translate(-27.551 -158.54)" fill="#5a4bda"/>
        </g>
      </g>
      <g id="Group_296" data-name="Group 296" transform="translate(127.569 32.146)">
        <g id="Group_295" data-name="Group 295">
          <path id="Path_146" data-name="Path 146" d="M252.005,124.378c2.628.15,3.469-3.042,3.469-3.042l-1.695-.489c-.31,1.906-2.8,2.3-2.8,2.3Z" transform="translate(-250.975 -120.847)" fill="#5a4bda"/>
        </g>
      </g>
    </g>
  </g>
</svg>
