<svg width="15" height="17" viewBox="0 0 15 17" fill="none" xmlns="http://www.w3.org/2000/svg">
<path d="M3.02116 0C2.75433 0.000791393 2.49865 0.10714 2.30997 0.295818C2.1213 0.484496 2.01495 0.74017 2.01416 1.007V15.107C2.01495 15.3738 2.1213 15.6295 2.30997 15.8182C2.49865 16.0069 2.75433 16.1132 3.02116 16.114H13.0912C13.358 16.1132 13.6137 16.0069 13.8023 15.8182C13.991 15.6295 14.0974 15.3738 14.0982 15.107V4.028L10.0702 0H3.02116Z" fill="#E2E5E7"/>
<path d="M11.0768 4.028H14.0978L10.0698 0V3.021C10.0706 3.28783 10.177 3.5435 10.3656 3.73218C10.5543 3.92086 10.81 4.02721 11.0768 4.028Z" fill="#B0B7BD"/>
<path d="M14.0981 7.04895L11.0771 4.02795H14.0981V7.04895Z" fill="#CAD1D8"/>
<path d="M12.084 13.092C12.084 13.2246 12.0313 13.3518 11.9376 13.4455C11.8438 13.5393 11.7166 13.592 11.584 13.592H0.5C0.367392 13.592 0.240214 13.5393 0.146446 13.4455C0.052678 13.3518 0 13.2246 0 13.092V8.05298C0 7.92037 0.052678 7.7932 0.146446 7.69943C0.240214 7.60566 0.367392 7.55298 0.5 7.55298H11.581C11.7136 7.55298 11.8408 7.60566 11.9346 7.69943C12.0283 7.7932 12.081 7.92037 12.081 8.05298L12.084 13.092Z" fill="#F15642"/>
<path d="M2.19489 9.54205C2.19462 9.4691 2.22313 9.39897 2.27424 9.34692C2.32536 9.29487 2.39494 9.26509 2.46789 9.26404H3.39789C3.65934 9.27228 3.90732 9.38194 4.08935 9.56979C4.27137 9.75765 4.37316 10.009 4.37316 10.2705C4.37316 10.5321 4.27137 10.7834 4.08935 10.9713C3.90732 11.1591 3.65934 11.2688 3.39789 11.277H2.72589V11.8091C2.72929 11.8447 2.72511 11.8806 2.71361 11.9145C2.70211 11.9483 2.68355 11.9794 2.65917 12.0056C2.63479 12.0317 2.60514 12.0524 2.57216 12.0663C2.53919 12.0802 2.50365 12.0869 2.46789 12.0861C2.43162 12.0863 2.39567 12.0793 2.36216 12.0654C2.32865 12.0516 2.29827 12.0311 2.27281 12.0053C2.24735 11.9794 2.22733 11.9488 2.21395 11.9151C2.20056 11.8814 2.19409 11.8453 2.19489 11.8091V9.54205ZM2.72589 9.77106V10.7711H3.39789C3.53049 10.7711 3.65767 10.7184 3.75144 10.6246C3.84521 10.5308 3.89789 10.4037 3.89789 10.2711C3.89789 10.1384 3.84521 10.0112 3.75144 9.91748C3.65767 9.82371 3.53049 9.77106 3.39789 9.77106H2.72589Z" fill="white"/>
<path d="M5.17986 12.084C5.1449 12.0877 5.10956 12.0839 5.07613 12.0731C5.04269 12.0623 5.0119 12.0446 4.98572 12.0211C4.95954 11.9977 4.93855 11.969 4.9241 11.9369C4.90966 11.9049 4.90209 11.8702 4.90186 11.835V9.54802C4.90792 9.47889 4.93999 9.41464 4.99159 9.36824C5.04319 9.32184 5.11047 9.29674 5.17986 9.29802H6.10185C6.46288 9.30621 6.80663 9.45421 7.06073 9.7108C7.31483 9.96739 7.45945 10.3126 7.46411 10.6737C7.46878 11.0347 7.33314 11.3835 7.08575 11.6466C6.83837 11.9097 6.49854 12.0665 6.13785 12.084H5.17986ZM5.43385 9.78905V11.589H6.10185C6.34055 11.589 6.56947 11.4942 6.73825 11.3254C6.90703 11.1566 7.00185 10.9277 7.00185 10.689C7.00185 10.4503 6.90703 10.2214 6.73825 10.0526C6.56947 9.88385 6.34055 9.78905 6.10185 9.78905H5.43385Z" fill="white"/>
<path d="M8.55579 9.82211V10.4621H9.58279C9.65729 10.4669 9.72758 10.4983 9.78082 10.5507C9.83407 10.603 9.86672 10.6727 9.8728 10.7471C9.86339 10.8163 9.82841 10.8796 9.77475 10.9244C9.72109 10.9692 9.65261 10.9922 9.58279 10.9891H8.55579V11.8341C8.55729 11.8665 8.55216 11.8989 8.54068 11.9293C8.5292 11.9596 8.51165 11.9873 8.48907 12.0106C8.4665 12.034 8.43939 12.0524 8.40942 12.0649C8.37945 12.0773 8.34724 12.0835 8.31479 12.0831C8.2794 12.0871 8.24357 12.0837 8.20956 12.0731C8.17556 12.0625 8.14413 12.045 8.11731 12.0215C8.09049 11.9981 8.06884 11.9693 8.05377 11.937C8.0387 11.9048 8.03053 11.8697 8.02979 11.8341V9.54708C8.03008 9.51129 8.03795 9.47596 8.05286 9.44341C8.06776 9.41087 8.08936 9.38185 8.11627 9.35824C8.14318 9.33463 8.17481 9.31699 8.20901 9.30645C8.24322 9.29591 8.27926 9.29271 8.31479 9.29708H9.72778C9.76317 9.29268 9.7991 9.29589 9.83316 9.30645C9.86722 9.31701 9.89861 9.33471 9.92529 9.35836C9.95197 9.38202 9.97332 9.41108 9.98788 9.44363C10.0025 9.47617 10.0099 9.51143 10.0098 9.54708C10.0093 9.58359 10.0016 9.61966 9.98712 9.65319C9.97267 9.68672 9.95172 9.71707 9.92554 9.74252C9.89935 9.76796 9.8684 9.78799 9.83447 9.80148C9.80054 9.81496 9.76429 9.82163 9.72778 9.8211H8.55579V9.82211Z" fill="white"/>
<path d="M11.5812 13.5909H2.01416V14.0909H11.5812C11.7138 14.0909 11.8409 14.0383 11.9347 13.9445C12.0285 13.8507 12.0812 13.7236 12.0812 13.5909V13.0909C12.0812 13.1566 12.0682 13.2216 12.0431 13.2823C12.018 13.343 11.9811 13.3981 11.9347 13.4445C11.8883 13.4909 11.8332 13.5278 11.7725 13.5529C11.7118 13.578 11.6468 13.5909 11.5812 13.5909Z" fill="#CAD1D8"/>
</svg>
