<svg width="16" height="16" viewBox="0 0 16 16" fill="none" xmlns="http://www.w3.org/2000/svg">
<g id="Group 40282">
<path id="a6885eb6e001cb4ac46645863295fba3" fill-rule="evenodd" clip-rule="evenodd" d="M15.712 13.8607C15.2179 15.3613 13.2822 16.1096 11.9022 15.987C9.90886 15.6967 8.01898 14.9151 6.40266 13.7128C3.97408 11.955 2.01971 9.62186 0.714797 6.92259C0.20923 6.011 -0.0364983 4.97813 0.0043832 3.93651C0.0452646 2.89488 0.371188 1.88446 0.946645 1.01531C1.1449 0.715387 1.41181 0.467076 1.72523 0.290976C2.03865 0.114877 2.38954 0.016067 2.74878 0.00274595C3.84424 -0.0468695 3.99813 0.579906 4.37475 1.55601C4.6552 2.28607 5.0298 3.03233 5.23836 3.78871C5.62916 5.2063 4.26136 5.25996 4.08925 6.41529C3.98294 7.14332 4.86477 8.12045 5.26266 8.64293C6.03139 9.6545 6.97294 10.5221 8.04382 11.2057C8.65128 11.5885 9.63031 12.278 10.3258 11.8973C11.396 11.311 11.2958 9.50563 12.7921 10.1162C13.5675 10.4658 14.3239 10.8561 15.058 11.2857C16.202 11.9013 16.1484 12.5382 15.713 13.8627" fill="#414347"/>
</g>
</svg>
