<svg xmlns="http://www.w3.org/2000/svg" width="32" height="60" viewBox="0 0 32 60">
  <g id="Group_41431" data-name="Group 41431" transform="translate(1350 468) rotate(180)">
    <g id="Rectangle_4527" data-name="Rectangle 4527" transform="translate(1318 408)" fill="#fff" stroke="#ededed" stroke-width="1">
      <path d="M16,0H32a0,0,0,0,1,0,0V60a0,0,0,0,1,0,0H16A16,16,0,0,1,0,44V16A16,16,0,0,1,16,0Z" stroke="none"/>
      <path d="M16,.5H31a.5.5,0,0,1,.5.5V59a.5.5,0,0,1-.5.5H16A15.5,15.5,0,0,1,.5,44V16A15.5,15.5,0,0,1,16,.5Z" fill="none"/>
    </g>
    <g id="noun_Arrow_4024524" transform="translate(1318 422.473)">
      <g id="arrow" transform="translate(0)">
        <rect id="Rectangle_4528" data-name="Rectangle 4528" width="24" height="24" transform="translate(4 3.527)" fill="none"/>
        <path id="Path_6958" data-name="Path 6958" d="M94.929,129.716l7.5,5.822a1.468,1.468,0,0,1,.018,2.313l-7.5,6.019a1.514,1.514,0,0,1-2.109-.214,1.467,1.467,0,0,1,.217-2.082l6.044-4.854-6.026-4.678a1.467,1.467,0,0,1-.249-2.079A1.525,1.525,0,0,1,94.929,129.716Z" transform="translate(-81.75 -121.275)" fill="#333"/>
      </g>
    </g>
  </g>
</svg>
