<svg width="1440" height="688" viewBox="0 0 1440 688" fill="none" xmlns="http://www.w3.org/2000/svg">
<rect width="1440" height="688" fill="url(#paint0_linear_537_44441)"/>
<g clip-path="url(#clip0_537_44441)">
<path d="M87.7805 92.4113C88.1391 92.2043 88.262 91.7454 88.055 91.3868C87.848 91.0282 87.3891 90.9053 87.0305 91.1123L40.1907 118.155L31.048 102.32L34.5708 102.376C34.6136 102.494 34.652 102.615 34.7142 102.722C34.7793 102.835 39.6413 111.266 39.7065 111.379C41.5932 114.647 51.3426 111.297 59.9978 106.3C68.635 101.313 76.3952 94.5658 74.5649 91.288C74.5591 91.2766 74.5595 91.2639 74.553 91.2526C69.0642 81.8058 69.6994 82.7415 69.327 82.3025L73.8845 74.1084C74.0223 73.8608 74.0093 73.557 73.8504 73.3229C73.6921 73.0896 73.4154 72.964 73.135 72.9996L43.2981 76.7856C43.0984 76.8107 42.9174 76.9152 42.7958 77.0756L24.5978 101.023C24.4267 101.248 24.3966 101.549 24.52 101.804C24.6428 102.058 24.8986 102.221 25.181 102.226L29.2999 102.292L38.9077 118.933C35.6033 121.216 34.544 125.703 36.5868 129.241C38.7367 132.965 43.5164 134.246 47.2402 132.096L94.8293 104.62C95.1879 104.413 95.3109 103.954 95.1038 103.596C94.8968 103.237 94.4379 103.114 94.0793 103.321C91.071 105.058 87.2118 104.024 85.4749 101.016C83.7381 98.0074 84.7722 94.1481 87.7805 92.4113ZM68.2608 83.3542L72.0919 89.9898C66.4219 89.9603 59.1452 93.519 54.2503 96.3451C50.0366 98.7778 41.8759 104.187 39.8438 108.607L36.0132 101.972C35.8071 101.615 35.9897 101.053 36.1603 100.676C37.4421 97.7521 43.1338 92.9403 50.0011 88.9755C59.2049 83.6617 67.301 81.6919 68.2608 83.3542ZM59.2478 105.001C43.9472 113.835 40.3212 110.609 41.0064 110.621C40.8031 110.269 40.9528 109.728 41.113 109.353C42.7657 105.48 50.8122 100.068 55.0069 97.6459C57.889 95.9819 71.5899 89.1302 73.2532 92.011C74.1399 93.5468 69.2409 99.2316 59.2478 105.001ZM43.7994 78.2339L71.8534 74.6744L68.0511 81.5087C63.6385 80.1773 53.2777 85.3517 49.2511 87.6764C45.2213 90.003 35.5797 96.3182 34.5084 100.876L26.6869 100.752L43.7994 78.2339ZM41.805 122.461C42.9323 121.81 44.3784 122.198 45.0293 123.325L45.7202 124.522L41.6421 126.876L40.9512 125.68C40.3003 124.552 40.6836 123.109 41.805 122.461ZM83.8417 101.096L54.8683 117.824L55.6183 119.123L84.5921 102.395C85.9185 104.253 87.9455 105.385 90.101 105.618L46.4902 130.797C43.4819 132.534 39.6226 131.5 37.8858 128.491C36.2561 125.669 37.0664 122.097 39.6577 120.232L40.4475 121.6C39.0925 122.786 38.7157 124.808 39.6522 126.43L40.7181 128.276C40.9251 128.634 41.384 128.757 41.7426 128.55L47.1197 125.446C47.4783 125.239 47.6013 124.78 47.3943 124.421L46.3283 122.575C45.3931 120.955 43.4544 120.272 41.7469 120.851L40.9407 119.454L83.8022 94.7082C82.9259 96.6932 82.893 99.0167 83.8417 101.096Z" fill="url(#paint1_linear_537_44441)" fill-opacity="0.6"/>
</g>
<g clip-path="url(#clip1_537_44441)">
<path d="M765.042 82.4113C765.401 82.2043 765.524 81.7454 765.317 81.3868C765.11 81.0282 764.651 80.9053 764.292 81.1123L717.452 108.155L708.31 92.3197L711.833 92.376C711.875 92.4942 711.914 92.6148 711.976 92.7224C712.041 92.8354 716.903 101.266 716.968 101.379C718.855 104.647 728.604 101.297 737.26 96.3001C745.897 91.3135 753.657 84.5658 751.827 81.288C751.821 81.2766 751.821 81.2639 751.815 81.2526C746.326 71.8058 746.961 72.7415 746.589 72.3025L751.146 64.1084C751.284 63.8608 751.271 63.557 751.112 63.3229C750.954 63.0896 750.677 62.964 750.397 62.9996L720.56 66.7856C720.36 66.8107 720.179 66.9152 720.058 67.0756L701.859 91.0226C701.688 91.2477 701.658 91.5492 701.782 91.8038C701.905 92.0577 702.16 92.2213 702.443 92.2262L706.562 92.2919L716.169 108.933C712.865 111.216 711.806 115.703 713.849 119.241C715.998 122.965 720.778 124.246 724.502 122.096L772.091 94.6203C772.45 94.4132 772.573 93.9543 772.366 93.5957C772.159 93.2372 771.7 93.1142 771.341 93.3212C768.333 95.058 764.473 94.0239 762.737 91.0157C761 88.0074 762.034 84.1481 765.042 82.4113ZM745.523 73.3542L749.354 79.9898C743.684 79.9603 736.407 83.519 731.512 86.3451C727.298 88.7778 719.138 94.1867 717.105 98.6071L713.275 91.9724C713.069 91.6154 713.251 91.0525 713.422 90.6764C714.704 87.7521 720.395 82.9403 727.263 78.9755C736.467 73.6617 744.563 71.6919 745.523 73.3542ZM736.51 95.0011C721.209 103.835 717.583 100.609 718.268 100.621C718.065 100.269 718.215 99.7281 718.375 99.3527C720.027 95.4803 728.074 90.0677 732.269 87.6459C735.151 85.9819 748.852 79.1302 750.515 82.011C751.402 83.5468 746.503 89.2316 736.51 95.0011ZM721.061 68.2339L749.115 64.6744L745.313 71.5087C740.9 70.1773 730.539 75.3517 726.513 77.6764C722.483 80.003 712.841 86.3182 711.77 90.8757L703.949 90.7524L721.061 68.2339ZM719.067 112.461C720.194 111.81 721.64 112.198 722.291 113.325L722.982 114.522L718.904 116.876L718.213 115.68C717.562 114.552 717.945 113.109 719.067 112.461ZM761.103 91.096L732.13 107.824L732.88 109.123L761.854 92.3948C763.18 94.2532 765.207 95.3846 767.363 95.6181L723.752 120.797C720.744 122.534 716.884 121.5 715.148 118.491C713.518 115.669 714.328 112.097 716.919 110.232L717.709 111.6C716.354 112.786 715.977 114.808 716.914 116.43L717.98 118.276C718.187 118.634 718.646 118.757 719.004 118.55L724.381 115.446C724.74 115.239 724.863 114.78 724.656 114.421L723.59 112.575C722.655 110.955 720.716 110.272 719.009 110.851L718.202 109.454L761.064 84.7082C760.188 86.6932 760.155 89.0167 761.103 91.096Z" fill="url(#paint2_linear_537_44441)" fill-opacity="0.6"/>
</g>
<g clip-path="url(#clip2_537_44441)">
<path d="M756.607 332.803C756.849 332.931 757.149 332.839 757.277 332.598C757.405 332.356 757.312 332.057 757.071 331.929L725.53 315.216L731.18 304.553L732.384 306.543C732.333 306.608 732.279 306.672 732.24 306.744C732.2 306.82 729.19 312.494 729.15 312.57C727.984 314.771 733.274 319.048 739.102 322.136C744.919 325.218 751.412 327.192 752.603 325.02C752.608 325.013 752.615 325.008 752.619 325.001C755.977 318.62 755.677 319.303 755.792 318.941L761.971 318.617C762.158 318.608 762.323 318.494 762.398 318.323C762.473 318.153 762.447 317.954 762.328 317.81L749.753 302.453C749.669 302.35 749.547 302.285 749.414 302.273L729.645 300.491C729.459 300.475 729.28 300.564 729.181 300.722C729.082 300.88 729.08 301.08 729.176 301.24L730.583 303.566L724.646 314.772C722.211 313.724 719.33 314.705 718.068 317.087C716.739 319.594 717.699 322.716 720.206 324.045L752.251 341.025C752.493 341.153 752.793 341.06 752.92 340.819C753.048 340.577 752.956 340.278 752.715 340.15C750.689 339.076 749.915 336.556 750.988 334.53C752.061 332.505 754.582 331.73 756.607 332.803ZM754.83 318.714L752.462 323.182C750.491 320.001 745.951 317.179 742.654 315.433C739.817 313.929 733.932 311.262 730.748 311.675L733.115 307.208C733.242 306.967 733.621 306.872 733.891 306.836C735.976 306.527 740.662 308.023 745.286 310.474C751.483 313.758 755.423 317.594 754.83 318.714ZM739.566 321.262C729.263 315.802 729.796 312.644 730.029 313.031C730.155 312.794 730.51 312.688 730.776 312.646C733.52 312.213 739.368 314.815 742.192 316.312C744.133 317.34 752.767 322.6 751.739 324.54C751.191 325.574 746.295 324.827 739.566 321.262ZM749.118 303.24L760.943 317.68L755.788 317.949C754.986 315.015 748.461 311.036 745.749 309.599C743.036 308.161 736.125 304.983 733.201 305.982L730.528 301.565L749.118 303.24ZM723.688 317.628C724.448 318.031 724.738 318.975 724.336 319.734L723.909 320.54L721.162 319.085L721.589 318.279C721.992 317.52 722.933 317.228 723.688 317.628ZM750.371 333.645L730.861 323.307L730.397 324.182L749.907 334.52C749.333 335.913 749.411 337.443 750.036 338.73L720.67 323.17C718.644 322.097 717.869 319.576 718.943 317.551C719.95 315.65 722.231 314.851 724.182 315.646L723.694 316.567C722.556 316.225 721.293 316.723 720.715 317.816L720.056 319.059C719.928 319.3 720.02 319.6 720.262 319.728L723.882 321.646C724.124 321.774 724.424 321.682 724.552 321.441L725.21 320.198C725.788 319.107 725.491 317.783 724.569 317.031L725.067 316.091L753.929 331.384C752.511 331.59 751.201 332.386 750.371 333.645Z" fill="url(#paint3_linear_537_44441)" fill-opacity="0.6"/>
</g>
<g clip-path="url(#clip3_537_44441)">
<path d="M848.914 478.117C849.156 478.245 849.455 478.153 849.583 477.912C849.711 477.67 849.619 477.371 849.378 477.243L817.837 460.53L823.487 449.867L824.69 451.857C824.639 451.922 824.585 451.986 824.547 452.058C824.507 452.134 821.497 457.808 821.456 457.884C820.29 460.085 825.581 464.362 831.409 467.45C837.225 470.532 843.719 472.506 844.91 470.334C844.914 470.326 844.921 470.322 844.925 470.315C848.284 463.934 847.983 464.617 848.098 464.255L854.278 463.931C854.465 463.922 854.63 463.808 854.705 463.637C854.78 463.467 854.753 463.268 854.635 463.124L842.059 447.766C841.975 447.664 841.853 447.599 841.721 447.587L821.951 445.805C821.766 445.789 821.586 445.878 821.487 446.036C821.388 446.193 821.387 446.394 821.483 446.554L822.89 448.88L816.952 460.085C814.517 459.038 811.637 460.018 810.375 462.401C809.046 464.908 810.005 468.03 812.513 469.359L844.558 486.339C844.799 486.466 845.099 486.374 845.227 486.133C845.355 485.891 845.263 485.592 845.021 485.464C842.996 484.39 842.221 481.87 843.295 479.844C844.368 477.819 846.888 477.044 848.914 478.117ZM847.136 464.028L844.769 468.496C842.798 465.315 838.257 462.493 834.961 460.747C832.124 459.243 826.239 456.576 823.054 456.989L825.422 452.522C825.549 452.281 825.928 452.186 826.198 452.15C828.283 451.841 832.968 453.337 837.593 455.788C843.79 459.071 847.73 462.908 847.136 464.028ZM831.873 466.576C821.57 461.116 822.102 457.958 822.336 458.345C822.462 458.108 822.816 458.002 823.082 457.96C825.827 457.527 831.674 460.129 834.499 461.626C836.44 462.654 845.074 467.914 844.046 469.854C843.498 470.888 838.602 470.141 831.873 466.576ZM841.425 448.554L853.249 462.994L848.095 463.263C847.293 460.329 840.767 456.35 838.056 454.913C835.343 453.475 828.431 450.297 825.507 451.296L822.835 446.879L841.425 448.554ZM815.995 462.942C816.754 463.344 817.044 464.289 816.642 465.048L816.215 465.854L813.469 464.399L813.896 463.593C814.298 462.834 815.24 462.542 815.995 462.942ZM842.677 478.959L823.167 468.621L822.704 469.496L842.214 479.834C841.64 481.227 841.718 482.757 842.343 484.044L812.976 468.484C810.951 467.411 810.176 464.89 811.249 462.864C812.256 460.964 814.538 460.165 816.489 460.96L816.001 461.881C814.863 461.539 813.6 462.037 813.021 463.129L812.363 464.373C812.235 464.614 812.327 464.914 812.568 465.042L816.189 466.96C816.431 467.088 816.73 466.996 816.858 466.755L817.517 465.512C818.095 464.421 817.798 463.097 816.875 462.345L817.373 461.405L846.235 476.698C844.818 476.904 843.507 477.7 842.677 478.959Z" fill="url(#paint4_linear_537_44441)" fill-opacity="0.6"/>
</g>
<g clip-path="url(#clip4_537_44441)">
<path d="M578.739 625.285C578.967 625.153 579.045 624.861 578.913 624.632C578.782 624.403 578.489 624.325 578.261 624.457L548.408 641.692L542.581 631.6L544.827 631.636C544.854 631.711 544.878 631.788 544.918 631.856C544.959 631.928 548.058 637.302 548.1 637.374C549.302 639.456 555.516 637.321 561.032 634.137C566.537 630.959 571.482 626.658 570.316 624.569C570.312 624.562 570.312 624.554 570.308 624.546C566.81 618.526 567.215 619.122 566.978 618.842L569.882 613.62C569.97 613.462 569.962 613.269 569.861 613.119C569.76 612.971 569.583 612.891 569.405 612.913L550.389 615.326C550.261 615.342 550.146 615.409 550.069 615.511L538.47 630.773C538.361 630.917 538.342 631.109 538.421 631.271C538.499 631.433 538.662 631.537 538.842 631.54L541.467 631.582L547.591 642.188C545.485 643.643 544.809 646.503 546.111 648.758C547.482 651.131 550.528 651.947 552.901 650.577L583.231 633.066C583.459 632.934 583.538 632.642 583.406 632.413C583.274 632.185 582.981 632.106 582.753 632.238C580.836 633.345 578.376 632.686 577.269 630.769C576.162 628.852 576.821 626.392 578.739 625.285ZM566.298 619.513L568.74 623.742C565.126 623.723 560.488 625.991 557.369 627.792C554.683 629.342 549.482 632.79 548.187 635.607L545.746 631.378C545.614 631.151 545.731 630.792 545.84 630.552C546.657 628.689 550.284 625.622 554.661 623.095C560.527 619.709 565.686 618.453 566.298 619.513ZM560.554 633.309C550.802 638.939 548.491 636.883 548.928 636.89C548.799 636.666 548.894 636.321 548.996 636.082C550.049 633.614 555.178 630.165 557.851 628.621C559.688 627.561 568.42 623.194 569.48 625.03C570.045 626.009 566.923 629.632 560.554 633.309ZM550.708 616.249L568.588 613.981L566.164 618.336C563.352 617.488 556.749 620.786 554.183 622.267C551.614 623.75 545.47 627.775 544.787 630.68L539.802 630.601L550.708 616.249ZM549.437 644.437C550.156 644.022 551.077 644.269 551.492 644.987L551.932 645.75L549.333 647.25L548.893 646.488C548.478 645.769 548.722 644.849 549.437 644.437ZM576.228 630.82L557.763 641.481L558.241 642.309L576.706 631.648C577.552 632.832 578.844 633.553 580.217 633.702L552.423 649.749C550.506 650.856 548.046 650.197 546.939 648.28C545.901 646.481 546.417 644.204 548.069 643.016L548.572 643.888C547.708 644.643 547.468 645.932 548.065 646.966L548.744 648.142C548.876 648.371 549.169 648.449 549.397 648.317L552.824 646.339C553.053 646.207 553.131 645.914 552.999 645.686L552.32 644.509C551.724 643.477 550.488 643.041 549.4 643.41L548.886 642.52L576.203 626.749C575.645 628.014 575.624 629.495 576.228 630.82Z" fill="url(#paint5_linear_537_44441)" fill-opacity="0.6"/>
</g>
<g clip-path="url(#clip5_537_44441)">
<path d="M1255.74 583.285C1255.97 583.153 1256.05 582.861 1255.91 582.632C1255.78 582.403 1255.49 582.325 1255.26 582.457L1225.41 599.692L1219.58 589.6L1221.83 589.636C1221.85 589.711 1221.88 589.788 1221.92 589.856C1221.96 589.928 1225.06 595.302 1225.1 595.374C1226.3 597.456 1232.52 595.321 1238.03 592.137C1243.54 588.959 1248.48 584.658 1247.32 582.569C1247.31 582.562 1247.31 582.554 1247.31 582.546C1243.81 576.526 1244.21 577.122 1243.98 576.842L1246.88 571.62C1246.97 571.462 1246.96 571.269 1246.86 571.119C1246.76 570.971 1246.58 570.891 1246.4 570.913L1227.39 573.326C1227.26 573.342 1227.15 573.409 1227.07 573.511L1215.47 588.773C1215.36 588.917 1215.34 589.109 1215.42 589.271C1215.5 589.433 1215.66 589.537 1215.84 589.54L1218.47 589.582L1224.59 600.188C1222.48 601.643 1221.81 604.503 1223.11 606.758C1224.48 609.131 1227.53 609.947 1229.9 608.577L1260.23 591.066C1260.46 590.934 1260.54 590.642 1260.41 590.413C1260.27 590.185 1259.98 590.106 1259.75 590.238C1257.84 591.345 1255.38 590.686 1254.27 588.769C1253.16 586.852 1253.82 584.392 1255.74 583.285ZM1243.3 577.513L1245.74 581.742C1242.13 581.723 1237.49 583.991 1234.37 585.792C1231.68 587.342 1226.48 590.79 1225.19 593.607L1222.75 589.378C1222.61 589.151 1222.73 588.792 1222.84 588.552C1223.66 586.689 1227.28 583.622 1231.66 581.095C1237.53 577.709 1242.69 576.453 1243.3 577.513ZM1237.55 591.309C1227.8 596.939 1225.49 594.883 1225.93 594.89C1225.8 594.666 1225.89 594.321 1226 594.082C1227.05 591.614 1232.18 588.165 1234.85 586.621C1236.69 585.561 1245.42 581.194 1246.48 583.03C1247.04 584.009 1243.92 587.632 1237.55 591.309ZM1227.71 574.249L1245.59 571.981L1243.16 576.336C1240.35 575.488 1233.75 578.786 1231.18 580.267C1228.61 581.75 1222.47 585.775 1221.79 588.68L1216.8 588.601L1227.71 574.249ZM1226.44 602.437C1227.16 602.022 1228.08 602.269 1228.49 602.987L1228.93 603.75L1226.33 605.25L1225.89 604.488C1225.48 603.769 1225.72 602.849 1226.44 602.437ZM1253.23 588.82L1234.76 599.481L1235.24 600.309L1253.71 589.648C1254.55 590.832 1255.84 591.553 1257.22 591.702L1229.42 607.749C1227.51 608.856 1225.05 608.197 1223.94 606.28C1222.9 604.481 1223.42 602.204 1225.07 601.016L1225.57 601.888C1224.71 602.643 1224.47 603.932 1225.06 604.966L1225.74 606.142C1225.88 606.371 1226.17 606.449 1226.4 606.317L1229.82 604.339C1230.05 604.207 1230.13 603.914 1230 603.686L1229.32 602.509C1228.72 601.477 1227.49 601.041 1226.4 601.41L1225.89 600.52L1253.2 584.749C1252.64 586.014 1252.62 587.495 1253.23 588.82Z" fill="url(#paint6_linear_537_44441)" fill-opacity="0.6"/>
</g>
<g clip-path="url(#clip6_537_44441)">
<path d="M308.12 339.622L319.885 345.298M316.301 352.728L304.372 346.974C301.101 345.461 297.446 344.985 293.896 345.61" stroke="url(#paint7_linear_537_44441)" stroke-opacity="0.6" stroke-width="2" stroke-linejoin="round"/>
<path d="M319.989 345.348L332.522 344.813C334.614 344.83 336.423 346.072 336.369 348.147C336.349 348.905 336.069 349.633 335.575 350.208C335.081 350.783 334.403 351.171 333.657 351.305L316.404 352.778" stroke="url(#paint8_linear_537_44441)" stroke-opacity="0.6" stroke-width="2" stroke-linecap="round" stroke-linejoin="round"/>
<path d="M299.252 333.579L304.575 333.179C306.206 333.066 307.838 333.38 309.311 334.09L315.986 337.31C316.621 337.635 317.101 338.198 317.321 338.877C317.54 339.555 317.482 340.293 317.158 340.929C316.862 341.578 316.321 342.083 315.653 342.333C314.985 342.584 314.246 342.559 313.596 342.264L309.977 340.518" stroke="url(#paint9_linear_537_44441)" stroke-opacity="0.6" stroke-width="2" stroke-linejoin="round"/>
<path d="M317.94 338.253L319.732 334.538M321.036 339.746L322.828 336.031M321.889 334.815L323.681 331.099M329.939 338.698L331.731 334.982M326.071 326.146L327.863 322.43M334.12 330.029L335.913 326.313M322.122 329.584L323.914 325.869M325.218 331.077L327.01 327.362M326.304 320.915L328.096 317.2M329.4 322.408L331.192 318.693M316.316 332.126L331.796 339.594L329.705 343.928L314.225 336.461L316.316 332.126ZM320.264 328.688L335.745 336.156L333.654 340.49L318.173 333.022L320.264 328.688ZM324.446 320.019L339.927 327.486L337.836 331.821L322.355 324.353L324.446 320.019ZM320.498 323.457L335.978 330.925L333.887 335.259L318.407 327.792L320.498 323.457ZM324.68 314.788L340.16 322.256L338.069 326.59L322.589 319.123L324.68 314.788Z" stroke="url(#paint10_linear_537_44441)" stroke-opacity="0.6" stroke-width="2" stroke-miterlimit="10"/>
</g>
<g clip-path="url(#clip7_537_44441)">
<path d="M1322.01 163.249L1333.77 168.924M1330.19 176.355L1318.26 170.601C1314.99 169.088 1311.33 168.612 1307.78 169.237" stroke="url(#paint11_linear_537_44441)" stroke-opacity="0.6" stroke-width="2" stroke-linejoin="round"/>
<path d="M1333.88 168.974L1346.41 168.44C1348.5 168.457 1350.31 169.699 1350.26 171.773C1350.24 172.531 1349.96 173.259 1349.46 173.835C1348.97 174.41 1348.29 174.797 1347.55 174.931L1330.29 176.405" stroke="url(#paint12_linear_537_44441)" stroke-opacity="0.6" stroke-width="2" stroke-linecap="round" stroke-linejoin="round"/>
<path d="M1313.14 157.205L1318.46 156.806C1320.09 156.693 1321.73 157.007 1323.2 157.717L1329.87 160.937C1330.51 161.261 1330.99 161.825 1331.21 162.503C1331.43 163.182 1331.37 163.92 1331.05 164.555C1330.75 165.204 1330.21 165.709 1329.54 165.96C1328.87 166.21 1328.13 166.185 1327.48 165.89L1323.87 164.145" stroke="url(#paint13_linear_537_44441)" stroke-opacity="0.6" stroke-width="2" stroke-linejoin="round"/>
<path d="M1331.83 161.879L1333.62 158.164M1334.92 163.373L1336.72 159.658M1335.78 158.441L1337.57 154.726M1343.83 162.324L1345.62 158.609M1339.96 149.772L1341.75 146.057M1348.01 153.655L1349.8 149.94M1336.01 153.21L1337.8 149.495M1339.11 154.704L1340.9 150.989M1340.19 144.541L1341.98 140.826M1343.29 146.035L1345.08 142.32M1330.2 155.753L1345.68 163.22L1343.59 167.555L1328.11 160.087L1330.2 155.753ZM1334.15 152.314L1349.63 159.782L1347.54 164.116L1332.06 156.649L1334.15 152.314ZM1338.34 143.645L1353.82 151.113L1351.72 155.447L1336.24 147.98L1338.34 143.645ZM1334.39 147.084L1349.87 154.551L1347.78 158.886L1332.3 151.418L1334.39 147.084ZM1338.57 138.415L1354.05 145.882L1351.96 150.217L1336.48 142.749L1338.57 138.415Z" stroke="url(#paint14_linear_537_44441)" stroke-opacity="0.6" stroke-width="2" stroke-miterlimit="10"/>
</g>
<g clip-path="url(#clip8_537_44441)">
<path d="M196.754 176.853L208.874 171.982M211.951 179.636L199.662 184.576C196.341 185.974 193.527 188.355 191.598 191.399" stroke="url(#paint15_linear_537_44441)" stroke-opacity="0.6" stroke-width="2" stroke-linejoin="round"/>
<path d="M208.981 171.939L217.029 162.316C218.451 160.781 220.587 160.281 222.084 161.718C222.631 162.244 222.98 162.941 223.072 163.694C223.165 164.447 222.995 165.208 222.591 165.85L212.058 179.593" stroke="url(#paint16_linear_537_44441)" stroke-opacity="0.6" stroke-width="2" stroke-linecap="round" stroke-linejoin="round"/>
<path d="M186.314 179.336L189.604 175.133C190.62 173.852 191.952 172.857 193.468 172.246L200.344 169.482C201.012 169.232 201.752 169.257 202.401 169.551C203.051 169.846 203.557 170.387 203.808 171.054C204.089 171.71 204.098 172.45 203.833 173.112C203.568 173.774 203.051 174.304 202.396 174.586L198.668 176.084" stroke="url(#paint17_linear_537_44441)" stroke-opacity="0.6" stroke-width="2" stroke-linejoin="round"/>
<path d="M202.357 168.673L200.819 164.846M205.547 167.391L204.009 163.564M202.476 163.439L200.938 159.611M210.769 160.105L209.231 156.278M198.887 154.508L197.348 150.681M207.179 151.175L205.641 147.348M198.768 159.743L197.229 155.915M201.957 158.461L200.419 154.633M195.178 150.812L193.64 146.985M198.368 149.53L196.829 145.703M196.735 165.746L212.683 159.336L214.478 163.802L198.53 170.212L196.735 165.746ZM196.854 160.512L212.802 154.102L214.596 158.567L198.649 164.977L196.854 160.512ZM193.264 151.581L209.212 145.171L211.007 149.636L195.059 156.047L193.264 151.581ZM193.146 156.816L209.093 150.406L210.888 154.871L194.94 161.281L193.146 156.816ZM189.556 147.885L205.503 141.475L207.298 145.94L191.351 152.351L189.556 147.885Z" stroke="url(#paint18_linear_537_44441)" stroke-opacity="0.6" stroke-width="2" stroke-miterlimit="10"/>
</g>
<g clip-path="url(#clip9_537_44441)">
<path d="M911.764 196.863L923.884 191.991M926.961 199.646L914.672 204.585C911.351 205.983 908.536 208.364 906.607 211.409" stroke="url(#paint19_linear_537_44441)" stroke-opacity="0.6" stroke-width="2" stroke-linejoin="round"/>
<path d="M923.991 191.948L932.039 182.325C933.46 180.79 935.597 180.29 937.094 181.727C937.641 182.253 937.99 182.951 938.082 183.703C938.174 184.456 938.004 185.217 937.601 185.859L927.067 199.603" stroke="url(#paint20_linear_537_44441)" stroke-opacity="0.6" stroke-width="2" stroke-linecap="round" stroke-linejoin="round"/>
<path d="M901.323 199.345L904.614 195.142C905.629 193.861 906.961 192.866 908.478 192.256L915.354 189.492C916.022 189.241 916.762 189.266 917.411 189.561C918.061 189.855 918.567 190.396 918.818 191.063C919.098 191.719 919.107 192.459 918.842 193.121C918.578 193.784 918.061 194.314 917.405 194.595L913.677 196.093" stroke="url(#paint21_linear_537_44441)" stroke-opacity="0.6" stroke-width="2" stroke-linejoin="round"/>
<path d="M917.367 188.682L915.829 184.855M920.557 187.4L919.018 183.573M917.486 183.448L915.948 179.621M925.779 180.115L924.24 176.287M913.896 174.517L912.358 170.69M922.189 171.184L920.651 167.357M913.778 179.752L912.239 175.925M916.967 178.47L915.429 174.643M910.188 170.821L908.65 166.994M913.377 169.539L911.839 165.712M911.745 185.756L927.693 179.346L929.487 183.811L913.54 190.221L911.745 185.756ZM911.864 180.521L927.811 174.111L929.606 178.576L913.659 184.986L911.864 180.521ZM908.274 171.591L924.222 165.18L926.017 169.646L910.069 176.056L908.274 171.591ZM908.155 176.825L924.103 170.415L925.898 174.88L909.95 181.29L908.155 176.825ZM904.566 167.895L920.513 161.484L922.308 165.95L906.361 172.36L904.566 167.895Z" stroke="url(#paint22_linear_537_44441)" stroke-opacity="0.6" stroke-width="2" stroke-miterlimit="10"/>
</g>
<g clip-path="url(#clip10_537_44441)">
<path d="M32.6034 581.682L44.727 586.545M41.6558 594.202L29.3637 589.272C25.9975 587.985 22.318 587.758 18.8194 588.623" stroke="url(#paint23_linear_537_44441)" stroke-opacity="0.6" stroke-width="2" stroke-linejoin="round"/>
<path d="M44.8337 586.588L57.3018 585.203C59.3899 585.078 61.2791 586.194 61.3667 588.268C61.3984 589.025 61.1678 589.771 60.714 590.378C60.2601 590.985 59.6106 591.418 58.8751 591.602L41.7625 594.245" stroke="url(#paint24_linear_537_44441)" stroke-opacity="0.6" stroke-width="2" stroke-linecap="round" stroke-linejoin="round"/>
<path d="M23.3453 576.256L28.6287 575.496C30.2484 575.272 31.8985 575.474 33.4162 576.083L40.2942 578.841C40.9497 579.122 41.467 579.652 41.7323 580.314C41.9977 580.976 41.9893 581.716 41.7092 582.372C41.4585 583.039 40.953 583.58 40.3037 583.875C39.6545 584.171 38.9146 584.196 38.2467 583.946L34.5177 582.45" stroke="url(#paint25_linear_537_44441)" stroke-opacity="0.6" stroke-width="2" stroke-linejoin="round"/>
<path d="M42.308 579.649L43.8436 575.82M45.4984 580.929L47.034 577.1M46.0138 575.95L47.5494 572.122M54.3089 579.277L55.8445 575.449M49.5968 567.017L51.1324 563.188M57.892 570.344L59.4276 566.516M45.891 570.716L47.4266 566.887M49.0815 571.995L50.6171 568.167M49.4741 561.782L51.0097 557.954M52.6645 563.062L54.2002 559.234M40.271 573.647L56.2232 580.045L54.4316 584.512L38.4795 578.113L40.271 573.647ZM43.9768 569.948L59.9289 576.346L58.1374 580.813L42.1853 574.414L43.9768 569.948ZM47.5599 561.015L63.512 567.413L61.7205 571.88L45.7683 565.481L47.5599 561.015ZM43.8541 564.713L59.8062 571.112L58.0147 575.578L42.0625 569.18L43.8541 564.713ZM47.4371 555.78L63.3893 562.179L61.5978 566.645L45.6456 560.247L47.4371 555.78Z" stroke="url(#paint26_linear_537_44441)" stroke-opacity="0.6" stroke-width="2" stroke-miterlimit="10"/>
</g>
<g clip-path="url(#clip11_537_44441)">
<path d="M789.603 598.682L801.727 603.545M798.656 611.202L786.364 606.272C782.998 604.985 779.318 604.758 775.819 605.623" stroke="url(#paint27_linear_537_44441)" stroke-opacity="0.6" stroke-width="2" stroke-linejoin="round"/>
<path d="M801.834 603.588L814.302 602.203C816.39 602.078 818.279 603.194 818.367 605.268C818.398 606.025 818.168 606.771 817.714 607.378C817.26 607.985 816.61 608.418 815.875 608.602L798.762 611.245" stroke="url(#paint28_linear_537_44441)" stroke-opacity="0.6" stroke-width="2" stroke-linecap="round" stroke-linejoin="round"/>
<path d="M780.345 593.256L785.629 592.496C787.248 592.272 788.898 592.474 790.416 593.083L797.294 595.841C797.95 596.122 798.467 596.652 798.732 597.314C798.998 597.976 798.989 598.716 798.709 599.372C798.458 600.039 797.953 600.58 797.304 600.875C796.654 601.171 795.914 601.196 795.247 600.946L791.518 599.45" stroke="url(#paint29_linear_537_44441)" stroke-opacity="0.6" stroke-width="2" stroke-linejoin="round"/>
<path d="M799.308 596.649L800.843 592.82M802.498 597.929L804.034 594.1M803.014 592.95L804.549 589.122M811.309 596.277L812.844 592.449M806.597 584.017L808.132 580.188M814.892 587.344L816.427 583.516M802.891 587.716L804.427 583.887M806.081 588.995L807.617 585.167M806.474 578.782L808.01 574.954M809.664 580.062L811.2 576.234M797.271 590.647L813.223 597.045L811.431 601.512L795.479 595.113L797.271 590.647ZM800.977 586.948L816.929 593.346L815.137 597.813L799.185 591.414L800.977 586.948ZM804.56 578.015L820.512 584.413L818.72 588.88L802.768 582.481L804.56 578.015ZM800.854 581.713L816.806 588.112L815.015 592.578L799.062 586.18L800.854 581.713ZM804.437 572.78L820.389 579.179L818.598 583.645L802.645 577.247L804.437 572.78Z" stroke="url(#paint30_linear_537_44441)" stroke-opacity="0.6" stroke-width="2" stroke-miterlimit="10"/>
</g>
<g clip-path="url(#clip12_537_44441)">
<path d="M406.121 84.2601L402.697 80.9158C402.397 80.6237 402.038 80.3996 401.643 80.259C401.249 80.1183 400.829 80.0643 400.412 80.1006C399.995 80.1369 399.59 80.2627 399.226 80.4695C398.862 80.6762 398.546 80.959 398.301 81.2986C398.098 81.5722 397.947 81.8812 397.856 82.21L397.369 81.7097L397.371 70.7824C397.386 70.1379 397.144 69.5139 396.699 69.0477C396.253 68.5815 395.641 68.3112 394.997 68.2964C394.352 68.2816 393.728 68.5234 393.262 68.9686C392.796 69.4139 392.526 70.0261 392.511 70.6706L391.815 85.0162C391.807 85.2168 391.876 85.4129 392.009 85.5638L398.008 92.459L396.401 98.8862C396.351 99.0872 396.382 99.2999 396.489 99.4776C396.596 99.6553 396.768 99.7833 396.969 99.8336L404.549 101.728C404.75 101.779 404.962 101.747 405.14 101.64C405.318 101.534 405.446 101.361 405.496 101.16L408.037 90.9961C408.334 89.8039 408.314 88.5545 407.977 87.3726C407.641 86.1908 407.001 85.1176 406.121 84.2601ZM404.17 100.023L398.106 98.5072L399.622 92.4438C399.652 92.3216 399.653 92.1938 399.623 92.0714C399.593 91.949 399.535 91.8356 399.452 91.7408L393.405 84.7775L394.078 70.7483C394.097 70.5294 394.2 70.3261 394.363 70.1796C394.527 70.0331 394.741 69.9543 394.96 69.9591C395.18 69.9639 395.39 70.052 395.547 70.2055C395.705 70.3591 395.798 70.5666 395.808 70.7862L395.8 82.0584C395.799 82.2617 395.877 82.4575 396.018 82.6041L401.134 87.9095C401.277 88.057 401.472 88.1423 401.678 88.1469C401.883 88.1515 402.082 88.0751 402.231 87.9342C402.38 87.7934 402.467 87.6001 402.474 87.3956C402.482 87.1912 402.409 86.992 402.271 86.8409L399.66 83.9172C399.41 83.6594 399.274 83.313 399.279 82.9543C399.285 82.5956 399.433 82.2539 399.691 82.0044C399.949 81.7549 400.295 81.618 400.654 81.6238C401.013 81.6297 401.355 81.7778 401.604 82.0356L405.036 85.3818C405.715 86.0452 406.21 86.8739 406.472 87.7866C406.733 88.6992 406.753 89.6643 406.529 90.5869L404.17 100.023ZM433.278 77.9389C432.997 77.7878 432.688 77.6939 432.371 77.6623C432.053 77.6308 431.733 77.6624 431.427 77.7552C431.122 77.848 430.838 78.0002 430.592 78.2031C430.345 78.406 430.142 78.6555 429.992 78.9374L424.851 88.5802L424.186 88.7924C424.261 88.4596 424.273 88.1159 424.222 87.7787C424.166 87.3637 424.021 86.9658 423.797 86.612C423.573 86.2583 423.275 85.9569 422.924 85.7286C422.573 85.5002 422.177 85.3502 421.763 85.2887C421.349 85.2272 420.926 85.2557 420.524 85.3723L415.929 86.7119C414.749 87.0544 413.679 87.7002 412.826 88.5848C411.974 89.4695 411.368 90.5622 411.069 91.754L408.528 101.918C408.478 102.119 408.509 102.332 408.616 102.509C408.722 102.687 408.895 102.815 409.096 102.865L416.675 104.76C416.876 104.81 417.089 104.779 417.267 104.672C417.445 104.565 417.573 104.393 417.623 104.192L419.23 97.7643L427.752 94.4995C427.945 94.4329 428.104 94.2935 428.196 94.1111L434.343 81.1524C434.616 80.5832 434.658 79.93 434.459 79.3306C434.26 78.7312 433.837 78.2322 433.278 77.9389ZM432.921 80.459L426.905 93.1523L418.294 96.4512C418.176 96.4958 418.07 96.5682 417.987 96.6622C417.903 96.7562 417.843 96.8691 417.812 96.9913L416.296 103.055L410.233 101.539L412.585 92.133C412.821 91.2134 413.292 90.3711 413.953 89.689C414.613 89.0069 415.44 88.5086 416.351 88.2429L420.954 86.9052C421.276 86.8452 421.608 86.904 421.89 87.0707C422.171 87.2373 422.383 87.5005 422.485 87.8113C422.588 88.1222 422.574 88.4596 422.446 88.7609C422.318 89.0623 422.086 89.3071 421.791 89.4499L418.121 90.763C417.928 90.8315 417.77 90.9729 417.681 91.1568C417.591 91.3407 417.577 91.5524 417.642 91.7464C417.707 91.9411 417.847 92.1021 418.03 92.1946C418.213 92.2872 418.426 92.3038 418.621 92.241L425.632 89.9671C425.825 89.9041 425.987 89.7681 426.081 89.5882L431.379 79.6385C431.487 79.4362 431.67 79.2847 431.889 79.2172C432.108 79.1498 432.345 79.1718 432.548 79.2785C432.753 79.387 432.907 79.5715 432.976 79.7923C433.046 80.0131 433.026 80.2526 432.921 80.459ZM407.012 75.7695L419.139 78.8011C420.144 79.0523 421.207 78.894 422.096 78.361C422.984 77.828 423.624 76.9639 423.876 75.9588L425.95 67.6596L432.882 67.5724C433.056 67.5723 433.225 67.514 433.362 67.4067C433.499 67.2995 433.597 67.1495 433.639 66.9806C433.681 66.8116 433.666 66.6334 433.595 66.4742C433.525 66.315 433.403 66.184 433.249 66.102L418.019 58.7028C417.922 58.6558 417.816 58.6293 417.708 58.6252L400.818 57.9943C400.643 57.9944 400.474 58.0527 400.337 58.1599C400.2 58.2671 400.102 58.4171 400.06 58.5861C400.018 58.755 400.033 58.9332 400.104 59.0924C400.175 59.2516 400.296 59.3826 400.45 59.4647L406.254 62.6953L404.17 71.0324C403.918 72.0375 404.077 73.1012 404.61 73.9896C405.143 74.878 406.007 75.5182 407.012 75.7695ZM422.36 75.5799C422.209 76.1829 421.825 76.7014 421.292 77.0212C420.759 77.341 420.121 77.436 419.518 77.2852L407.391 74.2536C406.788 74.1028 406.269 73.7187 405.949 73.1857C405.63 72.6527 405.535 72.0144 405.685 71.4114L407.677 63.4456L415.402 67.688C415.521 67.7501 415.654 67.7832 415.788 67.7847L424.334 67.6823L422.36 75.5799ZM417.488 60.1808L429.573 66.0527L415.978 66.2215L404.061 59.675L417.488 60.1808Z" fill="url(#paint31_linear_537_44441)" fill-opacity="0.6"/>
</g>
<g clip-path="url(#clip13_537_44441)">
<path d="M1083.38 74.2601L1079.96 70.9158C1079.66 70.6237 1079.3 70.3996 1078.91 70.259C1078.51 70.1183 1078.09 70.0643 1077.67 70.1006C1077.26 70.1369 1076.85 70.2627 1076.49 70.4695C1076.12 70.6762 1075.81 70.959 1075.56 71.2986C1075.36 71.5722 1075.21 71.8812 1075.12 72.21L1074.63 71.7097L1074.63 60.7824C1074.65 60.1379 1074.41 59.5139 1073.96 59.0477C1073.52 58.5815 1072.9 58.3112 1072.26 58.2964C1071.61 58.2816 1070.99 58.5234 1070.52 58.9686C1070.06 59.4139 1069.79 60.0261 1069.77 60.6706L1069.08 75.0162C1069.07 75.2168 1069.14 75.4129 1069.27 75.5638L1075.27 82.459L1073.66 88.8862C1073.61 89.0872 1073.64 89.2999 1073.75 89.4776C1073.86 89.6553 1074.03 89.7833 1074.23 89.8336L1081.81 91.7284C1082.01 91.7786 1082.22 91.747 1082.4 91.6403C1082.58 91.5337 1082.71 91.3609 1082.76 91.1599L1085.3 80.9961C1085.6 79.8039 1085.58 78.5545 1085.24 77.3726C1084.9 76.1908 1084.26 75.1176 1083.38 74.2601ZM1081.43 90.023L1075.37 88.5072L1076.88 82.4438C1076.91 82.3216 1076.91 82.1938 1076.88 82.0714C1076.86 81.949 1076.8 81.8356 1076.71 81.7408L1070.67 74.7775L1071.34 60.7483C1071.36 60.5294 1071.46 60.3261 1071.63 60.1796C1071.79 60.0331 1072 59.9543 1072.22 59.9591C1072.44 59.9639 1072.65 60.052 1072.81 60.2055C1072.97 60.3591 1073.06 60.5666 1073.07 60.7862L1073.06 72.0584C1073.06 72.2617 1073.14 72.4575 1073.28 72.6041L1078.4 77.9095C1078.54 78.057 1078.73 78.1423 1078.94 78.1469C1079.14 78.1515 1079.34 78.0751 1079.49 77.9342C1079.64 77.7934 1079.73 77.6001 1079.74 77.3956C1079.74 77.1912 1079.67 76.992 1079.53 76.8409L1076.92 73.9172C1076.67 73.6594 1076.54 73.313 1076.54 72.9543C1076.55 72.5956 1076.7 72.2539 1076.95 72.0044C1077.21 71.7549 1077.56 71.618 1077.92 71.6238C1078.27 71.6297 1078.62 71.7778 1078.87 72.0356L1082.3 75.3818C1082.98 76.0452 1083.47 76.8739 1083.73 77.7866C1084 78.6992 1084.01 79.6643 1083.79 80.5869L1081.43 90.023ZM1110.54 67.9389C1110.26 67.7878 1109.95 67.6939 1109.63 67.6623C1109.32 67.6308 1108.99 67.6624 1108.69 67.7552C1108.38 67.848 1108.1 68.0002 1107.85 68.2031C1107.61 68.406 1107.4 68.6555 1107.25 68.9374L1102.11 78.5802L1101.45 78.7924C1101.52 78.4596 1101.53 78.1159 1101.48 77.7787C1101.43 77.3637 1101.28 76.9658 1101.06 76.612C1100.83 76.2583 1100.54 75.9569 1100.19 75.7286C1099.83 75.5002 1099.44 75.3502 1099.02 75.2887C1098.61 75.2272 1098.19 75.2557 1097.79 75.3723L1093.19 76.7119C1092.01 77.0544 1090.94 77.7002 1090.09 78.5848C1089.24 79.4695 1088.63 80.5622 1088.33 81.754L1085.79 91.9178C1085.74 92.1188 1085.77 92.3316 1085.88 92.5092C1085.98 92.6869 1086.16 92.815 1086.36 92.8652L1093.94 94.76C1094.14 94.8102 1094.35 94.7786 1094.53 94.672C1094.71 94.5654 1094.83 94.3925 1094.88 94.1915L1096.49 87.7643L1105.01 84.4995C1105.21 84.4329 1105.37 84.2935 1105.46 84.1111L1111.6 71.1524C1111.88 70.5832 1111.92 69.93 1111.72 69.3306C1111.52 68.7312 1111.1 68.2322 1110.54 67.9389ZM1110.18 70.459L1104.17 83.1523L1095.56 86.4512C1095.44 86.4958 1095.33 86.5682 1095.25 86.6622C1095.16 86.7562 1095.1 86.8691 1095.07 86.9913L1093.56 93.0547L1087.49 91.5388L1089.85 82.133C1090.08 81.2134 1090.55 80.3711 1091.21 79.689C1091.87 79.0069 1092.7 78.5086 1093.61 78.2429L1098.22 76.9052C1098.54 76.8452 1098.87 76.904 1099.15 77.0707C1099.43 77.2373 1099.64 77.5005 1099.75 77.8113C1099.85 78.1222 1099.84 78.4596 1099.71 78.7609C1099.58 79.0623 1099.35 79.3071 1099.05 79.4499L1095.38 80.763C1095.19 80.8315 1095.03 80.9729 1094.94 81.1568C1094.85 81.3407 1094.84 81.5524 1094.9 81.7464C1094.97 81.9411 1095.11 82.1021 1095.29 82.1946C1095.48 82.2872 1095.69 82.3038 1095.88 82.241L1102.89 79.9671C1103.09 79.9041 1103.25 79.7681 1103.34 79.5882L1108.64 69.6385C1108.75 69.4362 1108.93 69.2847 1109.15 69.2172C1109.37 69.1498 1109.61 69.1718 1109.81 69.2785C1110.01 69.387 1110.17 69.5715 1110.24 69.7923C1110.31 70.0131 1110.29 70.2526 1110.18 70.459ZM1084.27 65.7695L1096.4 68.8011C1097.41 69.0523 1098.47 68.894 1099.36 68.361C1100.25 67.828 1100.89 66.9639 1101.14 65.9588L1103.21 57.6596L1110.14 57.5724C1110.32 57.5723 1110.49 57.514 1110.62 57.4067C1110.76 57.2995 1110.86 57.1495 1110.9 56.9806C1110.94 56.8116 1110.93 56.6334 1110.86 56.4742C1110.79 56.315 1110.66 56.184 1110.51 56.102L1095.28 48.7028C1095.18 48.6558 1095.08 48.6293 1094.97 48.6252L1078.08 47.9943C1077.91 47.9944 1077.74 48.0527 1077.6 48.1599C1077.46 48.2671 1077.36 48.4171 1077.32 48.5861C1077.28 48.755 1077.3 48.9332 1077.37 49.0924C1077.44 49.2516 1077.56 49.3826 1077.71 49.4647L1083.52 52.6953L1081.43 61.0324C1081.18 62.0375 1081.34 63.1012 1081.87 63.9896C1082.4 64.878 1083.27 65.5182 1084.27 65.7695ZM1099.62 65.5799C1099.47 66.1829 1099.09 66.7014 1098.55 67.0212C1098.02 67.341 1097.38 67.436 1096.78 67.2852L1084.65 64.2536C1084.05 64.1028 1083.53 63.7187 1083.21 63.1857C1082.89 62.6527 1082.8 62.0144 1082.95 61.4114L1084.94 53.4456L1092.66 57.688C1092.78 57.7501 1092.92 57.7832 1093.05 57.7847L1101.6 57.6823L1099.62 65.5799ZM1094.75 50.1808L1106.83 56.0527L1093.24 56.2215L1081.32 49.675L1094.75 50.1808Z" fill="url(#paint32_linear_537_44441)" fill-opacity="0.6"/>
</g>
<g clip-path="url(#clip14_537_44441)">
<path d="M70.1213 362.26L66.6973 358.916C66.3973 358.624 66.0378 358.4 65.6434 358.259C65.249 358.118 64.8289 358.064 64.4117 358.101C63.9945 358.137 63.5901 358.263 63.2259 358.469C62.8617 358.676 62.5464 358.959 62.3014 359.299C62.0979 359.572 61.9469 359.881 61.8561 360.21L61.3691 359.71L61.371 348.782C61.3858 348.138 61.144 347.514 60.6987 347.048C60.2535 346.581 59.6412 346.311 58.9967 346.296C58.3522 346.282 57.7282 346.523 57.262 346.969C56.7958 347.414 56.5256 348.026 56.5108 348.671L55.8155 363.016C55.8071 363.217 55.8763 363.413 56.0087 363.564L62.0077 370.459L60.401 376.886C60.3507 377.087 60.3824 377.3 60.489 377.478C60.5956 377.655 60.7684 377.783 60.9694 377.834L68.5487 379.728C68.7497 379.779 68.9624 379.747 69.1401 379.64C69.3178 379.534 69.4458 379.361 69.4961 379.16L72.037 368.996C72.3341 367.804 72.3135 366.555 71.9774 365.373C71.6413 364.191 71.0013 363.118 70.1213 362.26ZM68.1697 378.023L62.1063 376.507L63.6221 370.444C63.6525 370.322 63.6528 370.194 63.6231 370.071C63.5934 369.949 63.5346 369.836 63.4516 369.741L57.4052 362.777L58.0778 348.748C58.0975 348.529 58.1996 348.326 58.3635 348.18C58.5273 348.033 58.7407 347.954 58.9605 347.959C59.1802 347.964 59.3899 348.052 59.5472 348.206C59.7045 348.359 59.7976 348.567 59.8077 348.786L59.8002 360.058C59.7991 360.262 59.8772 360.457 60.0181 360.604L65.1341 365.91C65.2771 366.057 65.4723 366.142 65.6776 366.147C65.883 366.152 66.0818 366.075 66.2312 365.934C66.3797 365.793 66.467 365.6 66.4744 365.396C66.4819 365.191 66.4088 364.992 66.271 364.841L63.66 361.917C63.4104 361.659 63.2736 361.313 63.2794 360.954C63.2853 360.596 63.4334 360.254 63.6912 360.004C63.949 359.755 64.2954 359.618 64.6541 359.624C65.0128 359.63 65.3545 359.778 65.604 360.036L69.0355 363.382C69.7148 364.045 70.2097 364.874 70.4716 365.787C70.7334 366.699 70.753 367.664 70.5287 368.587L68.1697 378.023ZM97.2776 355.939C96.9965 355.788 96.6883 355.694 96.3708 355.662C96.0532 355.631 95.7326 355.662 95.4273 355.755C95.1219 355.848 94.838 356 94.5917 356.203C94.3454 356.406 94.1416 356.656 93.992 356.937L88.8515 366.58L88.1864 366.792C88.261 366.46 88.2732 366.116 88.2224 365.779C88.166 365.364 88.0208 364.966 87.7968 364.612C87.5727 364.258 87.2751 363.957 86.9241 363.729C86.5731 363.5 86.177 363.35 85.7627 363.289C85.3485 363.227 84.9259 363.256 84.5237 363.372L79.9288 364.712C78.7488 365.054 77.6791 365.7 76.8263 366.585C75.9736 367.47 75.3676 368.562 75.0687 369.754L72.5278 379.918C72.4775 380.119 72.5092 380.332 72.6158 380.509C72.7224 380.687 72.8952 380.815 73.0962 380.865L80.6755 382.76C80.8765 382.81 81.0892 382.779 81.2669 382.672C81.4446 382.565 81.5726 382.393 81.6229 382.192L83.2296 375.764L91.7525 372.5C91.9453 372.433 92.1044 372.293 92.1958 372.111L98.3425 359.152C98.6159 358.583 98.6576 357.93 98.459 357.331C98.2604 356.731 97.8368 356.232 97.2776 355.939ZM96.9214 358.459L90.9055 371.152L82.2936 374.451C82.1758 374.496 82.0705 374.568 81.9867 374.662C81.9029 374.756 81.8431 374.869 81.8123 374.991L80.2965 381.055L74.2331 379.539L76.5845 370.133C76.8207 369.213 77.2922 368.371 77.9527 367.689C78.6131 367.007 79.4398 366.509 80.3514 366.243L84.9538 364.905C85.2756 364.845 85.6081 364.904 85.8897 365.071C86.1714 365.237 86.383 365.5 86.4853 365.811C86.5876 366.122 86.5737 366.46 86.446 366.761C86.3184 367.062 86.0858 367.307 85.7914 367.45L82.1211 368.763C81.9284 368.832 81.7702 368.973 81.6806 369.157C81.5909 369.341 81.577 369.552 81.6417 369.746C81.7073 369.941 81.8468 370.102 82.0301 370.195C82.2134 370.287 82.4259 370.304 82.6214 370.241L89.6321 367.967C89.8254 367.904 89.9865 367.768 90.0812 367.588L95.379 357.639C95.4868 357.436 95.6702 357.285 95.8893 357.217C96.1084 357.15 96.3453 357.172 96.5481 357.278C96.7528 357.387 96.9066 357.571 96.9764 357.792C97.0462 358.013 97.0265 358.253 96.9214 358.459ZM71.0118 353.769L83.1386 356.801C84.1436 357.052 85.2074 356.894 86.0957 356.361C86.9841 355.828 87.6243 354.964 87.8756 353.959L89.9503 345.66L96.8816 345.572C97.0557 345.572 97.2248 345.514 97.3621 345.407C97.4993 345.3 97.5968 345.15 97.639 344.981C97.6813 344.812 97.6658 344.633 97.5952 344.474C97.5246 344.315 97.4028 344.184 97.2491 344.102L82.0186 336.703C81.9215 336.656 81.8157 336.629 81.7079 336.625L64.8175 335.994C64.6434 335.994 64.4743 336.053 64.337 336.16C64.1998 336.267 64.1023 336.417 64.0601 336.586C64.0178 336.755 64.0333 336.933 64.1039 337.092C64.1745 337.252 64.2963 337.383 64.45 337.465L70.2538 340.695L68.1695 349.032C67.9183 350.038 68.0766 351.101 68.6096 351.99C69.1426 352.878 70.0067 353.518 71.0118 353.769ZM86.3597 353.58C86.209 354.183 85.8248 354.701 85.2918 355.021C84.7588 355.341 84.1206 355.436 83.5175 355.285L71.3907 352.254C70.7877 352.103 70.2692 351.719 69.9494 351.186C69.6296 350.653 69.5346 350.014 69.6854 349.411L71.6768 341.446L79.4019 345.688C79.5214 345.75 79.6538 345.783 79.7885 345.785L88.3341 345.682L86.3597 353.58ZM81.4881 338.181L93.5732 344.053L79.978 344.221L68.0615 337.675L81.4881 338.181Z" fill="url(#paint33_linear_537_44441)" fill-opacity="0.6"/>
</g>
<g clip-path="url(#clip15_537_44441)">
<path d="M979.121 351.26L975.697 347.916C975.397 347.624 975.038 347.4 974.643 347.259C974.249 347.118 973.829 347.064 973.412 347.101C972.995 347.137 972.59 347.263 972.226 347.469C971.862 347.676 971.546 347.959 971.301 348.299C971.098 348.572 970.947 348.881 970.856 349.21L970.369 348.71L970.371 337.782C970.386 337.138 970.144 336.514 969.699 336.048C969.254 335.581 968.641 335.311 967.997 335.296C967.352 335.282 966.728 335.523 966.262 335.969C965.796 336.414 965.526 337.026 965.511 337.671L964.816 352.016C964.807 352.217 964.876 352.413 965.009 352.564L971.008 359.459L969.401 365.886C969.351 366.087 969.382 366.3 969.489 366.478C969.596 366.655 969.768 366.783 969.969 366.834L977.549 368.728C977.75 368.779 977.962 368.747 978.14 368.64C978.318 368.534 978.446 368.361 978.496 368.16L981.037 357.996C981.334 356.804 981.314 355.555 980.977 354.373C980.641 353.191 980.001 352.118 979.121 351.26ZM977.17 367.023L971.106 365.507L972.622 359.444C972.653 359.322 972.653 359.194 972.623 359.071C972.593 358.949 972.535 358.836 972.452 358.741L966.405 351.777L967.078 337.748C967.098 337.529 967.2 337.326 967.364 337.18C967.527 337.033 967.741 336.954 967.961 336.959C968.18 336.964 968.39 337.052 968.547 337.206C968.705 337.359 968.798 337.567 968.808 337.786L968.8 349.058C968.799 349.262 968.877 349.457 969.018 349.604L974.134 354.91C974.277 355.057 974.472 355.142 974.678 355.147C974.883 355.152 975.082 355.075 975.231 354.934C975.38 354.793 975.467 354.6 975.475 354.396C975.482 354.191 975.409 353.992 975.271 353.841L972.66 350.917C972.411 350.659 972.274 350.313 972.279 349.954C972.285 349.596 972.433 349.254 972.691 349.004C972.949 348.755 973.295 348.618 973.654 348.624C974.013 348.63 974.355 348.778 974.604 349.036L978.036 352.382C978.715 353.045 979.21 353.874 979.472 354.787C979.733 355.699 979.753 356.664 979.529 357.587L977.17 367.023ZM1006.28 344.939C1006 344.788 1005.69 344.694 1005.37 344.662C1005.05 344.631 1004.73 344.662 1004.43 344.755C1004.12 344.848 1003.84 345 1003.59 345.203C1003.35 345.406 1003.14 345.656 1002.99 345.937L997.852 355.58L997.186 355.792C997.261 355.46 997.273 355.116 997.222 354.779C997.166 354.364 997.021 353.966 996.797 353.612C996.573 353.258 996.275 352.957 995.924 352.729C995.573 352.5 995.177 352.35 994.763 352.289C994.349 352.227 993.926 352.256 993.524 352.372L988.929 353.712C987.749 354.054 986.679 354.7 985.826 355.585C984.974 356.47 984.368 357.562 984.069 358.754L981.528 368.918C981.478 369.119 981.509 369.332 981.616 369.509C981.722 369.687 981.895 369.815 982.096 369.865L989.676 371.76C989.877 371.81 990.089 371.779 990.267 371.672C990.445 371.565 990.573 371.393 990.623 371.192L992.23 364.764L1000.75 361.5C1000.95 361.433 1001.1 361.293 1001.2 361.111L1007.34 348.152C1007.62 347.583 1007.66 346.93 1007.46 346.331C1007.26 345.731 1006.84 345.232 1006.28 344.939ZM1005.92 347.459L999.906 360.152L991.294 363.451C991.176 363.496 991.071 363.568 990.987 363.662C990.903 363.756 990.843 363.869 990.812 363.991L989.297 370.055L983.233 368.539L985.585 359.133C985.821 358.213 986.292 357.371 986.953 356.689C987.613 356.007 988.44 355.509 989.351 355.243L993.954 353.905C994.276 353.845 994.608 353.904 994.89 354.071C995.171 354.237 995.383 354.5 995.485 354.811C995.588 355.122 995.574 355.46 995.446 355.761C995.318 356.062 995.086 356.307 994.791 356.45L991.121 357.763C990.928 357.832 990.77 357.973 990.681 358.157C990.591 358.341 990.577 358.552 990.642 358.746C990.707 358.941 990.847 359.102 991.03 359.195C991.214 359.287 991.426 359.304 991.621 359.241L998.632 356.967C998.826 356.904 998.987 356.768 999.081 356.588L1004.38 346.639C1004.49 346.436 1004.67 346.285 1004.89 346.217C1005.11 346.15 1005.35 346.172 1005.55 346.278C1005.75 346.387 1005.91 346.571 1005.98 346.792C1006.05 347.013 1006.03 347.253 1005.92 347.459ZM980.012 342.769L992.139 345.801C993.144 346.052 994.207 345.894 995.096 345.361C995.984 344.828 996.624 343.964 996.876 342.959L998.95 334.66L1005.88 334.572C1006.06 334.572 1006.22 334.514 1006.36 334.407C1006.5 334.3 1006.6 334.15 1006.64 333.981C1006.68 333.812 1006.67 333.633 1006.6 333.474C1006.52 333.315 1006.4 333.184 1006.25 333.102L991.019 325.703C990.922 325.656 990.816 325.629 990.708 325.625L973.818 324.994C973.643 324.994 973.474 325.053 973.337 325.16C973.2 325.267 973.102 325.417 973.06 325.586C973.018 325.755 973.033 325.933 973.104 326.092C973.175 326.252 973.296 326.383 973.45 326.465L979.254 329.695L977.17 338.032C976.918 339.038 977.077 340.101 977.61 340.99C978.143 341.878 979.007 342.518 980.012 342.769ZM995.36 342.58C995.209 343.183 994.825 343.701 994.292 344.021C993.759 344.341 993.121 344.436 992.518 344.285L980.391 341.254C979.788 341.103 979.269 340.719 978.949 340.186C978.63 339.653 978.535 339.014 978.685 338.411L980.677 330.446L988.402 334.688C988.521 334.75 988.654 334.783 988.789 334.785L997.334 334.682L995.36 342.58ZM990.488 327.181L1002.57 333.053L988.978 333.221L977.062 326.675L990.488 327.181Z" fill="url(#paint34_linear_537_44441)" fill-opacity="0.6"/>
</g>
<g clip-path="url(#clip16_537_44441)">
<path d="M336.897 554.522L332.114 554.693C331.695 554.708 331.285 554.814 330.911 555.003C330.537 555.191 330.208 555.458 329.946 555.785C329.685 556.112 329.497 556.491 329.395 556.898C329.294 557.304 329.281 557.727 329.357 558.139C329.415 558.475 329.535 558.797 329.71 559.09L329.012 559.097L321.104 551.556C320.647 551.101 320.029 550.845 319.384 550.846C318.739 550.847 318.121 551.103 317.666 551.56C317.211 552.016 316.955 552.634 316.956 553.279C316.956 553.924 317.213 554.542 317.669 554.997L327.573 565.399C327.713 565.543 327.902 565.628 328.103 565.637L337.233 566.052L340.777 571.65C340.888 571.825 341.063 571.948 341.266 571.994C341.468 572.039 341.68 572.003 341.855 571.892L348.456 567.713C348.631 567.602 348.755 567.426 348.8 567.224C348.846 567.022 348.809 566.81 348.698 566.635L343.094 557.783C342.436 556.745 341.518 555.898 340.43 555.326C339.343 554.754 338.125 554.477 336.897 554.522ZM346.96 566.811L341.679 570.154L338.336 564.873C338.269 564.767 338.176 564.678 338.067 564.615C337.958 564.552 337.835 564.517 337.71 564.511L328.497 564.083L318.807 553.917C318.662 553.751 318.585 553.537 318.592 553.317C318.599 553.098 318.689 552.889 318.844 552.733C319 552.577 319.208 552.486 319.428 552.478C319.647 552.471 319.862 552.546 320.028 552.691L328.182 560.474C328.328 560.615 328.524 560.693 328.727 560.692L336.097 560.65C336.303 560.648 336.499 560.566 336.644 560.42C336.789 560.275 336.871 560.078 336.872 559.873C336.873 559.668 336.793 559.472 336.65 559.325C336.507 559.179 336.313 559.094 336.108 559.09L332.19 558.962C331.832 558.965 331.486 558.825 331.231 558.573C330.975 558.322 330.83 557.979 330.827 557.62C330.825 557.261 330.965 556.916 331.216 556.66C331.468 556.405 331.811 556.26 332.17 556.257L336.96 556.082C337.908 556.048 338.85 556.261 339.691 556.702C340.532 557.142 341.244 557.793 341.757 558.592L346.96 566.811ZM351.058 530.504C350.755 530.603 350.475 530.761 350.233 530.969C349.991 531.178 349.792 531.431 349.649 531.716C349.505 532.002 349.42 532.312 349.396 532.63C349.373 532.949 349.413 533.268 349.514 533.571L352.947 543.945L352.642 544.573C352.452 544.289 352.212 544.043 351.933 543.848C351.594 543.602 351.205 543.433 350.795 543.351C350.384 543.269 349.961 543.276 349.553 543.373C349.146 543.469 348.764 543.653 348.433 543.91C348.103 544.167 347.832 544.493 347.639 544.864L345.438 549.115C344.872 550.205 344.601 551.425 344.653 552.653C344.705 553.88 345.078 555.073 345.735 556.112L351.338 564.964C351.449 565.139 351.625 565.262 351.827 565.308C352.029 565.353 352.241 565.317 352.416 565.206L359.017 561.027C359.192 560.916 359.316 560.74 359.362 560.538C359.407 560.336 359.37 560.124 359.26 559.949L355.716 554.351L359.233 545.93C359.318 545.744 359.327 545.533 359.258 545.341L354.119 531.95C353.896 531.36 353.452 530.879 352.881 530.609C352.31 530.339 351.657 530.302 351.058 530.504ZM352.637 532.501L357.674 545.613L354.12 554.123C354.071 554.239 354.05 554.365 354.061 554.491C354.071 554.616 354.111 554.737 354.178 554.844L357.521 560.125L352.241 563.468L347.055 555.276C346.552 554.47 346.268 553.548 346.23 552.599C346.192 551.651 346.401 550.708 346.838 549.865L349.045 545.611C349.224 545.337 349.496 545.136 349.811 545.048C350.126 544.959 350.462 544.987 350.758 545.127C351.054 545.268 351.288 545.511 351.418 545.811C351.548 546.111 351.565 546.449 351.465 546.76L349.883 550.323C349.8 550.51 349.793 550.722 349.864 550.914C349.936 551.105 350.079 551.262 350.264 551.349C350.451 551.435 350.663 551.446 350.857 551.377C351.05 551.308 351.209 551.166 351.298 550.981L354.49 544.337C354.577 544.154 354.59 543.943 354.525 543.751L350.979 533.051C350.907 532.833 350.924 532.596 351.026 532.391C351.128 532.186 351.308 532.029 351.525 531.956C351.745 531.883 351.984 531.899 352.192 532.001C352.4 532.103 352.56 532.282 352.637 532.501ZM331.365 548.019L341.927 541.333C342.802 540.779 343.422 539.9 343.649 538.889C343.876 537.878 343.692 536.819 343.138 535.943L338.562 528.715L343.282 523.638C343.402 523.512 343.476 523.349 343.493 523.176C343.51 523.003 343.469 522.828 343.376 522.681C343.283 522.534 343.143 522.422 342.979 522.364C342.815 522.305 342.636 522.303 342.471 522.357L326.607 528.276C326.505 528.314 326.413 528.373 326.336 528.448L314.225 540.238C314.105 540.364 314.031 540.527 314.014 540.7C313.997 540.874 314.038 541.048 314.131 541.195C314.224 541.342 314.364 541.454 314.528 541.512C314.692 541.571 314.871 541.573 315.036 541.519L321.379 539.547L325.975 546.808C326.53 547.683 327.409 548.303 328.42 548.53C329.43 548.757 330.49 548.573 331.365 548.019ZM341.818 536.779C342.15 537.304 342.261 537.94 342.124 538.546C341.988 539.153 341.616 539.68 341.091 540.013L330.53 546.699C330.004 547.031 329.369 547.142 328.762 547.005C328.156 546.869 327.628 546.497 327.296 545.972L322.904 539.035L331.305 536.37C331.432 536.326 331.547 536.253 331.641 536.157L337.464 529.901L341.818 536.779ZM327.31 529.68L339.899 524.984L330.641 534.941L317.68 539.05L327.31 529.68Z" fill="url(#paint35_linear_537_44441)" fill-opacity="0.6"/>
</g>
<g clip-path="url(#clip17_537_44441)">
<path d="M1014.16 544.522L1009.38 544.693C1008.96 544.708 1008.55 544.814 1008.17 545.003C1007.8 545.191 1007.47 545.458 1007.21 545.785C1006.95 546.112 1006.76 546.491 1006.66 546.898C1006.56 547.304 1006.54 547.727 1006.62 548.139C1006.68 548.475 1006.8 548.797 1006.97 549.09L1006.27 549.097L998.365 541.556C997.909 541.101 997.291 540.845 996.646 540.846C996.001 540.847 995.383 541.103 994.928 541.56C994.472 542.016 994.217 542.634 994.217 543.279C994.218 543.924 994.475 544.542 994.931 544.997L1004.84 555.399C1004.97 555.543 1005.16 555.628 1005.36 555.637L1014.49 556.052L1018.04 561.65C1018.15 561.825 1018.33 561.948 1018.53 561.994C1018.73 562.039 1018.94 562.003 1019.12 561.892L1025.72 557.713C1025.89 557.602 1026.02 557.426 1026.06 557.224C1026.11 557.022 1026.07 556.81 1025.96 556.635L1020.36 547.783C1019.7 546.745 1018.78 545.898 1017.69 545.326C1016.6 544.754 1015.39 544.477 1014.16 544.522ZM1024.22 556.811L1018.94 560.154L1015.6 554.873C1015.53 554.767 1015.44 554.678 1015.33 554.615C1015.22 554.552 1015.1 554.517 1014.97 554.511L1005.76 554.083L996.068 543.917C995.924 543.751 995.847 543.537 995.854 543.317C995.861 543.098 995.951 542.889 996.106 542.733C996.261 542.577 996.47 542.486 996.689 542.478C996.909 542.471 997.124 542.546 997.289 542.691L1005.44 550.474C1005.59 550.615 1005.79 550.693 1005.99 550.692L1013.36 550.65C1013.56 550.648 1013.76 550.566 1013.91 550.42C1014.05 550.275 1014.13 550.078 1014.13 549.873C1014.13 549.668 1014.05 549.472 1013.91 549.325C1013.77 549.179 1013.57 549.094 1013.37 549.09L1009.45 548.962C1009.09 548.965 1008.75 548.825 1008.49 548.573C1008.24 548.322 1008.09 547.979 1008.09 547.62C1008.09 547.261 1008.23 546.916 1008.48 546.66C1008.73 546.405 1009.07 546.26 1009.43 546.257L1014.22 546.082C1015.17 546.048 1016.11 546.261 1016.95 546.702C1017.79 547.142 1018.51 547.793 1019.02 548.592L1024.22 556.811ZM1028.32 520.504C1028.02 520.603 1027.74 520.761 1027.49 520.969C1027.25 521.178 1027.05 521.431 1026.91 521.716C1026.77 522.002 1026.68 522.312 1026.66 522.63C1026.64 522.949 1026.68 523.268 1026.78 523.571L1030.21 533.945L1029.9 534.573C1029.71 534.289 1029.47 534.043 1029.19 533.848C1028.86 533.602 1028.47 533.433 1028.06 533.351C1027.65 533.269 1027.22 533.276 1026.81 533.373C1026.41 533.469 1026.03 533.653 1025.7 533.91C1025.36 534.167 1025.09 534.493 1024.9 534.864L1022.7 539.115C1022.13 540.205 1021.86 541.425 1021.92 542.653C1021.97 543.88 1022.34 545.073 1023 546.112L1028.6 554.964C1028.71 555.139 1028.89 555.262 1029.09 555.308C1029.29 555.353 1029.5 555.317 1029.68 555.206L1036.28 551.027C1036.45 550.916 1036.58 550.74 1036.62 550.538C1036.67 550.336 1036.63 550.124 1036.52 549.949L1032.98 544.351L1036.5 535.93C1036.58 535.744 1036.59 535.533 1036.52 535.341L1031.38 521.95C1031.16 521.36 1030.71 520.879 1030.14 520.609C1029.57 520.339 1028.92 520.302 1028.32 520.504ZM1029.9 522.501L1034.94 535.613L1031.38 544.123C1031.33 544.239 1031.31 544.365 1031.32 544.491C1031.33 544.616 1031.37 544.737 1031.44 544.844L1034.78 550.125L1029.5 553.468L1024.32 545.276C1023.81 544.47 1023.53 543.548 1023.49 542.599C1023.45 541.651 1023.66 540.708 1024.1 539.865L1026.31 535.611C1026.49 535.337 1026.76 535.136 1027.07 535.048C1027.39 534.959 1027.72 534.987 1028.02 535.127C1028.32 535.268 1028.55 535.511 1028.68 535.811C1028.81 536.111 1028.83 536.449 1028.73 536.76L1027.15 540.323C1027.06 540.51 1027.05 540.722 1027.13 540.914C1027.2 541.105 1027.34 541.262 1027.53 541.349C1027.71 541.435 1027.93 541.446 1028.12 541.377C1028.31 541.308 1028.47 541.166 1028.56 540.981L1031.75 534.337C1031.84 534.154 1031.85 533.943 1031.79 533.751L1028.24 523.051C1028.17 522.833 1028.19 522.596 1028.29 522.391C1028.39 522.186 1028.57 522.029 1028.79 521.956C1029.01 521.883 1029.25 521.899 1029.45 522.001C1029.66 522.103 1029.82 522.282 1029.9 522.501ZM1008.63 538.019L1019.19 531.333C1020.06 530.779 1020.68 529.9 1020.91 528.889C1021.14 527.878 1020.95 526.819 1020.4 525.943L1015.82 518.715L1020.54 513.638C1020.66 513.512 1020.74 513.349 1020.76 513.176C1020.77 513.003 1020.73 512.828 1020.64 512.681C1020.54 512.534 1020.4 512.422 1020.24 512.364C1020.08 512.305 1019.9 512.303 1019.73 512.357L1003.87 518.276C1003.77 518.314 1003.67 518.373 1003.6 518.448L991.487 530.238C991.367 530.364 991.292 530.527 991.275 530.7C991.258 530.874 991.3 531.048 991.393 531.195C991.486 531.342 991.625 531.454 991.789 531.512C991.953 531.571 992.132 531.573 992.298 531.519L998.641 529.547L1003.24 536.808C1003.79 537.683 1004.67 538.303 1005.68 538.53C1006.69 538.757 1007.75 538.573 1008.63 538.019ZM1019.08 526.779C1019.41 527.304 1019.52 527.94 1019.39 528.546C1019.25 529.153 1018.88 529.68 1018.35 530.013L1007.79 536.699C1007.27 537.031 1006.63 537.142 1006.02 537.005C1005.42 536.869 1004.89 536.497 1004.56 535.972L1000.17 529.035L1008.57 526.37C1008.69 526.326 1008.81 526.253 1008.9 526.157L1014.73 519.901L1019.08 526.779ZM1004.57 519.68L1017.16 514.984L1007.9 524.941L994.942 529.05L1004.57 519.68Z" fill="url(#paint36_linear_537_44441)" fill-opacity="0.6"/>
</g>
<path d="M574.513 473.866L570.259 471.673C569.886 471.482 569.477 471.373 569.058 471.354C568.64 471.335 568.223 471.407 567.834 471.564C567.446 471.721 567.096 471.96 566.809 472.264C566.521 472.568 566.303 472.931 566.168 473.328C566.054 473.649 566 473.989 566.01 474.33L565.397 473.994L562.195 463.547C562.02 462.926 561.606 462.4 561.044 462.085C560.481 461.77 559.817 461.691 559.196 461.866C558.576 462.041 558.05 462.455 557.735 463.017C557.42 463.58 557.341 464.244 557.516 464.865L561.057 478.784C561.108 478.978 561.232 479.145 561.403 479.251L569.16 484.084L569.508 490.7C569.519 490.907 569.612 491.101 569.766 491.239C569.92 491.378 570.122 491.45 570.329 491.439L578.131 491.028C578.338 491.017 578.532 490.924 578.671 490.77C578.809 490.616 578.881 490.414 578.87 490.207L578.319 479.745C578.254 478.518 577.868 477.329 577.2 476.298C576.532 475.266 575.605 474.428 574.513 473.866ZM577.269 489.509L571.027 489.837L570.699 483.596C570.692 483.47 570.655 483.348 570.59 483.24C570.526 483.131 570.437 483.04 570.329 482.974L562.507 478.089L559.037 464.48C558.991 464.265 559.029 464.04 559.143 463.852C559.257 463.664 559.438 463.526 559.649 463.466C559.861 463.406 560.087 463.429 560.282 463.53C560.478 463.63 560.628 463.802 560.702 464.009L564 474.788C564.058 474.982 564.19 475.147 564.368 475.245L570.815 478.818C570.995 478.917 571.206 478.941 571.404 478.885C571.602 478.829 571.769 478.698 571.871 478.519C571.971 478.341 571.998 478.131 571.945 477.933C571.893 477.736 571.764 477.567 571.588 477.463L568.235 475.433C567.921 475.26 567.688 474.969 567.589 474.624C567.489 474.279 567.53 473.909 567.704 473.595C567.877 473.281 568.168 473.048 568.513 472.949C568.857 472.849 569.227 472.891 569.542 473.064L573.803 475.257C574.647 475.692 575.364 476.339 575.881 477.135C576.399 477.931 576.701 478.848 576.757 479.795L577.269 489.509ZM598.622 459.86C598.309 459.798 597.987 459.799 597.674 459.862C597.361 459.925 597.064 460.049 596.799 460.227C596.534 460.406 596.307 460.634 596.131 460.9C595.955 461.167 595.834 461.465 595.774 461.778L593.686 472.505L593.113 472.902C593.086 472.562 592.997 472.23 592.85 471.923C592.674 471.543 592.419 471.205 592.101 470.932C591.783 470.66 591.41 470.459 591.007 470.343C590.605 470.228 590.182 470.201 589.768 470.263C589.354 470.326 588.958 470.477 588.608 470.707L584.608 473.335C583.58 474.008 582.747 474.939 582.191 476.035C581.635 477.131 581.376 478.353 581.44 479.58L581.991 490.042C582.002 490.249 582.094 490.443 582.248 490.582C582.402 490.721 582.605 490.792 582.812 490.781L590.614 490.371C590.821 490.36 591.015 490.267 591.153 490.113C591.292 489.959 591.364 489.756 591.353 489.549L591.004 482.933L598.195 477.313C598.36 477.193 598.471 477.013 598.505 476.812L600.582 462.62C600.677 461.996 600.525 461.359 600.159 460.845C599.794 460.33 599.243 459.977 598.622 459.86ZM599.02 462.374L596.991 476.274L589.724 481.953C589.625 482.03 589.545 482.13 589.493 482.244C589.44 482.359 589.416 482.484 589.423 482.61L589.751 488.851L583.51 489.18L583 479.498C582.956 478.55 583.16 477.606 583.592 476.76C584.023 475.915 584.667 475.196 585.461 474.674L589.469 472.046C589.759 471.894 590.094 471.853 590.412 471.93C590.73 472.007 591.01 472.196 591.199 472.463C591.388 472.73 591.473 473.057 591.44 473.383C591.406 473.708 591.255 474.01 591.016 474.233L587.892 476.565C587.728 476.687 587.618 476.868 587.586 477.071C587.554 477.273 587.603 477.479 587.722 477.646C587.841 477.813 588.022 477.926 588.224 477.96C588.427 477.995 588.635 477.949 588.803 477.831L594.839 473.602C595.006 473.485 595.12 473.308 595.157 473.108L597.305 462.042C597.349 461.817 597.48 461.618 597.669 461.49C597.859 461.361 598.092 461.312 598.317 461.355C598.545 461.399 598.746 461.53 598.877 461.721C599.009 461.911 599.06 462.146 599.02 462.374ZM572.874 465.488L585.357 464.83C586.392 464.776 587.362 464.313 588.055 463.543C588.748 462.773 589.107 461.759 589.053 460.724L588.603 452.181L595.204 450.066C595.37 450.014 595.515 449.909 595.615 449.766C595.714 449.624 595.764 449.452 595.754 449.278C595.745 449.104 595.678 448.938 595.564 448.806C595.45 448.675 595.295 448.585 595.124 448.552L578.393 445.944C578.287 445.927 578.178 445.933 578.074 445.961L561.741 450.31C561.574 450.361 561.429 450.466 561.33 450.609C561.23 450.752 561.181 450.924 561.19 451.098C561.199 451.272 561.266 451.438 561.38 451.569C561.494 451.701 561.649 451.79 561.82 451.824L568.316 453.21L568.768 461.792C568.823 462.827 569.286 463.797 570.056 464.49C570.826 465.183 571.84 465.542 572.874 465.488ZM587.492 460.806C587.525 461.427 587.31 462.035 586.894 462.497C586.478 462.959 585.896 463.237 585.275 463.27L572.792 463.927C572.171 463.96 571.563 463.745 571.101 463.329C570.639 462.913 570.361 462.331 570.328 461.71L569.897 453.511L578.526 455.301C578.659 455.326 578.795 455.318 578.924 455.28L587.064 452.677L587.492 460.806ZM578.32 447.512L591.595 449.583L578.647 453.73L565.335 450.966L578.32 447.512Z" fill="url(#paint37_linear_537_44441)" fill-opacity="0.6"/>
<path d="M1392.81 408.903L1388.56 406.71C1388.18 406.519 1387.78 406.41 1387.36 406.391C1386.94 406.372 1386.52 406.444 1386.13 406.601C1385.74 406.758 1385.4 406.997 1385.11 407.301C1384.82 407.606 1384.6 407.968 1384.47 408.365C1384.35 408.686 1384.3 409.026 1384.31 409.367L1383.7 409.031L1380.49 398.584C1380.32 397.963 1379.9 397.438 1379.34 397.122C1378.78 396.807 1378.12 396.728 1377.5 396.903C1376.87 397.078 1376.35 397.492 1376.03 398.054C1375.72 398.617 1375.64 399.281 1375.81 399.902L1379.36 413.821C1379.41 414.015 1379.53 414.182 1379.7 414.288L1387.46 419.121L1387.81 425.737C1387.82 425.944 1387.91 426.138 1388.06 426.276C1388.22 426.415 1388.42 426.487 1388.63 426.476L1396.43 426.065C1396.64 426.054 1396.83 425.961 1396.97 425.807C1397.11 425.653 1397.18 425.451 1397.17 425.244L1396.62 414.782C1396.55 413.555 1396.17 412.366 1395.5 411.335C1394.83 410.304 1393.9 409.465 1392.81 408.903ZM1395.57 424.546L1389.33 424.874L1389 418.633C1388.99 418.507 1388.95 418.385 1388.89 418.277C1388.82 418.168 1388.74 418.077 1388.63 418.011L1380.81 413.126L1377.34 399.517C1377.29 399.302 1377.33 399.077 1377.44 398.889C1377.56 398.701 1377.74 398.563 1377.95 398.503C1378.16 398.444 1378.39 398.466 1378.58 398.567C1378.78 398.668 1378.93 398.839 1379 399.046L1382.3 409.825C1382.36 410.019 1382.49 410.184 1382.67 410.282L1389.11 413.855C1389.29 413.954 1389.51 413.978 1389.7 413.922C1389.9 413.866 1390.07 413.735 1390.17 413.557C1390.27 413.378 1390.3 413.168 1390.24 412.97C1390.19 412.773 1390.06 412.604 1389.89 412.5L1386.53 410.47C1386.22 410.297 1385.99 410.006 1385.89 409.661C1385.79 409.316 1385.83 408.946 1386 408.632C1386.18 408.318 1386.47 408.086 1386.81 407.986C1387.16 407.886 1387.53 407.928 1387.84 408.101L1392.1 410.294C1392.95 410.729 1393.66 411.376 1394.18 412.172C1394.7 412.968 1395 413.885 1395.06 414.833L1395.57 424.546ZM1416.92 394.897C1416.61 394.835 1416.29 394.836 1415.97 394.899C1415.66 394.962 1415.36 395.086 1415.1 395.264C1414.83 395.443 1414.61 395.671 1414.43 395.938C1414.25 396.204 1414.13 396.502 1414.07 396.816L1411.99 407.542L1411.41 407.94C1411.39 407.6 1411.3 407.267 1411.15 406.96C1410.97 406.58 1410.72 406.242 1410.4 405.969C1410.08 405.697 1409.71 405.496 1409.31 405.381C1408.9 405.265 1408.48 405.238 1408.07 405.301C1407.65 405.363 1407.26 405.514 1406.91 405.744L1402.91 408.372C1401.88 409.045 1401.05 409.976 1400.49 411.072C1399.93 412.168 1399.67 413.39 1399.74 414.617L1400.29 425.079C1400.3 425.286 1400.39 425.48 1400.55 425.619C1400.7 425.758 1400.9 425.829 1401.11 425.818L1408.91 425.408C1409.12 425.397 1409.31 425.304 1409.45 425.15C1409.59 424.996 1409.66 424.793 1409.65 424.586L1409.3 417.971L1416.49 412.35C1416.66 412.23 1416.77 412.05 1416.8 411.849L1418.88 397.658C1418.98 397.033 1418.82 396.396 1418.46 395.882C1418.09 395.367 1417.54 395.014 1416.92 394.897ZM1417.32 397.411L1415.29 411.311L1408.02 416.99C1407.92 417.067 1407.84 417.167 1407.79 417.281C1407.74 417.396 1407.72 417.521 1407.72 417.647L1408.05 423.888L1401.81 424.217L1401.3 414.535C1401.26 413.587 1401.46 412.643 1401.89 411.797C1402.32 410.952 1402.97 410.233 1403.76 409.712L1407.77 407.083C1408.06 406.931 1408.39 406.89 1408.71 406.967C1409.03 407.044 1409.31 407.233 1409.5 407.5C1409.69 407.768 1409.77 408.094 1409.74 408.42C1409.7 408.745 1409.55 409.048 1409.31 409.27L1406.19 411.602C1406.03 411.724 1405.92 411.906 1405.88 412.108C1405.85 412.31 1405.9 412.516 1406.02 412.683C1406.14 412.85 1406.32 412.963 1406.52 412.997C1406.73 413.032 1406.93 412.986 1407.1 412.868L1413.14 408.639C1413.3 408.522 1413.42 408.345 1413.46 408.145L1415.6 397.079C1415.65 396.854 1415.78 396.655 1415.97 396.527C1416.16 396.398 1416.39 396.35 1416.62 396.392C1416.84 396.436 1417.04 396.567 1417.18 396.758C1417.31 396.948 1417.36 397.183 1417.32 397.411ZM1391.17 400.525L1403.66 399.867C1404.69 399.813 1405.66 399.35 1406.35 398.58C1407.05 397.81 1407.41 396.796 1407.35 395.761L1406.9 387.218L1413.5 385.103C1413.67 385.052 1413.81 384.946 1413.91 384.803C1414.01 384.661 1414.06 384.489 1414.05 384.315C1414.04 384.141 1413.98 383.975 1413.86 383.844C1413.75 383.712 1413.59 383.623 1413.42 383.589L1396.69 380.981C1396.59 380.964 1396.48 380.97 1396.37 380.998L1380.04 385.347C1379.87 385.398 1379.73 385.504 1379.63 385.646C1379.53 385.789 1379.48 385.961 1379.49 386.135C1379.5 386.309 1379.56 386.475 1379.68 386.606C1379.79 386.738 1379.95 386.827 1380.12 386.861L1386.62 388.248L1387.07 396.829C1387.12 397.864 1387.58 398.834 1388.35 399.528C1389.12 400.221 1390.14 400.579 1391.17 400.525ZM1405.79 395.843C1405.82 396.464 1405.61 397.072 1405.19 397.534C1404.78 397.997 1404.19 398.274 1403.57 398.307L1391.09 398.964C1390.47 398.997 1389.86 398.782 1389.4 398.366C1388.94 397.95 1388.66 397.368 1388.63 396.747L1388.2 388.548L1396.83 390.339C1396.96 390.363 1397.09 390.356 1397.22 390.318L1405.36 387.714L1405.79 395.843ZM1396.62 382.55L1409.89 384.62L1396.95 388.767L1383.63 386.003L1396.62 382.55Z" fill="url(#paint38_linear_537_44441)" fill-opacity="0.6"/>
<g clip-path="url(#clip18_537_44441)">
<path d="M492.121 348.26L488.697 344.916C488.397 344.624 488.038 344.4 487.643 344.259C487.249 344.118 486.829 344.064 486.412 344.101C485.995 344.137 485.59 344.263 485.226 344.469C484.862 344.676 484.546 344.959 484.301 345.299C484.098 345.572 483.947 345.881 483.856 346.21L483.369 345.71L483.371 334.782C483.386 334.138 483.144 333.514 482.699 333.048C482.253 332.581 481.641 332.311 480.997 332.296C480.352 332.282 479.728 332.523 479.262 332.969C478.796 333.414 478.526 334.026 478.511 334.671L477.815 349.016C477.807 349.217 477.876 349.413 478.009 349.564L484.008 356.459L482.401 362.886C482.351 363.087 482.382 363.3 482.489 363.478C482.596 363.655 482.768 363.783 482.969 363.834L490.549 365.728C490.75 365.779 490.962 365.747 491.14 365.64C491.318 365.534 491.446 365.361 491.496 365.16L494.037 354.996C494.334 353.804 494.314 352.555 493.977 351.373C493.641 350.191 493.001 349.118 492.121 348.26ZM490.17 364.023L484.106 362.507L485.622 356.444C485.652 356.322 485.653 356.194 485.623 356.071C485.593 355.949 485.535 355.836 485.452 355.741L479.405 348.777L480.078 334.748C480.097 334.529 480.2 334.326 480.363 334.18C480.527 334.033 480.741 333.954 480.96 333.959C481.18 333.964 481.39 334.052 481.547 334.206C481.705 334.359 481.798 334.567 481.808 334.786L481.8 346.058C481.799 346.262 481.877 346.457 482.018 346.604L487.134 351.91C487.277 352.057 487.472 352.142 487.678 352.147C487.883 352.152 488.082 352.075 488.231 351.934C488.38 351.793 488.467 351.6 488.474 351.396C488.482 351.191 488.409 350.992 488.271 350.841L485.66 347.917C485.41 347.659 485.274 347.313 485.279 346.954C485.285 346.596 485.433 346.254 485.691 346.004C485.949 345.755 486.295 345.618 486.654 345.624C487.013 345.63 487.355 345.778 487.604 346.036L491.036 349.382C491.715 350.045 492.21 350.874 492.472 351.787C492.733 352.699 492.753 353.664 492.529 354.587L490.17 364.023ZM519.278 341.939C518.997 341.788 518.688 341.694 518.371 341.662C518.053 341.631 517.733 341.662 517.427 341.755C517.122 341.848 516.838 342 516.592 342.203C516.345 342.406 516.142 342.656 515.992 342.937L510.851 352.58L510.186 352.792C510.261 352.46 510.273 352.116 510.222 351.779C510.166 351.364 510.021 350.966 509.797 350.612C509.573 350.258 509.275 349.957 508.924 349.729C508.573 349.5 508.177 349.35 507.763 349.289C507.349 349.227 506.926 349.256 506.524 349.372L501.929 350.712C500.749 351.054 499.679 351.7 498.826 352.585C497.974 353.47 497.368 354.562 497.069 355.754L494.528 365.918C494.478 366.119 494.509 366.332 494.616 366.509C494.722 366.687 494.895 366.815 495.096 366.865L502.675 368.76C502.876 368.81 503.089 368.779 503.267 368.672C503.445 368.565 503.573 368.393 503.623 368.192L505.23 361.764L513.752 358.5C513.945 358.433 514.104 358.293 514.196 358.111L520.343 345.152C520.616 344.583 520.658 343.93 520.459 343.331C520.26 342.731 519.837 342.232 519.278 341.939ZM518.921 344.459L512.905 357.152L504.294 360.451C504.176 360.496 504.07 360.568 503.987 360.662C503.903 360.756 503.843 360.869 503.812 360.991L502.296 367.055L496.233 365.539L498.585 356.133C498.821 355.213 499.292 354.371 499.953 353.689C500.613 353.007 501.44 352.509 502.351 352.243L506.954 350.905C507.276 350.845 507.608 350.904 507.89 351.071C508.171 351.237 508.383 351.5 508.485 351.811C508.588 352.122 508.574 352.46 508.446 352.761C508.318 353.062 508.086 353.307 507.791 353.45L504.121 354.763C503.928 354.832 503.77 354.973 503.681 355.157C503.591 355.341 503.577 355.552 503.642 355.746C503.707 355.941 503.847 356.102 504.03 356.195C504.213 356.287 504.426 356.304 504.621 356.241L511.632 353.967C511.825 353.904 511.987 353.768 512.081 353.588L517.379 343.639C517.487 343.436 517.67 343.285 517.889 343.217C518.108 343.15 518.345 343.172 518.548 343.278C518.753 343.387 518.907 343.571 518.976 343.792C519.046 344.013 519.026 344.253 518.921 344.459ZM493.012 339.769L505.139 342.801C506.144 343.052 507.207 342.894 508.096 342.361C508.984 341.828 509.624 340.964 509.876 339.959L511.95 331.66L518.882 331.572C519.056 331.572 519.225 331.514 519.362 331.407C519.499 331.3 519.597 331.15 519.639 330.981C519.681 330.812 519.666 330.633 519.595 330.474C519.525 330.315 519.403 330.184 519.249 330.102L504.019 322.703C503.922 322.656 503.816 322.629 503.708 322.625L486.818 321.994C486.643 321.994 486.474 322.053 486.337 322.16C486.2 322.267 486.102 322.417 486.06 322.586C486.018 322.755 486.033 322.933 486.104 323.092C486.175 323.252 486.296 323.383 486.45 323.465L492.254 326.695L490.17 335.032C489.918 336.038 490.077 337.101 490.61 337.99C491.143 338.878 492.007 339.518 493.012 339.769ZM508.36 339.58C508.209 340.183 507.825 340.701 507.292 341.021C506.759 341.341 506.121 341.436 505.518 341.285L493.391 338.254C492.788 338.103 492.269 337.719 491.949 337.186C491.63 336.653 491.535 336.014 491.685 335.411L493.677 327.446L501.402 331.688C501.521 331.75 501.654 331.783 501.788 331.785L510.334 331.682L508.36 339.58ZM503.488 324.181L515.573 330.053L501.978 330.221L490.061 323.675L503.488 324.181Z" fill="url(#paint39_linear_537_44441)" fill-opacity="0.6"/>
</g>
<g clip-path="url(#clip19_537_44441)">
<path d="M1224.12 417.26L1220.7 413.916C1220.4 413.624 1220.04 413.4 1219.64 413.259C1219.25 413.118 1218.83 413.064 1218.41 413.101C1217.99 413.137 1217.59 413.263 1217.23 413.469C1216.86 413.676 1216.55 413.959 1216.3 414.299C1216.1 414.572 1215.95 414.881 1215.86 415.21L1215.37 414.71L1215.37 403.782C1215.39 403.138 1215.14 402.514 1214.7 402.048C1214.25 401.581 1213.64 401.311 1213 401.296C1212.35 401.282 1211.73 401.523 1211.26 401.969C1210.8 402.414 1210.53 403.026 1210.51 403.671L1209.82 418.016C1209.81 418.217 1209.88 418.413 1210.01 418.564L1216.01 425.459L1214.4 431.886C1214.35 432.087 1214.38 432.3 1214.49 432.478C1214.6 432.655 1214.77 432.783 1214.97 432.834L1222.55 434.728C1222.75 434.779 1222.96 434.747 1223.14 434.64C1223.32 434.534 1223.45 434.361 1223.5 434.16L1226.04 423.996C1226.33 422.804 1226.31 421.555 1225.98 420.373C1225.64 419.191 1225 418.118 1224.12 417.26ZM1222.17 433.023L1216.11 431.507L1217.62 425.444C1217.65 425.322 1217.65 425.194 1217.62 425.071C1217.59 424.949 1217.53 424.836 1217.45 424.741L1211.41 417.777L1212.08 403.748C1212.1 403.529 1212.2 403.326 1212.36 403.18C1212.53 403.033 1212.74 402.954 1212.96 402.959C1213.18 402.964 1213.39 403.052 1213.55 403.206C1213.7 403.359 1213.8 403.567 1213.81 403.786L1213.8 415.058C1213.8 415.262 1213.88 415.457 1214.02 415.604L1219.13 420.91C1219.28 421.057 1219.47 421.142 1219.68 421.147C1219.88 421.152 1220.08 421.075 1220.23 420.934C1220.38 420.793 1220.47 420.6 1220.47 420.396C1220.48 420.191 1220.41 419.992 1220.27 419.841L1217.66 416.917C1217.41 416.659 1217.27 416.313 1217.28 415.954C1217.29 415.596 1217.43 415.254 1217.69 415.004C1217.95 414.755 1218.3 414.618 1218.65 414.624C1219.01 414.63 1219.35 414.778 1219.6 415.036L1223.04 418.382C1223.71 419.045 1224.21 419.874 1224.47 420.787C1224.73 421.699 1224.75 422.664 1224.53 423.587L1222.17 433.023ZM1251.28 410.939C1251 410.788 1250.69 410.694 1250.37 410.662C1250.05 410.631 1249.73 410.662 1249.43 410.755C1249.12 410.848 1248.84 411 1248.59 411.203C1248.35 411.406 1248.14 411.656 1247.99 411.937L1242.85 421.58L1242.19 421.792C1242.26 421.46 1242.27 421.116 1242.22 420.779C1242.17 420.364 1242.02 419.966 1241.8 419.612C1241.57 419.258 1241.28 418.957 1240.92 418.729C1240.57 418.5 1240.18 418.35 1239.76 418.289C1239.35 418.227 1238.93 418.256 1238.52 418.372L1233.93 419.712C1232.75 420.054 1231.68 420.7 1230.83 421.585C1229.97 422.47 1229.37 423.562 1229.07 424.754L1226.53 434.918C1226.48 435.119 1226.51 435.332 1226.62 435.509C1226.72 435.687 1226.9 435.815 1227.1 435.865L1234.68 437.76C1234.88 437.81 1235.09 437.779 1235.27 437.672C1235.44 437.565 1235.57 437.393 1235.62 437.192L1237.23 430.764L1245.75 427.5C1245.95 427.433 1246.1 427.293 1246.2 427.111L1252.34 414.152C1252.62 413.583 1252.66 412.93 1252.46 412.331C1252.26 411.731 1251.84 411.232 1251.28 410.939ZM1250.92 413.459L1244.91 426.152L1236.29 429.451C1236.18 429.496 1236.07 429.568 1235.99 429.662C1235.9 429.756 1235.84 429.869 1235.81 429.991L1234.3 436.055L1228.23 434.539L1230.58 425.133C1230.82 424.213 1231.29 423.371 1231.95 422.689C1232.61 422.007 1233.44 421.509 1234.35 421.243L1238.95 419.905C1239.28 419.845 1239.61 419.904 1239.89 420.071C1240.17 420.237 1240.38 420.5 1240.49 420.811C1240.59 421.122 1240.57 421.46 1240.45 421.761C1240.32 422.062 1240.09 422.307 1239.79 422.45L1236.12 423.763C1235.93 423.832 1235.77 423.973 1235.68 424.157C1235.59 424.341 1235.58 424.552 1235.64 424.746C1235.71 424.941 1235.85 425.102 1236.03 425.195C1236.21 425.287 1236.43 425.304 1236.62 425.241L1243.63 422.967C1243.83 422.904 1243.99 422.768 1244.08 422.588L1249.38 412.639C1249.49 412.436 1249.67 412.285 1249.89 412.217C1250.11 412.15 1250.35 412.172 1250.55 412.278C1250.75 412.387 1250.91 412.571 1250.98 412.792C1251.05 413.013 1251.03 413.253 1250.92 413.459ZM1225.01 408.769L1237.14 411.801C1238.14 412.052 1239.21 411.894 1240.1 411.361C1240.98 410.828 1241.62 409.964 1241.88 408.959L1243.95 400.66L1250.88 400.572C1251.06 400.572 1251.22 400.514 1251.36 400.407C1251.5 400.3 1251.6 400.15 1251.64 399.981C1251.68 399.812 1251.67 399.633 1251.6 399.474C1251.52 399.315 1251.4 399.184 1251.25 399.102L1236.02 391.703C1235.92 391.656 1235.82 391.629 1235.71 391.625L1218.82 390.994C1218.64 390.994 1218.47 391.053 1218.34 391.16C1218.2 391.267 1218.1 391.417 1218.06 391.586C1218.02 391.755 1218.03 391.933 1218.1 392.092C1218.17 392.252 1218.3 392.383 1218.45 392.465L1224.25 395.695L1222.17 404.032C1221.92 405.038 1222.08 406.101 1222.61 406.99C1223.14 407.878 1224.01 408.518 1225.01 408.769ZM1240.36 408.58C1240.21 409.183 1239.82 409.701 1239.29 410.021C1238.76 410.341 1238.12 410.436 1237.52 410.285L1225.39 407.254C1224.79 407.103 1224.27 406.719 1223.95 406.186C1223.63 405.653 1223.53 405.014 1223.69 404.411L1225.68 396.446L1233.4 400.688C1233.52 400.75 1233.65 400.783 1233.79 400.785L1242.33 400.682L1240.36 408.58ZM1235.49 393.181L1247.57 399.053L1233.98 399.221L1222.06 392.675L1235.49 393.181Z" fill="url(#paint40_linear_537_44441)" fill-opacity="0.6"/>
</g>
<defs>
<linearGradient id="paint0_linear_537_44441" x1="720" y1="-67" x2="720" y2="649" gradientUnits="userSpaceOnUse">
<stop stop-color="white"/>
<stop offset="0.845961" stop-color="#FFF2C2"/>
</linearGradient>
<linearGradient id="paint1_linear_537_44441" x1="43.0177" y1="76.8799" x2="67.9825" y2="120.12" gradientUnits="userSpaceOnUse">
<stop stop-color="#FDE999"/>
<stop offset="1" stop-color="#E6DBB2"/>
</linearGradient>
<linearGradient id="paint2_linear_537_44441" x1="720.279" y1="66.8799" x2="745.244" y2="110.12" gradientUnits="userSpaceOnUse">
<stop stop-color="#FDE999"/>
<stop offset="1" stop-color="#E6DBB2"/>
</linearGradient>
<linearGradient id="paint3_linear_537_44441" x1="749.602" y1="302.329" x2="734.173" y2="331.446" gradientUnits="userSpaceOnUse">
<stop stop-color="#FDE999"/>
<stop offset="1" stop-color="#E6DBB2"/>
</linearGradient>
<linearGradient id="paint4_linear_537_44441" x1="841.908" y1="447.643" x2="826.48" y2="476.76" gradientUnits="userSpaceOnUse">
<stop stop-color="#FDE999"/>
<stop offset="1" stop-color="#E6DBB2"/>
</linearGradient>
<linearGradient id="paint5_linear_537_44441" x1="550.21" y1="615.386" x2="566.121" y2="642.945" gradientUnits="userSpaceOnUse">
<stop stop-color="#FDE999"/>
<stop offset="1" stop-color="#E6DBB2"/>
</linearGradient>
<linearGradient id="paint6_linear_537_44441" x1="1227.21" y1="573.386" x2="1243.12" y2="600.945" gradientUnits="userSpaceOnUse">
<stop stop-color="#FDE999"/>
<stop offset="1" stop-color="#E6DBB2"/>
</linearGradient>
<linearGradient id="paint7_linear_537_44441" x1="309.405" y1="340.242" x2="304.377" y2="350.666" gradientUnits="userSpaceOnUse">
<stop stop-color="#FDE999"/>
<stop offset="1" stop-color="#E6DBB2"/>
</linearGradient>
<linearGradient id="paint8_linear_537_44441" x1="330.092" y1="343.116" x2="323.727" y2="356.311" gradientUnits="userSpaceOnUse">
<stop stop-color="#FDE999"/>
<stop offset="1" stop-color="#E6DBB2"/>
</linearGradient>
<linearGradient id="paint9_linear_537_44441" x1="309.652" y1="334.255" x2="307.262" y2="339.208" gradientUnits="userSpaceOnUse">
<stop stop-color="#FDE999"/>
<stop offset="1" stop-color="#E6DBB2"/>
</linearGradient>
<linearGradient id="paint10_linear_537_44441" x1="333.349" y1="318.97" x2="322.894" y2="340.643" gradientUnits="userSpaceOnUse">
<stop stop-color="#FDE999"/>
<stop offset="1" stop-color="#E6DBB2"/>
</linearGradient>
<linearGradient id="paint11_linear_537_44441" x1="1323.29" y1="163.869" x2="1318.27" y2="174.293" gradientUnits="userSpaceOnUse">
<stop stop-color="#FDE999"/>
<stop offset="1" stop-color="#E6DBB2"/>
</linearGradient>
<linearGradient id="paint12_linear_537_44441" x1="1343.98" y1="166.742" x2="1337.62" y2="179.937" gradientUnits="userSpaceOnUse">
<stop stop-color="#FDE999"/>
<stop offset="1" stop-color="#E6DBB2"/>
</linearGradient>
<linearGradient id="paint13_linear_537_44441" x1="1323.54" y1="157.881" x2="1321.15" y2="162.835" gradientUnits="userSpaceOnUse">
<stop stop-color="#FDE999"/>
<stop offset="1" stop-color="#E6DBB2"/>
</linearGradient>
<linearGradient id="paint14_linear_537_44441" x1="1347.24" y1="142.596" x2="1336.78" y2="164.269" gradientUnits="userSpaceOnUse">
<stop stop-color="#FDE999"/>
<stop offset="1" stop-color="#E6DBB2"/>
</linearGradient>
<linearGradient id="paint15_linear_537_44441" x1="198.078" y1="176.321" x2="202.394" y2="187.06" gradientUnits="userSpaceOnUse">
<stop stop-color="#FDE999"/>
<stop offset="1" stop-color="#E6DBB2"/>
</linearGradient>
<linearGradient id="paint16_linear_537_44441" x1="214.138" y1="162.968" x2="219.601" y2="176.561" gradientUnits="userSpaceOnUse">
<stop stop-color="#FDE999"/>
<stop offset="1" stop-color="#E6DBB2"/>
</linearGradient>
<linearGradient id="paint17_linear_537_44441" x1="193.819" y1="172.105" x2="195.871" y2="177.208" gradientUnits="userSpaceOnUse">
<stop stop-color="#FDE999"/>
<stop offset="1" stop-color="#E6DBB2"/>
</linearGradient>
<linearGradient id="paint18_linear_537_44441" x1="198.486" y1="144.296" x2="207.461" y2="166.622" gradientUnits="userSpaceOnUse">
<stop stop-color="#FDE999"/>
<stop offset="1" stop-color="#E6DBB2"/>
</linearGradient>
<linearGradient id="paint19_linear_537_44441" x1="913.087" y1="196.331" x2="917.404" y2="207.069" gradientUnits="userSpaceOnUse">
<stop stop-color="#FDE999"/>
<stop offset="1" stop-color="#E6DBB2"/>
</linearGradient>
<linearGradient id="paint20_linear_537_44441" x1="929.147" y1="182.977" x2="934.611" y2="196.57" gradientUnits="userSpaceOnUse">
<stop stop-color="#FDE999"/>
<stop offset="1" stop-color="#E6DBB2"/>
</linearGradient>
<linearGradient id="paint21_linear_537_44441" x1="908.829" y1="192.115" x2="910.88" y2="197.218" gradientUnits="userSpaceOnUse">
<stop stop-color="#FDE999"/>
<stop offset="1" stop-color="#E6DBB2"/>
</linearGradient>
<linearGradient id="paint22_linear_537_44441" x1="913.496" y1="164.305" x2="922.47" y2="186.631" gradientUnits="userSpaceOnUse">
<stop stop-color="#FDE999"/>
<stop offset="1" stop-color="#E6DBB2"/>
</linearGradient>
<linearGradient id="paint23_linear_537_44441" x1="33.9274" y1="582.214" x2="29.619" y2="592.955" gradientUnits="userSpaceOnUse">
<stop stop-color="#FDE999"/>
<stop offset="1" stop-color="#E6DBB2"/>
</linearGradient>
<linearGradient id="paint24_linear_537_44441" x1="54.7623" y1="583.674" x2="49.3085" y2="597.272" gradientUnits="userSpaceOnUse">
<stop stop-color="#FDE999"/>
<stop offset="1" stop-color="#E6DBB2"/>
</linearGradient>
<linearGradient id="paint25_linear_537_44441" x1="33.7672" y1="576.223" x2="31.7197" y2="581.328" gradientUnits="userSpaceOnUse">
<stop stop-color="#FDE999"/>
<stop offset="1" stop-color="#E6DBB2"/>
</linearGradient>
<linearGradient id="paint26_linear_537_44441" x1="56.3703" y1="559.363" x2="47.4127" y2="581.696" gradientUnits="userSpaceOnUse">
<stop stop-color="#FDE999"/>
<stop offset="1" stop-color="#E6DBB2"/>
</linearGradient>
<linearGradient id="paint27_linear_537_44441" x1="790.927" y1="599.214" x2="786.619" y2="609.955" gradientUnits="userSpaceOnUse">
<stop stop-color="#FDE999"/>
<stop offset="1" stop-color="#E6DBB2"/>
</linearGradient>
<linearGradient id="paint28_linear_537_44441" x1="811.762" y1="600.674" x2="806.308" y2="614.272" gradientUnits="userSpaceOnUse">
<stop stop-color="#FDE999"/>
<stop offset="1" stop-color="#E6DBB2"/>
</linearGradient>
<linearGradient id="paint29_linear_537_44441" x1="790.767" y1="593.223" x2="788.72" y2="598.328" gradientUnits="userSpaceOnUse">
<stop stop-color="#FDE999"/>
<stop offset="1" stop-color="#E6DBB2"/>
</linearGradient>
<linearGradient id="paint30_linear_537_44441" x1="813.37" y1="576.363" x2="804.413" y2="598.696" gradientUnits="userSpaceOnUse">
<stop stop-color="#FDE999"/>
<stop offset="1" stop-color="#E6DBB2"/>
</linearGradient>
<linearGradient id="paint31_linear_537_44441" x1="417.745" y1="58.6173" x2="406.825" y2="102.297" gradientUnits="userSpaceOnUse">
<stop stop-color="#FDE999"/>
<stop offset="1" stop-color="#E6DBB2"/>
</linearGradient>
<linearGradient id="paint32_linear_537_44441" x1="1095.01" y1="48.6173" x2="1084.09" y2="92.2975" gradientUnits="userSpaceOnUse">
<stop stop-color="#FDE999"/>
<stop offset="1" stop-color="#E6DBB2"/>
</linearGradient>
<linearGradient id="paint33_linear_537_44441" x1="81.7451" y1="336.617" x2="70.8253" y2="380.297" gradientUnits="userSpaceOnUse">
<stop stop-color="#FDE999"/>
<stop offset="1" stop-color="#E6DBB2"/>
</linearGradient>
<linearGradient id="paint34_linear_537_44441" x1="990.745" y1="325.617" x2="979.825" y2="369.297" gradientUnits="userSpaceOnUse">
<stop stop-color="#FDE999"/>
<stop offset="1" stop-color="#E6DBB2"/>
</linearGradient>
<linearGradient id="paint35_linear_537_44441" x1="326.356" y1="528.415" x2="350.438" y2="566.458" gradientUnits="userSpaceOnUse">
<stop stop-color="#FDE999"/>
<stop offset="1" stop-color="#E6DBB2"/>
</linearGradient>
<linearGradient id="paint36_linear_537_44441" x1="1003.62" y1="518.415" x2="1027.7" y2="556.458" gradientUnits="userSpaceOnUse">
<stop stop-color="#FDE999"/>
<stop offset="1" stop-color="#E6DBB2"/>
</linearGradient>
<linearGradient id="paint37_linear_537_44441" x1="578.107" y1="445.942" x2="580.474" y2="490.904" gradientUnits="userSpaceOnUse">
<stop stop-color="#FDE999"/>
<stop offset="1" stop-color="#E6DBB2"/>
</linearGradient>
<linearGradient id="paint38_linear_537_44441" x1="1396.41" y1="380.979" x2="1398.77" y2="425.942" gradientUnits="userSpaceOnUse">
<stop stop-color="#FDE999"/>
<stop offset="1" stop-color="#E6DBB2"/>
</linearGradient>
<linearGradient id="paint39_linear_537_44441" x1="503.745" y1="322.617" x2="492.825" y2="366.297" gradientUnits="userSpaceOnUse">
<stop stop-color="#FDE999"/>
<stop offset="1" stop-color="#E6DBB2"/>
</linearGradient>
<linearGradient id="paint40_linear_537_44441" x1="1235.75" y1="391.617" x2="1224.83" y2="435.297" gradientUnits="userSpaceOnUse">
<stop stop-color="#FDE999"/>
<stop offset="1" stop-color="#E6DBB2"/>
</linearGradient>
<clipPath id="clip0_537_44441">
<rect width="67" height="67" fill="white" transform="translate(9.73828 86.2383) rotate(-30)"/>
</clipPath>
<clipPath id="clip1_537_44441">
<rect width="67" height="67" fill="white" transform="translate(687 76.2383) rotate(-30)"/>
</clipPath>
<clipPath id="clip2_537_44441">
<rect width="44.2176" height="44.2176" fill="white" transform="translate(732.703 287) rotate(27.9177)"/>
</clipPath>
<clipPath id="clip3_537_44441">
<rect width="44.2176" height="44.2176" fill="white" transform="translate(825.01 432.314) rotate(27.9177)"/>
</clipPath>
<clipPath id="clip4_537_44441">
<rect width="42.701" height="42.701" fill="white" transform="translate(529 621.351) rotate(-30)"/>
</clipPath>
<clipPath id="clip5_537_44441">
<rect width="42.701" height="42.701" fill="white" transform="translate(1206 579.351) rotate(-30)"/>
</clipPath>
<clipPath id="clip6_537_44441">
<rect width="44" height="44" fill="white" transform="translate(310.117 307) rotate(25.7527)"/>
</clipPath>
<clipPath id="clip7_537_44441">
<rect width="44" height="44" fill="white" transform="translate(1324.01 130.626) rotate(25.7527)"/>
</clipPath>
<clipPath id="clip8_537_44441">
<rect width="44" height="44" fill="white" transform="translate(173.99 153.401) rotate(-21.8979)"/>
</clipPath>
<clipPath id="clip9_537_44441">
<rect width="44" height="44" fill="white" transform="translate(889 173.41) rotate(-21.8979)"/>
</clipPath>
<clipPath id="clip10_537_44441">
<rect width="44" height="44" fill="white" transform="translate(32.3789 549) rotate(21.8555)"/>
</clipPath>
<clipPath id="clip11_537_44441">
<rect width="44" height="44" fill="white" transform="translate(789.379 566) rotate(21.8555)"/>
</clipPath>
<clipPath id="clip12_537_44441">
<rect width="50" height="50" fill="white" transform="translate(394.127 50) rotate(14.0359)"/>
</clipPath>
<clipPath id="clip13_537_44441">
<rect width="50" height="50" fill="white" transform="translate(1071.39 40) rotate(14.0359)"/>
</clipPath>
<clipPath id="clip14_537_44441">
<rect width="50" height="50" fill="white" transform="translate(58.127 328) rotate(14.0359)"/>
</clipPath>
<clipPath id="clip15_537_44441">
<rect width="50" height="50" fill="white" transform="translate(967.127 317) rotate(14.0359)"/>
</clipPath>
<clipPath id="clip16_537_44441">
<rect width="50" height="50" fill="white" transform="translate(303.822 539.565) rotate(-32.3357)"/>
</clipPath>
<clipPath id="clip17_537_44441">
<rect width="50" height="50" fill="white" transform="translate(981.084 529.565) rotate(-32.3357)"/>
</clipPath>
<clipPath id="clip18_537_44441">
<rect width="50" height="50" fill="white" transform="translate(480.127 314) rotate(14.0359)"/>
</clipPath>
<clipPath id="clip19_537_44441">
<rect width="50" height="50" fill="white" transform="translate(1212.13 383) rotate(14.0359)"/>
</clipPath>
</defs>
</svg>
