<svg xmlns="http://www.w3.org/2000/svg" width="17.888" height="14.486" viewBox="0 0 17.888 14.486">
  <g id="download" transform="translate(0 14.486) rotate(-90)">
    <g id="Group_1082" data-name="Group 1082" transform="translate(0)">
      <g id="Group_1081" data-name="Group 1081" transform="translate(0 0)">
        <path id="Path_22416" data-name="Path 22416" d="M14.283,10.91l-1.072-1.22a.814.814,0,0,0-1.146-.075l-3.2,2.8V.813A.813.813,0,0,0,8.056,0H6.43a.813.813,0,0,0-.813.813v11.6l-3.2-2.8a.815.815,0,0,0-1.147.075L.2,10.909a.814.814,0,0,0,.075,1.15l6.43,5.628a.814.814,0,0,0,1.072,0l6.429-5.628A.812.812,0,0,0,14.283,10.91Z" fill="#bbbbbe"/>
      </g>
    </g>
  </g>
</svg>
