<svg id="rupee_1_" data-name="rupee (1)" xmlns="http://www.w3.org/2000/svg" width="28.713" height="28.713" viewBox="0 0 28.713 28.713">
  <g id="Group_39461" data-name="Group 39461" transform="translate(0)">
    <path id="Path_84249" data-name="Path 84249" d="M28.713,14.357A14.383,14.383,0,1,1,24.076,3.791,14.357,14.357,0,0,1,28.713,14.357Z" transform="translate(0)" fill="#f0cd00"/>
    <path id="Path_84250" data-name="Path 84250" d="M45.884,14.517A14.356,14.356,0,0,1,32.062,28.863a14.357,14.357,0,0,1,0-28.693A14.356,14.356,0,0,1,45.884,14.517Z" transform="translate(-17.171 -0.16)" fill="#ffde50"/>
    <path id="Path_84251" data-name="Path 84251" d="M55.763,35.488,35.478,55.773a14.418,14.418,0,0,1-1.818-2.452L53.312,33.67A14.351,14.351,0,0,1,55.763,35.488Z" transform="translate(-31.688 -31.697)" fill="#ffea94"/>
    <path id="Path_84252" data-name="Path 84252" d="M115.64,97.025,97.025,115.641a14.336,14.336,0,0,1-3.635-2.088L113.552,93.39A14.311,14.311,0,0,1,115.64,97.025Z" transform="translate(-87.918 -87.918)" fill="#ffea94"/>
    <path id="Path_84253" data-name="Path 84253" d="M76.932,65.776a11.156,11.156,0,0,1-22.311.137c0-.046,0-.091,0-.137A11.156,11.156,0,0,1,65.776,54.62h.138A11.1,11.1,0,0,1,72.2,56.656a11.229,11.229,0,0,1,3.073,3.269A11.1,11.1,0,0,1,76.932,65.776Z" transform="translate(-51.419 -51.419)" fill="#faa300"/>
    <path id="Path_84254" data-name="Path 84254" d="M73.664,57.887,57.887,73.664a11.116,11.116,0,0,1-3.266-7.751c0-.046,0-.091,0-.137A11.156,11.156,0,0,1,65.776,54.62h.138A11.1,11.1,0,0,1,72.2,56.656,11.258,11.258,0,0,1,73.664,57.887Z" transform="translate(-51.419 -51.419)" fill="#ffbd00"/>
    <path id="Path_84255" data-name="Path 84255" d="M246.031,65.776a11.156,11.156,0,0,1-11.156,11.156q-.317,0-.63-.018a11.156,11.156,0,0,0,0-22.277q.313-.018.63-.018A11.156,11.156,0,0,1,246.031,65.776Z" transform="translate(-220.519 -51.419)" fill="#f68e00"/>
  </g>
  <path id="Path_84256" data-name="Path 84256" d="M123.924,129.339h-1.954a4.712,4.712,0,0,0-.507-1.227h2.461a1.172,1.172,0,1,0,0-2.344H112.852a1.172,1.172,0,1,0,0,2.344h4.523a2.4,2.4,0,0,1,2.091,1.227h-6.615a1.172,1.172,0,1,0,0,2.344h6.615a2.4,2.4,0,0,1-2.091,1.227h-4.523a1.172,1.172,0,0,0-.853,1.976l6.374,6.765a1.172,1.172,0,1,0,1.706-1.607l-4.512-4.79h1.809a4.751,4.751,0,0,0,4.6-3.57h1.954a1.172,1.172,0,1,0,0-2.344Z" transform="translate(-105.136 -118.399)" fill="#f68e00"/>
  <path id="Path_84257" data-name="Path 84257" d="M148.926,129.339h-1.954a4.714,4.714,0,0,0-.507-1.227h2.461a1.172,1.172,0,0,0,0-2.344H137.854a1.172,1.172,0,0,0,0,2.344h4.523a2.4,2.4,0,0,1,2.091,1.227h-6.615a1.172,1.172,0,0,0,0,2.344h6.615a2.4,2.4,0,0,1-2.091,1.227h-4.523a1.172,1.172,0,0,0-.853,1.976l6.374,6.765a1.172,1.172,0,0,0,1.706-1.607l-4.512-4.79h1.809a4.751,4.751,0,0,0,4.6-3.57h1.954a1.172,1.172,0,1,0,0-2.344Z" transform="translate(-128.673 -118.399)" fill="#ffea94"/>
</svg>
