<?xml version="1.0" encoding="utf-8"?>
<!-- Generator: Adobe Illustrator 26.5.0, SVG Export Plug-In . SVG Version: 6.00 Build 0)  -->
<svg version="1.1" id="Layer_1" xmlns="http://www.w3.org/2000/svg" xmlns:xlink="http://www.w3.org/1999/xlink" x="0px" y="0px"
	 viewBox="0 0 1080 1080" style="enable-background:new 0 0 1080 1080;" xml:space="preserve">
<style type="text/css">
	.st0{display:none;}
	.st1{display:inline;}
	.st2{fill:#0400A3;}
	.st3{fill:#FFFFFF;}
	.st4{display:inline;fill:#FD425F;}
	.st5{fill:url(#SVGID_1_);}
	.st6{fill:none;stroke:#FFFFFF;stroke-width:3;stroke-miterlimit:10;}
	.st7{fill:#FFFFFF;stroke:#FFFFFF;stroke-width:0.75;stroke-linecap:round;stroke-linejoin:round;stroke-miterlimit:10;}
	.st8{fill:none;stroke:#FFFFFF;stroke-width:0.75;stroke-linecap:round;stroke-linejoin:round;stroke-miterlimit:10;}
	.st9{fill:url(#SVGID_00000153693510513555199500000015091345418344460474_);}
	.st10{clip-path:url(#SVGID_00000078041765755500548670000005777798661753452219_);}
	.st11{fill:#B3B2DA;}
	.st12{fill:#111B34;}
	.st13{fill:#F9F9F9;}
	.st14{fill:#CECDE9;}
	.st15{fill:#FD425F;}
	.st16{fill:#3C49B9;}
	.st17{fill:#EF8B67;}
	.st18{fill:#F4BCA3;}
	.st19{display:none;opacity:0.55;fill:#F9F9F9;}
	.st20{fill:#932646;}
	.st21{fill:#3C4DB5;}
	.st22{display:inline;fill:#FFFFFF;}
	.st23{clip-path:url(#SVGID_00000065038208311974951750000000200316622522690488_);}
	.st24{clip-path:url(#SVGID_00000178917518167810477010000018435374878098976420_);}
	.st25{clip-path:url(#SVGID_00000065074865007542406510000017562068527359069334_);}
</style>
<g>
	<defs>
		<circle id="SVGID_00000018197432100311408500000001636453201158444983_" cx="540" cy="540" r="333.8"/>
	</defs>
	
		<linearGradient id="SVGID_00000128487464305920788880000010945161542436890539_" gradientUnits="userSpaceOnUse" x1="206.1713" y1="540" x2="873.8287" y2="540">
		<stop  offset="0" style="stop-color:#9A5381"/>
		<stop  offset="1" style="stop-color:#609FD6"/>
	</linearGradient>
	
		<use xlink:href="#SVGID_00000018197432100311408500000001636453201158444983_"  style="overflow:visible;fill:url(#SVGID_00000128487464305920788880000010945161542436890539_);"/>
	<clipPath id="SVGID_00000109722991636382555990000000953567097610821035_">
		<use xlink:href="#SVGID_00000018197432100311408500000001636453201158444983_"  style="overflow:visible;"/>
	</clipPath>
	<g style="clip-path:url(#SVGID_00000109722991636382555990000000953567097610821035_);">
		<g>
			<path d="M499.4,1034.5l-20.8,12.8c0,0,7.4,12.7,4.5,16.6c-2.9,3.8-19.2,22.4-19.9,31.5c-0.7,9.2,4.5,14.8,7.2,13.9
				c2.7-0.9,51.7-35.8,50.6-41.8C519.8,1061.4,499.4,1034.5,499.4,1034.5z"/>
			<path d="M573.9,1034.5l20.8,12.8c0,0-7.4,12.7-4.5,16.6c2.9,3.8,19.2,22.4,19.9,31.5c0.7,9.2-4.5,14.8-7.2,13.9
				c-2.7-0.9-51.7-35.8-50.6-41.8C553.5,1061.4,573.9,1034.5,573.9,1034.5z"/>
		</g>
		<g>
			<g>
				<g>
					<g>
						<path class="st11" d="M575.2,429.8h-37.4l-30.1,34.1l14.8-34.1h-27.2c-2.2,0-4-1.8-4-4v-51.4c0-2.2,1.8-4,4-4h79.9
							c2.2,0,4,1.8,4,4v51.4C579.2,428,577.4,429.8,575.2,429.8z"/>
					</g>
				</g>
				<g>
					<path class="st3" d="M524.9,414.9h-9.7v-9.1h9.7V414.9z"/>
					<path class="st3" d="M540.1,414.9h-9.7v-9.1h9.7V414.9z"/>
					<path class="st3" d="M555.4,414.9h-9.7v-9.1h9.7V414.9z"/>
				</g>
			</g>
			<g>
				<path class="st12" d="M741.1,757.4H331.7c-9.5,0-17.1-7.7-17.1-17.1V498.7c0-9.4,7.7-17.1,17.1-17.1h409.3
					c9.5,0,17.1,7.7,17.1,17.1v241.6C758.2,749.7,750.5,757.4,741.1,757.4z"/>
				<rect x="339.9" y="500.4" class="st13" width="392.1" height="216.7"/>
				<g>
					<rect x="577.8" y="534" class="st14" width="126.8" height="160.6"/>
					<rect x="589.8" y="549.1" class="st15" width="102.9" height="16"/>
					<rect x="589.8" y="578.8" class="st16" width="102.9" height="16"/>
					<rect x="589.8" y="608.4" class="st3" width="102.9" height="16"/>
					<rect x="589.8" y="638.1" class="st3" width="102.9" height="16"/>
					<rect x="589.8" y="667.8" class="st3" width="102.9" height="16"/>
				</g>
				<path class="st12" d="M435.2,553.7c0,0,20.9,0.1,23.8,13.7c2.9,13.6,0.3,28.9,3.9,38.5c3.6,9.6,14.7,36.3-9.1,37.8
					c-23.8,1.5-27.7-5.3-33.5-5.5c-5.8-0.3-14.6,13.8-31.8,5.8c-17.2-8-9.7-26.1-2.3-28.3c7.4-2.2,4.5-15,2.8-19.3
					c-3.7-8.9-6.5-36.3,18.9-44.4C428.4,545.5,435.2,553.7,435.2,553.7z"/>
				<path class="st17" d="M415.2,603.2c-1.5,18.3-2.8,40.1-10.3,55.5c0.8,7.4,5,21.6,24.1,21.1c16.2-0.4,21-10.6,22.3-18.1
					c-7.6-12.9-12.2-30.2-13.2-47.2C430.6,614.4,420.3,606.9,415.2,603.2z"/>
				<path class="st18" d="M420.6,560.6c0,0,26.2,1.3,31.7,6.7c5.4,5.4,5.2,16.4,6.7,32.6c1.5,16.1-8.4,34-17.1,36.3
					c-8.7,2.4-32.8-12.7-36.1-37.8C402.3,573.3,410.5,559.7,420.6,560.6z"/>
				<g>
					<path class="st18" d="M617.6,634.4c0,0,12.8-14.2,17.8-22.1c4.9-7.7,23.2-33.2,27.1-29.2c3.8,4-12,25.1-12,25.1
						s15.3-27.3,20.6-24.3c5.3,3-14.2,27-14.2,27s16.6-23.1,19.4-19.9c2.8,3.2-0.5,8.3-14.2,25.2c0,0,11.7-14.5,14.5-10
						c2.8,4.6-10.5,17.4-15.2,20.2c-4.7,2.9-27.7,15.1-33.9,21.1C627.6,647.4,616.6,641.8,617.6,634.4z"/>
					<path class="st17" d="M660.3,611.2c-1.3-3.5-6.8-3.2-10-2.9c-4,0.4-7.7,1.7-10.3,4.9c-1.4,1.7-2.5,3.4-4,5c-2.9,3-1,5.6,0,8.9
						c0.3,1,6.6,1.9,12.8-0.5c4.4-1.8,9-6.6,9.9-8.5C659.8,615.6,660.7,612.4,660.3,611.2z"/>
					<path class="st18" d="M638.7,615.2c0,0,14.6-9.9,19.1-6.9c4.5,3,0.5,6.9-14.9,13.3c0,0-5,7.5-8.6,8.4
						C634.4,630,629.2,620.6,638.7,615.2z"/>
				</g>
				<path class="st12" d="M432.2,554.6c0,0,7.2,31.4-15.2,35.3c0,0-5.9,8-2.7,17.7c3.2,9.8,10.3,30.6-2.6,35.4
					c-12.9,4.8-22.7-3-17.4-23.3c5.2-20.3,5.2-31.4,8.4-46.2C406,558.7,412.1,547.8,432.2,554.6z"/>
				<path class="st12" d="M419.4,553.5c0,0,1.6,28.3,26.1,29.5c24.5,1.2,24.7-16.2,21.7-20.4C464.2,558.4,453.1,541.8,419.4,553.5z"
					/>
				<path class="st2" d="M444.2,646.1c0,0-8.8,11.1-13.2,12.8c-4.4,1.7-21.7-12.3-21.7-12.3s-23.9,13.3-43.7,15.7
					c0,0-17.7,6.4-24.3,55h158.5c0,0-1.1-10.2,0-10.2s8.7,10.2,21,10.2c12.3,0,53.9,0,53.9,0s44.3-42.9,64.7-72.9l-19-18.9
					c0,0-64.7,69.4-70.1,69.4c-5.4,0-46.5-34.6-48.2-35.6C500.5,658.2,458,657.5,444.2,646.1z"/>
				<path class="st19" d="M667.1,645.2H621c0,0,108.9-85.1,111-87.5v24.4C720,594.6,667.1,645.2,667.1,645.2z"/>
				<path class="st19" d="M732,450.8v34.5c-8.2,10-192.7,149.3-204,160.1h-83.3C467,627.7,723.5,457.2,732,450.8z"/>
				<path class="st19" d="M563.3,428.5H607c-0.3,0.3-0.6,0.5-1,0.8c-18.2,15.6-198.2,194.2-218.4,216l-41.8,0.1
					C372.8,617.4,512.9,477.2,563.3,428.5z"/>
				<path class="st19" d="M339.9,535.8v-42.3c21.9-21.7,45-44.6,65.8-65.1h42.8C417.1,459.2,375,500.8,339.9,535.8z"/>
			</g>
			<path class="st20" d="M476.1,758.5c0,0-5-7.4-20.3-4.9c-15.3,2.5-24.2,28.2-24.2,28.2h43.3C474.9,781.9,478.8,762,476.1,758.5z"
				/>
			<path class="st20" d="M596.8,758.5c0,0,5-7.4,20.3-4.9c15.3,2.5,24.2,28.2,24.2,28.2H598C598,781.9,594.1,762,596.8,758.5z"/>
			<path class="st15" d="M476.8,684.7c0,0-15.1,0.3-26.2,8.7c-11.1,8.4-54.4,77.3-56.4,82.9c-2,5.6,9,10.2,23.3,10.2
				c14.3,0,21,1.3,26.4-4.6c5.4-5.9,37.2-32.5,45.6-51.6C497.9,711.1,484.7,683.7,476.8,684.7z"/>
			<path class="st15" d="M598.7,684.7c0,0,15.1,0.3,26.2,8.7c11.1,8.4,54.4,77.3,56.4,82.9c2,5.6-9,10.2-23.3,10.2
				c-14.3,0-21,1.3-26.4-4.6c-5.4-5.9-37.2-32.5-45.6-51.6C577.7,711.1,590.9,683.7,598.7,684.7z"/>
			<polygon class="st17" points="550.5,644 525.1,644 520.6,667.4 555,667.4 			"/>
			<path class="st12" d="M538,574.2c-0.1,0-0.2,0-0.3,0c-0.1,0-0.2,0-0.3,0c-13.8,0-33,7.9-33,30.5c0,22.6,5.6,52.2,33.1,52.2
				c0.1,0,0.1,0,0.2,0c0.1,0,0.1,0,0.2,0c27.4,0,33.1-29.5,33.1-52.2C571,582,551.8,574.2,538,574.2z"/>
			<rect x="230.3" y="781.9" class="st11" width="612.2" height="9.3"/>
			<path class="st2" d="M584.2,837.2c-13.2-7.6-81.9-7.6-95.1,0c-13.2,7.6-81.2,57.5-81.2,69.6c0,12.1,73.8,150.5,73.8,150.5
				l27.1-13.8c0,0-45.1-115.9-39.6-121c5.5-5,67.5-8.8,67.5-8.8s62,3.8,67.5,8.8c5.5,5-39.6,121-39.6,121l27.1,13.8
				c0,0,73.8-138.5,73.8-150.5C665.4,894.7,597.4,844.8,584.2,837.2z"/>
			<path class="st21" d="M553.6,658.2c-1.2-1.2-10.9-0.4-15.8-0.4c-4.9,0-14.6-0.7-15.8,0.4c-1.2,1.1-8.9,18.5-8.9,18.5l24.7,5.2
				l24.7-5.2C562.5,676.8,554.7,659.4,553.6,658.2z"/>
			<g>
				<path class="st12" d="M611.9,1109.3c-6.5-9.3-55.9-45.3-55.9-45.3h-19.4h-19.4c0,0-49.4,36-55.9,45.3
					c-6.5,9.3-5.1,18.9,2.5,18.9h24.2c1.4,0,2.7-1,3-2.4c0.3-1.6,0.7-3.9,0.6-6.7c0-1.5-1.1-2.9-2.6-3.1c-1.5-0.2-3.2-0.6-3.3-1.1
					c-0.2-1.3,0.6-3.7,5.6-7.8c8.9-7.4,30.3-23.7,30.3-23.7l15,0.4l15-0.4c0,0,21.3,16.3,30.3,23.7c5,4.1,5.8,6.5,5.6,7.8
					c-0.1,0.6-1.8,0.9-3.3,1.1c-1.5,0.2-2.6,1.5-2.6,3.1c0,2.8,0.3,5.1,0.6,6.7c0.3,1.4,1.6,2.4,3,2.4h24.2
					C617.1,1128.2,618.4,1118.6,611.9,1109.3z"/>
				<polygon class="st12" points="536.7,913.7 518.9,913.7 527.8,1074.3 536.7,1074.3 545.6,1074.3 554.5,913.7 				"/>
				<path class="st12" d="M536.7,906.8h-47.5c0,0,4.8,54.7,47.5,54.7c42.7,0,47.5-54.7,47.5-54.7H536.7z"/>
				<path class="st11" d="M619.8,687.8c-12.1-16.1-83.1-19.2-83.1-19.2s-71,3.1-83.1,19.2c-12.1,16.1,21,149.4,32.2,170.9
					c11.2,21.5,50.9,21,50.9,21s39.7,0.4,50.9-21C598.7,837.2,631.8,703.9,619.8,687.8z"/>
				<path class="st12" d="M560.9,829.9c-4.1-2.7-44.4-2.7-48.4,0c-4.7,3.1,6.7,79,8.5,86.6c1.8,7.6,29.7,7.6,31.4,0
					C554.2,908.8,565.6,833,560.9,829.9z"/>
				<rect x="443.6" y="897.7" class="st12" width="186.1" height="24.8"/>
			</g>
			<rect x="265.7" y="763.5" class="st2" width="114.9" height="18.4"/>
			<rect x="253.2" y="745.1" class="st15" width="114.9" height="18.4"/>
			<g>
				<g>
					<g>
						<path class="st15" d="M623.3,483.4h53.7l-22.2,26.8l47.9-26.8h15c2.6,0,4.7-2.1,4.7-4.7v-60.8c0-2.6-2.1-4.7-4.7-4.7h-94.4
							c-2.6,0-4.7,2.1-4.7,4.7v60.8C618.5,481.3,620.7,483.4,623.3,483.4z"/>
					</g>
				</g>
				<g>
					<g>
						<path class="st3" d="M685.7,440.6c0,7.9-9.9,10.2-9.9,13.2v1.2H666v-2.9c0-4.2,7.5-6.7,7.5-11.3c0-2.1-1.4-4-3.8-4
							c-3.1,0-3.8,2.4-3.8,4.9c0,0.5,0,1,0.1,1.6h-10.6c-0.1-0.8-0.2-1.4-0.2-2.2c0-7.5,6.7-12.2,15.8-12.2
							C679.8,428.8,685.7,433.4,685.7,440.6z M676.7,469.3h-11.5v-10.7h11.5V469.3z"/>
					</g>
				</g>
			</g>
			<g>
				<defs>
					<rect id="SVGID_00000050621437031022401530000007662975819258674364_" x="341.2" y="503.2" width="156.5" height="40.4"/>
				</defs>
				<clipPath id="SVGID_00000031916211262932621840000007872424719202491786_">
					<use xlink:href="#SVGID_00000050621437031022401530000007662975819258674364_"  style="overflow:visible;"/>
				</clipPath>
				<g transform="matrix(1 0 0 1 0 0)" style="clip-path:url(#SVGID_00000031916211262932621840000007872424719202491786_);">
					
						<image style="overflow:visible;" width="6251" height="6250" xlink:href="85AEB641A2FB567B.png"  transform="matrix(2.504166e-02 0 0 2.504166e-02 341.164 450.925)">
					</image>
				</g>
			</g>
			<g>
				<g>
					<g>
						<path class="st15" d="M347.3,470.4h37.4l30.1,34.1L400,470.4h27.2c2.2,0,4-1.8,4-4V415c0-2.2-1.8-4-4-4h-79.9
							c-2.2,0-4,1.8-4,4v51.4C343.3,468.6,345.1,470.4,347.3,470.4z"/>
					</g>
				</g>
				<g class="st0">
					<path class="st22" d="M397.6,446.4h9.7v9.1h-9.7V446.4z"/>
					<path class="st22" d="M382.4,446.4h9.7v9.1h-9.7V446.4z"/>
					<path class="st22" d="M367.1,446.4h9.7v9.1h-9.7V446.4z"/>
				</g>
			</g>
			<g>
				<path class="st3" d="M407.4,442.4c-0.1,0.5-0.1,1-0.2,1.5c-0.6,3.7-2,7.1-4.4,10c-2.5,2.9-5.4,5.1-9.1,6.3
					c-2.7,0.9-5.4,1.1-8.2,0.9c-5.7-0.4-10.2-3.1-13.8-7.3c-0.1-0.1-0.1-0.1-0.2-0.2c0,0-0.1,0-0.1-0.1c0,0.4,0,0.8,0,1.2
					c0,0.5-0.1,0.9-0.6,1.2c-0.1,0.1-0.2,0.2-0.3,0.3c-0.1,0.1-0.2,0.1-0.3,0.1c-0.1,0-0.1-0.2-0.1-0.3c0-0.6,0-1.2,0-1.9
					c0-0.9,0-1.8-0.1-2.7c0-0.5,0.1-0.6,0.6-0.5c1.5,0.3,3,0.7,4.4,1c0.1,0,0.3,0.1,0.5,0.2c-0.4,0.3-0.7,0.6-1,0.9
					c-0.1,0.1-0.2,0.1-0.3,0c-0.6-0.1-1.2-0.2-1.8-0.3c0.4,0.5,0.8,1,1.3,1.5c3.1,3.2,6.9,5.2,11.3,5.7c5.8,0.7,11-1,15.3-5
					c3.2-2.9,5.1-6.6,5.8-10.8c0.1-0.9,0.2-1.9,0.2-2.8c0-0.7,0.5-1.1,1.1-0.8C407.4,441.1,407.4,441.8,407.4,442.4z"/>
				<path class="st3" d="M399.2,446.4c-0.5,0-1,0-1.4,0c-0.1,0-0.3,0.1-0.3,0.1c0,0.1,0,0.2,0.1,0.3c0.6,0.7,1.2,1.5,1.8,2.2
					c0.3,0.4,0.4,1,0,1.4c-0.5,0.6-1,1.2-1.5,1.8c-0.4,0.4-1,0.4-1.5,0.1c-0.8-0.4-1.5-0.9-2.3-1.4c-0.1-0.1-0.3-0.1-0.4-0.1
					c-0.1,0.1-0.1,0.3-0.1,0.4c0.1,0.9,0.3,1.8,0.4,2.7c0.1,0.7-0.2,1.1-0.8,1.4c-0.6,0.2-1.2,0.4-1.8,0.6c-0.7,0.2-1.2,0-1.6-0.6
					c-0.4-0.7-0.9-1.5-1.3-2.3c-0.1-0.1-0.2-0.2-0.3-0.3c-0.1,0.1-0.2,0.2-0.3,0.3c-0.3,0.8-0.6,1.6-0.9,2.3
					c-0.3,0.8-0.7,1.1-1.6,0.9c-0.6-0.1-1.2-0.2-1.8-0.3c-0.7-0.1-1-0.5-1-1.2c0-0.9,0-1.7,0-2.6c0-0.3-0.1-0.5-0.3-0.6
					c-0.3-0.1-0.4,0-0.6,0.2c-0.6,0.5-1.2,1-1.8,1.5c-0.7,0.5-1.2,0.5-1.9,0c-0.4-0.4-0.9-0.7-1.3-1.1c-0.6-0.5-0.7-1.1-0.3-1.8
					c0.4-0.8,0.9-1.5,1.3-2.3c0.2-0.4,0.1-0.8-0.2-1.1c-0.1-0.1-0.2-0.1-0.4-0.1c-0.7,0.1-1.5,0.2-2.2,0.4c-0.6,0.1-1.2-0.1-1.4-0.7
					c-0.2-0.6-0.5-1.2-0.7-1.9c-0.3-0.7-0.1-1.2,0.6-1.6c0.7-0.5,1.5-0.9,2.2-1.3c0.1-0.1,0.4-0.3,0.3-0.4c0-0.2-0.2-0.3-0.4-0.4
					c-0.7-0.4-1.5-0.7-2.2-1.1c-0.7-0.3-1-0.8-0.8-1.6c0.1-0.6,0.3-1.2,0.5-1.8c0.2-0.7,0.7-1,1.4-1c0.9,0.1,1.7,0.1,2.6,0.2
					c0.1,0,0.3-0.1,0.4-0.1c0-0.1-0.1-0.3-0.1-0.4c-0.5-0.7-1-1.4-1.5-2.1c-0.5-0.7-0.5-1.2,0.1-1.8c0.4-0.4,0.8-0.8,1.2-1.2
					c0.6-0.6,1.1-0.6,1.8-0.2c0.7,0.5,1.4,0.9,2.2,1.4c0.1,0.1,0.2,0.1,0.4,0.1c0-0.1,0.1-0.2,0.1-0.4c-0.1-0.8-0.2-1.7-0.2-2.5
					c-0.1-0.8,0.1-1.2,0.9-1.5c0.6-0.2,1.2-0.4,1.9-0.6c0.7-0.2,1.2,0.1,1.6,0.7c0.4,0.8,0.8,1.5,1.2,2.3c0.1,0.1,0.2,0.2,0.3,0.3
					c0.1-0.1,0.2-0.2,0.3-0.3c0.4-0.8,0.7-1.6,1.1-2.4c0.3-0.6,0.7-0.9,1.4-0.7c0.7,0.1,1.4,0.3,2,0.5c0.7,0.2,0.9,0.5,0.9,1.2
					c0,0.9-0.1,1.7-0.1,2.6c0,0.2,0.1,0.3,0.1,0.5c0.1-0.1,0.3-0.1,0.4-0.2c0.7-0.5,1.3-1,2-1.5c0.6-0.5,1.2-0.4,1.8,0.1
					c0.5,0.4,0.9,0.8,1.3,1.3c0.5,0.5,0.6,1,0.2,1.7c-0.5,0.8-0.9,1.5-1.4,2.3c-0.1,0.1-0.1,0.3-0.1,0.4c0,0.1,0.2,0.1,0.3,0.1
					c0.9-0.1,1.7-0.2,2.6-0.3c0.8-0.1,1.3,0.2,1.5,0.9c0.2,0.6,0.4,1.2,0.6,1.8c0.2,0.7,0,1.2-0.6,1.6c-0.8,0.4-1.6,0.8-2.3,1.3
					c-0.1,0.1-0.2,0.2-0.3,0.3c0.1,0.1,0.2,0.2,0.3,0.3c0.8,0.3,1.6,0.7,2.4,1c0.8,0.3,1,0.8,0.8,1.6c-0.1,0.6-0.3,1.2-0.4,1.8
					c-0.2,0.6-0.6,1-1.3,1C400.1,446.5,399.6,446.5,399.2,446.4C399.2,446.4,399.2,446.4,399.2,446.4z M387.2,448.8
					c4.1,0,7.4-3.4,7.4-7.5c0-4-3.4-7.3-7.4-7.3c-4.3,0.1-7.4,3.6-7.3,7.6C379.9,445.5,383.2,448.8,387.2,448.8z"/>
				<path class="st3" d="M403.4,428.9c0-0.4,0-0.7,0-1.1c-0.1-0.6,0.1-1,0.6-1.2c0.2-0.1,0.4-0.3,0.7-0.4c0,0.2,0.1,0.3,0.1,0.4
					c0,1.5-0.1,3.1-0.1,4.6c0,0.6-0.1,0.6-0.6,0.5c-1.5-0.4-3-0.9-4.5-1.3c-0.1,0-0.1,0-0.2-0.1c0.2-0.6,0.8-1,1.4-0.9
					c0.4,0.1,0.8,0.2,1.2,0.3c0.1,0,0.3,0.1,0.5,0.1c-0.1-0.2-0.1-0.3-0.2-0.4c-3.2-4-7.3-6.5-12.4-7.2c-6.1-0.8-11.3,1.1-15.8,5.1
					c-2.8,2.6-4.4,5.9-5.3,9.5c-0.3,1.2-0.5,2.4-0.5,3.7c0,0.4-0.5,0.9-0.9,0.8c-0.1,0-0.2-0.2-0.2-0.3c0-2.4,0.4-4.8,1.3-7.1
					c1.2-2.8,2.7-5.4,4.9-7.6c2.5-2.5,5.6-4.1,9-4.9c2.4-0.6,4.8-0.8,7.3-0.5c3.7,0.4,7,1.8,9.9,4.1c1.3,1,2.5,2.2,3.6,3.5
					c0.1,0.1,0.2,0.2,0.2,0.3C403.4,428.9,403.4,428.9,403.4,428.9z"/>
			</g>
		</g>
	</g>
</g>
</svg>
