<svg xmlns="http://www.w3.org/2000/svg" xmlns:xlink="http://www.w3.org/1999/xlink" width="11.333" height="14" viewBox="0 0 11.333 14">
  <defs>
    <clipPath id="clip-path">
      <rect id="Rectangle_17421" data-name="Rectangle 17421" width="11.333" height="14" fill="#fff"/>
    </clipPath>
  </defs>
  <g id="Group_40340" data-name="Group 40340" clip-path="url(#clip-path)">
    <path id="Path_83251" data-name="Path 83251" d="M41.567,269.527a4.271,4.271,0,0,0,.7,1.028c.271.33.555.647.833.97.011.012.025.023.047.044.03-.112.057-.215.083-.318.053-.211.1-.424.158-.635a.107.107,0,0,0-.034-.123.717.717,0,0,1-.184-.548h1a.72.72,0,0,1-.193.563.1.1,0,0,0-.032.079c.077.319.16.637.241.955,0,.005.007.009.023.026a11.892,11.892,0,0,0,1.575-2.039l1.132.1a2.326,2.326,0,0,1,1.942,1.356,4.949,4.949,0,0,1,.447,1.175,1.166,1.166,0,0,1-.472,1.248,3.746,3.746,0,0,1-1.147.5,11.519,11.519,0,0,1-2.02.339,21.445,21.445,0,0,1-2.923.069,14.294,14.294,0,0,1-3.018-.391,4.144,4.144,0,0,1-1.021-.394c-.066-.038-.131-.08-.193-.124a1.119,1.119,0,0,1-.472-1.229,4.215,4.215,0,0,1,.78-1.7,2.132,2.132,0,0,1,1.456-.824c.211-.028.424-.046.636-.066s.435-.038.661-.057Z" transform="translate(-38 -260.332)" fill="#fff"/>
    <path id="Path_83252" data-name="Path 83252" d="M40.037,262.488c0,.085-.006.151.087.2a.214.214,0,0,1,.017.36.118.118,0,0,0-.053.125c.05.719.1,1.438.15,2.157a1.609,1.609,0,0,1-.116.647c-.027.079-.058.157-.095.257-.033-.041-.053-.057-.059-.077a5.047,5.047,0,0,1-.176-.681,2.914,2.914,0,0,1,.028-.572c.04-.585.082-1.169.12-1.754a.127.127,0,0,0-.045-.091.22.22,0,0,1,.026-.382c.082-.04.067-.106.068-.165,0-.026-.045-.059-.076-.076-.083-.044-.173-.074-.253-.122-.139-.086-.139-.2,0-.3a.789.789,0,0,1,.125-.065q1.71-.759,3.423-1.516a1.1,1.1,0,0,1,.927,0q1.709.753,3.416,1.513a.745.745,0,0,1,.147.079.151.151,0,0,1,0,.27.633.633,0,0,1-.123.068q-.55.246-1.1.488a.108.108,0,0,0-.078.118c0,.3,0,.6,0,.906a1.715,1.715,0,0,0,.053.29,4.239,4.239,0,0,1,.07,1.036.165.165,0,0,0,.049.131.452.452,0,0,1,.108.2,1.858,1.858,0,0,1-.237,1.385.254.254,0,0,1-.1.1c-.1.046-.122.136-.158.224a4.607,4.607,0,0,1-1.136,1.7,2.189,2.189,0,0,1-1.174.6,1.808,1.808,0,0,1-1.266-.316,3.375,3.375,0,0,1-1.063-1.138c-.177-.3-.315-.625-.472-.939a.29.29,0,0,0-.055-.074,1.177,1.177,0,0,1-.211-.206,1.874,1.874,0,0,1-.227-1.286.358.358,0,0,1,.183-.3c.014-.006.023-.037.026-.057.045-.353.09-.705.131-1.058a2.423,2.423,0,0,0,.015-.277q0-.466,0-.933c0-.03-.015-.078-.036-.088-.285-.13-.571-.255-.865-.385Zm5.93,3.2-.038-.127a2.491,2.491,0,0,0-.415-.883.23.23,0,0,0-.3-.074c-.348.154-.7.309-1.044.462a1.183,1.183,0,0,1-.994,0c-.34-.15-.679-.3-1.021-.451a.173.173,0,0,0-.13,0,1.044,1.044,0,0,0-.556.6c-.059.148-.1.3-.147.458-.125-.034-.207.011-.22.145a2.733,2.733,0,0,0-.015.448.967.967,0,0,0,.186.515c.056.075.124.127.225.078.01.027.019.049.027.071a4.219,4.219,0,0,0,.479.984,2.883,2.883,0,0,0,.77.812,1.429,1.429,0,0,0,1.664.058,2.507,2.507,0,0,0,.4-.307,3.611,3.611,0,0,0,.831-1.241c.052-.123.1-.249.148-.377a.151.151,0,0,0,.212-.068,1.207,1.207,0,0,0,.176-1c-.034-.133-.1-.157-.231-.111Z" transform="translate(-38 -260.332)" fill="#fff"/>
  </g>
</svg>
