<svg xmlns="http://www.w3.org/2000/svg" xmlns:xlink="http://www.w3.org/1999/xlink" width="54.63" height="54.63" viewBox="0 0 54.63 54.63">
  <defs>
    <linearGradient id="linear-gradient" x1="0.047" x2="0.986" y2="1" gradientUnits="objectBoundingBox">
      <stop offset="0" stop-color="#f78080"/>
      <stop offset="1" stop-color="#ffa945"/>
    </linearGradient>
    <filter id="Path_82050" x="14.752" y="15.119" width="24.913" height="24.878" filterUnits="userSpaceOnUse">
      <feOffset input="SourceAlpha"/>
      <feGaussianBlur stdDeviation="1" result="blur"/>
      <feFlood flood-opacity="0.18"/>
      <feComposite operator="in" in2="blur"/>
      <feComposite in="SourceGraphic"/>
    </filter>
    <filter id="Path_82051" x="28.38" y="15" width="11.369" height="11.386" filterUnits="userSpaceOnUse">
      <feOffset input="SourceAlpha"/>
      <feGaussianBlur stdDeviation="1" result="blur-2"/>
      <feFlood flood-opacity="0.396"/>
      <feComposite operator="in" in2="blur-2"/>
      <feComposite in="SourceGraphic"/>
    </filter>
  </defs>
  <g id="Group_41155" data-name="Group 41155" transform="translate(-616.636 -792)">
    <rect id="Rectangle_17263" data-name="Rectangle 17263" width="40.972" height="44.064" rx="14" transform="translate(623.636 797)" fill="url(#linear-gradient)"/>
    <g id="Rectangle_17264" data-name="Rectangle 17264" transform="translate(616.636 818.361) rotate(-43)" fill="#fff" stroke="rgba(245,71,71,0.31)" stroke-width="1">
      <rect width="38.653" height="38.653" rx="8" stroke="none"/>
      <rect x="0.5" y="0.5" width="37.653" height="37.653" rx="7.5" fill="none"/>
    </g>
    <g id="magnet" transform="translate(634.388 810)">
      <g id="Group_39437" data-name="Group 39437" transform="translate(0 0.119)">
        <g id="Group_39436" data-name="Group 39436">
          <g transform="matrix(1, 0, 0, 1, -17.75, -18.12)" filter="url(#Path_82050)">
            <path id="Path_82050-2" data-name="Path 82050" d="M15.308,9.177,8.733,15.751a1.638,1.638,0,1,1-2.317-2.317l6.578-6.579L9.328,3.216l-.517.415c-.395.317-.79.632-1.182.945-2.063,1.648-4.013,3.2-5.407,4.58l0,0a7.576,7.576,0,0,0,10.7,10.726,42.672,42.672,0,0,0,4.531-5.262c.344-.443.7-.9,1.051-1.347l.41-.52ZM8.556,5.736,9.223,5.2,10.892,6.86,9.864,7.889,8.079,6.117ZM11.908,18.8l-.024.023a6.092,6.092,0,0,1-8.617-8.614c.971-.958,2.246-2.026,3.648-3.159l1.9,1.886L5.367,12.385A3.122,3.122,0,0,0,9.782,16.8l3.451-3.451,1.877,1.864A30.859,30.859,0,0,1,11.908,18.8Zm4.372-5.087-.249.321L14.283,12.3l1.028-1.028,1.618,1.607C16.711,13.16,16.493,13.44,16.28,13.715Z" transform="translate(17.75 14.9)" fill="#fff"/>
          </g>
        </g>
      </g>
      <g id="Group_39439" data-name="Group 39439" transform="translate(13.628 0)">
        <g id="Group_39438" data-name="Group 39438">
          <g transform="matrix(1, 0, 0, 1, -31.38, -18)" filter="url(#Path_82051)">
            <path id="Path_82051-2" data-name="Path 82051" d="M371.727,1.317l.944-.945L371.3,0l-3.588,1.3,2.037,2.037L367.3,4.3l1.086,1.086,3.844-1.56-1.98-1.98Z" transform="translate(-335.92 18)" fill="#fff"/>
          </g>
        </g>
      </g>
    </g>
  </g>
</svg>
