<svg width="26" height="26" viewBox="0 0 26 26" fill="none" xmlns="http://www.w3.org/2000/svg">
<path fill-rule="evenodd" clip-rule="evenodd" d="M13 0.8125C6.26903 0.8125 0.8125 6.26903 0.8125 13C0.8125 19.731 6.26903 25.1875 13 25.1875C19.731 25.1875 25.1875 19.731 25.1875 13C25.1875 6.26903 19.731 0.8125 13 0.8125ZM18.3504 13.6629C18.5262 13.4871 18.625 13.2486 18.625 13C18.625 12.7514 18.5262 12.5129 18.3504 12.3371L14.6004 8.58709C14.2343 8.22097 13.6407 8.22097 13.2746 8.58709C12.9085 8.9532 12.9085 9.54679 13.2746 9.91291L15.4242 12.0625L8.3125 12.0625C7.79473 12.0625 7.375 12.4822 7.375 13C7.375 13.5178 7.79473 13.9375 8.3125 13.9375L15.4242 13.9375L13.2746 16.0871C12.9085 16.4532 12.9085 17.0468 13.2746 17.4129C13.6407 17.779 14.2343 17.779 14.6004 17.4129L18.3504 13.6629Z" fill="white"/>
</svg>
