<svg xmlns="http://www.w3.org/2000/svg" width="15.275" height="14.071" viewBox="0 0 15.275 14.071">
  <g id="Group_40234" data-name="Group 40234" transform="translate(-79.774 -913.351)">
    <path id="Path_83134" data-name="Path 83134" d="M51.251,316.08H45.325v4.19H40.54l.15-.106a1.485,1.485,0,0,0,.655-1.536,1.462,1.462,0,0,0-1.14-1.189c-.125-.035-.144-.091-.131-.195a1.447,1.447,0,0,1,.622-1.073,9.312,9.312,0,0,1,5.672-1.725,9.117,9.117,0,0,1,4.8,1.529c.032.021.062.047.093.069l-.015.035Z" transform="translate(42.32 605.494)" fill="#fff"/>
    <path id="Path_83135" data-name="Path 83135" d="M42.446,312.14a3,3,0,1,1,3,2.936,2.955,2.955,0,0,1-3-2.936Z" transform="translate(42.946 604.121)" fill="#fff"/>
    <path id="Path_83136" data-name="Path 83136" d="M51.515,316.18v4.992h-2.6a.372.372,0,0,1-.443.3c-.25-.011-.5-.011-.75,0-.224.01-.387-.053-.442-.3h-2.6V316.18h6.835Zm-3.626,4.4v-3.816H45.284v3.816Zm.412-3.818v3.817h2.6V316.76Z" transform="translate(43.534 605.952)" fill="#fff"/>
    <path id="Path_83137" data-name="Path 83137" d="M39.7,318.211l-.6-1.753L38.052,313.4c-.013-.039-.028-.077-.038-.116-.03-.112-.018-.214.112-.255s.2.029.243.14.072.208.107.313l1.532,4.5c.015.044.031.087.052.147.056,0,.114-.006.171-.011a1.209,1.209,0,0,1,1.305.989,1.182,1.182,0,0,1-.883,1.333,4.965,4.965,0,0,1-.682.123.512.512,0,0,1-.514-.251,2.667,2.667,0,0,1-.4-1.458.577.577,0,0,1,.447-.565c.061-.02.12-.044.191-.071Z" transform="translate(41.774 605.118)" fill="#fff"/>
    <path id="Path_83138" data-name="Path 83138" d="M48.025,317.687v-.265h1.388v.265Z" transform="translate(44.416 606.279)" fill="#fff"/>
    <path id="Path_83139" data-name="Path 83139" d="M48.023,318.159v-.268h1.393v.268Z" transform="translate(44.415 606.403)" fill="#fff"/>
    <path id="Path_83140" data-name="Path 83140" d="M48.978,318.627h-.95v-.27h.95Z" transform="translate(44.417 606.526)" fill="#fff"/>
  </g>
</svg>
