<svg width="24" height="24" viewBox="0 0 24 24" fill="none" xmlns="http://www.w3.org/2000/svg">
<g id="Artboard">
<path id="Oval" d="M12 24C18.6274 24 24 18.6274 24 12C24 5.37258 18.6274 0 12 0C5.37258 0 0 5.37258 0 12C0 18.6274 5.37258 24 12 24Z" fill="url(#paint0_linear_506_821)"/>
<path id="Path-3" fill-rule="evenodd" clip-rule="evenodd" d="M5.43192 11.8757C8.92992 10.3517 11.2633 9.34705 12.4319 8.86172C15.7649 7.47572 16.4569 7.23473 16.9079 7.22673C17.0738 7.22335 17.2365 7.27233 17.3729 7.36673C17.4627 7.47724 17.5264 7.6065 17.5595 7.74498C17.5925 7.88345 17.5941 8.02758 17.5639 8.16671C17.3829 10.0667 16.6019 14.6667 16.2039 16.7937C16.0359 17.6937 15.7039 17.9937 15.3839 18.0237C14.6839 18.0877 14.1579 17.5627 13.4839 17.1237C12.4279 16.4317 11.8309 16.0007 10.8059 15.3237C9.62092 14.5427 10.3889 14.1137 11.0639 13.4127C11.2409 13.2287 14.3109 10.4367 14.3709 10.1827C14.3787 10.1455 14.3777 10.1069 14.368 10.0701C14.3582 10.0333 14.3401 9.99927 14.3149 9.97071C14.2783 9.94762 14.2368 9.93342 14.1938 9.92926C14.1507 9.92509 14.1073 9.93107 14.0669 9.94671C13.9609 9.97071 12.2736 11.0861 9.00492 13.2927C8.63207 13.5842 8.1777 13.7523 7.70492 13.7737C7.06871 13.697 6.44313 13.549 5.83992 13.3327C5.08792 13.0887 4.49092 12.9597 4.53992 12.5447C4.56592 12.3241 4.86326 12.101 5.43192 11.8757Z" fill="white"/>
</g>
<defs>
<linearGradient id="paint0_linear_506_821" x1="-92.856" y1="292.608" x2="-92.856" y2="292.584" gradientUnits="userSpaceOnUse">
<stop stop-color="#2AABEE"/>
<stop offset="1" stop-color="#229ED9"/>
</linearGradient>
</defs>
</svg>
