<svg width="24" height="24" viewBox="0 0 24 24" fill="none" xmlns="http://www.w3.org/2000/svg">
<g id="Layer 2">
<g id="Color">
<g id="04.Twitter">
<path id="Background" d="M12 24C18.6274 24 24 18.6274 24 12C24 5.37258 18.6274 0 12 0C5.37258 0 0 5.37258 0 12C0 18.6274 5.37258 24 12 24Z" fill="#03A9F4"/>
<path id="Icon" d="M19.7743 7.1796C19.1895 7.43366 18.5712 7.60205 17.9383 7.6796C18.605 7.28347 19.1031 6.65653 19.3383 5.9176C18.714 6.2886 18.0308 6.55004 17.3183 6.6906C16.8816 6.22319 16.3143 5.89806 15.6903 5.75753C15.0662 5.61699 14.4143 5.66756 13.8194 5.90266C13.2245 6.13775 12.7141 6.54648 12.3547 7.07565C11.9953 7.60482 11.8035 8.22992 11.8043 8.8696C11.8021 9.11359 11.8269 9.35708 11.8783 9.5956C10.6104 9.53336 9.36986 9.20433 8.23775 8.63001C7.10565 8.05568 6.10744 7.24898 5.30833 6.2626C4.89756 6.96431 4.77034 7.79643 4.95268 8.58882C5.13503 9.38121 5.61316 10.074 6.28933 10.5256C5.78474 10.5121 5.29083 10.3773 4.84933 10.1326V10.1676C4.85046 10.9031 5.10493 11.6158 5.56991 12.1857C6.03489 12.7556 6.682 13.1479 7.40233 13.2966C7.12965 13.3668 6.84886 13.4004 6.56733 13.3966C6.36598 13.3999 6.16485 13.3818 5.96733 13.3426C6.17359 13.9751 6.57077 14.5282 7.10423 14.9257C7.6377 15.3233 8.28124 15.5458 8.94633 15.5626C7.81919 16.4434 6.42979 16.9218 4.99933 16.9216C4.7443 16.9239 4.48941 16.9092 4.23633 16.8776C5.60744 17.7547 7.18919 18.247 8.81591 18.3029C10.4426 18.3587 12.0544 17.9761 13.4825 17.1951C14.9105 16.414 16.1022 15.2633 16.9328 13.8635C17.7633 12.4637 18.2022 10.8663 18.2033 9.2386C18.2033 9.0976 18.2033 8.9626 18.1923 8.8266C18.815 8.37787 19.351 7.81982 19.7743 7.1796Z" fill="white"/>
</g>
</g>
</g>
</svg>
