<svg xmlns="http://www.w3.org/2000/svg" width="206" height="10.331" viewBox="0 0 206 10.331">
  <g id="Group_39846" data-name="Group 39846" transform="translate(-61.87 -176.426)">
    <path id="Path_82984" data-name="Path 82984" d="M66.342,180.64c1.632.009,3.265-.046,4.9-.076.664-.012,1.328-.033,1.991-.053L82,180.258q5.245-.151,10.491-.322l14.984-.486c1.145-.037,2.29-.062,3.435-.093l8.73-.239,8.732-.238c1.139-.031,2.279-.071,3.418-.093l13.932-.255,8.566-.157c1.117-.021,2.238-.051,3.355-.061q6.733-.056,13.466-.118l13.29-.116c1.169-.01,2.34-.005,3.508-.008l8.677-.02q6.745-.015,13.49-.03c1.47,0,2.942.006,4.412.008l9.237.019.764,0q-10.4.082-20.794.169l-8.683.074c-1.249.011-2.5.013-3.747.032q-6.282.1-12.562.2l-14.52.227c-.813.013-1.627.04-2.439.062l-7.732.207q-7.841.209-15.684.42c-.774.021-1.546.053-2.32.083l-7.66.307q-6.861.275-13.721.55c-1.261.051-2.521.123-3.78.185l-8.786.43q-5.584.273-11.168.547l-15.539.788-3.727.189c-2.227.113-4.447.277-6.669.419-.235.015-.435.1-.435.253s.2.246.435.252l2.436.061a.631.631,0,0,0-.159.394c0,.481.726.957,1.593.926,6.351-.23,12.7-.48,19.056-.656l16.555-.458,18.3-.507,5.762-.16c.554-.015,1.11-.036,1.664-.044q14.743-.228,29.484-.45l15.757-.24q2.848-.043,5.693-.071l30.159-.274,12.921-.12c3.677-.034,7.356-.049,11.032-.129l9.112-.2c1.516-.033,3.034-.054,4.549-.11q5.171-.189,10.343-.388l-.008.007a.548.548,0,0,0-.145.643,1.1,1.1,0,0,0,.66.5,2.257,2.257,0,0,0,1.106.084q1.128-.26,2.246-.532l-.047.012.166-.041.192-.047-.07.017,1.192-.292c.416-.1.832-.2,1.246-.308.451-.114.883-.253,1.318-.388.492-.152.792-.485.792-.8a.663.663,0,0,0-.218-.469,1.7,1.7,0,0,0-.956-.427c-.385-.039-.769-.069-1.156-.1-.084-.006-.171-.009-.26-.009-.262,0-.534.021-.784.032-.586.024-1.167.074-1.753.1l-1.432.06-3.857.162c-.332.014-.665.025-1,.038a.721.721,0,0,0,.258-.274.508.508,0,0,0,.1-.257c.014-.063.029-.127.044-.19a.463.463,0,0,0-.071-.237l.1-.026a1.511,1.511,0,0,0,.578-.337.617.617,0,0,0,0-.947l-.252-.19a2.1,2.1,0,0,0-.713-.241,7.129,7.129,0,0,0-1.54-.137c-.43,0-.862.018-1.287.021l-1.854.011c-.875.005-1.749.012-2.624.015l-6.932.021q-3.261.011-6.521.005-2.963,0-5.926,0c-7.876.02-15.75.027-23.625.074l-17.715.1q-3.96.024-7.919.072l-17.751.218-5.062.062c-.979.013-1.957.042-2.936.063l-17.544.386-5.355.119c-1,.021-2,.06-3,.091l-17.426.544q-4.5.14-8.993.309l-15.395.564c-4.446.162-8.894.3-13.34.454l-2.114.071c-1.138.039-2.279.065-3.418.095-1.01.026-2.026.043-3.04.027a.761.761,0,0,0-.65-.264c-.653.03-1.306.071-1.958.112a.781.781,0,0,0-.682.3c-.1.211.119.453.494.506.283.039.565.08.85.118s.574.047.856.062C64.842,180.627,65.592,180.636,66.342,180.64Zm179.68-1.432h2.863a1.086,1.086,0,0,0,.386.325c-.369.015-.739.029-1.108.037l-2.087.045-9.112.2c-1.391.03-2.781.074-4.172.087l-6.518.06-14.9.137q-14.458.136-28.917.266c-6.9.064-13.8.189-20.7.294l-31.194.481c-2.085.032-4.169.109-6.252.167l-17.7.493-17.382.484-1.609.045q2.343-.11,4.685-.215l16.36-.727,5.714-.253c.982-.043,1.966-.071,2.949-.106l17.012-.6c1.108-.04,2.218-.091,3.327-.116l4.793-.108,17.541-.4,3.859-.087c.339-.007.678-.008,1.017-.012l2.71-.032,17.577-.208c2.7-.032,5.4-.069,8.1-.082q13.068-.061,26.135-.116Q232.707,179.236,246.022,179.208Z" transform="translate(0 0)" fill="#9991e6"/>
    <ellipse id="Ellipse_1667" data-name="Ellipse 1667" cx="0.436" cy="0.253" rx="0.436" ry="0.253" transform="translate(77.449 186.251)" fill="#9991e6"/>
  </g>
</svg>
