<svg width="24" height="24" viewBox="0 0 24 24" fill="none" xmlns="http://www.w3.org/2000/svg">
<g id="utube">
<path id="Ellipse 1030" d="M12 24C18.6274 24 24 18.6274 24 12C24 5.37258 18.6274 0 12 0C5.37258 0 0 5.37258 0 12C0 18.6274 5.37258 24 12 24Z" fill="#F44336"/>
<path id="Path 35051" d="M19.6661 8.1477C19.5753 7.80835 19.3966 7.49895 19.1482 7.25055C18.8998 7.00214 18.5904 6.82353 18.251 6.73272C14.0963 6.28701 9.90578 6.28701 5.75103 6.73272C5.41168 6.82353 5.10221 7.00214 4.85381 7.25055C4.60541 7.49895 4.4268 7.80835 4.33599 8.1477C3.89061 10.695 3.89061 13.3004 4.33599 15.8477C4.4268 16.1871 4.60541 16.4965 4.85381 16.7449C5.10221 16.9933 5.41168 17.1719 5.75103 17.2627C9.90579 17.7082 14.0963 17.7082 18.251 17.2627C18.5904 17.1719 18.8998 16.9933 19.1482 16.7449C19.3966 16.4965 19.5753 16.1871 19.6661 15.8477C20.1116 13.3004 20.1116 10.695 19.6661 8.1477ZM10.4001 14.3987V9.59869L14.5571 11.9987L10.4001 14.3987Z" fill="white"/>
</g>
</svg>
