<svg xmlns="http://www.w3.org/2000/svg" width="42" height="42" viewBox="0 0 28.129 28.129">
  <g id="verified_2_" data-name="verified (2)" transform="translate(-5.95 -6)">
    <path id="Path_83208" data-name="Path 83208" d="M158.729,188.949l-6.643,6.643a.913.913,0,0,1-1.288,0l-.411-.411-3.037-3.026a1.528,1.528,0,0,1-.006-2.16l.017-.017a1.551,1.551,0,0,1,2.188,0l1.89,1.89,1.9-1.9c.022-.023.051-.045.073-.067l1.929-1.935a.508.508,0,0,1,.056-.051l1.159-1.164a1.528,1.528,0,0,1,2.16-.006l.017.017a1.537,1.537,0,0,1,.456,1.091A1.564,1.564,0,0,1,158.729,188.949Z" transform="translate(-133.022 -170.159)" fill="#fdaf04"/>
    <path id="Path_83209" data-name="Path 83209" d="M33.947,19.589l-1.631-2.824V13.5a.949.949,0,0,0-.472-.821L29.02,11.051,27.389,8.227a.949.949,0,0,0-.821-.472H23.305L20.482,6.124A.965.965,0,0,0,20.015,6a.948.948,0,0,0-.472.129L16.719,7.761H13.456a.949.949,0,0,0-.821.472L11,11.057,8.18,12.688a.949.949,0,0,0-.472.821v3.262L6.077,19.6a.945.945,0,0,0,0,.945l1.631,2.824v3.262a.949.949,0,0,0,.472.821L11,29.078,12.635,31.9a.949.949,0,0,0,.821.472h3.262l2.824,1.631a.964.964,0,0,0,.945,0l2.824-1.631h3.262a.949.949,0,0,0,.821-.472l1.631-2.824,2.824-1.631a.949.949,0,0,0,.472-.821V23.364l1.631-2.824a.942.942,0,0,0-.006-.951ZM20.015,29.067a9.005,9.005,0,1,1,9.005-9.005A9.007,9.007,0,0,1,20.015,29.067Z" transform="translate(0 0)" fill="#7252f7"/>
  </g>
</svg>
