<svg xmlns="http://www.w3.org/2000/svg" width="14.222" height="13.636" viewBox="0 0 14.222 13.636">
  <path id="Vector" d="M13.239,5.424a2.4,2.4,0,0,1-.49-.437,2.245,2.245,0,0,1,.139-.682,1.879,1.879,0,0,0-.024-1.668,1.89,1.89,0,0,0-1.589-.54,2.329,2.329,0,0,1-.678-.073,2.306,2.306,0,0,1-.276-.617C10.139.892,9.914.249,9.309.053a1.838,1.838,0,0,0-1.577.49,2.211,2.211,0,0,1-.62.349,2.207,2.207,0,0,1-.62-.349A1.84,1.84,0,0,0,4.913.053c-.6.2-.83.839-1.012,1.355a2.351,2.351,0,0,1-.273.615,2.276,2.276,0,0,1-.681.075,1.89,1.89,0,0,0-1.589.54,1.88,1.88,0,0,0-.024,1.668,2.308,2.308,0,0,1,.14.677,2.32,2.32,0,0,1-.491.441C.545,5.758,0,6.174,0,6.818s.545,1.06.984,1.394a2.4,2.4,0,0,1,.49.437,2.245,2.245,0,0,1-.139.682A1.879,1.879,0,0,0,1.358,11a1.89,1.89,0,0,0,1.589.54,2.328,2.328,0,0,1,.678.073,2.306,2.306,0,0,1,.276.617c.181.516.407,1.159,1.012,1.355a1.063,1.063,0,0,0,.332.053,2.346,2.346,0,0,0,1.246-.543,2.209,2.209,0,0,1,.62-.349,2.209,2.209,0,0,1,.621.349,1.84,1.84,0,0,0,1.577.49c.6-.2.83-.839,1.012-1.355a2.352,2.352,0,0,1,.273-.615,2.277,2.277,0,0,1,.681-.075A1.89,1.89,0,0,0,12.864,11a1.88,1.88,0,0,0,.024-1.668,2.309,2.309,0,0,1-.14-.677,2.32,2.32,0,0,1,.491-.441c.438-.334.983-.75.983-1.394s-.545-1.06-.983-1.394Zm-3.486.332L6.789,8.718a.592.592,0,0,1-.838,0h0L4.47,7.237A.593.593,0,1,1,5.3,6.388l.011.011L6.37,7.461,8.914,4.917a.593.593,0,0,1,.849.827Z" fill="#008605"/>
</svg>
