<svg id="whatsapp" xmlns="http://www.w3.org/2000/svg" width="29.178" height="29.178" viewBox="0 0 29.178 29.178">
  <rect id="Rectangle_4039" data-name="Rectangle 4039" width="29.178" height="29.178" fill="none"/>
  <g id="whatsapp-2" data-name="whatsapp" transform="translate(4.636 3.582)">
    <path id="Path_22515" data-name="Path 22515" d="M10.551,0h-.005A10.542,10.542,0,0,0,2.008,16.731L.694,20.65l4.055-1.3A10.546,10.546,0,1,0,10.551,0Z" fill="#55b35c" stroke="#fff" stroke-width="2"/>
    <path id="Path_22516" data-name="Path 22516" d="M119.533,127.159a2.976,2.976,0,0,1-2.07,1.489c-.551.117-1.271.211-3.695-.794a13.214,13.214,0,0,1-5.252-4.639,6.025,6.025,0,0,1-1.253-3.182,3.367,3.367,0,0,1,1.079-2.567,1.533,1.533,0,0,1,1.079-.378c.131,0,.248.007.353.012.31.013.465.032.67.521.254.613.874,2.127.948,2.282a.628.628,0,0,1,.045.571,1.822,1.822,0,0,1-.342.484c-.156.179-.3.316-.459.509-.142.167-.3.347-.124.657a9.363,9.363,0,0,0,1.711,2.127,7.755,7.755,0,0,0,2.474,1.526.667.667,0,0,0,.744-.117,12.758,12.758,0,0,0,.824-1.092.589.589,0,0,1,.757-.229c.285.1,1.792.844,2.1,1s.514.229.589.36A2.627,2.627,0,0,1,119.533,127.159Z" transform="translate(-102.844 -112.263)" fill="#fafafa"/>
  </g>
</svg>
