<svg xmlns="http://www.w3.org/2000/svg" xmlns:xlink="http://www.w3.org/1999/xlink" width="316" height="142" viewBox="0 0 316 142">
  <defs>
    <clipPath id="clip-path">
      <rect id="Rectangle_17611" data-name="Rectangle 17611" width="316" height="142" transform="translate(-0.361 0.357)" fill="#fff"/>
    </clipPath>
  </defs>
  <g id="Frame" transform="translate(0.361 -0.357)" clip-path="url(#clip-path)">
    <g id="Group_40762" data-name="Group 40762" transform="translate(1.971 2.064)" opacity="0.4">
      <path id="Path_83484" data-name="Path 83484" d="M-54,2.311c23.061-.67,46.587-1.284,68.695,5.337S57.659,29.477,65.025,51.434s-3.087,50.142-25.111,57.042c-4.095,1.283-9,1.667-12.258-1.14a11.631,11.631,0,0,1-3.429-8.24c-1.03-17.14,17.911-29.275,35-29.959,32.445-1.3,70.979,105.283,145.112,59.929" transform="translate(54.002 -1.917)" fill="none" stroke="#cacaff" stroke-linecap="round" stroke-linejoin="round" stroke-width="3" stroke-dasharray="8 8"/>
      <path id="Path_83485" data-name="Path 83485" d="M167.431,92.927l1.549,21.505,4.986-15.342,37.545-15.855Z" transform="translate(100.96 15.328)" fill="#0e2b42"/>
      <path id="Path_83486" data-name="Path 83486" d="M158.876,87.772s10.48,3.089,10.387,5.629l43.6-9.983A122.212,122.212,0,0,0,158.876,87.772Z" transform="translate(99.145 15.103)" fill="#9691f3"/>
      <path id="Path_83487" data-name="Path 83487" d="M168.586,112.163c-.046.727,14.41-8.475,14.41-8.475l-9.734-7.411S169,105.784,168.586,112.163Z" transform="translate(101.205 18.094)" fill="#5a4bd9"/>
      <path id="Path_83488" data-name="Path 83488" d="M172.441,99.08s12.643,8.607,11.717,17.388l26.535-33.381S175.8,96.7,172.441,99.08Z" transform="translate(102.022 15.297)" fill="#ff5c5c"/>
      <path id="Path_83489" data-name="Path 83489" d="M158.439,89.133a14.036,14.036,0,0,1,7.066,2.386" transform="translate(99.053 16.579)" fill="none" stroke="#9691f3" stroke-width="1" opacity="0.5"/>
      <path id="Path_83490" data-name="Path 83490" d="M188.156,110.587a207.326,207.326,0,0,1,15.615-19.51" transform="translate(105.355 16.991)" fill="none" stroke="#ff5c5c" stroke-width="1" opacity="0.5"/>
    </g>
  </g>
</svg>
