<svg xmlns="http://www.w3.org/2000/svg" width="77.403" height="61.841" viewBox="0 0 77.403 61.841">
  <g id="Group_40856" data-name="Group 40856" transform="translate(-660.299 -1102.504)">
    <path id="Path_90044" data-name="Path 90044" d="M15.118,30.49,11.8,20.2a.912.912,0,0,0-.643-.606L.688,16.873a.917.917,0,0,1-.05-1.761L10.93,11.8a.912.912,0,0,0,.606-.643L14.255.685A.918.918,0,0,1,16.016.634l3.316,10.291a.912.912,0,0,0,.643.606l10.47,2.717A.918.918,0,0,1,30.5,16.01L20.2,19.327a.913.913,0,0,0-.606.643L16.88,30.439a.917.917,0,0,1-1.762.051Z" transform="translate(706.572 1133.215)" fill="#5a4bda" opacity="0.2"/>
    <path id="Path_90044-2" data-name="Path 90044" d="M22.472,45.323l-4.931-15.3a1.356,1.356,0,0,0-.955-.9L1.023,25.082a1.362,1.362,0,0,1-.074-2.617l15.3-4.928a1.356,1.356,0,0,0,.9-.955L21.19,1.018A1.364,1.364,0,0,1,23.808.942l4.929,15.3a1.356,1.356,0,0,0,.955.9l15.563,4.039a1.364,1.364,0,0,1,.077,2.617l-15.3,4.93a1.357,1.357,0,0,0-.9.955l-4.04,15.562a1.362,1.362,0,0,1-2.619.077Z" transform="translate(660.299 1102.504)" fill="#5a4bda" opacity="0.2"/>
  </g>
</svg>
