<svg width="47" height="47" viewBox="0 0 47 47" fill="none" xmlns="http://www.w3.org/2000/svg">
<rect width="47" height="47" rx="4" fill="#F1EFFF" fill-opacity="0.8"/>
<rect x="6" y="6" width="35" height="35" rx="4" fill="#D2CCFF" fill-opacity="0.5"/>
<path d="M12 23C12 23 16 15 23 15C30 15 34 23 34 23C34 23 30 31 23 31C16 31 12 23 12 23Z" stroke="#5A4BDA" stroke-width="2" stroke-linecap="round" stroke-linejoin="round"/>
<path d="M23 26C24.6569 26 26 24.6569 26 23C26 21.3431 24.6569 20 23 20C21.3431 20 20 21.3431 20 23C20 24.6569 21.3431 26 23 26Z" stroke="#5A4BDA" stroke-width="2" stroke-linecap="round" stroke-linejoin="round"/>
</svg>
