<svg width="21" height="14" viewBox="0 0 21 14" fill="none" xmlns="http://www.w3.org/2000/svg">
<path d="M0.750009 0.249023C0.330004 0.249023 0 0.579046 0 0.99905V12.9992C0 13.4192 0.330004 13.7492 0.750009 13.7492H20.2502C20.6703 13.7492 21.0003 13.4192 21.0003 12.9992V0.99905C21.0003 0.579046 20.6703 0.249023 20.2502 0.249023H0.750009ZM0.750009 0.99905H20.2502V12.9992H0.750009V0.99905Z" fill="#C58F27"/>
<path d="M2.25 11.4991V12.2492H18.7502V11.4991H2.25ZM6.75006 1.74902V2.49905H14.2501V1.74902H6.75006ZM9.75009 3.99906V4.74909H18.0002V3.99906H9.75009ZM10.1101 6.99908C9.78009 6.99908 9.63009 7.41912 9.87009 7.62912L10.6201 8.3791C10.9501 8.73911 11.4901 8.19911 11.1301 7.86909L10.3801 7.11911C10.3201 7.02911 10.2301 6.99908 10.1101 6.99908Z" fill="#C58F27"/>
<path d="M10.8611 6.99907C10.7711 6.99907 10.6811 7.02914 10.6211 7.11914L9.87106 7.86912C9.51105 8.19914 10.0511 8.73914 10.3811 8.37913L11.1311 7.62915C11.3711 7.41915 11.2211 6.99907 10.8611 6.99907ZM12.3611 6.99907C12.0311 6.99907 11.8811 7.41911 12.1211 7.62911L12.8711 8.37909C13.2011 8.7391 13.7411 8.1991 13.3811 7.86908L12.6311 7.1191C12.5711 7.0291 12.4811 6.99907 12.3611 6.99907Z" fill="#C58F27"/>
<path d="M13.1111 6.99907C13.0211 6.99907 12.9311 7.02914 12.8711 7.11914L12.1211 7.86912C11.7611 8.19914 12.3011 8.73914 12.6311 8.37913L13.3811 7.62915C13.6211 7.41915 13.4711 6.99907 13.1111 6.99907ZM14.6111 6.99907C14.2811 6.99907 14.1311 7.41911 14.3711 7.62911L15.1211 8.37909C15.4511 8.7391 15.9911 8.1991 15.6311 7.86908L14.8811 7.1191C14.8211 7.0291 14.7311 6.99907 14.6111 6.99907Z" fill="#C58F27"/>
<path d="M15.3611 6.99907C15.2711 6.99907 15.1811 7.02914 15.1211 7.11914L14.3711 7.86912C14.0111 8.19914 14.5511 8.73914 14.8811 8.37913L15.6311 7.62915C15.8711 7.41915 15.7211 6.99907 15.3611 6.99907ZM16.8611 6.99907C16.5311 6.99907 16.3811 7.41911 16.6211 7.62911L17.3711 8.37909C17.7011 8.7391 18.2411 8.1991 17.8811 7.86908L17.1311 7.1191C17.0711 7.0291 16.9811 6.99907 16.8611 6.99907Z" fill="#C58F27"/>
<path d="M17.6102 6.99908C17.5202 6.99908 17.4302 7.02915 17.3702 7.11915L16.6202 7.86913C16.2602 8.19915 16.8002 8.73915 17.1302 8.37914L17.8802 7.62916C18.1202 7.41917 17.9702 6.99908 17.6102 6.99908ZM9.7501 5.49907V6.24909H14.2502V5.49907H9.7501ZM3.00002 2.49905C3.00002 2.91905 2.67001 3.24903 2.25001 3.24903C1.83 3.24903 1.5 2.91905 1.5 2.49905C1.5 2.07905 1.83 1.74902 2.25001 1.74902C2.67001 1.74902 3.00002 2.07905 3.00002 2.49905ZM11.2501 9.99914V10.7492H12.0001V9.99914H11.2501ZM13.5001 9.99914V10.7492H14.2502V9.99914H13.5001ZM15.0002 9.99914V10.7492H15.7502V9.99914H15.0002ZM16.5002 9.99914V10.7492H17.2502V9.99914H16.5002ZM18.0002 9.99914V10.7492H18.7502V9.99914H18.0002ZM9.7501 9.99914V10.7492H10.5001V9.99914H9.7501ZM5.25005 3.99906C4.44004 3.99906 3.75003 4.68905 3.75003 5.49907C3.75003 6.30907 4.44004 6.99908 5.25005 6.99908C6.06006 6.99908 6.75006 6.30907 6.75006 5.49907C6.75006 4.68905 6.06006 3.99906 5.25005 3.99906ZM5.25005 4.74909C5.67005 4.74909 6.00006 5.07906 6.00006 5.49907C6.00006 5.91907 5.67005 6.24909 5.25005 6.24909C4.83004 6.24909 4.50004 5.91907 4.50004 5.49907C4.50004 5.07906 4.83004 4.74909 5.25005 4.74909Z" fill="#C58F27"/>
<path d="M5.25004 6.24902C4.44003 6.24902 3.69002 6.54901 3.15001 6.93901C2.61 7.35902 2.25 7.89905 2.25 8.49906C2.25 8.79907 2.37 9.06905 2.55 9.27906C2.73001 9.48906 3.00001 9.60907 3.27001 9.72908C3.81002 9.93907 4.50003 9.99907 5.25004 9.99907C6.00005 9.99907 6.69005 9.93913 7.23006 9.72908C7.50006 9.60903 7.77007 9.48906 7.95007 9.27906C8.13007 9.06905 8.25007 8.79907 8.25007 8.49906C8.25007 7.89905 7.86007 7.35902 7.35006 6.93901C6.81006 6.54901 6.06005 6.24902 5.25004 6.24902ZM5.25004 6.99901C5.88004 6.99901 6.48005 7.23904 6.87006 7.53903C7.29006 7.86904 7.50006 8.25906 7.50006 8.49906C7.50006 8.61911 7.47006 8.67905 7.38006 8.76905C7.32006 8.85905 7.17006 8.94907 6.99006 9.00907C6.57005 9.15907 5.94005 9.24904 5.25004 9.24904C4.56003 9.24904 3.93002 9.15907 3.51002 9.00907C3.33001 8.94911 3.18001 8.85905 3.12001 8.76905C3.03001 8.67905 3.00001 8.61907 3.00001 8.49906C3.00001 8.25906 3.21001 7.86904 3.63002 7.53903C4.02002 7.23904 4.62003 6.99901 5.25004 6.99901Z" fill="#C58F27"/>
</svg>
