<svg width="337" height="428" viewBox="0 0 337 428" fill="none" xmlns="http://www.w3.org/2000/svg">
<path d="M65.2187 427.537C53.595 427.537 44.1367 418.081 44.1367 406.455V115.458C44.1367 103.834 53.595 94.376 65.2187 94.376H284.604C296.228 94.376 305.686 103.833 305.686 115.458V406.455C305.686 418.079 296.228 427.537 284.604 427.537H65.2187Z" fill="#DE8175"/>
<path d="M284.601 107.312H65.2159C60.7175 107.312 57.0703 110.959 57.0703 115.458V406.455C57.0703 410.953 60.7175 414.601 65.2159 414.601H284.601C289.1 414.601 292.747 410.953 292.747 406.455V115.458C292.748 110.959 289.101 107.312 284.601 107.312Z" fill="#F9F9F9"/>
<path d="M89.2596 157.641H215.926V184.421H89.2596V157.641ZM74.4258 336.697H140.047V363.477H74.4258V336.697ZM201.496 284.32H267.118V311.1H201.496V284.32ZM276.711 133.399C276.586 128.803 270.943 130.061 268.234 132.126C267.89 130.372 268.599 128.29 271.001 127.866C272.819 127.547 272.048 124.778 270.238 125.096C265.54 125.922 263.659 131.052 266.134 134.803C264.145 139.081 266.843 144.165 270.361 147.109C271.77 148.288 273.813 146.265 272.393 145.077C270.061 143.127 267.666 139.982 268.459 136.924C271.762 138.674 276.838 138.016 276.711 133.399ZM272.35 134.105C271.459 134.718 270.661 134.782 269.997 134.532C271.636 133.413 275.166 132.171 272.35 134.105Z" fill="#ECBBBB"/>
<path d="M319.312 274.082C320.105 277.14 317.711 280.284 315.378 282.235C313.957 283.424 316.001 285.445 317.41 284.267C320.927 281.323 323.626 276.238 321.637 271.961C324.111 268.21 322.231 263.08 317.533 262.254C315.722 261.934 314.952 264.704 316.77 265.024C319.173 265.448 319.883 267.529 319.537 269.284C316.828 267.219 311.184 265.962 311.059 270.557C310.933 275.174 316.007 275.832 319.312 274.082ZM317.772 271.69C317.108 271.939 316.31 271.875 315.419 271.263C312.604 269.329 316.133 270.572 317.772 271.69ZM84.4941 276.952C84.3068 277.67 84.2336 278.393 84.2504 279.107C80.7906 279.505 77.3581 276.351 77.2957 272.562C77.2652 270.716 74.3917 270.777 74.4221 272.632C74.5013 277.431 77.9581 281.722 82.9438 281.918C83.489 281.94 84.1118 281.879 84.7621 281.754C85.6666 284.157 87.6783 286.115 90.2732 286.765C92.0655 287.216 92.7645 284.429 90.9691 283.979C89.3199 283.565 88.0773 282.425 87.4925 280.871C90.0356 279.681 92.1462 277.545 91.2615 274.776C89.8681 270.404 85.1946 274.291 84.4941 276.952ZM87.4955 277.522C87.4559 277.56 87.4133 277.584 87.3737 277.621C87.4209 277.45 87.4651 277.278 87.5229 277.103C87.8016 276.255 89.7874 275.329 87.4955 277.522Z" fill="#FFCD5C"/>
<path d="M330.732 194.214C329.649 197.636 327.318 200.289 324.162 201.96C320.894 203.692 323.794 208.652 327.062 206.921C331.525 204.556 334.752 200.54 336.272 195.742C337.391 192.207 331.845 190.697 330.732 194.214ZM28.2157 304.435C25.2447 306.448 21.7696 307.083 18.2595 306.439C14.6215 305.772 13.8205 311.463 17.4585 312.13C22.4274 313.042 27.4482 311.892 31.6161 309.069C34.6846 306.99 31.2705 302.365 28.2157 304.435ZM118.454 134.722C115.648 134.428 113.238 133.05 111.453 130.885C109.604 128.642 106.24 131.657 108.089 133.9C110.614 136.966 114.215 138.817 118.15 139.231C121.048 139.535 121.338 135.025 118.454 134.722ZM248.216 156.18C246.645 157.664 244.641 158.376 242.492 158.331C240.266 158.285 240.339 161.745 242.565 161.791C245.606 161.853 248.48 160.685 250.683 158.606C252.308 157.074 249.833 154.656 248.216 156.18Z" fill="#97D59A"/>
<path d="M83.0894 315.048C79.5047 314.877 76.3448 313.302 73.9205 310.683C71.4078 307.968 67.3541 312.043 69.8683 314.758C73.2992 318.466 78.0062 320.557 83.0346 320.795C86.735 320.97 86.7761 315.223 83.0894 315.048Z" fill="#D9D9E7"/>
<path d="M234.598 57.3796L234.697 64.0603L240.255 67.7683L233.932 69.9246L232.124 76.357L228.118 71.0104L221.442 71.28L225.29 65.8161L222.971 59.5497L229.354 61.5217L234.598 57.3796Z" fill="#FFCD5C"/>
<path d="M100.679 77.8182L105.875 76.8116L107.994 71.9614L110.555 76.5923L115.822 77.1086L112.209 80.9765L113.348 86.145L108.552 83.9034L103.989 86.5836L104.639 81.3313L100.679 77.8182ZM262.059 337.331L267.704 337.627L271.147 333.147L272.609 338.606L277.936 340.497L273.194 343.575L273.043 349.225L268.65 345.666L263.23 347.268L265.257 341.991L262.059 337.331Z" fill="#3B77D0"/>
<path d="M19.3143 241.331L19.4133 248.012L24.9716 251.72L18.6489 253.876L16.8413 260.308L12.8347 254.962L6.15869 255.231L10.0069 249.767L7.6876 243.501L14.0713 245.473L19.3143 241.331Z" fill="#FFCD5C"/>
<path d="M235.48 286.456L156.287 295.15C156.287 295.15 180.331 397.255 180.963 401.24H246.204C244.915 365.56 235.48 299.185 235.48 286.456Z" fill="#171C80"/>
<path d="M231.536 383.728C231.486 383.951 230.78 384.046 229.537 383.892C228.297 383.74 226.52 383.323 224.443 382.445C223.924 382.226 223.389 381.975 222.838 381.695C222.294 381.414 221.716 381.102 221.114 380.69C220.517 380.275 219.89 379.756 219.352 379.033C218.81 378.308 218.429 377.39 218.291 376.438C218.151 375.483 218.254 374.536 218.466 373.666C218.681 372.794 219.005 371.982 219.375 371.213C219.745 370.444 220.165 369.713 220.595 369.008C220.988 368.361 221.353 367.708 221.658 367.05C221.961 366.393 222.201 365.746 222.316 365.151C222.431 364.554 222.43 364.027 222.32 363.582C222.311 363.524 222.284 363.474 222.267 363.419C222.247 363.366 222.235 363.31 222.214 363.258C222.157 363.159 222.121 363.051 222.063 362.955C221.95 362.763 221.806 362.577 221.624 362.394C221.263 362.029 220.764 361.689 220.207 361.373C219.928 361.214 219.636 361.059 219.334 360.902C219.029 360.744 218.728 360.588 218.431 360.436C217.836 360.131 217.258 359.836 216.7 359.55C215.579 358.98 214.533 358.45 213.579 357.966C209.757 356.032 207.386 354.767 207.549 354.313C207.704 353.877 210.381 354.345 214.514 355.737C215.547 356.085 216.669 356.495 217.861 356.962C218.458 357.195 219.072 357.447 219.701 357.71L220.657 358.118C220.983 358.26 221.324 358.412 221.676 358.586C222.377 358.935 223.138 359.361 223.866 360.02C224.227 360.349 224.576 360.741 224.866 361.194C225.013 361.42 225.13 361.662 225.256 361.901C225.313 362.024 225.358 362.152 225.407 362.279C225.453 362.407 225.509 362.533 225.541 362.665C225.849 363.718 225.835 364.808 225.657 365.783C225.479 366.765 225.144 367.65 224.76 368.487C224.373 369.322 223.934 370.083 223.485 370.799C223.073 371.455 222.693 372.087 222.372 372.707C221.726 373.939 221.338 375.136 221.417 376.06C221.437 376.171 221.44 376.289 221.464 376.398L221.504 376.56C221.516 376.613 221.524 376.669 221.548 376.72C221.592 376.82 221.617 376.931 221.665 377.027C221.688 377.076 221.71 377.126 221.739 377.173C221.763 377.222 221.79 377.271 221.822 377.32C222.058 377.706 222.412 378.081 222.824 378.43C223.235 378.778 223.703 379.106 224.174 379.423C224.641 379.735 225.095 380.027 225.538 380.294C227.309 381.363 228.847 382.092 229.916 382.621C230.985 383.146 231.59 383.492 231.536 383.728Z" fill="#111968"/>
<path d="M206.277 295.15C209.59 271.066 109.423 286.456 109.423 286.456C109.423 299.184 99.9875 365.56 98.6992 401.239H173.395C173.686 400.599 179.898 343.047 179.898 343.047C179.898 343.047 201.481 330.021 206.277 295.15Z" fill="#171C80"/>
<path d="M190.171 332.789C190.24 332.81 190.276 332.917 190.284 333.104C190.287 333.199 190.284 333.313 190.272 333.447C190.263 333.582 190.24 333.735 190.203 333.907C190.075 334.597 189.774 335.593 189.157 336.771C188.548 337.951 187.604 339.308 186.249 340.623C185.572 341.28 184.791 341.918 183.913 342.52C183.471 342.818 183.007 343.106 182.515 343.38C182.269 343.519 182.015 343.65 181.756 343.778C181.634 343.837 181.511 343.895 181.388 343.954L181.319 343.991L181.284 344.012L181.204 344.061C181.196 344.09 181.205 344.131 181.205 344.163L181.211 344.25C181.197 344.422 181.182 344.596 181.167 344.771C181.137 345.121 181.106 345.477 181.076 345.837L180.879 348.037C180.742 349.534 180.593 351.089 180.433 352.694C180.113 355.903 179.746 359.306 179.341 362.83C177.145 381.9 174.605 397.271 173.667 397.163C172.729 397.055 173.749 381.509 175.945 362.438C176.35 358.915 176.769 355.517 177.186 352.319C177.395 350.72 177.604 349.172 177.811 347.684C177.916 346.939 178.019 346.21 178.12 345.496C178.172 345.139 178.222 344.786 178.272 344.437C178.298 344.262 178.324 344.087 178.348 343.913C178.391 343.597 178.432 343.283 178.473 342.971L178.743 342.623L178.875 342.451L178.941 342.366L178.974 342.323L179.006 342.292C179.181 342.118 179.387 341.908 179.608 341.681C179.725 341.641 179.844 341.602 179.961 341.562C180.064 341.522 180.168 341.484 180.272 341.446C180.396 341.398 180.52 341.35 180.643 341.302C180.87 341.209 181.095 341.114 181.315 341.014C181.755 340.814 182.178 340.598 182.583 340.376C183.39 339.924 184.126 339.439 184.779 338.934C186.089 337.926 187.085 336.864 187.825 335.92C188.571 334.979 189.075 334.161 189.436 333.602C189.53 333.464 189.614 333.34 189.686 333.234C189.759 333.127 189.826 333.039 189.888 332.97C190.007 332.83 190.104 332.768 190.171 332.789ZM188.088 301.273C188.323 301.273 188.551 302.043 188.74 303.447C188.831 304.149 188.917 305.008 188.974 306.01C189.034 307.012 189.07 308.154 189.061 309.423C189.052 310.691 189.002 312.085 188.863 313.589C188.726 315.092 188.499 316.708 188.082 318.412C187.866 319.265 187.602 320.139 187.246 321.03C186.881 321.918 186.422 322.825 185.772 323.699C185.697 323.811 185.608 323.917 185.516 324.024L185.244 324.342C185.157 324.45 185.046 324.548 184.944 324.65L184.628 324.951C184.517 325.049 184.395 325.138 184.278 325.231C184.158 325.321 184.045 325.42 183.914 325.501L183.52 325.743L183.32 325.862C183.25 325.897 183.179 325.929 183.109 325.962C182.965 326.026 182.822 326.092 182.679 326.156C182.536 326.223 182.382 326.259 182.233 326.31C182.082 326.355 181.931 326.407 181.778 326.444C181.624 326.472 181.47 326.501 181.315 326.529C181.004 326.596 180.698 326.599 180.387 326.619C180.31 326.622 180.233 326.628 180.154 326.628L179.911 326.619C179.748 326.613 179.585 326.605 179.42 326.579C178.764 326.501 178.111 326.306 177.526 326.02C176.941 325.732 176.428 325.361 175.986 324.959C175.1 324.15 174.494 323.233 174.007 322.336C173.052 320.529 172.549 318.746 172.17 317.058C171.8 315.368 171.587 313.765 171.45 312.266C171.314 310.768 171.255 309.374 171.243 308.106C171.22 305.567 171.374 303.525 171.575 302.118C171.777 300.712 172.033 299.942 172.269 299.951C172.505 299.96 172.7 300.732 172.906 302.116C173.114 303.499 173.327 305.496 173.655 307.935C173.818 309.155 174.013 310.483 174.261 311.893C174.511 313.302 174.815 314.792 175.231 316.306C175.648 317.812 176.177 319.369 176.941 320.719C177.323 321.386 177.768 321.998 178.263 322.431C178.51 322.649 178.764 322.825 179.023 322.952C179.283 323.075 179.551 323.153 179.838 323.186C179.908 323.201 179.982 323.201 180.057 323.203L180.168 323.209C180.206 323.209 180.249 323.203 180.29 323.201C180.451 323.188 180.62 323.197 180.768 323.157C180.844 323.144 180.922 323.131 180.998 323.121C181.073 323.104 181.143 323.075 181.216 323.055C181.286 323.029 181.363 323.022 181.43 322.987C181.499 322.955 181.567 322.924 181.636 322.895C181.671 322.88 181.706 322.868 181.74 322.851L181.837 322.79C181.902 322.751 181.968 322.713 182.035 322.676C182.102 322.64 182.161 322.582 182.225 322.537C182.288 322.489 182.353 322.446 182.416 322.394L182.595 322.225C182.655 322.167 182.72 322.122 182.775 322.052L182.947 321.86C183.005 321.797 183.063 321.735 183.115 321.659C183.553 321.105 183.926 320.442 184.245 319.746C184.558 319.044 184.819 318.309 185.047 317.575C185.492 316.096 185.81 314.616 186.055 313.213C186.303 311.809 186.491 310.48 186.651 309.26C186.811 308.04 186.943 306.929 187.065 305.949C187.188 304.97 187.298 304.124 187.411 303.431C187.63 302.043 187.851 301.273 188.088 301.273Z" fill="#070E3F"/>
<path d="M119.395 365.438C119.278 365.426 119.187 365.243 119.133 364.876C119.104 364.517 119.124 363.963 119.348 363.296C119.566 362.629 119.985 361.869 120.58 361.109C121.176 360.351 121.94 359.597 122.785 358.838C123.626 358.078 124.559 357.308 125.403 356.454C126.243 355.602 126.977 354.657 127.232 353.652C127.363 353.145 127.41 352.63 127.322 352.065L127.291 351.852L127.244 351.634C127.218 351.489 127.166 351.338 127.128 351.189C127.031 350.886 126.923 350.576 126.781 350.254C126.51 349.615 126.154 348.945 125.764 348.243C125.375 347.541 124.948 346.799 124.535 345.99C124.331 345.581 124.128 345.168 123.949 344.723C123.854 344.509 123.775 344.274 123.69 344.049C123.615 343.811 123.534 343.583 123.473 343.335C123.208 342.371 123.108 341.259 123.307 340.187L123.394 339.789C123.422 339.657 123.469 339.532 123.507 339.404C123.583 339.15 123.685 338.899 123.795 338.656C124.019 338.175 124.296 337.74 124.596 337.357C125.197 336.591 125.866 336.01 126.507 335.518C126.828 335.273 127.145 335.049 127.453 334.839C127.762 334.627 128.056 334.435 128.351 334.239C128.942 333.852 129.519 333.482 130.084 333.132C131.211 332.433 132.28 331.813 133.268 331.271C135.246 330.188 136.905 329.42 138.089 328.971C139.277 328.522 139.99 328.39 140.104 328.594C140.22 328.802 139.725 329.328 138.755 330.124C137.786 330.92 136.343 331.988 134.572 333.307C133.685 333.966 132.718 334.688 131.688 335.469C131.174 335.862 130.643 336.269 130.095 336.686C129.824 336.896 129.55 337.109 129.271 337.325C129 337.539 128.736 337.752 128.485 337.968C127.983 338.401 127.535 338.851 127.206 339.316C127.04 339.547 126.909 339.782 126.811 340.018C126.764 340.137 126.72 340.252 126.69 340.38C126.674 340.443 126.649 340.504 126.641 340.568C126.63 340.631 126.62 340.694 126.606 340.758C126.533 341.267 126.575 341.819 126.755 342.445C126.924 343.065 127.229 343.741 127.581 344.443C127.94 345.15 128.345 345.865 128.747 346.615C129.147 347.364 129.546 348.142 129.878 348.987C130.047 349.404 130.191 349.849 130.314 350.3C130.367 350.533 130.43 350.757 130.466 350.996L130.526 351.351C130.538 351.472 130.552 351.593 130.564 351.713C130.666 352.68 130.536 353.696 130.233 354.591C129.929 355.494 129.455 356.278 128.934 356.918C128.413 357.562 127.856 358.086 127.312 358.543C126.219 359.454 125.177 360.121 124.271 360.739C123.362 361.351 122.584 361.898 121.961 362.423C121.34 362.947 120.871 363.443 120.533 363.891C120.192 364.337 119.985 364.733 119.805 365.009C119.653 365.292 119.514 365.45 119.395 365.438Z" fill="#111968"/>
<path d="M257.551 265.829C239.975 275.438 216.98 211.624 216.98 211.624L249.494 207.779C249.494 207.779 278.187 254.547 257.551 265.829Z" fill="#F2CDB8"/>
<path d="M219.142 218.282C219.142 218.282 259.734 216.421 254.467 208.449C235.651 179.968 201.267 153.751 192.84 149.686C194.542 175.312 219.142 218.282 219.142 218.282Z" fill="#1996F2"/>
<path opacity="0.5" d="M215.431 171.214C215.792 170.432 217.34 172.295 219.295 173.706C220.257 174.427 221.276 175.035 222.153 175.498C223.021 175.973 223.77 176.352 223.974 176.948C224.18 177.531 223.723 177.953 222.735 178.152C221.765 178.306 220.291 178.062 218.977 177.304C217.656 176.564 216.539 175.394 215.929 174.226C215.304 173.064 215.125 171.927 215.431 171.214ZM216.449 201.269C215.127 201.196 216.989 197.893 218.737 194.456C219.604 192.753 220.502 190.987 221.233 189.549C221.996 188.139 222.657 187.1 223.521 186.829C224.381 186.485 225.075 187.301 225.244 188.768C225.414 190.218 225.048 192.266 224.168 194.204C222.444 198.161 218.777 201.384 216.449 201.269ZM230.463 208.872C229.688 208.236 232.303 207.051 234.908 205.734C236.198 205.08 237.538 204.403 238.629 203.851C239.725 203.331 240.595 202.993 241.243 203.213C241.922 203.387 241.982 204.197 241.429 205.169C240.884 206.13 239.745 207.218 238.341 208.009C235.517 209.653 231.835 209.984 230.463 208.872Z" fill="#1965F2"/>
<path d="M85.1134 252.288C107.13 260.956 118.669 212.47 118.669 212.47L89.2615 199.917C89.26 199.915 63.2304 243.672 85.1134 252.288Z" fill="#F2CDB8"/>
<path d="M117.694 220.285C117.694 220.285 78.7419 209.602 84.0094 201.63C102.825 173.149 131.397 153.976 139.824 149.914C138.121 175.538 117.694 220.285 117.694 220.285Z" fill="#1996F2"/>
<path opacity="0.5" d="M120.003 169.793C119.492 168.683 117.297 171.327 114.526 173.328C113.161 174.351 111.716 175.213 110.474 175.87C109.243 176.543 108.18 177.08 107.891 177.925C107.6 178.752 108.247 179.351 109.648 179.632C111.023 179.852 113.114 179.504 114.978 178.431C116.851 177.38 118.435 175.722 119.3 174.067C120.186 172.417 120.439 170.805 120.003 169.793ZM110.816 201.269C112.138 201.196 110.276 197.893 108.528 194.456C107.661 192.753 106.763 190.987 106.032 189.549C105.269 188.139 104.608 187.1 103.744 186.829C102.884 186.485 102.19 187.301 102.02 188.768C101.851 190.218 102.217 192.266 103.097 194.204C104.821 198.161 108.486 201.384 110.816 201.269ZM100.601 209.819C101.376 209.183 98.7616 207.998 96.1561 206.681C94.8663 206.027 93.5262 205.35 92.4359 204.799C91.3394 204.278 90.4699 203.94 89.8212 204.16C89.142 204.334 89.0826 205.144 89.6354 206.116C90.1806 207.078 91.3196 208.166 92.7237 208.956C95.547 210.602 99.2292 210.931 100.601 209.819Z" fill="#1965F2"/>
<path d="M97.9081 222.366C84.719 205.779 32.7298 171.19 32.7298 171.19L24.8203 182.769C24.8203 182.769 63.468 250.18 86.7565 253.591C107.822 256.678 103.02 228.797 97.9081 222.366Z" fill="#F2CDB8"/>
<path d="M92.6184 224.478C92.221 224.564 91.6347 223.33 90.7454 221.416C90.2916 220.461 89.7647 219.334 89.1236 218.119C88.484 216.902 87.7317 215.6 86.8713 214.276C85.1612 211.621 83.311 209.422 81.9267 207.839C80.5425 206.252 79.6333 205.277 79.8374 204.944C80.0384 204.607 81.4257 205.041 83.2653 206.346C84.1805 206.998 85.213 207.863 86.2439 208.937C87.2749 210.01 88.3165 211.285 89.25 212.733C90.188 214.177 90.9372 215.643 91.4946 217.023C92.0535 218.402 92.4205 219.694 92.6504 220.79C93.0936 222.994 92.987 224.402 92.6184 224.478Z" fill="#DE8175"/>
<path d="M63.9461 149.854C63.2136 149.246 62.9456 148.2 63.3583 147.291C63.8532 146.202 65.1369 145.721 66.2273 146.216C73.6526 149.591 80.7763 137.087 82.9007 132.916L74.0911 128.914C73.0038 128.423 72.5211 127.135 73.016 126.045C73.5109 124.956 74.7962 124.473 75.885 124.97L84.8331 129.036C85.8671 129.503 86.6788 130.392 87.0564 131.464C87.4356 132.546 87.361 133.706 86.8417 134.728C83.6788 140.993 75.1617 155.038 64.4334 150.163C64.2537 150.079 64.0908 149.974 63.9461 149.854ZM17.098 130.523C10.8088 125.302 11.561 113.124 12.3285 107.379C12.4793 106.242 13.0747 105.241 14.0006 104.564C14.9158 103.894 16.0853 103.623 17.2046 103.821L26.8837 105.52C28.0562 105.727 28.8496 106.851 28.6425 108.03C28.4339 109.208 27.3131 109.997 26.1329 109.79L16.6016 108.117C15.997 112.76 14.8123 127.108 22.8451 128.509C24.0208 128.716 24.8126 129.84 24.604 131.018C24.3954 132.197 23.2731 132.986 22.0944 132.777C20.0721 132.419 18.4274 131.626 17.098 130.523Z" fill="#F4B442"/>
<path d="M81.9746 115.918L28.3636 96.6257C27.2885 96.2389 26.1068 96.7963 25.7215 97.8699L25.3835 98.811C24.9967 99.8831 25.5525 101.065 26.6276 101.452C22.7277 113.649 20.8653 123.596 20.2835 131.713C18.5384 156.058 28.3164 163.922 29.1738 166.627C30.3144 170.234 29.291 175.441 24.2825 180.218C21.115 183.239 14.745 182.977 10.4888 182.377C7.97915 182.024 5.56395 183.477 4.70508 185.863L43.3406 199.766C44.1995 197.382 43.266 194.723 41.1051 193.395C37.4427 191.146 32.3671 187.29 31.8509 182.942C31.0347 176.07 33.5625 171.404 36.7422 169.351C39.9203 167.3 61.1667 168.288 80.237 120.746C80.2568 120.752 80.2766 120.759 80.2964 120.766C80.8142 120.935 81.3532 120.887 81.8147 120.673C82.2928 120.447 82.6842 120.041 82.8776 119.503L83.2172 118.562C83.604 117.487 83.0481 116.304 81.9746 115.918Z" fill="#FFCA28"/>
<path d="M80.2939 120.764C80.1233 121.208 73.1397 118.948 64.6941 115.715C56.2485 112.484 49.5405 109.504 49.7095 109.059C49.8801 108.615 56.8638 110.874 65.3093 114.107C73.7564 117.34 80.4644 120.321 80.2939 120.764ZM45.1837 166.404C45.071 166.136 47.3324 165.154 50.5151 162.864C52.111 161.732 53.9369 160.279 55.8267 158.513C57.7181 156.748 59.684 154.68 61.6089 152.385C65.454 147.785 68.4448 143.213 70.5326 139.861C72.6204 136.504 73.8097 134.358 74.0351 134.458C74.2574 134.556 73.4564 136.916 71.6214 140.48C69.7864 144.034 66.9083 148.805 62.9657 153.523C60.9921 155.875 58.9317 157.972 56.9186 159.727C54.9069 161.482 52.9349 162.882 51.1989 163.914C50.34 164.447 49.5146 164.848 48.8035 165.213C48.4425 165.387 48.0954 165.527 47.7801 165.664C47.4634 165.797 47.1771 165.921 46.9106 166.017C45.837 166.375 45.2294 166.517 45.1837 166.404Z" fill="#D89935"/>
<path d="M42.353 197.67L6.75856 184.411C4.50631 183.572 2.00279 184.717 1.16372 186.97C0.324645 189.22 1.46981 191.725 3.72206 192.564L39.3165 205.824C41.5672 206.663 44.0723 205.518 44.9113 203.265C45.7489 201.015 44.6037 198.51 42.353 197.67Z" fill="#F4B442"/>
<path d="M38.8256 159.009C38.3596 161.56 32.5333 162.125 32.5333 162.125C32.5333 162.125 39.9753 161.986 40.458 164.869C40.9073 167.549 34.5419 168.029 32.614 168.31C34.8251 168.068 41.0093 168.549 41.1631 171.437C41.3093 174.166 32.9825 175.509 32.9825 175.509C32.9825 175.509 40.3682 175.582 40.6332 178.672C40.956 182.439 17.4497 186.118 18.4654 178.111C18.4654 178.111 12.8264 175.02 17.1101 171.149C16.0518 170.741 14.6234 169.745 14.8625 167.334C15.1 164.943 18.103 164.243 18.103 164.243C18.103 164.243 15.1762 162.151 17.5 159.629C20.9522 155.884 39.5291 155.17 38.8256 159.009Z" fill="#F2CDB8"/>
<path d="M35.2995 175.609C35.298 175.528 35.6376 175.437 36.2619 175.422C36.5741 175.414 36.9563 175.429 37.401 175.487C37.8441 175.548 38.3528 175.65 38.8995 175.863C39.4401 176.075 40.0461 176.407 40.5274 177.004C40.7649 177.299 40.9553 177.663 41.0619 178.058C41.1182 178.257 41.1471 178.454 41.1669 178.668C41.1822 178.901 41.1563 179.145 41.0908 179.381C41.0177 179.613 40.9126 179.835 40.7786 180.025C40.6446 180.216 40.4923 180.389 40.3263 180.537C39.9974 180.837 39.6335 181.068 39.2573 181.263C38.5035 181.653 37.6995 181.918 36.8741 182.139C35.2218 182.567 33.632 182.772 32.1884 182.908C30.7432 183.039 29.4427 183.085 28.3494 183.088C26.1641 183.092 24.8149 182.931 24.8164 182.769C24.8164 182.603 26.155 182.468 28.3052 182.25C29.3803 182.14 30.6579 182.008 32.0666 181.822C33.4721 181.632 35.0163 181.396 36.5711 180.992C37.3447 180.787 38.0863 180.546 38.7274 180.229C39.3654 179.92 39.9 179.495 40.0446 179.06C40.0781 178.95 40.0979 178.839 40.0964 178.723C40.0888 178.589 40.0766 178.443 40.0461 178.314C39.9898 178.049 39.8832 177.81 39.737 177.596C39.4431 177.17 39 176.856 38.5553 176.632C38.1106 176.404 37.6614 176.255 37.2639 176.139C36.8634 176.025 36.5086 175.946 36.2162 175.883C35.6345 175.758 35.301 175.693 35.2995 175.609Z" fill="#DE8175"/>
<path d="M24.217 176.986C24.1713 176.661 28.0408 175.84 32.8606 175.151C33.4605 175.062 34.0636 174.991 34.5981 174.899C34.8722 174.863 35.1356 174.8 35.3961 174.747C35.658 174.7 35.9062 174.627 36.1514 174.563C37.129 174.299 37.9772 173.958 38.664 173.617C40.0407 172.927 40.7503 172.26 40.8752 172.362C40.9406 172.411 40.8432 172.665 40.5523 173.031C40.263 173.395 39.7772 173.87 39.0889 174.339C38.4006 174.805 37.5113 175.262 36.4681 175.607C36.2062 175.691 35.9397 175.783 35.6595 175.847C35.3808 175.917 35.0976 175.993 34.8037 176.041C34.2098 176.159 33.6326 176.235 33.0281 176.325C28.2083 177.015 24.2642 177.31 24.217 176.986ZM34.0438 168.101C34.0666 168.429 31.7398 168.852 28.8494 169.049C25.9576 169.245 23.5972 169.138 23.5744 168.811C23.5515 168.484 25.8784 168.06 28.7687 167.864C31.6591 167.667 34.0209 167.774 34.0438 168.101Z" fill="#DE8175"/>
<path d="M29.1168 163.022C31.7214 162.845 33.8147 162.437 33.7925 162.109C33.7703 161.782 31.6408 161.66 29.0363 161.837C26.4317 162.014 24.3383 162.423 24.3606 162.75C24.3828 163.077 26.5122 163.199 29.1168 163.022Z" fill="#DE8175"/>
<path d="M180.192 142.572C180.186 142.57 180.198 142.589 180.199 142.593C175.692 140.432 170.909 139.29 165.836 139.426C157.661 139.643 150.603 142.107 144.495 146.242C100.56 175.612 106.297 295.11 106.297 295.11C135.495 287.027 177.278 320.655 236.469 295.11C239.734 293.7 236.714 163.742 180.192 142.572Z" fill="#1996F2"/>
<path opacity="0.5" d="M236.464 295.11C177.275 320.654 135.491 287.026 106.293 295.11C106.293 295.11 104.009 247.528 113.362 205.035C114.16 231.895 121.315 275.067 158.264 282.329C205.599 291.632 228.924 276.061 234.38 247.158C238.07 273.549 237.767 294.548 236.464 295.11Z" fill="#1965F2"/>
<path opacity="0.5" d="M161.905 178.334C162.875 178.375 161.386 180.667 160.494 183.318C160.015 184.631 159.654 186 159.382 187.139C159.099 188.274 158.843 189.198 158.241 189.527C157.65 189.854 157.108 189.423 156.676 188.424C156.304 187.433 156.175 185.872 156.569 184.287C156.944 182.702 157.801 181.142 158.828 180.053C159.855 178.965 161.02 178.317 161.905 178.334ZM184.397 175.355C184.892 174.355 187.013 176.737 189.692 178.538C191.011 179.459 192.407 180.236 193.609 180.827C194.798 181.433 195.826 181.917 196.105 182.679C196.386 183.423 195.761 183.962 194.405 184.217C193.076 184.415 191.055 184.101 189.255 183.134C187.446 182.188 185.914 180.694 185.078 179.204C184.222 177.719 183.977 176.265 184.397 175.355ZM124.06 184.706C124.555 183.705 126.676 186.087 129.355 187.888C130.674 188.81 132.07 189.586 133.272 190.177C134.461 190.783 135.489 191.267 135.768 192.029C136.049 192.773 135.423 193.313 134.068 193.567C132.739 193.765 130.718 193.451 128.918 192.484C127.109 191.538 125.577 190.045 124.741 188.554C123.885 187.07 123.64 185.616 124.06 184.706ZM227.801 255.307C226.957 255.291 226.64 254.56 226.869 253.293C227.141 252.054 228.175 250.417 229.785 249.179C231.111 248.151 232.747 247.426 234.308 247.105C234.053 248.626 233.796 250.131 233.552 251.615C232.435 252.34 231.417 253.103 230.562 253.801C229.518 254.621 228.666 255.337 227.801 255.307ZM168.386 199.666C167.109 199.6 168.909 196.625 170.599 193.529C171.437 191.995 172.305 190.404 173.011 189.11C173.748 187.84 174.388 186.904 175.222 186.661C176.054 186.35 176.724 187.086 176.888 188.408C177.051 189.713 176.699 191.558 175.848 193.305C174.182 196.867 170.639 199.771 168.386 199.666ZM200.184 190.259C199.435 189.687 201.963 188.619 204.482 187.431C205.729 186.844 207.023 186.233 208.077 185.737C209.137 185.267 209.976 184.963 210.604 185.161C211.26 185.318 211.318 186.047 210.783 186.923C210.256 187.789 209.155 188.768 207.797 189.481C205.07 190.964 201.511 191.261 200.184 190.259ZM231.475 232.406C228.824 233.702 225.573 233.912 224.313 232.967C223.561 232.388 226.1 231.321 228.618 230.128C229.276 229.813 229.954 229.498 230.592 229.199C230.874 230.233 231.156 231.302 231.475 232.406ZM163.707 215.121C163.545 214.23 166.204 214.973 168.939 215.619C170.294 215.939 171.7 216.271 172.845 216.542C173.975 216.837 174.823 217.12 175.155 217.655C175.541 218.176 175.07 218.759 174.05 219.092C173.042 219.423 171.522 219.488 169.994 219.194C166.894 218.642 164.001 216.688 163.707 215.121ZM141.981 200.333C141.816 199.573 144.053 200.033 146.331 200.304C148.638 200.648 150.984 200.604 151.655 201.429C152.474 202.3 150.237 203.543 147.563 203.317C144.886 203.179 142.275 201.674 141.981 200.333ZM183.986 157.706C183.822 156.946 186.059 157.406 188.337 157.677C190.644 158.021 192.989 157.977 193.661 158.802C194.48 159.673 192.243 160.916 189.569 160.691C186.892 160.552 184.28 159.048 183.986 157.706ZM143.819 162.253C143.654 161.493 145.891 161.953 148.169 162.224C150.476 162.568 152.822 162.524 153.493 163.35C154.312 164.221 152.075 165.463 149.401 165.238C146.724 165.099 144.113 163.595 143.819 162.253ZM187.001 254.011C186.837 253.251 189.074 253.711 191.352 253.982C193.659 254.326 196.004 254.282 196.676 255.107C197.495 255.978 195.258 257.221 192.584 256.995C189.905 256.857 187.294 255.352 187.001 254.011ZM172.125 259.907C173.095 259.948 171.606 262.24 170.713 264.891C170.235 266.204 169.874 267.573 169.602 268.712C169.317 269.846 169.062 270.771 168.461 271.1C167.87 271.427 167.328 270.996 166.895 269.997C166.524 269.006 166.394 267.445 166.789 265.86C167.164 264.274 168.021 262.715 169.047 261.626C170.075 260.537 171.242 259.889 172.125 259.907ZM228.618 277.832C229.589 277.873 228.099 280.165 227.207 282.816C226.729 284.129 226.368 285.498 226.095 286.637C225.81 287.772 225.556 288.696 224.955 289.025C224.364 289.352 223.822 288.921 223.389 287.922C223.018 286.931 222.888 285.37 223.283 283.785C223.657 282.2 224.514 280.64 225.541 279.551C226.569 278.463 227.735 277.815 228.618 277.832ZM132.889 294.478C132.652 294.726 132.39 294.984 132.163 295.255C130.939 295.069 129.685 294.815 128.469 294.48C128.6 294.285 128.723 294.105 128.872 293.916C129.892 292.59 131.332 291.469 132.742 290.852C134.152 290.236 135.498 290.068 136.302 290.409C137.167 290.796 134.829 292.358 132.889 294.478ZM205.628 201.63C206.599 201.671 205.109 203.963 204.217 206.614C203.739 207.927 203.378 209.296 203.105 210.435C202.822 211.57 202.566 212.494 201.965 212.823C201.374 213.15 200.832 212.719 200.399 211.72C200.028 210.729 199.898 209.168 200.292 207.583C200.667 205.998 201.524 204.438 202.551 203.349C203.579 202.261 204.745 201.613 205.628 201.63ZM152.887 281.117C152.911 280.212 155.401 281.552 158.264 282.329C159.682 282.748 161.158 283.055 162.386 283.285C163.609 283.526 164.607 283.745 164.972 284.3C165.336 284.845 164.884 285.356 163.822 285.781C162.767 286.148 161.095 286.301 159.386 285.967C157.678 285.65 155.986 284.884 154.798 283.951C153.607 283.013 152.887 281.941 152.887 281.117ZM120.664 212.706C121.159 211.705 123.28 214.087 125.959 215.888C127.278 216.81 128.674 217.586 129.876 218.177C131.065 218.783 132.093 219.267 132.372 220.029C132.653 220.774 132.027 221.313 130.672 221.567C129.343 221.765 127.322 221.451 125.522 220.484C123.713 219.539 122.181 218.045 121.345 216.554C120.489 215.069 120.244 213.616 120.664 212.706ZM184.093 233.066C183.744 232.014 187.029 232.466 190.313 232.138C191.955 232.004 193.551 231.71 194.87 231.403C196.19 231.114 197.302 230.835 198.055 231.226C198.799 231.605 198.719 232.396 197.894 233.428C197.046 234.403 195.319 235.428 193.284 235.828C191.259 236.252 189.049 236.092 187.359 235.502C185.657 234.934 184.432 234.005 184.093 233.066ZM114.462 266.617C113.128 266.81 111.096 266.493 109.312 265.531C108.523 265.111 107.77 264.602 107.131 264.025C107.487 262.64 107.863 261.24 108.278 259.874C108.728 260.242 109.237 260.592 109.744 260.943C111.06 261.853 112.452 262.624 113.655 263.221C114.858 263.834 115.873 264.325 116.155 265.077C116.437 265.811 115.816 266.353 114.462 266.617ZM194.149 280.974C194.644 279.973 196.766 282.355 199.444 284.156C200.763 285.078 202.159 285.854 203.361 286.445C204.55 287.051 205.577 287.536 205.857 288.297C206.139 289.042 205.513 289.581 204.157 289.835C202.828 290.033 200.807 289.719 199.007 288.752C197.198 287.807 195.666 286.313 194.83 284.822C193.974 283.337 193.729 281.884 194.149 280.974ZM147.1 232.345C147.595 231.345 149.717 233.727 152.395 235.528C153.714 236.449 155.11 237.226 156.312 237.817C157.501 238.423 158.529 238.907 158.808 239.669C159.09 240.413 158.464 240.952 157.108 241.207C155.779 241.405 153.758 241.091 151.958 240.124C150.149 239.178 148.617 237.685 147.781 236.194C146.925 234.71 146.68 233.256 147.1 232.345ZM166.905 165.53C167.014 164.75 168.962 165.876 171.153 166.49C172.241 166.815 173.348 167.026 174.283 167.155C175.213 167.298 176.008 167.396 176.364 167.842C176.718 168.279 176.418 168.777 175.568 169.247C174.721 169.674 173.299 169.911 171.88 169.663C170.459 169.43 169.102 168.769 168.213 167.956C167.31 167.15 166.824 166.232 166.905 165.53ZM215.837 268.829C215.088 268.257 217.616 267.189 220.135 266.001C221.382 265.414 222.676 264.803 223.73 264.306C224.79 263.837 225.629 263.533 226.257 263.731C226.913 263.888 226.971 264.617 226.436 265.493C225.909 266.359 224.808 267.338 223.45 268.051C220.721 269.534 217.162 269.831 215.837 268.829ZM113.23 283.543C112.481 282.97 115.008 281.903 117.527 280.715C118.774 280.127 120.069 279.516 121.123 279.02C122.182 278.551 123.021 278.246 123.649 278.444C124.305 278.601 124.363 279.331 123.829 280.206C123.302 281.073 122.201 282.052 120.842 282.765C118.115 284.248 114.555 284.545 113.23 283.543ZM191.093 302.797C190.752 303.53 190.301 304.23 189.791 304.835C188.558 304.829 187.324 304.823 186.094 304.798C186.41 304.221 186.773 303.597 187.12 302.954C187.757 301.783 188.418 300.58 188.947 299.607C189.515 298.638 190.003 297.944 190.638 297.763C191.264 297.528 191.765 298.092 191.896 299.082C192.008 300.07 191.734 301.468 191.093 302.797ZM128.68 243.576C128.516 242.816 130.753 243.276 133.031 243.547C135.338 243.892 137.683 243.847 138.355 244.673C139.174 245.544 136.937 246.786 134.263 246.561C131.584 246.422 128.973 244.918 128.68 243.576ZM135.439 267.443C134.715 267.06 136.555 265.788 138.268 264.363C140.059 262.965 141.56 261.285 142.669 261.354C143.912 261.349 143.453 263.737 141.516 265.47C139.651 267.265 136.719 268.117 135.439 267.443Z" fill="#1965F2"/>
<path d="M131.201 168.32C130.993 168.308 130.836 167.086 131.06 165.119C131.182 164.14 131.401 162.978 131.772 161.721C132.142 160.465 132.666 159.116 133.344 157.764C134.022 156.411 134.798 155.193 135.572 154.139C136.353 153.092 137.131 152.207 137.838 151.519C139.246 150.134 140.329 149.513 140.469 149.687C140.612 149.86 139.834 150.756 138.7 152.274C138.129 153.029 137.478 153.947 136.799 154.989C136.129 156.037 135.433 157.212 134.792 158.49C134.151 159.769 133.618 161.022 133.192 162.187C132.764 163.352 132.444 164.426 132.185 165.337C131.689 167.164 131.439 168.337 131.201 168.32ZM201.247 164.906C201.009 164.959 200.589 163.751 199.724 161.922C198.874 160.087 197.523 157.646 195.699 155.157C193.888 152.659 191.998 150.574 190.613 149.076C189.222 147.577 188.331 146.664 188.465 146.484C188.598 146.304 189.764 146.917 191.395 148.238C193.02 149.559 195.119 151.595 197.012 154.205C197.957 155.507 198.763 156.821 199.39 158.073C200.021 159.321 200.488 160.497 200.794 161.511C201.419 163.537 201.446 164.865 201.247 164.906ZM106.621 256.678C106.402 256.669 106.238 255.856 106.13 254.388C106.079 253.654 106.028 252.756 106.017 251.716C106.012 250.676 106.023 249.492 106.052 248.183C106.195 242.952 106.781 235.749 107.846 227.858C109.979 212.069 113.048 199.506 113.911 199.67C114.778 199.832 113.125 212.591 111.004 228.282C109.946 236.13 109.012 243.227 108.298 248.368C108.128 249.654 107.958 250.817 107.796 251.837C107.637 252.859 107.508 253.738 107.369 254.457C107.097 255.894 106.842 256.689 106.621 256.678ZM236.488 267.673C236.267 267.685 235.961 266.306 235.591 263.822C235.478 263.202 235.359 262.514 235.236 261.76C235.175 261.384 235.113 260.99 235.046 260.581C235.014 260.377 234.98 260.169 234.947 259.957C234.907 259.745 234.867 259.531 234.828 259.311C234.671 258.434 234.503 257.498 234.327 256.503C234.246 256.005 234.135 255.498 234.033 254.974C233.929 254.452 233.824 253.915 233.716 253.366C232.839 248.973 231.656 243.771 230.13 238.045C228.604 232.321 226.755 226.068 224.613 219.564C220.337 206.553 215.821 194.977 212.506 186.615C209.187 178.252 207.059 173.095 207.455 172.899C207.848 172.702 210.705 177.536 214.574 185.717C218.438 193.896 223.321 205.428 227.642 218.57C229.804 225.138 231.59 231.491 232.978 237.328C234.366 243.166 235.336 248.493 235.939 252.995C236.011 253.558 236.083 254.108 236.151 254.644C236.217 255.18 236.291 255.701 236.334 256.211C236.427 257.23 236.515 258.191 236.597 259.089C236.617 259.313 236.635 259.534 236.654 259.752C236.666 259.969 236.676 260.182 236.689 260.393C236.708 260.811 236.728 261.215 236.748 261.6C236.783 262.372 236.811 263.077 236.829 263.712C236.82 266.259 236.707 267.663 236.488 267.673Z" fill="#115ACE"/>
<path d="M230.876 242.259C230.711 242.352 230.192 241.787 229.391 240.682C229.192 240.404 228.974 240.095 228.739 239.753C228.505 239.412 228.254 239.037 227.998 238.629C227.48 237.814 226.903 236.879 226.277 235.839C223.798 231.665 220.635 225.755 217.437 219.093C211.029 205.768 206.762 194.554 207.452 194.252C208.146 193.946 213.522 204.632 219.904 217.905C223.091 224.544 225.962 230.555 227.989 234.936C228.502 236.028 228.956 237.021 229.344 237.901C229.537 238.341 229.719 238.749 229.885 239.127C230.049 239.504 230.197 239.852 230.325 240.165C230.835 241.423 231.04 242.165 230.876 242.259Z" fill="#115ACE"/>
<path d="M216.555 226.509C227.594 242.975 242.329 274.436 256.022 266.815C282.894 251.861 236.882 213.683 227.594 208.212L216.555 226.509Z" fill="#F2CDB8"/>
<path d="M237.331 214.796C237.52 214.47 239.03 214.901 241.194 216.163C242.266 216.803 243.495 217.651 244.765 218.712C246.034 219.774 247.348 221.042 248.595 222.487C251.097 225.378 252.845 228.388 253.829 230.671C254.322 231.815 254.635 232.777 254.781 233.467C254.854 233.813 254.886 234.088 254.88 234.288C254.872 234.486 254.828 234.598 254.747 234.655C254.667 234.711 254.527 234.661 254.367 234.538C254.205 234.416 254.012 234.215 253.79 233.95C253.345 233.418 252.775 232.626 252.082 231.653C250.698 229.709 248.799 227.054 246.451 224.342C245.28 222.985 244.106 221.744 243.006 220.643C241.907 219.542 240.876 218.586 240.003 217.776C238.248 216.175 237.125 215.146 237.331 214.796Z" fill="#DE8175"/>
<path d="M207.934 228.25L219.478 276.145L211.008 273.233L204.445 280.478L193.082 231.241L207.934 228.25Z" fill="#FFCD5C"/>
<path d="M205.538 244.106C202.746 247.572 200.524 251.618 198.738 255.748L193.082 231.241L207.934 228.25L210.631 239.44C208.674 240.661 206.982 242.315 205.538 244.106Z" fill="#F4B442"/>
<path d="M183.246 228.25L171.701 276.145L180.171 273.233L186.734 280.478L198.098 231.241L183.246 228.25Z" fill="#FFCD5C"/>
<path d="M190.216 249.092C188.416 247.663 186.393 246.555 184.392 245.441C182.841 244.579 181.281 243.74 179.709 242.924L183.246 228.25L198.099 231.241L193.221 252.376C192.455 251.115 191.397 250.027 190.216 249.092Z" fill="#F4B442"/>
<path d="M196.169 174.614L178.302 183.062L164.744 197.445L167.258 217.048L176.747 234.386L196.169 238.054L215.591 234.386L225.08 217.048L227.594 197.445L214.038 183.062L196.169 174.614Z" fill="#FFCA28"/>
<path d="M199.262 225.365C209.774 223.66 216.913 213.757 215.208 203.245C213.503 192.733 203.6 185.594 193.088 187.299C182.576 189.004 175.437 198.907 177.142 209.419C178.847 219.931 188.75 227.07 199.262 225.365Z" fill="#E9E9F2"/>
<path d="M196.169 194.012L192.166 202.123L183.215 203.425L189.693 209.739L188.162 218.653L196.169 214.444L204.176 218.653L202.648 209.739L209.124 203.425L200.173 202.123L196.169 194.012Z" fill="#F48D42"/>
<path d="M197.65 213.853C198.166 216.325 202.194 216.585 206.68 216.061C203.529 217.292 201.282 218.952 202.113 221.126C202.98 223.412 208.584 223.203 213.792 222.472C210.075 223.537 206.819 225.096 207.515 227.221C209.2 232.333 222.457 229.977 226.937 228.09C230.346 226.654 239.007 226.739 236.396 207.157C235.236 198.456 226.331 197.95 222.817 197.657C215.481 197.054 197.324 200.673 197.452 206.079C197.504 208.242 201.107 208.546 205.119 208.213C200.86 209.373 197.094 211.172 197.65 213.853Z" fill="#F2CDB8"/>
<path d="M219.816 206.118C219.81 206.245 219.598 206.364 219.227 206.471C219.041 206.527 218.816 206.567 218.554 206.626C218.292 206.684 217.995 206.739 217.669 206.792C216.359 207.025 214.556 207.305 212.554 207.63C208.549 208.269 205.25 208.711 205.119 208.211C204.987 207.72 208.145 206.456 212.263 205.796C214.319 205.463 216.225 205.379 217.606 205.481C217.952 205.511 218.264 205.548 218.538 205.589C218.811 205.627 219.047 205.694 219.237 205.749C219.618 205.865 219.822 205.99 219.816 206.118ZM220.64 213.771C220.649 214.033 219.881 214.292 218.645 214.595C217.407 214.898 215.692 215.253 213.781 215.589C209.96 216.261 206.794 216.564 206.68 216.063C206.566 215.567 209.58 214.444 213.461 213.762C215.401 213.421 217.191 213.264 218.5 213.292C219.814 213.317 220.632 213.52 220.64 213.771ZM220.64 221.306C220.737 221.809 218.986 222.569 216.728 223.004C214.469 223.44 212.563 223.383 212.465 222.879C212.368 222.377 214.119 221.617 216.377 221.181C218.636 220.747 220.544 220.802 220.64 221.306ZM235.647 221.021C235.76 221.082 235.722 221.387 235.548 221.903C235.46 222.16 235.311 222.453 235.139 222.797C235.052 222.969 234.938 223.138 234.823 223.324C234.708 223.508 234.586 223.706 234.435 223.896C233.869 224.684 233.074 225.546 232.064 226.342C231.057 227.142 229.842 227.877 228.501 228.48C227.158 229.079 225.819 229.487 224.59 229.761C223.358 230.029 222.234 230.169 221.289 230.218C219.394 230.315 218.22 230.078 218.222 229.822C218.22 229.564 219.341 229.336 221.104 228.917C221.986 228.709 223.026 228.445 224.159 228.106C225.291 227.761 226.512 227.333 227.744 226.785C228.971 226.232 230.09 225.614 231.048 224.965C232.009 224.32 232.807 223.644 233.444 223.033C234.732 221.822 235.399 220.886 235.647 221.021Z" fill="#DE8175"/>
<path d="M151.862 142.928C149.878 146.008 153.252 151.475 167.495 152.347C181.738 153.221 184.727 143.026 183.366 141.674C171.674 130.052 155.52 137.253 151.862 142.928Z" fill="#1965F2"/>
<path d="M175.063 120.735H158.976L155.193 140.789C155.193 140.789 158.043 146.032 167.02 146.032C175.741 146.032 178.846 140.789 178.846 140.789L175.063 120.735Z" fill="#F2CDB8"/>
<path d="M190.296 105.929C190.296 105.929 192.796 96.637 194.584 88.5371C196.37 80.4372 192.44 76.6256 189.342 75.1957C186.662 60.7258 176.57 53.9143 171.772 57.8081C170.918 58.5025 171.713 62.2106 171.713 62.2106C171.713 62.2106 140.225 50.6539 146.697 66.4989C134.309 73.7658 136.572 79.1261 142.409 82.4611C142.409 82.4611 142.886 94.0162 146.102 105.57L190.296 105.929Z" fill="#070E3F"/>
<path d="M188.577 103.825C188.63 103.164 189.256 88.5479 181.086 85.8434C181.086 85.8434 167.714 77.139 151.382 86.1541C144.351 90.5946 145.192 103.165 145.245 103.826C149.517 128.499 162.362 132.064 166.91 132.064C171.459 132.064 188.163 126.868 188.577 103.825Z" fill="#F2CDB8"/>
<path d="M177.233 127.881C177.279 127.947 177.075 128.187 176.649 128.548C176.222 128.907 175.572 129.389 174.712 129.902C173.85 130.411 172.773 130.954 171.5 131.379C170.863 131.591 170.18 131.775 169.458 131.909C168.71 132.043 167.953 132.117 167.193 132.131C166.998 132.13 166.804 132.139 166.61 132.128L166.036 132.101C165.657 132.064 165.284 132.034 164.92 131.97C164.554 131.921 164.203 131.836 163.857 131.763C163.686 131.717 163.517 131.671 163.351 131.627C163.268 131.604 163.185 131.582 163.103 131.559C163.022 131.533 162.942 131.505 162.861 131.48C161.732 131.114 160.651 130.613 159.642 129.987C159.535 129.922 159.43 129.856 159.33 129.794C159.231 129.725 159.136 129.66 159.042 129.596C158.857 129.466 158.681 129.346 158.522 129.226C158.212 128.978 157.944 128.766 157.74 128.574C157.333 128.187 157.135 127.945 157.185 127.881C157.236 127.816 157.528 127.934 158.006 128.198C158.247 128.329 158.545 128.478 158.88 128.667C159.051 128.755 159.234 128.848 159.429 128.947C159.524 128.997 159.623 129.049 159.725 129.101C159.829 129.15 159.936 129.2 160.044 129.25C160.91 129.664 161.964 130.101 163.17 130.43C163.245 130.452 163.321 130.473 163.397 130.494C163.475 130.513 163.551 130.529 163.63 130.548C163.785 130.583 163.944 130.619 164.102 130.656C164.423 130.711 164.749 130.782 165.086 130.819C165.421 130.87 165.763 130.892 166.112 130.922C166.287 130.928 166.462 130.936 166.639 130.942C166.816 130.951 166.994 130.942 167.174 130.942C167.891 130.93 168.59 130.866 169.26 130.761C169.93 130.653 170.571 130.502 171.176 130.333C172.385 129.992 173.443 129.553 174.322 129.157C175.199 128.757 175.901 128.394 176.396 128.158C176.894 127.924 177.185 127.813 177.233 127.881Z" fill="#DE8175"/>
<path d="M146.383 107.52C139.498 111.304 135.321 95.6312 141.527 93.3941C143.319 92.7485 146.796 92.6556 147.464 96.1931C148.185 100.012 147.891 106.691 146.383 107.52Z" fill="#F2CDB8"/>
<path d="M142.965 96.3284C144.323 97.5253 146.69 101.439 144.765 104.142C144.765 104.142 144.913 102.243 143.984 101.014L141.527 99.671H144.078L142.965 96.3284Z" fill="#070E3F"/>
<path d="M188.844 107.52C195.728 111.304 199.906 95.6312 193.7 93.3941C191.908 92.7485 188.431 92.6556 187.763 96.1931C187.041 100.012 187.336 106.691 188.844 107.52Z" fill="#F2CDB8"/>
<path d="M192.261 96.3281C190.903 97.5251 188.536 101.439 190.461 104.142C190.461 104.142 190.314 102.243 191.242 101.014L193.699 99.6707H191.148L192.261 96.3281Z" fill="#070E3F"/>
<path d="M175.147 104.356C175.156 106.357 176.216 107.976 177.516 107.97C178.817 107.966 179.863 106.338 179.854 104.335C179.845 102.334 178.785 100.715 177.484 100.721C176.184 100.728 175.138 102.355 175.147 104.356ZM181.576 95.3094C181.576 95.3094 181.863 96.8946 181.512 97.3149C181.162 97.7352 179.379 96.9906 177.309 97.3058C175.202 97.6256 173.907 98.5362 173.907 98.5362C173.907 98.5362 172.572 97.9195 173.827 96.5794C175.081 95.2363 181.474 93.8977 181.576 95.3094Z" fill="#070E3F"/>
<path d="M177.747 103.413C177.807 104.087 178.402 104.585 179.075 104.526C179.75 104.466 180.248 103.871 180.188 103.198C180.129 102.523 179.533 102.025 178.86 102.085C178.7 102.098 178.544 102.144 178.401 102.218C178.258 102.292 178.131 102.394 178.028 102.517C177.924 102.641 177.846 102.783 177.798 102.937C177.75 103.091 177.733 103.252 177.747 103.413Z" fill="white"/>
<path d="M160.325 104.356C160.316 106.357 159.256 107.976 157.956 107.97C156.655 107.966 155.609 106.338 155.618 104.335C155.627 102.334 156.687 100.715 157.988 100.721C159.288 100.728 160.334 102.355 160.325 104.356ZM153.897 95.3094C153.897 95.3094 153.611 96.8946 153.961 97.3149C154.312 97.7352 156.095 96.9906 158.164 97.3058C160.272 97.6256 161.566 98.5362 161.566 98.5362C161.566 98.5362 162.902 97.9195 161.647 96.5794C160.391 95.2363 153.998 93.8977 153.897 95.3094Z" fill="#070E3F"/>
<path d="M157.725 103.413C157.666 104.087 157.07 104.585 156.397 104.526C155.723 104.466 155.225 103.871 155.284 103.198C155.343 102.523 155.939 102.025 156.612 102.085C157.285 102.143 157.785 102.738 157.725 103.413Z" fill="white"/>
<path d="M167.397 126.774C167.544 126.278 167.544 125.787 167.375 125.295C167.222 124.851 166.925 124.435 166.551 124.152C165.742 123.539 164.647 123.591 163.833 124.164C163.367 124.491 163.056 124.966 162.913 125.513C162.841 125.787 163.092 126.099 163.362 126.13C163.677 126.165 163.901 125.973 163.979 125.681C164.003 125.589 163.941 125.775 163.989 125.652C164.003 125.617 164.017 125.582 164.032 125.548C164.05 125.508 164.07 125.47 164.09 125.431C164.097 125.417 164.133 125.368 164.091 125.425C164.047 125.487 164.097 125.417 164.107 125.405C164.154 125.339 164.203 125.275 164.257 125.215C164.27 125.201 164.285 125.189 164.295 125.173C164.341 125.117 164.219 125.239 164.276 125.192C164.309 125.164 164.341 125.134 164.375 125.106C164.439 125.055 164.506 125.011 164.574 124.965C164.681 124.895 164.506 124.994 164.595 124.951C164.635 124.933 164.675 124.913 164.714 124.895C164.789 124.863 164.867 124.838 164.944 124.813C165.037 124.782 164.831 124.831 164.967 124.808C165.01 124.8 165.052 124.793 165.096 124.788C165.139 124.784 165.183 124.781 165.226 124.778C165.252 124.776 165.358 124.79 165.287 124.776C165.212 124.761 165.339 124.782 165.366 124.787C165.409 124.793 165.453 124.799 165.495 124.81C165.52 124.814 165.544 124.822 165.569 124.826C165.629 124.838 165.524 124.816 165.526 124.814C165.546 124.808 165.611 124.845 165.631 124.854C165.671 124.87 165.71 124.889 165.75 124.908C165.767 124.918 165.783 124.927 165.798 124.934C165.867 124.971 165.795 124.921 165.776 124.921C165.823 124.919 165.932 125.033 165.969 125.065C165.992 125.085 166.053 125.125 166.065 125.154C166.066 125.157 165.995 125.071 166.033 125.122C166.048 125.141 166.066 125.158 166.082 125.178C166.134 125.24 166.182 125.306 166.228 125.374C166.245 125.4 166.296 125.513 166.269 125.44C166.24 125.364 166.292 125.489 166.301 125.512C166.342 125.603 166.374 125.697 166.403 125.793C166.411 125.819 166.405 125.859 166.405 125.796C166.405 125.72 166.403 125.796 166.408 125.818C166.415 125.866 166.424 125.917 166.429 125.965C166.434 126.008 166.434 126.052 166.437 126.095C166.441 126.144 166.462 126.148 166.44 126.067C166.446 126.087 166.437 126.122 166.435 126.142C166.432 126.185 166.426 126.229 166.418 126.271C166.412 126.303 166.368 126.482 166.409 126.34C166.366 126.483 166.344 126.606 166.402 126.753C166.45 126.876 166.561 127.001 166.688 127.05C166.931 127.147 167.312 127.063 167.397 126.774Z" fill="#EA907F"/>
<path d="M166.003 111.821C165.946 112.335 166.033 112.817 166.285 113.273C166.513 113.684 166.878 114.04 167.297 114.253C168.2 114.713 169.269 114.471 169.971 113.764C170.372 113.361 170.596 112.839 170.64 112.275C170.663 111.993 170.36 111.73 170.09 111.747C169.773 111.767 169.586 111.996 169.562 112.296C169.554 112.391 169.583 112.198 169.556 112.327C169.548 112.363 169.54 112.4 169.531 112.437C169.521 112.479 169.507 112.52 169.495 112.561C169.49 112.577 169.464 112.632 169.493 112.568C169.525 112.498 169.489 112.575 169.482 112.589C169.447 112.662 169.411 112.734 169.368 112.804C169.359 112.819 169.347 112.834 169.338 112.851C169.303 112.915 169.402 112.773 169.355 112.829C169.326 112.863 169.301 112.898 169.272 112.932C169.219 112.994 169.161 113.049 169.102 113.105C169.009 113.192 169.164 113.066 169.083 113.122C169.047 113.148 169.012 113.174 168.975 113.198C168.907 113.242 168.835 113.28 168.764 113.318C168.677 113.364 168.872 113.28 168.742 113.327C168.701 113.341 168.66 113.356 168.619 113.37C168.578 113.382 168.535 113.393 168.493 113.404C168.467 113.41 168.36 113.414 168.433 113.416C168.508 113.417 168.38 113.419 168.354 113.42C168.31 113.422 168.267 113.423 168.223 113.422C168.199 113.42 168.173 113.417 168.148 113.417C168.086 113.416 168.194 113.42 168.193 113.422C168.174 113.431 168.103 113.407 168.081 113.402C168.039 113.393 167.996 113.382 167.955 113.369C167.937 113.362 167.92 113.356 167.902 113.352C167.827 113.329 167.908 113.366 167.926 113.361C167.88 113.37 167.751 113.277 167.71 113.253C167.684 113.238 167.617 113.21 167.6 113.183C167.599 113.181 167.684 113.251 167.638 113.209C167.62 113.192 167.599 113.178 167.58 113.161C167.518 113.11 167.459 113.053 167.402 112.994C167.381 112.971 167.309 112.869 167.349 112.936C167.39 113.006 167.319 112.892 167.305 112.872C167.248 112.788 167.2 112.702 167.154 112.612C167.142 112.587 167.14 112.548 167.153 112.61C167.166 112.685 167.154 112.61 167.146 112.59C167.13 112.543 167.113 112.496 167.099 112.449C167.087 112.408 167.079 112.363 167.069 112.322C167.057 112.275 167.034 112.275 167.07 112.35C167.061 112.332 167.064 112.296 167.061 112.275C167.057 112.233 167.055 112.188 167.055 112.144C167.055 112.112 167.067 111.929 167.052 112.076C167.069 111.926 167.069 111.802 166.988 111.668C166.92 111.555 166.787 111.451 166.655 111.425C166.396 111.372 166.036 111.521 166.003 111.821Z" fill="#070E3F"/>
<path d="M160.541 116.245C160.541 116.245 168.169 119.066 174.502 117.93C174.504 117.93 167.304 130.146 160.541 116.245Z" fill="#E9E9F2"/>
<path d="M177.44 85.1918C169.768 91.8846 146.255 94.7155 141.262 90.0024C136.269 85.2908 159.547 67.3123 180.801 75.7975C197.718 82.5512 189.826 97.085 187.761 96.1942C185.696 95.3018 176.142 91.0166 177.44 85.1918Z" fill="#070E3F"/>
<path d="M36.1777 380.885H311.792V420.948H36.1777V380.885Z" fill="#FFCD5C"/>
<path opacity="0.5" d="M311.792 380.892V420.953H36.1719V410.695C175.443 418.017 246.612 399.26 282.494 380.892H311.792Z" fill="#F4B442"/>
<path d="M296.166 380.886C296.166 381.863 240.175 382.655 171.107 382.655C102.04 382.655 46.0488 381.863 46.0488 380.886C46.0488 379.908 102.04 379.116 171.107 379.116C240.175 379.118 296.166 379.91 296.166 380.886Z" fill="#D89935"/>
<path d="M100.343 407.688C100.343 408.177 100.375 408.58 100.438 408.896C100.501 409.196 100.62 409.433 100.793 409.607C100.983 409.78 101.243 409.907 101.575 409.986C101.907 410.049 102.341 410.088 102.878 410.104V410.602H95.2975V410.104C95.8186 410.057 96.2214 409.994 96.5056 409.915C96.8057 409.836 97.0347 409.701 97.1926 409.512C97.3505 409.322 97.4453 409.062 97.4769 408.73C97.5242 408.383 97.5479 407.925 97.5479 407.356V395.654C97.5479 395.164 97.5242 394.777 97.4769 394.493C97.4295 394.193 97.3268 393.964 97.1689 393.806C97.011 393.632 96.782 393.506 96.4819 393.427C96.1819 393.348 95.7871 393.285 95.2975 393.238V392.693H102.428C103.77 392.693 104.978 392.882 106.052 393.261C107.142 393.64 107.963 394.138 108.516 394.754C109.195 395.559 109.534 396.507 109.534 397.596C109.534 398.497 109.298 399.334 108.824 400.107C108.366 400.865 107.734 401.466 106.929 401.908C106.344 402.224 105.673 402.453 104.915 402.595C104.173 402.737 103.265 402.808 102.191 402.808C101.843 402.808 101.536 402.808 101.267 402.808C101.014 402.792 100.706 402.776 100.343 402.761V407.688ZM100.343 401.647C100.659 401.679 100.92 401.702 101.125 401.718C101.346 401.734 101.591 401.742 101.859 401.742C105.002 401.742 106.573 400.415 106.573 397.762C106.573 396.357 106.139 395.33 105.27 394.683C104.418 394.035 103.067 393.711 101.22 393.711C100.856 393.711 100.62 393.775 100.509 393.901C100.398 394.012 100.343 394.256 100.343 394.635V401.647ZM135.095 393.238C134.731 393.301 134.431 393.372 134.195 393.451C133.973 393.53 133.784 393.632 133.626 393.759C133.468 393.885 133.334 394.059 133.223 394.28C133.113 394.501 132.994 394.785 132.868 395.133C132.378 396.459 131.952 397.604 131.589 398.568C131.241 399.531 130.925 400.407 130.641 401.197C130.357 401.971 130.096 402.69 129.859 403.353C129.638 404.016 129.401 404.711 129.149 405.437C128.896 406.164 128.628 406.969 128.343 407.854C128.059 408.722 127.727 409.741 127.348 410.91H126.946L122.634 399.468L118.441 410.91H118.039L112.827 396.388C112.575 395.741 112.353 395.22 112.164 394.825C111.974 394.43 111.777 394.122 111.572 393.901C111.382 393.664 111.161 393.506 110.908 393.427C110.672 393.332 110.379 393.269 110.032 393.238V392.693H116.665V393.238C115.986 393.269 115.52 393.348 115.267 393.475C115.014 393.585 114.888 393.783 114.888 394.067C114.888 394.225 114.912 394.406 114.959 394.612C115.022 394.817 115.101 395.054 115.196 395.322L119.105 405.508L121.995 397.857L121.095 395.654C120.858 395.117 120.652 394.691 120.479 394.375C120.321 394.043 120.147 393.798 119.958 393.64C119.768 393.467 119.547 393.356 119.294 393.309C119.057 393.261 118.749 393.238 118.37 393.238V392.693H125.572V393.238C124.861 393.238 124.34 393.317 124.008 393.475C123.692 393.632 123.535 393.861 123.535 394.162C123.535 394.304 123.566 394.493 123.629 394.73C123.692 394.967 123.787 395.235 123.914 395.535L124.245 396.365L127.822 405.58L131.186 396.436C131.486 395.614 131.636 394.927 131.636 394.375C131.636 394.012 131.494 393.751 131.21 393.593C130.941 393.419 130.46 393.301 129.765 393.238V392.693H135.095V393.238ZM153.856 410.602H153.453L146.655 395.749V406.622C146.655 407.317 146.686 407.885 146.75 408.327C146.829 408.754 146.963 409.093 147.152 409.346C147.342 409.599 147.602 409.78 147.934 409.891C148.266 410.001 148.692 410.073 149.213 410.104V410.602H142.865V410.104C143.417 410.057 143.86 409.986 144.191 409.891C144.539 409.78 144.799 409.599 144.973 409.346C145.162 409.093 145.289 408.754 145.352 408.327C145.415 407.885 145.447 407.317 145.447 406.622V395.654C145.447 395.164 145.415 394.77 145.352 394.469C145.305 394.169 145.186 393.933 144.997 393.759C144.823 393.585 144.57 393.467 144.239 393.403C143.907 393.325 143.465 393.269 142.912 393.238V392.693H148.266L154.496 406.361L160.513 392.693H165.866V393.238C165.361 393.269 164.958 393.325 164.658 393.403C164.358 393.482 164.121 393.609 163.948 393.783C163.774 393.956 163.655 394.193 163.592 394.493C163.545 394.793 163.521 395.18 163.521 395.654V407.688C163.521 408.162 163.553 408.549 163.616 408.849C163.679 409.149 163.79 409.386 163.948 409.559C164.121 409.733 164.358 409.859 164.658 409.938C164.974 410.017 165.377 410.073 165.866 410.104V410.602H158.286V410.104C158.823 410.073 159.249 410.017 159.565 409.938C159.897 409.859 160.15 409.725 160.323 409.536C160.497 409.33 160.608 409.062 160.655 408.73C160.718 408.383 160.75 407.925 160.75 407.356V395.109L153.856 410.602ZM185.741 410.602H178.848V410.104C179.085 410.104 179.282 410.104 179.44 410.104C179.598 410.088 179.724 410.073 179.819 410.057C179.93 410.025 180.024 410.001 180.103 409.986C180.182 409.954 180.261 409.915 180.34 409.867C180.467 409.788 180.561 409.693 180.625 409.583C180.704 409.457 180.743 409.33 180.743 409.204C180.743 408.762 180.569 408.146 180.222 407.356L179.085 404.774H172.026L170.77 407.925C170.707 408.098 170.652 408.28 170.604 408.47C170.573 408.643 170.557 408.817 170.557 408.991C170.557 409.354 170.699 409.63 170.983 409.82C171.267 410.009 171.741 410.104 172.405 410.104V410.602H167.027V410.104C167.359 410.088 167.643 410.033 167.88 409.938C168.117 409.844 168.354 409.646 168.591 409.346C168.828 409.03 169.08 408.588 169.349 408.019C169.633 407.435 169.988 406.646 170.415 405.651L176.029 392.385H176.55L183.301 407.735C183.522 408.241 183.712 408.643 183.87 408.943C184.044 409.243 184.217 409.48 184.391 409.654C184.565 409.812 184.754 409.922 184.96 409.986C185.181 410.049 185.441 410.088 185.741 410.104V410.602ZM178.729 403.684L175.603 396.222L172.476 403.684H178.729ZM203.745 410.602H199.386L192.943 402.263L191.45 402.334V407.688C191.45 408.162 191.474 408.549 191.521 408.849C191.585 409.149 191.703 409.393 191.877 409.583C192.05 409.757 192.295 409.883 192.611 409.962C192.927 410.025 193.345 410.073 193.867 410.104V410.602H186.381V410.104C186.886 410.057 187.289 409.994 187.589 409.915C187.905 409.836 188.142 409.701 188.3 409.512C188.458 409.322 188.56 409.062 188.608 408.73C188.655 408.383 188.679 407.925 188.679 407.356V395.654C188.679 395.18 188.655 394.801 188.608 394.517C188.56 394.217 188.458 393.98 188.3 393.806C188.142 393.632 187.905 393.506 187.589 393.427C187.289 393.348 186.886 393.285 186.381 393.238V392.693H193.843C195.169 392.693 196.354 392.874 197.396 393.238C198.454 393.585 199.236 394.059 199.741 394.659C200.073 395.022 200.318 395.449 200.476 395.938C200.634 396.412 200.713 396.925 200.713 397.478C200.713 398.71 200.326 399.681 199.552 400.392C198.794 401.102 197.554 401.631 195.833 401.979L201.4 408.849C201.779 409.291 202.134 409.599 202.466 409.772C202.813 409.946 203.239 410.057 203.745 410.104V410.602ZM191.45 401.339C192.082 401.323 192.627 401.3 193.085 401.268C193.559 401.237 193.969 401.189 194.317 401.126C194.68 401.047 195.012 400.952 195.312 400.842C195.612 400.731 195.92 400.589 196.235 400.415C196.725 400.147 197.104 399.752 197.373 399.231C197.641 398.694 197.775 398.086 197.775 397.407C197.775 396.128 197.373 395.196 196.567 394.612C195.777 394.012 194.514 393.711 192.777 393.711C192.24 393.711 191.885 393.783 191.711 393.925C191.537 394.051 191.45 394.304 191.45 394.683V401.339ZM222.791 393.238C222.475 393.253 222.206 393.293 221.985 393.356C221.78 393.403 221.59 393.522 221.417 393.711C221.243 393.885 221.069 394.138 220.896 394.469C220.738 394.785 220.54 395.212 220.303 395.749L214.31 410.91H213.907L207.251 396.057C206.951 395.441 206.69 394.951 206.469 394.588C206.264 394.225 206.058 393.948 205.853 393.759C205.664 393.554 205.45 393.419 205.214 393.356C204.992 393.277 204.716 393.238 204.384 393.238V392.693H211.61V393.238L210.804 393.261C209.967 393.309 209.549 393.593 209.549 394.114C209.549 394.225 209.564 394.351 209.596 394.493C209.628 394.62 209.683 394.793 209.762 395.014C209.841 395.235 209.951 395.512 210.093 395.843C210.236 396.175 210.425 396.594 210.662 397.099L214.736 406.243L218.692 396.341C218.882 395.915 219.016 395.528 219.095 395.18C219.19 394.833 219.237 394.548 219.237 394.327C219.237 394.201 219.198 394.067 219.119 393.925C219.04 393.767 218.937 393.648 218.811 393.569C218.637 393.443 218.448 393.364 218.242 393.332C218.053 393.285 217.729 393.253 217.271 393.238V392.693H222.791V393.238ZM238.402 410.602H223.809V410.104C224.299 410.073 224.694 410.017 224.994 409.938C225.31 409.859 225.546 409.733 225.704 409.559C225.878 409.386 225.996 409.149 226.06 408.849C226.123 408.549 226.154 408.162 226.154 407.688V395.654C226.154 395.18 226.123 394.793 226.06 394.493C226.012 394.193 225.902 393.956 225.728 393.783C225.554 393.609 225.31 393.482 224.994 393.403C224.694 393.325 224.299 393.269 223.809 393.238V392.693H238.165L238.212 396.578H237.572C237.446 395.962 237.304 395.472 237.146 395.109C236.988 394.73 236.759 394.438 236.459 394.233C236.175 394.027 235.788 393.893 235.298 393.83C234.825 393.767 234.209 393.735 233.451 393.735H229.802C229.439 393.735 229.194 393.79 229.068 393.901C228.958 394.012 228.902 394.264 228.902 394.659V400.652H233.048C233.601 400.652 234.051 400.621 234.398 400.558C234.746 400.494 235.022 400.376 235.227 400.202C235.448 400.013 235.614 399.752 235.725 399.42C235.835 399.089 235.938 398.647 236.033 398.094H236.672V404.371H236.033C235.938 403.803 235.835 403.353 235.725 403.021C235.614 402.674 235.456 402.413 235.251 402.239C235.046 402.05 234.769 401.924 234.422 401.86C234.074 401.797 233.616 401.766 233.048 401.766H228.902V408.446C228.902 408.714 228.918 408.912 228.95 409.038C228.981 409.164 229.037 409.259 229.116 409.322C229.242 409.401 229.542 409.472 230.016 409.536C230.505 409.583 231.082 409.607 231.745 409.607H232.503C233.466 409.607 234.272 409.559 234.919 409.465C235.583 409.37 236.143 409.188 236.601 408.92C237.075 408.651 237.486 408.288 237.833 407.83C238.18 407.372 238.52 406.772 238.852 406.03H239.633L238.402 410.602ZM256.168 405.911L254.842 410.602H240.32V410.104C240.81 410.073 241.205 410.017 241.505 409.938C241.821 409.859 242.057 409.733 242.215 409.559C242.389 409.386 242.508 409.149 242.571 408.849C242.634 408.549 242.666 408.162 242.666 407.688V395.654C242.666 395.18 242.634 394.793 242.571 394.493C242.523 394.193 242.413 393.956 242.239 393.783C242.065 393.609 241.821 393.482 241.505 393.403C241.205 393.325 240.81 393.269 240.32 393.238V392.693H247.924V393.238C247.387 393.269 246.953 393.325 246.622 393.403C246.29 393.467 246.037 393.593 245.864 393.783C245.69 393.956 245.571 394.193 245.508 394.493C245.445 394.793 245.413 395.18 245.413 395.654V408.446C245.413 408.683 245.437 408.88 245.484 409.038C245.548 409.18 245.666 409.291 245.84 409.37C246.014 409.449 246.25 409.504 246.55 409.536C246.851 409.551 247.253 409.559 247.759 409.559H249.559C250.712 409.559 251.667 409.425 252.425 409.157C253.199 408.888 253.831 408.477 254.32 407.925C254.51 407.704 254.692 407.427 254.865 407.096C255.055 406.764 255.26 406.369 255.481 405.911H256.168Z" fill="#DB9A17"/>
<path d="M26.6642 112.857C27.0682 111.158 28.4441 109.99 29.737 110.248C31.0298 110.507 31.7496 112.095 31.3456 113.794C31.3329 113.846 27.016 131.926 28.0608 141.973C28.2336 143.626 27.284 145.349 25.9403 145.824C24.5965 146.299 23.3685 145.344 23.1957 143.691C22.0128 132.324 26.6503 112.914 26.6632 112.857" fill="#FFE06B"/>
<path fill-rule="evenodd" clip-rule="evenodd" d="M302.61 0.90625L310.76 11.7567L323.599 7.32664L315.778 18.4125L323.97 29.2344L310.981 25.2324L303.204 36.354L303.003 22.7927L290 18.8477L302.86 14.4675L302.61 0.90625Z" fill="#FFCD5C"/>
<path fill-rule="evenodd" clip-rule="evenodd" d="M116.262 14.8232L118.972 25.6309L130.109 26.3514L120.652 32.2653L123.404 43.0587L114.847 35.9107L105.411 41.8531L109.585 31.5234L101 24.411L112.13 25.1743L116.262 14.8232Z" fill="#FFCD5C"/>
</svg>
