<svg width="24" height="24" viewBox="0 0 24 24" fill="none" xmlns="http://www.w3.org/2000/svg">
<g id="heroicons-mini/check-circle">
<path id="Subtract" fill-rule="evenodd" clip-rule="evenodd" d="M11.9999 21.6C17.3018 21.6 21.5999 17.302 21.5999 12C21.5999 6.69809 17.3018 2.40002 11.9999 2.40002C6.69797 2.40002 2.3999 6.69809 2.3999 12C2.3999 17.302 6.69797 21.6 11.9999 21.6ZM16.6278 9.82938C16.9201 9.42739 16.8312 8.86452 16.4293 8.57216C16.0273 8.27981 15.4644 8.36868 15.172 8.77067L10.9915 14.5189L8.7363 12.2636C8.38483 11.9122 7.81498 11.9122 7.46351 12.2636C7.11203 12.6151 7.11203 13.1849 7.46351 13.5364L10.4635 16.5364C10.6496 16.7225 10.9079 16.8179 11.1703 16.7973C11.4327 16.7767 11.673 16.6423 11.8278 16.4294L16.6278 9.82938Z" fill="#DA1F3D"/>
</g>
</svg>
