<svg width="14" height="14" viewBox="0 0 14 14" fill="none" xmlns="http://www.w3.org/2000/svg">
<circle cx="7" cy="7" r="7" fill="#1B7938"/>
<path d="M9.69805 4.70727L6.19457 9.21113L4 7.5" stroke="white" stroke-width="1.25" stroke-linecap="round" stroke-linejoin="round"/>
<path d="M14 7C14 10.866 10.866 14 7 14C3.13401 14 0 10.866 0 7C0 3.13401 3.13401 0 7 0C10.866 0 14 3.13401 14 7ZM1.19072 7C1.19072 10.2084 3.79162 12.8093 7 12.8093C10.2084 12.8093 12.8093 10.2084 12.8093 7C12.8093 3.79162 10.2084 1.19072 7 1.19072C3.79162 1.19072 1.19072 3.79162 1.19072 7Z" fill="#1B7938"/>
</svg>
