<svg width="14" height="13" viewBox="0 0 14 13" fill="none" xmlns="http://www.w3.org/2000/svg">
<path d="M5.79699 1.97579H2.37057C2.00707 1.97579 1.65846 2.12019 1.40143 2.37722C1.1444 2.63425 1 2.98286 1 3.34636V10.8845C1 11.248 1.1444 11.5966 1.40143 11.8536C1.65846 12.1106 2.00707 12.255 2.37057 12.255H9.90869C10.2722 12.255 10.6208 12.1106 10.8778 11.8536C11.1349 11.5966 11.2793 11.248 11.2793 10.8845V7.45806M10.3103 1.0068C10.4367 0.875894 10.5879 0.771481 10.7551 0.699651C10.9224 0.627821 11.1022 0.590012 11.2842 0.588431C11.4662 0.586849 11.6466 0.621527 11.8151 0.69044C11.9835 0.759354 12.1366 0.861122 12.2652 0.989809C12.3939 1.1185 12.4957 1.27152 12.5646 1.43996C12.6335 1.6084 12.6682 1.78887 12.6666 1.97086C12.665 2.15284 12.6272 2.33268 12.5554 2.4999C12.4836 2.66711 12.3792 2.81835 12.2482 2.94478L6.3644 8.82863H4.42642V6.89064L10.3103 1.0068Z" stroke="#5A4BDA" stroke-width="0.833333" stroke-linecap="round" stroke-linejoin="round"/>
</svg>
