<svg width="18" height="18" viewBox="0 0 18 18" fill="none" xmlns="http://www.w3.org/2000/svg">
<path d="M15 5.85V12.15C15 12.8956 14.3801 13.5 13.6154 13.5H4.38462C3.61991 13.5 3 12.8956 3 12.15V5.85M15 5.85C15 5.10442 14.3801 4.5 13.6154 4.5H4.38462C3.61991 4.5 3 5.10442 3 5.85M15 5.85V5.99563C15 6.46443 14.7506 6.89967 14.3411 7.14537L9.72567 9.9146C9.28065 10.1816 8.71935 10.1816 8.27433 9.9146L3.65894 7.14537C3.24945 6.89967 3 6.46443 3 5.99563V5.85" stroke="#414347" stroke-linecap="round" stroke-linejoin="round"/>
</svg>
