<svg width="12" height="12" viewBox="0 0 12 12" fill="none" xmlns="http://www.w3.org/2000/svg">
<path d="M6 0C2.68661 0 0 2.68661 0 6C0 9.31339 2.68661 12 6 12C9.31339 12 12 9.31339 12 6C12 2.68661 9.31339 0 6 0ZM6 10.9821C3.24911 10.9821 1.01786 8.75089 1.01786 6C1.01786 3.24911 3.24911 1.01786 6 1.01786C8.75089 1.01786 10.9821 3.24911 10.9821 6C10.9821 8.75089 8.75089 10.9821 6 10.9821Z" fill="#3D3D3D"/>
<path d="M5.35715 3.64286C5.35715 3.81335 5.42488 3.97687 5.54544 4.09743C5.66599 4.21799 5.82951 4.28571 6 4.28571C6.1705 4.28571 6.33401 4.21799 6.45457 4.09743C6.57513 3.97687 6.64286 3.81335 6.64286 3.64286C6.64286 3.47236 6.57513 3.30885 6.45457 3.18829C6.33401 3.06773 6.1705 3 6 3C5.82951 3 5.66599 3.06773 5.54544 3.18829C5.42488 3.30885 5.35715 3.47236 5.35715 3.64286ZM6.32143 5.14286H5.67858C5.61965 5.14286 5.57143 5.19107 5.57143 5.25V8.89286C5.57143 8.95179 5.61965 9 5.67858 9H6.32143C6.38036 9 6.42858 8.95179 6.42858 8.89286V5.25C6.42858 5.19107 6.38036 5.14286 6.32143 5.14286Z" fill="#3D3D3D"/>
</svg>
