<svg width="231" height="237" viewBox="0 0 231 237" fill="none" xmlns="http://www.w3.org/2000/svg">
<path d="M223.355 160.065C220.913 157.048 220.034 153.958 219.184 150.191C218.383 146.642 218.676 141.032 216.881 137.824C216.816 137.707 205.388 142.318 203.8 143.168" stroke="#B59D42" stroke-opacity="0.6" stroke-width="4.95" stroke-linecap="round"/>
<path d="M49.238 38.6469C41.7326 46.4274 40.5452 65.7322 42.5615 74.8985C48.1952 100.511 65.3708 119.146 89.8097 121.145C93.1172 121.416 103.716 121.036 107.385 113.017C108.401 108.968 107.314 99.8982 98.2074 99.4555C93.3008 99.217 82.9385 100.589 76.7495 112.58C70.5986 124.498 68.133 140.887 72.4117 153.736C77.5251 169.092 86.1007 180.509 99.4215 190.388C122.136 207.234 152.854 204.124 175.348 188.198C189.05 178.496 203.046 165.308 209.95 149.669" stroke="#B59D42" stroke-opacity="0.6" stroke-width="4.95" stroke-linecap="round" stroke-dasharray="13.89 13.89"/>
</svg>
