<svg width="38" height="40" viewBox="0 0 38 40" fill="none" xmlns="http://www.w3.org/2000/svg">
<path d="M18.7544 39.9997C13.3097 40.0284 8.06976 37.9262 4.15461 34.1425C2.43735 32.4874 1.03029 30.5382 0 28.3872H1.44265C2.38098 30.1867 3.60484 31.8221 5.06659 33.2298C8.7398 36.7706 13.6505 38.7369 18.7524 38.7097C23.8542 38.7369 28.765 36.7706 32.4382 33.2298C33.9014 31.8224 35.1266 30.187 36.0661 28.3872H37.5088C36.4781 30.5383 35.0706 32.4875 33.3529 34.1425C29.438 37.9259 24.1986 40.0281 18.7544 39.9997ZM1.44198 11.6141H0C1.03053 9.46253 2.43806 7.51289 4.15594 5.85754C8.07077 2.07408 13.3102 -0.0280953 18.7544 0.000290745C24.1991 -0.028444 29.439 2.07375 33.3542 5.85754C35.0715 7.51198 36.4788 9.46046 37.5095 11.6108H36.0675C35.1286 9.81116 33.9041 8.17573 32.4415 6.76819C28.7683 3.22741 23.8576 1.2611 18.7557 1.28827C13.6524 1.26095 8.7402 3.2283 5.06659 6.77086C3.60391 8.17841 2.37914 9.81384 1.43998 11.6135L1.44198 11.6141Z" fill="black"/>
<path d="M18.7571 37.4177C16.3459 37.4235 13.9568 36.9586 11.7238 36.0491C9.58921 35.1824 7.64018 33.9151 5.98192 32.3158C4.34069 30.7418 3.02507 28.8603 2.10997 26.7785C1.04476 24.346 0.567693 21.6967 0.717454 19.0453C0.867215 16.394 1.63959 13.8152 2.97196 11.5181C4.44493 8.99269 6.51641 6.86833 9.00387 5.33218V5.49684C9.38787 5.55351 9.75053 5.62151 10.0819 5.69684C10.3955 5.76416 10.6816 5.92419 10.9032 6.15617C11.0059 6.27481 11.076 6.41819 11.1065 6.57216C11.1593 6.78248 11.195 6.99673 11.2132 7.21282C11.2338 7.44615 11.2485 7.69748 11.2565 7.95948C11.2645 8.22147 11.2665 8.48347 11.2665 8.73813V14.1381C11.2665 14.5627 11.2632 14.9834 11.2565 15.3874L11.2532 15.572C11.2472 15.9054 11.2412 16.22 11.2345 16.5054C11.2278 16.8447 11.2245 17.1173 11.2245 17.3167C11.2245 17.5387 11.2172 17.7753 11.2025 18.0207C11.1878 18.266 11.1712 18.4913 11.1492 18.704C11.1313 18.8979 11.0992 19.0901 11.0532 19.2793C11.025 19.4184 10.9667 19.5497 10.8825 19.664C10.6794 19.903 10.4133 20.0804 10.1145 20.176C9.78118 20.2913 9.43829 20.377 9.08987 20.432V20.6453H13.7038C13.8019 20.6674 13.8975 20.6993 13.9891 20.7406C14.1649 20.8202 14.3292 20.9229 14.4778 21.046C14.6014 21.1478 14.7082 21.2684 14.7945 21.4033C14.8751 21.5366 14.9278 21.6333 14.9678 21.7086C15.0558 21.8853 15.1291 22.0419 15.1911 22.1753C15.2531 22.3086 15.3204 22.4719 15.3851 22.6419C15.4498 22.8119 15.5184 22.9986 15.5884 23.1753C15.6584 23.3519 15.7344 23.5532 15.8431 23.8479C16.1689 24.7039 16.4949 25.563 16.8211 26.4252L16.9051 26.6479C17.2064 27.4461 17.5144 28.2636 17.8291 29.1005C18.0704 29.74 18.3184 30.3978 18.5731 31.0738L18.9064 31.9631C19.3197 33.0591 19.7064 34.0851 20.0984 35.1004H20.343L21.239 33.1044C21.4497 32.5231 21.6764 31.8918 21.9524 31.1178C22.175 30.4931 22.415 29.8098 22.6857 29.0298C22.9183 28.3578 23.1657 27.6545 23.419 26.9412C23.681 26.2079 23.9077 25.5646 24.1117 24.9759C24.4043 25.7565 24.685 26.5345 24.947 27.2872C25.209 28.0398 25.4803 28.8205 25.7923 29.7018C26.0823 30.5251 26.3923 31.3958 26.709 32.2891C27.0196 33.1624 27.3663 34.1084 27.7376 35.1004H27.7616C25.005 36.6236 21.9065 37.421 18.7571 37.4177ZM28.0029 34.9651L28.7983 33.1471C29.0576 32.3698 29.3389 31.5438 29.6336 30.6918C29.9282 29.8398 30.2289 28.9672 30.5196 28.1145C30.8042 27.2805 31.0956 26.4405 31.3862 25.6192C31.6769 24.7979 31.9275 24.0599 32.1402 23.4086C32.2735 23.0173 32.4069 22.6853 32.5275 22.4206C32.6286 22.1956 32.7444 21.9776 32.8742 21.7679C32.9599 21.6283 33.055 21.4946 33.1589 21.3679C33.2495 21.2619 33.3049 21.2013 33.3429 21.1639C33.4687 21.0449 33.6092 20.9423 33.7608 20.8586C34.0249 20.7003 34.321 20.6028 34.6275 20.5733V20.37H30.1449V20.5733C30.33 20.5904 30.5136 20.6212 30.6942 20.6653C30.8917 20.7105 31.0833 20.7788 31.2649 20.8686C31.4321 20.9503 31.5837 21.0607 31.7129 21.1946C31.8376 21.3303 31.9037 21.5098 31.8969 21.6939C31.8969 21.8319 31.8829 22.0439 31.8555 22.3253C31.7876 22.7891 31.6785 23.246 31.5295 23.6906C31.3796 24.1819 31.2116 24.7132 31.0309 25.2699L30.8096 25.9505L30.4809 26.9605C30.3116 27.4819 30.1316 28.0272 29.9309 28.6212C29.7422 29.1812 29.5756 29.6638 29.4222 30.0978C29.2689 30.5318 29.1382 30.9091 29.0349 31.2185C28.9316 31.5278 28.8616 31.7251 28.8216 31.8185C28.7327 31.5807 28.5963 31.2082 28.4123 30.7011L28.3629 30.5678C28.1383 29.9498 27.9016 29.2918 27.6596 28.6125C27.4063 27.8985 27.1323 27.1339 26.8449 26.3405C26.5576 25.5472 26.301 24.8206 26.071 24.1506C25.845 23.4926 25.653 22.9166 25.5003 22.4393C25.4017 22.1712 25.3265 21.895 25.2756 21.6139C25.2752 21.5151 25.2981 21.4176 25.3423 21.3292C25.3865 21.2409 25.4509 21.1642 25.5303 21.1053C25.7014 20.9687 25.8943 20.8621 26.101 20.79C26.3053 20.7166 26.517 20.6654 26.7323 20.6373C26.9596 20.6073 27.0949 20.588 27.1703 20.576V20.3726H20.793V20.596C21.0762 20.6032 21.357 20.6481 21.6284 20.7293C21.8359 20.7928 22.0319 20.8892 22.209 21.0146C22.3487 21.1142 22.4721 21.2347 22.575 21.3719C22.6558 21.4813 22.7276 21.597 22.7897 21.7179C22.9763 22.1059 23.155 22.5133 23.323 22.9299C23.483 23.3359 23.6623 23.8059 23.8723 24.3666C23.575 25.2999 23.2723 26.2072 22.9763 27.0665C22.6823 27.9152 22.4077 28.6972 22.161 29.3892C21.9144 30.0812 21.713 30.6458 21.5497 31.1005C21.401 31.5151 21.2897 31.8231 21.2444 31.9465C21.095 31.5398 20.9024 31.0298 20.6537 30.3878C20.3964 29.7212 20.1144 28.9878 19.8697 28.3505C19.5924 27.6272 19.3117 26.8839 19.0344 26.1399C18.7217 25.2999 18.4784 24.6426 18.2704 24.0732C18.0431 23.4532 17.8551 22.9119 17.7097 22.4639C17.6064 22.1912 17.5343 21.9076 17.4951 21.6186C17.4848 21.4171 17.5545 21.2197 17.6891 21.0693C17.817 20.9343 17.9735 20.8295 18.1471 20.7626C18.3116 20.6986 18.4819 20.6508 18.6557 20.62C18.7702 20.5982 18.886 20.5846 19.0024 20.5793V20.376H15.3038C15.0411 20.334 14.7872 20.2486 14.5525 20.1233C14.2902 19.9944 14.063 19.8038 13.8905 19.568C13.7394 19.3241 13.6582 19.0435 13.6558 18.7567C13.6411 18.4293 13.6271 18.0347 13.6125 17.5827C13.6125 17.342 13.6091 17.116 13.6025 16.9107C13.5958 16.7053 13.5918 16.4894 13.5918 16.238V14.2274H14.7445C15.1871 14.2274 15.6431 14.2094 16.0998 14.1734C16.5564 14.1374 17.0224 14.0847 17.4764 14.0141C17.9121 13.9472 18.3406 13.8399 18.7564 13.6934C19.153 13.5453 19.5328 13.3558 19.8897 13.1281C20.2542 12.8978 20.5815 12.6135 20.8604 12.2847C21.1445 11.9459 21.3717 11.5631 21.533 11.1514C21.7085 10.6952 21.7954 10.2096 21.789 9.72078C21.8074 8.93604 21.5921 8.16355 21.1704 7.50148C20.7789 6.8964 20.2437 6.39777 19.6124 6.05017C18.9782 5.69749 18.2824 5.4696 17.5624 5.37885C16.7337 5.28029 15.8996 5.23376 15.0651 5.23951H14.1045C13.7671 5.23951 13.3791 5.24285 12.9198 5.25018C12.5198 5.25751 12.0905 5.26085 11.6532 5.26085C11.2278 5.26085 10.8292 5.26418 10.4685 5.27085C10.1205 5.27818 9.80186 5.28151 9.5192 5.28151H9.08587C11.5743 3.77426 14.3802 2.86885 17.2802 2.63737C20.1803 2.40589 23.0943 2.85475 25.7903 3.9482C27.9249 4.8149 29.8739 6.08212 31.5322 7.68148C33.1732 9.25555 34.4886 11.137 35.4035 13.2187C36.4883 15.696 36.9629 18.3974 36.7874 21.0961C36.6119 23.7948 35.7914 26.4119 34.3948 28.7278C32.8286 31.3138 30.6313 33.4598 28.0089 34.9644L28.0029 34.9651ZM13.5931 13.9287V11.1954C13.5931 10.4901 13.5971 9.78612 13.6038 9.10413C13.6105 8.41014 13.6211 7.79948 13.6358 7.28948C13.6491 6.96949 13.6631 6.71483 13.6778 6.53216C13.6925 6.3495 13.7065 6.21417 13.7211 6.1155C13.7319 6.03257 13.7497 5.95071 13.7745 5.87084C13.7965 5.79706 13.813 5.72174 13.8238 5.64551C13.9234 5.63129 14.0549 5.61351 14.2185 5.59218C14.4489 5.56705 14.6807 5.55637 14.9125 5.56018C15.3133 5.55942 15.7137 5.58794 16.1104 5.64551C16.6689 5.72361 17.2036 5.92255 17.6772 6.22847C18.1509 6.53439 18.5522 6.93993 18.8531 7.41682C19.2758 8.07175 19.4948 8.83736 19.4824 9.61678C19.4914 10.4789 19.2385 11.3235 18.7571 12.0387C18.2513 12.7727 17.5155 13.3174 16.6658 13.5867C16.2041 13.7469 15.7228 13.8438 15.2351 13.8747C14.7298 13.9121 14.1771 13.9287 13.5931 13.9287Z" fill="black"/>
</svg>
