<svg width="38" height="40" viewBox="0 0 38 40" fill="none" xmlns="http://www.w3.org/2000/svg">
<path d="M18.9997 39.9997C13.555 40.0284 8.31503 37.9262 4.39988 34.1425C2.68262 32.4874 1.27556 30.5382 0.24527 28.3872H1.68792C2.62625 30.1867 3.85011 31.8221 5.31186 33.2298C8.98507 36.7706 13.8958 38.7369 18.9977 38.7097C24.0995 38.7369 29.0103 36.7706 32.6835 33.2298C34.1467 31.8224 35.3719 30.187 36.3114 28.3872H37.7541C36.7234 30.5383 35.3159 32.4875 33.5981 34.1425C29.6833 37.9259 24.4439 40.0281 18.9997 39.9997V39.9997ZM1.68725 11.6141H0.24527C1.2758 9.46253 2.68333 7.51289 4.40121 5.85754C8.31604 2.07408 13.5554 -0.0280953 18.9997 0.000290745C24.4444 -0.028444 29.6843 2.07375 33.5995 5.85754C35.3167 7.51198 36.724 9.46046 37.7547 11.6108H36.3127C35.3739 9.81116 34.1493 8.17573 32.6868 6.76819C29.0136 3.22741 24.1028 1.2611 19.001 1.28827C13.8976 1.26095 8.98547 3.2283 5.31186 6.77086C3.84918 8.17841 2.62441 9.81384 1.68525 11.6135L1.68725 11.6141Z" fill="black"/>
<path d="M19.0023 37.4177C16.5912 37.4235 14.2021 36.9586 11.9691 36.0491C9.83448 35.1824 7.88545 33.9151 6.22719 32.3158C4.58596 30.7418 3.27034 28.8603 2.35524 26.7785C1.29003 24.346 0.812962 21.6967 0.962724 19.0453C1.11248 16.394 1.88486 13.8152 3.21723 11.5181C4.6902 8.99269 6.76167 6.86833 9.24914 5.33218V5.49684C9.63314 5.55351 9.9958 5.62151 10.3271 5.69684C10.6408 5.76416 10.9269 5.92419 11.1485 6.15617C11.2512 6.27481 11.3213 6.41819 11.3518 6.57216C11.4046 6.78248 11.4403 6.99673 11.4584 7.21282C11.4791 7.44615 11.4938 7.69748 11.5018 7.95948C11.5098 8.22147 11.5118 8.48347 11.5118 8.73813V14.1381C11.5118 14.5627 11.5084 14.9834 11.5018 15.3874L11.4984 15.572C11.4924 15.9054 11.4864 16.22 11.4798 16.5054C11.4731 16.8447 11.4698 17.1173 11.4698 17.3167C11.4698 17.5387 11.4624 17.7753 11.4478 18.0207C11.4331 18.266 11.4164 18.4913 11.3944 18.704C11.3766 18.8979 11.3445 19.0901 11.2984 19.2793C11.2702 19.4184 11.212 19.5497 11.1278 19.664C10.9246 19.903 10.6586 20.0804 10.3598 20.176C10.0264 20.2913 9.68356 20.377 9.33514 20.432V20.6453H13.9491C14.0472 20.6674 14.1428 20.6993 14.2344 20.7406C14.4101 20.8202 14.5745 20.9229 14.7231 21.046C14.8466 21.1478 14.9535 21.2684 15.0397 21.4033C15.1204 21.5366 15.1731 21.6333 15.2131 21.7086C15.3011 21.8853 15.3744 22.0419 15.4364 22.1753C15.4984 22.3086 15.5657 22.4719 15.6304 22.6419C15.6951 22.8119 15.7637 22.9986 15.8337 23.1753C15.9037 23.3519 15.9797 23.5532 16.0884 23.8479C16.4142 24.7039 16.7401 25.563 17.0664 26.4252L17.1504 26.6479C17.4517 27.4461 17.7597 28.2636 18.0743 29.1005C18.3157 29.74 18.5637 30.3978 18.8183 31.0738L19.1517 31.9631C19.565 33.0591 19.9517 34.0851 20.3437 35.1004H20.5883L21.4843 33.1044C21.695 32.5231 21.9216 31.8918 22.1976 31.1178C22.4203 30.4931 22.6603 29.8098 22.9309 29.0298C23.1636 28.3578 23.4109 27.6545 23.6643 26.9412C23.9263 26.2079 24.1529 25.5646 24.3569 24.9759C24.6496 25.7565 24.9302 26.5345 25.1922 27.2872C25.4542 28.0398 25.7256 28.8205 26.0376 29.7018C26.3276 30.5251 26.6376 31.3958 26.9542 32.2891C27.2649 33.1624 27.6115 34.1084 27.9829 35.1004H28.0069C25.2503 36.6236 22.1517 37.421 19.0023 37.4177V37.4177ZM28.2482 34.9651L29.0435 33.1471C29.3029 32.3698 29.5842 31.5438 29.8788 30.6918C30.1735 29.8398 30.4742 28.9672 30.7648 28.1145C31.0495 27.2805 31.3408 26.4405 31.6315 25.6192C31.9221 24.7979 32.1728 24.0599 32.3855 23.4086C32.5188 23.0173 32.6521 22.6853 32.7728 22.4206C32.8739 22.1956 32.9897 21.9776 33.1195 21.7679C33.2051 21.6283 33.3002 21.4946 33.4041 21.3679C33.4948 21.2619 33.5501 21.2013 33.5881 21.1639C33.714 21.0449 33.8544 20.9423 34.0061 20.8586C34.2702 20.7003 34.5663 20.6028 34.8728 20.5733V20.37H30.3902V20.5733C30.5753 20.5904 30.7589 20.6212 30.9395 20.6653C31.137 20.7105 31.3285 20.7788 31.5102 20.8686C31.6774 20.9503 31.829 21.0607 31.9581 21.1946C32.0828 21.3303 32.1489 21.5098 32.1421 21.6939C32.1421 21.8319 32.1281 22.0439 32.1008 22.3253C32.0328 22.7891 31.9237 23.246 31.7748 23.6906C31.6248 24.1819 31.4568 24.7132 31.2762 25.2699L31.0548 25.9505L30.7262 26.9605C30.5568 27.4819 30.3768 28.0272 30.1762 28.6212C29.9875 29.1812 29.8208 29.6638 29.6675 30.0978C29.5142 30.5318 29.3835 30.9091 29.2802 31.2185C29.1769 31.5278 29.1069 31.7251 29.0669 31.8185C28.978 31.5807 28.8415 31.2082 28.6575 30.7011L28.6082 30.5678C28.3835 29.9498 28.1469 29.2918 27.9049 28.6125C27.6515 27.8985 27.3775 27.1339 27.0902 26.3405C26.8029 25.5472 26.5462 24.8206 26.3162 24.1506C26.0902 23.4926 25.8982 22.9166 25.7456 22.4393C25.6469 22.1712 25.5718 21.895 25.5209 21.6139C25.5205 21.5151 25.5433 21.4176 25.5876 21.3292C25.6318 21.2409 25.6962 21.1642 25.7756 21.1053C25.9466 20.9687 26.1396 20.8621 26.3462 20.79C26.5506 20.7166 26.7622 20.6654 26.9776 20.6373C27.2049 20.6073 27.3402 20.588 27.4155 20.576V20.3726H21.0383V20.596C21.3214 20.6032 21.6023 20.6481 21.8736 20.7293C22.0812 20.7928 22.2772 20.8892 22.4543 21.0146C22.5939 21.1142 22.7174 21.2347 22.8203 21.3719C22.9011 21.4813 22.9729 21.597 23.0349 21.7179C23.2216 22.1059 23.4003 22.5133 23.5683 22.9299C23.7283 23.3359 23.9076 23.8059 24.1176 24.3666C23.8203 25.2999 23.5176 26.2072 23.2216 27.0665C22.9276 27.9152 22.653 28.6972 22.4063 29.3892C22.1596 30.0812 21.9583 30.6458 21.795 31.1005C21.6463 31.5151 21.535 31.8231 21.4896 31.9465C21.3403 31.5398 21.1476 31.0298 20.899 30.3878C20.6416 29.7212 20.3596 28.9878 20.115 28.3505C19.8377 27.6272 19.557 26.8839 19.2797 26.1399C18.967 25.2999 18.7237 24.6426 18.5157 24.0732C18.2883 23.4532 18.1003 22.9119 17.955 22.4639C17.8516 22.1912 17.7796 21.9076 17.7404 21.6186C17.7301 21.4171 17.7998 21.2197 17.9344 21.0693C18.0623 20.9343 18.2188 20.8295 18.3923 20.7626C18.5568 20.6986 18.7272 20.6508 18.901 20.62C19.0155 20.5982 19.1313 20.5846 19.2477 20.5793V20.376H15.5491C15.2863 20.334 15.0324 20.2486 14.7977 20.1233C14.5355 19.9944 14.3083 19.8038 14.1357 19.568C13.9847 19.3241 13.9035 19.0435 13.9011 18.7567C13.8864 18.4293 13.8724 18.0347 13.8577 17.5827C13.8577 17.342 13.8544 17.116 13.8477 16.9107C13.8411 16.7053 13.8371 16.4894 13.8371 16.238V14.2274H14.9897C15.4324 14.2274 15.8884 14.2094 16.345 14.1734C16.8017 14.1374 17.2677 14.0847 17.7217 14.0141C18.1574 13.9472 18.5859 13.8399 19.0017 13.6934C19.3982 13.5453 19.7781 13.3558 20.135 13.1281C20.4994 12.8978 20.8267 12.6135 21.1056 12.2847C21.3898 11.9459 21.617 11.5631 21.7783 11.1514C21.9538 10.6952 22.0407 10.2096 22.0343 9.72078C22.0527 8.93604 21.8373 8.16355 21.4156 7.50148C21.0242 6.8964 20.4889 6.39777 19.8577 6.05017C19.2235 5.69749 18.5276 5.4696 17.8077 5.37885C16.979 5.28029 16.1449 5.23376 15.3104 5.23951H14.3497C14.0124 5.23951 13.6244 5.24285 13.1651 5.25018C12.7651 5.25751 12.3358 5.26085 11.8984 5.26085C11.4731 5.26085 11.0745 5.26418 10.7138 5.27085C10.3658 5.27818 10.0471 5.28151 9.76447 5.28151H9.33114C11.8195 3.77426 14.6255 2.86885 17.5255 2.63737C20.4256 2.40589 23.3396 2.85475 26.0356 3.9482C28.1702 4.8149 30.1192 6.08212 31.7775 7.68148C33.4185 9.25555 34.7339 11.137 35.6488 13.2187C36.7336 15.696 37.2082 18.3974 37.0326 21.0961C36.8571 23.7948 36.0367 26.4119 34.6401 28.7278C33.0738 31.3138 30.8765 33.4598 28.2542 34.9644L28.2482 34.9651ZM13.8384 13.9287V11.1954C13.8384 10.4901 13.8424 9.78612 13.8491 9.10413C13.8557 8.41014 13.8664 7.79948 13.8811 7.28948C13.8944 6.96949 13.9084 6.71483 13.9231 6.53216C13.9377 6.3495 13.9517 6.21417 13.9664 6.1155C13.9771 6.03257 13.995 5.95071 14.0197 5.87084C14.0417 5.79706 14.0582 5.72174 14.0691 5.64551C14.1686 5.63129 14.3002 5.61351 14.4637 5.59218C14.6942 5.56705 14.926 5.55637 15.1577 5.56018C15.5586 5.55942 15.959 5.58794 16.3557 5.64551C16.9141 5.72361 17.4488 5.92255 17.9225 6.22847C18.3962 6.53439 18.7975 6.93993 19.0983 7.41682C19.5211 8.07175 19.7401 8.83736 19.7277 9.61678C19.7367 10.4789 19.4837 11.3235 19.0023 12.0387C18.4966 12.7727 17.7607 13.3174 16.911 13.5867C16.4493 13.7469 15.9681 13.8438 15.4804 13.8747C14.9751 13.9121 14.4224 13.9287 13.8384 13.9287Z" fill="black"/>
</svg>
