<?xml version="1.0" encoding="UTF-8" standalone="no"?>
<svg
   width="221.82001"
   height="379.67422"
   viewBox="0 0 221.82001 379.67422"
   fill="none"
   version="1.1"
   id="svg232"
   sodipodi:docname="Frame 626437.svg"
   inkscape:version="1.1.2 (b8e25be8, 2022-02-05)"
   xmlns:inkscape="http://www.inkscape.org/namespaces/inkscape"
   xmlns:sodipodi="http://sodipodi.sourceforge.net/DTD/sodipodi-0.dtd"
   xmlns="http://www.w3.org/2000/svg"
   xmlns:svg="http://www.w3.org/2000/svg">
  <sodipodi:namedview
     id="namedview234"
     pagecolor="#ffffff"
     bordercolor="#666666"
     borderopacity="1.0"
     inkscape:pageshadow="2"
     inkscape:pageopacity="0.0"
     inkscape:pagecheckerboard="0"
     showgrid="false"
     fit-margin-top="0"
     fit-margin-left="0"
     fit-margin-right="0"
     fit-margin-bottom="0"
     inkscape:zoom="0.79375"
     inkscape:cx="-263.93701"
     inkscape:cy="142.99213"
     inkscape:window-width="1312"
     inkscape:window-height="933"
     inkscape:window-x="0"
     inkscape:window-y="25"
     inkscape:window-maximized="0"
     inkscape:current-layer="svg232" />
  <path
     d="m 110.91,379.67423 c 61.26,0 110.91,-5.863 110.91,-13.094 0,-7.231 -49.65,-13.093 -110.91,-13.093 -61.25,0 -110.91,5.862 -110.91,13.093 0,7.231 49.66,13.094 110.91,13.094 z"
     fill="#dddddd"
     id="path117" />
  <path
     d="m 169.46,2.2759995e-4 h -33.23 c -2.71,0 -5.31,1.07700000005 -7.23,2.99500000005 -1.91,1.918 -2.99,4.518 -2.99,7.2300004 v 28.917 c 0,1.343 0.26,2.674 0.77,3.916 0.52,1.242 1.27,2.37 2.22,3.321 0.95,0.951 2.08,1.705 3.32,2.22 1.24,0.514 2.57,0.779 3.91,0.779 h 9.71 l -2.32,9.126 9.26,-9.126 h 16.64 c 2.72,0 5.32,-1.078 7.24,-2.998 1.92,-1.92 3,-4.524 3,-7.238 v -28.917 c 0,-1.3490004 -0.27,-2.6840004 -0.79,-3.9290004 -0.52,-1.245 -1.27,-2.375 -2.23,-3.326 -0.96,-0.95 -2.09,-1.702 -3.34,-2.211 -1.25,-0.51 -2.59,-0.768 -3.94,-0.75900000005 z"
     fill="#2b91c9"
     id="path119" />
  <path
     opacity="0.7"
     d="m 169.46,2.2759995e-4 h -33.23 c -2.71,0 -5.31,1.07700000005 -7.23,2.99500000005 -1.91,1.918 -2.99,4.518 -2.99,7.2300004 v 28.917 c 0,1.343 0.26,2.674 0.77,3.916 0.52,1.242 1.27,2.37 2.22,3.321 0.95,0.951 2.08,1.705 3.32,2.22 1.24,0.514 2.57,0.779 3.91,0.779 h 9.71 l -2.32,9.126 9.26,-9.126 h 16.64 c 2.72,0 5.32,-1.078 7.24,-2.998 1.92,-1.92 3,-4.524 3,-7.238 v -28.917 c 0,-1.3490004 -0.27,-2.6840004 -0.79,-3.9290004 -0.52,-1.245 -1.27,-2.375 -2.23,-3.326 -0.96,-0.95 -2.09,-1.702 -3.34,-2.211 -1.25,-0.51 -2.59,-0.768 -3.94,-0.75900000005 z"
     fill="#ffffff"
     id="path121" />
  <path
     d="m 152.85,37.465228 c 7.13,0 12.9,-5.774 12.9,-12.897 0,-7.123 -5.77,-12.897 -12.9,-12.897 -7.12,0 -12.89,5.774 -12.89,12.897 0,7.123 5.77,12.897 12.89,12.897 z"
     fill="#ffffff"
     id="path123" />
  <path
     d="m 152.85,8.0732276 c -3.26,0 -6.45,0.968 -9.16,2.7800004 -2.71,1.812 -4.83,4.388 -6.08,7.402 -1.24,3.014 -1.57,6.33 -0.93,9.53 0.63,3.2 2.2,6.138 4.51,8.445 2.31,2.307 5.25,3.878 8.45,4.514 3.2,0.637 6.51,0.31 9.53,-0.938 3.01,-1.249 5.59,-3.363 7.4,-6.075 1.81,-2.713 2.78,-5.902 2.78,-9.164 0,-2.166 -0.43,-4.312 -1.26,-6.314 -0.82,-2.001 -2.04,-3.82 -3.57,-5.352 -1.53,-1.532 -3.35,-2.747 -5.35,-3.5750004 -2,-0.829 -4.15,-1.254 -6.32,-1.253 z m 9.36,11.5670004 -9.93,11.705 c -0.15,0.169 -0.32,0.305 -0.52,0.397 -0.2,0.092 -0.42,0.138 -0.64,0.135 -0.22,0.002 -0.44,-0.045 -0.64,-0.137 -0.2,-0.092 -0.38,-0.227 -0.52,-0.395 l -6.46,-7.622 c -0.14,-0.151 -0.25,-0.328 -0.31,-0.52 -0.07,-0.192 -0.1,-0.395 -0.08,-0.598 0.01,-0.203 0.06,-0.401 0.16,-0.583 0.09,-0.182 0.22,-0.343 0.37,-0.474 0.16,-0.131 0.34,-0.23 0.53,-0.29 0.19,-0.06 0.4,-0.081 0.6,-0.06 0.2,0.02 0.4,0.081 0.58,0.179 0.18,0.098 0.33,0.231 0.46,0.391 l 5.31,6.258 8.78,-10.341 c 0.26,-0.291 0.63,-0.468 1.02,-0.494 0.39,-0.026 0.78,0.101 1.08,0.354 0.3,0.254 0.49,0.614 0.53,1.005 0.04,0.39 -0.08,0.781 -0.32,1.09 z"
     fill="#2b91c9"
     id="path125" />
  <path
     d="m 163.7,178.41523 c 0,0 -20.14,-2.545 -50.65,5.783 0,0 -4.9,-54.525 -4.32,-62.02 0.57,-7.495 47.11,-5.297 47.11,-5.297 0,0 1.15,21.826 4.18,34.989 3.03,13.162 5.25,24.012 3.68,26.545 z"
     fill="#2b91c9"
     id="path127" />
  <path
     opacity="0.2"
     d="m 163.7,178.41523 c 0,0 -20.14,-2.545 -50.65,5.783 0,0 -4.9,-54.525 -4.32,-62.02 0.57,-7.495 47.11,-5.297 47.11,-5.297 0,0 1.15,21.826 4.18,34.989 3.03,13.162 5.25,24.012 3.68,26.545 z"
     fill="#000000"
     id="path129" />
  <path
     d="m 98.34,358.92323 8.21,2.325 1.96,-12.781 1.05,-6.836 -8.21,-2.325 -1.4,9.161 z"
     fill="#f2cdb8"
     id="path131" />
  <path
     d="m 145.55,359.59423 8.47,1.122 0.08,-12.249 0.06,-7.611 -8.48,-1.11 -0.06,8.721 z"
     fill="#f2cdb8"
     id="path133" />
  <path
     opacity="0.2"
     d="m 145.68,339.74623 -0.06,8.721 h 8.48 l 0.06,-7.611 z"
     fill="#000000"
     id="path135" />
  <path
     opacity="0.2"
     d="m 99.95,348.46723 h 8.56 l 1.05,-6.836 -8.21,-2.325 z"
     fill="#000000"
     id="path137" />
  <path
     d="m 61.88,126.65423 -8.15,-2.406 1.49,9.311 c 0,0 7.4,1.7 8.1,-2.151 z"
     fill="#f2cdb8"
     id="path139" />
  <path
     d="m 45.58,126.41123 4.01,7.565 5.63,-0.417 -1.49,-9.311 z"
     fill="#f2cdb8"
     id="path141" />
  <path
     d="m 73.14,129.03723 -13.4,-2.995 -1.21,6.5 12.15,2.961 z"
     fill="#f2cdb8"
     id="path143" />
  <path
     d="m 113.65,123.16123 -0.78,0.937 c -1.69,1.978 -5.79,6.755 -10.05,10.873 -3.47,3.354 -6.94,6.28 -9.26,6.87 -6.56,1.689 -30.39,-5.332 -30.39,-5.332 l 2.46,-9.67 c 0,0 22.21,2.95 23.93,2.95 1.31,0 14.82,-19.571 18.09,-21.179 z"
     fill="#2b91c9"
     id="path145" />
  <path
     opacity="0.2"
     d="m 112.87,124.09823 c -1.69,1.978 -5.79,6.755 -10.05,10.872 0.85,-6.778 3.34,-13 6.61,-16.933 0.31,-0.38 0.66,-0.721 1.04,-1.018 z"
     fill="#000000"
     id="path147" />
  <path
     d="m 98.44,357.63923 9.33,-0.243 c 0.16,-0.005 0.33,0.047 0.46,0.148 0.14,0.101 0.23,0.244 0.28,0.407 l 1.96,7.507 c 0.05,0.18 0.05,0.368 0.02,0.55 -0.04,0.182 -0.11,0.354 -0.22,0.503 -0.11,0.149 -0.26,0.271 -0.42,0.357 -0.17,0.086 -0.35,0.134 -0.53,0.14 -3.37,0 -8.24,0 -12.46,0.081 -4.95,0.139 -8.1,-0.104 -13.88,0 -3.47,0.092 -4.63,-3.401 -3.15,-3.759 6.63,-1.643 10.97,-1.319 16.61,-5.02 0.6,-0.397 1.29,-0.629 2,-0.671 z"
     fill="#263238"
     id="path149" />
  <path
     d="m 97.63,358.84223 c -1.36,0.301 -3.79,0.706 -4.76,-0.093 -0.14,-0.117 -0.26,-0.266 -0.33,-0.435 -0.07,-0.169 -0.1,-0.353 -0.09,-0.536 0,-0.11 0.03,-0.218 0.08,-0.314 0.06,-0.095 0.14,-0.175 0.23,-0.23 1.03,-0.613 4.52,1.041 4.92,1.226 0.04,0.019 0.06,0.048 0.09,0.082 0.02,0.035 0.03,0.075 0.03,0.115 -0.01,0.045 -0.02,0.087 -0.05,0.121 -0.03,0.034 -0.07,0.056 -0.12,0.064 z m -4.62,-1.284 h -0.07 c -0.04,0.022 -0.07,0.054 -0.1,0.093 -0.02,0.039 -0.03,0.082 -0.03,0.127 -0.01,0.119 0.01,0.24 0.06,0.35 0.04,0.111 0.11,0.209 0.21,0.286 0.54,0.451 1.95,0.497 3.82,0.127 -1.35,-0.566 -3.23,-1.226 -3.87,-0.983 z"
     fill="#2b91c9"
     id="path151" />
  <path
     d="M 97.63,358.84223 H 97.5 c -1.06,-0.44 -3.16,-2.221 -3.05,-3.181 0,-0.231 0.19,-0.52 0.74,-0.59 0.21,-0.026 0.42,-0.013 0.61,0.041 0.2,0.054 0.39,0.146 0.55,0.272 1.16,0.867 1.42,3.146 1.45,3.238 0,0.035 -0.01,0.071 -0.02,0.103 -0.01,0.033 -0.04,0.061 -0.06,0.082 z m -2.59,-3.32 c -0.17,0.058 -0.18,0.151 -0.18,0.185 -0.07,0.579 1.36,1.99 2.44,2.591 -0.12,-0.971 -0.55,-1.878 -1.23,-2.591 -0.11,-0.096 -0.24,-0.166 -0.39,-0.206 -0.14,-0.04 -0.29,-0.048 -0.44,-0.025 -0.07,0.006 -0.13,0.022 -0.2,0.046 z"
     fill="#2b91c9"
     id="path153" />
  <path
     d="m 145.89,357.63923 9.32,-0.243 c 0.17,-0.006 0.34,0.046 0.47,0.147 0.14,0.101 0.24,0.245 0.28,0.408 l 1.96,7.507 c 0.05,0.18 0.06,0.369 0.02,0.552 -0.03,0.183 -0.11,0.356 -0.22,0.506 -0.11,0.149 -0.26,0.271 -0.42,0.356 -0.17,0.086 -0.35,0.132 -0.54,0.136 -3.36,0 -8.23,0 -12.47,0.081 -4.94,0.139 -8.09,-0.104 -13.88,0 -3.47,0.093 -4.62,-3.401 -3.14,-3.759 6.62,-1.643 10.95,-1.319 16.6,-5.02 0.6,-0.401 1.3,-0.633 2.02,-0.671 z"
     fill="#263238"
     id="path155" />
  <path
     d="m 145.09,358.84223 c -1.36,0.301 -3.8,0.706 -4.76,-0.093 -0.15,-0.117 -0.26,-0.266 -0.33,-0.435 -0.07,-0.169 -0.1,-0.353 -0.09,-0.536 0,-0.11 0.03,-0.219 0.08,-0.314 0.06,-0.095 0.14,-0.175 0.23,-0.23 1.02,-0.613 4.51,1.041 4.91,1.226 0.03,0.015 0.07,0.043 0.09,0.079 0.02,0.035 0.03,0.077 0.02,0.118 0,0.042 -0.02,0.083 -0.04,0.116 -0.03,0.033 -0.07,0.057 -0.11,0.069 z m -4.63,-1.284 h -0.07 c -0.03,0.022 -0.06,0.054 -0.08,0.093 -0.03,0.039 -0.03,0.083 -0.03,0.127 -0.01,0.12 0.01,0.24 0.05,0.351 0.05,0.111 0.12,0.209 0.22,0.285 0.54,0.451 1.94,0.497 3.82,0.127 -1.37,-0.567 -3.26,-1.226 -3.89,-0.983 z"
     fill="#2b91c9"
     id="path157" />
  <path
     d="m 145.09,358.84223 h -0.15 c -1.04,-0.44 -3.16,-2.221 -3.03,-3.181 0,-0.231 0.17,-0.52 0.73,-0.59 0.2,-0.028 0.41,-0.015 0.61,0.039 0.2,0.054 0.38,0.147 0.55,0.273 0.8,0.902 1.31,2.035 1.44,3.239 0.01,0.035 0,0.072 -0.01,0.105 -0.02,0.032 -0.04,0.06 -0.07,0.08 z m -2.6,-3.32 c -0.16,0.058 -0.18,0.151 -0.18,0.185 -0.08,0.579 1.37,1.99 2.45,2.591 -0.14,-0.969 -0.57,-1.874 -1.23,-2.591 -0.12,-0.095 -0.25,-0.165 -0.39,-0.205 -0.15,-0.04 -0.3,-0.049 -0.44,-0.026 z"
     fill="#2b91c9"
     id="path159" />
  <path
     d="m 163.02,173.44123 c 4.49,19.444 -3.22,172.412 -3.22,172.412 h -14.87 l -6.36,-127.476 -23.42,127.476 -15.91,-1.157 c 10.41,-98.755 19.58,-157.71 19.58,-157.71 v -7.449 z"
     fill="#263238"
     id="path161" />
  <path
     opacity="0.4"
     d="m 99.24,344.69623 15.91,1.157 18.43,-100.352 4.99,-27.124 6.36,127.476 h 14.87 c 0,0 7.71,-152.968 3.22,-172.412 l -44.22,6.096 v 7.449 c 0,0 -9.16,58.955 -19.56,157.71 z"
     fill="#ffffff"
     id="path163" />
  <path
     d="m 155,101.42823 c -0.45,9.296 -0.22,18.613 0.71,27.875 0.62,6.477 1.48,12.596 2.39,18.113 2.14,12.943 4.57,22.648 4.92,26.037 l -44.22,6.095 c -16.12,-45.109 -10.05,-71.319 -10.05,-71.319 3.31,-1.366 6.69,-2.524 10.14,-3.47 0.73,-0.197 1.47,-0.382 2.24,-0.556 6.21,-1.222 12.48,-2.087 18.79,-2.59 1.16,-0.105 2.42,-0.186 3.6,-0.243 6.04,-0.301 11.48,0.058 11.48,0.058 z"
     fill="#263238"
     id="path165" />
  <path
     d="m 131.34,81.128228 c 0.32,6.188 0.98,17.801 6.13,20.751002 0,0 -3.2,6.095 -10.13,6.72 -5.24,0.463 -4.9,-4.708 -4.9,-4.708 3.03,-2.255 2.32,-6.084002 0,-10.410002 z"
     fill="#f2cdb8"
     id="path167" />
  <path
     opacity="0.2"
     d="m 127.71,86.171228 -5.23,7.31 c 0.55,1 1.01,2.045 1.39,3.123 2.43,-0.971 5.21,-4.626 4.81,-7.275 -0.13,-1.104 -0.46,-2.174 -0.97,-3.158 z"
     fill="#000000"
     id="path169" />
  <path
     d="m 108.78,68.671228 c -1,3.215 -0.45,9.808 4.03,7.668 4.47,-2.14 -2.29,-13.186 -4.03,-7.668 z"
     fill="#263238"
     id="path171" />
  <path
     d="m 131.92,73.020228 c 0.49,8.247 1.15,13.047 -2.44,17.72 -5.48,7.021 -16.07,4.407 -19.03,-3.551 -2.66,-7.171 -3.02,-19.455 4.63,-23.619 1.69,-0.922 3.59,-1.399 5.52,-1.386 1.93,0.012 3.82,0.514 5.51,1.458 1.68,0.945 3.09,2.3 4.11,3.94 1.02,1.64 1.6,3.511 1.7,5.438 z"
     fill="#f2cdb8"
     id="path173" />
  <path
     d="m 126.13,68.532228 v -9.253 c 0,0 9.81,-0.729 9.37,4.291 5.44,2.695 2.87,11.15 -4.43,15.291 -4,-3.204 -3.54,-10.907 -3.54,-10.907 -0.43,0.22 -0.91,0.405 -1.4,0.578 z"
     fill="#263238"
     id="path175" />
  <path
     d="m 135.91,79.451228 c -0.19,1.009 -0.58,1.97 -1.15,2.826 -0.56,0.856 -1.29,1.59 -2.15,2.159 -2.31,1.515 -4.31,-0.347 -4.39,-2.949 -0.07,-2.314 1.03,-5.969 3.69,-6.431 0.58,-0.091 1.17,-0.036 1.73,0.16 0.55,0.195 1.05,0.526 1.45,0.961 0.39,0.436 0.68,0.963 0.82,1.534 0.14,0.571 0.14,1.169 0,1.74 z"
     fill="#f2cdb8"
     id="path177" />
  <path
     d="m 119.74,76.698228 c 0.08,0.671 -0.21,1.249 -0.65,1.296 -0.44,0.046 -0.85,-0.451 -0.94,-1.157 -0.08,-0.705 0.21,-1.249 0.64,-1.295 0.43,-0.047 0.87,0.439 0.95,1.156 z"
     fill="#263238"
     id="path179" />
  <path
     d="m 112.17,77.542228 c 0.08,0.671 -0.21,1.249 -0.65,1.296 -0.43,0.046 -0.85,-0.451 -0.93,-1.157 -0.08,-0.705 0.21,-1.249 0.65,-1.295 0.44,-0.047 0.83,0.485 0.93,1.156 z"
     fill="#263238"
     id="path181" />
  <path
     d="m 114.61,77.600228 c -0.58,2.068 -1.45,4.046 -2.58,5.876 0.5,0.256 1.05,0.404 1.61,0.434 0.56,0.03 1.12,-0.059 1.64,-0.261 z"
     fill="#edb89a"
     id="path183" />
  <path
     d="m 119.18,85.801228 c -0.28,0.073 -0.57,0.127 -0.86,0.162 -0.06,0 -0.11,-0.021 -0.14,-0.058 -0.04,-0.036 -0.06,-0.086 -0.06,-0.139 0,-0.052 0.02,-0.102 0.06,-0.139 0.03,-0.037 0.08,-0.057 0.14,-0.057 0.83,-0.076 1.63,-0.345 2.33,-0.787 0.71,-0.442 1.31,-1.044 1.74,-1.758 0.01,-0.023 0.02,-0.044 0.04,-0.062 0.02,-0.017 0.04,-0.031 0.06,-0.04 0.03,-0.008 0.05,-0.012 0.08,-0.01 0.02,10e-4 0.05,0.008 0.07,0.02 0.03,0.011 0.05,0.026 0.06,0.046 0.02,0.019 0.04,0.042 0.04,0.067 0.01,0.025 0.02,0.051 0.01,0.077 0,0.027 0,0.052 -0.02,0.076 -0.37,0.657 -0.89,1.227 -1.5,1.676 -0.61,0.448 -1.31,0.763 -2.05,0.926 z"
     fill="#263238"
     id="path185" />
  <path
     d="m 121.77,74.003228 c -0.07,0.016 -0.14,0.014 -0.21,-0.006 -0.07,-0.02 -0.13,-0.058 -0.18,-0.11 -0.33,-0.367 -0.75,-0.651 -1.21,-0.829 -0.47,-0.179 -0.97,-0.247 -1.46,-0.2 -0.05,0.012 -0.11,0.013 -0.16,0.003 -0.05,-0.009 -0.1,-0.029 -0.14,-0.059 -0.04,-0.029 -0.08,-0.067 -0.11,-0.111 -0.03,-0.044 -0.05,-0.094 -0.05,-0.145 -0.01,-0.051 -0.01,-0.104 0,-0.155 0.01,-0.05 0.03,-0.099 0.06,-0.142 0.02,-0.043 0.06,-0.08 0.11,-0.108 0.04,-0.029 0.09,-0.048 0.14,-0.058 0.62,-0.074 1.26,10e-4 1.85,0.22 0.58,0.22 1.11,0.576 1.54,1.041 0.03,0.035 0.06,0.078 0.09,0.126 0.02,0.048 0.03,0.099 0.03,0.151 0,0.052 -0.01,0.104 -0.03,0.151 -0.03,0.048 -0.06,0.091 -0.09,0.127 -0.05,0.047 -0.11,0.082 -0.18,0.104 z"
     fill="#263238"
     id="path187" />
  <path
     d="m 108.6,75.310228 c -0.08,0.029 -0.16,0.029 -0.23,0 -0.1,-0.034 -0.18,-0.105 -0.23,-0.199 -0.04,-0.093 -0.05,-0.2 -0.02,-0.298 0.2,-0.596 0.53,-1.136 0.97,-1.575 0.45,-0.439 0.99,-0.764 1.59,-0.947 0.1,-0.026 0.21,-0.011 0.3,0.043 0.09,0.053 0.15,0.139 0.18,0.241 0.03,0.101 0.01,0.208 -0.04,0.298 -0.05,0.09 -0.14,0.156 -0.24,0.182 -0.48,0.145 -0.91,0.405 -1.25,0.756 -0.35,0.351 -0.61,0.782 -0.75,1.256 -0.03,0.061 -0.06,0.115 -0.11,0.157 -0.05,0.043 -0.11,0.072 -0.17,0.086 z"
     fill="#263238"
     id="path189" />
  <path
     d="m 130.48,71.956228 c 0,0 -5.78,-2.117 -8.42,-5.471 0,0 -5.25,1.376 -6.32,3.47 -0.49,-0.421 -0.81,-1.008 -0.9,-1.649 -0.08,-0.64 0.08,-1.289 0.45,-1.821 0,0 -3.94,0.833 -4.71,3.47 -0.64,-0.304 -1.17,-0.806 -1.5,-1.43 -0.33,-0.625 -0.46,-1.34 -0.35,-2.04 0,0 -1.75,0.659 -2.32,3.47 0,0 -4.33,-9.045 10,-11.636 -1.09,-0.368 -2.22,-0.56 -3.37,-0.567 0,0 10.01,-4.037 17.93,-0.347 7.92,3.69 6.55,10.838 -0.49,14.551 z"
     fill="#263238"
     id="path191" />
  <path
     d="m 166.43,181.23723 -13.88,1.85 c 0,0 -5.72,-40.008 -8.25,-52.928 v -27.575 l 7.26,-1.908 5.62,1.908 c 1.54,5.548 2.73,11.188 3.55,16.887 0.68,4.326 1.29,8.953 1.84,13.637 0.75,6.385 1.38,12.885 1.91,18.969 0.83,9.82 1.39,18.507 1.69,23.816 0.17,3.331 0.26,5.344 0.26,5.344 z"
     fill="#2b91c9"
     id="path193" />
  <path
     d="m 144.32,130.13623 c 0,0 1.15,-19.467 7.25,-29.507 0,0 -0.15,-2.868002 -1.37,-3.331002 -1.21,-0.463 -5.88,2.313 -5.88,2.313 0,0 -2.91,-1.989 -3.54,-1.064 -0.64,0.926 -2.19,7.079002 3.54,31.589002 z"
     fill="#2b91c9"
     id="path195" />
  <path
     opacity="0.7"
     d="m 144.32,130.13623 c 0,0 1.15,-19.467 7.25,-29.507 0,0 -0.15,-2.868002 -1.37,-3.331002 -1.21,-0.463 -5.88,2.313 -5.88,2.313 0,0 -2.91,-1.989 -3.54,-1.064 -0.64,0.926 -2.19,7.079002 3.54,31.589002 z"
     fill="#ffffff"
     id="path197" />
  <path
     d="m 112.76,186.56923 1.59,1.157 c 0,0 -2.32,-12.897 -1.37,-45.514 0,-1.573 0.11,-3.089 0.16,-4.535 1.16,-27.597 5.46,-32.617 5.79,-32.918 l -4,1.365 -7.26,2.498 c -2.18,23.538 5.09,77.947 5.09,77.947 z"
     fill="#2b91c9"
     id="path199" />
  <path
     d="m 113.39,132.92423 c 0,0 -4,-18.923 -2.81,-25.447 1.19,-6.523 5.46,-3.62 5.46,-3.62 0,0 3.92,-3.169 5.09,0.324 0,0 -5.39,3.794 -7.74,28.743 z"
     fill="#2b91c9"
     id="path201" />
  <path
     opacity="0.7"
     d="m 113.39,132.92423 c 0,0 -4,-18.923 -2.81,-25.447 1.19,-6.523 5.46,-3.62 5.46,-3.62 0,0 3.92,-3.169 5.09,0.324 0,0 -5.39,3.794 -7.74,28.743 z"
     fill="#ffffff"
     id="path203" />
  <path
     opacity="0.2"
     d="m 162.54,133.06223 c -5.92,-3.32 -6.7,-11.983 -6.7,-11.983 0.35,-0.139 2.55,-0.891 4.87,-1.654 0.68,4.326 1.29,8.953 1.83,13.637 z"
     fill="#000000"
     id="path205" />
  <path
     opacity="0.2"
     d="m 133.58,245.50123 4.99,-27.124 -0.96,-14.354 c 0,0 -6.84,24.891 -4.03,41.478 z"
     fill="#000000"
     id="path207" />
  <path
     opacity="0.2"
     d="m 166.14,175.84723 c -3.72,-0.255 -6.94,-0.498 -6.94,-0.498 l -0.7,-15.14 c 1.16,-0.727 2.55,-0.983 3.89,-0.717 0.92,-2.419 1.61,-4.916 2.07,-7.461 0.81,9.82 1.38,18.518 1.68,23.816 z"
     fill="#000000"
     id="path209" />
  <path
     d="m 167.41,152.02023 -7.25,11.648 5.74,3.296 6.81,-10.491 z"
     fill="#f2cdb8"
     id="path211" />
  <path
     d="m 156.87,102.39923 c 4.88,0.532 25.63,29.009 26.54,37.592 0.92,8.582 -12.19,23.399 -12.19,23.399 l -8.74,-5.147 c 0,0 8.88,-13.66 9.34,-17.35 0.47,-3.69 -16.25,-18.599 -16.25,-18.599 -1.26,-3.435 -1.96,-7.052 -2.06,-10.711 -0.23,-6.269 3.36,-9.184 3.36,-9.184 z"
     fill="#2b91c9"
     id="path213" />
  <path
     d="m 158.49,160.22023 c 0,0 7.46,1.597 10.46,6.293 0,0 -3.12,9.773 -5.35,10.838 -2.23,1.064 -7.76,1.064 -7.76,1.064 0,0 -0.36,-10.873 2.65,-18.195 z"
     fill="#2b91c9"
     id="path215" />
  <rect
     x="5.8727021"
     y="133.85065"
     width="8"
     height="2"
     rx="1"
     transform="rotate(-14.8137)"
     fill="#f2cdb8"
     id="rect217" />
  <rect
     x="11.732855"
     y="135.55042"
     width="8"
     height="2"
     rx="1"
     transform="rotate(-14.8137)"
     fill="#f2cdb8"
     id="rect219" />
  <rect
     x="12.250904"
     y="137.50276"
     width="8"
     height="2"
     rx="1"
     transform="rotate(-14.8137)"
     fill="#f2cdb8"
     id="rect221" />
  <rect
     x="12.783015"
     y="139.40195"
     width="8"
     height="2"
     rx="1"
     transform="rotate(-14.8137)"
     fill="#f2cdb8"
     id="rect223" />
  <rect
     x="13.366262"
     y="141.10777"
     width="8"
     height="2"
     rx="1"
     transform="rotate(-14.8137)"
     fill="#f2cdb8"
     id="rect225" />
  <defs
     id="defs230">
    <clipPath
       id="clip0_537_38751">
      <rect
         width="117"
         height="117"
         fill="#ffffff"
         transform="translate(276,209)"
         id="rect227"
         x="0"
         y="0" />
    </clipPath>
  </defs>
</svg>
