<svg width="24" height="24" viewBox="0 0 24 24" fill="none" xmlns="http://www.w3.org/2000/svg">
<path d="M4 7.69231C4 14.4897 9.51034 20 16.3077 20H18.1538C19.1734 20 20 19.1734 20 18.1538V17.0284C20 16.6048 19.7117 16.2356 19.3008 16.1329L15.6715 15.2256C15.3112 15.1355 14.932 15.2701 14.7092 15.5672L13.9131 16.6287C13.6821 16.9367 13.2825 17.073 12.9209 16.9405C10.2075 15.9465 8.05346 13.7925 7.0595 11.0791C6.92705 10.7175 7.06327 10.3179 7.37133 10.0869L8.43276 9.29082C8.72987 9.06798 8.8645 8.68878 8.77443 8.32848L7.86711 4.6992C7.76438 4.28827 7.39516 4 6.97159 4H5.84615C4.82655 4 4 4.82655 4 5.84615V7.69231Z" stroke="#414347" stroke-linecap="round" stroke-linejoin="round"/>
</svg>
