<svg width="15" height="16" viewBox="0 0 15 16" fill="none" xmlns="http://www.w3.org/2000/svg">
<g clip-path="url(#clip0_3182_25751)">
<path d="M3.88945 3.8408C3.92513 4.3701 4.01434 4.8875 4.15707 5.38112L3.44341 6.09477C3.19957 5.38112 3.04495 4.62583 2.99142 3.8408H3.88945ZM9.75335 10.9893C10.2589 11.132 10.7763 11.2212 11.2996 11.2569V12.143C10.5146 12.0895 9.7593 11.9349 9.03969 11.697L9.75335 10.9893ZM4.46037 2.65137H2.37887C2.05177 2.65137 1.78415 2.91899 1.78415 3.24608C1.78415 8.83047 6.30994 13.3563 11.8943 13.3563C12.2214 13.3563 12.489 13.0886 12.489 12.7615V10.686C12.489 10.3589 12.2214 10.0913 11.8943 10.0913C11.1569 10.0913 10.4373 9.97233 9.77119 9.75228C9.71172 9.72849 9.6463 9.72255 9.58683 9.72255C9.4322 9.72255 9.28352 9.78202 9.16458 9.89501L7.8562 11.2034C6.17316 10.341 4.79341 8.96726 3.93702 7.28421L5.2454 5.97583C5.41192 5.80931 5.4595 5.57737 5.39408 5.36922C5.17403 4.70314 5.05509 3.98948 5.05509 3.24608C5.05509 2.91899 4.78747 2.65137 4.46037 2.65137Z" fill="#757575"/>
</g>
<defs>
<clipPath id="clip0_3182_25751">
<rect width="14.2732" height="14.2732" fill="white" transform="translate(0 0.867188)"/>
</clipPath>
</defs>
</svg>
