<svg width="25" height="24" viewBox="0 0 25 24" fill="none" xmlns="http://www.w3.org/2000/svg">
<path fill-rule="evenodd" clip-rule="evenodd" d="M7.625 9.375H17.375C17.582 9.375 17.75 9.207 17.75 9C17.75 8.793 17.582 8.625 17.375 8.625H7.625C7.418 8.625 7.25 8.793 7.25 9C7.25 9.207 7.418 9.375 7.625 9.375ZM7.625 11.625H17.375C17.582 11.625 17.75 11.457 17.75 11.25C17.75 11.043 17.582 10.875 17.375 10.875H7.625C7.418 10.875 7.25 11.043 7.25 11.25C7.25 11.457 7.418 11.625 7.625 11.625ZM7.625 13.875H17.375C17.582 13.875 17.75 13.707 17.75 13.5C17.75 13.293 17.582 13.125 17.375 13.125H7.625C7.418 13.125 7.25 13.293 7.25 13.5C7.25 13.707 7.418 13.875 7.625 13.875ZM7.625 16.125H15.125C15.332 16.125 15.5 15.957 15.5 15.75C15.5 15.543 15.332 15.375 15.125 15.375H7.625C7.418 15.375 7.25 15.543 7.25 15.75C7.25 15.957 7.418 16.125 7.625 16.125ZM7.625 18.375H11.375C11.582 18.375 11.75 18.207 11.75 18C11.75 17.793 11.582 17.625 11.375 17.625H7.625C7.418 17.625 7.25 17.793 7.25 18C7.25 18.207 7.418 18.375 7.625 18.375Z" fill="#C58F27"/>
<path fill-rule="evenodd" clip-rule="evenodd" d="M6.125 5.625H8C8.62138 5.625 9.125 5.12138 9.125 4.5V2.625H16.25C16.457 2.625 16.625 2.457 16.625 2.25C16.625 2.043 16.457 1.875 16.25 1.875H8.75C8.65062 1.875 8.555 1.91438 8.48487 1.98488L5.48488 4.98488C5.41438 5.055 5.375 5.15062 5.375 5.25V21C5.375 21.6214 5.87863 22.125 6.5 22.125H7.25C7.457 22.125 7.625 21.957 7.625 21.75C7.625 21.543 7.457 21.375 7.25 21.375H6.5C6.293 21.375 6.125 21.207 6.125 21V5.625ZM8.375 3.15525L6.65525 4.875H8C8.207 4.875 8.375 4.707 8.375 4.5V3.15525ZM17.375 2.625H18.5C18.707 2.625 18.875 2.793 18.875 3V21C18.875 21.207 18.707 21.375 18.5 21.375H9.5C9.293 21.375 9.125 21.543 9.125 21.75C9.125 21.957 9.293 22.125 9.5 22.125H18.5C19.1214 22.125 19.625 21.6214 19.625 21V3C19.625 2.37863 19.1214 1.875 18.5 1.875H17.375C17.168 1.875 17 2.043 17 2.25C17 2.457 17.168 2.625 17.375 2.625Z" fill="#C58F27"/>
<path fill-rule="evenodd" clip-rule="evenodd" d="M14.375 6.375H15.125V6.75C15.125 6.957 15.293 7.125 15.5 7.125C15.707 7.125 15.875 6.957 15.875 6.75V4.875C15.875 4.75688 15.8195 4.64587 15.725 4.575L14.975 4.0125C14.8415 3.91237 14.6585 3.91237 14.525 4.0125L13.775 4.575C13.6805 4.64587 13.625 4.75688 13.625 4.875V6.75C13.625 6.957 13.793 7.125 14 7.125C14.207 7.125 14.375 6.957 14.375 6.75V6.375ZM15.125 5.625V5.0625L14.75 4.78125L14.375 5.0625V5.625H15.125ZM16.8125 4.3125H16.625C16.418 4.3125 16.25 4.4805 16.25 4.6875C16.25 4.8945 16.418 5.0625 16.625 5.0625H16.8125V5.25C16.8125 5.457 16.9805 5.625 17.1875 5.625C17.3945 5.625 17.5625 5.457 17.5625 5.25V5.0625H17.75C17.957 5.0625 18.125 4.8945 18.125 4.6875C18.125 4.4805 17.957 4.3125 17.75 4.3125H17.5625V4.125C17.5625 3.918 17.3945 3.75 17.1875 3.75C16.9805 3.75 16.8125 3.918 16.8125 4.125V4.3125Z" fill="#C58F27"/>
<path d="M8.375 22.125C8.58211 22.125 8.75 21.9571 8.75 21.75C8.75 21.5429 8.58211 21.375 8.375 21.375C8.16789 21.375 8 21.5429 8 21.75C8 21.9571 8.16789 22.125 8.375 22.125Z" fill="#C58F27"/>
</svg>
