<svg width="11" height="11" viewBox="0 0 11 11" fill="none" xmlns="http://www.w3.org/2000/svg">
<path d="M10.9993 5.49593C10.9952 5.05719 10.8185 4.63772 10.5073 4.32842L6.9297 0.742502C6.77345 0.587181 6.56209 0.5 6.34177 0.5C6.12146 0.5 5.9101 0.587181 5.75385 0.742502C5.67569 0.820027 5.61365 0.912261 5.57131 1.01388C5.52897 1.11551 5.50717 1.22451 5.50717 1.3346C5.50717 1.44468 5.52897 1.55368 5.57131 1.65531C5.61365 1.75693 5.67569 1.84916 5.75385 1.92669L8.49749 4.66199H1.15815C0.93698 4.66199 0.724865 4.74985 0.568473 4.90625C0.41208 5.06264 0.324219 5.27475 0.324219 5.49593C0.324219 5.7171 0.41208 5.92921 0.568473 6.08561C0.724865 6.242 0.93698 6.32986 1.15815 6.32986H8.49749L5.75385 9.0735C5.59682 9.22943 5.50816 9.44135 5.50738 9.66265C5.50659 9.88394 5.59375 10.0965 5.74968 10.2535C5.90561 10.4106 6.11753 10.4992 6.33883 10.5C6.56012 10.5008 6.77266 10.4136 6.9297 10.2577L10.5073 6.67177C10.8205 6.36042 10.9974 5.93756 10.9993 5.49593Z" fill="white"/>
</svg>
