<svg width="120" height="120" viewBox="0 0 120 120" fill="none" xmlns="http://www.w3.org/2000/svg">
<path d="M60.0008 72.1428C62.2612 72.1428 64.4708 71.4725 66.3502 70.2167C68.2296 68.9609 69.6945 67.176 70.5595 65.0877C71.4245 62.9994 71.6508 60.7015 71.2098 58.4846C70.7688 56.2677 69.6804 54.2313 68.0821 52.633C66.4837 51.0347 64.4474 49.9462 62.2304 49.5052C60.0135 49.0643 57.7156 49.2906 55.6273 50.1556C53.539 51.0206 51.7541 52.4854 50.4983 54.3648C49.2425 56.2443 48.5723 58.4539 48.5723 60.7142C48.5757 63.7442 49.7808 66.6492 51.9234 68.7917C54.0659 70.9342 56.9708 72.1394 60.0008 72.1428ZM60.0008 52.1428C61.6961 52.1428 63.3533 52.6455 64.7629 53.5873C66.1724 54.5292 67.2711 55.8679 67.9198 57.4341C68.5686 59.0003 68.7383 60.7237 68.4076 62.3864C68.0768 64.0491 67.2605 65.5764 66.0618 66.7751C64.863 67.9739 63.3357 68.7902 61.673 69.121C60.0103 69.4517 58.2869 69.2819 56.7207 68.6332C55.1545 67.9844 53.8158 66.8858 52.874 65.4763C51.9321 64.0667 51.4294 62.4095 51.4294 60.7142C51.4319 58.4417 52.3357 56.2629 53.9426 54.656C55.5496 53.0491 57.7283 52.1453 60.0008 52.1428Z" fill="#2D4356"/>
<path d="M56.7805 63.7734C56.9994 64.0306 57.3016 64.2029 57.6344 64.2603C57.9672 64.3177 58.3096 64.2566 58.602 64.0877L64.6541 60.5163C64.8157 60.4209 64.957 60.2946 65.0698 60.1446C65.1826 59.9946 65.2648 59.8239 65.3116 59.6421C65.3584 59.4604 65.369 59.2712 65.3427 59.0854C65.3164 58.8996 65.2538 58.7207 65.1584 58.5591C65.063 58.3975 64.9367 58.2563 64.7867 58.1435C64.6367 58.0306 64.466 57.9485 64.2843 57.9016C64.1025 57.8548 63.9134 57.8442 63.7275 57.8705C63.5417 57.8968 63.3629 57.9594 63.2013 58.0548L58.1941 61.0106L57.1663 59.7806C57.0459 59.6367 56.8983 59.5179 56.732 59.431C56.5657 59.3442 56.3839 59.2909 56.1971 59.2743C56.0102 59.2577 55.8219 59.278 55.6429 59.3342C55.4638 59.3904 55.2977 59.4812 55.1538 59.6016C55.0099 59.722 54.8911 59.8696 54.8042 60.0359C54.7174 60.2022 54.6641 60.3839 54.6475 60.5708C54.6309 60.7577 54.6512 60.946 54.7074 61.125C54.7636 61.304 54.8544 61.4702 54.9748 61.6141L56.7805 63.7734ZM47.4891 79.2856H72.5091C72.888 79.2856 73.2514 79.135 73.5193 78.8671C73.7872 78.5992 73.9377 78.2359 73.9377 77.857C73.9377 77.4781 73.7872 77.1147 73.5193 76.8468C73.2514 76.5789 72.888 76.4284 72.5091 76.4284H47.4891C47.1102 76.4284 46.7469 76.5789 46.479 76.8468C46.2111 77.1147 46.0605 77.4781 46.0605 77.857C46.0605 78.2359 46.2111 78.5992 46.479 78.8671C46.7469 79.135 47.1102 79.2856 47.4891 79.2856ZM47.4891 84.9998H56.7948C57.1737 84.9998 57.5371 84.8493 57.805 84.5814C58.0729 84.3135 58.2234 83.9501 58.2234 83.5713C58.2234 83.1924 58.0729 82.829 57.805 82.5611C57.5371 82.2932 57.1737 82.1427 56.7948 82.1427H47.4891C47.1102 82.1427 46.7469 82.2932 46.479 82.5611C46.2111 82.829 46.0605 83.1924 46.0605 83.5713C46.0605 83.9501 46.2111 84.3135 46.479 84.5814C46.7469 84.8493 47.1102 84.9998 47.4891 84.9998Z" fill="#FFCA28"/>
<path d="M81.6468 13.2275C82.0706 13.2275 82.4849 13.1019 82.8373 12.8664C83.1897 12.6309 83.4643 12.2963 83.6265 11.9047C83.7887 11.5132 83.8311 11.0823 83.7484 10.6666C83.6658 10.251 83.4617 9.86914 83.162 9.56945C82.8623 9.26977 82.4805 9.06568 82.0648 8.983C81.6491 8.90032 81.2183 8.94275 80.8267 9.10494C80.4352 9.26713 80.1005 9.54178 79.865 9.89417C79.6296 10.2466 79.5039 10.6609 79.5039 11.0847C79.5045 11.6528 79.7304 12.1975 80.1322 12.5993C80.5339 13.001 81.0786 13.227 81.6468 13.2275ZM81.6468 10.0133C81.8587 10.0133 82.0658 10.0761 82.242 10.1938C82.4182 10.3116 82.5555 10.4789 82.6366 10.6747C82.7177 10.8704 82.7389 11.0859 82.6976 11.2937C82.6563 11.5015 82.5542 11.6925 82.4044 11.8423C82.2545 11.9921 82.0636 12.0942 81.8558 12.1355C81.648 12.1769 81.4325 12.1556 81.2367 12.0746C81.041 11.9935 80.8736 11.8561 80.7559 11.6799C80.6382 11.5037 80.5753 11.2966 80.5753 11.0847C80.5755 10.8006 80.6885 10.5282 80.8894 10.3273C81.0902 10.1264 81.3627 10.0134 81.6468 10.0133ZM113.075 50.3704C112.793 50.3704 112.517 50.4542 112.282 50.6112C112.047 50.7681 111.864 50.9912 111.756 51.2523C111.647 51.5133 111.619 51.8006 111.674 52.0777C111.729 52.3548 111.865 52.6093 112.065 52.8091C112.265 53.0089 112.52 53.145 112.797 53.2001C113.074 53.2552 113.361 53.2269 113.622 53.1188C113.883 53.0107 114.106 52.8276 114.263 52.5926C114.42 52.3577 114.504 52.0815 114.504 51.799C114.504 51.4202 114.353 51.0571 114.085 50.7892C113.817 50.5214 113.454 50.3708 113.075 50.3704ZM113.075 52.5133C112.934 52.5133 112.796 52.4714 112.679 52.3929C112.561 52.3144 112.469 52.2028 112.415 52.0723C112.361 51.9418 112.347 51.7982 112.375 51.6596C112.402 51.5211 112.47 51.3938 112.57 51.2939C112.67 51.194 112.797 51.126 112.936 51.0984C113.075 51.0708 113.218 51.085 113.349 51.1391C113.479 51.1931 113.591 51.2847 113.669 51.4021C113.748 51.5196 113.79 51.6577 113.79 51.799C113.789 51.9883 113.714 52.1699 113.58 52.3038C113.446 52.4377 113.265 52.5131 113.075 52.5133ZM70.2182 29.6561C69.9356 29.6561 69.6595 29.7399 69.4245 29.8969C69.1896 30.0538 69.0065 30.277 68.8984 30.538C68.7902 30.799 68.7619 31.0863 68.8171 31.3634C68.8722 31.6405 69.0083 31.895 69.208 32.0948C69.4078 32.2946 69.6624 32.4307 69.9395 32.4858C70.2166 32.5409 70.5038 32.5126 70.7649 32.4045C71.0259 32.2964 71.249 32.1133 71.406 31.8784C71.563 31.6434 71.6468 31.3672 71.6468 31.0847C71.6464 30.7059 71.4958 30.3428 71.2279 30.0749C70.9601 29.8071 70.597 29.6565 70.2182 29.6561ZM70.2182 31.799C70.0769 31.799 69.9388 31.7571 69.8214 31.6786C69.7039 31.6001 69.6123 31.4885 69.5583 31.358C69.5042 31.2275 69.4901 31.0839 69.5176 30.9453C69.5452 30.8068 69.6132 30.6795 69.7131 30.5796C69.813 30.4797 69.9403 30.4117 70.0788 30.3841C70.2174 30.3566 70.361 30.3707 70.4915 30.4248C70.6221 30.4788 70.7336 30.5704 70.8121 30.6878C70.8906 30.8053 70.9325 30.9434 70.9325 31.0847C70.9323 31.2741 70.857 31.4556 70.7231 31.5895C70.5891 31.7235 70.4076 31.7988 70.2182 31.799ZM113.075 8.22754C112.793 8.22754 112.517 8.31132 112.282 8.4683C112.047 8.62527 111.864 8.84838 111.756 9.10942C111.647 9.37046 111.619 9.6577 111.674 9.93481C111.729 10.2119 111.865 10.4665 112.065 10.6663C112.265 10.8661 112.52 11.0021 112.797 11.0572C113.074 11.1124 113.361 11.0841 113.622 10.9759C113.883 10.8678 114.106 10.6847 114.263 10.4498C114.42 10.2149 114.504 9.93866 114.504 9.65611C114.504 9.27735 114.353 8.9142 114.085 8.64638C113.817 8.37855 113.454 8.22792 113.075 8.22754ZM113.075 10.3704C112.934 10.3704 112.796 10.3285 112.679 10.25C112.561 10.1715 112.469 10.06 112.415 9.92946C112.361 9.79894 112.347 9.65532 112.375 9.51676C112.402 9.3782 112.47 9.25093 112.57 9.15103C112.67 9.05114 112.797 8.98311 112.936 8.95555C113.075 8.92799 113.218 8.94213 113.349 8.9962C113.479 9.05026 113.591 9.14181 113.669 9.25927C113.748 9.37674 113.79 9.51484 113.79 9.65611C113.789 9.84549 113.714 10.0271 113.58 10.161C113.446 10.2949 113.265 10.3702 113.075 10.3704ZM12.361 21.0847C12.361 20.8021 12.2773 20.5259 12.1203 20.291C11.9633 20.0561 11.7402 19.873 11.4792 19.7649C11.2181 19.6567 10.9309 19.6284 10.6538 19.6836C10.3767 19.7387 10.1221 19.8747 9.92233 20.0745C9.72254 20.2743 9.58648 20.5289 9.53136 20.806C9.47623 21.0831 9.50453 21.3703 9.61265 21.6314C9.72078 21.8924 9.90388 22.1155 10.1388 22.2725C10.3737 22.4295 10.6499 22.5133 10.9325 22.5133C11.3112 22.5129 11.6744 22.3622 11.9422 22.0944C12.21 21.8266 12.3607 21.4634 12.361 21.0847ZM10.2182 21.0847C10.2182 20.9434 10.2601 20.8053 10.3386 20.6878C10.4171 20.5704 10.5286 20.4788 10.6591 20.4248C10.7897 20.3707 10.9333 20.3566 11.0718 20.3841C11.2104 20.4117 11.3377 20.4797 11.4376 20.5796C11.5374 20.6795 11.6055 20.8068 11.633 20.9453C11.6606 21.0839 11.6465 21.2275 11.5924 21.358C11.5383 21.4885 11.4468 21.6001 11.3293 21.6786C11.2119 21.7571 11.0738 21.799 10.9325 21.799C10.7431 21.7988 10.5615 21.7235 10.4276 21.5895C10.2937 21.4556 10.2184 21.2741 10.2182 21.0847Z" fill="#2D4356"/>
<path d="M7.77681 50.3786L8.83895 48.9822L8.16824 48.6022L7.48609 50.1665H7.46395L6.77109 48.6129L6.08895 49.0044L7.13967 50.3679V50.3901L5.49609 50.1779V50.9372L7.15038 50.7258V50.7479L6.08895 52.1108L6.72538 52.5136L7.45252 50.9372H7.47467L8.14538 52.5022L8.84967 52.1001L7.77681 50.7586V50.7365L9.46395 50.9372V50.1779L7.77681 50.4008V50.3786ZM37.2004 25.4179L36.589 26.2029L36.9561 26.4351L37.3747 25.5272H37.3868L37.7732 26.4286L38.179 26.1972L37.5611 25.4244V25.4115L38.5325 25.5272V25.0901L37.5611 25.2186V25.2058L38.1725 24.4015L37.7868 24.1822L37.394 25.0836H37.3811L36.9818 24.1886L36.589 24.4144L37.194 25.1994V25.2122L36.2475 25.0901V25.5272L37.2004 25.4051V25.4179ZM110.932 35.1658V34.4208L109.277 34.6401V34.6179L110.318 33.2479L109.66 32.8751L108.992 34.4094H108.97L108.29 32.8858L107.621 33.2694L108.652 34.6072V34.6294L107.04 34.4208V35.1658L108.663 34.9579V34.9801L107.621 36.3172L108.246 36.7122L108.959 35.1658H108.98L109.638 36.7008L110.329 36.3065L109.277 34.9908V34.9686L110.932 35.1658ZM52.6768 7.21793L53.5754 6.03578L53.0075 5.71436L52.4311 7.03793H52.4118L51.8261 5.72364L51.2482 6.05436L52.1375 7.20864V7.22721L50.7475 7.04721V7.69078L52.1468 7.51078V7.53007L51.2482 8.68293L51.7875 9.02364L52.4025 7.69078H52.4211L52.989 9.01436L53.5847 8.67364L52.6768 7.53936V7.52007L54.104 7.69078V7.04721L52.6768 7.2365V7.21793Z" fill="#FFCA28"/>
<path d="M1.42857 104.286C2.21755 104.286 2.85714 103.646 2.85714 102.857C2.85714 102.068 2.21755 101.429 1.42857 101.429C0.639593 101.429 0 102.068 0 102.857C0 103.646 0.639593 104.286 1.42857 104.286Z" fill="#2D4356"/>
<path d="M7.85658 101.429H5.71373C5.33485 101.429 4.97148 101.579 4.70358 101.847C4.43567 102.115 4.28516 102.478 4.28516 102.857C4.28516 103.236 4.43567 103.6 4.70358 103.867C4.97148 104.135 5.33485 104.286 5.71373 104.286H7.85658C8.23547 104.286 8.59883 104.135 8.86674 103.867C9.13465 103.6 9.28516 103.236 9.28516 102.857C9.28516 102.478 9.13465 102.115 8.86674 101.847C8.59883 101.579 8.23547 101.429 7.85658 101.429ZM114.285 101.429H112.142C111.763 101.429 111.4 101.579 111.132 101.847C110.864 102.115 110.714 102.478 110.714 102.857C110.714 103.236 110.864 103.6 111.132 103.867C111.4 104.135 111.763 104.286 112.142 104.286H114.285C114.664 104.286 115.027 104.135 115.295 103.867C115.563 103.6 115.714 103.236 115.714 102.857C115.714 102.478 115.563 102.115 115.295 101.847C115.027 101.579 114.664 101.429 114.285 101.429Z" fill="#2D4356"/>
<path d="M118.571 104.286C119.36 104.286 120 103.646 120 102.857C120 102.068 119.36 101.429 118.571 101.429C117.782 101.429 117.143 102.068 117.143 102.857C117.143 103.646 117.782 104.286 118.571 104.286Z" fill="#2D4356"/>
<path d="M84.3948 107.143H78.4605C78.1007 107.171 77.7647 107.333 77.5196 107.598C77.2745 107.863 77.1384 108.211 77.1384 108.571C77.1384 108.932 77.2745 109.28 77.5196 109.545C77.7647 109.809 78.1007 109.972 78.4605 110H84.3948C84.7546 109.972 85.0906 109.809 85.3357 109.545C85.5808 109.28 85.7169 108.932 85.7169 108.571C85.7169 108.211 85.5808 107.863 85.3357 107.598C85.0906 107.333 84.7546 107.171 84.3948 107.143ZM41.5377 107.143H35.6034C35.2436 107.171 34.9076 107.333 34.6625 107.598C34.4174 107.863 34.2812 108.211 34.2812 108.571C34.2812 108.932 34.4174 109.28 34.6625 109.545C34.9076 109.809 35.2436 109.972 35.6034 110H41.5377C41.8974 109.972 42.2334 109.809 42.4785 109.545C42.7236 109.28 42.8598 108.932 42.8598 108.571C42.8598 108.211 42.7236 107.863 42.4785 107.598C42.2334 107.333 41.8974 107.171 41.5377 107.143ZM74.2848 107.143H45.7134C45.3345 107.143 44.9711 107.293 44.7032 107.561C44.4353 107.829 44.2848 108.193 44.2848 108.571C44.2848 108.95 44.4353 109.314 44.7032 109.582C44.9711 109.849 45.3345 110 45.7134 110H57.0991V111.429H51.4277C51.0488 111.429 50.6854 111.579 50.4175 111.847C50.1496 112.115 49.9991 112.478 49.9991 112.857C49.9991 113.236 50.1496 113.599 50.4175 113.867C50.6854 114.135 51.0488 114.286 51.4277 114.286H69.2848C69.6637 114.286 70.027 114.135 70.2949 113.867C70.5629 113.599 70.7134 113.236 70.7134 112.857C70.7134 112.478 70.5629 112.115 70.2949 111.847C70.027 111.579 69.6637 111.429 69.2848 111.429H62.8991V110H74.2848C74.6637 110 75.027 109.849 75.2949 109.582C75.5629 109.314 75.7134 108.95 75.7134 108.571C75.7134 108.193 75.5629 107.829 75.2949 107.561C75.027 107.293 74.6637 107.143 74.2848 107.143Z" fill="#FFCA28"/>
<path d="M107.658 101.429H68.5714V98.5715H101.179C102.378 98.5734 103.529 98.0995 104.379 97.2539C105.229 96.4083 105.71 95.2599 105.714 94.0607V45.9379C105.709 44.7389 105.229 43.5908 104.379 42.7454C103.528 41.9001 102.378 41.4265 101.179 41.4286H18.8214C17.6224 41.4265 16.4715 41.9001 15.6212 42.7454C14.7709 43.5908 14.2906 44.7389 14.2857 45.9379V94.0607C14.2904 95.2599 14.7706 96.4083 15.6209 97.2539C16.4712 98.0995 17.6222 98.5734 18.8214 98.5715H51.4285V101.429H12.3421C12.1389 101.402 11.9323 101.419 11.7362 101.479C11.5401 101.538 11.359 101.639 11.205 101.774C11.0509 101.91 10.9275 102.076 10.843 102.263C10.7585 102.45 10.7147 102.652 10.7147 102.857C10.7147 103.062 10.7585 103.265 10.843 103.451C10.9275 103.638 11.0509 103.805 11.205 103.94C11.359 104.075 11.5401 104.176 11.7362 104.236C11.9323 104.295 12.1389 104.312 12.3421 104.286H107.657C107.86 104.312 108.067 104.295 108.263 104.236C108.459 104.176 108.64 104.075 108.794 103.94C108.948 103.805 109.072 103.638 109.156 103.451C109.241 103.265 109.284 103.062 109.284 102.857C109.284 102.652 109.241 102.45 109.156 102.263C109.072 102.076 108.948 101.91 108.794 101.774C108.64 101.639 108.459 101.538 108.263 101.479C108.067 101.419 107.861 101.402 107.658 101.429ZM17.1428 45.9379C17.147 45.4964 17.326 45.0746 17.6406 44.7649C17.9553 44.4552 18.3799 44.2829 18.8214 44.2857H101.179C101.62 44.2829 102.045 44.4552 102.359 44.7649C102.674 45.0746 102.853 45.4964 102.857 45.9379V90H17.1428V45.9379ZM18.8214 95.7143C18.3797 95.717 17.955 95.5444 17.6403 95.2344C17.3257 94.9245 17.1468 94.5024 17.1428 94.0607V92.8572H102.857V94.0607C102.853 94.5024 102.674 94.9245 102.36 95.2344C102.045 95.5444 101.62 95.717 101.179 95.7143H18.8214ZM54.2857 101.429V98.5715H65.7142V101.429H54.2857Z" fill="#2D4356"/>
</svg>
