<svg width="124" height="124" viewBox="0 0 124 124" fill="none" xmlns="http://www.w3.org/2000/svg">
<path d="M61.9996 29.1546C62.3942 29.1577 62.7739 29.0039 63.0551 28.727C63.3363 28.4502 63.4961 28.073 63.4992 27.6784V18.8213C63.4929 18.4277 63.3322 18.0524 63.0516 17.7763C62.7711 17.5002 62.3932 17.3455 61.9996 17.3455C61.606 17.3455 61.2282 17.5002 60.9476 17.7763C60.6671 18.0524 60.5063 18.4277 60.5 18.8213V27.6784C60.5032 28.073 60.6629 28.4502 60.9441 28.727C61.2254 29.0039 61.605 29.1577 61.9996 29.1546Z" fill="#2D4356"/>
<path d="M47.7811 30.4088C47.9277 30.7738 48.2086 31.0688 48.5661 31.233C48.9236 31.3971 49.3304 31.4181 49.7028 31.2914C49.8867 31.2272 50.0561 31.1272 50.201 30.997C50.3459 30.8668 50.4635 30.7091 50.5469 30.5331C50.6303 30.3571 50.6779 30.1662 50.687 29.9717C50.696 29.7771 50.6662 29.5826 50.5994 29.3997L47.5248 21.0766C47.3847 20.7065 47.1045 20.4064 46.7449 20.2413C46.3853 20.0761 45.9751 20.0591 45.6031 20.194C45.4191 20.2582 45.2498 20.3582 45.1049 20.4884C44.96 20.6186 44.8424 20.7763 44.759 20.9523C44.6755 21.1283 44.6279 21.3192 44.6189 21.5137C44.6099 21.7083 44.6396 21.9028 44.7064 22.0858L47.7811 30.4088ZM33.296 28.5794C33.0379 28.2786 32.6721 28.0909 32.2772 28.0567C31.8822 28.0225 31.4896 28.1444 31.1836 28.3963C31.033 28.5194 30.9085 28.6713 30.8174 28.8431C30.7263 29.015 30.6705 29.2033 30.6531 29.397C30.6358 29.5907 30.6574 29.7859 30.7165 29.9712C30.7757 30.1564 30.8712 30.328 30.9976 30.4758L36.7756 37.2607C37.0367 37.557 37.4018 37.7413 37.7952 37.7754C38.1886 37.8095 38.58 37.6907 38.8881 37.4437C39.0387 37.3207 39.1632 37.1688 39.2543 36.997C39.3454 36.8251 39.4013 36.6368 39.4186 36.4431C39.4359 36.2494 39.4144 36.0542 39.3552 35.8689C39.2961 35.6837 39.2005 35.5121 39.0741 35.3642L33.296 28.5794ZM21.0286 42.9802L28.8137 47.4088C29.1588 47.6006 29.5646 47.6516 29.9464 47.551C30.3282 47.4504 30.6563 47.2061 30.8621 46.8692C30.9605 46.7013 31.0243 46.5155 31.05 46.3226C31.0757 46.1297 31.0626 45.9337 31.0116 45.7459C30.9605 45.5581 30.8725 45.3824 30.7528 45.2291C30.633 45.0757 30.4839 44.9478 30.314 44.8528L22.5289 40.4242C22.185 40.2275 21.7775 40.1739 21.3943 40.2748C21.0112 40.3757 20.683 40.6232 20.4805 40.9638C20.3822 41.1317 20.3183 41.3175 20.2927 41.5104C20.267 41.7032 20.2801 41.8993 20.3311 42.0871C20.3821 42.2748 20.4701 42.4505 20.5899 42.6039C20.7096 42.7572 20.8588 42.8852 21.0286 42.9802ZM16.0014 58.0906L24.8541 59.6288C25.2425 59.6939 25.6411 59.6054 25.9654 59.382C26.2896 59.1585 26.5143 58.8177 26.5918 58.4315C26.625 58.2393 26.6198 58.0424 26.5765 57.8521C26.5332 57.6619 26.4528 57.4821 26.3397 57.3231C26.2267 57.1641 26.0833 57.0291 25.9178 56.9258C25.7523 56.8224 25.568 56.7529 25.3755 56.7211L16.5228 55.1829C16.1339 55.1136 15.7334 55.2005 15.4081 55.4246C15.0828 55.6487 14.859 55.9921 14.7852 56.3801C14.752 56.5724 14.7572 56.7693 14.8005 56.9595C14.8437 57.1498 14.9242 57.3296 15.0373 57.4885C15.1503 57.6475 15.2937 57.7826 15.4592 57.8859C15.6247 57.9892 15.809 58.0588 16.0014 58.0906ZM26.5917 70.7348C26.5179 70.3468 26.2941 70.0035 25.9688 69.7794C25.6435 69.5553 25.243 69.4684 24.8541 69.5376L16.0014 71.0757C15.809 71.1075 15.6247 71.1771 15.4592 71.2804C15.2937 71.3837 15.1503 71.5188 15.0373 71.6778C14.9242 71.8368 14.8437 72.0166 14.8005 72.2068C14.7572 72.397 14.752 72.5939 14.7852 72.7862C14.8655 73.1708 15.0908 73.5097 15.4144 73.7326C15.7379 73.9555 16.1348 74.0454 16.5228 73.9834L25.3755 72.4453C25.568 72.4135 25.7523 72.3439 25.9178 72.2406C26.0832 72.1373 26.2266 72.0022 26.3397 71.8432C26.4528 71.6842 26.5332 71.5044 26.5765 71.3142C26.6197 71.124 26.6249 70.927 26.5917 70.7348ZM30.8621 82.2971C30.6592 81.957 30.331 81.71 29.948 81.6092C29.5651 81.5083 29.1578 81.5616 28.8137 81.7575L21.0286 86.1861C20.8588 86.2811 20.7096 86.409 20.5899 86.5624C20.4701 86.7158 20.3821 86.8914 20.3311 87.0792C20.2801 87.267 20.267 87.463 20.2926 87.6559C20.3183 87.8488 20.3822 88.0346 20.4805 88.2025C20.6886 88.5369 21.0167 88.779 21.3975 88.8793C21.7783 88.9796 22.1831 88.9305 22.5289 88.7421L30.314 84.3135C30.4838 84.2185 30.633 84.0906 30.7528 83.9372C30.8725 83.7839 30.9605 83.6082 31.0115 83.4204C31.0626 83.2326 31.0756 83.0366 31.05 82.8437C31.0243 82.6508 30.9605 82.465 30.8621 82.2971ZM36.7756 91.9057L30.9976 98.6906C30.8712 98.8384 30.7757 99.01 30.7165 99.1952C30.6574 99.3805 30.6358 99.5757 30.6531 99.7694C30.6705 99.9631 30.7263 100.151 30.8174 100.323C30.9085 100.495 31.033 100.647 31.1836 100.77C31.4922 101.016 31.8833 101.134 32.2763 101.1C32.6693 101.066 33.0343 100.882 33.2961 100.587L39.0741 93.8021C39.2005 93.6543 39.296 93.4827 39.3552 93.2974C39.4143 93.1122 39.4359 92.917 39.4186 92.7233C39.4012 92.5295 39.3454 92.3412 39.2543 92.1694C39.1632 91.9976 39.0387 91.8457 38.8881 91.7226C38.5819 91.4709 38.1894 91.3492 37.7945 91.3834C37.3997 91.4176 37.0339 91.6051 36.7756 91.9057ZM49.7028 97.8749C49.3308 97.7402 48.9206 97.7572 48.561 97.9223C48.2014 98.0875 47.9213 98.3875 47.7811 98.7576L44.7064 107.081C44.6396 107.264 44.6099 107.458 44.6189 107.653C44.6279 107.847 44.6755 108.038 44.759 108.214C44.8424 108.39 44.96 108.548 45.1049 108.678C45.2498 108.808 45.4191 108.908 45.6031 108.972C45.9753 109.104 46.384 109.085 46.7426 108.92C47.1013 108.755 47.3818 108.458 47.5248 108.09L50.5994 99.7667C50.6662 99.5837 50.696 99.3893 50.687 99.1947C50.6779 99.0001 50.6303 98.8092 50.5469 98.6332C50.4635 98.4572 50.3459 98.2995 50.201 98.1693C50.0561 98.0392 49.8867 97.9391 49.7028 97.8749ZM76.2195 98.7576C76.0792 98.3875 75.7991 98.0875 75.4395 97.9224C75.0799 97.7572 74.6698 97.7402 74.2977 97.8749C74.1138 97.9391 73.9445 98.0392 73.7996 98.1693C73.6546 98.2995 73.5371 98.4572 73.4536 98.6332C73.3702 98.8092 73.3226 99.0001 73.3136 99.1947C73.3046 99.3893 73.3343 99.5837 73.4011 99.7667L76.4758 108.09C76.6246 108.453 76.9059 108.746 77.2626 108.91C77.6193 109.074 78.025 109.096 78.3975 108.972C78.5814 108.908 78.7508 108.808 78.8957 108.678C79.0406 108.548 79.1582 108.39 79.2416 108.214C79.325 108.038 79.3726 107.847 79.3816 107.653C79.3907 107.458 79.3609 107.264 79.2941 107.081L76.2195 98.7576ZM87.2249 91.9057C86.9666 91.6051 86.6009 91.4176 86.206 91.3833C85.8111 91.3491 85.4186 91.4709 85.1124 91.7226C84.9618 91.8457 84.8373 91.9976 84.7462 92.1694C84.6551 92.3412 84.5993 92.5295 84.582 92.7232C84.5646 92.9169 84.5862 93.1122 84.6453 93.2974C84.7045 93.4827 84.8001 93.6543 84.9264 93.8021L90.7045 100.587C90.967 100.881 91.3318 101.064 91.7244 101.098C92.117 101.132 92.5078 101.014 92.8169 100.77C92.9675 100.647 93.092 100.495 93.1831 100.323C93.2742 100.151 93.33 99.9631 93.3474 99.7694C93.3647 99.5757 93.3431 99.3805 93.284 99.1952C93.2249 99.01 93.1293 98.8384 93.0029 98.6906L87.2249 91.9057ZM102.972 86.1861L95.1868 81.7576C94.8428 81.5611 94.4354 81.5076 94.0523 81.6085C93.6692 81.7094 93.3411 81.9567 93.1384 82.2971C93.0401 82.465 92.9762 82.6508 92.9505 82.8437C92.9249 83.0366 92.9379 83.2327 92.989 83.4204C93.04 83.6082 93.128 83.7839 93.2478 83.9373C93.3675 84.0906 93.5167 84.2185 93.6865 84.3135L101.472 88.7421C101.817 88.9326 102.222 88.9829 102.604 88.8824C102.985 88.782 103.313 88.5385 103.52 88.2026C103.618 88.0347 103.682 87.8489 103.708 87.656C103.734 87.4631 103.72 87.267 103.669 87.0793C103.618 86.8915 103.53 86.7158 103.411 86.5624C103.291 86.4091 103.142 86.2812 102.972 86.1861ZM107.999 71.0757L99.1464 69.5375C98.7575 69.468 98.3568 69.5548 98.0315 69.7789C97.7061 70.0031 97.4823 70.3466 97.4088 70.7348C97.3756 70.927 97.3808 71.124 97.424 71.3142C97.4673 71.5044 97.5478 71.6842 97.6608 71.8432C97.7739 72.0022 97.9173 72.1373 98.0828 72.2406C98.2483 72.3439 98.4325 72.4135 98.625 72.4452L107.478 73.9834C107.866 74.0485 108.265 73.9599 108.589 73.7365C108.913 73.513 109.138 73.1723 109.215 72.7862C109.249 72.5939 109.243 72.397 109.2 72.2068C109.157 72.0166 109.076 71.8368 108.963 71.6778C108.85 71.5188 108.707 71.3837 108.541 71.2804C108.376 71.1771 108.192 71.1075 107.999 71.0757ZM97.4088 58.4315C97.4927 58.8142 97.7188 59.1507 98.0414 59.3729C98.364 59.5952 98.759 59.6866 99.1464 59.6288L107.999 58.0906C108.192 58.0588 108.376 57.9892 108.541 57.8859C108.707 57.7826 108.85 57.6475 108.963 57.4885C109.076 57.3296 109.157 57.1498 109.2 56.9595C109.243 56.7693 109.249 56.5724 109.215 56.3801C109.141 55.9922 108.917 55.6491 108.592 55.425C108.267 55.2009 107.867 55.1139 107.478 55.1829L98.625 56.7211C98.4325 56.7529 98.2483 56.8224 98.0828 56.9258C97.9173 57.0291 97.7739 57.1641 97.6608 57.3231C97.5478 57.4821 97.4673 57.6619 97.4241 57.8521C97.3808 58.0424 97.3756 58.2393 97.4088 58.4315ZM93.1384 46.8692C93.3447 47.2056 93.6728 47.4495 94.0544 47.55C94.436 47.6505 94.8416 47.5999 95.1869 47.4088L102.972 42.9802C103.142 42.8852 103.291 42.7573 103.411 42.6039C103.53 42.4506 103.618 42.2749 103.669 42.0871C103.72 41.8993 103.734 41.7033 103.708 41.5104C103.682 41.3175 103.618 41.1317 103.52 40.9638C103.317 40.6235 102.989 40.3764 102.606 40.2755C102.223 40.1746 101.816 40.228 101.472 40.4242L93.6865 44.8528C93.5167 44.9478 93.3676 45.0757 93.2478 45.2291C93.128 45.3825 93.04 45.5582 92.989 45.7459C92.938 45.9337 92.9249 46.1298 92.9506 46.3226C92.9762 46.5155 93.0401 46.7013 93.1384 46.8692ZM86.075 37.7886C86.2935 37.7893 86.5095 37.7425 86.7081 37.6513C86.9067 37.5601 87.083 37.4268 87.2249 37.2607L93.003 30.4758C93.1293 30.328 93.2249 30.1564 93.284 29.9711C93.3432 29.7858 93.3647 29.5906 93.3474 29.3969C93.3301 29.2032 93.2742 29.0149 93.1832 28.8431C93.0921 28.6713 92.9676 28.5193 92.817 28.3963C92.5109 28.1443 92.1183 28.0224 91.7234 28.0566C91.3284 28.0908 90.9627 28.2785 90.7045 28.5793L84.9265 35.3642C84.7526 35.5828 84.6435 35.8458 84.6115 36.1233C84.5795 36.4008 84.6259 36.6817 84.7455 36.9342C84.8651 37.1866 85.0531 37.4005 85.288 37.5515C85.523 37.7026 85.7956 37.7847 86.075 37.7886ZM74.2977 31.2914C74.6699 31.4232 75.0788 31.4047 75.4377 31.2399C75.7965 31.0751 76.0769 30.777 76.2195 30.4088L79.2941 22.0857C79.3609 21.9027 79.3907 21.7083 79.3816 21.5137C79.3726 21.3191 79.325 21.1283 79.2416 20.9523C79.1582 20.7762 79.0406 20.6186 78.8957 20.4884C78.7508 20.3582 78.5814 20.2581 78.3975 20.194C78.0255 20.0591 77.6152 20.076 77.2556 20.2412C76.896 20.4064 76.6158 20.7065 76.4758 21.0766L73.4011 29.3996C73.3343 29.5826 73.3046 29.7771 73.3136 29.9716C73.3226 30.1662 73.3702 30.3571 73.4536 30.5331C73.5371 30.7091 73.6547 30.8668 73.7996 30.997C73.9445 31.1272 74.1138 31.2272 74.2977 31.2914ZM47.3032 46.1308C46.5845 46.1297 45.8902 46.3913 45.3508 46.8662C44.8113 47.3411 44.4639 47.9967 44.3739 48.7098C44.0586 51.2774 44.2045 57.4689 52.0183 60.5675C52.4033 62.0191 53.0993 63.3696 54.0581 64.5256C55.0168 65.6815 56.2154 66.6152 57.5708 67.262C57.5255 69.1965 56.9426 71.0803 55.8872 72.7022H51.6669C50.8842 72.7031 50.1338 73.0144 49.5803 73.5679C49.0268 74.1214 48.7155 74.8718 48.7146 75.6546V78.607C47.9318 78.6079 47.1814 78.9192 46.6279 79.4727C46.0744 80.0262 45.7631 80.7766 45.7622 81.5594V84.5117C45.7631 85.2945 46.0744 86.0449 46.6279 86.5984C47.1814 87.1519 47.9318 87.4632 48.7146 87.4641H75.286C76.0687 87.4632 76.8192 87.1519 77.3726 86.5984C77.9261 86.0449 78.2375 85.2945 78.2384 84.5117V81.5594C78.2375 80.7766 77.9261 80.0262 77.3726 79.4727C76.8192 78.9192 76.0687 78.6079 75.286 78.607V75.6546C75.2851 74.8718 74.9738 74.1214 74.4203 73.5679C73.8668 73.0144 73.1164 72.7031 72.3336 72.7022H68.1133C67.0581 71.0802 66.475 69.1966 66.4295 67.2621C67.785 66.6154 68.9836 65.6817 69.9424 64.5257C70.9012 63.3697 71.5973 62.0191 71.9823 60.5675C79.796 57.4689 79.942 51.2774 79.6266 48.7094C79.5365 47.9964 79.1891 47.3409 78.6497 46.8661C78.1103 46.3912 77.416 46.1297 76.6973 46.1308H72.3336V44.6546C72.3327 43.8718 72.0214 43.1214 71.4679 42.5679C70.9144 42.0144 70.164 41.7031 69.3812 41.7022H54.6193C53.8366 41.7031 53.0861 42.0144 52.5327 42.5679C51.9792 43.1214 51.6678 43.8718 51.6669 44.6546V46.1308H47.3032ZM47.3032 49.0832H51.6669V57.151C47.3544 54.8068 47.0448 51.1824 47.3032 49.0832ZM75.2878 84.5117H48.7146V81.5594H75.286L75.2878 84.5117ZM72.3336 78.607H51.6669V75.6546H72.3336V78.607ZM64.7201 72.7022H59.2804C59.9378 71.2643 60.3428 69.7239 60.4777 68.1486C61.4859 68.3153 62.5146 68.3153 63.5229 68.1486C63.6578 69.7239 64.0628 71.2643 64.7201 72.7022ZM76.6966 49.0695C76.9557 51.1807 76.6462 54.8067 72.3336 57.151V49.0797L76.6966 49.0695ZM54.6193 44.6546H69.3812V57.9403C69.3812 59.8979 68.6036 61.7752 67.2194 63.1594C65.8352 64.5436 63.9578 65.3213 62.0003 65.3213C60.0427 65.3213 58.1653 64.5436 56.7812 63.1594C55.397 61.7752 54.6193 59.8979 54.6193 57.9403V44.6546Z" fill="#2D4356"/>
<path d="M60.1747 57.9404L61.9993 56.9314L63.8238 57.9404L63.4754 55.8044L64.9516 54.2913L62.9115 53.9791L61.9993 52.0356L61.087 53.9791L59.0469 54.2913L60.5231 55.8044L60.1747 57.9404Z" fill="#FFCA28"/>
<path d="M50.4144 6.27379C50.8524 6.27379 51.2805 6.14392 51.6446 5.90061C52.0088 5.6573 52.2926 5.31148 52.4602 4.90687C52.6278 4.50226 52.6716 4.05705 52.5862 3.62752C52.5007 3.19799 52.2898 2.80344 51.9802 2.49377C51.6705 2.18409 51.276 1.9732 50.8464 1.88776C50.4169 1.80232 49.9717 1.84617 49.5671 2.01377C49.1625 2.18136 48.8166 2.46517 48.5733 2.82931C48.33 3.19345 48.2001 3.62156 48.2001 4.0595C48.2008 4.64656 48.4343 5.20938 48.8494 5.6245C49.2646 6.03961 49.8274 6.27311 50.4144 6.27379ZM50.4144 2.95236C50.6334 2.95236 50.8475 3.01729 51.0295 3.13895C51.2116 3.2606 51.3535 3.43351 51.4373 3.63582C51.5211 3.83812 51.543 4.06073 51.5003 4.27549C51.4576 4.49026 51.3521 4.68753 51.1973 4.84237C51.0425 4.99721 50.8452 5.10265 50.6304 5.14537C50.4157 5.18809 50.1931 5.16617 49.9907 5.08237C49.7884 4.99857 49.6155 4.85667 49.4939 4.6746C49.3722 4.49253 49.3073 4.27847 49.3073 4.0595C49.3076 3.76596 49.4243 3.48452 49.6319 3.27695C49.8395 3.06939 50.1209 2.95265 50.4144 2.95236ZM119.795 43.1785C119.503 43.1785 119.218 43.2651 118.975 43.4273C118.733 43.5895 118.543 43.8201 118.432 44.0898C118.32 44.3596 118.291 44.6564 118.348 44.9427C118.405 45.2291 118.545 45.4921 118.752 45.6986C118.958 45.905 119.221 46.0456 119.507 46.1026C119.794 46.1595 120.091 46.1303 120.36 46.0186C120.63 45.9068 120.861 45.7176 121.023 45.4749C121.185 45.2321 121.272 44.9467 121.272 44.6547C121.271 44.2634 121.115 43.8881 120.839 43.6114C120.562 43.3347 120.187 43.179 119.795 43.1785ZM119.795 45.3928C119.649 45.3928 119.507 45.3495 119.385 45.2684C119.264 45.1873 119.169 45.0721 119.113 44.9372C119.058 44.8023 119.043 44.6539 119.071 44.5107C119.1 44.3676 119.17 44.236 119.273 44.1328C119.377 44.0296 119.508 43.9593 119.651 43.9308C119.795 43.9023 119.943 43.917 120.078 43.9728C120.213 44.0287 120.328 44.1233 120.409 44.2447C120.49 44.3661 120.533 44.5088 120.533 44.6547C120.533 44.8504 120.455 45.0381 120.317 45.1764C120.179 45.3148 119.991 45.3926 119.795 45.3928ZM69.6049 12.1785C69.3129 12.1785 69.0275 12.2651 68.7848 12.4273C68.542 12.5895 68.3528 12.8201 68.2411 13.0898C68.1294 13.3596 68.1001 13.6564 68.1571 13.9427C68.214 14.2291 68.3546 14.4921 68.5611 14.6986C68.7675 14.905 69.0306 15.0456 69.3169 15.1026C69.6033 15.1595 69.9001 15.1303 70.1698 15.0186C70.4396 14.9068 70.6701 14.7176 70.8323 14.4749C70.9945 14.2321 71.0811 13.9467 71.0811 13.6547C71.0807 13.2634 70.925 12.8882 70.6482 12.6114C70.3715 12.3347 69.9963 12.179 69.6049 12.1785ZM69.6049 14.3928C69.4589 14.3928 69.3162 14.3495 69.1948 14.2684C69.0735 14.1873 68.9789 14.0721 68.923 13.9372C68.8671 13.8023 68.8525 13.6539 68.881 13.5107C68.9095 13.3676 68.9798 13.236 69.083 13.1328C69.1862 13.0296 69.3177 12.9593 69.4609 12.9308C69.6041 12.9023 69.7525 12.917 69.8874 12.9728C70.0222 13.0287 70.1375 13.1233 70.2186 13.2447C70.2997 13.3661 70.343 13.5088 70.343 13.6547C70.3428 13.8504 70.265 14.0381 70.1266 14.1764C69.9882 14.3148 69.8006 14.3926 69.6049 14.3928ZM116.843 7.74998C116.551 7.74998 116.266 7.83655 116.023 7.99876C115.78 8.16097 115.591 8.39152 115.479 8.66125C115.367 8.93099 115.338 9.2278 115.395 9.51416C115.452 9.80051 115.593 10.0635 115.799 10.27C116.006 10.4764 116.269 10.617 116.555 10.674C116.841 10.731 117.138 10.7017 117.408 10.59C117.678 10.4783 117.908 10.2891 118.07 10.0463C118.233 9.80354 118.319 9.51813 118.319 9.22617C118.319 8.83479 118.163 8.45958 117.886 8.18284C117.61 7.90609 117.234 7.75042 116.843 7.74998ZM116.843 9.96426C116.697 9.96426 116.554 9.92097 116.433 9.83987C116.312 9.75877 116.217 9.64349 116.161 9.50862C116.105 9.37375 116.091 9.22535 116.119 9.08217C116.148 8.939 116.218 8.80748 116.321 8.70426C116.424 8.60103 116.556 8.53073 116.699 8.50225C116.842 8.47377 116.991 8.48839 117.125 8.54426C117.26 8.60012 117.376 8.69472 117.457 8.8161C117.538 8.93748 117.581 9.08019 117.581 9.22617C117.581 9.42186 117.503 9.60949 117.365 9.74786C117.226 9.88624 117.039 9.96407 116.843 9.96426ZM8.34301 18.0833C8.34301 17.7913 8.25643 17.5059 8.09422 17.2632C7.93202 17.0204 7.70147 16.8312 7.43173 16.7195C7.16199 16.6078 6.86518 16.5785 6.57883 16.6355C6.29247 16.6924 6.02944 16.833 5.82299 17.0395C5.61654 17.2459 5.47595 17.509 5.41899 17.7953C5.36203 18.0817 5.39126 18.3785 5.50299 18.6482C5.61472 18.918 5.80393 19.1485 6.04669 19.3107C6.28945 19.4729 6.57485 19.5595 6.86682 19.5595C7.25819 19.5591 7.6334 19.4034 7.91015 19.1266C8.18689 18.8499 8.34256 18.4747 8.34301 18.0833ZM6.12872 18.0833C6.12872 17.9373 6.17201 17.7946 6.25311 17.6732C6.33422 17.5519 6.44949 17.4573 6.58436 17.4014C6.71923 17.3455 6.86764 17.3309 7.01081 17.3594C7.15399 17.3879 7.2855 17.4582 7.38873 17.5614C7.49195 17.6646 7.56225 17.7961 7.59073 17.9393C7.61921 18.0825 7.60459 18.2309 7.54873 18.3658C7.49286 18.5006 7.39826 18.6159 7.27688 18.697C7.1555 18.7781 7.0128 18.8214 6.86682 18.8214C6.67112 18.8212 6.4835 18.7434 6.34512 18.605C6.20674 18.4666 6.12892 18.279 6.12872 18.0833Z" fill="#2D4356"/>
<path d="M8.0363 51.3056L9.13385 49.8626L8.44078 49.47L7.7359 51.0864H7.71302L6.99707 49.481L6.29218 49.8855L7.37792 51.2945V51.3174L5.67957 51.0982V51.8835L7.38899 51.6643V51.6872L6.29218 53.0955L6.94983 53.5118L7.70121 51.8835H7.72409L8.41716 53.5L9.14492 53.0844L8.0363 51.6983V51.6754L9.77968 51.8835V51.0982L8.0363 51.3285V51.3056Z" fill="#FFCA28"/>
<path d="M31.0588 20.3472L30.427 21.1584L30.8064 21.3975L31.2389 20.4601H31.2515L31.6508 21.3909L32.07 21.1517L31.4316 20.3531V20.3398L32.4354 20.4601V20.0077L31.4316 20.1406V20.1273L32.0634 19.2962L31.6648 19.0703L31.2589 20.0011H31.2456L30.833 19.0762L30.427 19.3095L31.0522 20.1206V20.1339L30.0742 20.0077V20.4601L31.0588 20.3339V20.3472Z" fill="#FFCA28"/>
<path d="M107.987 29.6813V28.9114L106.277 29.138V29.1152L107.353 27.6995L106.673 27.3142L105.982 28.8996H105.959L105.257 27.3253L104.566 27.7224L105.631 29.1041V29.127L103.965 28.9114V29.6813L105.642 29.4665V29.4894L104.566 30.8711L105.211 31.2793L105.948 29.6813H105.97L106.65 31.2674L107.364 30.86L106.277 29.5004V29.4776L107.987 29.6813Z" fill="#FFCA28"/>
<path d="M90.5991 11.8728L91.5276 10.6512L90.9408 10.3191L90.3452 11.6868H90.3252L89.72 10.3287L89.1229 10.6712L90.0418 11.8632V11.8824L88.6055 11.6971V12.3614L90.0514 12.1754V12.1953L89.1229 13.3874L89.6801 13.7394L90.3156 12.3614H90.3348L90.9216 13.7291L91.5372 13.3778L90.5991 12.2049V12.185L92.0738 12.3614V11.6971L90.5991 11.892V11.8728Z" fill="#FFCA28"/>
<path d="M1.47619 111.821C2.29147 111.821 2.95238 111.16 2.95238 110.345C2.95238 109.53 2.29147 108.869 1.47619 108.869C0.660913 108.869 0 109.53 0 110.345C0 111.16 0.660913 111.821 1.47619 111.821Z" fill="#2D4356"/>
<path d="M8.11821 108.869H5.90392C5.51241 108.869 5.13694 109.025 4.8601 109.302C4.58326 109.578 4.42773 109.954 4.42773 110.345C4.42773 110.737 4.58326 111.112 4.8601 111.389C5.13694 111.666 5.51241 111.822 5.90392 111.822H8.11821C8.50972 111.822 8.8852 111.666 9.16203 111.389C9.43887 111.112 9.5944 110.737 9.5944 110.345C9.5944 109.954 9.43887 109.578 9.16203 109.302C8.8852 109.025 8.50972 108.869 8.11821 108.869ZM118.094 108.869H115.88C115.489 108.869 115.113 109.025 114.836 109.302C114.559 109.578 114.404 109.954 114.404 110.345C114.404 110.737 114.559 111.112 114.836 111.389C115.113 111.666 115.489 111.822 115.88 111.822H118.094C118.486 111.822 118.861 111.666 119.138 111.389C119.415 111.112 119.571 110.737 119.571 110.345C119.571 109.954 119.415 109.578 119.138 109.302C118.861 109.025 118.486 108.869 118.094 108.869Z" fill="#2D4356"/>
<path d="M122.523 111.822C123.338 111.822 123.999 111.161 123.999 110.345C123.999 109.53 123.338 108.869 122.523 108.869C121.708 108.869 121.047 109.53 121.047 110.345C121.047 111.161 121.708 111.822 122.523 111.822Z" fill="#2D4356"/>
<path d="M87.208 114.774H81.0761C80.705 114.804 80.3587 114.972 80.1062 115.246C79.8537 115.519 79.7134 115.878 79.7134 116.25C79.7134 116.622 79.8537 116.981 80.1062 117.255C80.3587 117.528 80.705 117.697 81.0761 117.726H87.208C87.5791 117.697 87.9254 117.528 88.1779 117.255C88.4304 116.981 88.5706 116.622 88.5706 116.25C88.5706 115.878 88.4304 115.519 88.1779 115.246C87.9254 114.972 87.5791 114.804 87.208 114.774ZM42.9223 114.774H36.7904C36.4193 114.804 36.073 114.972 35.8205 115.246C35.568 115.519 35.4277 115.878 35.4277 116.25C35.4277 116.622 35.568 116.981 35.8205 117.255C36.073 117.528 36.4193 117.697 36.7904 117.726H42.9223C43.2934 117.697 43.6397 117.528 43.8922 117.255C44.1447 116.981 44.2849 116.622 44.2849 116.25C44.2849 115.878 44.1447 115.519 43.8922 115.246C43.6397 114.972 43.2934 114.804 42.9223 114.774ZM76.7611 114.774H47.2373C46.8458 114.774 46.4703 114.929 46.1935 115.206C45.9166 115.483 45.7611 115.859 45.7611 116.25C45.7611 116.642 45.9166 117.017 46.1935 117.294C46.4703 117.571 46.8458 117.726 47.2373 117.726H59.0025V119.202H53.142C52.7505 119.202 52.3751 119.358 52.0982 119.635C51.8214 119.912 51.6658 120.287 51.6658 120.679C51.6658 121.07 51.8214 121.446 52.0982 121.723C52.3751 121.999 52.7505 122.155 53.142 122.155H71.5944C71.9859 122.155 72.3614 121.999 72.6382 121.723C72.9151 121.446 73.0706 121.07 73.0706 120.679C73.0706 120.287 72.9151 119.912 72.6382 119.635C72.3614 119.358 71.9859 119.202 71.5944 119.202H64.9958V117.726H76.7611C77.1526 117.726 77.5281 117.571 77.8049 117.294C78.0818 117.017 78.2373 116.642 78.2373 116.25C78.2373 115.859 78.0818 115.483 77.8049 115.206C77.5281 114.929 77.1526 114.774 76.7611 114.774Z" fill="#FFCA28"/>
<path d="M111.245 108.869H63.4982V101.488C63.4919 101.094 63.3312 100.719 63.0506 100.443C62.7701 100.167 62.3922 100.012 61.9986 100.012C61.605 100.012 61.2272 100.167 60.9466 100.443C60.6661 100.719 60.5053 101.094 60.499 101.488V108.869H12.7519C12.5419 108.842 12.3285 108.859 12.1259 108.921C11.9232 108.982 11.7361 109.087 11.5769 109.226C11.4177 109.366 11.2902 109.538 11.2029 109.731C11.1155 109.924 11.0703 110.133 11.0703 110.345C11.0703 110.557 11.1155 110.766 11.2029 110.959C11.2902 111.152 11.4177 111.324 11.5769 111.464C11.7361 111.604 11.9232 111.708 12.1259 111.769C12.3285 111.831 12.5419 111.849 12.7519 111.821H111.245C111.455 111.849 111.669 111.831 111.871 111.769C112.074 111.708 112.261 111.604 112.42 111.464C112.579 111.324 112.707 111.152 112.794 110.959C112.882 110.766 112.927 110.557 112.927 110.345C112.927 110.133 112.882 109.924 112.794 109.731C112.707 109.538 112.579 109.366 112.42 109.226C112.261 109.087 112.074 108.982 111.871 108.921C111.669 108.859 111.455 108.842 111.245 108.869Z" fill="#2D4356"/>
</svg>
