<svg width="32" height="32" viewBox="0 0 32 32" fill="none" xmlns="http://www.w3.org/2000/svg">
<rect width="32" height="32" rx="4" fill="white"/>
<rect width="32" height="32" rx="4" fill="#D2CCFF" fill-opacity="0.5"/>
<path d="M19.75 10C19.75 12.0711 18.0711 13.75 16 13.75C13.9289 13.75 12.25 12.0711 12.25 10C12.25 7.92893 13.9289 6.25 16 6.25C18.0711 6.25 19.75 7.92893 19.75 10Z" stroke="#5A4BDA" stroke-width="1.5" stroke-linecap="round" stroke-linejoin="round"/>
<path d="M8.50113 24.1182C8.57143 20.0369 11.9019 16.75 16 16.75C20.0982 16.75 23.4287 20.0371 23.4989 24.1185C21.2161 25.166 18.6764 25.75 16.0003 25.75C13.324 25.75 10.7841 25.1659 8.50113 24.1182Z" stroke="#5A4BDA" stroke-width="1.5" stroke-linecap="round" stroke-linejoin="round"/>
</svg>
