<svg width="32" height="32" viewBox="0 0 32 32" fill="none" xmlns="http://www.w3.org/2000/svg">
<rect width="32" height="32" rx="4" fill="white"/>
<rect width="32" height="32" rx="4" fill="#D2CCFF"/>
<path d="M23.5 18.25V15.625C23.5 13.761 21.989 12.25 20.125 12.25H18.625C18.0037 12.25 17.5 11.7463 17.5 11.125V9.625C17.5 7.76104 15.989 6.25 14.125 6.25H12.25M19 18.25L16 15.25M16 15.25L13 18.25M16 15.25L16 21.25M14.5 6.25H9.625C9.00368 6.25 8.5 6.75368 8.5 7.375V24.625C8.5 25.2463 9.00368 25.75 9.625 25.75H22.375C22.9963 25.75 23.5 25.2463 23.5 24.625V15.25C23.5 10.2794 19.4706 6.25 14.5 6.25Z" stroke="#5A4BDA" stroke-width="1.5" stroke-linecap="round" stroke-linejoin="round"/>
</svg>
