<svg width="32" height="32" viewBox="0 0 32 32" fill="none" xmlns="http://www.w3.org/2000/svg">
<rect width="32" height="32" rx="4" fill="white"/>
<rect width="32" height="32" rx="4" fill="#D2CCFF" fill-opacity="0.5"/>
<path d="M13 16H16.75M13 19H16.75M13 22H16.75M19.75 22.75H22C23.2426 22.75 24.25 21.7426 24.25 20.5V10.1082C24.25 8.97324 23.405 8.01015 22.2739 7.91627C21.9006 7.88529 21.5261 7.85858 21.1505 7.83619M15.3495 7.83619C15.2848 8.04602 15.25 8.26894 15.25 8.5C15.25 8.91421 15.5858 9.25 16 9.25H20.5C20.9142 9.25 21.25 8.91421 21.25 8.5C21.25 8.26894 21.2152 8.04602 21.1505 7.83619M15.3495 7.83619C15.6328 6.91757 16.4884 6.25 17.5 6.25H19C20.0116 6.25 20.8672 6.91757 21.1505 7.83619M15.3495 7.83619C14.9739 7.85858 14.5994 7.88529 14.2261 7.91627C13.095 8.01015 12.25 8.97324 12.25 10.1082V12.25M12.25 12.25H8.875C8.25368 12.25 7.75 12.7537 7.75 13.375V24.625C7.75 25.2463 8.25368 25.75 8.875 25.75H18.625C19.2463 25.75 19.75 25.2463 19.75 24.625V13.375C19.75 12.7537 19.2463 12.25 18.625 12.25H12.25ZM10.75 16H10.7575V16.0075H10.75V16ZM10.75 19H10.7575V19.0075H10.75V19ZM10.75 22H10.7575V22.0075H10.75V22Z" stroke="#5A4BDA" stroke-width="1.5" stroke-linecap="round" stroke-linejoin="round"/>
</svg>
