<svg width="117" height="117" viewBox="0 0 117 117" fill="none" xmlns="http://www.w3.org/2000/svg">
<g clip-path="url(#clip0_537_38756)">
<path d="M35.8815 24.8245C35.4755 23.9428 34.8982 23.1628 33.7978 23.1628C32.1682 23.1628 31.7573 24.7326 31.2767 25.9833L27.5836 35.6045C27.3497 36.0825 27.2061 36.5995 27.1602 37.1297C27.1703 37.392 27.2545 37.646 27.4032 37.8624C27.5518 38.0787 27.7588 38.2485 28.0001 38.3519C28.2429 38.4785 28.5205 38.5219 28.7903 38.4755C29.0602 38.4291 29.3073 38.2954 29.4939 38.0949C29.7846 37.625 30.0162 37.1209 30.1834 36.5941L30.8728 34.6943H36.7437L37.4325 36.5537C37.5244 36.7831 37.6344 37.0477 37.7626 37.3477C38.023 37.9563 38.4005 38.4842 39.1262 38.4842C39.3151 38.4867 39.5025 38.4498 39.6764 38.3758C39.8503 38.3018 40.0068 38.1924 40.136 38.0545C40.2653 37.933 40.3689 37.7869 40.4408 37.6247C40.5127 37.4625 40.5514 37.2876 40.5546 37.1102C40.4973 36.5599 40.3473 36.0232 40.1109 35.523L36.3391 25.9631C36.1998 25.601 36.0563 25.2033 35.8815 24.8245ZM31.6417 32.4399L33.7783 26.3253L35.9554 32.4399H31.6417ZM53.7129 27.8623C53.7373 27.244 53.6331 26.6273 53.4067 26.0514C53.1804 25.4755 52.8369 24.9529 52.398 24.5167C51.2949 23.5152 49.7168 23.4149 48.3058 23.4149H44.5535C44.0467 23.3703 43.5422 23.5224 43.1446 23.8397C42.9794 24.0337 42.8549 24.259 42.7787 24.5021C42.7025 24.7453 42.676 25.0013 42.701 25.2549V36.6749C42.6662 37.1588 42.8099 37.6387 43.1049 38.0239C43.2396 38.1691 43.4028 38.2848 43.5844 38.3638C43.766 38.4428 43.962 38.4833 44.16 38.4829C44.358 38.4824 44.5538 38.441 44.735 38.3611C44.9162 38.2813 45.079 38.1648 45.213 38.019C45.5148 37.6308 45.6621 37.1445 45.6267 36.654V32.4608H48.3058C50.098 32.4608 51.4472 32.0718 52.3535 31.2936C52.822 30.8597 53.1873 30.3263 53.4226 29.7326C53.6578 29.1389 53.757 28.4994 53.7129 27.8623ZM50.384 29.2468C50.1201 29.5986 49.7483 29.8542 49.3254 29.9746C48.7639 30.1361 48.181 30.211 47.5969 30.1967H45.6267V25.6686H47.5969C48.9029 25.6686 49.7662 25.8877 50.1869 26.326C50.5719 26.7663 50.7729 27.3378 50.7482 27.9222C50.7703 28.3912 50.6427 28.855 50.384 29.2468ZM72.0666 23.6127C71.9318 23.4644 71.7664 23.3473 71.5818 23.2695C71.3972 23.1916 71.1978 23.155 70.9976 23.1621C70.7998 23.155 70.603 23.1922 70.4216 23.2711C70.2401 23.3499 70.0785 23.4683 69.9487 23.6176C69.6546 24.0089 69.5128 24.4938 69.5497 24.9819V36.3915C69.504 36.896 69.6538 37.3989 69.9682 37.7962C70.1564 37.9571 70.375 38.0786 70.6111 38.1532C70.8471 38.2279 71.0958 38.2543 71.3423 38.2307H78.4041C78.798 38.2587 79.1882 38.1379 79.4975 37.8923C79.6206 37.7811 79.718 37.6443 79.7826 37.4915C79.8472 37.3387 79.8775 37.1736 79.8715 37.0078C79.8755 36.841 79.8438 36.6753 79.7783 36.5219C79.7128 36.3685 79.6151 36.2309 79.4919 36.1185C79.1886 35.865 78.7992 35.7383 78.4048 35.7647H72.4754V24.9826C72.5141 24.491 72.3683 24.0027 72.0666 23.6127ZM82.8744 38.0343C83.0106 38.177 83.1744 38.2905 83.3558 38.3678C83.5372 38.4452 83.7325 38.4848 83.9297 38.4843C84.1269 38.4837 84.3219 38.4431 84.503 38.3648C84.684 38.2865 84.8471 38.1722 84.9825 38.0288C85.2865 37.6382 85.4338 37.1482 85.3955 36.6547V31.9552L89.01 26.2654C89.4547 25.7273 89.7414 25.0764 89.838 24.385C89.8221 24.0542 89.6789 23.7422 89.4385 23.5144C89.198 23.2865 88.8788 23.1603 88.5476 23.1621C88.2389 23.1903 87.9437 23.3021 87.6939 23.4856C87.444 23.6691 87.2489 23.9172 87.1296 24.2033C87.0182 24.3922 86.8803 24.6246 86.7159 24.9004L83.9873 29.3979L81.2887 24.9004C81.0162 24.4133 80.7053 23.9487 80.3589 23.511C80.0998 23.2812 79.7643 23.1565 79.418 23.1613C79.0717 23.166 78.7396 23.3 78.4869 23.5368C77.6234 24.3669 78.4535 25.5648 78.9452 26.3462L82.4705 31.9552V36.6547C82.431 37.1484 82.5749 37.64 82.8744 38.0343ZM59.081 32.4608H61.7601C63.5523 32.4608 64.9015 32.0718 65.8078 31.2936C66.2763 30.8597 66.6416 30.3263 66.8769 29.7326C67.1121 29.1389 67.2113 28.5001 67.1672 27.863C67.1773 27.2109 67.0638 26.5627 66.8329 25.9527C66.6115 25.4094 66.2706 24.9228 65.8355 24.5292C65.4004 24.1356 64.8822 23.845 64.3195 23.6789C63.4816 23.4765 62.6203 23.3879 61.7587 23.4156H58.0064C57.4998 23.3711 56.9956 23.5232 56.5982 23.8404C56.433 24.0344 56.3085 24.2597 56.2323 24.5028C56.1561 24.746 56.1297 25.002 56.1546 25.2556V35.0334C57.1769 35.1151 58.172 35.4034 59.0796 35.881L59.081 32.4608ZM59.081 25.6693H61.0512C62.3572 25.6693 63.2205 25.8884 63.6412 26.3267C64.0262 26.767 64.2272 27.3385 64.2025 27.9229C64.2246 28.3919 64.097 28.8557 63.8383 29.2475C63.5745 29.5993 63.2026 29.8549 62.7797 29.9753C62.2182 30.1368 61.6353 30.2117 61.0512 30.1974H59.081V25.6693Z" fill="#FFCA28"/>
<path d="M93.3214 16.8955H23.6786C22.5707 16.8968 21.5087 17.3374 20.7253 18.1208C19.9419 18.9041 19.5013 19.9662 19.5 21.074V40.574C19.5013 41.6819 19.9419 42.744 20.7253 43.5273C21.5087 44.3107 22.5707 44.7513 23.6786 44.7526H47.7297L47.7451 42.7511C47.7469 42.4889 47.7621 42.2269 47.7903 41.9662H23.6786C23.3093 41.9658 22.9552 41.819 22.6941 41.5578C22.4329 41.2967 22.2861 40.9426 22.2857 40.5733V21.0733C22.2861 20.7041 22.4329 20.35 22.6941 20.0889C22.9552 19.8277 23.3093 19.6809 23.6786 19.6805H93.3214C93.6907 19.6809 94.0448 19.8277 94.3059 20.0889C94.5671 20.35 94.7139 20.7041 94.7143 21.0733V40.5733C94.7139 40.9426 94.5671 41.2967 94.3059 41.5578C94.0448 41.819 93.6907 41.9658 93.3214 41.9662H63.1445C63.1694 42.231 63.181 42.4969 63.1793 42.7629L63.164 44.7519H93.3214C94.4293 44.7506 95.4914 44.31 96.2747 43.5266C97.0581 42.7433 97.4987 41.6812 97.5 40.5733V21.0733C97.4987 19.9655 97.0581 18.9034 96.2747 18.1201C95.4914 17.3367 94.4293 16.8968 93.3214 16.8955Z" fill="#2D4356"/>
<path d="M76.6045 56.3128H76.5683C75.7128 56.3199 74.8741 56.5509 74.1357 56.9828C73.8938 56.2971 73.5016 55.6741 72.9879 55.1595C72.5346 54.6999 71.993 54.3368 71.3956 54.092C70.7983 53.8473 70.1575 53.7259 69.5121 53.7353C68.5998 53.7437 67.7079 54.0063 66.9367 54.4937C66.6936 53.9445 66.3515 53.4448 65.9275 53.0194C65.4749 52.5588 64.9334 52.1951 64.3359 51.9503C63.7384 51.7055 63.0973 51.5846 62.4517 51.5952C61.7129 51.6019 60.9852 51.776 60.3234 52.1043L60.3944 42.7415C60.3934 41.4347 59.8765 40.1811 58.9562 39.2534C58.0358 38.3256 56.7865 37.7987 55.4797 37.7871C54.1674 37.8071 52.9149 38.3398 51.9902 39.2712C51.0655 40.2027 50.542 41.459 50.5316 42.7714L50.3192 70.7491L46.679 67.1506C45.2987 65.81 43.4505 65.0596 41.5264 65.0587C39.6022 65.0578 37.7533 65.8064 36.3718 67.1458C36.1297 67.3477 35.9316 67.5972 35.79 67.879C35.6483 68.1607 35.5662 68.4685 35.5485 68.7833C35.5309 69.0981 35.5782 69.4132 35.6875 69.7089C35.7967 70.0047 35.9657 70.2748 36.1838 70.5025L42.0094 76.3936C44.7835 79.2242 47.3353 82.2643 49.6423 85.4869C51.3015 87.8228 52.7215 90.3198 53.8807 92.9401C54.743 92.5602 55.6561 92.3085 56.5912 92.1928C55.3408 89.2747 53.782 86.4988 51.9412 83.9123C49.542 80.5508 46.8835 77.3821 43.99 74.4353L38.544 68.9286C39.375 68.1985 40.4436 67.7962 41.5498 67.7969C42.1381 67.7956 42.7208 67.912 43.2635 68.1394C43.8061 68.3668 44.2978 68.7005 44.7095 69.1208L50.7085 75.0502C50.9033 75.2425 51.1505 75.3732 51.4191 75.4258C51.6877 75.4785 51.9659 75.4508 52.2189 75.3463C52.4719 75.2417 52.6885 75.0649 52.8416 74.838C52.9948 74.6111 53.0776 74.3441 53.0798 74.0703L53.3173 42.7923C53.3194 42.2107 53.5488 41.6529 53.9567 41.2382C54.3645 40.8234 54.9184 40.5846 55.4999 40.5728C56.0634 40.5807 56.601 40.8107 56.9959 41.2127C57.3907 41.6148 57.611 42.1564 57.6087 42.7199L57.4255 67.0267C57.4228 67.3961 57.5669 67.7514 57.8261 68.0146C58.0854 68.2778 58.4385 68.4272 58.808 68.43C59.1774 68.4327 59.5327 68.2886 59.7959 68.0294C60.0591 67.7701 60.2085 67.417 60.2113 67.0476L60.29 56.5942C60.2935 56.0137 60.5235 55.4575 60.9311 55.044C61.3386 54.6306 61.8915 54.3927 62.4719 54.3809C63.0336 54.3941 63.568 54.6258 63.9616 55.0267C64.3552 55.4276 64.577 55.9662 64.58 56.528L64.502 67.0267C64.4992 67.3961 64.6433 67.7514 64.9025 68.0146C65.1618 68.2778 65.515 68.4272 65.8844 68.43C66.2538 68.4327 66.6092 68.2886 66.8723 68.0294C67.1355 67.7701 67.2849 67.417 67.2877 67.0476L67.3497 58.7378C67.3523 58.1565 67.582 57.5994 67.9898 57.1852C68.3976 56.771 68.9511 56.5327 69.5323 56.521C70.0963 56.5269 70.635 56.7563 71.0302 57.1588C71.4254 57.5613 71.6448 58.1041 71.6403 58.6681L71.5791 67.0274C71.5763 67.3968 71.7204 67.7521 71.9796 68.0153C72.2389 68.2785 72.5921 68.4279 72.9615 68.4307C73.3309 68.4334 73.6863 68.2893 73.9494 68.0301C74.2126 67.7708 74.362 67.4177 74.3648 67.0483L74.4066 61.318C74.4084 60.7364 74.6378 60.1787 75.0455 59.7639C75.4532 59.3491 76.007 59.1103 76.5885 59.0985C77.1509 59.1098 77.6865 59.3408 78.0806 59.7421C78.4747 60.1434 78.6961 60.6831 78.6973 61.2456L78.5803 76.6645C78.5807 80.4564 77.866 84.2143 76.4736 87.7412C75.8044 89.2027 75.2566 90.7168 74.8356 92.268C75.7567 92.4321 76.6491 92.7291 77.4848 93.1497C77.8775 91.6674 78.3971 90.2216 79.0378 88.8284C80.5719 84.9635 81.3619 80.8436 81.366 76.6854L81.483 61.2665C81.4702 59.9696 80.9544 58.7283 80.0444 57.8042C79.1343 56.8801 77.9011 56.3454 76.6045 56.3128Z" fill="#2D4356"/>
<path d="M1.39286 106.038C2.16211 106.038 2.78571 105.414 2.78571 104.645C2.78571 103.875 2.16211 103.252 1.39286 103.252C0.623603 103.252 0 103.875 0 104.645C0 105.414 0.623603 106.038 1.39286 106.038Z" fill="#2D4356"/>
<path d="M7.65988 103.253H5.57059C5.20118 103.253 4.8469 103.4 4.58569 103.661C4.32448 103.922 4.17773 104.276 4.17773 104.646C4.17773 105.015 4.32448 105.369 4.58569 105.631C4.8469 105.892 5.20118 106.039 5.57059 106.039H7.65988C8.02929 106.039 8.38356 105.892 8.64478 105.631C8.90599 105.369 9.05273 105.015 9.05273 104.646C9.05273 104.276 8.90599 103.922 8.64478 103.661C8.38356 103.4 8.02929 103.253 7.65988 103.253ZM111.428 103.253H109.338C108.969 103.253 108.615 103.4 108.354 103.661C108.092 103.922 107.946 104.276 107.946 104.646C107.946 105.015 108.092 105.369 108.354 105.631C108.615 105.892 108.969 106.039 109.338 106.039H111.428C111.797 106.039 112.151 105.892 112.413 105.631C112.674 105.369 112.821 105.015 112.821 104.646C112.821 104.276 112.674 103.922 112.413 103.661C112.151 103.4 111.797 103.253 111.428 103.253Z" fill="#2D4356"/>
<path d="M115.608 106.038C116.377 106.038 117.001 105.414 117.001 104.645C117.001 103.876 116.377 103.252 115.608 103.252C114.838 103.252 114.215 103.876 114.215 104.645C114.215 105.414 114.838 106.038 115.608 106.038Z" fill="#2D4356"/>
<path d="M82.2865 108.824H76.5006C76.1498 108.851 75.8222 109.009 75.5832 109.268C75.3442 109.526 75.2115 109.865 75.2115 110.217C75.2115 110.568 75.3442 110.907 75.5832 111.166C75.8222 111.424 76.1498 111.582 76.5006 111.609H82.2865C82.6373 111.582 82.9649 111.424 83.2038 111.166C83.4428 110.907 83.5756 110.568 83.5756 110.217C83.5756 109.865 83.4428 109.526 83.2038 109.268C82.9649 109.009 82.6373 108.851 82.2865 108.824ZM40.5008 108.824H34.7148C34.3641 108.851 34.0365 109.009 33.7975 109.268C33.5585 109.526 33.4258 109.865 33.4258 110.217C33.4258 110.568 33.5585 110.907 33.7975 111.166C34.0365 111.424 34.3641 111.582 34.7148 111.609H40.5008C40.8515 111.582 41.1791 111.424 41.4181 111.166C41.6571 110.907 41.7898 110.568 41.7898 110.217C41.7898 109.865 41.6571 109.526 41.4181 109.268C41.1791 109.009 40.8515 108.851 40.5008 108.824ZM72.4292 108.824H44.5721C44.2027 108.824 43.8484 108.97 43.5872 109.232C43.326 109.493 43.1792 109.847 43.1792 110.217C43.1792 110.586 43.326 110.94 43.5872 111.201C43.8484 111.463 44.2027 111.609 44.5721 111.609H55.6732V113.002H50.1435C49.7741 113.002 49.4198 113.149 49.1586 113.41C48.8974 113.671 48.7507 114.026 48.7507 114.395C48.7507 114.765 48.8974 115.119 49.1586 115.38C49.4198 115.641 49.7741 115.788 50.1435 115.788H67.5542C67.9236 115.788 68.2779 115.641 68.5391 115.38C68.8004 115.119 68.9471 114.765 68.9471 114.395C68.9471 114.026 68.8004 113.671 68.5391 113.41C68.2779 113.149 67.9236 113.002 67.5542 113.002H61.3282V111.609H72.4292C72.7986 111.609 73.1529 111.463 73.4141 111.201C73.6754 110.94 73.8221 110.586 73.8221 110.217C73.8221 109.847 73.6754 109.493 73.4141 109.232C73.1529 108.97 72.7986 108.824 72.4292 108.824Z" fill="#FFCA28"/>
<path d="M104.966 103.252H80.0889V101.86C80.0869 100.013 79.3525 98.2429 78.0469 96.9373C76.7413 95.6316 74.9711 94.8973 73.1246 94.8952H57.8032C55.9568 94.8973 54.1866 95.6316 52.881 96.9373C51.5753 98.2429 50.841 100.013 50.8389 101.86V103.252H12.0332C11.8351 103.226 11.6337 103.243 11.4425 103.301C11.2513 103.359 11.0747 103.458 10.9245 103.59C10.7744 103.721 10.654 103.884 10.5716 104.066C10.4892 104.248 10.4465 104.445 10.4465 104.645C10.4465 104.845 10.4892 105.043 10.5716 105.225C10.654 105.407 10.7744 105.569 10.9245 105.701C11.0747 105.833 11.2513 105.931 11.4425 105.989C11.6337 106.047 11.8351 106.064 12.0332 106.038H104.965C105.164 106.064 105.365 106.047 105.556 105.989C105.747 105.931 105.924 105.833 106.074 105.701C106.224 105.569 106.345 105.407 106.427 105.225C106.509 105.043 106.552 104.845 106.552 104.645C106.552 104.445 106.509 104.248 106.427 104.066C106.345 103.884 106.224 103.721 106.074 103.59C105.924 103.458 105.747 103.359 105.556 103.301C105.365 103.243 105.164 103.226 104.966 103.252ZM53.6246 103.252V101.86C53.6259 100.752 54.0666 99.6896 54.8499 98.9063C55.6333 98.1229 56.6954 97.6822 57.8032 97.6809H73.1246C74.2325 97.6822 75.2946 98.1229 76.0779 98.9063C76.8613 99.6896 77.3019 100.752 77.3032 101.86V103.252H53.6246ZM65.6763 12.7167C66.0896 12.7167 66.4935 12.5941 66.8371 12.3646C67.1807 12.135 67.4485 11.8087 67.6066 11.4269C67.7647 11.0451 67.8061 10.6251 67.7255 10.2198C67.6449 9.81449 67.4459 9.44222 67.1537 9.15002C66.8615 8.85783 66.4892 8.65885 66.0839 8.57823C65.6787 8.49762 65.2586 8.53899 64.8768 8.69712C64.495 8.85526 64.1687 9.12305 63.9392 9.46663C63.7096 9.81021 63.5871 10.2142 63.5871 10.6274C63.5876 11.1813 63.8079 11.7124 64.1996 12.1041C64.5913 12.4958 65.1224 12.7161 65.6763 12.7167ZM65.6763 9.58273C65.883 9.58273 66.0849 9.644 66.2567 9.75878C66.4285 9.87357 66.5624 10.0367 66.6415 10.2276C66.7205 10.4185 66.7412 10.6285 66.7009 10.8312C66.6606 11.0338 66.5611 11.22 66.415 11.366C66.2689 11.5121 66.0828 11.6116 65.8801 11.6519C65.6775 11.6923 65.4675 11.6716 65.2766 11.5925C65.0857 11.5134 64.9225 11.3795 64.8078 11.2077C64.693 11.036 64.6317 10.834 64.6317 10.6274C64.6319 10.3504 64.742 10.0848 64.9379 9.8889C65.1337 9.69303 65.3993 9.58291 65.6763 9.58273ZM114.426 8.53809C114.151 8.53809 113.882 8.61978 113.653 8.77283C113.423 8.92588 113.245 9.14341 113.14 9.39792C113.034 9.65243 113.007 9.93249 113.06 10.2027C113.114 10.4729 113.247 10.721 113.441 10.9158C113.636 11.1106 113.884 11.2433 114.155 11.297C114.425 11.3508 114.705 11.3232 114.959 11.2178C115.214 11.1124 115.431 10.9338 115.584 10.7048C115.738 10.4757 115.819 10.2064 115.819 9.93094C115.819 9.56165 115.672 9.20758 115.411 8.94645C115.15 8.68532 114.796 8.53846 114.426 8.53809ZM114.426 10.6274C114.289 10.6274 114.154 10.5865 114.039 10.51C113.925 10.4335 113.836 10.3247 113.783 10.1975C113.73 10.0702 113.716 9.93017 113.743 9.79508C113.77 9.65998 113.837 9.53589 113.934 9.4385C114.031 9.3411 114.155 9.27477 114.29 9.2479C114.426 9.22103 114.566 9.23482 114.693 9.28753C114.82 9.34024 114.929 9.4295 115.005 9.54403C115.082 9.65856 115.123 9.7932 115.123 9.93094C115.123 10.1156 115.049 10.2926 114.919 10.4232C114.788 10.5538 114.611 10.6272 114.426 10.6274ZM10.6585 38.4845C10.383 38.4845 10.1137 38.5662 9.88465 38.7193C9.6556 38.8723 9.47707 39.0898 9.37165 39.3444C9.26623 39.5989 9.23865 39.8789 9.29239 40.1491C9.34613 40.4193 9.47879 40.6675 9.67358 40.8623C9.86838 41.0571 10.1166 41.1897 10.3868 41.2435C10.6569 41.2972 10.937 41.2696 11.1915 41.1642C11.446 41.0588 11.6636 40.8803 11.8166 40.6512C11.9697 40.4221 12.0513 40.1529 12.0513 39.8774C12.051 39.5081 11.9041 39.154 11.643 38.8929C11.3818 38.6318 11.0278 38.4849 10.6585 38.4845ZM10.6585 40.5738C10.5207 40.5738 10.3861 40.533 10.2716 40.4564C10.157 40.3799 10.0678 40.2711 10.0151 40.1439C9.96236 40.0166 9.94856 39.8766 9.97544 39.7415C10.0023 39.6064 10.0686 39.4823 10.166 39.3849C10.2634 39.2875 10.3875 39.2212 10.5226 39.1943C10.6577 39.1675 10.7977 39.1812 10.925 39.234C11.0522 39.2867 11.161 39.3759 11.2375 39.4905C11.3141 39.605 11.3549 39.7396 11.3549 39.8774C11.3547 40.062 11.2813 40.2391 11.1507 40.3696C11.0202 40.5002 10.8431 40.5736 10.6585 40.5738ZM106.069 28.7345C105.794 28.7345 105.524 28.8162 105.295 28.9693C105.066 29.1223 104.888 29.3398 104.782 29.5943C104.677 29.8489 104.649 30.1289 104.703 30.3991C104.757 30.6693 104.89 30.9175 105.084 31.1123C105.279 31.3071 105.527 31.4397 105.797 31.4935C106.068 31.5472 106.348 31.5196 106.602 31.4142C106.857 31.3088 107.074 31.1303 107.227 30.9012C107.38 30.6721 107.462 30.4029 107.462 30.1274C107.462 29.7581 107.315 29.404 107.054 29.1429C106.793 28.8818 106.438 28.7349 106.069 28.7345ZM106.069 30.8238C105.931 30.8238 105.797 30.783 105.682 30.7064C105.568 30.6299 105.478 30.5211 105.426 30.3939C105.373 30.2666 105.359 30.1266 105.386 29.9915C105.413 29.8564 105.479 29.7323 105.577 29.6349C105.674 29.5375 105.798 29.4712 105.933 29.4443C106.068 29.4175 106.208 29.4312 106.336 29.484C106.463 29.5367 106.572 29.6259 106.648 29.7405C106.725 29.855 106.766 29.9896 106.766 30.1274C106.765 30.312 106.692 30.4891 106.561 30.6196C106.431 30.7502 106.254 30.8236 106.069 30.8238ZM28.7656 11.3238C28.7656 11.0483 28.6839 10.779 28.5309 10.55C28.3778 10.3209 28.1603 10.1424 27.9058 10.037C27.6513 9.93155 27.3712 9.90396 27.101 9.95771C26.8308 10.0115 26.5827 10.1441 26.3879 10.3389C26.1931 10.5337 26.0604 10.7819 26.0067 11.0521C25.9529 11.3223 25.9805 11.6023 26.0859 11.8568C26.1914 12.1113 26.3699 12.3289 26.5989 12.4819C26.828 12.635 27.0973 12.7167 27.3728 12.7167C27.7421 12.7163 28.0961 12.5694 28.3573 12.3083C28.6184 12.0472 28.7653 11.6931 28.7656 11.3238ZM26.6763 11.3238C26.6763 11.1861 26.7172 11.0514 26.7937 10.9369C26.8702 10.8224 26.979 10.7331 27.1063 10.6804C27.2335 10.6277 27.3735 10.6139 27.5086 10.6408C27.6437 10.6676 27.7678 10.734 27.8652 10.8314C27.9626 10.9287 28.0289 11.0528 28.0558 11.1879C28.0827 11.323 28.0689 11.4631 28.0162 11.5903C27.9635 11.7176 27.8742 11.8263 27.7597 11.9029C27.6452 11.9794 27.5105 12.0202 27.3728 12.0202C27.1881 12.02 27.0111 11.9466 26.8805 11.816C26.75 11.6855 26.6765 11.5084 26.6763 11.3238Z" fill="#2D4356"/>
<path d="M5.49347 23.1709L6.52906 21.8087L5.87511 21.4382L5.21003 22.9634H5.18844L4.5129 21.4493L3.84781 21.8303L4.87226 23.1598V23.1821L3.26978 22.9745V23.7155L4.8827 23.5087V23.5303L3.84781 24.8598L4.46833 25.2518L5.17729 23.7155H5.19888L5.85283 25.2407L6.53951 24.8486L5.49347 23.5414V23.5191L7.13844 23.7155V22.9745L5.49347 23.1925V23.1709ZM4.23503 3.70922L3.63888 4.4746L3.99685 4.70094L4.40495 3.81577H4.41679L4.79356 4.69467L5.18913 4.46833L4.58672 3.71549V3.70295L5.53386 3.81577V3.38886L4.58672 3.51422V3.50238L5.18286 2.71751L4.80679 2.5044L4.42376 3.3826H4.41122L4.02192 2.51067L3.63888 2.73004L4.22876 3.49611V3.50865L3.30599 3.38886V3.81577L4.23503 3.69669V3.70922ZM96.3196 3.46338V2.73631L94.706 2.95011V2.92922L95.7214 1.59277L95.0799 1.22994L94.4281 2.72586H94.4065L93.7442 1.24038L93.0916 1.61436L94.0966 2.91877V2.93967L92.5248 2.73631V3.46338L94.107 3.26072V3.28161L93.0916 4.58533L93.701 4.97045L94.3961 3.46338H94.417L95.0584 4.96001L95.7318 4.57488L94.706 3.29206V3.27117L96.3196 3.46338ZM48.5745 2.67781L49.4507 1.52592L48.897 1.21252L48.335 2.50301H48.3162L47.7451 1.22158L47.1817 1.54402L48.0487 2.66876V2.68756L46.6935 2.51206V3.13885L48.0578 2.96404V2.98215L47.1817 4.10688L47.7075 4.43908L48.3071 3.13885H48.3252L48.8789 4.43002L49.4597 4.09783L48.5745 2.9912V2.9731L49.966 3.13885V2.51206L48.5745 2.69661V2.67781Z" fill="#FFCA28"/>
</g>
<defs>
<clipPath id="clip0_537_38756">
<rect width="117" height="117" fill="white"/>
</clipPath>
</defs>
</svg>
