<svg width="15" height="18" viewBox="0 0 15 18" fill="none" xmlns="http://www.w3.org/2000/svg">
<path fill-rule="evenodd" clip-rule="evenodd" d="M2.18719 0.25H4.99969C6.72558 0.25 8.12469 1.64911 8.12469 3.375V4.9375C8.12469 5.80044 8.82425 6.5 9.68719 6.5H11.2497C12.9756 6.5 14.3747 7.89911 14.3747 9.625V16.1875C14.3747 17.0504 13.6751 17.75 12.8122 17.75H2.18719C1.32425 17.75 0.624695 17.0504 0.624695 16.1875V1.8125C0.624695 0.949554 1.32425 0.25 2.18719 0.25ZM8.12469 9C8.12469 8.65482 7.84487 8.375 7.49969 8.375C7.15452 8.375 6.87469 8.65482 6.87469 9V10.875H4.99969C4.65452 10.875 4.37469 11.1548 4.37469 11.5C4.37469 11.8452 4.65452 12.125 4.99969 12.125H6.87469V14C6.87469 14.3452 7.15452 14.625 7.49969 14.625C7.84487 14.625 8.12469 14.3452 8.12469 14V12.125H9.99969C10.3449 12.125 10.6247 11.8452 10.6247 11.5C10.6247 11.1548 10.3449 10.875 9.99969 10.875H8.12469V9Z" fill="#5A4BDA"/>
<path d="M9.37469 3.375C9.37469 2.28079 8.97299 1.2804 8.30902 0.513254C11.1415 1.25315 13.3715 3.48323 14.1114 6.31567C13.3443 5.6517 12.3439 5.25 11.2497 5.25H9.68719C9.51461 5.25 9.37469 5.11009 9.37469 4.9375V3.375Z" fill="#5A4BDA"/>
</svg>
