<?xml version="1.0" encoding="UTF-8" standalone="no"?>
<svg
   width="71"
   height="124"
   viewBox="0 0 71.000002 124"
   fill="none"
   version="1.1"
   id="svg1655"
   sodipodi:docname="table_img_01.svg"
   inkscape:version="1.1.2 (b8e25be8, 2022-02-05)"
   xmlns:inkscape="http://www.inkscape.org/namespaces/inkscape"
   xmlns:sodipodi="http://sodipodi.sourceforge.net/DTD/sodipodi-0.dtd"
   xmlns="http://www.w3.org/2000/svg"
   xmlns:svg="http://www.w3.org/2000/svg">
  <sodipodi:namedview
     id="namedview1657"
     pagecolor="#ffffff"
     bordercolor="#666666"
     borderopacity="1.0"
     inkscape:pageshadow="2"
     inkscape:pageopacity="0.0"
     inkscape:pagecheckerboard="0"
     showgrid="false"
     fit-margin-top="0"
     fit-margin-left="0"
     fit-margin-right="0"
     fit-margin-bottom="0"
     inkscape:zoom="2.7930718"
     inkscape:cx="19.870596"
     inkscape:cy="105.43947"
     inkscape:window-width="1680"
     inkscape:window-height="933"
     inkscape:window-x="0"
     inkscape:window-y="25"
     inkscape:window-maximized="1"
     inkscape:current-layer="svg1655" />
  <rect
     x="9.614007"
     y="54.677151"
     width="55.667099"
     height="55.667099"
     rx="27.8335"
     fill="#fae8ab"
     id="rect11" />
  <g
     clip-path="url(#clip0_923_71300)"
     id="g99"
     transform="translate(-152.902,-16.00005)">
    <path
       d="m 200.223,139.695 c -4.202,0 -7.609,-0.321 -7.609,-0.717 0,-0.396 3.407,-0.717 7.609,-0.717 4.202,0 7.609,0.321 7.609,0.717 0,0.396 -3.407,0.717 -7.609,0.717 z"
       fill="#827993"
       id="path13" />
    <path
       d="m 213.521,124.154 c 0.733,1.928 0.938,2.182 0.63,3.67 -0.309,1.488 -0.705,3.474 -0.534,4.662 0.171,1.188 2.582,0.019 3.308,-0.923 0.726,-0.942 0.545,-4.088 0.844,-5.278 0.298,-1.189 0.585,-1.722 -1.035,-2.515 -0.552,-0.27 -1.726,-4.579 -2.248,-5.015 -0.522,-0.436 -3.341,0.469 -3.457,0.879 -0.116,0.411 2.335,4.107 2.492,4.52 z m -11.204,8.218 c -1.628,2.673 -3.035,4.353 -3.305,5.214 -0.27,0.861 0.516,2.098 2.182,0.884 1.665,-1.214 1.759,-1.618 3.201,-2.635 1.442,-1.017 2.424,-1.389 0.808,-4.318 -0.531,-0.962 0.043,-4.515 -0.025,-5.667 -0.069,-1.153 -3.873,0.786 -3.877,1.104 -0.005,0.319 1.302,4.948 1.016,5.418 z"
       fill="#e5906b"
       id="path15" />
    <path
       d="m 200.256,96.2988 c 0,0 -0.918,10.9292 -1.089,16.5502 -0.172,5.621 1.159,14.179 1.597,14.879 0.518,0.827 4.833,-1.107 5.006,-1.417 0.172,-0.309 0.334,-10.773 0.334,-10.773 0,0 3.47,5.766 4.698,6.012 2.408,0.481 4.437,-1.891 4.469,-2.603 0.032,-0.712 -2.347,-5.504 -2.446,-6.453 -0.167,-1.592 1.193,-14.0107 0.471,-17.3725 -0.677,-3.1549 -13.04,1.1773 -13.04,1.1773 z"
       fill="#607cad"
       id="path17" />
    <path
       d="m 206.221,115.925 c 0.025,0 0.05,-0.006 0.073,-0.019 0.022,-0.012 0.041,-0.03 0.054,-0.051 0.014,-0.022 0.022,-0.047 0.023,-0.072 0.001,-0.026 -0.004,-0.051 -0.015,-0.074 -1.256,-2.582 -0.914,-8.152 -0.779,-9.797 0.084,-1.025 0.162,-4.268 0.163,-4.301 0,-0.019 -0.003,-0.039 -0.01,-0.057 -0.008,-0.019 -0.018,-0.036 -0.032,-0.05 -0.013,-0.014 -0.03,-0.026 -0.048,-0.034 -0.018,-0.008 -0.037,-0.012 -0.057,-0.012 -0.086,-0.004 -0.152,0.063 -0.154,0.146 -0.001,0.033 -0.079,3.267 -0.162,4.283 -0.136,1.665 -0.48,7.302 0.809,9.954 0.012,0.025 0.031,0.046 0.055,0.061 0.024,0.015 0.052,0.023 0.08,0.023 z"
       fill="#464e7a"
       id="path19" />
    <path
       d="m 205.422,105.474 c 0.036,0 0.071,-0.013 0.098,-0.037 0.028,-0.024 0.045,-0.056 0.051,-0.092 0.005,-0.035 -0.003,-0.072 -0.022,-0.102 -0.019,-0.031 -0.049,-0.053 -0.084,-0.063 -0.194,-0.059 -0.503,-0.413 -0.733,-1.216 -0.239,-0.832 -0.323,-1.916 -0.238,-3.053 0.002,-0.04 -0.011,-0.079 -0.037,-0.108 -0.026,-0.03 -0.063,-0.048 -0.102,-0.051 -0.039,-0.003 -0.078,0.01 -0.108,0.035 -0.031,0.026 -0.049,0.062 -0.053,0.101 -0.19,2.55 0.467,4.363 1.185,4.579 0.014,0.004 0.028,0.007 0.043,0.007 z"
       fill="#464e7a"
       id="path21" />
    <path
       d="m 205.385,131.859 c 0.017,0.391 0.037,0.953 -0.12,1.303 -0.259,0.577 -1.184,0.957 -2.142,2.09 -0.856,1.012 -2.284,1.53 -3.255,0.83 -0.436,0.649 -0.745,1.148 -0.856,1.504 -0.27,0.861 0.516,2.098 2.182,0.885 1.665,-1.214 1.758,-1.619 3.201,-2.636 1.384,-0.975 2.343,-1.359 0.99,-3.976 z m 11.54,-0.296 c 0.725,-0.941 0.545,-4.088 0.843,-5.278 0.285,-1.136 0.555,-1.673 -0.834,-2.41 0.129,0.487 0.259,1.249 0.133,1.704 -0.182,0.655 -0.267,3.237 -0.887,3.801 -0.533,0.485 -1.93,0.487 -2.252,-0.45 -0.24,1.265 -0.443,2.645 -0.311,3.556 0.171,1.188 2.582,0.019 3.308,-0.923 z"
       fill="#261a1a"
       id="path23" />
    <path
       d="m 200.956,69.2286 c -0.137,-0.502 0.096,-1.0994 0.555,-1.3489 0.206,-0.1126 0.486,-0.2113 0.503,-0.4485 0.01,-0.1387 -0.083,-0.259 -0.155,-0.3773 -0.202,-0.3337 -0.248,-0.7766 -0.063,-1.1222 0.217,-0.404 0.687,-0.5965 1.133,-0.6718 0.485,-0.0814 0.982,-0.0614 1.458,0.0586 0.972,0.2456 1.39,-0.5709 2.139,-1.0326 0.789,-0.4867 1.896,-0.3455 2.572,0.2894 0.528,0.4956 0.792,1.2207 1.31,1.7271 0.379,0.3709 0.87,0.6011 1.31,0.897 0.735,0.4945 1.363,1.2443 1.446,2.1266 0.069,0.7273 -0.236,1.4612 -0.111,2.1809 0.135,0.7752 0.734,1.3714 1.145,2.0422 0.567,0.925 0.787,2.0799 0.496,3.1253 -0.151,0.5429 -0.433,1.0511 -0.504,1.61 -0.078,0.6094 0.1,1.2385 -0.037,1.8375 -0.163,0.7151 -0.764,1.2713 -1.443,1.5481 -0.679,0.2767 -1.432,0.3125 -2.165,0.2934 -1.074,-0.028 -2.143,-0.1656 -3.208,-0.3122 -1.239,-0.1706 -2.476,-0.3536 -3.706,-0.5775 -0.775,-0.141 -1.574,-0.3096 -2.21,-0.7728 -0.07,-0.051 -0.141,-0.1092 -0.174,-0.1897 -0.038,-0.0966 -0.015,-0.2063 0.016,-0.3059 0.132,-0.4268 -0.783,-0.6747 -0.495,-1.0158 1.332,-1.5752 0.032,-1.9037 0.315,-2.8632 0.203,-0.6863 0.601,-1.3445 0.612,-1.7834 0.01,-0.3783 -0.363,-0.7117 -0.469,-1.0749 -0.378,-1.2898 1.208,-2.1224 0.257,-3.0773 -0.177,-0.1779 -0.356,-0.3622 -0.464,-0.5903 -0.026,-0.0555 -0.047,-0.113 -0.063,-0.1718 z"
       fill="#1a1a1a"
       id="path25" />
    <path
       d="m 202.298,67.8578 c 0.036,-0.0052 0.069,-0.0221 0.094,-0.0479 0.025,-0.0258 0.041,-0.0592 0.045,-0.095 0.004,-0.0357 -0.003,-0.0719 -0.022,-0.1029 -0.018,-0.0309 -0.046,-0.0549 -0.08,-0.0682 -0.048,-0.0194 -1.185,-0.4855 -0.993,-1.5002 0.196,-1.0335 1.364,-1.1786 1.375,-1.1805 0.002,-1e-4 0.004,-4e-4 0.005,-6e-4 0.043,-0.0065 0.081,-0.0292 0.106,-0.0634 0.026,-0.0342 0.037,-0.0771 0.032,-0.1195 -0.006,-0.0425 -0.028,-0.081 -0.061,-0.1075 -0.034,-0.0264 -0.076,-0.0386 -0.119,-0.034 -0.014,-1e-4 -1.419,0.1773 -1.659,1.4447 -0.194,1.0254 0.696,1.6686 1.194,1.8653 0.026,0.0105 0.055,0.0139 0.083,0.0097 z"
       fill="#1a1a1a"
       id="path27" />
    <path
       d="m 213.199,81.2556 c -1.503,-1.3914 -3.372,-3.2426 -3.844,-4.2543 -0.823,-1.7602 -0.408,-5.3509 -0.408,-5.3509 l -3.78,1.5553 c 0,0 -0.016,1.0268 -0.085,1.9799 -0.053,0.7388 -0.138,1.4336 -0.27,1.5744 -0.02,0.0216 -0.059,0.041 -0.116,0.06 -0.798,0.2558 -3.059,1.7835 -4.572,2.0174 -0.333,0.0514 -2.407,5.9473 -2.407,5.9473 l 5.453,0.632 9.5,-1.7061 c 0.178,-0.8179 0.341,-1.6393 0.529,-2.455 z"
       fill="#e5906b"
       id="path29" />
    <path
       opacity="0.74"
       d="m 207.597,74.3994 c -0.02,0.1187 0.327,2.1635 -2.901,2.4204 0.056,-0.019 0.096,-0.0385 0.116,-0.06 0.132,-0.1408 0.217,-0.8357 0.27,-1.5745 1.46,-0.5433 2.515,-0.7859 2.515,-0.7859 z"
       fill="#391715"
       id="path31" />
    <path
       d="m 202.124,70.1012 c 0.038,0.6626 -0.751,5.385 2.598,6.1103 1.293,0.28 2.784,-0.3729 3.682,-1.4982 0.411,-0.5152 0.627,-0.7091 0.713,-1.3781 0,0 1.639,-0.9894 0.601,-2.3143 -0.366,-0.4667 -0.829,-0.1804 -1.136,0.1152 -0.127,0.1229 -0.339,0.0425 -0.355,-0.1339 -0.032,-0.3725 -0.106,-0.8552 -0.271,-1.1258 -0.197,-0.3237 -0.567,-0.4929 -0.943,-0.4467 -0.416,0.0509 -0.825,-0.0998 -1.135,-0.3549 -0.198,-0.1628 -0.456,-0.222 -0.711,-0.1979 -0.422,0.0398 -1.037,-0.1432 -1.412,-0.6602 -0.364,-0.5014 -0.648,-0.3725 -1.073,-0.2778 0,0 -0.608,1.2904 -0.558,2.1623 z"
       fill="#e5906b"
       id="path33" />
    <path
       d="m 205.788,71.2379 c 0.059,-0.0581 0.128,-0.0891 0.205,-0.0787 0.009,-1e-4 0.017,0 0.026,6e-4 0.003,-2e-4 0.006,-0.0011 0.01,-8e-4 0.003,4e-4 0.005,0.0018 0.008,0.0022 0.266,0.0318 0.34,0.3993 0.213,0.601 -0.016,0.0489 -0.041,0.0927 -0.085,0.1201 -0.042,0.0272 -0.094,0.0379 -0.146,0.0344 -0.004,0.0021 -0.008,0.0045 -0.014,0.0055 -0.124,0.0213 -0.21,-0.0518 -0.258,-0.1595 -0.114,-0.151 -0.097,-0.3883 0.041,-0.5248 z m -3.465,0.1683 c 0.109,-0.1449 0.32,-0.165 0.458,-0.0397 0.012,0.0112 0.023,0.0236 0.033,0.0369 0.035,0.0425 0.054,0.0966 0.052,0.152 0,0.0067 0,0.0133 -0.001,0.0198 0,0.0021 0,0.0041 0,0.0061 -0.015,0.0993 -0.032,0.2001 -0.091,0.2827 -0.115,0.1595 -0.343,0.1274 -0.458,-0.0208 -0.1,-0.1288 -0.086,-0.3133 0.007,-0.437 z"
       fill="#1a1a1a"
       id="path35" />
    <path
       d="m 203.859,73.1787 c 0.013,-0.0905 0.102,-0.1557 0.192,-0.139 l 0.268,0.0494 c 0.09,0.0167 0.156,0.1061 0.142,0.1976 -0.013,0.0905 -0.102,0.1557 -0.192,0.1389 l -0.268,-0.0494 c -0.09,-0.0166 -0.156,-0.106 -0.142,-0.1975 z"
       fill="#ce7a59"
       id="path37" />
    <path
       d="m 205.237,70.0666 c 0.235,0.0308 0.472,0.0242 0.706,0.0679 0.237,0.0443 0.469,0.1184 0.705,0.1719 0.213,0.0482 0.164,0.3852 -0.05,0.3365 -0.236,-0.0534 -0.468,-0.1285 -0.705,-0.1719 -0.234,-0.0428 -0.471,-0.0371 -0.706,-0.0679 -0.217,-0.0283 -0.167,-0.3648 0.05,-0.3365 z m -3.333,0.4896 c 0.122,-0.1716 0.283,-0.248 0.472,-0.3261 0.198,-0.082 0.356,0.2238 0.155,0.3066 -0.125,0.0517 -0.258,0.0913 -0.34,0.2061 -0.125,0.1761 -0.413,-0.0099 -0.287,-0.1866 z"
       fill="#1a1a1a"
       id="path39" />
    <path
       d="m 203.559,74.1149 c 0,0 0.391,1.0848 1.131,1.1068 0.914,0.0271 1.193,-1.3071 1.193,-1.3071 z"
       fill="#ffffff"
       id="path41" />
    <path
       d="m 221.709,82.0694 c -1.048,1.2421 -1.426,2.3503 -1.732,3.0814 -0.307,0.731 -2.382,6.4378 -3.325,6.8386 -0.943,0.4009 -1.887,-0.6131 -2.358,-1.179 -0.472,-0.566 -1.368,-3.8858 -1.368,-3.8858 0,0 0.896,-0.0846 2.146,-0.2572 1.25,-0.1725 1.509,-0.1725 1.509,-0.1725 0,0 1.628,-3.0774 1.958,-3.3603 0.329,-0.283 2.254,-2.9831 2.412,-3.0303 0.158,-0.0471 0.758,1.9651 0.758,1.9651 z"
       fill="#e5906b"
       id="path43" />
    <path
       d="m 219.867,77.688 c 0.091,0.1388 0.265,-0.3818 0.265,-0.3818 0,0 -0.173,-0.0899 -0.221,-0.4175 -0.047,-0.3275 0.168,-0.7293 0.668,-0.6869 0.499,0.0425 0.689,0.273 0.84,0.5063 0.151,0.2333 0.182,0.8773 0.149,1.0689 -0.033,0.1916 -1.095,4.1228 -1.246,4.6539 -0.15,0.5311 -0.485,0.9551 -0.734,0.9862 -0.248,0.031 -0.102,-1.0435 -0.043,-1.0558 0.059,-0.0123 0.287,-0.0603 0.336,-0.1505 0.048,-0.0902 0.37,-0.9254 0.405,-1.0698 0.034,-0.1444 0.497,-3.4252 0.548,-3.4918 0.05,-0.0668 0.265,-0.248 0.265,-0.248 0,0 -0.002,-0.252 -0.172,-0.4209 -0.17,-0.1689 -0.356,-0.0135 -0.387,0.0991 -0.031,0.1126 0.01,0.1411 0.01,0.1411 0,0 0.115,0.0625 0.173,0.2081 0.058,0.1456 -0.087,0.432 -0.123,0.474 -0.037,0.042 -0.313,0.409 -0.518,0.4396 -0.205,0.0307 -0.259,-0.7219 -0.215,-0.6542 z"
       fill="#fbab3d"
       id="path45" />
    <path
       d="m 220.649,87.88 c 0.302,1.3331 0.536,1.9519 0.482,2.074 -0.054,0.1222 -4.334,0.6621 -4.392,0.6269 -0.057,-0.0352 -0.018,-2.1949 -0.004,-2.2209 0.014,-0.026 3.901,-0.5373 3.914,-0.48 z"
       fill="#3e4042"
       id="path47" />
    <path
       d="m 220.185,87.7844 c 0.077,-0.0293 0.089,0.0901 0.08,0.1233 -0.01,0.0331 -3.126,0.4687 -3.15,0.4153 -0.024,-0.0535 -0.106,-0.1518 0.116,-0.1946 0.221,-0.0428 2.954,-0.344 2.954,-0.344 z"
       fill="#3e4042"
       id="path49" />
    <path
       d="m 217.983,84.5953 c 0.005,0.0627 0.407,2.1299 0.246,2.512 -0.161,0.3822 -0.329,0.5678 -0.532,0.5983 -0.203,0.0305 -0.456,0.0095 -0.506,0.0841 -0.05,0.0745 0.027,0.3763 0.027,0.3763 0,0 2.973,-0.3029 2.968,-0.3814 -0.006,-0.0783 -0.049,-0.3432 -0.121,-0.3616 -0.073,-0.0184 -0.471,0.1446 -0.735,-0.0175 -0.264,-0.1621 -0.483,-0.3667 -0.527,-0.5369 -0.044,-0.1702 -0.184,-2.091 -0.225,-2.222 -0.041,-0.131 -0.595,-0.0513 -0.595,-0.0513 z"
       fill="#fbab3d"
       id="path51" />
    <path
       d="m 218.577,84.6466 c 0.041,0.1309 0.181,2.0516 0.225,2.2219 0.014,0.055 0.048,0.1137 0.094,0.1733 -0.092,-0.0326 -0.192,-0.0825 -0.235,-0.1552 -0.09,-0.1511 -0.134,-1.1961 -0.219,-2.307 0.07,0.0099 0.123,0.0297 0.135,0.067 z"
       fill="#e88e33"
       id="path53" />
    <path
       d="m 219.763,77.4274 c -2.802,0.2668 -4.274,0.4055 -4.381,0.4448 -0.108,0.0394 -0.359,0.9245 -0.232,1.1518 0.127,0.2272 0.354,0.1003 0.7,0.5165 0.345,0.4163 0.767,3.6169 0.974,4.2954 0.207,0.6785 0.842,0.9476 1.034,0.9966 0.193,0.0491 0.698,0.0596 0.878,-0.0639 0.181,-0.1234 0.778,-0.5767 0.86,-1.4024 0.082,-0.8256 -0.141,-3.2368 -0.069,-3.7622 0.072,-0.5254 0.683,-1.0112 0.695,-1.0593 0.013,-0.0482 -0.319,-1.1308 -0.459,-1.1173 z"
       fill="#fbab3d"
       id="path55" />
    <path
       d="m 217.537,87.8572 0.374,-0.048 c 0,0 0.016,0.159 0.025,0.2811 -0.179,0.0193 -0.336,0.036 -0.458,0.0488 z m 2.649,-0.0726 c 0.002,0.0295 -0.416,0.0905 -0.938,0.1552 -0.009,-0.0988 -0.059,-0.3093 -0.04,-0.3107 0.023,-0.0017 0.891,-0.1618 0.899,-0.1633 0.046,0.0817 0.074,0.2572 0.079,0.3188 z m -1.922,-0.0424 c 0,0 0.406,-0.0355 0.407,-0.0208 0.001,0.011 0.013,0.193 0.019,0.2849 -0.136,0.0157 -0.272,0.0309 -0.403,0.0456 z"
       fill="#e88e33"
       id="path57" />
    <path
       d="m 215.205,79.1273 c 0.003,0 0.006,-2e-4 0.009,-5e-4 l 4.959,-0.5016 c 0.024,-0.0025 0.047,-0.0145 0.062,-0.0335 0.016,-0.019 0.023,-0.0433 0.02,-0.0677 -0.002,-0.0243 -0.014,-0.0465 -0.033,-0.062 -0.019,-0.0154 -0.043,-0.0228 -0.068,-0.0206 l -4.958,0.5015 c -0.024,0.0022 -0.046,0.0134 -0.062,0.0314 -0.015,0.018 -0.023,0.0413 -0.022,0.0652 0.001,0.0238 0.011,0.0463 0.029,0.0626 0.017,0.0164 0.04,0.0254 0.064,0.0252 z m 1.406,-1.2244 c 0.004,0 0.007,-1e-4 0.01,-5e-4 l 2.828,-0.2885 c 0.012,-0.0012 0.024,-0.0048 0.034,-0.0105 0.011,-0.0058 0.021,-0.0136 0.028,-0.023 0.008,-0.0094 0.014,-0.0202 0.017,-0.0318 0.004,-0.0117 0.005,-0.0239 0.004,-0.0359 -0.003,-0.0244 -0.015,-0.0467 -0.034,-0.0621 -0.019,-0.0155 -0.043,-0.0228 -0.068,-0.0205 l -2.828,0.2885 c -0.024,0.0021 -0.046,0.0134 -0.061,0.0314 -0.016,0.018 -0.024,0.0414 -0.023,0.0652 0.001,0.0238 0.012,0.0463 0.029,0.0626 0.018,0.0164 0.041,0.0254 0.064,0.0251 z m 0.645,9.9246 c 0.512,-2e-4 1.866,-0.1867 2.827,-0.3594 0.003,-6e-4 0.006,-0.0017 0.008,-0.0033 0.003,-0.0017 0.005,-0.0038 0.007,-0.0063 10e-4,-0.0025 0.003,-0.0053 0.003,-0.0083 0.001,-0.0029 0.001,-0.006 0,-0.009 0,-0.003 -0.001,-0.0059 -0.003,-0.0084 -0.001,-0.0026 -0.003,-0.0048 -0.006,-0.0066 -0.002,-0.0017 -0.005,-0.0029 -0.008,-0.0035 -0.003,-7e-4 -0.006,-7e-4 -0.009,-1e-4 -0.959,0.1724 -2.309,0.3586 -2.819,0.3588 -0.003,0 -0.006,6e-4 -0.009,0.0017 -0.003,0.0012 -0.005,0.0029 -0.008,0.005 -0.002,0.0022 -0.003,0.0047 -0.005,0.0075 -0.001,0.0028 -0.001,0.0058 -0.001,0.0088 0,0.0031 0,0.0061 0.001,0.0089 0.002,0.0028 0.003,0.0053 0.005,0.0074 0.003,0.0022 0.005,0.0039 0.008,0.005 0.003,0.0012 0.006,0.0018 0.009,0.0018 z"
       fill="#fcce95"
       id="path59" />
    <path
       d="m 220.702,82.8948 c 0,0 -0.566,-0.4143 -0.625,-0.6973 -0.059,-0.283 0.224,-0.6957 0.224,-0.6957 0,0 -0.482,-0.244 -0.587,-0.3323 -0.218,-0.1828 -0.208,-0.5461 -0.114,-0.605 0.094,-0.059 0.236,-0.0826 0.236,-0.0826 0,0 -0.23,-0.0354 -0.224,-0.3242 0.006,-0.2889 0.129,-0.5365 0.194,-0.5778 0.065,-0.0412 0.207,-0.0312 0.207,-0.0312 0,0 -0.083,-0.2989 -0.089,-0.5053 -0.006,-0.2063 0.165,-0.4137 0.277,-0.4427 0.112,-0.0289 0.148,-0.0702 0.148,-0.0702 0.039,-0.5581 0.11,-0.8961 0.699,-0.8411 0.59,0.0551 1.454,0.6446 1.73,1.0298 0.275,0.3852 0.125,1.0801 0.039,1.4935 -0.263,1.2693 -1.993,2.7773 -2.115,2.6821 z"
       fill="#e5906b"
       id="path61" />
    <path
       d="m 220.896,80.7222 c 0.018,-1e-4 0.034,-0.0066 0.047,-0.0182 0.013,-0.0117 0.021,-0.0277 0.022,-0.0449 0.002,-0.0172 -0.003,-0.0343 -0.014,-0.0481 -0.01,-0.0137 -0.025,-0.0231 -0.042,-0.0263 l -1.155,-0.2108 c -0.018,-0.0032 -0.036,9e-4 -0.051,0.0113 -0.016,0.0104 -0.026,0.0264 -0.029,0.0444 -0.004,0.0181 0,0.0367 0.011,0.0518 0.01,0.0151 0.026,0.0255 0.044,0.0288 l 1.155,0.2108 c 0.004,8e-4 0.008,0.0012 0.012,0.0012 z m 0.289,-0.9226 c 0.018,-1e-4 0.034,-0.0065 0.047,-0.018 0.012,-0.0116 0.02,-0.0274 0.022,-0.0445 0.002,-0.017 -0.003,-0.0341 -0.013,-0.0479 -0.01,-0.0138 -0.025,-0.0234 -0.042,-0.0268 -0.305,-0.0616 -1.142,-0.1774 -1.177,-0.1823 -0.019,-0.0025 -0.037,0.0023 -0.052,0.0134 -0.014,0.0111 -0.024,0.0275 -0.027,0.0457 -0.002,0.0182 0.003,0.0367 0.014,0.0514 0.011,0.0146 0.027,0.0243 0.046,0.0268 0.008,0.0011 0.868,0.1201 1.169,0.1808 0.004,9e-4 0.009,0.0014 0.013,0.0014 z m 0.537,-0.8283 c 0.016,0 0.031,-0.0054 0.043,-0.0154 0.013,-0.0099 0.021,-0.0238 0.024,-0.0393 0.004,-0.0155 0.002,-0.0317 -0.005,-0.0458 -0.008,-0.0141 -0.019,-0.0254 -0.034,-0.0319 -0.345,-0.1552 -1.304,-0.3834 -1.407,-0.3774 -0.009,7e-4 -0.018,0.0032 -0.026,0.0073 -0.008,0.0041 -0.015,0.0098 -0.021,0.0167 -0.006,0.0069 -0.011,0.0149 -0.014,0.0235 -0.002,0.0087 -0.004,0.0178 -0.003,0.0268 0.001,0.0091 0.003,0.018 0.007,0.0261 0.005,0.0081 0.01,0.0153 0.017,0.0212 0.007,0.006 0.015,0.0105 0.024,0.0133 0.008,0.0028 0.017,0.0039 0.026,0.0032 0.089,4e-4 0.999,0.2118 1.34,0.3656 0.009,0.004 0.019,0.0061 0.029,0.0061 z m -1.162,2.7178 c 0.017,-1e-4 0.033,-0.0061 0.046,-0.0171 0.012,-0.011 0.021,-0.0261 0.023,-0.0426 0.002,-0.0166 -0.002,-0.0334 -0.011,-0.0474 -0.009,-0.014 -0.023,-0.0242 -0.039,-0.0288 -0.16,-0.046 -0.273,-0.0862 -0.274,-0.0866 -0.017,-0.0054 -0.036,-0.004 -0.052,0.004 -0.016,0.008 -0.028,0.0218 -0.034,0.0387 -0.006,0.0168 -0.005,0.0354 0.002,0.0517 0.007,0.0164 0.021,0.0292 0.037,0.0359 0.005,0.0017 0.118,0.0422 0.283,0.0894 0.007,0.0019 0.013,0.0028 0.019,0.0028 z"
       fill="#b06556"
       id="path63" />
    <path
       d="m 209.388,77.0781 c 0.613,0.5031 3.144,0.7087 4.543,1.7064 1.399,0.9977 1.902,4.6021 2.264,5.7869 0.361,1.1847 0.524,1.845 0.513,1.8922 -0.01,0.0471 -3.751,0.5784 -3.751,0.5784 0,0 -0.457,1.8112 -0.315,2.8802 0.141,1.069 0.298,0.9118 0.283,1.7136 -0.016,0.8017 -0.33,0.8332 0,1.2419 0.33,0.4087 0.581,0.5345 0.566,1.1948 -0.016,0.6603 -0.252,1.087 -0.095,1.5418 0.158,0.4547 0.378,0.6748 0.283,0.9421 -0.094,0.2672 -1.509,0.8005 -6.508,1.2413 -4.999,0.4409 -6.985,-0.8797 -7.054,-1.3513 -0.068,-0.4716 -0.256,-1.0612 -0.115,-1.5093 0.142,-0.448 0.398,-0.731 0.517,-1.0611 0.12,-0.3302 -0.281,-1.0612 -0.21,-1.3913 0.07,-0.3302 0.211,-3.718 0.21,-3.8988 -0.001,-0.1808 -2.922,-2.3975 -2.922,-2.3975 0,0 1.816,-6.7611 2.216,-7.4719 0.401,-0.7108 3.889,-1.2887 3.889,-1.2887 0,0 0.407,1.5919 2.362,1.6391 1.956,0.0471 3.324,-1.9888 3.324,-1.9888 z"
       fill="#67b5af"
       id="path65" />
    <path
       d="m 200.52,87.1453 c 0.017,0 0.033,-0.0034 0.048,-0.0099 0.015,-0.0066 0.029,-0.0162 0.04,-0.0282 0.012,-0.0121 0.02,-0.0263 0.026,-0.0419 0.005,-0.0155 0.007,-0.032 0.006,-0.0485 -0.238,-3.4035 -0.253,-4.2583 -0.093,-5.3804 0.002,-0.0156 0.001,-0.0315 -0.003,-0.0467 -0.004,-0.0153 -0.011,-0.0296 -0.02,-0.0423 -0.01,-0.0126 -0.022,-0.0232 -0.035,-0.0312 -0.014,-0.008 -0.029,-0.0133 -0.044,-0.0155 -0.016,-0.0022 -0.032,-0.0013 -0.047,0.0026 -0.015,0.0039 -0.03,0.0108 -0.042,0.0203 -0.013,0.0095 -0.024,0.0213 -0.032,0.0349 -0.008,0.0136 -0.013,0.0286 -0.015,0.0442 -0.171,1.1991 -0.136,2.1777 0.092,5.4309 0.002,0.0303 0.015,0.0587 0.038,0.0794 0.022,0.0207 0.051,0.0323 0.081,0.0323 z"
       fill="#3b8a80"
       id="path67" />
    <path
       d="m 198.703,84.5934 c 0.038,0 0.076,-0.0012 0.114,-0.0033 0.865,-0.0509 1.603,-0.6632 2.024,-1.6802 0.194,-0.4676 0.342,-0.9498 0.484,-1.4163 0.517,-1.6861 0.928,-3.4807 3.488,-4.7335 l 0.146,-0.4539 c -2.775,1.3587 -3.635,3.3002 -4.163,5.0252 -0.146,0.4748 -0.283,0.9235 -0.467,1.3663 -0.341,0.8252 -0.89,1.3007 -1.545,1.3391 -0.614,0.0389 -1.231,-0.3357 -1.573,-0.9471 -0.752,-1.3457 -1.404,-3.1625 -1.41,-3.1807 l -0.522,0.1862 c 0.027,0.0761 0.673,1.878 1.449,3.2651 0.424,0.7588 1.19,1.2331 1.975,1.2331 z"
       fill="#bb272d"
       id="path69" />
    <path
       d="m 215.236,88.4978 c 0.032,0 0.061,-0.0228 0.068,-0.0556 0.002,-0.0088 0.19,-0.8924 1.315,-2.0248 0.012,-0.013 0.02,-0.0307 0.02,-0.049 0,-0.0184 -0.008,-0.036 -0.021,-0.049 -0.013,-0.0129 -0.03,-0.0201 -0.049,-0.0201 -0.018,1e-4 -0.036,0.0074 -0.049,0.0205 -1.157,1.1653 -1.345,2.0578 -1.352,2.0953 -0.002,0.01 -0.002,0.0204 0.001,0.0303 0.002,0.0099 0.007,0.0191 0.014,0.027 0.006,0.008 0.014,0.0143 0.023,0.0187 0.01,0.0044 0.02,0.0067 0.03,0.0067 z"
       fill="#b06556"
       id="path71" />
    <path
       d="m 202.419,82.8035 c 1.063,0 2.162,-0.3088 3.282,-0.924 2.587,-1.4202 3.63,-3.435 3.887,-4.4756 l -0.439,-0.9576 c -0.239,0.9696 -1.32,3.6329 -3.715,4.9475 -1.435,0.7879 -2.821,1.0325 -4.119,0.7281 -1.048,-0.2465 -1.78,-0.6471 -2.822,-1.482 -1.083,-0.8676 -2.278,-1.9286 -3.093,-3.0708 l -0.175,0.213 c 0.845,1.1839 1.842,2.2401 2.965,3.1396 1.061,0.8502 1.828,1.4646 2.998,1.7396 0.404,0.0947 0.817,0.1424 1.231,0.1422 z"
       fill="#e74854"
       id="path73" />
    <path
       d="m 196.103,78.7403 c 0.114,0.5035 -0.11,1.6224 -0.098,1.9001 0.012,0.2777 -0.06,0.4664 0,0.6196 0.059,0.1533 0.617,2.0438 1.246,3.2071 0.518,0.9588 1.289,2.2756 1.289,2.2756 0,0 1.769,0.283 1.887,0.3655 0.118,0.0826 0.129,1.863 0,2.7944 -0.13,0.9315 -1.274,1.8984 -1.863,1.8512 -0.59,-0.0472 -1.486,-0.8254 -2.075,-2.1223 -0.59,-1.297 -2.498,-7.157 -2.7,-7.3339 -0.201,-0.1769 -1.816,-2.242 -1.84,-2.53 -0.023,-0.288 3.411,-1.5378 3.586,-1.4081 0.175,0.1297 0.568,0.3808 0.568,0.3808 z"
       fill="#e5906b"
       id="path75" />
    <path
       opacity="0.28"
       d="m 194.916,80.1041 c -0.919,0.7078 -1.202,0.4012 -1.202,0.4012 0,0 -0.023,0.2123 -0.306,0.2909 -0.283,0.0786 -0.629,-0.0865 -0.826,-0.2516 -0.196,-0.165 -0.573,-0.7231 -0.518,-0.8253 0.055,-0.1022 1.416,-0.849 1.726,-0.6996 0.309,0.1493 1.126,1.0844 1.126,1.0844 z"
       fill="#b06556"
       id="path77" />
    <path
       d="m 192.963,79.4533 c -0.397,-0.7328 -0.125,-1.6488 0.608,-2.0459 0.733,-0.3971 1.649,-0.1249 2.046,0.6079 0.397,0.7329 0.125,1.6489 -0.608,2.046 -0.733,0.3971 -1.649,0.1249 -2.046,-0.608 z"
       fill="#fbab3d"
       id="path79" />
    <path
       d="m 194.184,76.8406 c 0.017,-0.0584 0.045,-0.113 0.083,-0.1606 0.038,-0.0475 0.084,-0.0871 0.138,-0.1165 0.053,-0.0294 0.111,-0.0481 0.172,-0.0548 0.06,-0.0067 0.121,-0.0015 0.18,0.0155 0.058,0.0169 0.113,0.0452 0.16,0.0833 0.047,0.038 0.087,0.0851 0.116,0.1384 0.029,0.0533 0.048,0.1119 0.054,0.1723 0.007,0.0605 0.001,0.1216 -0.016,0.1799 -0.034,0.1172 -0.114,0.216 -0.221,0.2747 -0.107,0.0587 -0.233,0.0725 -0.351,0.0384 -0.117,-0.034 -0.216,-0.1132 -0.275,-0.2202 -0.059,-0.1069 -0.074,-0.2329 -0.04,-0.3504 z"
       fill="#fbab3d"
       id="path81" />
    <path
       d="m 193.227,78.4207 c 0.171,-0.5879 0.786,-0.926 1.374,-0.7554 0.588,0.1707 0.926,0.7856 0.755,1.3734 -0.17,0.5879 -0.785,0.926 -1.373,0.7554 -0.588,-0.1707 -0.926,-0.7856 -0.756,-1.3734 z"
       fill="#e88e33"
       id="path83" />
    <path
       d="m 194.899,78.6808 0.093,-0.3214 c -0.319,-0.0926 -0.403,-0.1678 -0.416,-0.379 l -0.327,-0.0951 -0.46,1.5828 0.436,0.1267 0.297,-1.0234 z"
       fill="#fbab3d"
       id="path85" />
    <path
       d="m 194.242,77.2205 c -0.157,0.5109 -0.314,0.7772 -0.362,0.8244 -0.047,0.0471 -0.212,0.0628 -0.212,0.0628 0,0 0.063,0.015 0.063,0.322 0,0.3069 -0.259,0.3934 -0.424,0.3147 l -0.165,-0.0786 c 0,0 0.833,0.7625 0.872,1.1084 0.039,0.3458 -0.402,0.4543 -0.559,0.3175 l -0.156,-0.1367 c 0,0 0.283,0.3537 0.243,0.5267 -0.039,0.1729 -0.408,0.2043 -0.565,0.0943 -0.158,-0.1101 -0.849,-0.4795 -0.983,-0.7232 -0.134,-0.2437 -0.197,-0.5188 -0.055,-0.6524 0.141,-0.1337 0.306,-0.0629 0.306,-0.0629 0,0 -0.267,-0.2358 -0.212,-0.5895 0.055,-0.3537 0.511,-0.4245 0.747,-0.2123 l 0.236,0.2123 c 0,0 -0.307,-0.4009 -0.401,-0.8254 -0.094,-0.4244 0.377,-0.5817 0.527,-0.5187 0.149,0.0628 0.235,0.1886 0.235,0.1886 0,0 0.016,-0.3144 0.276,-0.4088 0.259,-0.0944 0.589,0.2368 0.589,0.2368 z"
       fill="#e5906b"
       id="path87" />
    <path
       d="m 193.589,80.2795 c 0.014,0 0.028,-0.0043 0.039,-0.0123 0.012,-0.008 0.021,-0.0193 0.026,-0.0324 0.005,-0.0131 0.006,-0.0275 0.002,-0.0411 -0.003,-0.0137 -0.011,-0.026 -0.021,-0.0353 -0.724,-0.6421 -1.34,-1.1408 -1.347,-1.1458 -0.014,-0.0106 -0.032,-0.0153 -0.05,-0.013 -0.017,0.0023 -0.034,0.0113 -0.045,0.0252 -0.011,0.0139 -0.016,0.0316 -0.015,0.0495 0.002,0.0178 0.01,0.0343 0.023,0.0461 0.006,0.0049 0.621,0.5017 1.342,1.1416 0.013,0.0113 0.029,0.0175 0.046,0.0175 z"
       fill="#b06556"
       id="path89" />
    <path
       d="m 195.161,77.1564 c -0.302,0.1674 -0.228,0.621 -0.071,1.014 0.157,0.393 0.583,0.7131 0.7,0.7625 0.116,0.0493 0.416,-9e-4 0.314,-0.193 -0.102,-0.1922 -0.778,-1.6753 -0.943,-1.5835 z"
       fill="#e5906b"
       id="path91" />
    <path
       d="m 199.517,88.6547 c 0.009,0 0.019,-0.0021 0.028,-0.0062 0.009,-0.0041 0.017,-0.0101 0.024,-0.0175 0.006,-0.0075 0.011,-0.0162 0.014,-0.0257 0.003,-0.0095 0.004,-0.0195 0.002,-0.0293 -0.006,-0.043 -0.154,-1.0627 -1.025,-1.9365 -0.014,-0.0122 -0.031,-0.0187 -0.049,-0.0184 -0.018,3e-4 -0.035,0.0076 -0.047,0.0202 -0.013,0.0126 -0.02,0.0297 -0.021,0.0475 0,0.0179 0.006,0.0352 0.018,0.0484 0.837,0.8396 0.986,1.8476 0.987,1.8577 0.002,0.0166 0.011,0.0317 0.023,0.0427 0.013,0.011 0.029,0.0171 0.046,0.0171 z"
       fill="#b06556"
       id="path93" />
    <path
       d="m 212.988,87.228 h 0.002 c 0.032,-6e-4 0.062,-0.0139 0.084,-0.0369 0.022,-0.023 0.034,-0.0538 0.034,-0.0857 -0.04,-1.8713 -0.001,-2.0564 0.058,-2.3366 0.012,-0.0588 0.024,-0.1177 0.034,-0.1769 0.021,-0.1169 0.064,-0.3016 0.114,-0.5155 0.15,-0.6431 0.337,-1.4433 0.263,-1.8034 -0.003,-0.0154 -0.01,-0.0301 -0.018,-0.0431 -0.009,-0.0131 -0.021,-0.0243 -0.034,-0.0329 -0.013,-0.0087 -0.028,-0.0147 -0.043,-0.0176 -0.016,-0.003 -0.032,-0.0029 -0.047,3e-4 -0.015,0.0032 -0.03,0.0094 -0.043,0.0183 -0.013,0.0088 -0.024,0.0202 -0.033,0.0334 -0.009,0.0131 -0.015,0.0279 -0.018,0.0434 -0.003,0.0155 -0.003,0.0314 0.001,0.0468 0.063,0.3083 -0.132,1.1458 -0.262,1.7 -0.051,0.2175 -0.095,0.4053 -0.116,0.5289 -0.012,0.0658 -0.023,0.1189 -0.033,0.1688 -0.063,0.2965 -0.104,0.4924 -0.063,2.3912 0,0.0313 0.013,0.0612 0.036,0.0832 0.022,0.022 0.052,0.0343 0.084,0.0343 z"
       fill="#3b8a80"
       id="path95" />
    <path
       d="m 216.914,83.79 c -0.313,0.0306 -0.65,-0.1736 -0.841,-0.5141 -0.191,-0.3405 -1.36,-2.4389 -1.471,-2.5648 -0.112,-0.1258 -0.891,-1.7274 -1.02,-2.3075 -0.128,-0.5802 0.224,-1.1496 0.224,-1.1496 0,0 -0.086,-0.0963 -0.024,-0.2268 0.061,-0.1306 0.414,-0.3769 0.896,-0.1362 0.483,0.2408 0.357,0.8804 0.357,0.8804 l -0.076,0.1179 c 0,0 0.113,0.0213 0.171,0.151 0.059,0.1298 -0.054,0.2957 -0.054,0.2957 l 0.316,0.2449 -0.153,0.3797 c 0,0 -0.482,-0.125 -0.719,-0.4524 -0.237,-0.3274 -0.143,-0.5548 -0.085,-0.6221 l 0.059,-0.0673 c 0,0 -0.075,-0.0498 -0.115,-0.1651 -0.04,-0.1153 0.053,-0.2481 0.053,-0.2481 0,0 -0.029,-0.0688 -0.15,0.003 -0.12,0.0718 -0.214,0.189 -0.254,0.5071 -0.04,0.3182 0.536,1.6319 0.558,1.7169 0.022,0.0851 1.16,2.2958 1.464,2.6756 0.303,0.3799 0.547,0.2676 0.628,0.1829 0.08,-0.0848 0.236,1.2989 0.236,1.2989 z"
       fill="#fbab3d"
       id="path97" />
  </g>
  <g
     clip-path="url(#clip1_923_71300)"
     id="g193"
     transform="translate(-152.902,-16.00005)">
    <path
       d="m 182.747,138.073 c 0.28,0.445 0.311,0.98 -0.191,1.031 -0.635,0.065 -4.164,0.231 -5.025,0 -0.803,-0.215 -0.189,-1.472 0.303,-1.318 0.492,0.154 4.913,0.287 4.913,0.287 z"
       fill="#493333"
       id="path101" />
    <path
       d="m 182.712,138.27 c -0.003,0.008 -0.005,0.016 -0.009,0.024 -0.012,0.033 -0.028,0.063 -0.047,0.092 -0.007,0.011 -0.015,0.022 -0.023,0.033 -0.144,0.18 -4.972,0.107 -5.164,-0.15 -0.016,-0.021 0.461,-1.537 0.472,-1.551 0.473,-0.552 0.558,-1.604 0.54,-2.293 -0.02,-0.76 -0.109,-1.202 -0.258,-1.947 1.014,-0.079 2.028,-0.158 3.043,-0.238 -0.091,0.007 0.021,1.56 0.052,1.7 0.131,0.59 0.33,1.163 0.592,1.708 0.133,0.276 0.286,0.513 0.419,0.761 0.116,0.213 0.217,0.434 0.278,0.695 0.039,0.167 0.107,0.413 0.135,0.659 0.021,0.181 0.02,0.362 -0.03,0.507 z"
       fill="#dc896b"
       id="path103" />
    <path
       d="m 182.71,138.27 c -0.003,0.008 -0.006,0.016 -0.009,0.024 -0.012,0.032 -0.028,0.063 -0.047,0.092 -0.007,0.011 -0.015,0.022 -0.023,0.032 -0.116,0.145 -0.692,0.102 -0.851,0.112 -0.584,0.034 -1.035,0.047 -1.619,0.052 -0.589,0.005 -1.179,0.002 -1.767,-0.027 -0.211,-0.01 -0.423,-0.022 -0.633,-0.049 -0.281,-0.038 -0.473,-0.144 -0.468,-0.478 0.003,-0.17 0.064,-0.332 0.133,-0.488 0.072,-0.164 0.342,-0.72 0.479,-0.836 0.078,-0.066 0.855,-1.366 1.746,-1.505 1.596,-0.249 2.457,0.824 2.676,1.209 0.116,0.213 0.217,0.435 0.278,0.696 0.039,0.166 0.107,0.413 0.134,0.659 0.007,0.17 0.023,0.352 -0.029,0.507 z"
       fill="#9e4b28"
       id="path105" />
    <path
       d="m 179.823,136.506 c -0.504,0.042 -1.011,0.086 -1.492,0.242 -0.279,0.09 -0.653,0.189 -0.785,0.462 -0.068,0.14 0.153,0.263 0.221,0.122 0.122,-0.252 0.594,-0.349 0.853,-0.417 0.392,-0.102 0.798,-0.135 1.203,-0.168 0.162,-0.013 0.164,-0.254 0,-0.241 z"
       fill="#493333"
       id="path107" />
    <path
       d="m 169.357,132.616 c -0.563,-0.131 -0.661,-0.236 -1.229,-0.355 -0.664,-0.139 -1.32,-0.377 -1.991,-0.499 0.019,0.561 0.107,1.128 0.048,1.689 -0.072,0.68 -0.608,1.29 -1.078,1.721 -0.558,0.514 -1.262,0.955 -1.97,1.247 -1.091,0.449 -1.99,0.642 -2.247,1.219 -0.245,0.554 -0.064,0.642 0.129,0.706 0.192,0.065 7.249,0.194 7.955,-0.191 0.575,-0.314 0.702,-0.92 0.613,-2.255 -0.039,-0.586 -0.268,-0.792 -0.23,-3.282 z"
       fill="#dc896b"
       id="path109" />
    <path
       d="m 169.928,137.578 c -0.081,-0.502 -0.044,-1.112 -0.342,-1.68 -0.732,0.335 -1.094,0.579 -1.849,0.19 -0.431,-0.222 -0.638,-0.626 -0.954,-0.969 -0.241,-0.262 -0.517,-0.303 -0.816,-0.295 -0.315,0.008 -0.616,0.125 -0.853,0.332 -0.636,0.559 -1.416,1.031 -1.977,1.263 -1.092,0.449 -1.99,0.642 -2.247,1.219 -0.096,0.216 -0.126,0.361 -0.117,0.462 0.015,0.157 0.128,0.205 0.245,0.244 0.193,0.065 7.924,0.386 8.63,0 0.232,-0.126 0.337,-0.41 0.28,-0.766 z"
       fill="#9e4b28"
       id="path111" />
    <path
       d="m 164.876,136.632 c -0.862,-0.022 -1.724,-0.267 -2.574,-0.018 -0.166,0.049 -0.096,0.309 0.072,0.26 0.822,-0.241 1.667,0.007 2.502,0.028 0.174,0.005 0.174,-0.265 0,-0.27 z m 5.029,1.216 c 0.461,0.821 0.287,1.219 0.154,1.311 -0.133,0.092 -9.034,0.055 -9.342,-0.055 -0.307,-0.109 -0.26,-1.039 0.055,-1.004 0.314,0.034 9.133,-0.252 9.133,-0.252 z"
       fill="#493333"
       id="path113" />
    <path
       d="m 166.11,95.9082 c -0.85,4.9088 -1.017,7.4218 -0.774,12.7658 0.243,5.343 0.324,9.533 -0.081,13.602 -0.405,4.068 -0.263,9.108 0,10.383 0.263,1.275 0.688,1.154 0.992,1.154 0.304,0 3.258,0.126 4.327,-0.106 1.068,-0.232 0.754,-1.121 0.754,-3.917 0,-3.56 0.065,-6.831 0.247,-8.972 0.183,-2.14 0.638,-4.736 0.547,-7.696 -0.091,-2.961 0.045,-4.6 0.228,-4.873 0.182,-0.274 0.683,0.501 0.91,3.051 0.228,2.55 0.638,6.239 1.185,7.97 0.546,1.73 2.231,8.653 2.322,10.702 0.091,2.05 -0.021,2.551 0.377,3.097 0.397,0.547 2.174,0.82 3.312,0.501 1.139,-0.319 1.98,0.346 2.493,-1.33 0.513,-1.676 -0.398,-7.46 -1.309,-10.42 -0.911,-2.96 -0.911,-11.112 -1.275,-15.621 -0.364,-4.508 -0.729,-8.5616 -1.366,-9.8368 -0.638,-1.2752 -12.889,-0.454 -12.889,-0.454 z"
       fill="#759bc5"
       id="path115" />
    <path
       d="m 160.098,80.5142 c -0.258,1.351 -0.638,1.9582 -0.592,2.2467 0.045,0.2884 1.761,3.6434 2.125,4.114 0.364,0.4706 0.731,0.5314 0.753,0.4706 0.021,-0.0607 0.689,-2.2012 0.689,-2.2012 0,0 0.288,0.2429 1.594,0.5769 1.305,0.334 2.08,0.5161 2.08,0.5161 0,0 -0.957,4.114 -1.989,5.4803 -1.032,1.3662 -1.735,1.9279 -2.567,1.427 -0.833,-0.501 -2.062,-3.2942 -2.867,-4.6301 -0.805,-1.3359 -1.64,-7.2412 -1.633,-7.3475 0.008,-0.1063 2.407,-0.6528 2.407,-0.6528 z"
       fill="#dc896b"
       id="path117" />
    <path
       d="m 153.92,70.9804 c 3.552,-0.3946 7.985,0.3492 8.213,0.4858 0.227,0.1366 -0.228,2.5504 -1.002,3.5675 -0.774,1.0171 -0.911,1.0171 -0.911,1.0171 0,0 0.137,-0.0303 0.167,0.2277 0.03,0.2581 -0.273,0.501 -0.273,0.501 0,0 0.273,-0.0911 0.531,0.2277 0.258,0.3189 0.088,0.9716 -0.131,1.0171 -0.218,0.0456 -0.021,0.0465 0.085,0.3269 0.107,0.2804 -0.015,0.6599 -0.333,0.8117 -0.319,0.1518 -0.35,0.3947 -0.35,0.3947 0,0 0.29,0.6919 0.319,0.8956 0.029,0.2037 -1.078,1.0474 -1.214,1.3663 -0.137,0.3188 -0.241,0.9867 -0.091,1.351 0.151,0.3644 0.28,0.8501 0.28,0.8501 0,0 0.312,-0.0455 0.509,0.2126 0.197,0.258 0.143,0.8045 0.143,0.8045 0,0 0.297,0.0152 0.328,0.2733 0.03,0.2581 0.015,1.3207 0.015,1.3207 l -4.494,0.0759 c 0,0 -0.06,-1.4421 0,-1.5484 0.061,-0.1063 0.198,-0.1821 0.198,-0.1821 0,0 0,-0.3189 0.045,-0.5769 0.046,-0.2581 0.501,-0.2733 0.501,-0.2733 l 0.091,-0.5167 -1.078,-4.9787 c 0,0 -0.151,-0.3795 -0.121,-0.6072 0.03,-0.2277 0.137,-0.4251 0.137,-0.4251 0,0 -0.274,-0.0911 -0.304,-0.4554 -0.03,-0.3644 0.455,-0.5162 0.455,-0.5162 0,0 -0.136,-0.1518 -0.167,-0.3643 -0.03,-0.2126 0.152,-0.4402 0.152,-0.4402 0,0 -0.729,-0.6225 -1.154,-1.8521 -0.425,-1.2295 -0.546,-2.9906 -0.546,-2.9906 z"
       fill="#fbab3d"
       id="path119" />
    <path
       d="m 159.946,75.9579 c -0.003,0 -0.005,-10e-5 -0.007,-3e-4 -0.025,-0.0018 -2.458,-0.1823 -3.851,-0.2123 -0.012,-2e-4 -0.024,-0.0028 -0.034,-0.0075 -0.011,-0.0047 -0.021,-0.0114 -0.029,-0.0199 -0.008,-0.0084 -0.014,-0.0184 -0.019,-0.0293 C 156.002,75.6777 156,75.666 156,75.6543 c 0.002,-0.0492 0.043,-0.0901 0.092,-0.0873 1.398,0.03 3.836,0.2109 3.86,0.2127 0.024,10e-4 0.046,0.0113 0.062,0.0286 0.016,0.0173 0.024,0.0402 0.023,0.0638 0,0.0235 -0.011,0.0457 -0.028,0.0618 -0.017,0.0161 -0.04,0.0247 -0.063,0.024 z m -0.085,0.9109 -0.002,-10e-5 c -0.649,-0.0152 -3.897,-0.0937 -4.06,-0.14 -0.011,-0.0031 -0.022,-0.0085 -0.031,-0.0157 -0.009,-0.0072 -0.017,-0.0162 -0.023,-0.0264 -0.006,-0.0102 -0.009,-0.0214 -0.011,-0.033 -0.001,-0.0116 0,-0.0234 0.003,-0.0347 0.003,-0.0113 0.008,-0.0219 0.016,-0.0311 0.007,-0.0092 0.016,-0.0169 0.026,-0.0227 0.01,-0.0057 0.021,-0.0094 0.033,-0.0109 0.012,-0.0014 0.023,-5e-4 0.035,0.0026 0.148,0.0323 2.482,0.0976 4.016,0.1337 0.024,3e-4 0.046,0.0099 0.063,0.0268 0.016,0.017 0.026,0.0397 0.025,0.0634 0,0.0236 -0.01,0.0462 -0.027,0.0627 -0.017,0.0165 -0.039,0.0257 -0.063,0.0254 z m 0.358,1.1385 c -0.003,0 -0.006,-1e-4 -0.008,-4e-4 l -4.585,-0.4099 c -0.011,-10e-4 -0.023,-0.0043 -0.033,-0.0097 -0.011,-0.0055 -0.02,-0.0129 -0.027,-0.0219 -0.008,-0.0089 -0.013,-0.0193 -0.017,-0.0305 -0.003,-0.0112 -0.005,-0.0229 -0.004,-0.0346 0.001,-0.0117 0.004,-0.0231 0.01,-0.0335 0.005,-0.0104 0.013,-0.0197 0.022,-0.0272 0.009,-0.0075 0.019,-0.0132 0.03,-0.0167 0.012,-0.0034 0.023,-0.0046 0.035,-0.0035 l 4.585,0.4099 c 0.023,0.0019 0.044,0.0127 0.059,0.0299 0.015,0.0173 0.023,0.0398 0.022,0.0629 -0.001,0.023 -0.011,0.0447 -0.027,0.0606 -0.017,0.0159 -0.039,0.0247 -0.062,0.0246 z m -3.765,6.2089 c -0.023,-5e-4 -0.045,-0.0099 -0.061,-0.0263 -0.017,-0.0163 -0.026,-0.0382 -0.026,-0.0613 -10e-4,-0.023 0.008,-0.0453 0.023,-0.0622 0.016,-0.017 0.037,-0.0272 0.06,-0.0286 l 2.756,-0.1063 c 0.048,0 0.09,0.0365 0.092,0.0857 0.001,0.0236 -0.008,0.0467 -0.024,0.064 -0.016,0.0174 -0.038,0.0277 -0.062,0.0286 l -2.755,0.1062 c -0.001,1e-4 -0.002,2e-4 -0.003,2e-4 z m 3.407,0.9109 h -10e-4 l -3.954,-0.0608 c -0.024,-1e-4 -0.046,-0.0097 -0.063,-0.0266 -0.016,-0.0168 -0.026,-0.0396 -0.026,-0.0633 0.001,-0.0236 0.01,-0.0462 0.027,-0.0628 0.017,-0.0166 0.04,-0.0259 0.063,-0.0257 h 0.002 l 3.953,0.0608 c 0.024,1e-4 0.047,0.0097 0.063,0.0266 0.017,0.0168 0.026,0.0396 0.026,0.0632 0,0.0237 -0.01,0.0463 -0.027,0.0629 -0.017,0.0166 -0.039,0.0259 -0.063,0.0257 z"
       fill="#e88e33"
       id="path121" />
    <path
       d="m 154.514,70.926 c 0.31,2.995 1.576,4.4873 1.576,4.4873 0,0 -0.228,0.0759 -0.266,0.4554 -0.037,0.3795 0.175,0.8426 0.175,0.8426 0,0 -0.288,-0.0532 -0.364,0.2201 -0.076,0.2733 0.276,0.6016 0.276,0.6016 0,0 -0.23,0.0512 -0.276,0.3244 -0.046,0.2733 0.258,0.4939 0.258,0.4939 l 0.38,0.0678 c 0,0 -0.076,-0.2883 -0.183,-0.5009 -0.106,-0.2126 0.063,-0.3636 0.063,-0.3636 0,0 -0.078,-0.2891 -0.138,-0.4409 -0.061,-0.1518 0.258,-0.4404 0.258,-0.4404 0,0 -0.091,-0.4401 -0.076,-0.6071 0.015,-0.167 0.244,-0.4 0.244,-0.4 0,0 -0.259,-1.0878 -0.533,-2.3325 -0.178,-0.8125 -0.159,-1.8445 -0.125,-2.4636 -0.426,0.0065 -0.851,0.0243 -1.269,0.0559 z m 6,7.0984 c 0.218,-0.0455 0.389,-0.6984 0.131,-1.0171 -0.021,-0.0258 -0.042,-0.0449 -0.063,-0.0655 0.053,0.5554 -0.72,0.9444 -0.72,0.9444 0,0 0.327,-0.0136 0.358,0.3811 0.03,0.3947 -0.699,0.6831 -1.01,0.7287 -0.311,0.0455 -1.784,0 -1.784,0 0,0 1.473,0.1669 1.655,0.258 0.182,0.0912 0.26,0.4895 -0.075,0.556 -0.335,0.0664 -0.593,0.0815 -0.593,0.0815 0,0 0.562,0.0912 0.729,0.2885 0.167,0.1974 0.013,0.6105 -0.305,0.8897 -0.214,0.188 -0.153,0.9094 0.033,1.3889 0.025,-0.2455 0.084,-0.4838 0.15,-0.6391 0.137,-0.3188 1.244,-1.1626 1.215,-1.3663 -0.029,-0.2036 -0.319,-0.8955 -0.319,-0.8955 0,0 0.03,-0.2429 0.349,-0.3948 0.319,-0.1518 0.44,-0.5313 0.334,-0.8118 -0.106,-0.2803 -0.304,-0.2812 -0.085,-0.3267 z m 1.618,-6.5581 c -0.032,-0.0196 -0.154,-0.052 -0.345,-0.0915 -0.082,1.9303 -1.787,4.4104 -2.038,4.4939 -0.1,0.0332 0.134,0.1069 0.495,0.1717 0.064,-0.0366 0.278,-0.2069 0.886,-1.0066 0.775,-1.0172 1.23,-3.4309 1.002,-3.5675 z"
       fill="#e88e33"
       id="path123" />
    <path
       opacity="0.25"
       d="m 159.417,71.0386 c 0.034,0.233 0.054,0.4881 0.044,0.7767 -0.033,0.9744 -0.369,2.1878 -0.911,4.1443 -0.016,0.0566 -0.041,0.1479 -0.068,0.2733 -0.164,0.7549 -0.059,1.2234 -0.023,2.0039 0.007,0.1638 -0.004,-0.0071 -0.023,1.5484 -0.014,1.1708 -0.007,1.2659 0.023,1.4118 0.067,0.3236 0.223,0.7592 0.433,1.0978 0.03,-0.1848 0.077,-0.355 0.129,-0.4754 0.136,-0.3188 1.243,-1.1626 1.214,-1.3663 -0.029,-0.2036 -0.319,-0.8955 -0.319,-0.8955 0,0 0.031,-0.2429 0.349,-0.3948 0.319,-0.1518 0.441,-0.5313 0.334,-0.8118 -0.106,-0.2803 -0.303,-0.2812 -0.085,-0.3267 0.219,-0.0455 0.389,-0.6984 0.131,-1.0171 -0.258,-0.3189 -0.531,-0.2278 -0.531,-0.2278 0,0 0.303,-0.2428 0.273,-0.5009 -0.031,-0.2581 -0.167,-0.2277 -0.167,-0.2277 0,0 0.136,0 0.911,-1.0171 0.774,-1.0171 1.229,-3.4308 1.002,-3.5675 -0.111,-0.0663 -1.21,-0.2749 -2.716,-0.4276 z"
       fill="#e88e33"
       id="path125" />
    <path
       d="m 155.738,78.3619 c 0.185,-0.0057 0.451,-0.0149 0.505,0.0514 0.053,0.0663 -0.061,0.2939 -0.076,0.5369 -0.015,0.2429 0.327,0.7059 0.327,0.7059 0,0 0.9,-0.2576 1.281,0.0913 0.381,0.3489 0.273,0.7968 0.069,0.8575 -0.204,0.0607 -0.151,0.5617 -0.151,0.5617 0,0 1.193,0.1272 1.085,0.4099 -0.108,0.2827 -0.532,0.7926 -0.532,0.7926 0,0 0.16,0.3611 -0.257,0.5357 -0.418,0.1746 -1.283,0.9108 -1.503,0.6679 -0.22,-0.2428 -0.516,-2.3454 -0.577,-2.6565 -0.061,-0.3112 -0.797,-1.8825 -0.842,-1.9356 -0.046,-0.0533 0.671,-0.6187 0.671,-0.6187 z"
       fill="#ca7829"
       id="path127" />
    <path
       d="m 155.738,78.362 c -0.323,-0.0691 -0.843,0.205 -0.968,0.3871 -0.125,0.1822 -0.171,0.6148 0,0.7401 0.171,0.1252 0.82,0.6262 0.82,0.6262 0,0 -0.16,0.2733 -0.183,0.6831 -0.022,0.4099 0.046,0.5352 0.046,0.5693 0,0.0341 -0.034,0.5693 0,0.7856 0.034,0.2163 0.956,1.4687 1.013,1.5143 0.057,0.0455 0.365,-0.501 0.513,-0.6604 0.148,-0.1594 0.114,-0.3644 0.114,-0.3644 0,0 0.648,0.0342 0.967,-0.0569 0.319,-0.0911 0.251,-0.6832 -0.296,-0.706 -0.546,-0.0227 -1.161,0.057 -1.161,0.057 0,0 -0.034,-0.1936 0.387,-0.2277 0.421,-0.0342 1.503,0.1138 1.776,0.0114 0.273,-0.1025 0.171,-0.7223 -0.057,-0.7369 -0.228,-0.0145 -1.628,-0.1512 -1.787,-0.1512 -0.16,0 -0.718,0.1512 -0.718,0.1512 0,0 0.205,-0.3903 0.422,-0.4586 0.216,-0.0683 0.888,0.0228 1.115,-0.1025 0.228,-0.1252 0.262,-0.6262 -0.057,-0.7173 -0.318,-0.091 -1.594,-0.091 -1.594,-0.091 l -0.432,-0.6035 c 0,10e-5 0.341,-0.5929 0.08,-0.6489 z m 4.178,1.1955 c -0.683,0.6179 -0.865,0.8425 -0.569,1.3207 0.227,0.3665 0.854,-0.148 1.104,-0.3871 0.251,-0.2391 -0.314,-1.1338 -0.535,-0.9336 z"
       fill="#dc896b"
       id="path129" />
    <path
       d="m 155.558,80.1801 c -0.017,0 -0.034,-0.0048 -0.048,-0.0139 -0.014,-0.0091 -0.026,-0.0222 -0.033,-0.0375 -0.007,-0.0154 -0.01,-0.0325 -0.007,-0.0494 0.002,-0.0168 0.009,-0.0326 0.02,-0.0456 0.013,-0.0159 0.327,-0.3898 0.543,-0.5733 0.018,-0.0147 0.041,-0.0217 0.064,-0.0196 0.023,0.0021 0.045,0.0133 0.06,0.0311 0.015,0.0177 0.023,0.0407 0.021,0.064 -0.002,0.0233 -0.012,0.045 -0.03,0.0605 -0.204,0.1736 -0.519,0.548 -0.522,0.5518 -0.008,0.01 -0.019,0.0181 -0.03,0.0236 -0.012,0.0055 -0.025,0.0084 -0.038,0.0083 z"
       fill="#ce5d4c"
       id="path131" />
    <path
       d="m 154.132,86.5103 c 0.865,-0.1201 1.503,-0.1822 1.731,-0.1822 0.227,0 5.419,0.2733 5.419,0.2733 0,0 0.046,3.3549 0,3.3549 -0.045,0 1.503,1.1386 1.002,1.1082 -0.501,-0.0303 -9.382,-0.0759 -9.382,-0.1214 0,-0.0456 1.23,-1.0627 1.23,-1.0627 0,0 -0.085,-3.3583 0,-3.3701 z"
       fill="#3e4042"
       id="path133" />
    <path
       d="M 155.711,89.9108 V 86.334 c -0.3,0.0171 -0.858,0.0764 -1.579,0.1762 -0.085,0.0119 0,3.3701 0,3.3701 0,0 -1.23,1.0171 -1.23,1.0627 0,0.0145 0.907,0.0291 2.156,0.0431 z m 0.926,1.0607 c -0.021,0 -0.041,-0.0074 -0.057,-0.0207 -0.016,-0.0134 -0.027,-0.032 -0.031,-0.0525 l -0.184,-1.0179 v -3.4536 c 0,-0.0237 0.01,-0.0464 0.027,-0.0631 0.016,-0.0167 0.039,-0.0261 0.063,-0.0261 0.023,0 0.046,0.0094 0.063,0.0261 0.016,0.0167 0.026,0.0394 0.026,0.0631 v 3.4456 l 0.181,0.994 c 0.002,0.0128 0.001,0.026 -0.002,0.0387 -0.003,0.0126 -0.009,0.0244 -0.018,0.0344 -0.008,0.01 -0.019,0.0181 -0.03,0.0236 -0.012,0.0056 -0.025,0.0084 -0.038,0.0084 z"
       fill="#656666"
       id="path135" />
    <path
       opacity="0.62"
       d="m 156.82,89.9694 c -0.023,0 -0.046,-0.0093 -0.062,-0.0258 -0.017,-0.0165 -0.026,-0.0389 -0.027,-0.0624 l -0.038,-3.4537 c 0,-0.0117 0.002,-0.0233 0.007,-0.0342 0.004,-0.0108 0.011,-0.0207 0.019,-0.0291 0.008,-0.0084 0.018,-0.0151 0.029,-0.0197 0.01,-0.0045 0.022,-0.007 0.034,-0.0071 h 10e-4 c 0.048,0 0.088,0.0393 0.089,0.0882 l 0.038,3.4537 c 0,0.0117 -0.002,0.0233 -0.007,0.0342 -0.004,0.0108 -0.011,0.0207 -0.019,0.0291 -0.008,0.0084 -0.018,0.0151 -0.028,0.0197 -0.011,0.0046 -0.023,0.007 -0.035,0.0071 z"
       fill="#656666"
       id="path137" />
    <path
       opacity="0.42"
       d="m 162.043,90.812 h -5.433 c -0.024,0 -0.047,-0.0094 -0.063,-0.0262 -0.017,-0.0167 -0.027,-0.0394 -0.027,-0.063 0,-0.0237 0.01,-0.0464 0.027,-0.0631 0.016,-0.0168 0.039,-0.0261 0.063,-0.0261 h 5.433 c 0.024,0 0.046,0.0093 0.063,0.0261 0.017,0.0167 0.026,0.0394 0.026,0.0631 0,0.0236 -0.009,0.0463 -0.026,0.063 -0.017,0.0168 -0.039,0.0262 -0.063,0.0262 z m -0.304,-0.334 h -5.19 c -0.024,0 -0.047,-0.0094 -0.063,-0.0262 -0.017,-0.0167 -0.026,-0.0394 -0.026,-0.0631 0,-0.0236 0.009,-0.0463 0.026,-0.063 0.016,-0.0168 0.039,-0.0262 0.063,-0.0262 h 5.19 c 0.024,0 0.047,0.0094 0.063,0.0262 0.017,0.0167 0.026,0.0394 0.026,0.063 0,0.0237 -0.009,0.0464 -0.026,0.0631 -0.016,0.0168 -0.039,0.0262 -0.063,0.0262 z m -0.508,-0.4251 h -0.002 l -4.774,-0.0835 c -0.024,-4e-4 -0.046,-0.0102 -0.063,-0.0272 -0.016,-0.017 -0.025,-0.0399 -0.025,-0.0635 0.001,-0.0492 0.043,-0.0863 0.091,-0.0877 l 4.774,0.0835 c 0.024,2e-4 0.046,0.0098 0.063,0.0267 0.017,0.0168 0.026,0.0396 0.026,0.0633 -0.001,0.0236 -0.01,0.0462 -0.027,0.0628 -0.017,0.0166 -0.04,0.0258 -0.063,0.0256 z"
       fill="#656666"
       id="path139" />
    <path
       d="m 163.651,89.6982 c -0.037,-1e-4 -0.072,-0.0134 -0.1,-0.0374 -0.028,-0.0241 -0.045,-0.0573 -0.05,-0.0936 -0.002,-0.0125 -0.19,-1.2794 -1.218,-2.2001 -0.015,-0.0131 -0.028,-0.0292 -0.037,-0.0473 -0.009,-0.018 -0.014,-0.0377 -0.015,-0.0578 -0.002,-0.0201 0.001,-0.0403 0.008,-0.0594 0.006,-0.019 0.017,-0.0366 0.03,-0.0516 0.014,-0.015 0.03,-0.0272 0.048,-0.0358 0.018,-0.0087 0.038,-0.0136 0.058,-0.0145 0.02,-9e-4 0.041,0.0023 0.06,0.0092 0.018,0.007 0.036,0.0177 0.051,0.0315 1.112,0.9972 1.307,2.3283 1.315,2.3844 0.003,0.0215 0.001,0.0434 -0.005,0.0641 -0.006,0.0208 -0.017,0.04 -0.031,0.0563 -0.014,0.0164 -0.032,0.0295 -0.052,0.0384 -0.019,0.009 -0.041,0.0136 -0.062,0.0136 z"
       fill="#ce5d4c"
       id="path141" />
    <path
       d="m 174.443,76.1387 c 1.459,0.3368 3.512,0.8183 3.67,1.0026 0.157,0.1844 -0.314,0.0174 -0.708,0.1085 -0.395,0.091 -2.004,0.5844 -2.52,0.3605 -0.516,-0.2239 -0.442,-1.4716 -0.442,-1.4716 z"
       fill="#495485"
       id="path143" />
    <path
       d="m 170.066,76.6665 c -2.772,1.2057 -4.48,1.6443 -5.14,2.2448 -0.66,0.6004 -2.714,5.6556 -2.734,5.8606 -0.021,0.2049 1.55,1.0019 2.802,1.3662 1.253,0.3644 1.458,0.2961 1.458,0.2961 0,0 0.319,5.3056 0.045,5.9887 -0.273,0.6832 0.41,0.8881 -0.114,1.6396 -0.523,0.7514 -1.381,2.5276 -0.865,3.4612 0.334,0.6031 1.321,1.0247 6.057,1.2069 4.737,0.1822 7.56,-0.2049 8.038,-1.9128 0.066,-0.233 -0.603,-2.186 -0.609,-2.4593 -0.005,-0.2733 0.587,-1.0474 0.2,-1.9127 -0.388,-0.8653 -0.385,-1.8065 -0.379,-2.5504 0.007,-0.7438 0.568,-4.9793 0.614,-5.1235 0.045,-0.1442 1.275,1.4801 1.503,1.7079 0.227,0.2277 0.971,-0.2278 1.29,-0.5617 0.319,-0.334 3.233,-2.9883 2.186,-4.4707 -0.047,-0.0671 -5.419,-3.5295 -6.41,-3.8369 -0.991,-0.3075 -7.942,-0.944 -7.942,-0.944 z"
       fill="#f6e9df"
       id="path145" />
    <path
       d="m 177.618,68.9434 c 0,0 1.706,-1.4176 1.181,-4.1219 -0.526,-2.7043 -2.649,-1.2209 -2.811,-1.098 -0.265,-0.5742 -1.053,-1.4 -2.697,-0.9833 -2.049,0.5194 -3.252,2.8056 -3.252,2.8056 0,0 -2.422,0.4085 -2.059,2.8015 0.462,3.0407 1.824,5.3437 3.219,6.1805 0.708,0.4246 6.419,-5.5844 6.419,-5.5844 z"
       fill="#1a1a1a"
       id="path147" />
    <path
       d="m 171.228,72.9346 c -0.19,2.0817 -1.218,4.3185 -1.124,4.6762 0.202,0.7711 1.587,0.9025 3.254,0.8217 0.883,-0.0426 1.375,-0.4031 1.571,-0.6746 0.022,-0.031 -0.007,-0.2897 0.038,-0.4849 0.248,-1.0714 0.592,-4.3873 0.592,-4.3873 z"
       fill="#dc896b"
       id="path149" />
    <path
       d="m 174.995,77.1417 c 0.16,-0.7777 0.352,-2.3644 0.465,-3.3656 -0.052,-0.2963 -0.108,-0.5921 -0.166,-0.8874 l -4.067,0.0458 c -0.034,0.3685 -0.035,0.3865 -0.067,0.7216 1.1,2.6054 2.863,3.4095 3.835,3.4856 z"
       fill="#1a1a1a"
       id="path151" />
    <path
       d="m 170.423,66.3635 c -0.025,0.0057 -0.05,0.0058 -0.075,2e-4 -0.025,-0.0055 -0.048,-0.0165 -0.067,-0.0323 -0.02,-0.0157 -0.036,-0.0356 -0.047,-0.0584 -0.011,-0.0227 -0.016,-0.0476 -0.016,-0.0728 0,-0.0036 -0.004,-0.4208 -0.277,-0.6512 -0.172,-0.1455 -0.423,-0.1916 -0.747,-0.1374 -0.225,0.0384 -0.431,0.1155 -0.611,0.2316 -0.037,0.0238 -0.082,0.032 -0.125,0.0226 -0.044,-0.0093 -0.081,-0.0353 -0.105,-0.0724 -0.024,-0.0372 -0.032,-0.0823 -0.023,-0.1255 0.009,-0.0432 0.035,-0.0809 0.072,-0.1049 0.219,-0.1406 0.467,-0.2358 0.737,-0.2801 0.426,-0.0715 0.77,4e-4 1.02,0.2136 0.391,0.3326 0.392,0.8823 0.392,0.9056 0,0.0374 -0.013,0.0737 -0.036,0.103 -0.023,0.0293 -0.056,0.0498 -0.092,0.0584 z"
       fill="#802c30"
       id="path153" />
    <path
       d="m 177.976,69.5881 c -0.006,0.554 0.295,4.7889 -0.74,6.0738 -0.547,0.679 -1.865,0.5517 -2.609,0.4944 -2.291,-0.1764 -3.61,-1.7018 -3.713,-3.5169 0,0 -2.18,-0.5575 -1.284,-2.1982 0.61,-1.1175 1.895,0.2828 1.895,0.2828 0,0 0.422,-0.6853 0.714,-2.2566 1.329,0.1365 4.188,-0.5218 4.944,-1.6661 0,0 0.802,1.8782 0.793,2.7868 z"
       fill="#dc896b"
       id="path155" />
    <path
       d="m 174.112,70.4598 c -0.083,-0.0764 -0.179,-0.1161 -0.283,-0.0998 -0.012,0 -0.024,6e-4 -0.035,0.0015 -0.005,-2e-4 -0.009,-0.0014 -0.014,-7e-4 -0.004,6e-4 -0.007,0.0025 -0.011,0.0032 -0.359,0.0507 -0.437,0.5477 -0.252,0.8155 0.025,0.0653 0.062,0.1236 0.122,0.1592 0.06,0.0353 0.132,0.0482 0.202,0.042 0.006,0.0025 0.011,0.0057 0.019,0.0068 0.169,0.0252 0.282,-0.0759 0.341,-0.2222 0.145,-0.2067 0.108,-0.5259 -0.089,-0.7055 z m 3.603,-0.3588 c -0.083,-0.0764 -0.179,-0.1161 -0.283,-0.0998 -0.012,0 -0.024,5e-4 -0.036,0.0015 -0.004,-2e-4 -0.008,-0.0014 -0.013,-7e-4 -0.004,6e-4 -0.007,0.0025 -0.011,0.0032 -0.359,0.0507 -0.437,0.5477 -0.252,0.8154 0.024,0.0654 0.062,0.1237 0.122,0.1593 0.06,0.0352 0.132,0.0481 0.202,0.0419 0.006,0.0026 0.011,0.0058 0.019,0.0069 0.169,0.0251 0.282,-0.0759 0.34,-0.2223 0.146,-0.2067 0.109,-0.5257 -0.088,-0.7054 z"
       fill="#1a1a1a"
       id="path157" />
    <path
       d="m 176.44,72.7024 c -0.018,-0.0934 -0.114,-0.1588 -0.208,-0.1394 l -0.277,0.0572 c -0.093,0.0193 -0.158,0.1134 -0.139,0.2078 0.018,0.0933 0.114,0.1588 0.207,0.1394 l 0.278,-0.0572 c 0.093,-0.0193 0.158,-0.1134 0.139,-0.2078 z"
       fill="#ce5d4c"
       id="path159" />
    <path
       d="m 174.586,68.257 c -0.196,0.151 -0.413,0.2701 -0.6,0.4319 -0.191,0.1643 -0.36,0.352 -0.543,0.5233 -0.166,0.1546 0.061,0.4263 0.228,0.2705 0.183,-0.1713 0.352,-0.3599 0.543,-0.5234 0.188,-0.1611 0.405,-0.2808 0.6,-0.432 0.18,-0.1391 -0.048,-0.4095 -0.228,-0.2703 z m 3.544,0.5569 c -0.131,-0.1781 -0.301,-0.2573 -0.501,-0.3384 -0.209,-0.0852 -0.367,0.2319 -0.155,0.3179 0.132,0.0537 0.272,0.0949 0.36,0.214 0.135,0.1827 0.431,-0.0101 0.296,-0.1935 z"
       fill="#802c30"
       id="path161" />
    <path
       d="m 176.636,73.5129 c -0.518,0.1343 -1.903,0.2165 -1.792,0.3945 0.398,0.6377 1.178,1.2458 1.726,0.8967 0.356,-0.2269 0.451,-0.8006 0.453,-1.1675 0,-0.0547 -0.005,-0.1157 -0.048,-0.1518 -0.057,-0.0477 -0.146,-0.0265 -0.22,-0.0048 -0.039,0.0117 -0.079,0.0226 -0.119,0.0329 z"
       fill="#ffffff"
       id="path163" />
    <path
       d="m 177.7,77.2974 c -0.672,0.245 -0.518,0.5806 -0.33,0.7742 0.188,0.1936 1.053,0.5635 1.224,0.649 0.17,0.0853 1.115,0.2438 1.224,0.1731 0.108,-0.0706 -0.336,-1.3686 -0.41,-1.4483 -0.074,-0.0797 -0.968,0.0455 -0.997,0.0455 -0.028,0 -0.711,-0.1935 -0.711,-0.1935 z"
       fill="#dc896b"
       id="path165" />
    <path
       d="m 178.755,85.1448 c 0.798,-0.1086 1.356,-0.8432 1.248,-1.6407 -0.109,-0.7975 -0.844,-1.3559 -1.641,-1.2472 -0.798,0.1086 -1.356,0.8432 -1.247,1.6407 0.108,0.7975 0.843,1.3559 1.64,1.2472 z"
       fill="#fbab3d"
       id="path167" />
    <path
       d="m 178.379,81.4478 h 0.357 v 0.9848 h -0.357 z"
       fill="#fbab3d"
       id="path169" />
    <path
       d="m 179.005,81.254 c 0,-0.1182 -0.047,-0.2317 -0.13,-0.3153 -0.084,-0.0836 -0.198,-0.1306 -0.316,-0.1306 -0.118,0 -0.231,0.047 -0.315,0.1306 -0.084,0.0836 -0.131,0.1971 -0.131,0.3153 0,0.1183 0.047,0.2317 0.131,0.3154 0.084,0.0836 0.197,0.1306 0.315,0.1306 0.118,0 0.232,-0.047 0.316,-0.1306 0.083,-0.0837 0.13,-0.1971 0.13,-0.3154 z"
       fill="#fbab3d"
       id="path171" />
    <path
       d="m 179.445,84.3029 c 0.331,-0.49 0.201,-1.1552 -0.289,-1.4857 -0.49,-0.3305 -1.155,-0.2013 -1.485,0.2887 -0.331,0.49 -0.202,1.1552 0.288,1.4858 0.49,0.3305 1.156,0.2012 1.486,-0.2888 z"
       fill="#e88e33"
       id="path173" />
    <path
       d="m 178.008,83.4929 v -0.3232 c 0.321,0 0.419,-0.047 0.488,-0.2395 h 0.329 v 1.5916 h -0.439 v -1.029 z"
       fill="#fbab3d"
       id="path175" />
    <path
       d="m 177.678,77.3864 c 0.363,0.467 0.296,3.0968 0.33,3.3549 0.034,0.2581 0.353,0.4858 0.551,0.592 0.197,0.1063 0.516,-0.3529 0.645,-0.5256 0.129,-0.1727 0.246,-2.4286 0.256,-2.6214 0.009,-0.1927 -1.023,-1.096 -1.175,-1.1453 -0.151,-0.0493 -3.431,0.2543 -5.458,0.2239 -2.026,-0.0304 -2.466,-0.8501 -2.557,-0.8046 -0.091,0.0456 -0.41,0.4359 -0.501,0.681 -0.091,0.245 0.03,0.7005 0.668,1.0192 0.638,0.3188 2.854,0.4782 3.674,0.2922 0.819,-0.1859 3.497,-1.1572 3.567,-1.0663 z"
       fill="#607cad"
       id="path177" />
    <path
       d="m 179.135,77.6107 c -0.486,0.2163 -0.721,0.2466 -0.873,0.1025 -0.152,-0.1443 -0.061,-0.3872 0.182,-0.4934 0.243,-0.1063 0.448,-0.3947 0.569,-0.5389 0.122,-0.1443 0.334,-0.7894 0.395,-0.8729 0.061,-0.0835 2.588,0.0303 2.748,0.0835 0.159,0.0531 1.244,2.5427 1.7,3.241 0.455,0.6983 3.613,5.9129 4.205,7.2564 0.592,1.3435 0.66,2.9602 0.159,3.6889 -0.501,0.7287 -1.935,0.5237 -3.051,-0.3188 -1.116,-0.8425 -3.325,-3.6661 -3.325,-3.6661 0,0 0.228,-0.6604 0.888,-1.2752 0.661,-0.6148 0.934,-0.7515 0.934,-0.7515 0,0 -0.729,-2.3454 -1.025,-2.9375 -0.296,-0.592 -0.888,-0.3416 -1.821,-1.1158 -0.934,-0.7742 -1.207,-1.1613 -1.207,-1.1613 v -0.5009 c 0,0 -0.213,-0.1822 -0.327,-0.4403 -0.114,-0.258 -0.151,-0.2997 -0.151,-0.2997 z"
       fill="#dc896b"
       id="path179" />
    <path
       d="m 181.646,78.983 c -0.021,0 -0.045,-3e-4 -0.069,-9e-4 -0.007,-1e-4 -0.719,-0.0175 -0.838,-0.166 -0.122,-0.1526 -0.165,-1.0307 -0.156,-1.177 0.015,-0.2447 0.162,-0.3707 1.05,-0.682 0.022,-0.0068 0.046,-0.0048 0.067,0.0056 0.02,0.0104 0.036,0.0283 0.044,0.0501 0.007,0.0218 0.006,0.0457 -0.003,0.0666 -0.01,0.021 -0.027,0.0375 -0.049,0.0459 -0.854,0.2996 -0.923,0.4023 -0.931,0.5249 -0.013,0.2167 0.053,0.9478 0.116,1.0521 0.104,0.0733 0.825,0.1344 0.986,0.0872 -0.001,-0.072 -0.078,-0.2779 -0.177,-0.4659 -0.005,-0.0104 -0.009,-0.0217 -0.01,-0.0334 -10e-4,-0.0117 0.001,-0.0234 0.004,-0.0346 0.004,-0.0112 0.009,-0.0215 0.017,-0.0305 0.007,-0.009 0.016,-0.0164 0.027,-0.0219 0.01,-0.0054 0.022,-0.0087 0.033,-0.0098 0.012,-10e-4 0.024,2e-4 0.035,0.0037 0.011,0.0035 0.021,0.0092 0.03,0.0167 0.009,0.0075 0.017,0.0167 0.022,0.0271 0.185,0.3532 0.239,0.5784 0.159,0.6694 -0.023,0.0259 -0.064,0.0727 -0.357,0.0727 z"
       fill="#ce5d4c"
       id="path181" />
    <path
       d="m 180.808,78.8495 c -0.005,0 -0.01,-5e-4 -0.015,-0.0013 -0.183,-0.0316 -0.787,-0.1524 -0.867,-0.3857 -0.056,-0.1672 -0.159,-1.3261 -0.042,-1.4762 0.084,-0.1083 0.333,-0.2481 1.314,-0.6096 0.022,-0.007 0.046,-0.0053 0.067,0.0048 0.02,0.0101 0.036,0.0278 0.044,0.0494 0.008,0.0216 0.007,0.0454 -0.002,0.0665 -0.009,0.0211 -0.026,0.0378 -0.047,0.0467 -0.48,0.177 -1.128,0.4252 -1.233,0.5479 -0.05,0.1302 0,1.1125 0.068,1.3132 0.03,0.089 0.408,0.2122 0.728,0.2672 0.022,0.0039 0.041,0.0158 0.055,0.0335 0.014,0.0176 0.02,0.0397 0.018,0.0619 -0.002,0.0221 -0.012,0.0428 -0.028,0.0579 -0.016,0.0152 -0.038,0.0236 -0.06,0.0238 z m -1.605,-1.0134 c -0.014,1e-4 -0.027,-0.0028 -0.039,-0.0084 -0.011,-0.0056 -0.022,-0.0138 -0.03,-0.024 -0.009,-0.0101 -0.015,-0.022 -0.018,-0.0348 -0.003,-0.0127 -0.004,-0.026 -0.001,-0.039 0.002,-0.0082 0.163,-0.8337 0.412,-1.6595 0.003,-0.0113 0.009,-0.0217 0.016,-0.0308 0.008,-0.0091 0.017,-0.0166 0.027,-0.0221 0.01,-0.0056 0.022,-0.009 0.033,-0.0102 0.012,-0.0012 0.024,-1e-4 0.035,0.0033 0.011,0.0034 0.022,0.0089 0.031,0.0163 0.009,0.0075 0.016,0.0166 0.022,0.0269 0.005,0.0103 0.009,0.0216 0.01,0.0333 0.001,0.0116 0,0.0234 -0.003,0.0346 -0.246,0.8171 -0.406,1.6341 -0.408,1.6422 -0.004,0.0203 -0.015,0.0387 -0.031,0.0518 -0.016,0.0132 -0.036,0.0204 -0.056,0.0204 z m 5.556,10.7307 c -0.035,0 -0.068,-0.0117 -0.095,-0.0332 -0.075,-0.0598 -0.1,-0.1572 -0.24,-0.8076 -0.19,-0.881 -0.509,-2.3555 -1.082,-3.8095 -0.013,-0.0371 -0.012,-0.0781 0.005,-0.1141 0.016,-0.0361 0.046,-0.0644 0.082,-0.0789 0.037,-0.0145 0.078,-0.014 0.115,0.0013 0.036,0.0153 0.065,0.0442 0.081,0.0806 0.581,1.4769 0.903,2.9666 1.095,3.8567 0.065,0.3027 0.127,0.5891 0.157,0.6583 0.018,0.0223 0.029,0.0492 0.032,0.0776 0.004,0.0284 -0.001,0.0572 -0.014,0.0829 -0.012,0.0258 -0.032,0.0475 -0.056,0.0627 -0.024,0.0152 -0.052,0.0232 -0.08,0.0232 z"
       fill="#ce5d4c"
       id="path183" />
    <path
       d="m 166.45,86.5239 c -0.023,0 -0.046,-0.0092 -0.062,-0.0257 -0.017,-0.0165 -0.026,-0.0389 -0.027,-0.0623 -0.022,-1.7227 -0.203,-3.9475 -0.204,-3.9698 -0.001,-0.0117 0,-0.0234 0.004,-0.0345 0.003,-0.0112 0.009,-0.0215 0.016,-0.0305 0.008,-0.0089 0.017,-0.0162 0.028,-0.0216 0.01,-0.0053 0.021,-0.0086 0.033,-0.0095 0.012,-0.0011 0.024,3e-4 0.035,0.0038 0.011,0.0036 0.021,0.0093 0.03,0.0169 0.009,0.0076 0.016,0.0169 0.022,0.0273 0.005,0.0105 0.008,0.0218 0.009,0.0335 0.002,0.0224 0.183,2.2531 0.206,3.982 0,0.0236 -0.009,0.0464 -0.026,0.0634 -0.016,0.0169 -0.039,0.0266 -0.062,0.027 z"
       fill="#e3d0ba"
       id="path185" />
    <path
       d="m 166.349,84.224 c -0.037,0 -0.072,-0.0235 -0.085,-0.0607 -0.003,-0.0104 -0.355,-1.0524 -0.601,-1.6714 -0.009,-0.022 -0.009,-0.0465 0,-0.0683 0.01,-0.0217 0.027,-0.0388 0.049,-0.0476 0.022,-0.0088 0.047,-0.0085 0.069,9e-4 0.021,0.0093 0.038,0.0269 0.047,0.0488 0.249,0.6236 0.602,1.6701 0.605,1.6805 0.005,0.0134 0.006,0.0278 0.004,0.0418 -0.002,0.014 -0.007,0.0273 -0.016,0.0388 -0.008,0.0115 -0.019,0.0208 -0.031,0.0273 -0.013,0.0065 -0.027,0.0099 -0.041,0.0099 z"
       fill="#e3d0ba"
       id="path187" />
    <path
       d="m 172.623,108.47 c -0.017,0 -0.033,-0.004 -0.048,-0.012 -0.015,-0.007 -0.028,-0.018 -0.038,-0.032 -1.167,-1.571 -1.519,-2.045 -1.66,-3.583 -0.136,-1.496 -0.001,-2.809 10e-4,-2.822 0.006,-0.058 0.058,-0.102 0.117,-0.095 0.029,0.003 0.054,0.017 0.072,0.039 0.018,0.022 0.027,0.051 0.024,0.079 -0.002,0.013 -0.135,1.306 0,2.78 0.135,1.478 0.449,1.901 1.618,3.475 0.012,0.016 0.019,0.035 0.021,0.054 0.002,0.02 -0.002,0.04 -0.011,0.058 -0.009,0.017 -0.023,0.032 -0.04,0.043 -0.017,0.01 -0.036,0.016 -0.056,0.016 z m -0.878,-9.0597 c -1.884,0 -3.851,-0.1882 -5.355,-0.785 -0.013,-0.0049 -0.026,-0.0125 -0.036,-0.0223 -0.01,-0.0097 -0.019,-0.0215 -0.025,-0.0345 -0.005,-0.013 -0.009,-0.0271 -0.009,-0.0413 0,-0.0143 0.002,-0.0284 0.008,-0.0417 0.005,-0.0132 0.013,-0.0253 0.023,-0.0355 0.01,-0.0102 0.022,-0.0182 0.035,-0.0237 0.013,-0.0055 0.027,-0.0084 0.041,-0.0083 0.015,0 0.029,0.0029 0.042,0.0084 4,1.5866 11.366,0.2358 11.44,0.2221 0.058,-0.0115 0.114,0.0273 0.125,0.0854 0.003,0.0139 0.002,0.0281 0,0.0418 -0.003,0.0138 -0.009,0.0268 -0.017,0.0384 -0.008,0.0116 -0.018,0.0215 -0.03,0.0292 -0.012,0.0076 -0.025,0.0129 -0.039,0.0155 -0.046,0.0088 -3.005,0.5515 -6.203,0.5515 z m 7.391,4.4147 c -0.006,0 -0.011,-0.001 -0.016,-0.001 -0.058,-0.009 -1.413,-0.238 -2.269,-2.297 -0.011,-0.026 -0.011,-0.055 0,-0.082 0.011,-0.026 0.031,-0.047 0.058,-0.058 0.026,-0.011 0.055,-0.011 0.082,0 0.026,0.011 0.047,0.032 0.058,0.058 0.806,1.94 2.09,2.165 2.103,2.167 0.028,0.004 0.053,0.02 0.07,0.043 0.017,0.023 0.024,0.051 0.019,0.079 -0.004,0.025 -0.016,0.048 -0.036,0.065 -0.019,0.017 -0.044,0.026 -0.069,0.026 z m -13.707,-0.726 c -0.023,10e-4 -0.046,-0.001 -0.068,-0.005 -0.027,-0.006 -0.051,-0.023 -0.066,-0.046 -0.016,-0.024 -0.021,-0.052 -0.016,-0.08 0.006,-0.027 0.022,-0.051 0.045,-0.067 0.023,-0.016 0.051,-0.022 0.079,-0.017 0.005,0.001 0.7,0.097 1.035,-1.578 0.006,-0.028 0.022,-0.052 0.046,-0.068 0.024,-0.016 0.052,-0.022 0.08,-0.016 0.028,0.005 0.053,0.022 0.068,0.045 0.016,0.024 0.022,0.053 0.016,0.081 -0.156,0.781 -0.411,1.312 -0.757,1.578 -0.194,0.149 -0.37,0.173 -0.462,0.173 z"
       fill="#3a6c8d"
       id="path189" />
    <path
       opacity="0.62"
       d="m 170.255,133.34 c -0.014,0 -0.029,-0.003 -0.041,-0.01 -0.013,-0.007 -0.024,-0.016 -0.032,-0.028 -0.008,-0.012 -0.014,-0.026 -0.015,-0.04 -0.002,-0.015 0,-0.029 0.005,-0.043 0.002,-0.005 0.224,-0.595 0.313,-1.66 0.033,-0.393 0.053,-1.684 0.079,-3.318 0.045,-2.775 0.106,-6.574 0.271,-7.799 0.173,-1.281 0.264,-3.511 0.36,-5.871 0.047,-1.149 0.095,-2.337 0.155,-3.458 0.003,-0.049 0.045,-0.085 0.094,-0.084 0.012,0 0.023,0.003 0.034,0.008 0.01,0.005 0.02,0.013 0.028,0.021 0.007,0.009 0.013,0.019 0.017,0.03 0.004,0.011 0.006,0.023 0.005,0.035 -0.059,1.119 -0.108,2.307 -0.155,3.455 -0.096,2.365 -0.187,4.598 -0.361,5.888 -0.164,1.214 -0.225,5.008 -0.269,7.778 -0.026,1.637 -0.047,2.93 -0.08,3.33 -0.091,1.093 -0.315,1.685 -0.325,1.709 -0.006,0.017 -0.018,0.032 -0.032,0.042 -0.015,0.01 -0.033,0.015 -0.051,0.015 z"
       fill="#3a6c8d"
       id="path191" />
  </g>
  <circle
     cx="11.469995"
     cy="35.50285"
     r="5.3193002"
     fill="#fae8ab"
     id="circle195" />
  <circle
     cx="43.015003"
     cy="25.730049"
     r="8.6593199"
     fill="#fae8ab"
     id="circle197" />
  <circle
     cx="29.777988"
     cy="4.0822501"
     r="4.0822501"
     fill="#fae8ab"
     id="circle199" />
  <defs
     id="defs1653">
    <filter
       id="filter0_f_923_71300"
       x="141.26601"
       y="740.96997"
       width="93.468597"
       height="93.468597"
       filterUnits="userSpaceOnUse"
       color-interpolation-filters="sRGB">
      <feFlood
         flood-opacity="0"
         result="BackgroundImageFix"
         id="feFlood1603" />
      <feBlend
         mode="normal"
         in="SourceGraphic"
         in2="BackgroundImageFix"
         result="shape"
         id="feBlend1605" />
      <feGaussianBlur
         stdDeviation="0.867156"
         result="effect1_foregroundBlur_923_71300"
         id="feGaussianBlur1607" />
    </filter>
    <filter
       id="filter1_d_923_71300"
       x="0"
       y="1348"
       width="376"
       height="92"
       filterUnits="userSpaceOnUse"
       color-interpolation-filters="sRGB">
      <feFlood
         flood-opacity="0"
         result="BackgroundImageFix"
         id="feFlood1610" />
      <feColorMatrix
         in="SourceAlpha"
         type="matrix"
         values="0 0 0 0 0 0 0 0 0 0 0 0 0 0 0 0 0 0 127 0"
         result="hardAlpha"
         id="feColorMatrix1612" />
      <feOffset
         dy="1"
         id="feOffset1614" />
      <feGaussianBlur
         stdDeviation="4"
         id="feGaussianBlur1616" />
      <feComposite
         in2="hardAlpha"
         operator="out"
         id="feComposite1618" />
      <feColorMatrix
         type="matrix"
         values="0 0 0 0 0 0 0 0 0 0 0 0 0 0 0 0 0 0 0.08 0"
         id="feColorMatrix1620" />
      <feBlend
         mode="normal"
         in2="BackgroundImageFix"
         result="effect1_dropShadow_923_71300"
         id="feBlend1622" />
      <feBlend
         mode="normal"
         in="SourceGraphic"
         in2="effect1_dropShadow_923_71300"
         result="shape"
         id="feBlend1624" />
    </filter>
    <radialGradient
       id="paint0_radial_923_71300"
       cx="0"
       cy="0"
       r="1"
       gradientUnits="userSpaceOnUse"
       gradientTransform="matrix(0,45,-45,0,188,787.705)">
      <stop
         stop-color="#9BD8F2"
         id="stop1627" />
      <stop
         offset="1"
         stop-color="#FAF6EB"
         stop-opacity="0"
         id="stop1629" />
    </radialGradient>
    <clipPath
       id="clip0_923_71300">
      <rect
         width="31.421"
         height="75.724503"
         fill="#ffffff"
         transform="matrix(-1,0,0,1,223.131,63.9795)"
         id="rect1632"
         x="0"
         y="0" />
    </clipPath>
    <clipPath
       id="clip1_923_71300">
      <rect
         width="35.733799"
         height="77.113098"
         fill="#ffffff"
         transform="translate(152.867,62.5913)"
         id="rect1635"
         x="0"
         y="0" />
    </clipPath>
    <clipPath
       id="clip2_923_71300">
      <rect
         x="24"
         y="187.705"
         width="328"
         height="499"
         rx="8"
         fill="#ffffff"
         id="rect1638" />
    </clipPath>
    <clipPath
       id="clip3_923_71300">
      <rect
         width="58.966599"
         height="100.132"
         fill="#ffffff"
         transform="translate(156.43,772.163)"
         id="rect1641"
         x="0"
         y="0" />
    </clipPath>
    <clipPath
       id="clip4_923_71300">
      <rect
         x="24"
         y="920.29498"
         width="328"
         height="109"
         rx="8"
         fill="#ffffff"
         id="rect1644" />
    </clipPath>
    <clipPath
       id="clip5_923_71300">
      <rect
         width="131.314"
         height="72.705101"
         fill="#ffffff"
         transform="translate(122.344,1085.29)"
         id="rect1647"
         x="0"
         y="0" />
    </clipPath>
    <clipPath
       id="clip6_923_71300">
      <rect
         x="24"
         y="1206"
         width="328"
         height="109"
         rx="8"
         fill="#ffffff"
         id="rect1650" />
    </clipPath>
  </defs>
</svg>
