<?xml version="1.0" encoding="UTF-8" standalone="no"?>
<svg
   width="94"
   height="132"
   viewBox="0 0 94 132"
   fill="none"
   version="1.1"
   id="svg4519"
   sodipodi:docname="table_img_02.svg"
   inkscape:version="1.1.2 (b8e25be8, 2022-02-05)"
   xmlns:inkscape="http://www.inkscape.org/namespaces/inkscape"
   xmlns:sodipodi="http://sodipodi.sourceforge.net/DTD/sodipodi-0.dtd"
   xmlns="http://www.w3.org/2000/svg"
   xmlns:svg="http://www.w3.org/2000/svg">
  <sodipodi:namedview
     id="namedview4521"
     pagecolor="#ffffff"
     bordercolor="#666666"
     borderopacity="1.0"
     inkscape:pageshadow="2"
     inkscape:pageopacity="0.0"
     inkscape:pagecheckerboard="0"
     showgrid="false"
     fit-margin-top="0"
     fit-margin-left="0"
     fit-margin-right="0"
     fit-margin-bottom="0"
     inkscape:zoom="1.5057427"
     inkscape:cx="137.14162"
     inkscape:cy="199.56928"
     inkscape:window-width="1680"
     inkscape:window-height="933"
     inkscape:window-x="0"
     inkscape:window-y="25"
     inkscape:window-maximized="1"
     inkscape:current-layer="svg4519" />
  <g
     filter="url(#filter0_f_923_71300)"
     id="g3143"
     transform="translate(-141.26601,-740.96997)">
    <path
       d="m 233,783.431 -38.574,2.995 36.784,-11.994 -3.271,-7.896 -34.491,17.528 29.393,-25.158 -6.043,-6.043 -25.158,29.394 17.529,-34.492 -7.896,-3.271 -11.995,36.784 2.996,-38.573 h -8.548 l 2.996,38.573 -11.995,-36.784 -7.896,3.271 17.529,34.492 -25.158,-29.394 -6.043,6.043 29.393,25.158 -34.491,-17.528 -3.271,7.896 36.784,11.994 L 143,783.431 v 8.547 l 38.574,-2.995 -36.784,11.994 3.271,7.897 34.491,-17.53 -29.393,25.159 6.043,6.043 25.158,-29.394 -17.529,34.492 7.896,3.27 11.995,-36.783 -2.996,38.574 h 8.548 l -2.996,-38.574 11.995,36.783 7.896,-3.27 -17.529,-34.492 25.158,29.394 6.043,-6.043 -29.393,-25.159 34.491,17.53 3.271,-7.897 -36.784,-11.994 38.574,2.995 z"
       fill="url(#paint0_radial_923_71300)"
       id="path3141"
       style="fill:url(#paint0_radial_923_71300)" />
  </g>
  <g
     clip-path="url(#clip3_923_71300)"
     id="g3343"
     transform="translate(-141.26601,-740.96997)">
    <path
       d="m 172.044,787.413 c 0,0 1.358,0.331 4.404,3.936 3.47,4.108 5.588,7.363 5.966,7.891 0.377,0.529 -0.626,0.944 -1.488,1.973 -0.861,1.03 -1.457,2.197 -3.081,0.792 -1.623,-1.405 -5.303,-5.042 -6.418,-6.31 -1.922,-2.184 -4.128,-7.499 0.617,-8.282 z"
       fill="#de6259"
       id="path3145" />
    <path
       d="m 171.729,796.029 c 0.782,0.846 2.177,2.252 3.509,3.543 -0.085,-1.065 -0.284,-3.598 -0.414,-5.374 -0.167,-2.303 -0.558,-3.403 -0.558,-3.403 z"
       fill="#c94c49"
       id="path3147" />
    <path
       d="m 204.246,791.035 c -0.414,-0.243 -0.934,-0.21 -1.328,0.065 -0.866,0.605 -2.79,2.209 -3.983,5.183 -1.575,3.93 -2.891,11.029 -2.057,12.086 0.834,1.056 2.484,-0.13 3.095,-1.78 0.612,-1.649 2.169,-7.396 2.744,-8.897 0.511,-1.335 3.277,-5.628 1.529,-6.657 z"
       fill="#edad9a"
       id="path3149" />
    <path
       d="m 209.236,790.194 c -1.889,-0.356 -3.845,-0.145 -5.611,0.614 -0.7,0.301 -1.325,0.72 -1.718,1.188 -1.102,1.311 -1.915,2.733 -2.459,4.712 -0.517,1.877 -0.278,2.669 -0.141,3.481 0.212,1.255 0.587,1.688 0.751,3.075 0.128,1.074 0.207,3.146 0.314,4.015 0.19,1.547 0.277,2.475 0.472,3.016 0.341,0.944 0.944,3.068 4.485,3.068 4.694,0 5.66,-2.803 6.106,-3.957 0.634,-1.642 0.817,-5.248 1.394,-7.163 0.577,-1.914 1.803,-5.245 1.882,-6.74 0.079,-1.495 -0.262,-3.645 -3.567,-4.799 -0.676,-0.237 -1.321,-0.399 -1.908,-0.51 z"
       fill="#f9c4b9"
       id="path3151" />
    <path
       d="m 201.588,805.886 c -0.85,0.868 -1.124,1.807 -1.217,3.019 -0.093,1.209 -0.522,4.196 -0.551,5.402 -0.039,1.653 0.571,2.728 2.38,5.639 1.81,2.911 3.384,5.822 8.498,4.721 5.113,-1.102 4.41,-6.425 4.022,-8.098 -0.534,-2.298 -0.849,-3.285 -2.658,-5.527 -0.331,-0.358 -0.192,-1.277 -0.195,-2.086 -0.004,-1.353 -0.392,-2.642 -1.448,-3.487 -0.892,-0.713 -2.235,-1.295 -4.242,-1.295 -2.272,0 -3.701,0.806 -4.589,1.712 z m 2.605,-17.359 c 0,0 0.158,1.049 -0.026,1.862 -0.183,0.813 -0.21,1.705 0.971,2.046 1.18,0.341 3.041,-0.602 3.499,-1.158 0.444,-0.54 0.473,-0.719 0.225,-1.36 -0.138,-0.356 -0.682,-1.154 -0.551,-3.934 0.052,-0.865 -0.97,-1.573 -2.02,-1.075 -0.731,0.347 -2.386,0.839 -2.098,3.619 z"
       fill="#f9c4b9"
       id="path3153" />
    <path
       d="m 206.292,784.908 c 1.049,-0.498 2.072,0.21 2.019,1.075 -0.006,0.125 -0.01,0.244 -0.013,0.36 -0.02,0.045 0.244,0.274 0.229,0.32 -0.834,2.5 -2.498,3.599 -4.348,3.671 0.165,-0.804 0.015,-1.807 0.015,-1.807 -0.289,-2.78 1.366,-3.272 2.098,-3.619 z"
       fill="#edad9a"
       id="path3155" />
    <path
       d="m 209.017,790.026 c 0,0 -0.494,1.814 -1.735,2.481 -1.24,0.667 -2.822,2.066 -3.36,3.041 0,0 -0.522,-2.979 -0.299,-4.74 0,0 -0.913,-0.055 -2.237,1.624 -1.324,1.678 -2.121,4.425 -2.234,5.99 -0.114,1.566 0.665,3.542 0.665,3.542 0,0 0.483,3.058 0.249,6.793 0,0 4.83,1.482 11.8,0.199 0,0 0.649,-5.302 1.356,-7.299 0.706,-1.997 2.01,-5.278 1.497,-7.852 -0.513,-2.575 -3.295,-3.368 -5.702,-3.779 z"
       fill="#caf5fe"
       id="path3157" />
    <path
       d="m 209.547,805.782 c 0,0 0.269,-7.384 0.37,-9.073 0.101,-1.69 0.473,-2.114 0.473,-2.114 l 4.255,2.367 c -0.323,1.742 -0.986,3.463 -1.422,4.695 -0.707,1.997 -1.356,7.299 -1.356,7.299 -1.457,0.268 -7.424,-1.722 -8.67,-1.657 z"
       fill="#b7ecf7"
       id="path3159" />
    <path
       d="m 203.248,797.932 c 0,0 0.16,-1.075 -0.713,-2.765 -0.57,-1.106 -0.783,-2.352 -0.861,-3.082 1.166,-1.324 1.948,-1.277 1.948,-1.277 -0.223,1.761 0.299,4.74 0.299,4.74 0.539,-0.975 2.12,-2.374 3.361,-3.041 1.24,-0.667 1.734,-2.481 1.734,-2.481 0.839,0.143 1.723,0.333 2.541,0.628 -0.566,0.817 -2.165,2.978 -3.787,3.819 -2.019,1.048 -3.153,1.83 -3.356,4.253 -0.191,2.285 -0.327,9.826 -0.341,10.675 -0.387,-0.029 -0.75,-0.064 -1.086,-0.103 z"
       fill="#a2e9f2"
       id="path3161" />
    <path
       d="m 205.581,777.394 c 0,0 -4.448,-0.291 -4.537,4.621 -0.088,4.912 1.573,7.532 3.427,7.637 1.966,0.111 3.68,-1.995 4.805,-4.666 1.125,-2.67 0.542,-7.319 -3.695,-7.592 z"
       fill="#f9c4b9"
       id="path3163" />
    <path
       d="m 202.789,787.029 c 0,0 0.638,0 1.194,0 0.556,0 1.671,0 1.671,0 0,0 -1.581,1.982 -2.865,0 z"
       fill="#ffffff"
       id="path3165" />
    <path
       d="m 202.791,784.486 c 0.209,0 0.379,-0.228 0.379,-0.51 0,-0.282 -0.17,-0.511 -0.379,-0.511 -0.209,0 -0.379,0.229 -0.379,0.511 0,0.282 0.17,0.51 0.379,0.51 z"
       fill="#121d3f"
       id="path3167" />
    <path
       d="m 205.654,784.486 c 0.21,0 0.379,-0.228 0.379,-0.51 0,-0.282 -0.169,-0.511 -0.379,-0.511 -0.209,0 -0.379,0.229 -0.379,0.511 0,0.282 0.17,0.51 0.379,0.51 z"
       fill="#121d3f"
       id="path3169" />
    <path
       d="m 203.839,786.14 c -0.091,0 -0.177,-0.009 -0.24,-0.032 -0.089,-0.034 -0.161,-0.108 -0.192,-0.198 -0.029,-0.084 -0.02,-0.175 0.025,-0.248 0.413,-0.675 0.43,-1.468 0.43,-1.476 0.001,-0.062 0.054,-0.111 0.115,-0.111 0.063,10e-4 0.113,0.052 0.112,0.115 -0.001,0.034 -0.018,0.861 -0.464,1.59 -0.012,0.02 -0.009,0.042 -0.004,0.056 0.01,0.027 0.031,0.05 0.057,0.06 0.1,0.037 0.394,0.008 0.57,-0.025 0.062,-0.012 0.121,0.029 0.132,0.09 0.012,0.062 -0.029,0.121 -0.09,0.132 -0.055,0.01 -0.262,0.047 -0.451,0.047 z"
       fill="#edad9a"
       id="path3171" />
    <path
       d="m 206.424,783.133 c -0.02,0 -0.041,-0.006 -0.06,-0.017 -0.78,-0.489 -1.402,-0.012 -1.409,-0.007 -0.049,0.038 -0.12,0.03 -0.159,-0.019 -0.038,-0.049 -0.03,-0.121 0.019,-0.159 0.008,-0.006 0.755,-0.58 1.669,-0.007 0.053,0.033 0.07,0.103 0.036,0.156 -0.021,0.034 -0.058,0.053 -0.096,0.053 z m -3.038,0 c -0.02,0 -0.041,-0.006 -0.06,-0.017 -0.775,-0.486 -1.383,-0.027 -1.409,-0.007 -0.049,0.038 -0.12,0.03 -0.159,-0.02 -0.038,-0.049 -0.03,-0.12 0.019,-0.158 0.008,-0.006 0.756,-0.58 1.67,-0.007 0.053,0.033 0.069,0.103 0.036,0.156 -0.022,0.034 -0.059,0.053 -0.097,0.053 z"
       fill="#121d3f"
       id="path3173" />
    <path
       d="m 204.693,785.279 c 0,0 0.296,-0.438 0.975,-0.435 0.576,0.003 1.411,0.13 1.533,0.548 0.122,0.418 -0.641,0.511 -1.27,0.543 -0.628,0.032 -1.412,-0.246 -1.238,-0.656 z m -3.07,-0.435 c -0.16,0 -0.298,0.023 -0.416,0.06 0.051,0.351 0.112,0.684 0.184,0.998 0.163,0.029 0.334,0.041 0.495,0.033 0.628,-0.032 1.391,-0.125 1.269,-0.543 -0.122,-0.418 -0.957,-0.545 -1.532,-0.548 z"
       fill="#f4bdb3"
       id="path3175" />
    <path
       d="m 204.611,779.602 c 0,0 0.897,1.195 2.659,2.871 1.438,1.368 1.202,2.001 0.973,4.811 -0.229,2.811 -0.249,3.368 -0.157,4.248 0.091,0.88 -0.337,1.58 -0.582,2.676 -0.245,1.096 -0.318,2.071 -0.002,3.492 0.317,1.42 0.415,1.665 -0.074,2.205 0,0 1.37,-0.315 1.153,-1.925 -0.217,-1.61 -0.325,-2.338 0.319,-3.614 0.643,-1.277 1.472,-1.551 1.523,-3.89 0,0 2.229,0.728 3.456,2.189 0,0 0.797,-1.455 -0.791,-3.13 -1.021,-1.077 -0.953,-1.875 -1.06,-3.392 -0.089,-1.263 -0.449,-3.215 -0.672,-4.974 -0.223,-1.759 -1.606,-5.314 -5.718,-4.566 0,0 -2.244,0.244 -3.638,1.209 -2.575,1.784 -0.9,6.128 -0.901,6.119 -0.008,-0.157 -0.079,-1.885 0.863,-2.404 0.988,-0.546 1.991,-0.699 2.649,-1.925 z"
       fill="#19203f"
       id="path3177" />
    <path
       d="m 201.963,781.527 c 0,0 -0.503,1.132 -0.548,1.603 -0.044,0.472 0.224,2.511 0.157,2.808 -0.067,0.297 0.276,1.298 0.276,1.298 0,0 -0.244,-0.371 -0.64,-1.209 -0.396,-0.838 -1.581,-4.386 -0.262,-6.953 z"
       fill="#121d3f"
       id="path3179" />
    <path
       d="m 208.864,783.579 c 0,0 -0.639,-0.253 -0.915,0.702 -0.276,0.955 -0.194,1.55 0.095,1.642 0.288,0.091 0.648,-0.228 0.957,-0.7 0.309,-0.471 0.472,-1.404 -0.137,-1.644 z"
       fill="#f9c4b9"
       id="path3181" />
    <path
       d="m 208.815,784.43 c -0.155,-0.01 -0.273,0.1 -0.349,0.206 0.025,-0.237 0.087,-0.436 0.208,-0.465 0.03,-0.007 0.049,-0.038 0.041,-0.068 -0.007,-0.03 -0.037,-0.049 -0.068,-0.042 -0.388,0.093 -0.305,1.072 -0.294,1.184 0.003,0.029 0.027,0.051 0.056,0.051 0.002,0 0.004,0 0.005,0 0.032,-0.003 0.054,-0.031 0.051,-0.062 -0.01,-0.104 -0.015,-0.225 -0.014,-0.348 0.006,-0.006 0.012,-0.012 0.015,-0.02 0.001,-0.004 0.135,-0.334 0.342,-0.323 0.032,0.002 0.058,-0.022 0.06,-0.053 0.002,-0.031 -0.022,-0.058 -0.053,-0.06 z"
       fill="#edad9a"
       id="path3183" />
    <path
       d="m 203.834,865.264 v 0.969 c 0,0.119 -0.068,0.228 -0.175,0.28 -0.363,0.175 -1.369,0.525 -3.724,0.618 -0.871,0 -1.792,0.152 -3.231,0.24 -1.326,0.081 -2.805,0.206 -3.561,-0.171 -0.108,-0.054 -0.176,-0.163 -0.176,-0.283 v -0.846 l 10.54,-1.102 c 0.175,-0.018 0.327,0.119 0.327,0.295 z"
       fill="#212851"
       id="path3185" />
    <path
       d="m 203.826,865.197 c -0.12,0.197 -0.441,0.479 -1.292,0.66 -1.426,0.302 -2.764,0.237 -3.685,0.44 -0.875,0.193 -5.146,1.028 -5.882,0.079 v -0.305 l 10.54,-1.102 c 0.152,-0.015 0.286,0.086 0.319,0.228 z"
       fill="#121d3f"
       id="path3187" />
    <path
       d="m 202.836,860.611 c 0,0 -0.246,1.627 0.103,2.223 0.35,0.596 1.336,2.322 -0.288,2.795 -1.623,0.473 -2.713,0.185 -4.378,0.678 -1.665,0.494 -5.2,0.554 -5.303,-0.186 -0.102,-0.74 2.097,-1.376 3.433,-1.828 1.336,-0.452 3.457,-0.957 3.515,-1.994 0.066,-1.194 -0.481,-3.322 1.878,-3.191 0.904,0.051 1.102,0.558 1.04,1.503 z"
       fill="#f9c4b9"
       id="path3189" />
    <path
       d="m 199.09,866.294 c 0,0 0.074,-1.711 -1.534,-2.377 -0.05,-0.021 -0.106,-0.027 -0.16,-0.017 -1.527,0.283 -2.431,0.77 -2.673,0.913 -0.026,0.015 -0.023,0.054 0.005,0.065 0.223,0.093 0.926,0.489 1.409,1.938 1.363,0 2.953,-0.522 2.953,-0.522 z"
       fill="#212851"
       id="path3191" />
    <path
       d="m 204.65,812.372 c 0,0 -4.464,-1.993 -5.544,6.053 -0.824,6.132 -2.466,20.299 -0.787,23.079 0.42,0.682 3.252,1.312 4.93,-1.783 1.679,-3.095 3.567,-8.183 4.459,-11.172 0.892,-2.99 3.761,-15.6 -3.058,-16.177 z"
       fill="#f9c4b9"
       id="path3193" />
    <path
       d="m 200.865,816.697 c 0.024,-2.105 0.982,-3.541 2.151,-4.512 0.923,-0.13 1.634,0.187 1.634,0.187 6.818,0.577 3.949,13.187 3.058,16.177 -0.615,2.059 -1.702,5.115 -2.868,7.829 -0.723,-3.248 -0.846,-6.892 -0.829,-9.274 0.011,-1.492 -0.352,-2.958 -1.029,-4.287 -1.113,-2.18 -2.125,-5.416 -2.117,-6.12 z"
       fill="#edad9a"
       id="path3195" />
    <path
       d="m 203.96,811.673 c 0,0 -3.356,-0.53 -4.416,3.861 -1.062,4.398 -1.71,11.357 -1.953,15.016 -0.243,3.66 -0.243,8.707 -0.117,11.105 0.126,2.397 3.761,1.943 4.921,1.085 1.161,-0.858 2.448,-4.947 3.635,-8.051 1.186,-3.104 2.246,-6.839 3.356,-12.417 1.111,-5.577 0.328,-9.615 -5.426,-10.599 z"
       fill="#293463"
       id="path3197" />
    <path
       d="m 208.771,825.196 c -0.894,4.019 -1.776,6.965 -2.742,9.493 -0.273,0.716 -0.552,1.485 -0.834,2.254 -0.218,-1.784 -1.314,-9.85 -1.554,-12.464 -0.184,-0.872 -1.826,-3.51 -2.455,-6.192 z"
       fill="#1e2c56"
       id="path3199" />
    <path
       d="m 200.352,836.366 c -1.526,0.125 -2.602,1.432 -2.574,2.963 0.041,2.284 0.284,6.679 1.118,13.924 1.154,10.019 1.328,10.605 2.465,10.858 0.945,0.21 1.574,-2.885 1.836,-5.245 0.262,-2.361 1.364,-9.494 1.207,-12.956 -0.158,-3.462 -0.945,-9.33 -3.305,-9.54 -0.265,-0.023 -0.514,-0.023 -0.747,-0.004 z"
       fill="#f9c4b9"
       id="path3201" />
    <path
       d="m 204.596,838.554 c 0,0 0.47,5.229 0.372,9.679 -0.099,4.45 -0.372,13.16 -0.372,13.16 0,0 -3.705,0.911 -7.205,0 l 0.083,-19.739 c 0,0 -0.513,-6.157 3.391,-6.157 3.492,0 3.731,3.057 3.731,3.057 z"
       fill="#293463"
       id="path3203" />
    <path
       d="m 211.867,808.955 c 0,0 -5.951,1.266 -11.801,-0.199 0,0 -0.245,4.469 -0.62,7.192 -0.109,0.497 0.426,3.8 4.4,7.396 3.975,3.596 8.34,1.893 9.875,0.151 1.535,-1.741 1.569,-4.805 1.249,-7.154 -0.37,-2.726 -3.103,-7.386 -3.103,-7.386 z"
       fill="#293463"
       id="path3205" />
    <path
       d="m 204.263,822.216 c 0.011,0.011 0.023,0.021 0.035,0.032 0.212,-1.896 0.911,-2.916 0.911,-2.916 l 5.18,2.157 0.071,3.806 c -1.929,0.431 -4.335,0.111 -6.614,-1.951 -0.581,-0.526 -0.783,-0.705 -1.226,-1.211 -0.909,-1.514 -1.239,-2.782 -1.434,-3.847 0,0 1.092,2.159 3.077,3.93 z"
       fill="#1e2c56"
       id="path3207" />
    <path
       d="m 212.707,810.49 c -1.285,0.187 -8.554,1.144 -12.725,-0.386 0.054,-0.812 0.084,-1.348 0.084,-1.348 5.85,1.465 11.8,0.199 11.8,0.199 0,0 0.363,0.618 0.841,1.535 z"
       fill="#121d3f"
       id="path3209" />
    <path
       d="m 214.126,817.208 c -1.222,-2.335 -4.215,-3.036 -6.37,-1.517 -1.177,0.829 -2.389,2.29 -2.62,4.832 -0.472,5.193 -0.105,9.337 0.525,13.533 0.629,4.196 0.787,5.927 1.416,8.025 0.629,2.098 2.203,2.728 3.304,2.518 1.102,-0.21 2.728,-1.731 3.2,-4.826 0.472,-3.094 1.206,-9.494 1.416,-12.641 0.142,-2.131 0.693,-6.932 -0.871,-9.924 z"
       fill="#f9c4b9"
       id="path3211" />
    <path
       d="m 210.649,814.448 c 0,0 4.322,-0.004 4.56,5.793 0.249,6.065 -0.232,11.318 -0.421,13.022 -0.19,1.703 -0.859,7.184 -1.074,9.062 -0.214,1.878 -1.669,2.976 -3.648,2.9 -1.979,-0.075 -3.115,-1.44 -3.645,-3.729 -0.53,-2.29 -1.665,-9.104 -1.779,-16.069 -0.113,-6.966 1.036,-11.131 6.007,-10.979 z"
       fill="#293463"
       id="path3213" />
    <path
       d="m 214.099,867.655 v 0.77 c 0,0.207 -0.128,0.392 -0.322,0.464 -0.56,0.207 -1.737,0.628 -3.389,0.934 -2.17,0.402 -3.926,1.113 -6.795,0.661 -0.234,-0.036 -0.413,-0.227 -0.433,-0.463 -0.03,-0.345 -0.074,-0.631 -0.074,-0.631 l 10.693,-2.002 c 0.166,-0.031 0.32,0.097 0.32,0.267 z"
       fill="#212851"
       id="path3215" />
    <path
       d="m 214.063,867.519 c -0.07,0.15 -0.247,0.526 -0.831,0.786 -1.251,0.555 -2.621,0.692 -3.289,0.845 -0.668,0.153 -2.625,0.795 -4.013,0.972 -1.31,0.166 -2.497,0.063 -2.806,-0.447 -0.021,-0.171 -0.038,-0.285 -0.038,-0.285 l 10.693,-2.002 c 0.117,-0.021 0.228,0.036 0.284,0.131 z"
       fill="#121d3f"
       id="path3217" />
    <path
       d="m 213.086,862.452 c 0,0 -0.128,1.602 0.048,2.138 0.278,0.844 1.391,2.466 0.204,3.318 -1.186,0.853 -3.262,0.871 -4.56,1.409 -1.297,0.538 -4.875,1.205 -5.579,0.315 -0.705,-0.89 1.816,-2.224 2.78,-2.632 0.964,-0.408 4.06,-2.021 4.171,-2.465 0.111,-0.445 -0.006,-1.779 0,-2.262 0.018,-1.446 2.954,-2.009 2.936,0.179 z"
       fill="#f9c4b9"
       id="path3219" />
    <path
       d="m 209.619,869.269 c 0,0 -1.01,-2.119 -2.525,-2.853 -0.087,-0.042 -0.186,-0.047 -0.276,-0.012 -1.099,0.428 -1.988,1.016 -2.341,1.265 -0.063,0.045 -0.047,0.141 0.026,0.164 0.386,0.124 1.295,0.648 1.772,2.301 0,0 2.216,-0.175 3.344,-0.865 z"
       fill="#212851"
       id="path3221" />
    <path
       d="m 206.867,841.241 c 0,0 0.997,5.875 1.574,9.127 0.576,3.252 1.521,11.907 1.678,13.795 0.157,1.889 1.206,1.469 1.626,1.312 0.42,-0.158 0.997,-0.787 1.259,-2.518 0.262,-1.731 0.944,-5.613 1.259,-8.445 0.314,-2.833 0.3,-10.775 -1.102,-13.952 -1.573,-3.567 -6.399,-2.571 -6.294,0.681 z"
       fill="#f9c4b9"
       id="path3223" />
    <path
       d="m 213.998,839.917 c 0,0 0.384,5.64 0.643,10.074 0.26,4.433 0.115,12.834 0.115,12.834 0,0 -2.35,1.238 -7.275,0.419 l -1.232,-22.55 c 0,0 -0.157,-3.797 3.995,-3.797 3.63,0 3.754,3.02 3.754,3.02 z"
       fill="#293463"
       id="path3225" />
    <path
       d="m 212.551,791.806 c 0,0 2.392,0.083 2.419,4.282 0.028,4.199 -0.389,7.897 -0.444,11.094 -0.056,3.198 -0.89,4.31 -2.225,4.338 -1.335,0.028 -1.696,-2.531 -1.779,-5.089 -0.084,-2.558 -0.362,-8.174 -0.362,-10.121 0,-1.946 0.806,-4.726 2.391,-4.504 z"
       fill="#f9c4b9"
       id="path3227" />
    <path
       d="m 165.861,803.341 c 0,0 -5.715,-0.907 -6.515,5.928 -0.142,1.414 -0.502,3.263 -1.397,5.148 -0.895,1.886 -0.565,6.316 2.873,8.626 3.438,2.31 8.524,2.027 10.502,-2.592 1.978,-4.62 1.78,-8.733 1.177,-11.69 -0.519,-2.546 -2.92,-5.797 -6.64,-5.42 z"
       fill="#f9c4b9"
       id="path3229" />
    <path
       d="m 172.057,861.049 c 0,0 -0.973,-0.032 -1.162,1.257 -0.188,1.288 -0.408,1.791 -0.722,2.514 -0.314,0.723 -0.251,2.177 1.193,2.334 1.445,0.157 3.825,0.029 5.206,0.186 1.382,0.158 4.767,0.296 4.844,-1.059 0.063,-1.1 -2.954,-1.304 -4.084,-1.744 -1.051,-0.409 -2.468,-0.819 -3.046,-1.351 -0.785,-0.723 -1.099,-2.169 -2.229,-2.137 z"
       fill="#f6af9a"
       id="path3231" />
    <path
       d="m 169.925,866.709 c 0,0 -0.016,0.554 0,0.923 -0.007,0.168 0.655,0.386 1.939,0.386 1.283,0 3.146,-0.017 4.505,0 1.359,0.017 5.607,0.746 5.55,-1.81 z"
       fill="#dfeaef"
       id="path3233" />
    <path
       d="m 170.724,863.235 c 0,0 -0.698,1.139 -0.799,1.98 -0.101,0.842 -0.084,1.359 0,1.577 0.084,0.218 1.797,0.588 3.75,0.52 2.459,-0.085 5.076,0.695 6.855,0.064 1.779,-0.631 1.435,-1.345 1.225,-1.707 -0.34,-0.585 -1.074,-0.796 -2.752,-1.161 -1.678,-0.364 -4.032,-1.388 -4.463,-1.69 -0.432,-0.302 -1.125,-0.218 -1.074,0.873 -0.017,0.201 -1.727,0.098 -2.742,-0.456 z"
       fill="#212851"
       id="path3235" />
    <path
       d="m 179.003,865.215 c 0,0 0.153,-0.199 0.272,-0.647 -0.088,-0.02 -0.178,-0.039 -0.272,-0.06 -1.678,-0.364 -4.032,-1.388 -4.464,-1.69 -0.431,-0.302 -1.124,-0.218 -1.074,0.873 0,0 0.974,0.889 2.35,1.107 1.376,0.218 3.188,0.417 3.188,0.417 z"
       fill="#1c2247"
       id="path3237" />
    <path
       d="m 170.664,810.654 c 1.127,0.025 2.098,0.802 2.379,1.895 0.485,1.885 1.529,6.407 2.096,12.286 0.753,7.824 1.412,16.167 -2.779,16.591 -0.848,0.094 -3.391,-0.801 -4.992,-5.939 -1.601,-5.138 -2.92,-12.066 -3.626,-15.884 -0.706,-3.818 0.848,-7.401 3.626,-8.343 1.272,-0.432 2.396,-0.626 3.296,-0.606 z"
       fill="#f6af9a"
       id="path3239" />
    <path
       d="m 173.618,811.134 c 0,0 1.963,8.957 2.366,16.787 0.403,7.83 0.505,12.517 -0.327,13.773 -0.831,1.256 -5.06,2.867 -7.829,-3.225 -2.768,-6.091 -5.416,-14.617 -4.822,-24.903 0.594,-10.286 9.853,-7.629 10.612,-2.432 z"
       fill="#293463"
       id="path3241" />
    <path
       d="m 168.072,820.548 -4.607,3.309 c 0.731,4.958 2.116,9.301 3.624,12.915 0.541,-2.277 1.2,-5.309 1.563,-7.918 0.687,-4.934 0.953,-8.256 0.953,-8.256 0,0 1.418,-1.416 1.697,-2.719 0,0 -1.528,1.561 -3.23,2.669 z"
       fill="#1e2c56"
       id="path3243" />
    <path
       d="m 168.262,836.618 c 0,0 0.047,2.498 0.376,8.107 0.33,5.609 1.743,14.848 2.12,17.016 0.376,2.168 1.075,2.113 1.688,2.113 1.139,0 1.231,-1.029 1.655,-4.281 0.424,-3.253 1.978,-16.733 1.554,-24.275 0,-4.336 -7.064,-5.373 -7.393,1.32 z"
       fill="#f6af9a"
       id="path3245" />
    <path
       d="m 167.481,837.69 c 0,0 0.384,5.586 1.171,12.974 0.787,7.388 1.367,11.566 1.367,11.566 0,0 2.306,0.99 5.579,-0.084 0,-0.805 0.652,-23.648 0.652,-23.648 0,0 0.64,-7.228 -4.696,-7.228 -4.309,0 -4.073,6.42 -4.073,6.42 z"
       fill="#293463"
       id="path3247" />
    <path
       d="m 169.891,861.281 c 0,0 -0.326,-0.072 -0.326,0.387 0,0.459 0,1.583 0,1.583 0,0 -0.085,0.129 0.519,0.386 0.604,0.258 3.48,0.979 5.824,0 0.085,-0.072 0.157,-0.169 0.157,-0.362 0,-0.194 0,-1.305 0,-1.305 0,0 0.105,-0.446 -0.401,-0.446 0,0 -3.018,1.437 -5.773,-0.243 z"
       fill="#313e75"
       id="path3249" />
    <path
       d="m 159.008,862.232 c 0,0 0,1.525 -0.333,2.468 -0.332,0.943 -0.804,2.662 0.278,3.328 1.081,0.665 3.133,1.608 4.381,2.357 1.248,0.749 4.964,1.47 5.852,0.36 0.887,-1.109 -0.333,-2.135 -0.943,-2.468 -0.61,-0.333 -3.966,-1.775 -5.047,-3.106 -1.082,-1.331 -0.971,-2.302 -0.915,-2.967 0.055,-0.666 -0.389,-1.72 -1.748,-1.72 -1.58,0 -1.525,1.748 -1.525,1.748 z"
       fill="#f9c4b9"
       id="path3251" />
    <path
       d="m 158.184,867.376 v 0.961 c 0,0.19 0.1,0.365 0.263,0.461 0.504,0.295 1.643,0.941 2.652,1.37 1.342,0.571 3.658,2.148 6.091,1.963 2.434,-0.184 2.543,-0.749 2.719,-1.09 0.276,-0.537 0.133,-1.578 0.133,-1.578 z"
       fill="#dfeaef"
       id="path3253" />
    <path
       d="m 158.718,864.569 c 0,0 -0.553,0.884 -0.538,1.958 0.005,0.336 0.005,0.627 0.004,0.849 -0.001,0.291 0.153,0.561 0.404,0.709 0.494,0.291 1.399,0.793 2.529,1.278 1.731,0.742 4.648,3.238 7.987,1.778 0.915,-0.418 1.075,-1.191 0.915,-1.795 -0.16,-0.604 -2.492,-1.745 -3.935,-2.601 -1.443,-0.856 -2.522,-1.682 -3.071,-2.237 -0.55,-0.554 -1.259,-0.559 -1.611,-0.327 -0.353,0.231 -0.504,1.171 -0.504,1.171 0,0 -1.122,10e-4 -2.18,-0.783 z"
       fill="#212851"
       id="path3255" />
    <path
       d="m 167.47,867.531 c -0.487,-0.273 -0.973,-0.541 -1.386,-0.786 -1.443,-0.856 -2.522,-1.682 -3.071,-2.237 -0.55,-0.554 -1.259,-0.559 -1.611,-0.327 -0.353,0.231 -0.504,1.171 -0.504,1.171 0,0 0.487,0.856 1.511,1.426 0.838,0.468 2.734,1.407 3.393,1.732 0.147,0.073 0.32,0.064 0.458,-0.022 0.311,-0.194 0.868,-0.568 1.21,-0.957 z"
       fill="#1c2247"
       id="path3257" />
    <path
       d="m 161.954,811.966 c 0,0 -4.707,-0.694 -4.942,7.225 -0.236,7.919 0.656,20.443 2.352,23.036 1.695,2.592 4.803,2.545 6.075,-2.97 1.271,-5.515 2.26,-13.292 2.59,-16.827 0.33,-3.535 -1.177,-10.7 -6.075,-10.464 z"
       fill="#f9c4b9"
       id="path3259" />
    <path
       d="m 158.289,811.209 c 0,0 -1.108,3.7 -1.554,6.72 -0.447,3.021 0.249,14.336 0.777,19.634 0.528,5.297 1.763,6.458 4.364,6.645 3.032,0.218 3.71,-1.775 4.083,-3.172 0.372,-1.397 2.298,-15.329 2.562,-17.896 0.265,-2.568 0.058,-10.156 0,-11.365 -0.257,-5.362 -9.061,-6.381 -10.232,-0.566 z"
       fill="#293463"
       id="path3261" />
    <path
       d="m 159.174,837.892 c 0,0 -0.848,1.697 -1.319,6.599 -0.471,4.902 -0.188,9.804 0.471,13.904 0.659,4.101 0.471,6.459 1.931,6.788 1.883,0.424 2.09,-3.273 2.731,-7.636 0.706,-4.808 2.584,-16.534 2.49,-19.127 -0.095,-2.592 -4.845,-3.309 -6.304,-0.528 z"
       fill="#f9c4b9"
       id="path3263" />
    <path
       d="m 157.662,838.824 c 0,0 -0.506,4.819 -0.506,9.614 0,4.795 0.506,15.216 0.506,15.216 0,0 2.326,1.667 5.875,0.346 0,0 1.133,-13.372 1.586,-16.619 0.453,-3.247 0.796,-5.864 1.066,-7.55 0.27,-1.687 -1.217,-4.268 -3.822,-4.495 -2.606,-0.226 -4.2,0.67 -4.705,3.488 z"
       fill="#293463"
       id="path3265" />
    <path
       d="m 157.622,862.697 c 0,0 -0.34,-0.076 -0.34,0.402 0,0.479 0,1.649 0,1.649 0,0 -0.089,0.135 0.541,0.403 0.629,0.268 3.625,1.019 6.066,0 0.088,-0.076 0.164,-0.176 0.164,-0.378 0,-0.201 0,-1.359 0,-1.359 0,0 0.109,-0.464 -0.418,-0.464 0,0 -3.144,1.496 -6.013,-0.253 z"
       fill="#313e75"
       id="path3267" />
    <path
       d="m 165.996,786.069 c 0,0 -3.837,-0.527 -6.851,1.547 -3.014,2.074 -1.985,8.079 -1.437,11.274 0.584,3.409 1.098,6.223 1.444,9.176 0.345,2.954 1.287,5.783 6.687,5.908 5.401,0.126 6.374,-3.331 6.719,-5.342 0.346,-2.011 0.628,-8.139 1.193,-11.219 0.566,-3.079 1.193,-8.673 -1.883,-9.93 -3.077,-1.257 -4.239,-1.257 -5.872,-1.414 z"
       fill="#f9c4b9"
       id="path3269" />
    <path
       d="m 164.887,782.186 c -0.223,0.293 -0.337,0.656 -0.34,1.024 -0.003,0.62 -0.061,2.026 -0.478,2.964 -0.548,1.233 1.406,2.814 2.818,2.648 1.53,-0.18 1.995,-0.762 2.031,-2.119 0.036,-1.356 0.042,-1.624 0.01,-2.709 -0.052,-1.729 -1.269,-2.466 -2.273,-2.495 -0.894,-0.026 -1.438,0.255 -1.768,0.687 z"
       fill="#f9c4b9"
       id="path3271" />
    <path
       d="m 166.654,781.499 c -0.893,-0.026 -1.437,0.255 -1.767,0.687 -0.224,0.294 0.058,0.692 0.056,1.06 -0.001,0.125 1.081,2.975 3.977,3.378 0.034,-1.288 0.039,-1.567 0.008,-2.63 -0.052,-1.728 -1.269,-2.466 -2.274,-2.495 z"
       fill="#edad9a"
       id="path3273" />
    <path
       d="m 167.11,773.036 c 0,0 3.879,-0.389 4.779,3.033 0.9,3.422 -0.063,9.078 -2.344,9.573 -2.28,0.496 -5.236,-1.778 -6.347,-5.313 -1.111,-3.534 0.59,-7.14 3.912,-7.293 z"
       fill="#f9c4b9"
       id="path3275" />
    <path
       d="m 172.402,776.47 c 0,0 0.112,1.331 -0.179,2.565 0,0 -0.179,-2.387 -0.469,-3.079 z"
       fill="#19203f"
       id="path3277" />
    <path
       d="m 170.713,782.917 h -2.959 c 0,0 1.48,1.831 2.959,0 z"
       fill="#ffffff"
       id="path3279" />
    <path
       d="m 170.713,780.258 c 0.216,0 0.391,-0.236 0.391,-0.527 0,-0.291 -0.175,-0.526 -0.391,-0.526 -0.216,0 -0.391,0.235 -0.391,0.526 0,0.291 0.175,0.527 0.391,0.527 z"
       fill="#121d3f"
       id="path3281" />
    <path
       d="m 167.754,780.273 c 0.222,0 0.403,-0.243 0.403,-0.542 0,-0.3 -0.181,-0.543 -0.403,-0.543 -0.222,0 -0.402,0.243 -0.402,0.543 0,0.299 0.18,0.542 0.402,0.542 z"
       fill="#121d3f"
       id="path3283" />
    <path
       d="m 169.275,782.058 c -0.072,0 -0.124,-0.002 -0.14,-0.002 -0.066,-0.003 -0.118,-0.058 -0.115,-0.125 0.002,-0.066 0.057,-0.118 0.124,-0.116 0.178,0.007 0.505,0 0.623,-0.045 0.027,-0.009 0.047,-0.031 0.057,-0.058 0.006,-0.014 0.012,-0.041 -0.003,-0.069 -0.39,-0.71 -0.499,-1.744 -0.503,-1.788 -0.007,-0.066 0.041,-0.125 0.107,-0.132 0.066,-0.006 0.126,0.042 0.132,0.108 0.001,0.01 0.109,1.03 0.475,1.696 0.044,0.082 0.051,0.179 0.018,0.269 -0.034,0.092 -0.106,0.165 -0.198,0.199 -0.142,0.054 -0.411,0.063 -0.577,0.063 z"
       fill="#e29d8d"
       id="path3285" />
    <path
       d="m 166.894,778.836 c -0.04,0 -0.079,-0.02 -0.102,-0.056 -0.035,-0.057 -0.018,-0.131 0.038,-0.166 0.971,-0.608 1.765,10e-4 1.773,0.007 0.052,0.041 0.061,0.117 0.02,0.169 -0.041,0.052 -0.116,0.061 -0.169,0.021 -0.028,-0.022 -0.673,-0.509 -1.496,0.007 -0.02,0.012 -0.042,0.018 -0.064,0.018 z m 3.059,0 c -0.04,0 -0.079,-0.02 -0.102,-0.056 -0.035,-0.057 -0.018,-0.131 0.038,-0.166 0.971,-0.608 1.765,10e-4 1.773,0.007 0.052,0.041 0.061,0.117 0.02,0.169 -0.041,0.052 -0.117,0.061 -0.169,0.021 -0.028,-0.022 -0.673,-0.509 -1.496,0.007 -0.02,0.012 -0.042,0.018 -0.064,0.018 z"
       fill="#121d3f"
       id="path3287" />
    <path
       d="m 168.673,781.137 c 0,0 -0.259,-0.384 -0.855,-0.382 -0.504,0.003 -1.237,0.114 -1.344,0.481 -0.107,0.367 0.562,0.448 1.114,0.476 0.551,0.028 1.238,-0.216 1.085,-0.575 z m 2.499,-0.382 c -0.595,-0.002 -0.855,0.382 -0.855,0.382 -0.153,0.359 0.535,0.603 1.086,0.575 0.15,-0.008 0.383,-0.026 0.569,-0.05 0.048,-0.249 0.089,-0.502 0.124,-0.759 -0.282,-0.084 -0.67,-0.147 -0.924,-0.148 z"
       fill="#f4bdb3"
       id="path3289" />
    <path
       d="m 164.937,776.068 c 0,0 0.018,1.275 -0.135,2.736 -0.191,1.837 0.408,3.099 0.132,3.802 -0.275,0.704 -0.42,1.458 -0.42,1.458 0,0 -2.294,-2.586 -2.311,-6.074 -0.031,-1.199 0.369,-3.674 2.193,-4.694 1.824,-1.021 2.339,-1.135 4.261,-0.968 1.923,0.167 3.974,2.292 3.746,4.142 -0.068,0.02 -0.756,-0.41 -1.28,-0.493 -0.676,-0.107 -1.744,0.188 -2.43,0.471 -0.714,0.294 -2.477,0.169 -3.756,-0.38 z"
       fill="#19203f"
       id="path3291" />
    <path
       d="m 165.249,780.494 c 0.19,0.709 -0.052,1.607 -0.449,1.713 -0.396,0.107 -1.03,-0.728 -1.22,-1.437 -0.19,-0.709 0.065,-1.358 0.461,-1.464 0.396,-0.107 1.018,0.479 1.208,1.188 z"
       fill="#f9c4b9"
       id="path3293" />
    <path
       d="m 164.737,781.598 c -0.003,0 -0.007,0 -0.011,-10e-4 -0.033,-0.006 -0.055,-0.038 -0.049,-0.071 0.171,-0.928 -0.504,-1.35 -0.532,-1.368 -0.029,-0.017 -0.038,-0.055 -0.021,-0.084 0.018,-0.028 0.055,-0.038 0.084,-0.02 0.008,0.004 0.776,0.482 0.589,1.494 -0.005,0.029 -0.031,0.05 -0.06,0.05 z"
       fill="#edad9a"
       id="path3295" />
    <path
       d="m 164.759,781.151 c -0.026,0 -0.049,-0.016 -0.058,-0.041 -0.124,-0.347 -0.507,-0.343 -0.523,-0.342 -0.033,0 -0.062,-0.026 -0.063,-0.06 -0.001,-0.034 0.026,-0.062 0.06,-0.062 0.005,-10e-4 0.487,-0.008 0.641,0.423 0.011,0.032 -0.005,0.067 -0.037,0.078 -0.007,0.003 -0.014,0.004 -0.02,0.004 z"
       fill="#edad9a"
       id="path3297" />
    <path
       d="m 163.059,786.12 c 0,0 -4.659,0.169 -5.838,3.643 -1.075,3.162 -0.048,9.341 0,11.297 0.047,1.955 0.198,5.731 0.538,6.109 0,0 -0.43,1.585 -0.234,2.529 0,0 0.139,0.68 -0.304,1.586 -0.444,0.906 0,2.596 0,2.596 0,0 -0.167,1.074 -0.249,1.882 0,0 3.09,1.185 10.868,1.223 2.874,-0.113 7.324,-1.057 7.324,-1.057 0,0 0.115,-1.485 -0.263,-1.951 0,0 0.037,-1.145 -0.341,-1.485 0,0 -0.302,-2.458 -0.151,-3.4 0.151,-0.942 0.296,-3.132 -0.192,-3.925 0,0 0.111,-1.707 0,-2.477 -0.11,-0.77 -0.229,-2.59 0,-4.568 0.23,-1.978 1.062,-7.379 -0.876,-9.627 -1.707,-1.979 -4.426,-2.014 -4.426,-2.014 0,0 0.75,1.843 -0.622,2.218 -2.156,0.589 -5.234,-2.579 -5.234,-2.579 z"
       fill="#de6259"
       id="path3299" />
    <path
       d="m 172.832,806.215 c 0,0 0.834,-0.116 0.784,-0.871 l 0.621,-0.549 c 0.026,-0.547 0.058,-1.561 -0.02,-2.105 -0.098,-0.685 -0.203,-2.204 -0.063,-3.924 l -2.52,0.993 c 0,0 -0.779,-0.635 -1.542,0 0,0 -0.977,-0.205 -1.395,0.551 l -1.451,0.453 c 0,0 -2.913,-9.082 -4.326,-10.251 -1.789,-1.479 -5.519,-0.992 -5.396,3.522 0,0 -0.168,2.993 2.298,8.888 2.467,5.895 3.921,6.697 6.315,6.17 2.394,-0.526 5.098,-2.238 5.098,-2.238 0,0 1.545,-0.054 1.597,-0.639 z"
       fill="#c94c49"
       id="path3301" />
    <path
       d="m 214.305,810.31 c 0,0 -0.305,1.941 -4.463,1.378 -4.158,-0.563 -5.441,-1.078 -8.787,-2.072 -3.063,-0.91 -4.244,-1.011 -4.084,-2.336 0.161,-1.324 3.077,-0.803 5.62,-0.526 2.543,0.278 5.822,0.235 7.748,0.509 1.925,0.273 4.409,1.511 3.966,3.047 z"
       fill="#f9c4b9"
       id="path3303" />
    <path
       d="m 199.076,806.417 c 0,0 -1.193,-0.427 -1.787,-0.74 -0.593,-0.312 -1.093,-0.685 -1.606,-0.826 -0.513,-0.14 -1.87,0.504 -2.05,0.582 -0.18,0.077 -0.153,0.373 0.159,0.504 0,0 -0.45,0.405 0.079,0.743 0,0 -0.373,0.554 0.191,0.741 0,0 -0.284,0.415 0.151,0.53 0.384,0.102 1.025,-0.184 1.47,-0.198 0.445,-0.015 0.821,0.803 1.277,1.005 0.455,0.201 1.245,0.04 2.405,0.371 1.16,0.332 1.929,-2.275 -0.289,-2.712 z"
       fill="#f9c4b9"
       id="path3305" />
    <path
       d="m 193.789,805.932 c 0.344,-0.129 0.851,-0.304 1.204,-0.425 0.503,-0.219 0.8,-0.164 1.225,0.174 -0.262,-0.076 -0.534,-0.235 -0.815,-0.188 -0.262,0.047 -1.364,0.405 -1.614,0.439 z m 0.079,0.743 c 0.773,-0.291 1.828,-0.907 2.57,-0.285 -0.834,-0.389 -1.785,0.061 -2.57,0.285 z m 0.191,0.741 c 0.503,-0.229 1.03,-0.419 1.575,-0.519 0.303,-0.038 0.599,0.174 0.804,0.365 -0.252,-0.09 -0.509,-0.279 -0.787,-0.25 -0.539,0.047 -1.106,0.265 -1.592,0.404 z"
       fill="#edad9a"
       id="path3307" />
    <path
       d="m 158.91,788.249 c 0,0 -2.813,0.758 -1.179,6.593 1.704,6.09 4.825,13.589 6.933,13.034 2.107,-0.555 2.496,-2.496 1.775,-6.101 -0.722,-3.605 -1.942,-6.046 -2.885,-9.484 -0.943,-3.439 -2.592,-4.763 -4.644,-4.042 z"
       fill="#f6af9a"
       id="path3309" />
    <path
       d="m 158.369,788.333 c 0,0 -1.988,1.203 -1.148,5.394 0.84,4.191 3.122,10.006 4.775,12.384 1.653,2.379 3.015,2.154 3.655,1.794 0.641,-0.359 2.23,-1.605 1.322,-5.569 -0.908,-3.965 -2.573,-9.968 -3.402,-11.554 -0.828,-1.586 -2.59,-3.954 -5.202,-2.449 z"
       fill="#de6259"
       id="path3311" />
    <path
       d="m 166.973,802.335 c -0.13,-0.57 -0.277,-1.182 -0.434,-1.817 -1.411,1.001 -1.959,2.172 -1.959,2.172 l 2.433,-0.177 c -0.013,-0.058 -0.026,-0.118 -0.04,-0.178 z"
       fill="#c94c49"
       id="path3313" />
    <path
       d="m 176.566,799.772 c 0,0 1.137,-0.714 1.512,-1.092 0.376,-0.378 1.307,-2.035 1.754,-2.294 0.446,-0.259 3.613,-0.922 4.189,-0.832 0.576,0.09 0.134,0.572 -0.102,0.687 0,0 0.582,0.034 0.66,0.349 0.078,0.316 -0.547,0.416 -0.547,0.416 0,0 0.463,0.105 0.452,0.467 -0.011,0.361 -0.611,0.492 -0.611,0.492 0,0 0.188,0.327 0.082,0.539 -0.107,0.211 -0.275,0.221 -0.991,0.395 -0.716,0.174 -1.139,0.212 -1.496,0.425 -0.358,0.212 0.298,1.371 -3.197,2.752 -0.789,0.333 -2.458,0.544 -2.966,-0.431 -0.509,-0.975 1.261,-1.873 1.261,-1.873 z"
       fill="#f9c4b9"
       id="path3315" />
    <path
       d="m 183.921,796.247 c -0.312,0.063 -0.624,0.122 -0.936,0.183 l -0.938,0.177 c -0.156,0.03 -0.312,0.06 -0.468,0.091 -0.156,0.03 -0.314,0.057 -0.469,0.079 -0.078,0.01 -0.155,0.024 -0.233,0.038 -0.077,0.013 -0.154,0.029 -0.231,0.045 -0.076,0.018 -0.152,0.036 -0.227,0.06 -0.074,0.024 -0.148,0.05 -0.21,0.097 -0.004,0.002 -0.008,0.002 -0.01,-0.002 -0.002,-0.002 -0.002,-0.006 0,-0.008 0.051,-0.066 0.125,-0.108 0.196,-0.146 0.073,-0.037 0.148,-0.067 0.224,-0.094 0.153,-0.054 0.309,-0.094 0.466,-0.127 0.159,-0.031 0.314,-0.056 0.472,-0.078 0.158,-0.021 0.315,-0.042 0.472,-0.065 l 0.944,-0.135 c 0.315,-0.043 0.63,-0.087 0.946,-0.129 0.003,0 0.007,0.003 0.007,0.006 0.001,0.004 -0.002,0.007 -0.005,0.008 z m 0.113,0.765 c -0.315,0.066 -0.63,0.129 -0.945,0.193 l -0.947,0.186 c -0.157,0.032 -0.315,0.063 -0.473,0.096 -0.078,0.016 -0.157,0.031 -0.237,0.045 -0.079,0.014 -0.156,0.023 -0.234,0.039 -0.078,0.013 -0.155,0.029 -0.231,0.048 -0.077,0.018 -0.152,0.039 -0.227,0.064 -0.073,0.025 -0.146,0.053 -0.214,0.091 -0.068,0.037 -0.132,0.083 -0.177,0.148 -0.002,0.004 -0.006,0.005 -0.01,0.002 -0.002,-10e-4 -0.003,-0.005 -0.002,-0.008 0.028,-0.079 0.089,-0.143 0.154,-0.195 0.066,-0.051 0.138,-0.093 0.213,-0.129 0.149,-0.071 0.307,-0.119 0.466,-0.157 0.04,-0.009 0.08,-0.018 0.12,-0.025 0.02,-0.004 0.042,-0.007 0.061,-0.01 l 0.059,-0.011 c 0.079,-0.013 0.159,-0.026 0.238,-0.038 0.159,-0.022 0.318,-0.046 0.477,-0.069 l 0.952,-0.145 c 0.318,-0.046 0.636,-0.094 0.954,-0.138 0.004,-10e-4 0.008,0.002 0.008,0.006 0.001,0.003 -0.002,0.007 -0.005,0.007 z m -0.159,0.96 -0.841,0.155 -0.842,0.151 c -0.14,0.026 -0.279,0.053 -0.419,0.081 l -0.209,0.039 c -0.033,0.008 -0.065,0.014 -0.097,0.022 l -0.048,0.015 -0.024,0.007 -0.024,0.009 c -0.255,0.091 -0.491,0.25 -0.714,0.427 -0.003,0.002 -0.008,0.002 -0.01,-0.001 -0.002,-0.003 -0.002,-0.006 0,-0.009 0.083,-0.118 0.186,-0.222 0.298,-0.315 0.112,-0.093 0.238,-0.173 0.376,-0.232 l 0.026,-0.011 0.027,-0.009 0.054,-0.018 c 0.036,-0.011 0.074,-0.018 0.11,-0.027 0.071,-0.012 0.142,-0.023 0.213,-0.032 l 0.424,-0.055 0.848,-0.111 c 0.283,-0.033 0.566,-0.069 0.85,-0.1 0.003,-10e-4 0.007,0.002 0.007,0.006 0.001,0.004 -0.002,0.007 -0.005,0.008 z"
       fill="#ef9d89"
       id="path3317" />
    <path
       d="m 163.547,807.742 c 0,0 1.62,1.011 4.27,0.237 2.649,-0.775 9.36,-5.073 10.453,-5.904 1.094,-0.83 0.497,-2.989 -1.228,-2.506 -1.726,0.484 -4.009,1.228 -6.623,1.672 -2.614,0.444 -10.086,1.637 -6.872,6.501 z"
       fill="#f9c4b9"
       id="path3319" />
    <path
       d="m 162.379,805.72 c 0,0 0.281,-2.527 2.692,-3.407 2.411,-0.88 4.07,-1.119 4.07,-1.119 0,0 0.655,-0.513 1.246,-0.283 0,0 0.079,-0.299 0.675,-0.233 0.596,0.066 1.962,3.666 1.64,5.343 0,0 -0.127,0.215 -0.608,0.2 0,0 -0.102,0.447 -0.753,0.464 0,0 -4.502,2.756 -7.624,1.287 -0.58,-0.356 -1.32,-1.097 -1.338,-2.252 z"
       fill="#de6259"
       id="path3321" />
    <path
       d="m 197.294,804.718 c -0.387,-0.142 -0.648,-0.531 -0.611,-0.962 0.045,-0.517 0.5,-0.899 1.017,-0.855 3.523,0.304 4.625,-5.837 4.889,-7.849 l -4.18,-0.361 c -0.515,-0.043 -0.899,-0.499 -0.854,-1.017 0.044,-0.516 0.5,-0.9 1.017,-0.854 l 4.245,0.366 c 0.491,0.042 0.951,0.288 1.261,0.671 0.311,0.387 0.449,0.872 0.384,1.365 -0.386,3.018 -1.834,9.991 -6.924,9.552 -0.085,-0.008 -0.167,-0.028 -0.244,-0.056 z m -21.945,-1.119 c -3.326,-1.224 -4.781,-6.31 -5.299,-8.769 -0.103,-0.487 -0.005,-0.982 0.276,-1.393 0.277,-0.406 0.716,-0.686 1.202,-0.767 l 4.202,-0.707 c 0.509,-0.085 0.996,0.26 1.082,0.771 0.085,0.512 -0.259,0.997 -0.771,1.083 l -4.138,0.696 c 0.425,1.985 2.018,8.021 5.503,7.43 0.511,-0.085 0.997,0.26 1.083,0.771 0.085,0.512 -0.26,0.997 -0.772,1.083 -0.878,0.146 -1.665,0.06 -2.368,-0.198 z"
       fill="#f4b442"
       id="path3323" />
    <path
       d="m 199.75,788.239 -24.704,-0.125 c -0.495,-0.002 -0.897,0.396 -0.899,0.891 l -0.002,0.433 c -0.003,0.495 0.395,0.897 0.89,0.9 0.172,5.549 0.851,9.884 1.788,13.286 2.81,10.203 7.945,12.001 8.687,12.982 0.988,1.31 1.324,3.586 -0.032,6.263 -0.857,1.693 -3.498,2.508 -5.325,2.879 -1.077,0.219 -1.854,1.162 -1.859,2.262 l 17.803,0.09 c 0.006,-1.099 -0.761,-2.05 -1.836,-2.28 -1.823,-0.389 -4.455,-1.231 -5.295,-2.933 -1.329,-2.691 -0.971,-4.963 0.032,-6.263 1.002,-1.298 9.828,-3.969 10.741,-26.161 0.009,0 0.018,0 0.027,0 0.236,-0.006 0.449,-0.103 0.607,-0.258 0.163,-0.161 0.264,-0.384 0.265,-0.632 l 0.002,-0.433 c 0.003,-0.496 -0.395,-0.899 -0.89,-0.901 z"
       fill="#ffca28"
       id="path3325" />
    <path
       d="m 199.764,790.463 c -0.005,0.206 -3.186,0.293 -7.106,0.194 -3.919,-0.098 -7.092,-0.345 -7.088,-0.551 0.006,-0.207 3.187,-0.294 7.107,-0.195 3.92,0.099 7.093,0.346 7.087,0.552 z m -7.743,23.735 c -0.085,-0.093 0.697,-0.822 1.667,-2.219 0.488,-0.693 1.024,-1.551 1.541,-2.547 0.517,-0.995 1.021,-2.125 1.476,-3.341 0.906,-2.437 1.466,-4.738 1.834,-6.41 0.368,-1.675 0.543,-2.724 0.65,-2.715 0.105,0.007 0.119,1.088 -0.115,2.81 -0.236,1.718 -0.721,4.085 -1.65,6.583 -0.466,1.248 -1.005,2.403 -1.573,3.411 -0.568,1.009 -1.172,1.867 -1.732,2.54 -0.274,0.342 -0.553,0.625 -0.791,0.877 -0.122,0.124 -0.244,0.231 -0.353,0.333 -0.11,0.1 -0.209,0.192 -0.304,0.27 -0.387,0.302 -0.615,0.448 -0.65,0.408 z"
       fill="#d89935"
       id="path3327" />
    <path
       d="m 195.388,827.387 -16.467,-0.267 c -1.042,-0.017 -1.899,0.813 -1.916,1.855 -0.017,1.041 0.813,1.9 1.855,1.916 l 16.467,0.267 c 1.041,0.018 1.9,-0.813 1.916,-1.855 0.017,-1.041 -0.814,-1.899 -1.855,-1.916 z"
       fill="#f4b442"
       id="path3329" />
    <path
       d="m 176.7,794.994 c -0.081,-0.753 0.313,-1.429 0.879,-1.511 0.565,-0.081 1.089,0.463 1.17,1.217 0.003,0.023 0.855,8.037 2.737,11.992 0.309,0.65 0.171,1.492 -0.31,1.881 -0.48,0.388 -1.12,0.176 -1.43,-0.475 -2.129,-4.475 -3.043,-13.079 -3.046,-13.104"
       fill="#ffe06b"
       id="path3331" />
    <path
       d="m 176.859,799.804 c 0,0 1.137,-0.714 1.512,-1.092 0.376,-0.378 1.307,-2.035 1.754,-2.294 0.446,-0.259 3.613,-0.922 4.189,-0.832 0.576,0.09 0.134,0.572 -0.102,0.686 0,0 0.582,0.035 0.66,0.35 0.078,0.315 -0.547,0.416 -0.547,0.416 0,0 0.463,0.105 0.452,0.467 -0.011,0.361 -0.611,0.492 -0.611,0.492 0,0 0.188,0.327 0.082,0.538 -0.107,0.212 -0.275,0.222 -0.991,0.396 -0.716,0.174 -1.139,0.212 -1.496,0.424 -0.358,0.213 0.298,1.371 -3.197,2.752 -0.789,0.334 -2.458,0.545 -2.966,-0.431 -0.509,-0.975 1.261,-1.872 1.261,-1.872 z"
       fill="#f9c4b9"
       id="path3333" />
    <path
       d="m 184.214,796.279 c -0.312,0.063 -0.624,0.122 -0.936,0.183 l -0.938,0.177 c -0.156,0.029 -0.312,0.06 -0.468,0.091 -0.156,0.03 -0.314,0.056 -0.469,0.078 -0.078,0.011 -0.156,0.025 -0.233,0.039 -0.077,0.013 -0.154,0.029 -0.231,0.045 -0.076,0.018 -0.152,0.036 -0.227,0.06 -0.074,0.023 -0.148,0.05 -0.21,0.096 -0.004,0.003 -0.008,0.002 -0.01,-10e-4 -0.002,-0.002 -0.002,-0.006 0,-0.008 0.051,-0.066 0.125,-0.108 0.196,-0.146 0.073,-0.037 0.148,-0.068 0.224,-0.095 0.153,-0.053 0.309,-0.093 0.466,-0.126 0.159,-0.031 0.314,-0.056 0.472,-0.078 0.158,-0.021 0.315,-0.043 0.472,-0.065 l 0.944,-0.135 c 0.315,-0.043 0.63,-0.088 0.946,-0.129 0.003,0 0.007,0.002 0.007,0.006 0.001,0.004 -0.002,0.007 -0.005,0.008 z m 0.113,0.765 c -0.315,0.066 -0.63,0.129 -0.945,0.193 l -0.947,0.186 c -0.157,0.031 -0.315,0.063 -0.473,0.096 -0.079,0.015 -0.157,0.031 -0.237,0.045 -0.08,0.014 -0.156,0.023 -0.234,0.038 -0.078,0.014 -0.155,0.03 -0.231,0.048 -0.077,0.018 -0.152,0.04 -0.227,0.065 -0.073,0.025 -0.146,0.053 -0.214,0.091 -0.068,0.036 -0.132,0.083 -0.177,0.148 -0.002,0.004 -0.006,0.004 -0.01,0.002 -0.002,-0.002 -0.003,-0.005 -0.002,-0.008 0.028,-0.079 0.089,-0.143 0.154,-0.195 0.066,-0.052 0.138,-0.093 0.213,-0.129 0.149,-0.071 0.307,-0.119 0.466,-0.157 0.04,-0.01 0.08,-0.018 0.12,-0.026 0.02,-0.003 0.042,-0.007 0.061,-0.01 l 0.059,-0.01 c 0.079,-0.014 0.159,-0.026 0.238,-0.038 0.159,-0.022 0.318,-0.046 0.477,-0.07 l 0.952,-0.144 c 0.318,-0.046 0.636,-0.094 0.954,-0.138 0.004,-10e-4 0.008,0.002 0.008,0.005 0.001,0.004 -0.002,0.007 -0.005,0.008 z m -0.159,0.959 -0.841,0.156 -0.842,0.151 c -0.14,0.026 -0.279,0.053 -0.419,0.081 l -0.209,0.039 c -0.033,0.007 -0.065,0.014 -0.097,0.022 l -0.048,0.014 -0.024,0.008 -0.024,0.008 c -0.255,0.092 -0.491,0.25 -0.714,0.427 -0.003,0.003 -0.008,0.003 -0.01,0 -0.002,-0.003 -0.002,-0.006 0,-0.009 0.083,-0.118 0.186,-0.222 0.298,-0.315 0.112,-0.094 0.238,-0.173 0.376,-0.232 l 0.026,-0.011 0.027,-0.009 0.054,-0.018 c 0.036,-0.011 0.074,-0.019 0.11,-0.027 0.071,-0.012 0.142,-0.023 0.213,-0.033 l 0.424,-0.055 0.848,-0.11 c 0.283,-0.034 0.566,-0.069 0.85,-0.1 0.003,-10e-4 0.007,0.002 0.007,0.006 0.001,0.003 -0.002,0.007 -0.005,0.007 z"
       fill="#ef9d89"
       id="path3335" />
    <path
       d="m 163.668,807.722 c 0,0 1.62,1.011 4.27,0.237 2.649,-0.775 9.36,-5.073 10.454,-5.904 1.093,-0.83 0.496,-2.989 -1.229,-2.506 -1.726,0.484 -4.009,1.228 -6.623,1.672 -2.614,0.444 -10.086,1.637 -6.872,6.501 z"
       fill="#f9c4b9"
       id="path3337" />
    <path
       d="m 162.5,805.7 c 0,0 0.281,-2.527 2.692,-3.407 2.411,-0.88 4.07,-1.119 4.07,-1.119 0,0 0.655,-0.513 1.246,-0.283 0,0 0.079,-0.299 0.675,-0.233 0.596,0.066 1.962,3.666 1.64,5.343 0,0 -0.127,0.215 -0.608,0.2 0,0 -0.102,0.447 -0.753,0.464 0,0 -4.502,2.756 -7.624,1.287 -0.58,-0.356 -1.319,-1.097 -1.338,-2.252 z"
       fill="#de6259"
       id="path3339" />
    <path
       d="m 199.195,806.396 c 0,0 -1.193,-0.427 -1.786,-0.74 -0.594,-0.312 -1.094,-0.685 -1.607,-0.826 -0.513,-0.14 -1.87,0.504 -2.05,0.582 -0.179,0.077 -0.153,0.373 0.159,0.504 0,0 -0.45,0.405 0.079,0.743 0,0 -0.373,0.554 0.191,0.741 0,0 -0.283,0.415 0.152,0.53 0.383,0.102 1.024,-0.184 1.469,-0.198 0.445,-0.015 0.822,0.803 1.277,1.005 0.455,0.201 1.245,0.04 2.406,0.371 1.16,0.332 1.928,-2.275 -0.29,-2.712 z"
       fill="#f9c4b9"
       id="path3341" />
  </g>
  <defs
     id="defs4517">
    <filter
       id="filter0_f_923_71300"
       x="141.26601"
       y="740.96997"
       width="93.468597"
       height="93.468597"
       filterUnits="userSpaceOnUse"
       color-interpolation-filters="sRGB">
      <feFlood
         flood-opacity="0"
         result="BackgroundImageFix"
         id="feFlood4467" />
      <feBlend
         mode="normal"
         in="SourceGraphic"
         in2="BackgroundImageFix"
         result="shape"
         id="feBlend4469" />
      <feGaussianBlur
         stdDeviation="0.867156"
         result="effect1_foregroundBlur_923_71300"
         id="feGaussianBlur4471" />
    </filter>
    <filter
       id="filter1_d_923_71300"
       x="0"
       y="1348"
       width="376"
       height="92"
       filterUnits="userSpaceOnUse"
       color-interpolation-filters="sRGB">
      <feFlood
         flood-opacity="0"
         result="BackgroundImageFix"
         id="feFlood4474" />
      <feColorMatrix
         in="SourceAlpha"
         type="matrix"
         values="0 0 0 0 0 0 0 0 0 0 0 0 0 0 0 0 0 0 127 0"
         result="hardAlpha"
         id="feColorMatrix4476" />
      <feOffset
         dy="1"
         id="feOffset4478" />
      <feGaussianBlur
         stdDeviation="4"
         id="feGaussianBlur4480" />
      <feComposite
         in2="hardAlpha"
         operator="out"
         id="feComposite4482" />
      <feColorMatrix
         type="matrix"
         values="0 0 0 0 0 0 0 0 0 0 0 0 0 0 0 0 0 0 0.08 0"
         id="feColorMatrix4484" />
      <feBlend
         mode="normal"
         in2="BackgroundImageFix"
         result="effect1_dropShadow_923_71300"
         id="feBlend4486" />
      <feBlend
         mode="normal"
         in="SourceGraphic"
         in2="effect1_dropShadow_923_71300"
         result="shape"
         id="feBlend4488" />
    </filter>
    <radialGradient
       id="paint0_radial_923_71300"
       cx="0"
       cy="0"
       r="1"
       gradientUnits="userSpaceOnUse"
       gradientTransform="matrix(0,45,-45,0,188,787.705)">
      <stop
         stop-color="#9BD8F2"
         id="stop4491" />
      <stop
         offset="1"
         stop-color="#FAF6EB"
         stop-opacity="0"
         id="stop4493" />
    </radialGradient>
    <clipPath
       id="clip0_923_71300">
      <rect
         width="31.421"
         height="75.724503"
         fill="#ffffff"
         transform="matrix(-1,0,0,1,223.131,63.9795)"
         id="rect4496"
         x="0"
         y="0" />
    </clipPath>
    <clipPath
       id="clip1_923_71300">
      <rect
         width="35.733799"
         height="77.113098"
         fill="#ffffff"
         transform="translate(152.867,62.5913)"
         id="rect4499"
         x="0"
         y="0" />
    </clipPath>
    <clipPath
       id="clip2_923_71300">
      <rect
         x="24"
         y="187.705"
         width="328"
         height="499"
         rx="8"
         fill="#ffffff"
         id="rect4502" />
    </clipPath>
    <clipPath
       id="clip3_923_71300">
      <rect
         width="58.966599"
         height="100.132"
         fill="#ffffff"
         transform="translate(156.43,772.163)"
         id="rect4505"
         x="0"
         y="0" />
    </clipPath>
    <clipPath
       id="clip4_923_71300">
      <rect
         x="24"
         y="920.29498"
         width="328"
         height="109"
         rx="8"
         fill="#ffffff"
         id="rect4508" />
    </clipPath>
    <clipPath
       id="clip5_923_71300">
      <rect
         width="131.314"
         height="72.705101"
         fill="#ffffff"
         transform="translate(122.344,1085.29)"
         id="rect4511"
         x="0"
         y="0" />
    </clipPath>
    <clipPath
       id="clip6_923_71300">
      <rect
         x="24"
         y="1206"
         width="328"
         height="109"
         rx="8"
         fill="#ffffff"
         id="rect4514" />
    </clipPath>
  </defs>
</svg>
