<svg width="18" height="20" viewBox="0 0 18 20" fill="none" xmlns="http://www.w3.org/2000/svg">
<path d="M12.6301 4.37082C11.199 7.15854 8.79212 7.77009 6.22266 8.11954C5.51525 8.21485 4.8241 8.42929 4.13295 8.62784C3.23851 8.882 2.70998 9.47766 2.47418 10.3672C2.37661 10.7246 2.18959 11.0899 1.95378 11.3758C1.31955 12.1621 1.33581 12.8372 2.00257 13.5838C2.55549 14.2033 3.10841 14.8387 3.5475 15.5376C4.76718 17.4755 6.51539 18.4603 8.83278 18.4841C10.0362 18.4921 11.2396 18.4841 12.7358 18.4841C12.3455 18.8098 12.1991 19.0004 11.9958 19.1036C8.58885 20.8986 4.84849 19.9375 2.69372 16.7607C2.17333 15.9903 1.48217 15.3311 0.98617 14.5527C0.563347 13.8538 0.0266879 13.0596 0.0104255 12.3051C-0.0220993 10.3592 0.00229427 8.37369 0.368198 6.47551C1.07561 2.85386 4.40941 0.201164 8.18229 0.0105509C8.72708 -0.0132757 9.33692 -0.0132757 9.82479 0.193222C11.4998 0.900078 13.2399 1.53545 14.7442 2.51235C16.2891 3.51306 16.8014 5.27623 17.0697 7.02352C17.1917 7.84951 17.1917 8.68344 17.2892 9.51737C17.338 9.92242 17.3787 10.3831 17.5901 10.7087C18.1999 11.6141 18.0861 12.448 17.5332 13.3058C17.2892 13.687 17.0941 14.0921 16.8908 14.4971C16.0696 16.1332 14.6791 16.8877 12.8577 16.9354C11.5161 16.9672 10.1582 17.0148 8.82465 16.9036C8.27986 16.8639 7.68628 16.5224 7.28785 16.1491C7.13336 16.0062 7.3529 15.1087 7.58058 15.0293C8.14163 14.8307 8.91409 14.6877 9.39383 14.926C11.142 15.7758 12.8659 15.5376 14.6141 15.0769C15.2483 14.9101 15.5085 14.6083 15.2239 13.8062C14.9149 12.9325 14.9474 11.9159 14.9231 10.9629C14.8905 8.99319 14.4027 7.16648 13.3375 5.48273C13.2155 5.29212 13.0773 5.10945 12.9553 4.92678C12.8821 4.81559 12.8171 4.7044 12.6219 4.37876L12.6301 4.37082Z" fill="white"/>
</svg>
