<svg width="100" height="100" viewBox="0 0 100 100" fill="none" xmlns="http://www.w3.org/2000/svg">
<circle cx="50.1366" cy="49.5019" r="49.5019" fill="white"/>
<path d="M50.3763 94.5091C25.6311 94.5091 5.60922 74.4575 5.60922 49.742C5.60922 24.9968 25.6608 4.97491 50.3763 4.97491C75.1215 4.97491 95.1434 25.0265 95.1434 49.742C95.1731 74.4872 75.1215 94.5091 50.3763 94.5091Z" fill="#C1C6CE"/>
<g clip-path="url(#clip0_3182_25740)">
<path d="M50.3996 5.00006C41.5459 5.00006 32.8911 7.62548 25.5295 12.5443C18.168 17.4632 12.4303 24.4545 9.04217 32.6342C5.65401 40.814 4.76751 49.8147 6.49478 58.4983C8.22205 67.1818 12.4855 75.1582 18.746 81.4187C25.0065 87.6792 32.9829 91.9426 41.6664 93.6699C50.35 95.3972 59.3507 94.5107 67.5305 91.1225C75.7102 87.7344 82.7015 81.9967 87.6204 74.6352C92.5392 67.2736 95.1646 58.6187 95.1646 49.7651C95.1646 37.8926 90.4483 26.5065 82.0533 18.1114C73.6582 9.71636 62.272 5.00006 50.3996 5.00006ZM50.3996 23.6521C52.982 23.6521 55.5063 24.4179 57.6534 25.8526C59.8005 27.2872 61.474 29.3264 62.4622 31.7121C63.4504 34.0979 63.709 36.7231 63.2052 39.2558C62.7014 41.7885 61.4579 44.1149 59.6319 45.9409C57.806 47.7669 55.4795 49.0104 52.9468 49.5142C50.4141 50.018 47.7889 49.7594 45.4031 48.7712C43.0174 47.783 40.9782 46.1095 39.5436 43.9624C38.1089 41.8153 37.3432 39.2909 37.3432 36.7086C37.3432 33.2458 38.7188 29.9249 41.1673 27.4763C43.6159 25.0277 46.9368 23.6521 50.3996 23.6521ZM76.5125 70.5062C76.5175 71.2098 76.3831 71.9075 76.1172 72.5591C75.8514 73.2106 75.4592 73.8031 74.9634 74.3024C74.4675 74.8017 73.8778 75.198 73.2281 75.4684C72.5785 75.7388 71.8817 75.878 71.178 75.878H29.6212C28.9175 75.878 28.2208 75.7388 27.5711 75.4684C26.9215 75.198 26.3317 74.8017 25.8359 74.3024C25.3401 73.8031 24.9479 73.2106 24.682 72.5591C24.4161 71.9075 24.2818 71.2098 24.2867 70.5062V68.7902C24.286 66.7313 24.8532 64.7121 25.926 62.9548C26.9988 61.1975 28.5356 59.7702 30.3673 58.83C36.5354 55.5089 43.3968 53.6817 50.3996 53.4955C57.4025 53.6817 64.2639 55.5089 70.432 58.83C72.2636 59.7702 73.8004 61.1975 74.8732 62.9548C75.946 64.7121 76.5133 66.7313 76.5125 68.7902V70.5062Z" fill="#D9DCE1"/>
</g>
<defs>
<clipPath id="clip0_3182_25740">
<rect width="89.53" height="89.53" fill="white" transform="translate(5.63461 5.00006)"/>
</clipPath>
</defs>
</svg>
