<svg width="15" height="14" viewBox="0 0 15 14" fill="none" xmlns="http://www.w3.org/2000/svg">
<path d="M6.82811 8.33039L6.69111 6.28239C6.66411 5.87039 6.52411 5.20439 6.83811 4.86939C7.07711 4.61139 7.64411 4.56939 7.81711 4.92439C7.96344 5.34374 7.99587 5.79441 7.91111 6.23039L7.72811 8.33839C7.72032 8.53684 7.67697 8.73227 7.60011 8.91539C7.56978 8.97458 7.52386 9.02435 7.46731 9.05934C7.41076 9.09433 7.34572 9.11321 7.27922 9.11393C7.21272 9.11465 7.14729 9.09719 7.08999 9.06343C7.03269 9.02968 6.98571 8.98091 6.95411 8.92239C6.8817 8.73282 6.83952 8.53305 6.82911 8.33039H6.82811ZM7.30211 11.1434C7.16259 11.1427 7.02713 11.0963 6.91643 11.0114C6.80573 10.9265 6.72587 10.8077 6.68904 10.6731C6.65221 10.5385 6.66044 10.3956 6.71246 10.2661C6.76449 10.1367 6.85746 10.0278 6.97718 9.95612C7.09689 9.88446 7.23677 9.85395 7.37545 9.86926C7.51413 9.88456 7.644 9.94483 7.74521 10.0409C7.84642 10.1369 7.91342 10.2634 7.93597 10.4011C7.95852 10.5388 7.93539 10.6801 7.87011 10.8034C7.81564 10.9067 7.73389 10.9931 7.63375 11.0533C7.53361 11.1134 7.41891 11.1449 7.30211 11.1444V11.1434Z" fill="#C5292A"/>
<path d="M13.0627 13.1593H1.53467C1.26382 13.1551 0.998743 13.0804 0.765565 12.9425C0.532386 12.8047 0.339153 12.6084 0.204909 12.3731C0.0706643 12.1379 4.15038e-05 11.8717 1.82877e-08 11.6008C-4.14673e-05 11.3299 0.0704999 11.0637 0.204672 10.8283L5.97267 1.57735C6.1125 1.35181 6.30759 1.1657 6.53946 1.03664C6.77133 0.907581 7.03231 0.839844 7.29767 0.839844C7.56304 0.839844 7.82401 0.907581 8.05588 1.03664C8.28775 1.1657 8.48284 1.35181 8.62267 1.57735L14.3847 10.8133C14.5222 11.0485 14.5958 11.3155 14.598 11.5879C14.6002 11.8603 14.5309 12.1286 14.3972 12.3659C14.2635 12.6032 14.0699 12.8013 13.8357 12.9406C13.6016 13.0798 13.335 13.1552 13.0627 13.1593ZM6.85567 2.11235L1.08467 11.3593C1.04214 11.4379 1.02062 11.5262 1.02219 11.6155C1.02375 11.7048 1.04836 11.7922 1.09361 11.8693C1.13887 11.9463 1.20325 12.0104 1.28052 12.0552C1.35779 12.1001 1.44533 12.1242 1.53467 12.1253H13.0627C13.1529 12.1238 13.2411 12.0988 13.3188 12.0528C13.3964 12.0068 13.4607 11.9414 13.5054 11.863C13.5501 11.7846 13.5736 11.6959 13.5737 11.6057C13.5737 11.5155 13.5503 11.4268 13.5057 11.3483C13.5057 11.3483 7.74467 2.11535 7.74167 2.11235C7.69431 2.03758 7.62882 1.97601 7.55128 1.93334C7.47374 1.89067 7.38667 1.8683 7.29817 1.8683C7.20967 1.8683 7.1226 1.89067 7.04506 1.93334C6.96753 1.97601 6.90203 2.03758 6.85467 2.11235H6.85567Z" fill="#C5292A"/>
</svg>
