<svg width="15" height="14" viewBox="0 0 15 14" fill="none" xmlns="http://www.w3.org/2000/svg">
<path d="M6.8286 8.33074L6.6916 6.28274C6.6646 5.87074 6.5246 5.20474 6.8386 4.86974C7.0776 4.61174 7.6446 4.56974 7.8176 4.92474C7.96393 5.34409 7.99636 5.79476 7.9116 6.23074L7.7286 8.33874C7.72081 8.53719 7.67745 8.73262 7.6006 8.91574C7.57027 8.97493 7.52435 9.02471 7.4678 9.0597C7.41125 9.09469 7.34621 9.11356 7.27971 9.11428C7.21321 9.115 7.14778 9.09754 7.09048 9.06378C7.03318 9.03003 6.9862 8.98126 6.9546 8.92274C6.88219 8.73317 6.84001 8.5334 6.8296 8.33074H6.8286ZM7.3026 11.1437C7.16307 11.143 7.02762 11.0967 6.91692 11.0117C6.80622 10.9268 6.72636 10.808 6.68953 10.6734C6.6527 10.5389 6.66092 10.3959 6.71295 10.2665C6.76498 10.137 6.85795 10.0281 6.97767 9.95647C7.09738 9.88481 7.23726 9.8543 7.37594 9.86961C7.51462 9.88491 7.64448 9.94518 7.7457 10.0412C7.84691 10.1373 7.9139 10.2638 7.93646 10.4015C7.95901 10.5392 7.93588 10.6804 7.8706 10.8037C7.81613 10.9071 7.73438 10.9935 7.63424 11.0536C7.5341 11.1137 7.41939 11.1452 7.3026 11.1447V11.1437Z" fill="#BF2734"/>
<path d="M13.0627 13.1597H1.53467C1.26382 13.1555 0.998743 13.0808 0.765565 12.9429C0.532386 12.8051 0.339153 12.6088 0.204909 12.3735C0.0706643 12.1383 4.15038e-05 11.8721 1.82877e-08 11.6012C-4.14673e-05 11.3303 0.0704999 11.0641 0.204672 10.8287L5.97267 1.57774C6.1125 1.35221 6.30759 1.1661 6.53946 1.03704C6.77133 0.907978 7.03231 0.84024 7.29767 0.84024C7.56304 0.84024 7.82401 0.907978 8.05588 1.03704C8.28775 1.1661 8.48284 1.35221 8.62267 1.57774L14.3847 10.8137C14.5222 11.0489 14.5958 11.3159 14.598 11.5883C14.6002 11.8607 14.5309 12.129 14.3972 12.3663C14.2635 12.6036 14.0699 12.8017 13.8357 12.941C13.6016 13.0802 13.335 13.1556 13.0627 13.1597ZM6.85567 2.11274L1.08467 11.3597C1.04214 11.4383 1.02062 11.5265 1.02219 11.6159C1.02375 11.7052 1.04836 11.7926 1.09361 11.8697C1.13887 11.9467 1.20325 12.0108 1.28052 12.0556C1.35779 12.1005 1.44533 12.1246 1.53467 12.1257H13.0627C13.1529 12.1242 13.2411 12.0992 13.3188 12.0532C13.3964 12.0072 13.4607 11.9418 13.5054 11.8634C13.5501 11.785 13.5736 11.6963 13.5737 11.6061C13.5737 11.5159 13.5503 11.4272 13.5057 11.3487C13.5057 11.3487 7.74467 2.11574 7.74167 2.11274C7.69431 2.03798 7.62882 1.9764 7.55128 1.93374C7.47374 1.89107 7.38667 1.86869 7.29817 1.86869C7.20967 1.86869 7.1226 1.89107 7.04506 1.93374C6.96753 1.9764 6.90203 2.03798 6.85467 2.11274H6.85567Z" fill="#BF2734"/>
</svg>
