<svg width="52" height="56" viewBox="0 0 52 56" fill="none" xmlns="http://www.w3.org/2000/svg">
<path d="M11.0818 23.2016V51.5148C11.0818 53.6355 12.7891 55.3429 14.9099 55.3429H42.52C44.6407 55.3429 46.3481 53.6355 46.3481 51.5148V21.4517L11.0818 23.2016Z" fill="#BBCDFB"/>
<path d="M11.0818 23.2016V51.5148C11.0818 51.6255 11.0874 51.7347 11.0965 51.8429H37.5189C39.6397 51.8429 41.347 50.1356 41.347 48.0149V31.6277L46.3481 26.6266V21.4517L11.0818 23.2016Z" fill="#9EBBFB"/>
<path d="M0.145996 15.0965V44.953C0.145996 47.0738 1.85332 48.7811 3.97411 48.7811H34.2382C36.359 48.7811 38.0663 47.0738 38.0663 44.953V4.48436C38.0663 2.36359 36.359 0.65625 34.2382 0.65625H14.5862L0.145996 15.0965Z" fill="#D9DEFB"/>
<path d="M14.5862 0.65625L0.145996 15.0965H10.7581C12.8789 15.0965 14.5862 13.3891 14.5862 11.2684V0.65625ZM46.3029 9.19996C45.3604 8.25742 43.8428 8.25742 42.9002 9.19996L21.4162 30.684L29.6665 38.9342L51.1505 17.4502C52.093 16.5077 52.093 14.9901 51.1505 14.0476L46.3029 9.19996Z" fill="#2196F3"/>
<path d="M49.5007 12.3979C50.4433 13.3405 50.4433 14.8581 49.5007 15.8006L28.0167 37.2846L29.6666 38.9345L51.1506 17.4505C52.0931 16.5079 52.0931 14.9903 51.1506 14.0478L49.5007 12.3979Z" fill="#2979FF"/>
<path d="M39.7819 12.3184L36.4348 15.6654L44.6851 23.9157L48.0322 20.5686L39.7819 12.3184Z" fill="#FFC45C"/>
<path d="M46.3824 18.9189L43.0353 22.266L44.6851 23.9159L48.0322 20.5688L46.3824 18.9189Z" fill="#FFA14E"/>
<path d="M46.3028 9.20007C45.3603 8.25753 43.8427 8.25753 42.9002 9.20007L39.0601 13.0402L47.3103 21.2905L51.1505 17.4503C52.093 16.5078 52.093 14.9902 51.1505 14.0477L46.3028 9.20007Z" fill="#FF7EBD"/>
<path d="M25.2862 31.0045H23.1028C22.5496 31.0045 22.0538 30.7677 21.7106 30.3896L19.923 32.1773C19.3495 32.7508 19.1633 33.2173 19.14 33.9387L19.1642 39.6017C19.1642 40.113 19.3041 40.4977 19.5819 40.7686C19.8528 41.0464 20.2375 41.1863 20.7487 41.1863L26.4118 41.2105C27.1332 41.1873 27.5997 41.0011 28.1732 40.4275L29.9608 38.6399C29.5828 38.2967 29.346 37.8009 29.346 37.2477V35.0643L27.1624 35.0641C26.6427 35.0641 26.1736 34.8551 25.8341 34.5164C25.4953 34.1769 25.2864 33.7078 25.2864 33.1881L25.2862 31.0045Z" fill="#FFB7BD"/>
<path d="M23.6366 31.0044V31.5381C23.6366 32.6525 24.0168 33.4018 25.2988 33.4018C25.291 33.3316 25.2863 33.2603 25.2863 33.1879L25.2862 31.0044H23.6366ZM27.6962 35.064C27.6962 35.064 27.5265 36.2777 28.3111 36.9899L26.5234 38.7775C25.9499 39.3511 25.4834 39.5373 24.762 39.5606L19.1641 39.5365L19.1643 39.6017C19.1643 40.1129 19.3042 40.4975 19.582 40.7684C19.8529 41.0463 20.2375 41.1861 20.7488 41.1861L26.4118 41.2104C27.1332 41.1872 27.5997 41.0009 28.1733 40.4274L29.961 38.6398C29.5829 38.2966 29.346 37.8007 29.346 37.2476V35.0642L27.6962 35.064Z" fill="#FFA2BD"/>
<path d="M19.1454 35.1724L19.1644 39.6016C19.1644 40.1129 19.3043 40.4975 19.5821 40.7684C19.853 41.0462 20.2376 41.1861 20.7489 41.1861L25.1781 41.205L19.1454 35.1724Z" fill="#455A64"/>
<path d="M49.5003 12.3979C50.4426 13.3405 50.4425 14.8578 49.5001 15.8003L45.66 19.6403L47.3098 21.2901L51.1499 17.4501C52.0924 16.5075 52.0924 14.99 51.1499 14.0475L49.5003 12.3979Z" fill="#E95AAD"/>
<path d="M19.1639 39.5361L19.1642 39.6011C19.1642 40.1123 19.304 40.497 19.5818 40.7679C19.8527 41.0457 20.2373 41.1857 20.7486 41.1857L25.1778 41.2045L23.528 39.5547L19.1639 39.5361Z" fill="#453E64"/>
<path d="M7.32943 20.105H9.7357C11.2505 20.105 12.4701 21.3245 12.4701 22.8394V25.2456C12.4701 26.7604 11.2505 27.98 9.7357 27.98H7.32943C5.81462 27.98 4.59509 26.7604 4.59509 25.2456V22.8394C4.59509 21.3245 5.81462 20.105 7.32943 20.105ZM7.32943 33.2858H9.7357C11.2505 33.2858 12.4701 34.5053 12.4701 36.0201V38.4264C12.4701 39.9412 11.2505 41.1607 9.7357 41.1607H7.32943C5.81462 41.1607 4.59509 39.9412 4.59509 38.4264V36.0201C4.59509 34.5053 5.81462 33.2858 7.32943 33.2858Z" fill="#5BB774"/>
<path d="M15.9612 5.08447V5.52208H16.8356V5.08447H15.9612ZM18.1485 5.08447V5.52208H19.0237V5.08447H18.1485ZM20.3357 5.08447V5.52208H21.2109V5.08447H20.3357ZM22.5237 5.08447V5.52208H23.3981V5.08447H22.5237ZM24.7109 5.08447V5.52208H25.5862V5.08447H24.7109ZM26.8982 5.08447V5.52208H27.7734V5.08447H26.8982ZM29.0862 5.08447V5.52208H29.9606V5.08447H29.0862ZM31.2734 5.08447V5.52208H32.1486V5.08447H31.2734ZM33.4607 5.08447V5.52208H34.3359V5.08447H33.4607ZM35.6487 5.08447V5.52208H36.5231V5.08447H35.6487ZM1.93799 44.6086V45.0462H2.81239V44.6086H1.93799ZM4.12521 44.6086V45.0462H5.00043V44.6086H4.12521ZM6.31244 44.6086V45.0462H7.18765V44.6086H6.31244ZM8.50047 44.6086V45.0462H9.37488V44.6086H8.50047ZM10.6877 44.6086V45.0462H11.5629V44.6086H10.6877ZM12.8749 44.6086V45.0462H13.7501V44.6086H12.8749ZM15.063 44.6086V45.0462H15.9374V44.6086H15.063ZM17.2502 44.6086V45.0462H18.1254V44.6086H17.2502ZM19.4374 44.6086V45.0462H20.3126V44.6086H19.4374ZM21.6254 44.6086V45.0462H22.4998V44.6086H21.6254ZM23.8127 44.6086V45.0462H24.6879V44.6086H23.8127ZM25.9999 44.6086V45.0462H26.8751V44.6086H25.9999ZM28.1879 44.6086V45.0462H29.0623V44.6086H28.1879ZM30.3752 44.6086V45.0462H31.2504V44.6086H30.3752ZM32.5624 44.6086V45.0462H33.4376V44.6086H32.5624ZM34.7504 44.6086V45.0462H35.6248V44.6086H34.7504Z" fill="#8DA2E9"/>
<path d="M9.7745 35.9655C9.66229 35.9718 9.55642 36.0204 9.48419 36.0928L8.15206 37.4241L7.58041 36.8525C7.40959 36.6818 7.1328 36.6818 6.96198 36.8525C6.79132 37.0233 6.79132 37.3001 6.96198 37.4709L7.84274 38.3527C8.01367 38.5239 8.29109 38.5239 8.46202 38.3527L10.1026 36.7113C10.2733 36.5404 10.2733 36.2637 10.1026 36.0928C10.0052 35.9955 9.88671 35.9593 9.7745 35.9655Z" fill="#D9DEFB"/>
<path d="M16.2185 25.5034C15.977 25.5037 15.7815 25.6997 15.7816 25.9411C15.7819 26.1822 15.9773 26.3776 16.2185 26.378H19.7396C19.9809 26.378 20.1767 26.1825 20.1771 25.9411C20.1772 25.6994 19.9813 25.5034 19.7396 25.5034H16.2185Z" fill="#455A64"/>
<path d="M9.80099 22.7853C9.68859 22.7828 9.57372 22.8224 9.48419 22.9117L8.15206 24.2439L7.58041 23.6724C7.40959 23.5018 7.1328 23.5018 6.96198 23.6724C6.79132 23.8433 6.79132 24.12 6.96198 24.2909L7.84274 25.1725C8.0139 25.3434 8.29133 25.3431 8.46202 25.1716L10.1026 23.531C10.2739 23.3601 10.2739 23.0826 10.1026 22.9117C10.0233 22.8324 9.91339 22.7878 9.80099 22.7853Z" fill="#D9DEFB"/>
<path d="M16.2185 21.3589C15.977 21.3593 15.7815 21.5552 15.7816 21.7966C15.7816 22.038 15.9771 22.2338 16.2185 22.2341H22.3506C22.5919 22.2337 22.7873 22.0379 22.7873 21.7966C22.7874 21.5553 22.592 21.3594 22.3506 21.3589H16.2185ZM19.0233 14.2089C18.7817 14.2089 18.5858 14.4047 18.5858 14.6464C18.5857 14.8881 18.7816 15.0841 19.0233 15.0841H32.9094C33.1512 15.0842 33.3473 14.8881 33.3471 14.6464C33.3471 14.4047 33.1511 14.2087 32.9094 14.2089H19.0233ZM19.0233 10.2881C18.7819 10.2881 18.5862 10.4836 18.5858 10.7249C18.5857 10.9666 18.7816 11.1626 19.0233 11.1626H24.8226C25.0644 11.1628 25.2605 10.9667 25.2604 10.7249C25.26 10.4835 25.0641 10.288 24.8226 10.2881H19.0233Z" fill="#455A64"/>
</svg>
