<svg width="302" height="381" viewBox="0 0 302 381" fill="none" xmlns="http://www.w3.org/2000/svg">
<path fill-rule="evenodd" clip-rule="evenodd" d="M30.1549 193.306L32.7234 208.067L47.5647 210.125L34.3194 217.134L36.9473 231.883L26.1896 221.452L12.9748 228.506L19.5732 215.052L8.77722 204.661L23.611 206.781L30.1549 193.306Z" fill="#FFBF42" fill-opacity="0.4"/>
<path fill-rule="evenodd" clip-rule="evenodd" d="M81.0056 349.899L82.7353 359.838L92.7252 361.225L83.8092 365.941L85.577 375.876L78.3337 368.847L69.4341 373.601L73.8787 364.543L66.6068 357.547L76.594 358.975L81.0056 349.899Z" fill="#FFBF42" fill-opacity="0.4"/>
<path fill-rule="evenodd" clip-rule="evenodd" d="M291.428 221.818L287.574 231.601L295.717 238.265L285.218 237.62L281.402 247.421L278.767 237.236L268.269 236.638L277.137 230.986L274.466 220.813L282.583 227.506L291.428 221.818Z" fill="#FFBF42" fill-opacity="0.4"/>
<path fill-rule="evenodd" clip-rule="evenodd" d="M129.491 169.202L127.635 177.28L134.761 181.509L126.508 182.245L124.686 190.328L121.437 182.707L113.188 183.468L119.436 178.026L116.157 170.419L123.263 174.673L129.491 169.202Z" fill="#FFBF42" fill-opacity="0.4"/>
<path fill-rule="evenodd" clip-rule="evenodd" d="M35.9299 59.4307L41.7025 67.1331L50.7994 63.986L45.2587 71.8589L51.062 79.5374L41.8627 76.7006L36.3527 84.5905L36.2095 74.9651L27 72.1623L36.1106 69.0527L35.9299 59.4307Z" fill="#FFBF42" fill-opacity="0.3"/>
<path fill-rule="evenodd" clip-rule="evenodd" d="M258.28 0L263.818 8.21046L273.324 5.44523L267.227 13.2465L272.792 21.4331L263.49 18.0439L257.425 25.8691L257.772 15.9743L248.457 12.6226L257.974 9.89483L258.28 0Z" fill="#FFBF42" fill-opacity="0.3"/>
<path fill-rule="evenodd" clip-rule="evenodd" d="M100.526 38.4102L101.818 43.5758L107.13 43.9202L102.619 46.7468L103.932 51.9056L99.8506 48.4891L95.3498 51.3294L97.3411 46.3922L93.2461 42.9927L98.5549 43.3576L100.526 38.4102Z" fill="#FFBF42" fill-opacity="0.3"/>
</svg>
