<svg width="32" height="74" viewBox="0 0 32 74" fill="none" xmlns="http://www.w3.org/2000/svg">
<path d="M30.1632 70.6202C29.6132 70.2002 29.1032 69.9102 28.5632 69.7102C28.0232 69.5202 27.4632 69.4202 26.8832 69.3902C25.7132 69.3402 24.4432 69.5602 23.2132 69.8502C21.9932 70.1502 20.8332 70.5202 19.9632 70.8102C19.1032 71.1002 18.5332 71.3202 18.5332 71.3202C18.5332 71.3202 19.0832 71.6402 19.9732 72.0202C20.8632 72.4002 22.0932 72.8302 23.4332 73.0602C24.7632 73.2902 26.2232 73.3202 27.4832 72.9602C28.7432 72.6002 29.8132 71.8302 30.1732 70.6102L30.1632 70.6202Z" fill="#C58F27"/>
<path d="M26.4232 65.2001C26.9032 66.2701 27.5932 67.3101 28.4932 67.9901C28.9432 68.3301 29.4432 68.5801 29.9932 68.6901C30.5332 68.8001 31.1132 68.7701 31.6732 68.5301C31.7032 67.2501 31.3532 66.2401 30.8032 65.3501C30.2532 64.4701 29.4732 63.7101 28.6732 63.0501C27.8732 62.4001 27.0432 61.8501 26.4232 61.4601C25.8032 61.0701 25.3832 60.8401 25.3832 60.8401C25.3832 60.8401 25.3832 60.9801 25.4132 61.2201C25.4332 61.4601 25.4732 61.8001 25.5432 62.2101C25.6832 63.0301 25.9432 64.1201 26.4232 65.1901V65.2001Z" fill="#C58F27"/>
<path d="M17.6432 68.05C18.8632 67.99 19.9532 67.52 20.7132 66.5C20.1032 65.41 19.1832 64.83 18.0832 64.49C16.9832 64.15 15.6932 64.06 14.4232 64.02C13.1632 63.98 11.9132 64.02 10.9632 64.02C10.0032 64.04 9.39319 64.05 9.39319 64.05C9.39319 64.05 9.51318 64.18 9.72318 64.39C9.94318 64.59 10.2632 64.89 10.6532 65.22C11.4432 65.88 12.5732 66.64 13.8132 67.2C15.0532 67.76 16.4132 68.12 17.6332 68.06L17.6432 68.05Z" fill="#C58F27"/>
<path d="M19.9631 63.2202C20.6531 64.1002 21.6231 64.6802 22.8331 64.6202C23.3231 63.4402 23.2431 62.3202 22.9131 61.2902C22.5831 60.2602 21.9931 59.3202 21.3931 58.5002C20.7931 57.6802 20.1831 56.9802 19.7431 56.4802C19.5231 56.2302 19.3331 56.0202 19.2031 55.8902C19.0831 55.7502 19.0031 55.6802 19.0031 55.6802C19.0031 55.6802 18.9631 55.8102 18.9031 56.0302C18.8431 56.2602 18.7731 56.5802 18.7131 56.9802C18.5831 57.7802 18.5231 58.8802 18.6931 60.0302C18.8631 61.1702 19.2731 62.3502 19.9631 63.2302V63.2202Z" fill="#C58F27"/>
<path d="M4.9931 54.45C4.1231 54.18 3.56311 54.02 3.56311 54.02C3.56311 54.02 3.61311 54.16 3.72311 54.4C3.84311 54.64 4.01312 54.98 4.23312 55.37C4.45312 55.77 4.73312 56.23 5.04312 56.72C5.20312 56.96 5.3731 57.21 5.5531 57.46L5.69312 57.65L5.87311 57.88C5.99311 58.04 6.1131 58.19 6.2431 58.34C7.2531 59.55 8.5131 60.47 9.7431 60.86C10.9731 61.25 12.1631 61.13 13.1831 60.36C12.8931 59.14 12.2131 58.3 11.2831 57.58C11.0531 57.4 10.8031 57.23 10.5531 57.05C10.3031 56.88 10.0231 56.71 9.75311 56.55C9.48311 56.38 9.20311 56.21 8.90311 56.05C8.63311 55.9 8.36313 55.76 8.08313 55.63C6.98313 55.11 5.84312 54.71 4.98312 54.44L4.9931 54.45Z" fill="#C58F27"/>
<path d="M13.4832 56.6201C13.8132 57.6701 14.5732 58.5401 15.7332 58.8102C16.5332 57.8202 16.7932 56.7502 16.8632 55.7302C16.9232 54.7102 16.7832 53.7401 16.6732 52.9301C16.6332 52.5901 16.5032 52.0001 16.3732 51.5501C16.2432 51.0801 16.1032 50.6602 15.9732 50.3102C15.8432 49.9602 15.7232 49.6702 15.6332 49.4702C15.5632 49.2702 15.5132 49.1501 15.5132 49.1501C15.5132 49.1501 15.4332 49.2602 15.3032 49.4702C15.1632 49.6802 14.9932 49.9701 14.8032 50.3401C14.4232 51.0701 13.9632 52.1002 13.6432 53.2302C13.5632 53.5202 13.4932 53.8002 13.4332 54.1002C13.3832 54.3702 13.3432 54.6502 13.3132 54.9402C13.2932 55.2202 13.3132 55.5002 13.3332 55.7902C13.3632 56.0702 13.4232 56.3401 13.5032 56.6101L13.4832 56.6201Z" fill="#C58F27"/>
<path d="M3.66312 50.1602C3.86312 50.4102 4.09313 50.6202 4.33313 50.8202C4.57313 51.0202 4.81311 51.2102 5.06311 51.3702C6.07311 52.0202 7.19312 52.2902 8.41312 51.9302C8.51312 51.3202 8.47311 50.7602 8.31311 50.2502C8.23311 49.9902 8.12312 49.7502 7.98312 49.5102C7.85312 49.2702 7.6831 49.0402 7.5231 48.8102C6.8731 47.9002 5.86311 47.1102 4.84311 46.4102C3.85311 45.7002 2.81312 45.0902 2.01312 44.6502C1.19312 44.2102 0.683105 43.9402 0.683105 43.9402C0.683105 43.9402 0.703102 44.0902 0.773102 44.3602C0.843102 44.6202 0.953119 44.9902 1.10312 45.4402C1.40312 46.3302 1.82311 47.5202 2.53311 48.6002C2.87311 49.1502 3.24312 49.6902 3.66312 50.1602Z" fill="#C58F27"/>
<path d="M10.2531 49.6902C10.4931 50.1702 10.8431 50.5902 11.3231 50.9302C12.4331 50.3002 13.0631 49.3502 13.3931 48.3102C13.4831 48.0502 13.5431 47.7902 13.5931 47.5202C13.6231 47.3902 13.6431 47.2502 13.6531 47.1202C13.6731 46.9902 13.6931 46.8502 13.7131 46.7102C13.7831 46.1602 13.8031 45.6202 13.7831 45.0902C13.7131 44.0502 13.6531 43.0602 13.5131 42.3502C13.4531 41.9902 13.3831 41.7002 13.3431 41.4902C13.3131 41.2902 13.2831 41.1702 13.2831 41.1702C13.2831 41.1702 13.1831 41.2602 13.0131 41.4402C12.8331 41.6102 12.6131 41.8602 12.3531 42.1802C11.8331 42.8102 11.1931 43.7202 10.6631 44.7702C10.1631 45.8102 9.84313 46.9902 9.85313 48.1102C9.85313 48.3902 9.89312 48.6602 9.96312 48.9202C10.0231 49.1802 10.1231 49.4302 10.2431 49.6702L10.2531 49.6902Z" fill="#C58F27"/>
<path d="M1.54321 40.11C1.69321 40.39 1.86321 40.66 2.04321 40.91C2.23321 41.16 2.4432 41.39 2.6632 41.6C3.5332 42.45 4.5832 42.93 5.8532 42.81C6.0732 42.23 6.1332 41.68 6.0732 41.15C6.0432 40.88 5.98321 40.62 5.89321 40.36C5.81321 40.1 5.7232 39.84 5.6032 39.59C5.3732 39.08 5.04321 38.58 4.67321 38.09C4.48321 37.85 4.2932 37.61 4.1032 37.37C3.9132 37.13 3.7032 36.9 3.5032 36.67C2.6732 35.76 1.76319 34.92 1.12319 34.3C0.473192 33.68 0.00319699 33.29 0.00319699 33.29C0.00319699 33.29 -0.0167945 33.92 0.0432055 34.87C0.0732055 35.34 0.173196 35.9 0.283196 36.49C0.343196 36.79 0.403208 37.09 0.483208 37.4C0.553208 37.71 0.633197 38.02 0.753197 38.33C0.973197 38.95 1.24318 39.56 1.55318 40.12L1.54321 40.11Z" fill="#C58F27"/>
<path d="M8.86321 42.14C10.0732 41.72 10.8732 40.92 11.4032 40.01C11.5332 39.78 11.6532 39.54 11.7532 39.3C11.8732 39.05 11.9732 38.81 12.0632 38.55C12.2432 38.05 12.3632 37.54 12.4532 37.04C12.5432 36.54 12.6532 36.06 12.7032 35.62C12.7332 35.39 12.7532 35.18 12.7632 34.98C12.7732 34.78 12.7832 34.59 12.8132 34.42C12.8932 33.73 12.8832 33.27 12.8832 33.27C12.8832 33.27 12.4132 33.53 11.7432 34.01C11.5732 34.13 11.3932 34.27 11.2132 34.41C11.0232 34.56 10.8332 34.72 10.6432 34.9C10.2732 35.25 9.88318 35.66 9.52318 36.1C9.34318 36.32 9.16319 36.56 9.00319 36.8C8.92319 36.92 8.8432 37.05 8.7632 37.17C8.6932 37.3 8.62319 37.42 8.56319 37.55C8.31319 38.06 8.1232 38.6 8.0132 39.15C7.9632 39.42 7.92318 39.69 7.93318 39.96C7.94318 40.23 7.99318 40.49 8.05318 40.74C8.19318 41.25 8.45321 41.73 8.86321 42.15V42.14Z" fill="#C58F27"/>
<path d="M4.47314 26.88C4.19314 26.34 3.88314 25.81 3.59314 25.32C3.28314 24.82 3.01314 24.37 2.78314 24C2.30314 23.24 1.96313 22.74 1.96313 22.74C1.96313 22.74 1.78314 23.34 1.59314 24.27C1.52314 24.74 1.45315 25.3 1.41315 25.9C1.39315 26.2 1.37316 26.51 1.36316 26.83C1.36316 27.15 1.38315 27.48 1.41315 27.8C1.47315 28.46 1.55314 29.12 1.72314 29.74C1.91314 30.37 2.15313 30.96 2.46313 31.47C3.06313 32.51 4.03314 33.22 5.28314 33.4C5.44314 33.14 5.57315 32.89 5.66315 32.63C5.75315 32.37 5.83314 32.11 5.87314 31.85C5.96314 31.32 5.92315 30.78 5.79315 30.23C5.68315 29.68 5.51313 29.12 5.27313 28.56C5.03313 28 4.74314 27.44 4.47314 26.89V26.88Z" fill="#C58F27"/>
<path d="M11.2932 31.7002C11.6732 31.3302 11.9932 30.9102 12.2632 30.4802C12.5632 30.0502 12.8231 29.6002 13.0331 29.1502C13.1431 28.9302 13.2232 28.7002 13.3332 28.4902C13.4332 28.2802 13.5332 28.0602 13.6132 27.8602C13.7832 27.4502 13.9032 27.0702 14.0132 26.7502C14.2632 26.1102 14.3731 25.6702 14.3731 25.6702C14.3731 25.6702 13.8532 25.7902 13.0832 26.0802C12.2932 26.3602 11.3531 26.8402 10.4131 27.5102C10.1831 27.6802 9.94315 27.8602 9.73315 28.0502C9.52315 28.2402 9.32315 28.4502 9.13315 28.6602C8.75315 29.0902 8.41315 29.5602 8.19315 30.0502C7.98315 30.5502 7.86316 31.0702 7.86316 31.5902C7.86316 31.8502 7.88314 32.1102 7.97314 32.3702C8.05314 32.6302 8.17316 32.8902 8.33316 33.1402C9.60316 33.0202 10.5132 32.4402 11.2932 31.7002Z" fill="#C58F27"/>
<path d="M7.5932 23.5501C7.7632 23.3301 7.8932 23.1001 8.0032 22.8501C8.1132 22.6101 8.18319 22.3501 8.24319 22.0901C8.29319 21.8301 8.3132 21.5501 8.3432 21.2801C8.3832 20.7301 8.3432 20.1401 8.2532 19.5401C8.1632 18.9401 8.0532 18.3401 7.9032 17.7401C7.5932 16.5401 7.2632 15.4101 6.9632 14.5501C6.6632 13.6901 6.4632 13.1401 6.4632 13.1401C6.4632 13.1401 6.3832 13.2701 6.2532 13.5101C6.1332 13.7501 5.96321 14.1001 5.76321 14.5201C5.36321 15.3601 4.95322 16.5701 4.70322 17.8301C4.60322 18.4701 4.5332 19.1301 4.5332 19.7701C4.5332 20.0901 4.56321 20.4101 4.60321 20.7201C4.65321 21.0301 4.71319 21.3301 4.80319 21.6201C4.98319 22.2001 5.22321 22.7101 5.60321 23.1501C5.97321 23.5901 6.45321 23.9401 7.04321 24.1901C7.26321 23.9901 7.45321 23.7701 7.60321 23.5501H7.5932Z" fill="#C58F27"/>
<path d="M17.5931 18.9802C17.7031 18.8102 17.7531 18.7102 17.7531 18.7102C17.7531 18.7102 17.6131 18.7102 17.3831 18.7102C17.1431 18.7102 16.8131 18.7402 16.4131 18.7902C16.0131 18.8402 15.5431 18.9202 15.0331 19.0302C14.7831 19.0902 14.5131 19.1502 14.2531 19.2302C13.9931 19.3102 13.7331 19.4002 13.4731 19.5102C12.9531 19.7202 12.4031 19.9702 11.9331 20.2902C11.4631 20.6102 11.0431 20.9802 10.6831 21.3902C10.5031 21.6002 10.3631 21.8202 10.2431 22.0502C10.1231 22.2802 10.0331 22.5302 9.96313 22.7802C9.90313 23.0302 9.86316 23.2902 9.86316 23.5602C9.87316 23.8302 9.93315 24.1102 10.0132 24.3902C10.6432 24.4902 11.2231 24.4702 11.7531 24.3502C12.2831 24.2302 12.7931 24.0302 13.2531 23.7702C13.4831 23.6402 13.7031 23.5002 13.9031 23.3402C14.0031 23.2702 14.1032 23.1802 14.2032 23.1002C14.3032 23.0202 14.4031 22.9402 14.5031 22.8502C14.9031 22.5102 15.2531 22.1402 15.5631 21.7602C15.9031 21.3902 16.2032 21.0102 16.4532 20.6502C16.5132 20.5602 16.5832 20.4702 16.6432 20.3802C16.7032 20.2902 16.7632 20.2102 16.8232 20.1302C16.9432 19.9702 17.0532 19.8102 17.1432 19.6702C17.3332 19.3802 17.4732 19.1302 17.5832 18.9602L17.5931 18.9802Z" fill="#C58F27"/>
<path d="M11.0332 15.79C11.5732 15.52 11.9832 15.15 12.2932 14.73C12.6232 14.32 12.8432 13.83 12.9932 13.29C13.3232 12.24 13.3732 10.98 13.3632 9.76999C13.3632 9.46999 13.3432 9.16 13.3232 8.86C13.3132 8.57 13.2932 8.28 13.2732 8C13.2332 7.44 13.1732 6.92 13.1232 6.47C13.0332 5.59 12.9332 5 12.9332 5C12.9332 5 12.8332 5.12 12.6532 5.31C12.4832 5.51 12.2332 5.8 11.9632 6.17C11.6932 6.54 11.3732 6.97 11.0832 7.48C10.7932 7.98 10.4832 8.53 10.2332 9.11C9.99321 9.7 9.7732 10.31 9.6332 10.93C9.5032 11.55 9.43319 12.17 9.46319 12.76C9.54319 13.95 10.0032 15.02 11.0232 15.78L11.0332 15.79Z" fill="#C58F27"/>
<path d="M16.3679 10.1446C16.9707 10.179 17.5104 10.062 17.9883 9.85186C18.4785 9.66036 18.9131 9.34473 19.3118 8.95091C20.1204 8.20422 20.7907 7.13608 21.3839 6.08145C21.5332 5.8212 21.67 5.54234 21.8019 5.27215C21.9375 5.0156 22.0644 4.75408 22.1863 4.50123C22.4302 3.99554 22.6369 3.51461 22.8174 3.09937C23.1771 2.29121 23.3838 1.72965 23.3838 1.72965C23.3838 1.72965 23.2374 1.784 22.9867 1.85928C22.7397 1.9482 22.3786 2.0754 21.9603 2.26205C21.542 2.44871 21.0506 2.66254 20.5453 2.96069C20.045 3.25017 19.5024 3.57307 18.997 3.95184C18.4953 4.34426 18.001 4.76397 17.5711 5.23216C17.1499 5.70533 16.7808 6.20834 16.5133 6.73508C15.9907 7.80718 15.8574 8.96422 16.3642 10.1309L16.3679 10.1446Z" fill="#C58F27"/>
<path d="M19.8831 15.1501C20.2931 14.8501 20.6731 14.5501 21.0131 14.2501C21.3531 13.9501 21.6631 13.6801 21.9131 13.4301C22.1631 13.1801 22.3731 12.9801 22.5131 12.8301C22.6531 12.6801 22.7331 12.6001 22.7331 12.6001C22.7331 12.6001 22.2031 12.4801 21.3831 12.4001C20.9731 12.3601 20.5031 12.3401 19.9831 12.3401C19.4631 12.3401 18.9031 12.3801 18.3431 12.4701C17.2131 12.6401 16.0731 13.0201 15.2031 13.6701C14.7831 14.0001 14.4231 14.3901 14.1731 14.8501C13.9431 15.3101 13.8231 15.8401 13.8431 16.4201C15.0131 16.9301 16.1231 16.8901 17.1331 16.5901C17.6431 16.4501 18.1331 16.2301 18.5831 15.9801C19.0431 15.7301 19.4931 15.4501 19.8931 15.1501H19.8831Z" fill="#C58F27"/>
</svg>
