<svg width="350" height="498" viewBox="0 0 350 498" fill="none" xmlns="http://www.w3.org/2000/svg">
<path fill-rule="evenodd" clip-rule="evenodd" d="M254.649 279.395L254.857 264.414L240.653 259.644L254.967 255.209L255.115 240.228L263.756 252.47L278.048 247.985L269.073 259.984L277.759 272.194L263.574 267.365L254.649 279.395Z" fill="#FFBF42" fill-opacity="0.4"/>
<path fill-rule="evenodd" clip-rule="evenodd" d="M239.624 371.51L239.764 361.423L230.204 358.21L239.839 355.226L239.941 345.136L245.758 353.384L255.384 350.36L249.339 358.439L255.19 366.66L245.64 363.408L239.624 371.51Z" fill="#FFBF42" fill-opacity="0.4"/>
<path fill-rule="evenodd" clip-rule="evenodd" d="M9.1275 458.422L14.726 449.523L7.95737 441.466L18.1549 444.044L23.7197 435.118L24.4233 445.615L34.6299 448.146L24.8688 452.058L25.6097 462.55L18.8722 454.47L9.1275 458.422Z" fill="#FFBF42" fill-opacity="0.4"/>
<path fill-rule="evenodd" clip-rule="evenodd" d="M180.139 490.912L183.458 483.317L177.238 477.842L185.485 478.647L188.772 471.041L190.554 479.132L198.801 479.911L191.653 484.102L193.468 492.185L187.272 486.688L180.139 490.912Z" fill="#FFBF42" fill-opacity="0.4"/>
<path fill-rule="evenodd" clip-rule="evenodd" d="M111.93 59.4307L117.702 67.1331L126.799 63.986L121.259 71.8589L127.062 79.5374L117.863 76.7006L112.353 84.5905L112.209 74.9651L103 72.1623L112.111 69.0527L111.93 59.4307Z" fill="#FFBF42" fill-opacity="0.3"/>
<path fill-rule="evenodd" clip-rule="evenodd" d="M270.004 50L270.648 56.7239L277.253 58.1661L271.054 60.8564L271.726 67.5802L267.249 62.5169L261.064 65.2344L264.494 59.4141L260 54.3678L266.598 55.8339L270.004 50Z" fill="#FFBF42" fill-opacity="0.3"/>
<path fill-rule="evenodd" clip-rule="evenodd" d="M334.28 0L339.818 8.21046L349.324 5.44523L343.227 13.2465L348.792 21.4331L339.49 18.0439L333.424 25.8691L333.772 15.9743L324.457 12.6226L333.973 9.89483L334.28 0Z" fill="#FFBF42" fill-opacity="0.3"/>
<path fill-rule="evenodd" clip-rule="evenodd" d="M206.28 13L207.572 18.1656L212.884 18.51L208.373 21.3366L209.686 26.4954L205.605 23.079L201.104 25.9192L203.095 20.982L199 17.5826L204.309 17.9474L206.28 13Z" fill="#FFBF42" fill-opacity="0.3"/>
</svg>
