<?xml version="1.0" encoding="utf-8"?>
<!-- Generator: Adobe Illustrator 24.0.1, SVG Export Plug-In . SVG Version: 6.00 Build 0)  -->
<svg version="1.1" id="Layer_1" xmlns="http://www.w3.org/2000/svg" xmlns:xlink="http://www.w3.org/1999/xlink" x="0px" y="0px"
	 viewBox="0 0 72 703" style="enable-background:new 0 0 72 703;" xml:space="preserve">
<style type="text/css">
	.st0{fill-rule:evenodd;clip-rule:evenodd;fill:#FFBF42;fill-opacity:0.4;}
</style>
<path class="st0" d="M-3.2,91.6l4,6.3L8,96.1l-4.8,5.7l4,6.3l-6.9-2.8l-4.8,5.7l0.5-7.5l-6.9-2.8l7.3-1.8L-3.2,91.6z"/>
<path class="st0" d="M26.3,62.6l2,3.2l3.6-0.9l-2.4,2.9l2,3.2L28,69.5l-2.4,2.9l0.3-3.7l-3.5-1.4l3.6-0.9L26.3,62.6z"/>
<path class="st0" d="M7.2,37.9l0,4.3l4.1,1.3l-4,1.4L7.3,49l-2.5-3.4l-4,1.4l2.5-3.5l-2.6-3.4l4.1,1.3L7.2,37.9z"/>
<path class="st0" d="M43,3.9l0.6,3.8l3.8,0.6L44,10l0.6,3.8l-2.7-2.7l-3.4,1.8l1.7-3.4l-2.7-2.7l3.8,0.6L43,3.9z"/>
<path class="st0" d="M28.9,29l0.4,2.2l2.2,0.3l-2,1l0.4,2.2l-1.6-1.6l-2,1l1-2l-1.6-1.6l2.2,0.3L28.9,29z"/>
<path class="st0" d="M10.8,357l6,4.5l6.1-4.4l-2.4,7.1l6,4.4l-7.5-0.1l-2.3,7.1l-2.2-7.1l-7.5,0l6.1-4.3L10.8,357z"/>
<path class="st0" d="M27.6,319.2l3,2.2l3-2.2l-1.2,3.6l3,2.2l-3.7,0l-1.2,3.6l-1.1-3.6l-3.7,0l3.1-2.2L27.6,319.2z"/>
<path class="st0" d="M0.8,303.2l1.6,3.9l4.3-0.3l-3.3,2.7l1.6,3.9l-3.6-2.3l-3.2,2.8l1-4.1l-3.6-2.2l4.3-0.3L0.8,303.2z"/>
<path class="st0" d="M21.7,258.4l2,3.3l3.8-0.9l-2.5,2.9l2,3.3l-3.5-1.5l-2.5,2.9l0.4-3.8l-3.5-1.5l3.8-0.8L21.7,258.4z"/>
<path class="st0" d="M17.8,287l1.1,1.9l2.2-0.5l-1.5,1.7l1.1,1.9l-2-0.9l-1.5,1.7l0.2-2.2l-2-0.9l2.2-0.5L17.8,287z"/>
<path class="st0" d="M-3.2,611.6l4,6.3l7.2-1.8l-4.8,5.7l4,6.3l-6.9-2.8l-4.8,5.7l0.5-7.5l-6.9-2.8l7.3-1.8L-3.2,611.6z"/>
<path class="st0" d="M26.3,582.6l2,3.2l3.6-0.9l-2.4,2.9l2,3.2l-3.5-1.4l-2.4,2.9l0.3-3.7l-3.5-1.4l3.6-0.9L26.3,582.6z"/>
<path class="st0" d="M7.2,557.9l0,4.3l4.1,1.3l-4,1.4l0.1,4.3l-2.5-3.4l-4,1.4l2.5-3.5l-2.6-3.4l4.1,1.3L7.2,557.9z"/>
<path class="st0" d="M43,523.9l0.6,3.8l3.8,0.6L44,530l0.6,3.8l-2.7-2.7l-3.4,1.8l1.7-3.4l-2.7-2.7l3.8,0.6L43,523.9z"/>
<path class="st0" d="M28.9,549l0.4,2.2l2.2,0.3l-2,1l0.4,2.2l-1.6-1.6l-2,1l1-2l-1.6-1.6l2.2,0.3L28.9,549z"/>
</svg>
