<svg width="33" height="74" viewBox="0 0 33 74" fill="none" xmlns="http://www.w3.org/2000/svg">
<path d="M2.18689 70.6202C2.73689 70.2002 3.2469 69.9102 3.7869 69.7102C4.3269 69.5202 4.88689 69.4202 5.46689 69.3902C6.63689 69.3402 7.9069 69.5602 9.1369 69.8502C10.3569 70.1502 11.5169 70.5202 12.3869 70.8102C13.2469 71.1002 13.8169 71.3202 13.8169 71.3202C13.8169 71.3202 13.2669 71.6402 12.3769 72.0202C11.4869 72.4002 10.2569 72.8302 8.9169 73.0602C7.5869 73.2902 6.12688 73.3202 4.86688 72.9602C3.60688 72.6002 2.53688 71.8302 2.17688 70.6102L2.18689 70.6202Z" fill="#C58F27"/>
<path d="M5.92679 65.2001C5.44679 66.2701 4.75681 67.3101 3.85681 67.9901C3.40681 68.3301 2.90681 68.5801 2.35681 68.6901C1.81681 68.8001 1.23679 68.7701 0.676788 68.5301C0.646788 67.2501 0.996814 66.2401 1.54681 65.3501C2.09681 64.4701 2.87679 63.7101 3.67679 63.0501C4.47679 62.4001 5.30679 61.8501 5.92679 61.4601C6.54679 61.0701 6.9668 60.8401 6.9668 60.8401C6.9668 60.8401 6.9668 60.9801 6.9368 61.2201C6.9168 61.4601 6.87679 61.8001 6.80679 62.2101C6.66679 63.0301 6.40679 64.1201 5.92679 65.1901V65.2001Z" fill="#C58F27"/>
<path d="M14.707 68.05C13.487 67.99 12.3971 67.52 11.6371 66.5C12.2471 65.41 13.167 64.83 14.267 64.49C15.367 64.15 16.657 64.06 17.927 64.02C19.187 63.98 20.4371 64.02 21.3871 64.02C22.3471 64.04 22.957 64.05 22.957 64.05C22.957 64.05 22.837 64.18 22.627 64.39C22.407 64.59 22.0871 64.89 21.6971 65.22C20.9071 65.88 19.777 66.64 18.537 67.2C17.297 67.76 15.937 68.12 14.717 68.06L14.707 68.05Z" fill="#C58F27"/>
<path d="M12.387 63.2202C11.697 64.1002 10.727 64.6802 9.517 64.6202C9.027 63.4402 9.10701 62.3202 9.43701 61.2902C9.76701 60.2602 10.357 59.3202 10.957 58.5002C11.557 57.6802 12.167 56.9802 12.607 56.4802C12.827 56.2302 13.017 56.0202 13.147 55.8902C13.267 55.7502 13.347 55.6802 13.347 55.6802C13.347 55.6802 13.387 55.8102 13.447 56.0302C13.507 56.2602 13.577 56.5802 13.637 56.9802C13.767 57.7802 13.827 58.8802 13.657 60.0302C13.487 61.1702 13.077 62.3502 12.387 63.2302V63.2202Z" fill="#C58F27"/>
<path d="M27.3571 54.45C28.2271 54.18 28.7871 54.02 28.7871 54.02C28.7871 54.02 28.7371 54.16 28.6271 54.4C28.5071 54.64 28.3371 54.98 28.1171 55.37C27.8971 55.77 27.6171 56.23 27.3071 56.72C27.1471 56.96 26.9771 57.21 26.7971 57.46L26.6571 57.65L26.4771 57.88C26.3571 58.04 26.2371 58.19 26.1071 58.34C25.0971 59.55 23.8371 60.47 22.6071 60.86C21.3771 61.25 20.1871 61.13 19.1671 60.36C19.4571 59.14 20.1371 58.3 21.0671 57.58C21.2971 57.4 21.5471 57.23 21.7971 57.05C22.0471 56.88 22.3271 56.71 22.5971 56.55C22.8671 56.38 23.1471 56.21 23.4471 56.05C23.7171 55.9 23.9871 55.76 24.2671 55.63C25.3671 55.11 26.5071 54.71 27.3671 54.44L27.3571 54.45Z" fill="#C58F27"/>
<path d="M18.8669 56.6201C18.5369 57.6701 17.7769 58.5401 16.6169 58.8102C15.8169 57.8202 15.5569 56.7502 15.4869 55.7302C15.4269 54.7102 15.5669 53.7401 15.6769 52.9301C15.7169 52.5901 15.8469 52.0001 15.9769 51.5501C16.1069 51.0801 16.2469 50.6602 16.3769 50.3102C16.5069 49.9602 16.6269 49.6702 16.7169 49.4702C16.7869 49.2702 16.8369 49.1501 16.8369 49.1501C16.8369 49.1501 16.9169 49.2602 17.0469 49.4702C17.1869 49.6802 17.3569 49.9701 17.5469 50.3401C17.9269 51.0701 18.3869 52.1002 18.7069 53.2302C18.7869 53.5202 18.8569 53.8002 18.9169 54.1002C18.9669 54.3702 19.0069 54.6502 19.0369 54.9402C19.0569 55.2202 19.0369 55.5002 19.0169 55.7902C18.9869 56.0702 18.9269 56.3401 18.8469 56.6101L18.8669 56.6201Z" fill="#C58F27"/>
<path d="M28.687 50.1602C28.487 50.4102 28.257 50.6202 28.017 50.8202C27.777 51.0202 27.537 51.2102 27.287 51.3702C26.277 52.0202 25.157 52.2902 23.937 51.9302C23.837 51.3202 23.877 50.7602 24.037 50.2502C24.117 49.9902 24.227 49.7502 24.367 49.5102C24.497 49.2702 24.667 49.0402 24.827 48.8102C25.477 47.9002 26.487 47.1102 27.507 46.4102C28.497 45.7002 29.537 45.0902 30.337 44.6502C31.157 44.2102 31.667 43.9402 31.667 43.9402C31.667 43.9402 31.647 44.0902 31.577 44.3602C31.507 44.6202 31.397 44.9902 31.247 45.4402C30.947 46.3302 30.527 47.5202 29.817 48.6002C29.477 49.1502 29.107 49.6902 28.687 50.1602Z" fill="#C58F27"/>
<path d="M22.0968 49.6902C21.8568 50.1702 21.5068 50.5902 21.0268 50.9302C19.9168 50.3002 19.2868 49.3502 18.9568 48.3102C18.8668 48.0502 18.8069 47.7902 18.7569 47.5202C18.7269 47.3902 18.7069 47.2502 18.6969 47.1202C18.6769 46.9902 18.6569 46.8502 18.6369 46.7102C18.5669 46.1602 18.5468 45.6202 18.5668 45.0902C18.6368 44.0502 18.6968 43.0602 18.8368 42.3502C18.8968 41.9902 18.9669 41.7002 19.0069 41.4902C19.0369 41.2902 19.0668 41.1702 19.0668 41.1702C19.0668 41.1702 19.1668 41.2602 19.3368 41.4402C19.5168 41.6102 19.7368 41.8602 19.9968 42.1802C20.5168 42.8102 21.1568 43.7202 21.6868 44.7702C22.1868 45.8102 22.5068 46.9902 22.4968 48.1102C22.4968 48.3902 22.4569 48.6602 22.3869 48.9202C22.3269 49.1802 22.2269 49.4302 22.1069 49.6702L22.0968 49.6902Z" fill="#C58F27"/>
<path d="M30.8069 40.11C30.6569 40.39 30.4869 40.66 30.3069 40.91C30.1169 41.16 29.9069 41.39 29.6869 41.6C28.8169 42.45 27.7669 42.93 26.4969 42.81C26.2769 42.23 26.2169 41.68 26.2769 41.15C26.3069 40.88 26.3669 40.62 26.4569 40.36C26.5369 40.1 26.6269 39.84 26.7469 39.59C26.9769 39.08 27.3069 38.58 27.6769 38.09C27.8669 37.85 28.0569 37.61 28.2469 37.37C28.4369 37.13 28.6469 36.9 28.8469 36.67C29.6769 35.76 30.5869 34.92 31.2269 34.3C31.8769 33.68 32.3469 33.29 32.3469 33.29C32.3469 33.29 32.3669 33.92 32.3069 34.87C32.2769 35.34 32.1769 35.9 32.0669 36.49C32.0069 36.79 31.9469 37.09 31.8669 37.4C31.7969 37.71 31.7169 38.02 31.5969 38.33C31.3769 38.95 31.1069 39.56 30.7969 40.12L30.8069 40.11Z" fill="#C58F27"/>
<path d="M23.4869 42.14C22.2769 41.72 21.4769 40.92 20.9469 40.01C20.8169 39.78 20.6969 39.54 20.5969 39.3C20.4769 39.05 20.3769 38.81 20.2869 38.55C20.1069 38.05 19.9869 37.54 19.8969 37.04C19.8069 36.54 19.6969 36.06 19.6469 35.62C19.6169 35.39 19.5969 35.18 19.5869 34.98C19.5769 34.78 19.5669 34.59 19.5369 34.42C19.4569 33.73 19.4669 33.27 19.4669 33.27C19.4669 33.27 19.9369 33.53 20.6069 34.01C20.7769 34.13 20.9569 34.27 21.1369 34.41C21.3269 34.56 21.5169 34.72 21.7069 34.9C22.0769 35.25 22.4669 35.66 22.8269 36.1C23.0069 36.32 23.1869 36.56 23.3469 36.8C23.4269 36.92 23.5069 37.05 23.5869 37.17C23.6569 37.3 23.7269 37.42 23.7869 37.55C24.0369 38.06 24.2269 38.6 24.3369 39.15C24.3869 39.42 24.4269 39.69 24.4169 39.96C24.4069 40.23 24.3569 40.49 24.2969 40.74C24.1569 41.25 23.8969 41.73 23.4869 42.15V42.14Z" fill="#C58F27"/>
<path d="M27.8768 26.88C28.1568 26.34 28.4668 25.81 28.7568 25.32C29.0668 24.82 29.3368 24.37 29.5668 24C30.0468 23.24 30.3868 22.74 30.3868 22.74C30.3868 22.74 30.5668 23.34 30.7568 24.27C30.8268 24.74 30.8968 25.3 30.9368 25.9C30.9568 26.2 30.9768 26.51 30.9868 26.83C30.9868 27.15 30.9668 27.48 30.9368 27.8C30.8768 28.46 30.7968 29.12 30.6268 29.74C30.4368 30.37 30.1968 30.96 29.8868 31.47C29.2868 32.51 28.3168 33.22 27.0668 33.4C26.9068 33.14 26.7768 32.89 26.6868 32.63C26.5968 32.37 26.5168 32.11 26.4768 31.85C26.3868 31.32 26.4268 30.78 26.5568 30.23C26.6668 29.68 26.8368 29.12 27.0768 28.56C27.3168 28 27.6068 27.44 27.8768 26.89V26.88Z" fill="#C58F27"/>
<path d="M21.0568 31.7002C20.6768 31.3302 20.3568 30.9102 20.0868 30.4802C19.7868 30.0502 19.5268 29.6002 19.3168 29.1502C19.2068 28.9302 19.1268 28.7002 19.0168 28.4902C18.9168 28.2802 18.8168 28.0602 18.7368 27.8602C18.5668 27.4502 18.4468 27.0702 18.3368 26.7502C18.0868 26.1102 17.9768 25.6702 17.9768 25.6702C17.9768 25.6702 18.4968 25.7902 19.2668 26.0802C20.0568 26.3602 20.9968 26.8402 21.9368 27.5102C22.1668 27.6802 22.4068 27.8602 22.6168 28.0502C22.8268 28.2402 23.0268 28.4502 23.2168 28.6602C23.5968 29.0902 23.9368 29.5602 24.1568 30.0502C24.3668 30.5502 24.4868 31.0702 24.4868 31.5902C24.4868 31.8502 24.4668 32.1102 24.3768 32.3702C24.2968 32.6302 24.1768 32.8902 24.0168 33.1402C22.7468 33.0202 21.8368 32.4402 21.0568 31.7002Z" fill="#C58F27"/>
<path d="M24.7569 23.5501C24.5869 23.3301 24.4569 23.1001 24.3469 22.8501C24.2369 22.6101 24.1669 22.3501 24.1069 22.0901C24.0569 21.8301 24.0369 21.5501 24.0069 21.2801C23.9669 20.7301 24.0069 20.1401 24.0969 19.5401C24.1869 18.9401 24.2969 18.3401 24.4469 17.7401C24.7569 16.5401 25.0869 15.4101 25.3869 14.5501C25.6869 13.6901 25.8869 13.1401 25.8869 13.1401C25.8869 13.1401 25.9669 13.2701 26.0969 13.5101C26.2169 13.7501 26.3869 14.1001 26.5869 14.5201C26.9869 15.3601 27.3969 16.5701 27.6469 17.8301C27.7469 18.4701 27.8169 19.1301 27.8169 19.7701C27.8169 20.0901 27.7869 20.4101 27.7469 20.7201C27.6969 21.0301 27.6369 21.3301 27.5469 21.6201C27.3669 22.2001 27.1269 22.7101 26.7469 23.1501C26.3769 23.5901 25.8969 23.9401 25.3069 24.1901C25.0869 23.9901 24.8969 23.7701 24.7469 23.5501H24.7569Z" fill="#C58F27"/>
<path d="M14.7568 18.9802C14.6468 18.8102 14.5968 18.7102 14.5968 18.7102C14.5968 18.7102 14.7368 18.7102 14.9668 18.7102C15.2068 18.7102 15.5368 18.7402 15.9368 18.7902C16.3368 18.8402 16.8068 18.9202 17.3168 19.0302C17.5668 19.0902 17.8368 19.1502 18.0968 19.2302C18.3568 19.3102 18.6168 19.4002 18.8768 19.5102C19.3968 19.7202 19.9468 19.9702 20.4168 20.2902C20.8868 20.6102 21.3068 20.9802 21.6668 21.3902C21.8468 21.6002 21.9868 21.8202 22.1068 22.0502C22.2268 22.2802 22.3168 22.5302 22.3868 22.7802C22.4468 23.0302 22.4868 23.2902 22.4868 23.5602C22.4768 23.8302 22.4168 24.1102 22.3368 24.3902C21.7068 24.4902 21.1268 24.4702 20.5968 24.3502C20.0668 24.2302 19.5568 24.0302 19.0968 23.7702C18.8668 23.6402 18.6468 23.5002 18.4468 23.3402C18.3468 23.2702 18.2468 23.1802 18.1468 23.1002C18.0468 23.0202 17.9468 22.9402 17.8468 22.8502C17.4468 22.5102 17.0968 22.1402 16.7868 21.7602C16.4468 21.3902 16.1468 21.0102 15.8968 20.6502C15.8368 20.5602 15.7668 20.4702 15.7068 20.3802C15.6468 20.2902 15.5868 20.2102 15.5268 20.1302C15.4068 19.9702 15.2968 19.8102 15.2068 19.6702C15.0168 19.3802 14.8768 19.1302 14.7668 18.9602L14.7568 18.9802Z" fill="#C58F27"/>
<path d="M21.3169 15.79C20.7769 15.52 20.3669 15.15 20.0569 14.73C19.7269 14.32 19.5069 13.83 19.3569 13.29C19.0269 12.24 18.9769 10.98 18.9869 9.76999C18.9869 9.46999 19.0069 9.16 19.0269 8.86C19.0369 8.57 19.0569 8.28 19.0769 8C19.1169 7.44 19.1769 6.92 19.2269 6.47C19.3169 5.59 19.4169 5 19.4169 5C19.4169 5 19.5169 5.12 19.6969 5.31C19.8669 5.51 20.1169 5.8 20.3869 6.17C20.6569 6.54 20.9769 6.97 21.2669 7.48C21.5569 7.98 21.8669 8.53 22.1169 9.11C22.3569 9.7 22.5769 10.31 22.7169 10.93C22.8469 11.55 22.9169 12.17 22.8869 12.76C22.8069 13.95 22.3469 15.02 21.3269 15.78L21.3169 15.79Z" fill="#C58F27"/>
<path d="M15.9822 10.1446C15.3794 10.179 14.8397 10.062 14.3618 9.85186C13.8716 9.66036 13.437 9.34473 13.0383 8.95091C12.2296 8.20422 11.5594 7.13608 10.9662 6.08145C10.8169 5.8212 10.6801 5.54234 10.5482 5.27215C10.4126 5.0156 10.2857 4.75408 10.1638 4.50123C9.91987 3.99554 9.71323 3.51461 9.53274 3.09937C9.17304 2.29121 8.96628 1.72965 8.96628 1.72965C8.96628 1.72965 9.11273 1.784 9.36339 1.85928C9.61036 1.9482 9.9715 2.0754 10.3898 2.26205C10.8081 2.44871 11.2995 2.66254 11.8048 2.96069C12.3051 3.25017 12.8477 3.57307 13.3531 3.95184C13.8548 4.34426 14.3491 4.76397 14.779 5.23216C15.2002 5.70533 15.5693 6.20834 15.8368 6.73508C16.3594 7.80718 16.4927 8.96422 15.9859 10.1309L15.9822 10.1446Z" fill="#C58F27"/>
<path d="M12.4671 15.1501C12.0571 14.8501 11.6771 14.5501 11.3371 14.2501C10.9971 13.9501 10.6871 13.6801 10.4371 13.4301C10.1871 13.1801 9.97711 12.9801 9.83711 12.8301C9.69711 12.6801 9.61711 12.6001 9.61711 12.6001C9.61711 12.6001 10.1471 12.4801 10.9671 12.4001C11.3771 12.3601 11.8471 12.3401 12.3671 12.3401C12.8871 12.3401 13.4471 12.3801 14.0071 12.4701C15.1371 12.6401 16.2771 13.0201 17.1471 13.6701C17.5671 14.0001 17.9271 14.3901 18.1771 14.8501C18.4071 15.3101 18.5271 15.8401 18.5071 16.4201C17.3371 16.9301 16.2271 16.8901 15.2171 16.5901C14.7071 16.4501 14.2171 16.2301 13.7671 15.9801C13.3071 15.7301 12.8571 15.4501 12.4571 15.1501H12.4671Z" fill="#C58F27"/>
</svg>
