<?xml version="1.0" encoding="utf-8"?>
<!-- Generator: Adobe Illustrator 24.0.1, SVG Export Plug-In . SVG Version: 6.00 Build 0)  -->
<svg version="1.1" id="Layer_1" xmlns="http://www.w3.org/2000/svg" xmlns:xlink="http://www.w3.org/1999/xlink" x="0px" y="0px"
	 viewBox="0 0 72 703" style="enable-background:new 0 0 72 703;" xml:space="preserve">
<style type="text/css">
	.st0{fill-rule:evenodd;clip-rule:evenodd;fill:#FFBF42;fill-opacity:0.4;}
</style>
<path class="st0" d="M79.2,99.6l-4,6.3l-7.2-1.8l4.8,5.7l-4,6.3l6.9-2.8l4.8,5.7l-0.5-7.5l6.9-2.8l-7.3-1.8L79.2,99.6z"/>
<path class="st0" d="M47.8,60.5L45,65.1l-5.2-1.3l3.5,4.1l-2.9,4.6l5-2l3.5,4.1l-0.4-5.4l5-2l-5.2-1.3L47.8,60.5z"/>
<path class="st0" d="M66.8,41.9l0,4.3l-4.1,1.3l4,1.4L66.7,53l2.5-3.4l4,1.4l-2.5-3.5l2.6-3.4l-4.1,1.3L66.8,41.9z"/>
<path class="st0" d="M33,11.9l-0.6,3.8l-3.8,0.6L32,18l-0.6,3.8l2.7-2.7l3.4,1.8l-1.7-3.4l2.7-2.7l-3.8,0.6L33,11.9z"/>
<path class="st0" d="M47.1,37l-0.4,2.2l-2.2,0.3l2,1l-0.4,2.2l1.6-1.6l2,1l-1-2l1.6-1.6L48.1,39L47.1,37z"/>
<path class="st0" d="M72.2,274.6l-4,6.3l-7.2-1.8l4.8,5.7l-4,6.3l6.9-2.8l4.8,5.7l-0.5-7.5l6.9-2.8l-7.3-1.8L72.2,274.6z"/>
<path class="st0" d="M47.8,240.5l-2.9,4.6l-5.2-1.3l3.5,4.1l-2.9,4.6l5-2l3.5,4.1l-0.4-5.4l5-2l-5.2-1.3L47.8,240.5z"/>
<path class="st0" d="M66.8,221.9l0,4.3l-4.1,1.3l4,1.4l-0.1,4.3l2.5-3.4l4,1.4l-2.5-3.5l2.6-3.4l-4.1,1.3L66.8,221.9z"/>
<path class="st0" d="M33,191.9l-0.6,3.8l-3.8,0.6L32,198l-0.6,3.8l2.7-2.7l3.4,1.8l-1.7-3.4l2.7-2.7l-3.8,0.6L33,191.9z"/>
<path class="st0" d="M47.1,217l-0.4,2.2l-2.2,0.3l2,1l-0.4,2.2l1.6-1.6l2,1l-1-2l1.6-1.6l-2.2,0.3L47.1,217z"/>
<path class="st0" d="M79.2,679.6l-4,6.3l-7.2-1.8l4.8,5.7l-4,6.3l6.9-2.8l4.8,5.7l-0.5-7.5l6.9-2.8l-7.3-1.8L79.2,679.6z"/>
<path class="st0" d="M47.8,640.5l-2.9,4.6l-5.2-1.3l3.5,4.1l-2.9,4.6l5-2l3.5,4.1l-0.4-5.4l5-2l-5.2-1.3L47.8,640.5z"/>
<path class="st0" d="M66.8,621.9l0,4.3l-4.1,1.3l4,1.4l-0.1,4.3l2.5-3.4l4,1.4l-2.5-3.5l2.6-3.4l-4.1,1.3L66.8,621.9z"/>
<path class="st0" d="M33,591.9l-0.6,3.8l-3.8,0.6L32,598l-0.6,3.8l2.7-2.7l3.4,1.8l-1.7-3.4l2.7-2.7l-3.8,0.6L33,591.9z"/>
<path class="st0" d="M47.1,617l-0.4,2.2l-2.2,0.3l2,1l-0.4,2.2l1.6-1.6l2,1l-1-2l1.6-1.6l-2.2,0.3L47.1,617z"/>
<path class="st0" d="M32.2,306.9l2.3-4.9l5.4,0.6l-4-3.7l2.3-4.9l-4.7,2.6l-3.9-3.7l1.1,5.3l-4.7,2.6l5.4,0.6L32.2,306.9z"/>
<path class="st0" d="M53.1,353.2l0.1-3.9l3.7-1.1l-3.6-1.3l0.1-3.9l-2.4,3l-3.6-1.3l2.2,3.2l-2.4,3L51,350L53.1,353.2z"/>
<path class="st0" d="M36,330.1l0.1-2.2l2.1-0.6l-2.1-0.8l0.1-2.2l-1.4,1.7l-2.1-0.8l1.2,1.8l-1.4,1.7l2.1-0.6L36,330.1z"/>
</svg>
