<svg xmlns="http://www.w3.org/2000/svg" width="24" height="24" viewBox="0 0 24 24">
  <g id="book_mark" data-name="book mark" transform="translate(15605 -2023)">
    <rect id="Rectangle_7590" data-name="Rectangle 7590" width="24" height="24" transform="translate(-15605 2023)" fill="none"/>
    <g id="bookmark" transform="translate(-15600 2027)">
      <g id="Group_716" data-name="Group 716">
        <path id="Path_943" data-name="Path 943" d="M74.761,13.934a.671.671,0,0,0-.693.645.587.587,0,0,1-.195.45.783.783,0,0,1-.525.2.661.661,0,0,1-.471-.184l-3.652-3.491a.73.73,0,0,0-.994,0L64.579,15.04a.67.67,0,0,1-.475.184.771.771,0,0,1-.525-.191.576.576,0,0,1-.191-.442V2.58a1.343,1.343,0,0,1,1.387-1.29h7.9a1.343,1.343,0,0,1,1.387,1.29v8.806a.7.7,0,0,0,1.387,0V2.58A2.685,2.685,0,0,0,72.68,0h-7.9A2.685,2.685,0,0,0,62,2.58V14.59a1.829,1.829,0,0,0,.606,1.363,2.214,2.214,0,0,0,1.484.561h.037a2.1,2.1,0,0,0,1.444-.574l3.155-3.016,3.155,3.016a2.089,2.089,0,0,0,1.447.574,2.228,2.228,0,0,0,1.517-.567,1.841,1.841,0,0,0,.607-1.368A.671.671,0,0,0,74.761,13.934Z" transform="translate(-62.002)" fill="#8b90d4"/>
      </g>
    </g>
  </g>
</svg>
