<svg xmlns="http://www.w3.org/2000/svg" width="24" height="24" viewBox="0 0 24 24">
  <g id="books" transform="translate(15605 -2096)">
    <rect id="Rectangle_7592" data-name="Rectangle 7592" width="24" height="24" transform="translate(-15605 2096)" fill="none"/>
    <path id="book" d="M2.447.265A1.661,1.661,0,0,0,.795,1.917V3.569a.551.551,0,1,0,1.1,0V1.917a.538.538,0,0,1,.551-.551H4.1V5.222a.551.551,0,0,0,.858.455L6.3,4.783l1.346.894A.551.551,0,0,0,8.5,5.222V1.366H13.46a.538.538,0,0,1,.551.551V12.93a.538.538,0,0,1-.551.551H2.448a1.624,1.624,0,0,0-.552.1V8.525a.551.551,0,1,0-1.1,0l0,6.608a1.665,1.665,0,0,0,1.655,1.654h9.91a1.665,1.665,0,0,0,1.655-1.654v-.654a1.658,1.658,0,0,0,1.1-1.549V1.917A1.661,1.661,0,0,0,13.46.265ZM5.2,1.366H7.4V4.194l-.8-.532a.551.551,0,0,0-.61,0l-.8.532ZM1.346,5.771a.551.551,0,1,0,.551.551A.551.551,0,0,0,1.346,5.771Zm3.305,2.2a.551.551,0,1,0,0,1.1h4.4a.551.551,0,1,0,0-1.1Zm6.607,0a.551.551,0,1,0,.551.551A.551.551,0,0,0,11.258,7.974Zm-6.664,2.2a.552.552,0,1,0,.057,1.1h6.606a.551.551,0,0,0,0-1.1H4.594ZM2.448,14.583H12.911v.55a.541.541,0,0,1-.553.553H2.448a.551.551,0,1,1,0-1.1Z" transform="translate(-15600.953 2099.474)" fill="#8b90d4" stroke="#8b90d4" stroke-width="0.2"/>
  </g>
</svg>
