<svg xmlns="http://www.w3.org/2000/svg" width="24" height="24" viewBox="0 0 24 24">
  <g id="library" transform="translate(15605 -2096)">
    <rect id="Rectangle_7592" data-name="Rectangle 7592" width="24" height="24" transform="translate(-15605 2096)" fill="none"/>
    <g id="literature" transform="translate(-15603.478 2084.377)">
      <path id="Path_35028" data-name="Path 35028" d="M20.881,43.931H11.409a.439.439,0,0,1,0-.879h9.032V39.029H5.879v4.024H9.512a.439.439,0,0,1,0,.879H5.439A.439.439,0,0,1,5,43.492v-4.9a.439.439,0,0,1,.439-.439H20.881a.439.439,0,0,1,.439.439v4.9A.439.439,0,0,1,20.881,43.931Z" transform="translate(-2.243 -12.515)" fill="#8b90d4" stroke="#8b90d5" stroke-width="0.2"/>
      <path id="Path_35029" data-name="Path 35029" d="M12.563,43.931H10.849a.439.439,0,0,1-.439-.439v-4.9a.439.439,0,1,1,.879,0v4.463h.835V40.281a.439.439,0,1,1,.879,0v3.2a.439.439,0,0,1-.439.452ZM20.22,42.35a.439.439,0,0,1-.439-.439V40.153a.439.439,0,1,1,.879,0V41.91A.439.439,0,0,1,20.22,42.35Zm1.757,0a.439.439,0,0,1-.439-.439V40.153a.439.439,0,1,1,.879,0V41.91A.439.439,0,0,1,21.977,42.35Z" transform="translate(-5.276 -12.515)" fill="#8b90d4" stroke="#8b90d5" stroke-width="0.2"/>
      <path id="Path_35030" data-name="Path 35030" d="M16.881,32.777H1.439A.439.439,0,0,1,1,32.338v-4.9A.439.439,0,0,1,1.439,27H16.881a.439.439,0,0,1,.439.439v4.9A.439.439,0,0,1,16.881,32.777Zm-15-.879H16.441v-4.02H1.879Z" transform="translate(0 -6.263)" fill="#8b90d4" stroke="#8b90d5" stroke-width="0.2"/>
      <path id="Path_35031" data-name="Path 35031" d="M8.563,32.777H6.849a.439.439,0,0,1-.439-.439v-3.58a.439.439,0,0,1,.879,0v3.123h.835V27.439a.439.439,0,1,1,.879,0v4.9A.439.439,0,0,1,8.563,32.777ZM16.22,31.2a.439.439,0,0,1-.439-.439V29a.439.439,0,0,1,.879,0v1.757A.439.439,0,0,1,16.22,31.2Zm1.757,0a.439.439,0,0,1-.439-.439V29a.439.439,0,0,1,.879,0v1.757A.439.439,0,0,1,17.977,31.2Z" transform="translate(-3.033 -6.263)" fill="#8b90d4" stroke="#8b90d5" stroke-width="0.2"/>
      <path id="Path_35032" data-name="Path 35032" d="M22.881,21.616H7.439A.439.439,0,0,1,7,21.176V16.269a.439.439,0,0,1,.439-.439H22.881a.439.439,0,0,1,0,.879h-15v4.028H22.441V19.595a.439.439,0,1,1,.879,0v1.581A.439.439,0,0,1,22.881,21.616Z" transform="translate(-3.364)" fill="#8b90d4" stroke="#8b90d5" stroke-width="0.2"/>
      <path id="Path_35033" data-name="Path 35033" d="M12.849,21.616a.439.439,0,0,1-.439-.439V16.269a.439.439,0,0,1,.439-.439h1.713a.439.439,0,0,1,.439.439v3.765a.439.439,0,0,1-.879,0V16.709h-.835v4.468A.439.439,0,0,1,12.849,21.616Zm9.37-1.581a.439.439,0,0,1-.439-.439V17.838a.439.439,0,1,1,.879,0v1.757A.439.439,0,0,1,22.22,20.034Zm1.757,0a.439.439,0,0,1-.439-.439V17.838a.439.439,0,1,1,.879,0v1.757A.439.439,0,0,1,23.977,20.034Z" transform="translate(-6.398)" fill="#8b90d4" stroke="#8b90d5" stroke-width="0.2"/>
    </g>
  </g>
</svg>
