<svg xmlns="http://www.w3.org/2000/svg" width="24" height="24" viewBox="0 0 24 24">
  <g id="offers" transform="translate(15605 -2164)">
    <rect id="Rectangle_7594" data-name="Rectangle 7594" width="24" height="24" transform="translate(-15605 2164)" fill="none"/>
    <g id="offers-2" data-name="offers" transform="translate(-15611.036 2158.178)">
      <path id="Path_35039" data-name="Path 35039" d="M23.883,11.463l.394,1.181a1.743,1.743,0,0,0,.673.921l1,.669a1.759,1.759,0,0,1,.653,2.113L26.2,17.3a1.755,1.755,0,0,0,0,1.318l.394.933a1.759,1.759,0,0,1-.606,2.094l-.885.634a1.747,1.747,0,0,0-.669.948l-.319,1.118a1.755,1.755,0,0,1-1.838,1.271l-.956-.079a1.736,1.736,0,0,0-1.251.394l-.921.744a1.759,1.759,0,0,1-2.223,0l-.787-.645a1.751,1.751,0,0,0-1.118-.394H13.643a1.751,1.751,0,0,1-1.712-1.362l-.252-1.07a1.747,1.747,0,0,0-.724-1.059l-.846-.622a1.751,1.751,0,0,1-.665-2.035l.394-1.078a1.747,1.747,0,0,0,0-1.216l-.354-.944a1.755,1.755,0,0,1,.689-2.094l.933-.6a1.763,1.763,0,0,0,.74-1l.275-.992a1.759,1.759,0,0,1,1.846-1.279l.881.075A1.763,1.763,0,0,0,16.1,9.964l.838-.677a1.763,1.763,0,0,1,2.231,0L19.9,9.9a1.743,1.743,0,0,0,1.259.394l.925-.067a1.759,1.759,0,0,1,1.794,1.236Z" fill="none" stroke="#8b90d4" stroke-width="1.5"/>
      <path id="Path_35040" data-name="Path 35040" d="M22.611,22.464a1.077,1.077,0,1,0-1.077-1.077A1.077,1.077,0,0,0,22.611,22.464ZM25.9,26.987a1.077,1.077,0,1,0-1.077-1.077A1.077,1.077,0,0,0,25.9,26.987Zm1.077-6.14L21.3,26.522" transform="translate(-6.18 -5.665)" fill="none" stroke="#8b90d4" stroke-linecap="round" stroke-linejoin="round" stroke-width="1"/>
    </g>
  </g>
</svg>
