<svg width="24" height="24" viewBox="0 0 24 24" fill="none" xmlns="http://www.w3.org/2000/svg">
<path d="M10.1579 12.5007C10.3952 12.5007 10.6227 12.5929 10.7905 12.757C10.9583 12.9211 11.0526 13.1437 11.0526 13.3758C11.0526 13.6079 10.9583 13.8304 10.7905 13.9945C10.6227 14.1586 10.3952 14.2508 10.1579 14.2508H7.47367C7.23637 14.2508 7.00879 14.1586 6.841 13.9945C6.6732 13.8304 6.57894 13.6079 6.57894 13.3758C6.57894 13.1437 6.6732 12.9211 6.841 12.757C7.00879 12.5929 7.23637 12.5007 7.47367 12.5007H10.1579ZM15.5263 9.87554C15.5263 9.64346 15.432 9.42089 15.2642 9.25678C15.0964 9.09267 14.8688 9.00048 14.6315 9.00048H7.47367C7.23637 9.00048 7.00879 9.09267 6.841 9.25678C6.6732 9.42089 6.57894 9.64346 6.57894 9.87554C6.57894 10.1076 6.6732 10.3302 6.841 10.4943C7.00879 10.6584 7.23637 10.7506 7.47367 10.7506H14.6315C14.8688 10.7506 15.0964 10.6584 15.2642 10.4943C15.432 10.3302 15.5263 10.1076 15.5263 9.87554ZM7.47367 7.25036H14.6315C14.8688 7.25036 15.0964 7.15817 15.2642 6.99406C15.432 6.82996 15.5263 6.60738 15.5263 6.3753C15.5263 6.14322 15.432 5.92064 15.2642 5.75654C15.0964 5.59243 14.8688 5.50024 14.6315 5.50024H7.47367C7.23637 5.50024 7.00879 5.59243 6.841 5.75654C6.6732 5.92064 6.57894 6.14322 6.57894 6.3753C6.57894 6.60738 6.6732 6.82996 6.841 6.99406C7.00879 7.15817 7.23637 7.25036 7.47367 7.25036ZM18.2105 19.0147V22.3688C18.2105 22.4936 18.1727 22.6156 18.1019 22.7195C18.031 22.8233 17.9302 22.9042 17.8123 22.952C17.6944 22.9997 17.5646 23.0122 17.4394 22.9879C17.3143 22.9635 17.1993 22.9034 17.1091 22.8151L16.421 22.143L15.733 22.8151C15.6427 22.9034 15.5278 22.9635 15.4026 22.9879C15.2774 23.0122 15.1476 22.9997 15.0297 22.952C14.9118 22.9042 14.811 22.8233 14.7402 22.7195C14.6693 22.6156 14.6315 22.4936 14.6315 22.3688V19.0147C13.9492 18.6312 13.4156 18.0379 13.1139 17.327C12.8122 16.6161 12.7594 15.8276 12.9636 15.0843C13.1678 14.341 13.6176 13.6846 14.2429 13.2173C14.8682 12.75 15.634 12.4981 16.421 12.5007C16.7235 12.5044 17.0242 12.5462 17.3157 12.625V6.3753C17.3157 5.67906 17.0329 5.01133 16.5296 4.51902C16.0262 4.0267 15.3434 3.75012 14.6315 3.75012H7.47367C6.76178 3.75012 6.07904 4.0267 5.57565 4.51902C5.07227 5.01133 4.78947 5.67906 4.78947 6.3753V16.876C4.78947 17.5723 5.07227 18.24 5.57565 18.7323C6.07904 19.2246 6.76178 19.5012 7.47367 19.5012H11.9473C12.1846 19.5012 12.4122 19.5934 12.58 19.7575C12.7478 19.9216 12.8421 20.1442 12.8421 20.3763C12.8421 20.6083 12.7478 20.8309 12.58 20.995C12.4122 21.1591 12.1846 21.2513 11.9473 21.2513H7.47367C6.28762 21.2499 5.15054 20.7885 4.31188 19.9683C3.47321 19.1481 3.00142 18.036 3 16.876V6.3753C3.00142 5.21532 3.47321 4.10326 4.31188 3.28303C5.15054 2.4628 6.28762 2.00139 7.47367 2L14.6315 2C15.8176 2.00139 16.9547 2.4628 17.7933 3.28303C18.632 4.10326 19.1038 5.21532 19.1052 6.3753V13.7101C19.4557 14.095 19.7137 14.5517 19.8604 15.0468C20.0071 15.5419 20.0387 16.0627 19.9529 16.5713C19.8671 17.0799 19.6661 17.5632 19.3646 17.986C19.0631 18.4087 18.6688 18.7602 18.2105 19.0147ZM18.2105 16.001C18.2105 15.6548 18.1055 15.3165 17.9089 15.0286C17.7123 14.7408 17.4328 14.5165 17.1058 14.3841C16.7788 14.2516 16.419 14.2169 16.0719 14.2845C15.7248 14.352 15.4059 14.5187 15.1557 14.7634C14.9054 15.0082 14.735 15.32 14.6659 15.6595C14.5969 15.999 14.6323 16.3509 14.7678 16.6707C14.9032 16.9905 15.1326 17.2638 15.4268 17.4561C15.7211 17.6484 16.0671 17.7511 16.421 17.7511C16.8956 17.7511 17.3508 17.5667 17.6864 17.2385C18.0219 16.9103 18.2105 16.4651 18.2105 16.001Z" fill="#9D9FD6"/>
</svg>
