<svg xmlns="http://www.w3.org/2000/svg" width="24" height="24" viewBox="0 0 24 24">
  <g id="Group_40075" data-name="Group 40075" transform="translate(8888 6520)">
    <rect id="Rectangle_16969" data-name="Rectangle 16969" width="24" height="24" transform="translate(-8888 -6520)" fill="none"/>
    <path id="document_1_" data-name="document (1)" d="M14.155,18.818H6.6a1.779,1.779,0,0,1-1.777-1.777V4.6A1.779,1.779,0,0,1,6.6,2.826h5.331V6.084a2.075,2.075,0,0,0,2.073,2.073h3.258v3.11a.444.444,0,0,0,.888,0V7.712a.444.444,0,0,0-.13-.314L12.692,2.068a.444.444,0,0,0-.314-.13H6.6A2.668,2.668,0,0,0,3.938,4.6V17.041A2.668,2.668,0,0,0,6.6,19.706h7.552a.444.444,0,1,0,0-.888ZM12.822,3.454l3.814,3.814h-2.63a1.185,1.185,0,0,1-1.184-1.184Zm4.886,10.922a.444.444,0,0,0-.444.444v2.666a.444.444,0,0,0,.444.444h0a.444.444,0,0,0,.444-.444V14.82A.444.444,0,0,0,17.708,14.376Zm0,4.331a.555.555,0,1,0,.555.555A.555.555,0,0,0,17.708,18.707Zm-3.554-7.885H7.935a.444.444,0,0,0,0,.888h6.219a.444.444,0,1,0,0-.888Zm0,3.554H7.935a.444.444,0,1,0,0,.888h6.219a.444.444,0,0,0,0-.888ZM7.935,7.268a.444.444,0,0,0,0,.888H9.712a.444.444,0,1,0,0-.888Z" transform="translate(-8886.868 -6518.586)" fill="#fff" stroke="#8B90D4" stroke-width="0.5"/>
  </g>
</svg>
