<svg xmlns="http://www.w3.org/2000/svg" width="24" height="24" viewBox="0 0 24 24">
  <g id="unfill_shaathi" data-name="unfill shaathi" transform="translate(-953 13664)" opacity="0.6">
    <rect id="Rectangle_15654" data-name="Rectangle 15654" width="24" height="24" transform="translate(953 -13664)" fill="none"/>
    <path id="comments" d="M18,12v3.75A2.25,2.25,0,0,1,15.75,18H12a6,6,0,0,1-5.19-3,8.226,8.226,0,0,0,1.682-.186A4.491,4.491,0,0,0,12,16.5h3.75a.75.75,0,0,0,.75-.75V12a4.491,4.491,0,0,0-1.689-3.508A8.226,8.226,0,0,0,15,6.81,6,6,0,0,1,18,12ZM13.483,7.238A6.75,6.75,0,0,0,6.262.017,7.063,7.063,0,0,0,0,6.97v3.78c0,1.9,1.13,2.75,2.25,2.75H6.525a7.064,7.064,0,0,0,6.958-6.262Zm-3.02-4.2a5.264,5.264,0,0,1,1.524,4.095A5.523,5.523,0,0,1,6.525,12H2.25c-.7,0-.75-.956-.75-1.25V6.97A5.522,5.522,0,0,1,6.368,1.513q.187-.014.373-.014a5.259,5.259,0,0,1,3.722,1.538Z" transform="translate(956 -13660.999)" fill="#8b90d4"/>
  </g>
</svg>
