<svg xmlns="http://www.w3.org/2000/svg" width="19.225" height="19.225" viewBox="0 0 19.225 19.225">
  <g id="wallet" transform="translate(-2.365 -2.904)">
    <path id="Path_28162" data-name="Path 28162" d="M24.222,18.22a.8.8,0,0,0-.222.542.764.764,0,1,0,.222-.542Z" transform="translate(-6.867 -3.472)" fill="#9196d6"/>
    <g id="school" transform="translate(2.365 2.904)">
      <g id="Group_19264" data-name="Group 19264" transform="translate(7.239 7.282)">
        <g id="Group_19263" data-name="Group 19263">
          <path id="Path_28310" data-name="Path 28310" d="M195.174,193.944a2.373,2.373,0,1,0,2.373,2.373A2.376,2.376,0,0,0,195.174,193.944Zm0,3.62a1.247,1.247,0,1,1,1.247-1.247A1.248,1.248,0,0,1,195.174,197.564Z" transform="translate(-192.801 -193.944)" fill="#9196d6"/>
        </g>
      </g>
      <g id="Group_19266" data-name="Group 19266">
        <g id="Group_19265" data-name="Group 19265">
          <path id="Path_28311" data-name="Path 28311" d="M18.661,12.669H15.6V7.525l.41.187a.563.563,0,1,0,.466-1.025L10.176,3.82V1.73h1.85a.563.563,0,0,0,.563-.563v-.6A.563.563,0,0,0,12.025,0H9.612a.563.563,0,0,0-.563.563V3.82L2.743,6.686a.563.563,0,0,0,.466,1.025l.41-.187v5.143H.563A.563.563,0,0,0,0,13.232v5.429a.563.563,0,0,0,.563.563h18.1a.563.563,0,0,0,.563-.563V13.232A.563.563,0,0,0,18.661,12.669ZM3.62,18.1H1.126V13.8H3.62Zm7.239,0H8.366V15.605h2.493Zm3.62-4.866V18.1H11.985V15.042a.563.563,0,0,0-.563-.563H7.8a.563.563,0,0,0-.563.563V18.1H4.746V13.232h0V7.013L9.612,4.8l4.866,2.212ZM18.1,18.1H15.6V13.8H18.1Z" fill="#9196d6"/>
        </g>
      </g>
    </g>
  </g>
</svg>
